M48
; DRILL file {KiCad 8.0.6} date 2025-02-06T11:10:55+0100
; FORMAT={-:-/ absolute / metric / decimal}
; #@! TF.CreationDate,2025-02-06T11:10:55+01:00
; #@! TF.GenerationSoftware,Kicad,Pcbnew,8.0.6
; #@! TF.FileFunction,MixedPlating,1,2
FMAT,2
METRIC
; #@! TA.AperFunction,Plated,PTH,ViaDrill
T1C0.600
; #@! TA.AperFunction,Plated,PTH,ComponentDrill
T2C0.762
; #@! TA.AperFunction,Plated,PTH,ComponentDrill
T3C0.900
; #@! TA.AperFunction,Plated,PTH,ComponentDrill
T4C1.000
; #@! TA.AperFunction,Plated,PTH,ComponentDrill
T5C1.100
; #@! TA.AperFunction,NonPlated,NPTH,ComponentDrill
T6C1.100
; #@! TA.AperFunction,NonPlated,NPTH,ComponentDrill
T7C1.600
; #@! TA.AperFunction,NonPlated,NPTH,ComponentDrill
T8C2.600
%
G90
G05
T1
X65.69Y-57.4
X65.77Y-50.35
X65.77Y-76.61
X65.77Y-87.58
X65.77Y-96.91
X65.84Y-66.65
X66.08Y-106.01
X66.16Y-115.96
X66.39Y-125.21
X68.28Y-48.07
X74.2Y-61.21
X76.98Y-47.76
X77.07Y-71.16
X78.76Y-101.77
X80.42Y-88.77
X81.29Y-127.7
X83.91Y-58.79
X85.08Y-88.27
X85.99Y-101.97
X88.81Y-47.91
X88.95Y-58.55
X90.19Y-71.23
X90.3Y-127.96
X90.68Y-101.94
X92.02Y-57.23
X97.13Y-65.75
X97.19Y-68.33
X97.23Y-63.2
X98.61Y-48.31
X98.73Y-102.09
X99.74Y-90.84
X100.03Y-128.35
X101.16Y-121.63
X101.22Y-56.6
X109.29Y-115.05
X109.51Y-48.23
X109.59Y-128.98
X109.85Y-103.55
X110.45Y-87.39
X110.45Y-93.08
X111.34Y-55.55
X111.39Y-123.29
X111.62Y-84.67
X111.68Y-77.99
X113.81Y-98.25
X115.41Y-77.225
X116.88Y-58.42
X117.27Y-71.11
X118.76Y-105.76
X119.38Y-64.9
X119.49Y-98.99
X119.49Y-115.62
X120.49Y-47.91
X120.73Y-84.04
X121.16Y-123.29
X121.87Y-104.49
X121.93Y-93.86
X122.45Y-110.3
X126.58Y-102.92
X126.91Y-95.81
X127.41Y-104.23
X127.75Y-128.39
X129.04Y-47.98
X129.56Y-97.56
X131.48Y-55.51
X131.5Y-74.7
X131.97Y-79.93
X132.51Y-103.07
X132.74Y-99.06
X134.57Y-117.03
X134.721Y-113.689
X134.82Y-86.01
X135.53Y-105.89
X135.79Y-68.01
X136.55Y-115.03
X136.96Y-90.36
X137.27Y-82.33
X142.17Y-128.2
X142.97Y-129.34
X144.73Y-117.2
X147.3Y-124.36
X149.06Y-48.01
X151.68Y-105.29
X151.76Y-98.4
X151.76Y-112.47
X151.83Y-91.22
X151.86Y-58.83
X151.94Y-65.31
X151.98Y-72.22
X151.98Y-84.71
X152.05Y-78.21
X152.17Y-129.06
T2
X74.74Y-113.18
X74.74Y-115.18
X74.74Y-117.18
X74.74Y-119.18
X85.74Y-113.14
X85.74Y-115.14
X85.74Y-117.14
X85.74Y-119.14
X97.54Y-113.11
X97.54Y-115.11
X97.54Y-117.11
X97.54Y-119.11
T3
X70.97Y-70.73
X70.97Y-73.27
X70.97Y-75.81
X70.97Y-78.35
X70.97Y-80.89
X70.97Y-83.43
X70.97Y-85.97
X70.97Y-88.51
X93.83Y-70.73
X93.83Y-73.27
X93.83Y-75.81
X93.83Y-78.35
X93.83Y-80.89
X93.83Y-83.43
X93.83Y-85.97
X93.83Y-88.51
T4
X104.183Y-55.626
X104.183Y-58.166
X104.183Y-60.706
X104.183Y-63.246
X104.183Y-65.786
X104.183Y-68.326
X104.183Y-70.866
X104.183Y-73.406
X104.183Y-75.946
X104.183Y-78.486
X104.183Y-81.026
X104.183Y-83.566
X104.183Y-86.106
X104.183Y-88.646
X104.183Y-91.186
X108.503Y-55.626
X108.503Y-58.166
X108.503Y-60.706
X108.503Y-63.246
X108.503Y-65.786
X108.503Y-68.326
X108.503Y-70.866
X108.503Y-73.406
X108.503Y-75.946
X108.503Y-78.486
X108.503Y-81.026
X108.503Y-83.566
X108.503Y-86.106
X108.503Y-88.646
X108.503Y-91.186
X123.743Y-55.626
X123.743Y-58.166
X123.743Y-60.706
X123.743Y-63.246
X123.743Y-65.786
X123.743Y-68.326
X123.743Y-70.866
X123.743Y-73.406
X123.743Y-75.946
X123.743Y-78.486
X123.743Y-81.026
X123.743Y-83.566
X123.743Y-86.106
X123.743Y-88.646
X123.743Y-91.186
X128.313Y-55.638
X128.313Y-58.178
X128.313Y-60.718
X128.313Y-63.258
X128.313Y-65.798
X128.313Y-68.338
X128.313Y-70.878
X128.313Y-73.418
X128.313Y-75.958
X128.313Y-78.498
X128.313Y-81.038
X128.313Y-83.578
X128.313Y-86.118
X128.313Y-88.658
X128.313Y-91.198
X132.81Y-121.52
X132.81Y-124.06
X132.81Y-126.6
X134.42Y-58.97
X134.42Y-61.51
X139.26Y-121.535
X139.26Y-124.075
X139.26Y-126.615
X145.23Y-121.55
X145.23Y-124.09
X145.23Y-126.63
X149.38Y-121.55
X149.38Y-124.09
X149.38Y-126.63
T5
X139.7Y-64.83
X139.7Y-67.37
X139.7Y-69.91
X139.7Y-72.45
X139.7Y-74.99
X139.7Y-77.53
X139.7Y-80.07
X139.7Y-82.61
X139.7Y-85.15
X139.7Y-87.69
X139.7Y-90.23
X139.7Y-92.77
X139.7Y-95.31
X139.7Y-97.85
X139.7Y-100.39
X139.7Y-102.93
X139.7Y-105.47
X139.7Y-108.01
X139.7Y-110.55
X139.7Y-113.09
X140.31Y-49.95
X140.31Y-56.45
X142.24Y-64.83
X142.24Y-67.37
X142.24Y-69.91
X142.24Y-72.45
X142.24Y-74.99
X142.24Y-77.53
X142.24Y-80.07
X142.24Y-82.61
X142.24Y-85.15
X142.24Y-87.69
X142.24Y-90.23
X142.24Y-92.77
X142.24Y-95.31
X142.24Y-97.85
X142.24Y-100.39
X142.24Y-102.93
X142.24Y-105.47
X142.24Y-108.01
X142.24Y-110.55
X142.24Y-113.09
X144.81Y-49.95
X144.81Y-56.45
T6
X120.435Y-102.945
T7
X120.435Y-127.945
T8
X72.385Y-103.345
X72.385Y-127.545
M30
