M48
; DRILL file {KiCad 7.0.5-7.0.5~ubuntu22.04.1} date mar. 18 juil. 2023 09:36:11
; FORMAT={-:-/ absolute / metric / decimal}
; #@! TF.CreationDate,2023-07-18T09:36:11+02:00
; #@! TF.GenerationSoftware,Kicad,Pcbnew,7.0.5-7.0.5~ubuntu22.04.1
; #@! TF.FileFunction,MixedPlating,1,2
FMAT,2
METRIC
; #@! TA.AperFunction,Plated,PTH,ViaDrill
T1C0.600
; #@! TA.AperFunction,Plated,PTH,ComponentDrill
T2C0.600
; #@! TA.AperFunction,Plated,PTH,ComponentDrill
T3C1.000
; #@! TA.AperFunction,NonPlated,NPTH,ComponentDrill
T4C1.100
; #@! TA.AperFunction,NonPlated,NPTH,ComponentDrill
T5C1.600
; #@! TA.AperFunction,NonPlated,NPTH,ComponentDrill
T6C3.500
%
G90
G05
T1
X70.968Y-91.516
X73.959Y-72.492
X75.646Y-108.975
X76.2Y-88.951
X76.753Y-80.848
X78.176Y-113.117
X80.741Y-111.18
X81.732Y-83.261
X85.059Y-77.089
X85.567Y-100.584
X87.574Y-92.227
X89.885Y-64.536
X90.5Y-91.059
X95.987Y-92.126
X96.337Y-74.498
X98.064Y-109.677
X102.21Y-94.691
X104.902Y-122.555
X106.223Y-93.37
X106.528Y-105.004
X111.1Y-88.316
X114.63Y-65.786
X116.713Y-59.538
X120.193Y-122.047
X120.777Y-109.957
X127.401Y-122.479
X131.109Y-78.232
X132.969Y-107.747
X133.522Y-118.847
X144.216Y-124.866
T2
X72.556Y-107.18
X72.556Y-109.18
X72.556Y-111.18
X72.556Y-113.18
X75.646Y-97.308
X78.186Y-97.308
X80.726Y-97.308
X83.266Y-97.308
X87.627Y-107.117
X87.627Y-109.117
X87.627Y-111.117
X87.627Y-113.117
X102.575Y-107.117
X102.575Y-109.117
X102.575Y-111.117
X102.575Y-113.117
X104.183Y-55.626
X104.183Y-58.166
X104.183Y-60.706
X104.183Y-63.246
X104.183Y-65.786
X104.183Y-68.326
X104.183Y-70.866
X104.183Y-73.406
X104.183Y-75.946
X104.183Y-78.486
X104.183Y-81.026
X104.183Y-83.566
X104.183Y-86.106
X104.183Y-88.646
X104.183Y-91.186
X108.503Y-55.626
X108.503Y-58.166
X108.503Y-60.706
X108.503Y-63.246
X108.503Y-65.786
X108.503Y-68.326
X108.503Y-70.866
X108.503Y-73.406
X108.503Y-75.946
X108.503Y-78.486
X108.503Y-81.026
X108.503Y-83.566
X108.503Y-86.106
X108.503Y-88.646
X108.503Y-91.186
X123.743Y-55.626
X123.743Y-58.166
X123.743Y-60.706
X123.743Y-63.246
X123.743Y-65.786
X123.743Y-68.326
X123.743Y-70.866
X123.743Y-73.406
X123.743Y-75.946
X123.743Y-78.486
X123.743Y-81.026
X123.743Y-83.566
X123.743Y-86.106
X123.743Y-88.646
X123.743Y-91.186
X128.313Y-55.638
X128.313Y-58.178
X128.313Y-60.718
X128.313Y-63.258
X128.313Y-65.798
X128.313Y-68.338
X128.313Y-70.878
X128.313Y-73.418
X128.313Y-75.958
X128.313Y-78.498
X128.313Y-81.038
X128.313Y-83.578
X128.313Y-86.118
X128.313Y-88.658
X128.313Y-91.198
X129.56Y-97.15
X129.56Y-99.69
X130.779Y-116.18
X130.779Y-118.72
T3
X70.911Y-70.739
X70.911Y-73.279
X70.911Y-75.819
X70.911Y-78.359
X70.911Y-80.899
X70.911Y-83.439
X70.911Y-85.979
X70.911Y-88.519
X93.771Y-70.739
X93.771Y-73.279
X93.771Y-75.819
X93.771Y-78.359
X93.771Y-80.899
X93.771Y-83.439
X93.771Y-85.979
X93.771Y-88.519
X134.157Y-121.285
X134.157Y-128.905
X136.697Y-121.285
X136.697Y-128.905
X139.237Y-121.285
X139.237Y-128.905
X139.655Y-64.922
X139.655Y-67.462
X139.655Y-70.002
X139.655Y-72.542
X139.655Y-75.082
X139.655Y-77.622
X139.655Y-80.162
X139.655Y-82.702
X139.655Y-85.242
X139.655Y-87.782
X139.655Y-90.322
X139.655Y-92.862
X139.655Y-95.402
X139.655Y-97.942
X139.655Y-100.482
X139.655Y-103.022
X139.655Y-105.562
X139.655Y-108.102
X139.655Y-110.642
X139.655Y-113.182
X141.777Y-121.285
X141.777Y-128.905
X142.195Y-64.922
X142.195Y-67.462
X142.195Y-70.002
X142.195Y-72.542
X142.195Y-75.082
X142.195Y-77.622
X142.195Y-80.162
X142.195Y-82.702
X142.195Y-85.242
X142.195Y-87.782
X142.195Y-90.322
X142.195Y-92.862
X142.195Y-95.402
X142.195Y-97.942
X142.195Y-100.482
X142.195Y-103.022
X142.195Y-105.562
X142.195Y-108.102
X142.195Y-110.642
X142.195Y-113.182
X144.317Y-121.285
X144.317Y-128.905
X146.857Y-121.285
X146.857Y-128.905
X149.397Y-121.285
X149.397Y-128.905
T4
X120.435Y-102.945
T5
X120.435Y-127.945
T6
X67.314Y-102.882
X67.314Y-127.802
T0
M30
