%TF.GenerationSoftware,KiCad,Pcbnew,8.0.2-1*%
%TF.CreationDate,2024-08-02T11:08:52+02:00*%
%TF.ProjectId,Com_Nucleo-L432kc,436f6d5f-4e75-4636-9c65-6f2d4c343332,rev?*%
%TF.SameCoordinates,Original*%
%TF.FileFunction,Soldermask,Top*%
%TF.FilePolarity,Negative*%
%FSLAX46Y46*%
G04 Gerber Fmt 4.6, Leading zero omitted, Abs format (unit mm)*
G04 Created by KiCad (PCBNEW 8.0.2-1) date 2024-08-02 11:08:52*
%MOMM*%
%LPD*%
G01*
G04 APERTURE LIST*
G04 Aperture macros list*
%AMRoundRect*
0 Rectangle with rounded corners*
0 $1 Rounding radius*
0 $2 $3 $4 $5 $6 $7 $8 $9 X,Y pos of 4 corners*
0 Add a 4 corners polygon primitive as box body*
4,1,4,$2,$3,$4,$5,$6,$7,$8,$9,$2,$3,0*
0 Add four circle primitives for the rounded corners*
1,1,$1+$1,$2,$3*
1,1,$1+$1,$4,$5*
1,1,$1+$1,$6,$7*
1,1,$1+$1,$8,$9*
0 Add four rect primitives between the rounded corners*
20,1,$1+$1,$2,$3,$4,$5,0*
20,1,$1+$1,$4,$5,$6,$7,0*
20,1,$1+$1,$6,$7,$8,$9,0*
20,1,$1+$1,$8,$9,$2,$3,0*%
G04 Aperture macros list end*
%ADD10C,5.400000*%
%ADD11C,1.600000*%
%ADD12C,1.100000*%
%ADD13R,2.000000X0.600000*%
%ADD14R,3.200000X2.300000*%
%ADD15C,2.000000*%
%ADD16R,1.700000X1.700000*%
%ADD17O,1.700000X1.700000*%
%ADD18R,0.700000X0.510000*%
%ADD19RoundRect,0.250000X-0.475000X0.337500X-0.475000X-0.337500X0.475000X-0.337500X0.475000X0.337500X0*%
%ADD20R,1.524000X1.524000*%
%ADD21C,1.524000*%
%ADD22RoundRect,0.250000X-0.350000X-0.450000X0.350000X-0.450000X0.350000X0.450000X-0.350000X0.450000X0*%
%ADD23RoundRect,0.250000X0.337500X0.475000X-0.337500X0.475000X-0.337500X-0.475000X0.337500X-0.475000X0*%
%ADD24RoundRect,0.250000X0.350000X0.450000X-0.350000X0.450000X-0.350000X-0.450000X0.350000X-0.450000X0*%
%ADD25RoundRect,0.250000X0.475000X-0.337500X0.475000X0.337500X-0.475000X0.337500X-0.475000X-0.337500X0*%
%ADD26R,1.969999X0.532600*%
%ADD27R,1.295400X1.295400*%
%ADD28C,1.295400*%
%ADD29R,1.600000X1.600000*%
%ADD30O,1.600000X1.600000*%
%ADD31RoundRect,0.250000X-0.337500X-0.475000X0.337500X-0.475000X0.337500X0.475000X-0.337500X0.475000X0*%
%ADD32R,1.650000X1.650000*%
%ADD33C,1.650000*%
%TA.AperFunction,Profile*%
%ADD34C,0.100000*%
%TD*%
G04 APERTURE END LIST*
D10*
%TO.C,REF\u002A\u002A*%
X72610000Y-126370000D03*
%TD*%
%TO.C,REF\u002A\u002A*%
X72570000Y-104290000D03*
%TD*%
D11*
%TO.C,IC1*%
X120434748Y-127945000D03*
D12*
X120434748Y-102945000D03*
D13*
X124534748Y-127245000D03*
X116334748Y-126845000D03*
X124534748Y-126445000D03*
X116334748Y-126045000D03*
X124534748Y-125645000D03*
X116334748Y-125245000D03*
X124534748Y-124845000D03*
X116334748Y-124445000D03*
X124534748Y-124045000D03*
X116334748Y-123645000D03*
X124534748Y-123245000D03*
X116334748Y-122845000D03*
X124534748Y-122445000D03*
X116334748Y-122045000D03*
X124534748Y-121645000D03*
X116334748Y-121245000D03*
X124534748Y-117645000D03*
X116334748Y-117245000D03*
X124534748Y-116845000D03*
X116334748Y-116445000D03*
X124534748Y-116045000D03*
X116334748Y-115645000D03*
X124534748Y-115245000D03*
X116334748Y-114845000D03*
X124534748Y-114445000D03*
X116334748Y-114045000D03*
X124534748Y-113645000D03*
X116334748Y-113245000D03*
X124534748Y-112845000D03*
X116334748Y-112445000D03*
X124534748Y-112045000D03*
X116334748Y-111645000D03*
X124534748Y-111245000D03*
X116334748Y-110845000D03*
X124534748Y-110445000D03*
X116334748Y-110045000D03*
X124534748Y-109645000D03*
X116334748Y-109245000D03*
X124534748Y-108845000D03*
X116334748Y-108445000D03*
X124534748Y-108045000D03*
X116334748Y-107645000D03*
X124534748Y-107245000D03*
X116334748Y-106845000D03*
X124534748Y-106445000D03*
X116334748Y-106045000D03*
X124534748Y-105645000D03*
X116334748Y-105245000D03*
X124534748Y-104845000D03*
X116334748Y-104445000D03*
X124534748Y-104045000D03*
X116334748Y-103645000D03*
D14*
X123934748Y-130095000D03*
X123934748Y-100795000D03*
%TD*%
D15*
%TO.C,SW102*%
X139280000Y-55970000D03*
X139280000Y-49470000D03*
X143780000Y-55970000D03*
X143780000Y-49470000D03*
%TD*%
D16*
%TO.C,JP5*%
X131150000Y-99360000D03*
D17*
X133690000Y-99360000D03*
%TD*%
D18*
%TO.C,B2*%
X79970000Y-84870000D03*
X79970000Y-83920000D03*
X79970000Y-82970000D03*
X77650000Y-82970000D03*
X77650000Y-84870000D03*
%TD*%
D19*
%TO.C,C9*%
X115420000Y-93532500D03*
X115420000Y-95607500D03*
%TD*%
D20*
%TO.C,J3*%
X93530000Y-57570000D03*
D21*
X93530000Y-59570000D03*
X93530000Y-61570000D03*
X93530000Y-63570000D03*
%TD*%
D22*
%TO.C,R4*%
X98410048Y-100558600D03*
X100410048Y-100558600D03*
%TD*%
D23*
%TO.C,C1*%
X113721548Y-104873200D03*
X111646548Y-104873200D03*
%TD*%
D16*
%TO.C,J5*%
X93771248Y-70739000D03*
D17*
X93771248Y-73279000D03*
X93771248Y-75819000D03*
X93771248Y-78359000D03*
X93771248Y-80899000D03*
X93771248Y-83439000D03*
X93771248Y-85979000D03*
X93771248Y-88519000D03*
%TD*%
D18*
%TO.C,B1*%
X87190000Y-84870000D03*
X87190000Y-83920000D03*
X87190000Y-82970000D03*
X84870000Y-82970000D03*
X84870000Y-84870000D03*
%TD*%
D16*
%TO.C,J6*%
X128313249Y-55637948D03*
D17*
X128313249Y-58177948D03*
X128313249Y-60717948D03*
X128313249Y-63257948D03*
X128313249Y-65797948D03*
X128313249Y-68337948D03*
X128313249Y-70877948D03*
X128313249Y-73417948D03*
X128313249Y-75957948D03*
X128313249Y-78497948D03*
X128313249Y-81037948D03*
X128313249Y-83577948D03*
X128313249Y-86117948D03*
X128313249Y-88657948D03*
X128313249Y-91197948D03*
%TD*%
D16*
%TO.C,J7*%
X104183248Y-55626000D03*
D17*
X104183248Y-58166000D03*
X104183248Y-60706000D03*
X104183248Y-63246000D03*
X104183248Y-65786000D03*
X104183248Y-68326000D03*
X104183248Y-70866000D03*
X104183248Y-73406000D03*
X104183248Y-75946000D03*
X104183248Y-78486000D03*
X104183248Y-81026000D03*
X104183248Y-83566000D03*
X104183248Y-86106000D03*
X104183248Y-88646000D03*
X104183248Y-91186000D03*
%TD*%
D19*
%TO.C,C10*%
X117660000Y-93542500D03*
X117660000Y-95617500D03*
%TD*%
%TO.C,C11*%
X133880000Y-113070000D03*
X133880000Y-115145000D03*
%TD*%
D16*
%TO.C,JP4*%
X134170000Y-107570000D03*
D17*
X131630000Y-107570000D03*
%TD*%
D24*
%TO.C,R1*%
X148163948Y-118897400D03*
X146163948Y-118897400D03*
%TD*%
D19*
%TO.C,C3*%
X127426248Y-110163700D03*
X127426248Y-112238700D03*
%TD*%
D20*
%TO.C,J8*%
X70730000Y-57640000D03*
D21*
X70730000Y-59640000D03*
X70730000Y-61640000D03*
X70730000Y-63640000D03*
%TD*%
D25*
%TO.C,C4*%
X113200000Y-116117500D03*
X113200000Y-114042500D03*
%TD*%
D19*
%TO.C,C8*%
X132870000Y-59575000D03*
X132870000Y-61650000D03*
%TD*%
D26*
%TO.C,CR1*%
X113722400Y-86620000D03*
X113722400Y-87890000D03*
X113722400Y-89160000D03*
X113722400Y-90430000D03*
X118650000Y-90430000D03*
X118650000Y-89160000D03*
X118650000Y-87890000D03*
X118650000Y-86620000D03*
%TD*%
D19*
%TO.C,C7*%
X135880000Y-59575000D03*
X135880000Y-61650000D03*
%TD*%
D23*
%TO.C,C2*%
X113190000Y-126820000D03*
X111115000Y-126820000D03*
%TD*%
D25*
%TO.C,C6*%
X127390000Y-106905000D03*
X127390000Y-104830000D03*
%TD*%
D27*
%TO.C,U1*%
X134157248Y-128905000D03*
D28*
X136697248Y-128905000D03*
X139237248Y-128905000D03*
X141777248Y-128905000D03*
X144317248Y-128905000D03*
X146857248Y-128905000D03*
X149397248Y-128905000D03*
X149397248Y-121285000D03*
X146857248Y-121285000D03*
X144317248Y-121285000D03*
X141777248Y-121285000D03*
X139237248Y-121285000D03*
X136697248Y-121285000D03*
X134157248Y-121285000D03*
%TD*%
D29*
%TO.C,L432KC1*%
X108503248Y-55626000D03*
D30*
X108503248Y-58166000D03*
X108503248Y-60706000D03*
X108503248Y-63246000D03*
X108503248Y-65786000D03*
X108503248Y-68326000D03*
X108503248Y-70866000D03*
X108503248Y-73406000D03*
X108503248Y-75946000D03*
X108503248Y-78486000D03*
X108503248Y-81026000D03*
X108503248Y-83566000D03*
X108503248Y-86106000D03*
X108503248Y-88646000D03*
X108503248Y-91186000D03*
X123743248Y-91186000D03*
X123743248Y-88646000D03*
X123743248Y-86106000D03*
X123743248Y-83566000D03*
X123743248Y-81026000D03*
X123743248Y-78486000D03*
X123743248Y-75946000D03*
X123743248Y-73406000D03*
X123743248Y-70866000D03*
X123743248Y-68326000D03*
X123743248Y-65786000D03*
X123743248Y-63246000D03*
X123743248Y-60706000D03*
X123743248Y-58166000D03*
X123743248Y-55626000D03*
%TD*%
D20*
%TO.C,J9*%
X81730000Y-57600000D03*
D21*
X81730000Y-59600000D03*
X81730000Y-61600000D03*
X81730000Y-63600000D03*
%TD*%
D15*
%TO.C,SW103*%
X151360000Y-49320000D03*
X151360000Y-55820000D03*
X146860000Y-49320000D03*
X146860000Y-55820000D03*
%TD*%
D22*
%TO.C,R5*%
X98386548Y-98552000D03*
X100386548Y-98552000D03*
%TD*%
D24*
%TO.C,R2*%
X148163948Y-116357400D03*
X146163948Y-116357400D03*
%TD*%
D31*
%TO.C,C14*%
X73422500Y-89750000D03*
X75497500Y-89750000D03*
%TD*%
D15*
%TO.C,SW101*%
X131670000Y-55990000D03*
X131670000Y-49490000D03*
X136170000Y-55990000D03*
X136170000Y-49490000D03*
%TD*%
D16*
%TO.C,J4*%
X70911248Y-70739000D03*
D17*
X70911248Y-73279000D03*
X70911248Y-75819000D03*
X70911248Y-78359000D03*
X70911248Y-80899000D03*
X70911248Y-83439000D03*
X70911248Y-85979000D03*
X70911248Y-88519000D03*
%TD*%
D31*
%TO.C,C13*%
X73402500Y-87190000D03*
X75477500Y-87190000D03*
%TD*%
D16*
%TO.C,J2*%
X79030000Y-51010000D03*
D17*
X81570000Y-51010000D03*
X84110000Y-51010000D03*
X86650000Y-51010000D03*
%TD*%
D22*
%TO.C,R3*%
X98410048Y-102565200D03*
X100410048Y-102565200D03*
%TD*%
%TO.C,R6*%
X98384648Y-96281000D03*
X100384648Y-96281000D03*
%TD*%
D23*
%TO.C,C5*%
X113716548Y-102438200D03*
X111641548Y-102438200D03*
%TD*%
D32*
%TO.C,J1*%
X141997282Y-113187349D03*
D33*
X139457282Y-113187349D03*
X141997282Y-110647349D03*
X139457282Y-110647349D03*
X141997282Y-108107349D03*
X139457282Y-108107349D03*
X141997282Y-105567349D03*
X139457282Y-105567349D03*
X141997282Y-103027349D03*
X139457282Y-103027349D03*
X141997282Y-100487349D03*
X139457282Y-100487349D03*
X141997282Y-97947349D03*
X139457282Y-97947349D03*
X141997282Y-95407349D03*
X139457282Y-95407349D03*
X141997282Y-92867349D03*
X139457282Y-92867349D03*
X141997282Y-90327349D03*
X139457282Y-90327349D03*
X141997282Y-87787349D03*
X139457282Y-87787349D03*
X141997282Y-85247349D03*
X139457282Y-85247349D03*
X141997282Y-82707349D03*
X139457282Y-82707349D03*
X141997282Y-80167349D03*
X139457282Y-80167349D03*
X141997282Y-77627349D03*
X139457282Y-77627349D03*
X141997282Y-75087349D03*
X139457282Y-75087349D03*
X141997282Y-72547349D03*
X139457282Y-72547349D03*
X141997282Y-70007349D03*
X139457282Y-70007349D03*
X141997282Y-67467349D03*
X139457282Y-67467349D03*
X141997282Y-64927349D03*
X139457282Y-64927349D03*
%TD*%
D34*
X73750000Y-43050000D02*
X73750000Y-46550000D01*
X63750000Y-43050000D02*
X73750000Y-43050000D01*
X73750000Y-131550000D02*
X153750000Y-131550000D01*
X73750000Y-46550000D02*
X153750000Y-46550000D01*
X63750000Y-135050000D02*
X73750000Y-135050000D01*
X153750000Y-131550000D02*
X153750000Y-46550000D01*
X63750000Y-135050000D02*
X63750000Y-43050000D01*
X73750000Y-131550000D02*
X73750000Y-135050000D01*
M02*
