M48
; DRILL file {KiCad 7.0.5-7.0.5~ubuntu22.04.1} date mar. 27 juin 2023 08:30:06
; FORMAT={-:-/ absolute / metric / decimal}
; #@! TF.CreationDate,2023-06-27T08:30:06+02:00
; #@! TF.GenerationSoftware,Kicad,Pcbnew,7.0.5-7.0.5~ubuntu22.04.1
; #@! TF.FileFunction,MixedPlating,1,2
FMAT,2
METRIC
; #@! TA.AperFunction,Plated,PTH,ViaDrill
T1C0.600
; #@! TA.AperFunction,Plated,PTH,ComponentDrill
T2C0.600
; #@! TA.AperFunction,Plated,PTH,ComponentDrill
T3C1.000
; #@! TA.AperFunction,NonPlated,NPTH,ComponentDrill
T4C1.100
; #@! TA.AperFunction,NonPlated,NPTH,ComponentDrill
T5C1.600
; #@! TA.AperFunction,NonPlated,NPTH,ComponentDrill
T6C3.500
%
G90
G05
T1
X65.875Y-124.4
X68.914Y-111.738
X70.6Y-127.625
X73.825Y-116.9
X74.375Y-114.405
X76.026Y-97.514
X77.675Y-81.258
X79.601Y-101.448
X85.805Y-116.31
X87.71Y-118.85
X89.615Y-120.12
X96.09Y-88.878
X96.6Y-107.42
X97.231Y-103.614
X97.235Y-115.675
X97.995Y-66.653
X100.875Y-111.15
X111.45Y-58.075
X113.464Y-114.356
X114.2Y-120.65
X115.904Y-98.276
X117.55Y-66.85
X118.249Y-86.227
X118.315Y-74.292
X118.444Y-129.714
X119.46Y-123.295
X120.85Y-114.85
X120.855Y-93.323
X122.275Y-121.225
X122.385Y-103.995
X124.596Y-56.15
X124.665Y-54.059
X125.175Y-59.144
X125.35Y-62.45
X126.776Y-65.475
X132.275Y-59.15
X133.65Y-130.575
X134.124Y-111.75
X134.975Y-69.825
X135.4Y-58.1
X136.095Y-127.257
X136.675Y-65.1
X136.732Y-97.006
X136.732Y-98.906
X138.975Y-57.925
X146.1Y-128.975
X147.65Y-121.325
T2
X77.931Y-55.34
X77.931Y-57.34
X77.931Y-59.34
X77.931Y-61.34
X79.582Y-128.502
X82.122Y-128.502
X84.662Y-128.502
X87.202Y-128.502
X93.002Y-55.277
X93.002Y-57.277
X93.002Y-59.277
X93.002Y-61.277
X105.49Y-87.596
X105.49Y-90.136
X105.49Y-92.676
X105.49Y-95.216
X105.49Y-97.756
X105.49Y-100.296
X105.49Y-102.836
X105.49Y-105.376
X105.49Y-107.916
X105.49Y-110.456
X105.49Y-112.996
X105.49Y-115.536
X105.49Y-118.076
X105.49Y-120.616
X105.49Y-123.156
X107.95Y-55.277
X107.95Y-57.277
X107.95Y-59.277
X107.95Y-61.277
X110.06Y-87.608
X110.06Y-90.148
X110.06Y-92.688
X110.06Y-95.228
X110.06Y-97.768
X110.06Y-100.308
X110.06Y-102.848
X110.06Y-105.388
X110.06Y-107.928
X110.06Y-110.468
X110.06Y-113.008
X110.06Y-115.548
X110.06Y-118.088
X110.06Y-120.628
X110.06Y-123.168
X125.3Y-87.608
X125.3Y-90.148
X125.3Y-92.688
X125.3Y-95.228
X125.3Y-97.768
X125.3Y-100.308
X125.3Y-102.848
X125.3Y-105.388
X125.3Y-107.928
X125.3Y-110.468
X125.3Y-113.008
X125.3Y-115.548
X125.3Y-118.088
X125.3Y-120.628
X125.3Y-123.168
X129.62Y-87.608
X129.62Y-90.148
X129.62Y-92.688
X129.62Y-95.228
X129.62Y-97.768
X129.62Y-100.308
X129.62Y-102.848
X129.62Y-105.388
X129.62Y-107.928
X129.62Y-110.468
X129.62Y-113.008
X129.62Y-115.548
X129.62Y-118.088
X129.62Y-120.628
X129.62Y-123.168
X133.6Y-74.325
X133.6Y-76.865
X149.635Y-121.275
X152.175Y-121.275
T3
X71.167Y-102.765
X71.167Y-105.305
X71.167Y-107.845
X71.167Y-110.385
X71.167Y-112.925
X71.167Y-115.465
X71.167Y-118.005
X71.167Y-120.545
X94.027Y-102.765
X94.027Y-105.305
X94.027Y-107.845
X94.027Y-110.385
X94.027Y-112.925
X94.027Y-115.465
X94.027Y-118.005
X94.027Y-120.545
X135.89Y-53.34
X135.89Y-60.96
X138.43Y-53.34
X138.43Y-60.96
X139.663Y-64.913
X139.663Y-67.453
X139.663Y-69.993
X139.663Y-72.533
X139.663Y-75.073
X139.663Y-77.613
X139.663Y-80.153
X139.663Y-82.693
X139.663Y-85.233
X139.663Y-87.773
X139.663Y-90.313
X139.663Y-92.853
X139.663Y-95.393
X139.663Y-97.933
X139.663Y-100.473
X139.663Y-103.013
X139.663Y-105.553
X139.663Y-108.093
X139.663Y-110.633
X139.663Y-113.173
X140.97Y-53.34
X140.97Y-60.96
X142.203Y-64.913
X142.203Y-67.453
X142.203Y-69.993
X142.203Y-72.533
X142.203Y-75.073
X142.203Y-77.613
X142.203Y-80.153
X142.203Y-82.693
X142.203Y-85.233
X142.203Y-87.773
X142.203Y-90.313
X142.203Y-92.853
X142.203Y-95.393
X142.203Y-97.933
X142.203Y-100.473
X142.203Y-103.013
X142.203Y-105.553
X142.203Y-108.093
X142.203Y-110.633
X142.203Y-113.173
X143.51Y-53.34
X143.51Y-60.96
X146.05Y-53.34
X146.05Y-60.96
X148.59Y-53.34
X148.59Y-60.96
X151.13Y-53.34
X151.13Y-60.96
T4
X125.81Y-51.105
T5
X125.81Y-76.105
T6
X72.689Y-51.042
X72.689Y-75.962
T0
M30
