%TF.GenerationSoftware,KiCad,Pcbnew,7.0.5-7.0.5~ubuntu22.04.1*%
%TF.CreationDate,2023-07-18T09:35:07+02:00*%
%TF.ProjectId,Com_Nucleo-L432kc,436f6d5f-4e75-4636-9c65-6f2d4c343332,rev?*%
%TF.SameCoordinates,Original*%
%TF.FileFunction,Copper,L2,Bot*%
%TF.FilePolarity,Positive*%
%FSLAX46Y46*%
G04 Gerber Fmt 4.6, Leading zero omitted, Abs format (unit mm)*
G04 Created by KiCad (PCBNEW 7.0.5-7.0.5~ubuntu22.04.1) date 2023-07-18 09:35:07*
%MOMM*%
%LPD*%
G01*
G04 APERTURE LIST*
G04 Aperture macros list*
%AMRoundRect*
0 Rectangle with rounded corners*
0 $1 Rounding radius*
0 $2 $3 $4 $5 $6 $7 $8 $9 X,Y pos of 4 corners*
0 Add a 4 corners polygon primitive as box body*
4,1,4,$2,$3,$4,$5,$6,$7,$8,$9,$2,$3,0*
0 Add four circle primitives for the rounded corners*
1,1,$1+$1,$2,$3*
1,1,$1+$1,$4,$5*
1,1,$1+$1,$6,$7*
1,1,$1+$1,$8,$9*
0 Add four rect primitives between the rounded corners*
20,1,$1+$1,$2,$3,$4,$5,0*
20,1,$1+$1,$4,$5,$6,$7,0*
20,1,$1+$1,$6,$7,$8,$9,0*
20,1,$1+$1,$8,$9,$2,$3,0*%
G04 Aperture macros list end*
%TA.AperFunction,ComponentPad*%
%ADD10C,1.600000*%
%TD*%
%TA.AperFunction,ComponentPad*%
%ADD11O,2.100000X1.600000*%
%TD*%
%TA.AperFunction,ComponentPad*%
%ADD12O,2.000000X1.600000*%
%TD*%
%TA.AperFunction,ComponentPad*%
%ADD13O,1.700000X2.200000*%
%TD*%
%TA.AperFunction,ComponentPad*%
%ADD14O,1.600000X2.200000*%
%TD*%
%TA.AperFunction,SMDPad,CuDef*%
%ADD15R,0.700000X0.510000*%
%TD*%
%TA.AperFunction,SMDPad,CuDef*%
%ADD16RoundRect,0.250000X0.250000X0.475000X-0.250000X0.475000X-0.250000X-0.475000X0.250000X-0.475000X0*%
%TD*%
%TA.AperFunction,SMDPad,CuDef*%
%ADD17R,0.510000X0.700000*%
%TD*%
%TA.AperFunction,SMDPad,CuDef*%
%ADD18RoundRect,0.250000X0.475000X-0.250000X0.475000X0.250000X-0.475000X0.250000X-0.475000X-0.250000X0*%
%TD*%
%TA.AperFunction,SMDPad,CuDef*%
%ADD19RoundRect,0.250000X-0.250000X-0.475000X0.250000X-0.475000X0.250000X0.475000X-0.250000X0.475000X0*%
%TD*%
%TA.AperFunction,SMDPad,CuDef*%
%ADD20RoundRect,0.250000X-0.262500X-0.450000X0.262500X-0.450000X0.262500X0.450000X-0.262500X0.450000X0*%
%TD*%
%TA.AperFunction,SMDPad,CuDef*%
%ADD21R,1.969999X0.532600*%
%TD*%
%TA.AperFunction,ViaPad*%
%ADD22C,1.600000*%
%TD*%
%TA.AperFunction,Conductor*%
%ADD23C,0.500000*%
%TD*%
%TA.AperFunction,Conductor*%
%ADD24C,0.300000*%
%TD*%
G04 APERTURE END LIST*
D10*
%TO.P,JP5,1,A*%
%TO.N,Net-(CR1-ASC)*%
X129559848Y-97150000D03*
%TO.P,JP5,2,B*%
%TO.N,+3V3*%
X129559848Y-99690000D03*
%TD*%
%TO.P,J3,1,Pin_1*%
%TO.N,/SCL*%
X72556248Y-113180000D03*
%TO.P,J3,2,Pin_2*%
%TO.N,/SDA*%
X72556248Y-111180000D03*
%TO.P,J3,3,Pin_3*%
%TO.N,+3V3*%
X72556248Y-109180000D03*
%TO.P,J3,4,Pin_4*%
%TO.N,GND*%
X72556248Y-107180000D03*
%TD*%
D11*
%TO.P,J5,1,Pin_1*%
%TO.N,/PWM_MKR*%
X93771248Y-70739000D03*
%TO.P,J5,2,Pin_2*%
%TO.N,/INT_MKR*%
X93771248Y-73279000D03*
%TO.P,J5,3,Pin_3*%
%TO.N,unconnected-(J5-Pin_3-Pad3)*%
X93771248Y-75819000D03*
%TO.P,J5,4,Pin_4*%
%TO.N,unconnected-(J5-Pin_4-Pad4)*%
X93771248Y-78359000D03*
%TO.P,J5,5,Pin_5*%
%TO.N,/SCL*%
X93771248Y-80899000D03*
%TO.P,J5,6,Pin_6*%
%TO.N,/SDA*%
X93771248Y-83439000D03*
%TO.P,J5,7,Pin_7*%
%TO.N,unconnected-(J5-Pin_7-Pad7)*%
X93771248Y-85979000D03*
%TO.P,J5,8,Pin_8*%
%TO.N,GND*%
X93771248Y-88519000D03*
%TD*%
D12*
%TO.P,J6,1,Pin_1*%
%TO.N,/Vin*%
X128313249Y-55637948D03*
%TO.P,J6,2,Pin_2*%
%TO.N,GND*%
X128313249Y-58177948D03*
%TO.P,J6,3,Pin_3*%
%TO.N,unconnected-(J6-Pin_3-Pad3)*%
X128313249Y-60717948D03*
%TO.P,J6,4,Pin_4*%
%TO.N,Net-(J6-Pin_4)*%
X128313249Y-63257948D03*
%TO.P,J6,5,Pin_5*%
%TO.N,/INT_MKR*%
X128313249Y-65797948D03*
%TO.P,J6,6,Pin_6*%
%TO.N,/MCU_MOSI*%
X128313249Y-68337948D03*
%TO.P,J6,7,Pin_7*%
%TO.N,/MISO*%
X128313249Y-70877948D03*
%TO.P,J6,8,Pin_8*%
%TO.N,/RESET_SIGNAL*%
X128313249Y-73417948D03*
%TO.P,J6,9,Pin_9*%
%TO.N,/AN*%
X128313249Y-75957948D03*
%TO.P,J6,10,Pin_10*%
%TO.N,/GPIO(6)*%
X128313249Y-78497948D03*
%TO.P,J6,11,Pin_11*%
%TO.N,/HOST_SCK*%
X128313249Y-81037948D03*
%TO.P,J6,12,Pin_12*%
%TO.N,/SENS_ROUE{slash}MAG-X*%
X128313249Y-83577948D03*
%TO.P,J6,13,Pin_13*%
%TO.N,/AREF*%
X128313249Y-86117948D03*
%TO.P,J6,14,Pin_14*%
%TO.N,/3.3V*%
X128313249Y-88657948D03*
%TO.P,J6,15,Pin_15*%
%TO.N,/SENS_MAG-Y*%
X128313249Y-91197948D03*
%TD*%
%TO.P,J7,1,Pin_1*%
%TO.N,/SCL*%
X104183248Y-55626000D03*
%TO.P,J7,2,Pin_2*%
%TO.N,/SDA*%
X104183248Y-58166000D03*
%TO.P,J7,3,Pin_3*%
%TO.N,/L432KC_RESET*%
X104183248Y-60706000D03*
%TO.P,J7,4,Pin_4*%
%TO.N,GND*%
X104183248Y-63246000D03*
%TO.P,J7,5,Pin_5*%
%TO.N,/CAN1_TX*%
X104183248Y-65786000D03*
%TO.P,J7,6,Pin_6*%
%TO.N,/PWM_MAG-Y*%
X104183248Y-68326000D03*
%TO.P,J7,7,Pin_7*%
%TO.N,/RX_CALC*%
X104183248Y-70866000D03*
%TO.P,J7,8,Pin_8*%
%TO.N,/TX_CALC*%
X104183248Y-73406000D03*
%TO.P,J7,9,Pin_9*%
%TO.N,/PWM_MKR*%
X104183248Y-75946000D03*
%TO.P,J7,10,Pin_10*%
%TO.N,unconnected-(J7-Pin_10-Pad10)*%
X104183248Y-78486000D03*
%TO.P,J7,11,Pin_11*%
%TO.N,unconnected-(J7-Pin_11-Pad11)*%
X104183248Y-81026000D03*
%TO.P,J7,12,Pin_12*%
%TO.N,/PWM_ROUE{slash}MAG-X*%
X104183248Y-83566000D03*
%TO.P,J7,13,Pin_13*%
%TO.N,/CAN1_RX*%
X104183248Y-86106000D03*
%TO.P,J7,14,Pin_14*%
%TO.N,/MCU_NRESET*%
X104183248Y-88646000D03*
%TO.P,J7,15,Pin_15*%
%TO.N,/CS_MCU*%
X104183248Y-91186000D03*
%TD*%
D10*
%TO.P,JP4,1,A*%
%TO.N,/STANDBY_GPS*%
X130779048Y-116179600D03*
%TO.P,JP4,2,B*%
%TO.N,GND*%
X130779048Y-118719600D03*
%TD*%
%TO.P,J8,1,Pin_1*%
%TO.N,/SCL*%
X102574748Y-113117000D03*
%TO.P,J8,2,Pin_2*%
%TO.N,/SDA*%
X102574748Y-111117000D03*
%TO.P,J8,3,Pin_3*%
%TO.N,+3V3*%
X102574748Y-109117000D03*
%TO.P,J8,4,Pin_4*%
%TO.N,GND*%
X102574748Y-107117000D03*
%TD*%
D13*
%TO.P,U1,1*%
%TO.N,/MCU_NRESET*%
X134157248Y-128905000D03*
D14*
%TO.P,U1,2*%
%TO.N,/SX1303_RESET*%
X136697248Y-128905000D03*
%TO.P,U1,3*%
%TO.N,N/C*%
X139237248Y-128905000D03*
%TO.P,U1,4*%
X141777248Y-128905000D03*
D13*
%TO.P,U1,5*%
%TO.N,/CS_MCU*%
X144317248Y-128905000D03*
%TO.P,U1,6*%
%TO.N,Net-(B2-OE)*%
X146857248Y-128905000D03*
%TO.P,U1,7,GND*%
%TO.N,GND*%
X149397248Y-128905000D03*
%TO.P,U1,8*%
%TO.N,N/C*%
X149397248Y-121285000D03*
%TO.P,U1,9*%
X146857248Y-121285000D03*
%TO.P,U1,10*%
X144317248Y-121285000D03*
%TO.P,U1,11*%
X141777248Y-121285000D03*
%TO.P,U1,12*%
X139237248Y-121285000D03*
%TO.P,U1,13*%
X136697248Y-121285000D03*
%TO.P,U1,14,VCC*%
%TO.N,+3V3*%
X134157248Y-121285000D03*
%TD*%
D12*
%TO.P,L432KC1,1,D1*%
%TO.N,/SCL*%
X108503248Y-55626000D03*
%TO.P,L432KC1,2,D0*%
%TO.N,/SDA*%
X108503248Y-58166000D03*
%TO.P,L432KC1,3,RESET*%
%TO.N,/L432KC_RESET*%
X108503248Y-60706000D03*
%TO.P,L432KC1,4,GND*%
%TO.N,GND*%
X108503248Y-63246000D03*
%TO.P,L432KC1,5,D2*%
%TO.N,/CAN1_TX*%
X108503248Y-65786000D03*
%TO.P,L432KC1,6,D3*%
%TO.N,/PWM_MAG-Y*%
X108503248Y-68326000D03*
%TO.P,L432KC1,7,D4*%
%TO.N,/RX_CALC*%
X108503248Y-70866000D03*
%TO.P,L432KC1,8,D5*%
%TO.N,/TX_CALC*%
X108503248Y-73406000D03*
%TO.P,L432KC1,9,D6*%
%TO.N,/PWM_MKR*%
X108503248Y-75946000D03*
%TO.P,L432KC1,10,D7*%
%TO.N,unconnected-(L432KC1-D7-Pad10)*%
X108503248Y-78486000D03*
%TO.P,L432KC1,11,D8*%
%TO.N,unconnected-(L432KC1-D8-Pad11)*%
X108503248Y-81026000D03*
%TO.P,L432KC1,12,D9*%
%TO.N,/PWM_ROUE{slash}MAG-X*%
X108503248Y-83566000D03*
%TO.P,L432KC1,13,D10*%
%TO.N,/CAN1_RX*%
X108503248Y-86106000D03*
%TO.P,L432KC1,14,D11*%
%TO.N,/MCU_NRESET*%
X108503248Y-88646000D03*
%TO.P,L432KC1,15,D12*%
%TO.N,/CS_MCU*%
X108503248Y-91186000D03*
%TO.P,L432KC1,16,D13*%
%TO.N,/SENS_MAG-Y*%
X123743248Y-91186000D03*
%TO.P,L432KC1,17,+3V3*%
%TO.N,/3.3V*%
X123743248Y-88646000D03*
%TO.P,L432KC1,18,AREF*%
%TO.N,/AREF*%
X123743248Y-86106000D03*
%TO.P,L432KC1,19,A0*%
%TO.N,/SENS_ROUE{slash}MAG-X*%
X123743248Y-83566000D03*
%TO.P,L432KC1,20,A1*%
%TO.N,/HOST_SCK*%
X123743248Y-81026000D03*
%TO.P,L432KC1,21,A2*%
%TO.N,/GPIO(6)*%
X123743248Y-78486000D03*
%TO.P,L432KC1,22,A3*%
%TO.N,/AN*%
X123743248Y-75946000D03*
%TO.P,L432KC1,23,A4*%
%TO.N,/RESET_SIGNAL*%
X123743248Y-73406000D03*
%TO.P,L432KC1,24,A5*%
%TO.N,/MISO*%
X123743248Y-70866000D03*
%TO.P,L432KC1,25,A6*%
%TO.N,/MCU_MOSI*%
X123743248Y-68326000D03*
%TO.P,L432KC1,26,A7*%
%TO.N,/INT_MKR*%
X123743248Y-65786000D03*
%TO.P,L432KC1,27,+5V*%
%TO.N,Net-(J6-Pin_4)*%
X123743248Y-63246000D03*
%TO.P,L432KC1,28,RESET*%
%TO.N,unconnected-(L432KC1-RESET-Pad28)*%
X123743248Y-60706000D03*
%TO.P,L432KC1,29,GND*%
%TO.N,GND*%
X123743248Y-58166000D03*
%TO.P,L432KC1,30,VIN*%
%TO.N,/Vin*%
X123743248Y-55626000D03*
%TD*%
D10*
%TO.P,J9,1,Pin_1*%
%TO.N,/SCL*%
X87627248Y-113117000D03*
%TO.P,J9,2,Pin_2*%
%TO.N,/SDA*%
X87627248Y-111117000D03*
%TO.P,J9,3,Pin_3*%
%TO.N,+3V3*%
X87627248Y-109117000D03*
%TO.P,J9,4,Pin_4*%
%TO.N,GND*%
X87627248Y-107117000D03*
%TD*%
D11*
%TO.P,J4,1,Pin_1*%
%TO.N,/AN*%
X70911248Y-70739000D03*
%TO.P,J4,2,Pin_2*%
%TO.N,/MCU_NRESET*%
X70911248Y-73279000D03*
%TO.P,J4,3,Pin_3*%
%TO.N,/CS_MCU*%
X70911248Y-75819000D03*
%TO.P,J4,4,Pin_4*%
%TO.N,/HOST_SCK*%
X70911248Y-78359000D03*
%TO.P,J4,5,Pin_5*%
%TO.N,/MKB_MISO*%
X70911248Y-80899000D03*
%TO.P,J4,6,Pin_6*%
%TO.N,/MCU_MOSI*%
X70911248Y-83439000D03*
%TO.P,J4,7,Pin_7*%
%TO.N,+3V3*%
X70911248Y-85979000D03*
%TO.P,J4,8,Pin_8*%
%TO.N,GND*%
X70911248Y-88519000D03*
%TD*%
D10*
%TO.P,J2,1,Pin_1*%
%TO.N,+3V3*%
X75645648Y-97307800D03*
%TO.P,J2,2,Pin_2*%
%TO.N,/SCL*%
X78185648Y-97307800D03*
%TO.P,J2,3,Pin_3*%
%TO.N,/SDA*%
X80725648Y-97307800D03*
%TO.P,J2,4,Pin_4*%
%TO.N,GND*%
X83265648Y-97307800D03*
%TD*%
D11*
%TO.P,J1,1,GND*%
%TO.N,GND*%
X142194922Y-113182405D03*
%TO.P,J1,2,3V3*%
%TO.N,+3V3*%
X139654922Y-113182405D03*
%TO.P,J1,3,V_IN*%
%TO.N,/Vin*%
X142194922Y-110642405D03*
%TO.P,J1,4,5V*%
%TO.N,unconnected-(J1-5V-Pad4)*%
X139654922Y-110642405D03*
%TO.P,J1,5,V_B*%
%TO.N,unconnected-(J1-V_B-Pad5)*%
X142194922Y-108102405D03*
%TO.P,J1,6,NC1*%
%TO.N,/PWM_ROUE{slash}MAG-X*%
X139654922Y-108102405D03*
%TO.P,J1,7,NC2*%
%TO.N,unconnected-(J1-NC2-Pad7)*%
X142194922Y-105562405D03*
%TO.P,J1,8,NC3*%
%TO.N,/SENS_ROUE{slash}MAG-X*%
X139654922Y-105562405D03*
%TO.P,J1,9,NC4*%
%TO.N,/PWM_MAG-Y*%
X142194922Y-103022405D03*
%TO.P,J1,10,RD-*%
%TO.N,unconnected-(J1-RD--Pad10)*%
X139654922Y-103022405D03*
%TO.P,J1,11,NC*%
%TO.N,/SENS_MAG-Y*%
X142194922Y-100482405D03*
%TO.P,J1,12,RD+*%
%TO.N,unconnected-(J1-RD+-Pad12)*%
X139654922Y-100482405D03*
%TO.P,J1,13,NC*%
%TO.N,unconnected-(J1-NC-Pad13)*%
X142194922Y-97942405D03*
%TO.P,J1,14,TD-*%
%TO.N,unconnected-(J1-TD--Pad14)*%
X139654922Y-97942405D03*
%TO.P,J1,15,NC*%
%TO.N,unconnected-(J1-NC-Pad15)*%
X142194922Y-95402405D03*
%TO.P,J1,16,TD+*%
%TO.N,unconnected-(J1-TD+-Pad16)*%
X139654922Y-95402405D03*
%TO.P,J1,17,RX/SDA*%
%TO.N,/RX_CALC*%
X142194922Y-92862405D03*
%TO.P,J1,18,D-*%
%TO.N,unconnected-(J1-D--Pad18)*%
X139654922Y-92862405D03*
%TO.P,J1,19,TX/SCL*%
%TO.N,/TX_CALC*%
X142194922Y-90322405D03*
%TO.P,J1,20,D+*%
%TO.N,unconnected-(J1-D+-Pad20)*%
X139654922Y-90322405D03*
%TO.P,J1,21,SCK*%
%TO.N,unconnected-(J1-SCK-Pad21)*%
X142194922Y-87782405D03*
%TO.P,J1,22,RD*%
%TO.N,/CAN_RD*%
X139654922Y-87782405D03*
%TO.P,J1,23,MOSI*%
%TO.N,unconnected-(J1-MOSI-Pad23)*%
X142194922Y-85242405D03*
%TO.P,J1,24,TD*%
%TO.N,/CAN_TD*%
X139654922Y-85242405D03*
%TO.P,J1,25,MISO*%
%TO.N,unconnected-(J1-MISO-Pad25)*%
X142194922Y-82702405D03*
%TO.P,J1,26,SDA/RX*%
%TO.N,/SDA*%
X139654922Y-82702405D03*
%TO.P,J1,27,SSEL*%
%TO.N,unconnected-(J1-SSEL-Pad27)*%
X142194922Y-80162405D03*
%TO.P,J1,28,SCL/TX*%
%TO.N,/SCL*%
X139654922Y-80162405D03*
%TO.P,J1,29,AI_1*%
%TO.N,unconnected-(J1-AI_1-Pad29)*%
X142194922Y-77622405D03*
%TO.P,J1,30,PWM_O_1*%
%TO.N,/RESET_SIGNAL*%
X139654922Y-77622405D03*
%TO.P,J1,31,AI_2*%
%TO.N,unconnected-(J1-AI_2-Pad31)*%
X142194922Y-75082405D03*
%TO.P,J1,32,PWM_O_2*%
%TO.N,unconnected-(J1-PWM_O_2-Pad32)*%
X139654922Y-75082405D03*
%TO.P,J1,33,AI_3*%
%TO.N,unconnected-(J1-AI_3-Pad33)*%
X142194922Y-72542405D03*
%TO.P,J1,34,PWM_O_3*%
%TO.N,unconnected-(J1-PWM_O_3-Pad34)*%
X139654922Y-72542405D03*
%TO.P,J1,35,AI_4*%
%TO.N,unconnected-(J1-AI_4-Pad35)*%
X142194922Y-70002405D03*
%TO.P,J1,36,PWM_O_4*%
%TO.N,unconnected-(J1-PWM_O_4-Pad36)*%
X139654922Y-70002405D03*
%TO.P,J1,37,AI_5*%
%TO.N,unconnected-(J1-AI_5-Pad37)*%
X142194922Y-67462405D03*
%TO.P,J1,38,PWM_O_5*%
%TO.N,unconnected-(J1-PWM_O_5-Pad38)*%
X139654922Y-67462405D03*
%TO.P,J1,39,AI_6*%
%TO.N,unconnected-(J1-AI_6-Pad39)*%
X142194922Y-64922405D03*
%TO.P,J1,40,PWM_O_6*%
%TO.N,unconnected-(J1-PWM_O_6-Pad40)*%
X139654922Y-64922405D03*
%TD*%
D15*
%TO.P,B2,1,OE*%
%TO.N,Net-(B2-OE)*%
X76626248Y-85151000D03*
%TO.P,B2,2,A*%
%TO.N,/MKB_MISO*%
X76626248Y-84201000D03*
%TO.P,B2,3,GND*%
%TO.N,GND*%
X76626248Y-83251000D03*
%TO.P,B2,4,Y*%
%TO.N,/MISO*%
X78946248Y-83251000D03*
%TO.P,B2,5,VCC*%
%TO.N,+3V3*%
X78946248Y-85151000D03*
%TD*%
D16*
%TO.P,C9,1*%
%TO.N,+3V3*%
X110520048Y-94335600D03*
%TO.P,C9,2*%
%TO.N,GND*%
X108620048Y-94335600D03*
%TD*%
D17*
%TO.P,B1,1,OE*%
%TO.N,/CS_MCU*%
X86618648Y-85691200D03*
%TO.P,B1,2,A*%
%TO.N,/HOST_MISO*%
X85668648Y-85691200D03*
%TO.P,B1,3,GND*%
%TO.N,GND*%
X84718648Y-85691200D03*
%TO.P,B1,4,Y*%
%TO.N,/MISO*%
X84718648Y-83371200D03*
%TO.P,B1,5,VCC*%
%TO.N,+3V3*%
X86618648Y-83371200D03*
%TD*%
D18*
%TO.P,C10,1*%
%TO.N,+3V3*%
X111144848Y-92237600D03*
%TO.P,C10,2*%
%TO.N,GND*%
X111144848Y-90337600D03*
%TD*%
D19*
%TO.P,C11,1*%
%TO.N,+3V3*%
X136001248Y-118745000D03*
%TO.P,C11,2*%
%TO.N,GND*%
X137901248Y-118745000D03*
%TD*%
D20*
%TO.P,R7,1*%
%TO.N,/TH1*%
X99030948Y-64617600D03*
%TO.P,R7,2*%
%TO.N,/GPIO(6)*%
X100855948Y-64617600D03*
%TD*%
D18*
%TO.P,C8,1*%
%TO.N,/Vin*%
X122257248Y-52827000D03*
%TO.P,C8,2*%
%TO.N,GND*%
X122257248Y-50927000D03*
%TD*%
D21*
%TO.P,CR1,1,TX0*%
%TO.N,/CAN1_TX*%
X113634048Y-95808800D03*
%TO.P,CR1,2,GND*%
%TO.N,GND*%
X113634048Y-94538800D03*
%TO.P,CR1,3,VS*%
%TO.N,+3V3*%
X113634048Y-93268800D03*
%TO.P,CR1,4,RX0*%
%TO.N,/CAN1_RX*%
X113634048Y-91998800D03*
%TO.P,CR1,5,RX1*%
%TO.N,unconnected-(CR1-RX1-Pad5)*%
X118561648Y-91998800D03*
%TO.P,CR1,6,C_L*%
%TO.N,/CAN_RD*%
X118561648Y-93268800D03*
%TO.P,CR1,7,C_H*%
%TO.N,/CAN_TD*%
X118561648Y-94538800D03*
%TO.P,CR1,8,ASC*%
%TO.N,Net-(CR1-ASC)*%
X118561648Y-95808800D03*
%TD*%
D18*
%TO.P,C7,1*%
%TO.N,/Vin*%
X125267248Y-52827000D03*
%TO.P,C7,2*%
%TO.N,GND*%
X125267248Y-50927000D03*
%TD*%
D16*
%TO.P,C14,1*%
%TO.N,+3V3*%
X68178248Y-88862000D03*
%TO.P,C14,2*%
%TO.N,GND*%
X66278248Y-88862000D03*
%TD*%
%TO.P,C13,1*%
%TO.N,+3V3*%
X68178248Y-85852000D03*
%TO.P,C13,2*%
%TO.N,GND*%
X66278248Y-85852000D03*
%TD*%
D22*
%TO.N,+3V3*%
X75645648Y-108974600D03*
%TO.N,GND*%
X120192800Y-122047000D03*
X90500200Y-91059000D03*
X106222800Y-93370400D03*
X111099600Y-88315800D03*
X116713000Y-59537600D03*
X120777000Y-109956600D03*
X132969000Y-107746800D03*
X76200000Y-88950800D03*
X106527600Y-105003600D03*
X102209600Y-94691200D03*
X104902000Y-122555000D03*
X70967600Y-91516200D03*
X95986600Y-92125800D03*
%TO.N,Net-(IC1-REFCLK+)*%
X133522248Y-118846600D03*
X127400848Y-122478800D03*
%TO.N,/HOST_SCK*%
X131109248Y-78232000D03*
%TO.N,/HOST_MISO*%
X85567048Y-100584000D03*
%TO.N,/SDA*%
X80741048Y-111180000D03*
%TO.N,/SCL*%
X78175648Y-113117000D03*
%TO.N,/MCU_NRESET*%
X76753248Y-80848200D03*
%TO.N,/CS_MCU*%
X144215648Y-124866400D03*
X73959248Y-72491600D03*
X87573648Y-92227400D03*
%TO.N,/GPIO(6)*%
X114630200Y-65786000D03*
%TO.N,/TH1*%
X98063848Y-109677200D03*
%TO.N,/AN*%
X85059048Y-77089000D03*
%TO.N,/MISO*%
X81731648Y-83261200D03*
%TO.N,/PWM_MKR*%
X96336648Y-74498200D03*
%TO.N,/INT_MKR*%
X89885048Y-64536000D03*
%TD*%
D23*
%TO.N,+3V3*%
X75645648Y-108974600D02*
X75645648Y-97307800D01*
D24*
X129559848Y-99690000D02*
X116981848Y-99690000D01*
X115361248Y-93268800D02*
X113634048Y-93268800D01*
X78946248Y-85151000D02*
X78946248Y-94007200D01*
D23*
X139654922Y-113182405D02*
X108006279Y-113182405D01*
X136001248Y-115834200D02*
X136001248Y-118745000D01*
X110520048Y-93715800D02*
X111144848Y-93091000D01*
X112176048Y-93268800D02*
X111144848Y-92237600D01*
D24*
X85098648Y-84891200D02*
X86618648Y-83371200D01*
X116560600Y-94468152D02*
X115361248Y-93268800D01*
D23*
X110520048Y-94335600D02*
X110520048Y-93715800D01*
D24*
X116981848Y-99690000D02*
X116560600Y-99268752D01*
D23*
X103940874Y-109117000D02*
X102574748Y-109117000D01*
X139654922Y-113182405D02*
X138653043Y-113182405D01*
X68178248Y-88862000D02*
X68178248Y-85852000D01*
X138653043Y-113182405D02*
X136001248Y-115834200D01*
X134157248Y-120589000D02*
X136001248Y-118745000D01*
X134157248Y-121285000D02*
X134157248Y-120589000D01*
X68305248Y-85979000D02*
X68178248Y-85852000D01*
D24*
X78946248Y-94007200D02*
X75645648Y-97307800D01*
D23*
X108006279Y-113182405D02*
X103940874Y-109117000D01*
D24*
X116560600Y-99268752D02*
X116560600Y-94468152D01*
D23*
X70911248Y-85979000D02*
X68305248Y-85979000D01*
D24*
X78946248Y-85151000D02*
X79206048Y-84891200D01*
D23*
X113634048Y-93268800D02*
X112176048Y-93268800D01*
X111144848Y-93091000D02*
X111144848Y-92237600D01*
D24*
X79206048Y-84891200D02*
X85098648Y-84891200D01*
%TO.N,GND*%
X123743248Y-58166000D02*
X128301301Y-58166000D01*
X104183248Y-63246000D02*
X108503248Y-63246000D01*
X128301301Y-58166000D02*
X128313249Y-58177948D01*
X115417600Y-95173800D02*
X115417600Y-100507800D01*
X113634048Y-94538800D02*
X114782600Y-94538800D01*
X114782600Y-94538800D02*
X115417600Y-95173800D01*
D23*
%TO.N,/Vin*%
X142194922Y-110642405D02*
X149905248Y-102932079D01*
X123743248Y-55626000D02*
X128301301Y-55626000D01*
X122257248Y-54140000D02*
X123743248Y-55626000D01*
X128313249Y-55637948D02*
X128078196Y-55637948D01*
X129444301Y-56769000D02*
X128313249Y-55637948D01*
X125267248Y-52827000D02*
X122257248Y-52827000D01*
X122257248Y-52827000D02*
X122257248Y-54140000D01*
X140151648Y-56769000D02*
X129444301Y-56769000D01*
X149905248Y-66522600D02*
X140151648Y-56769000D01*
X149905248Y-102932079D02*
X149905248Y-66522600D01*
X128301301Y-55626000D02*
X128313249Y-55637948D01*
X128078196Y-55637948D02*
X125267248Y-52827000D01*
D24*
%TO.N,Net-(IC1-REFCLK+)*%
X129890048Y-122478800D02*
X133522248Y-118846600D01*
X127400848Y-122478800D02*
X129890048Y-122478800D01*
%TO.N,/HOST_SCK*%
X123743248Y-81026000D02*
X128301301Y-81026000D01*
X128315248Y-81026000D02*
X131109248Y-78232000D01*
X128301301Y-81026000D02*
X128313249Y-81037948D01*
X123743248Y-81026000D02*
X128315248Y-81026000D01*
%TO.N,/HOST_MISO*%
X85567048Y-100584000D02*
X85668648Y-100482400D01*
X85668648Y-100482400D02*
X85668648Y-85691200D01*
%TO.N,/PWM_ROUE{slash}MAG-X*%
X104183248Y-83566000D02*
X108503248Y-83566000D01*
%TO.N,/SENS_ROUE{slash}MAG-X*%
X123743248Y-83566000D02*
X128301301Y-83566000D01*
X128301301Y-83566000D02*
X128313249Y-83577948D01*
%TO.N,/PWM_MAG-Y*%
X104183248Y-68326000D02*
X108503248Y-68326000D01*
X109753248Y-67076000D02*
X108503248Y-68326000D01*
X129021048Y-67076000D02*
X109753248Y-67076000D01*
X142194922Y-103022405D02*
X148863848Y-96353479D01*
X148863848Y-96353479D02*
X148863848Y-71526400D01*
X146069848Y-68732400D02*
X130677448Y-68732400D01*
X148863848Y-71526400D02*
X146069848Y-68732400D01*
X130677448Y-68732400D02*
X129021048Y-67076000D01*
%TO.N,/SENS_MAG-Y*%
X136307706Y-99192405D02*
X128313249Y-91197948D01*
X142194922Y-100482405D02*
X140904922Y-99192405D01*
X140904922Y-99192405D02*
X136307706Y-99192405D01*
%TO.N,/RX_CALC*%
X145358643Y-92862405D02*
X148000248Y-90220800D01*
X148000248Y-73202800D02*
X146049853Y-71252405D01*
X129083796Y-69627948D02*
X124740395Y-69627948D01*
X124740395Y-69627948D02*
X124688447Y-69576000D01*
X148000248Y-90220800D02*
X148000248Y-73202800D01*
X109793248Y-69576000D02*
X108503248Y-70866000D01*
X104183248Y-70866000D02*
X108503248Y-70866000D01*
X124688447Y-69576000D02*
X109793248Y-69576000D01*
X130708253Y-71252405D02*
X129083796Y-69627948D01*
X146049853Y-71252405D02*
X130708253Y-71252405D01*
X142194922Y-92862405D02*
X145358643Y-92862405D01*
%TO.N,/TX_CALC*%
X145790443Y-90322405D02*
X146908048Y-89204800D01*
X109773248Y-72136000D02*
X108503248Y-73406000D01*
X130695473Y-73832405D02*
X128999068Y-72136000D01*
X146908048Y-74803000D02*
X145937453Y-73832405D01*
X142194922Y-90322405D02*
X145790443Y-90322405D01*
X104183248Y-73406000D02*
X108503248Y-73406000D01*
X128999068Y-72136000D02*
X109773248Y-72136000D01*
X146908048Y-89204800D02*
X146908048Y-74803000D01*
X145937453Y-73832405D02*
X130695473Y-73832405D01*
%TO.N,/CAN_RD*%
X123628215Y-93268800D02*
X126384848Y-90512167D01*
X126384848Y-90512167D02*
X126392881Y-90512167D01*
X118561648Y-93268800D02*
X123628215Y-93268800D01*
X139654922Y-87782405D02*
X137501327Y-89936000D01*
X137501327Y-89936000D02*
X126969048Y-89936000D01*
X139654922Y-87782405D02*
X139268517Y-87396000D01*
X126392881Y-90512167D02*
X126969048Y-89936000D01*
%TO.N,/CAN_TD*%
X117842949Y-94538800D02*
X117126649Y-93822500D01*
X139268517Y-84856000D02*
X118688648Y-84856000D01*
X118561648Y-94538800D02*
X117842949Y-94538800D01*
X139654922Y-85242405D02*
X139268517Y-84856000D01*
X117126649Y-85686799D02*
X117957448Y-84856000D01*
X117126649Y-93822500D02*
X117126649Y-85686799D01*
X117957448Y-84856000D02*
X118688648Y-84856000D01*
%TO.N,/SDA*%
X93491848Y-111117000D02*
X92271248Y-109896400D01*
X80725648Y-111164600D02*
X80741048Y-111180000D01*
X102574748Y-111117000D02*
X93491848Y-111117000D01*
X104183248Y-58166000D02*
X99613248Y-58166000D01*
X92271248Y-109896400D02*
X92271248Y-84939000D01*
X97784448Y-59994800D02*
X97784448Y-79425800D01*
X93491848Y-111117000D02*
X87627248Y-111117000D01*
X99613248Y-58166000D02*
X97784448Y-59994800D01*
X92271248Y-84939000D02*
X93771248Y-83439000D01*
X80725648Y-97307800D02*
X80725648Y-111164600D01*
X97784448Y-79425800D02*
X93771248Y-83439000D01*
X104183248Y-58166000D02*
X108503248Y-58166000D01*
%TO.N,/SCL*%
X104183248Y-55626000D02*
X108503248Y-55626000D01*
X93771248Y-80899000D02*
X93771248Y-81421233D01*
X85694048Y-112217200D02*
X86593848Y-113117000D01*
X104183248Y-55626000D02*
X89529448Y-55626000D01*
X87065648Y-80416400D02*
X87548248Y-80899000D01*
X102574748Y-113117000D02*
X87627248Y-113117000D01*
X88823648Y-86368833D02*
X88823648Y-102483600D01*
X78185648Y-113107000D02*
X78175648Y-113117000D01*
X88823648Y-102483600D02*
X85694048Y-105613200D01*
X86593848Y-113117000D02*
X87627248Y-113117000D01*
X89529448Y-55626000D02*
X87065648Y-58089800D01*
X85694048Y-105613200D02*
X85694048Y-112217200D01*
X93771248Y-81421233D02*
X88823648Y-86368833D01*
X87548248Y-80899000D02*
X93771248Y-80899000D01*
X87065648Y-58089800D02*
X87065648Y-80416400D01*
X78185648Y-97307800D02*
X78185648Y-113107000D01*
%TO.N,/RESET_SIGNAL*%
X131363248Y-76454000D02*
X128327196Y-73417948D01*
X128301301Y-73406000D02*
X128313249Y-73417948D01*
X123743248Y-73406000D02*
X128301301Y-73406000D01*
X128327196Y-73417948D02*
X128313249Y-73417948D01*
X139654922Y-77622405D02*
X138486517Y-76454000D01*
X138486517Y-76454000D02*
X131363248Y-76454000D01*
%TO.N,/MCU_NRESET*%
X134157248Y-128905000D02*
X133867248Y-129195000D01*
X64561248Y-119253000D02*
X64561248Y-79629000D01*
X104183248Y-88646000D02*
X108503248Y-88646000D01*
X71317648Y-73279000D02*
X70911248Y-73279000D01*
X133867248Y-129195000D02*
X74503248Y-129195000D01*
X76753248Y-80848200D02*
X76753248Y-78714600D01*
X74503248Y-129195000D02*
X64561248Y-119253000D01*
X64561248Y-79629000D02*
X70911248Y-73279000D01*
X76753248Y-78714600D02*
X71317648Y-73279000D01*
%TO.N,/L432KC_RESET*%
X104183248Y-60706000D02*
X108503248Y-60706000D01*
%TO.N,/CAN1_TX*%
X100857848Y-90957400D02*
X100857848Y-69111400D01*
X100857848Y-69111400D02*
X104183248Y-65786000D01*
X113634048Y-95808800D02*
X105709248Y-95808800D01*
X105709248Y-95808800D02*
X100857848Y-90957400D01*
X104183248Y-65786000D02*
X108503248Y-65786000D01*
%TO.N,/CS_MCU*%
X88843648Y-82550000D02*
X88843648Y-84988400D01*
X83255648Y-81788000D02*
X88081648Y-81788000D01*
X88140848Y-85691200D02*
X86618648Y-85691200D01*
X104183248Y-91186000D02*
X108503248Y-91186000D01*
X88081648Y-81788000D02*
X88843648Y-82550000D01*
X84347848Y-121793000D02*
X84347848Y-104876600D01*
X87446648Y-124891800D02*
X84347848Y-121793000D01*
X86618648Y-91272400D02*
X86618648Y-85691200D01*
X144215648Y-124866400D02*
X144190248Y-124891800D01*
X87573648Y-92227400D02*
X86618648Y-91272400D01*
X87573648Y-101650800D02*
X87573648Y-92227400D01*
X88843648Y-84988400D02*
X88140848Y-85691200D01*
X73959248Y-72491600D02*
X83255648Y-81788000D01*
X144190248Y-124891800D02*
X87446648Y-124891800D01*
X84347848Y-104876600D02*
X87573648Y-101650800D01*
%TO.N,/CAN1_RX*%
X113634048Y-88696800D02*
X113634048Y-91998800D01*
X108503248Y-86106000D02*
X111043248Y-86106000D01*
X104183248Y-86106000D02*
X108503248Y-86106000D01*
X111043248Y-86106000D02*
X113634048Y-88696800D01*
%TO.N,Net-(B2-OE)*%
X74060848Y-87716400D02*
X76626248Y-85151000D01*
X144647248Y-126695000D02*
X76245048Y-126695000D01*
X76245048Y-126695000D02*
X74060848Y-124510800D01*
X146857248Y-128905000D02*
X144647248Y-126695000D01*
X74060848Y-124510800D02*
X74060848Y-87716400D01*
%TO.N,Net-(CR1-ASC)*%
X118587048Y-95834200D02*
X118561648Y-95808800D01*
X128244048Y-95834200D02*
X118587048Y-95834200D01*
X129559848Y-97150000D02*
X128244048Y-95834200D01*
%TO.N,Net-(J6-Pin_4)*%
X123743248Y-63246000D02*
X128301301Y-63246000D01*
X128301301Y-63246000D02*
X128313249Y-63257948D01*
%TO.N,/MKB_MISO*%
X74213248Y-84201000D02*
X70911248Y-80899000D01*
X76626248Y-84201000D02*
X74213248Y-84201000D01*
%TO.N,/GPIO(6)*%
X114630200Y-65786000D02*
X113380200Y-64536000D01*
X128301301Y-78486000D02*
X128313249Y-78497948D01*
X100937548Y-64536000D02*
X100855948Y-64617600D01*
X113380200Y-64536000D02*
X100937548Y-64536000D01*
X123743248Y-78486000D02*
X128301301Y-78486000D01*
%TO.N,/AREF*%
X123743248Y-86106000D02*
X128301301Y-86106000D01*
X128301301Y-86106000D02*
X128313249Y-86117948D01*
%TO.N,/TH1*%
X99181448Y-64768100D02*
X99181448Y-108559600D01*
X99030948Y-64617600D02*
X99181448Y-64768100D01*
X99181448Y-108559600D02*
X98063848Y-109677200D01*
%TO.N,/AN*%
X128301301Y-75946000D02*
X128313249Y-75957948D01*
X84195448Y-77089000D02*
X77845448Y-70739000D01*
X77845448Y-70739000D02*
X70911248Y-70739000D01*
X85059048Y-77089000D02*
X84195448Y-77089000D01*
X123743248Y-75946000D02*
X128301301Y-75946000D01*
%TO.N,/MISO*%
X123743248Y-70866000D02*
X128301301Y-70866000D01*
X78956448Y-83261200D02*
X78946248Y-83251000D01*
X84718648Y-83371200D02*
X81841648Y-83371200D01*
X81731648Y-83261200D02*
X78956448Y-83261200D01*
X81841648Y-83371200D02*
X81731648Y-83261200D01*
X128301301Y-70866000D02*
X128313249Y-70877948D01*
%TO.N,/PWM_MKR*%
X95396848Y-70739000D02*
X93771248Y-70739000D01*
X96336648Y-74498200D02*
X96336648Y-71678800D01*
X96336648Y-71678800D02*
X95396848Y-70739000D01*
X104183248Y-75946000D02*
X108503248Y-75946000D01*
%TO.N,/INT_MKR*%
X89910448Y-70510400D02*
X92679048Y-73279000D01*
X128313249Y-65797948D02*
X123755196Y-65797948D01*
X89910448Y-64561400D02*
X89910448Y-70510400D01*
X123755196Y-65797948D02*
X123743248Y-65786000D01*
X89885048Y-64536000D02*
X89910448Y-64561400D01*
X92679048Y-73279000D02*
X93771248Y-73279000D01*
%TO.N,/3.3V*%
X128301301Y-88646000D02*
X128313249Y-88657948D01*
X123743248Y-88646000D02*
X128301301Y-88646000D01*
%TD*%
%TA.AperFunction,Conductor*%
%TO.N,GND*%
G36*
X73696366Y-46479685D02*
G01*
X73742121Y-46532489D01*
X73743893Y-46536558D01*
X73749459Y-46549999D01*
X73749459Y-46550000D01*
X73749500Y-46550099D01*
X73749617Y-46550383D01*
X73749618Y-46550384D01*
X73749808Y-46550462D01*
X73750000Y-46550541D01*
X73750002Y-46550539D01*
X73774616Y-46550524D01*
X73774616Y-46550528D01*
X73774760Y-46550500D01*
X153625500Y-46550500D01*
X153692539Y-46570185D01*
X153738294Y-46622989D01*
X153749500Y-46674500D01*
X153749500Y-131425500D01*
X153729815Y-131492539D01*
X153677011Y-131538294D01*
X153625500Y-131549500D01*
X73774760Y-131549500D01*
X73774554Y-131549459D01*
X73726753Y-131549459D01*
X73724033Y-131550000D01*
X63874500Y-131550000D01*
X63807461Y-131530315D01*
X63761706Y-131477511D01*
X63750500Y-131426000D01*
X63750500Y-127729812D01*
X65259740Y-127729812D01*
X65269748Y-128016393D01*
X65269749Y-128016400D01*
X65319545Y-128298807D01*
X65319546Y-128298811D01*
X65408164Y-128571548D01*
X65533870Y-128829283D01*
X65533873Y-128829287D01*
X65533875Y-128829291D01*
X65694234Y-129067034D01*
X65694237Y-129067037D01*
X65886116Y-129280141D01*
X65886123Y-129280148D01*
X66105793Y-129464474D01*
X66105797Y-129464477D01*
X66105799Y-129464478D01*
X66348994Y-129616443D01*
X66468819Y-129669793D01*
X66610958Y-129733078D01*
X66610963Y-129733079D01*
X66610971Y-129733083D01*
X66886632Y-129812127D01*
X66886637Y-129812127D01*
X66886642Y-129812129D01*
X67071509Y-129838110D01*
X67170606Y-129852037D01*
X67170608Y-129852038D01*
X67170611Y-129852038D01*
X67385588Y-129852038D01*
X67385600Y-129852038D01*
X67600067Y-129837041D01*
X67600072Y-129837040D01*
X67600074Y-129837040D01*
X67721659Y-129811195D01*
X67880571Y-129777418D01*
X68150046Y-129679337D01*
X68403249Y-129544707D01*
X68615736Y-129390326D01*
X68635242Y-129376154D01*
X68635243Y-129376152D01*
X68635250Y-129376148D01*
X68841535Y-129176941D01*
X69018089Y-128950963D01*
X69161473Y-128702613D01*
X69268899Y-128436725D01*
X69338275Y-128158473D01*
X69368251Y-127873274D01*
X69368027Y-127866870D01*
X69358664Y-127598734D01*
X69358243Y-127586679D01*
X69308446Y-127304266D01*
X69219829Y-127031532D01*
X69155906Y-126900470D01*
X69094121Y-126773792D01*
X69094119Y-126773789D01*
X69094117Y-126773785D01*
X68933758Y-126536042D01*
X68741871Y-126322930D01*
X68741868Y-126322927D01*
X68522198Y-126138601D01*
X68279002Y-125986635D01*
X68279000Y-125986634D01*
X68017033Y-125869997D01*
X68017023Y-125869994D01*
X68017021Y-125869993D01*
X67741360Y-125790949D01*
X67741358Y-125790948D01*
X67741349Y-125790946D01*
X67457385Y-125751038D01*
X67457381Y-125751038D01*
X67242392Y-125751038D01*
X67242379Y-125751038D01*
X67027921Y-125766035D01*
X67027917Y-125766035D01*
X66747423Y-125825657D01*
X66477950Y-125923737D01*
X66477946Y-125923738D01*
X66477946Y-125923739D01*
X66472076Y-125926860D01*
X66224748Y-126058365D01*
X66224741Y-126058370D01*
X65992749Y-126226921D01*
X65992742Y-126226927D01*
X65786455Y-126426137D01*
X65609903Y-126652112D01*
X65466521Y-126900458D01*
X65466515Y-126900470D01*
X65359093Y-127166349D01*
X65297782Y-127412255D01*
X65289717Y-127444603D01*
X65264517Y-127684367D01*
X65259740Y-127729812D01*
X63750500Y-127729812D01*
X63750500Y-119802651D01*
X63770185Y-119735612D01*
X63822989Y-119689857D01*
X63892147Y-119679913D01*
X63955703Y-119708938D01*
X63963198Y-119716779D01*
X63963429Y-119716549D01*
X63967389Y-119720509D01*
X63971001Y-119724943D01*
X63971783Y-119725761D01*
X63973031Y-119727340D01*
X63972984Y-119727377D01*
X63977730Y-119733202D01*
X63977776Y-119733164D01*
X63982421Y-119738699D01*
X64037612Y-119790769D01*
X64038906Y-119792026D01*
X73927515Y-129680634D01*
X73939296Y-129694266D01*
X73953638Y-129713530D01*
X73993668Y-129747119D01*
X73997640Y-129750759D01*
X74000560Y-129753679D01*
X74003468Y-129756588D01*
X74028500Y-129776381D01*
X74029897Y-129777519D01*
X74053063Y-129796957D01*
X74088034Y-129826302D01*
X74088042Y-129826306D01*
X74094072Y-129830273D01*
X74094038Y-129830323D01*
X74100385Y-129834366D01*
X74100417Y-129834316D01*
X74106569Y-129838110D01*
X74106570Y-129838110D01*
X74106571Y-129838111D01*
X74175391Y-129870202D01*
X74176940Y-129870952D01*
X74244815Y-129905040D01*
X74244824Y-129905042D01*
X74251603Y-129907510D01*
X74251582Y-129907567D01*
X74258699Y-129910040D01*
X74258718Y-129909984D01*
X74265572Y-129912254D01*
X74265575Y-129912256D01*
X74339963Y-129927615D01*
X74341600Y-129927978D01*
X74415527Y-129945500D01*
X74415533Y-129945500D01*
X74422700Y-129946338D01*
X74422693Y-129946397D01*
X74430194Y-129947163D01*
X74430200Y-129947104D01*
X74437389Y-129947733D01*
X74437391Y-129947732D01*
X74437392Y-129947733D01*
X74459012Y-129947104D01*
X74513260Y-129945526D01*
X74515063Y-129945500D01*
X132873972Y-129945500D01*
X132941011Y-129965185D01*
X132977780Y-130001678D01*
X133008677Y-130048969D01*
X133171484Y-130225825D01*
X133171487Y-130225827D01*
X133171490Y-130225830D01*
X133361172Y-130373466D01*
X133361178Y-130373470D01*
X133361181Y-130373472D01*
X133572592Y-130487882D01*
X133572595Y-130487883D01*
X133799947Y-130565933D01*
X133799949Y-130565933D01*
X133799951Y-130565934D01*
X134037056Y-130605500D01*
X134037057Y-130605500D01*
X134277439Y-130605500D01*
X134277440Y-130605500D01*
X134514545Y-130565934D01*
X134741904Y-130487882D01*
X134953315Y-130373472D01*
X135143012Y-130225825D01*
X135305819Y-130048969D01*
X135337195Y-130000944D01*
X135390338Y-129955590D01*
X135459569Y-129946166D01*
X135522905Y-129975667D01*
X135543736Y-129999331D01*
X135603661Y-130087992D01*
X135603662Y-130087993D01*
X135603669Y-130088003D01*
X135768627Y-130260118D01*
X135960301Y-130401879D01*
X136173174Y-130509207D01*
X136401125Y-130579016D01*
X136637594Y-130609298D01*
X136875780Y-130599180D01*
X137108829Y-130548954D01*
X137330038Y-130460064D01*
X137533043Y-130335069D01*
X137712003Y-130177564D01*
X137861771Y-129992080D01*
X137861777Y-129992070D01*
X137864720Y-129987717D01*
X137865605Y-129988315D01*
X137911649Y-129943144D01*
X137980061Y-129928945D01*
X138045289Y-129953987D01*
X138072768Y-129983102D01*
X138143661Y-130087993D01*
X138143666Y-130087998D01*
X138143669Y-130088003D01*
X138308627Y-130260118D01*
X138500301Y-130401879D01*
X138713174Y-130509207D01*
X138941125Y-130579016D01*
X139177594Y-130609298D01*
X139415780Y-130599180D01*
X139648829Y-130548954D01*
X139870038Y-130460064D01*
X140073043Y-130335069D01*
X140252003Y-130177564D01*
X140401771Y-129992080D01*
X140401777Y-129992070D01*
X140404720Y-129987717D01*
X140405605Y-129988315D01*
X140451649Y-129943144D01*
X140520061Y-129928945D01*
X140585289Y-129953987D01*
X140612768Y-129983102D01*
X140683661Y-130087993D01*
X140683666Y-130087998D01*
X140683669Y-130088003D01*
X140848627Y-130260118D01*
X141040301Y-130401879D01*
X141253174Y-130509207D01*
X141481125Y-130579016D01*
X141717594Y-130609298D01*
X141955780Y-130599180D01*
X142188829Y-130548954D01*
X142410038Y-130460064D01*
X142613043Y-130335069D01*
X142792003Y-130177564D01*
X142939582Y-129994790D01*
X142997011Y-129954999D01*
X143066839Y-129952572D01*
X143126893Y-129988283D01*
X143139864Y-130004868D01*
X143168677Y-130048969D01*
X143331484Y-130225825D01*
X143331487Y-130225827D01*
X143331490Y-130225830D01*
X143521172Y-130373466D01*
X143521178Y-130373470D01*
X143521181Y-130373472D01*
X143732592Y-130487882D01*
X143732595Y-130487883D01*
X143959947Y-130565933D01*
X143959949Y-130565933D01*
X143959951Y-130565934D01*
X144197056Y-130605500D01*
X144197057Y-130605500D01*
X144437439Y-130605500D01*
X144437440Y-130605500D01*
X144674545Y-130565934D01*
X144901904Y-130487882D01*
X145113315Y-130373472D01*
X145303012Y-130225825D01*
X145465819Y-130048969D01*
X145483441Y-130021995D01*
X145536585Y-129976641D01*
X145605816Y-129967217D01*
X145669152Y-129996718D01*
X145691052Y-130021992D01*
X145708677Y-130048969D01*
X145871484Y-130225825D01*
X145871487Y-130225827D01*
X145871490Y-130225830D01*
X146061172Y-130373466D01*
X146061178Y-130373470D01*
X146061181Y-130373472D01*
X146272592Y-130487882D01*
X146272595Y-130487883D01*
X146499947Y-130565933D01*
X146499949Y-130565933D01*
X146499951Y-130565934D01*
X146737056Y-130605500D01*
X146737057Y-130605500D01*
X146977439Y-130605500D01*
X146977440Y-130605500D01*
X147214545Y-130565934D01*
X147441904Y-130487882D01*
X147653315Y-130373472D01*
X147843012Y-130225825D01*
X148005819Y-130048969D01*
X148083847Y-129929537D01*
X148136992Y-129884183D01*
X148206223Y-129874759D01*
X148269559Y-129904261D01*
X148289229Y-129926238D01*
X148359134Y-130026073D01*
X148359139Y-130026079D01*
X148526165Y-130193105D01*
X148719669Y-130328600D01*
X148933755Y-130428429D01*
X148933764Y-130428433D01*
X149147248Y-130485634D01*
X149147248Y-129340501D01*
X149254933Y-129389680D01*
X149361485Y-129405000D01*
X149433011Y-129405000D01*
X149539563Y-129389680D01*
X149647248Y-129340501D01*
X149647248Y-130485633D01*
X149860731Y-130428433D01*
X149860740Y-130428429D01*
X150074825Y-130328600D01*
X150074827Y-130328599D01*
X150268321Y-130193113D01*
X150268327Y-130193108D01*
X150435356Y-130026079D01*
X150435361Y-130026073D01*
X150570847Y-129832579D01*
X150570848Y-129832577D01*
X150670677Y-129618492D01*
X150670681Y-129618483D01*
X150731815Y-129390326D01*
X150731817Y-129390316D01*
X150747247Y-129213946D01*
X150747248Y-129213946D01*
X150747248Y-129155000D01*
X149830934Y-129155000D01*
X149856741Y-129114844D01*
X149897248Y-128976889D01*
X149897248Y-128833111D01*
X149856741Y-128695156D01*
X149830934Y-128655000D01*
X150747248Y-128655000D01*
X150747248Y-128596053D01*
X150731817Y-128419683D01*
X150731815Y-128419673D01*
X150670681Y-128191516D01*
X150670677Y-128191507D01*
X150570848Y-127977422D01*
X150570847Y-127977420D01*
X150435361Y-127783926D01*
X150435356Y-127783920D01*
X150268330Y-127616894D01*
X150074826Y-127481399D01*
X149860740Y-127381570D01*
X149860734Y-127381567D01*
X149647248Y-127324364D01*
X149647248Y-128469498D01*
X149539563Y-128420320D01*
X149433011Y-128405000D01*
X149361485Y-128405000D01*
X149254933Y-128420320D01*
X149147248Y-128469498D01*
X149147248Y-127324364D01*
X149147247Y-127324364D01*
X148933761Y-127381567D01*
X148933755Y-127381570D01*
X148719670Y-127481399D01*
X148719668Y-127481400D01*
X148526174Y-127616886D01*
X148526168Y-127616891D01*
X148359139Y-127783920D01*
X148359138Y-127783922D01*
X148289229Y-127883762D01*
X148234652Y-127927387D01*
X148165153Y-127934579D01*
X148102799Y-127903057D01*
X148083846Y-127880460D01*
X148053708Y-127834330D01*
X148005819Y-127761031D01*
X147843012Y-127584175D01*
X147843007Y-127584171D01*
X147843005Y-127584169D01*
X147653323Y-127436533D01*
X147653317Y-127436529D01*
X147441905Y-127322118D01*
X147441900Y-127322116D01*
X147214548Y-127244066D01*
X147036716Y-127214391D01*
X146977440Y-127204500D01*
X146737056Y-127204500D01*
X146707391Y-127209450D01*
X146499950Y-127244065D01*
X146392806Y-127280848D01*
X146323007Y-127283997D01*
X146264863Y-127251247D01*
X145222977Y-126209361D01*
X145211197Y-126195730D01*
X145203730Y-126185701D01*
X145196860Y-126176472D01*
X145196858Y-126176470D01*
X145156835Y-126142886D01*
X145152860Y-126139244D01*
X145147025Y-126133409D01*
X145132573Y-126121982D01*
X145092196Y-126064962D01*
X145089056Y-125995163D01*
X145124151Y-125934746D01*
X145133312Y-125926868D01*
X145167432Y-125900313D01*
X145324627Y-125729553D01*
X145451572Y-125535249D01*
X145544805Y-125322700D01*
X145601782Y-125097705D01*
X145601783Y-125097697D01*
X145620948Y-124866406D01*
X145620948Y-124866393D01*
X145601783Y-124635102D01*
X145601781Y-124635091D01*
X145544805Y-124410099D01*
X145451572Y-124197551D01*
X145324631Y-124003252D01*
X145324628Y-124003249D01*
X145324627Y-124003247D01*
X145167432Y-123832487D01*
X145167427Y-123832483D01*
X145167425Y-123832481D01*
X144984282Y-123689935D01*
X144984276Y-123689931D01*
X144780152Y-123579464D01*
X144780143Y-123579461D01*
X144560632Y-123504102D01*
X144388929Y-123475450D01*
X144331697Y-123465900D01*
X144099599Y-123465900D01*
X144053812Y-123473540D01*
X143870663Y-123504102D01*
X143651152Y-123579461D01*
X143651143Y-123579464D01*
X143447019Y-123689931D01*
X143447013Y-123689935D01*
X143263870Y-123832481D01*
X143263867Y-123832484D01*
X143106667Y-124003249D01*
X143053178Y-124085121D01*
X143000032Y-124130478D01*
X142949369Y-124141300D01*
X87808878Y-124141300D01*
X87741839Y-124121615D01*
X87721197Y-124104981D01*
X85134667Y-121518451D01*
X85101182Y-121457128D01*
X85098348Y-121430770D01*
X85098348Y-118719602D01*
X129474082Y-118719602D01*
X129493906Y-118946199D01*
X129493908Y-118946210D01*
X129552778Y-119165917D01*
X129552782Y-119165926D01*
X129648913Y-119372081D01*
X129648914Y-119372083D01*
X129700021Y-119445071D01*
X129700021Y-119445072D01*
X130425494Y-118719600D01*
X130425493Y-118719598D01*
X129700021Y-117994126D01*
X129648916Y-118067113D01*
X129552782Y-118273273D01*
X129552778Y-118273282D01*
X129493908Y-118492989D01*
X129493906Y-118493000D01*
X129474082Y-118719597D01*
X129474082Y-118719602D01*
X85098348Y-118719602D01*
X85098348Y-117213513D01*
X85098348Y-116179606D01*
X129373748Y-116179606D01*
X129392912Y-116410897D01*
X129392914Y-116410908D01*
X129449890Y-116635900D01*
X129543123Y-116848448D01*
X129670064Y-117042747D01*
X129670067Y-117042751D01*
X129670069Y-117042753D01*
X129827264Y-117213513D01*
X129827267Y-117213515D01*
X129827270Y-117213518D01*
X130010413Y-117356064D01*
X130010428Y-117356074D01*
X130087443Y-117397753D01*
X130137033Y-117446972D01*
X130152141Y-117515189D01*
X130127970Y-117580744D01*
X130099548Y-117608382D01*
X130053575Y-117640572D01*
X130053574Y-117640573D01*
X130779046Y-118366046D01*
X130779047Y-118366046D01*
X131504520Y-117640573D01*
X131504519Y-117640572D01*
X131458546Y-117608382D01*
X131414921Y-117553806D01*
X131407727Y-117484307D01*
X131439250Y-117421952D01*
X131470650Y-117397752D01*
X131547674Y-117356070D01*
X131730832Y-117213513D01*
X131888027Y-117042753D01*
X132014972Y-116848449D01*
X132108205Y-116635900D01*
X132165182Y-116410905D01*
X132165183Y-116410897D01*
X132184348Y-116179606D01*
X132184348Y-116179593D01*
X132165183Y-115948302D01*
X132165181Y-115948291D01*
X132108205Y-115723299D01*
X132014972Y-115510751D01*
X131888031Y-115316452D01*
X131888028Y-115316449D01*
X131888027Y-115316447D01*
X131730832Y-115145687D01*
X131730827Y-115145683D01*
X131730825Y-115145681D01*
X131547682Y-115003135D01*
X131547676Y-115003131D01*
X131343552Y-114892664D01*
X131343543Y-114892661D01*
X131124032Y-114817302D01*
X130952330Y-114788650D01*
X130895097Y-114779100D01*
X130662999Y-114779100D01*
X130617212Y-114786740D01*
X130434063Y-114817302D01*
X130214552Y-114892661D01*
X130214543Y-114892664D01*
X130010419Y-115003131D01*
X130010413Y-115003135D01*
X129827270Y-115145681D01*
X129827267Y-115145684D01*
X129670064Y-115316452D01*
X129543123Y-115510751D01*
X129449890Y-115723299D01*
X129392914Y-115948291D01*
X129392912Y-115948302D01*
X129373748Y-116179593D01*
X129373748Y-116179606D01*
X85098348Y-116179606D01*
X85098348Y-112982225D01*
X85118032Y-112915190D01*
X85170836Y-112869435D01*
X85239994Y-112859491D01*
X85303550Y-112888516D01*
X85310028Y-112894548D01*
X86018117Y-113602637D01*
X86029897Y-113616268D01*
X86044237Y-113635530D01*
X86044239Y-113635532D01*
X86084257Y-113669110D01*
X86088247Y-113672766D01*
X86094067Y-113678587D01*
X86119100Y-113698381D01*
X86120497Y-113699519D01*
X86128792Y-113706479D01*
X86178634Y-113748302D01*
X86178642Y-113748306D01*
X86184672Y-113752273D01*
X86184638Y-113752323D01*
X86190985Y-113756366D01*
X86191017Y-113756316D01*
X86197169Y-113760110D01*
X86197170Y-113760110D01*
X86197171Y-113760111D01*
X86265991Y-113792202D01*
X86267540Y-113792952D01*
X86335415Y-113827040D01*
X86335424Y-113827042D01*
X86342203Y-113829510D01*
X86342182Y-113829567D01*
X86349299Y-113832040D01*
X86349318Y-113831984D01*
X86356172Y-113834254D01*
X86356175Y-113834256D01*
X86382840Y-113839761D01*
X86444514Y-113872594D01*
X86461575Y-113893378D01*
X86518263Y-113980145D01*
X86518265Y-113980147D01*
X86518269Y-113980153D01*
X86675464Y-114150913D01*
X86675467Y-114150915D01*
X86675470Y-114150918D01*
X86858613Y-114293464D01*
X86858619Y-114293468D01*
X86858622Y-114293470D01*
X87062745Y-114403936D01*
X87166508Y-114439558D01*
X87282263Y-114479297D01*
X87282265Y-114479297D01*
X87282267Y-114479298D01*
X87511199Y-114517500D01*
X87511200Y-114517500D01*
X87743296Y-114517500D01*
X87743297Y-114517500D01*
X87972229Y-114479298D01*
X88191751Y-114403936D01*
X88395874Y-114293470D01*
X88418342Y-114275983D01*
X88498083Y-114213918D01*
X88579032Y-114150913D01*
X88736227Y-113980153D01*
X88756517Y-113949097D01*
X88773125Y-113923678D01*
X88826271Y-113878322D01*
X88876933Y-113867500D01*
X101325063Y-113867500D01*
X101392102Y-113887185D01*
X101428871Y-113923678D01*
X101465763Y-113980145D01*
X101465765Y-113980147D01*
X101465769Y-113980153D01*
X101622964Y-114150913D01*
X101622967Y-114150915D01*
X101622970Y-114150918D01*
X101806113Y-114293464D01*
X101806119Y-114293468D01*
X101806122Y-114293470D01*
X102010245Y-114403936D01*
X102114008Y-114439558D01*
X102229763Y-114479297D01*
X102229765Y-114479297D01*
X102229767Y-114479298D01*
X102458699Y-114517500D01*
X102458700Y-114517500D01*
X102690796Y-114517500D01*
X102690797Y-114517500D01*
X102919729Y-114479298D01*
X103139251Y-114403936D01*
X103343374Y-114293470D01*
X103365842Y-114275983D01*
X103445583Y-114213918D01*
X103526532Y-114150913D01*
X103683727Y-113980153D01*
X103810672Y-113785849D01*
X103903905Y-113573300D01*
X103960882Y-113348305D01*
X103969686Y-113242059D01*
X103980048Y-113117006D01*
X103980048Y-113116993D01*
X103960883Y-112885702D01*
X103960881Y-112885691D01*
X103903905Y-112660699D01*
X103810672Y-112448151D01*
X103683729Y-112253849D01*
X103668504Y-112237311D01*
X103635060Y-112200981D01*
X103604139Y-112138330D01*
X103611999Y-112068903D01*
X103635061Y-112033018D01*
X103683727Y-111980153D01*
X103810672Y-111785849D01*
X103903905Y-111573300D01*
X103960882Y-111348305D01*
X103966940Y-111275193D01*
X103980048Y-111117006D01*
X103980048Y-111116993D01*
X103960883Y-110885702D01*
X103960881Y-110885691D01*
X103903905Y-110660699D01*
X103873312Y-110590954D01*
X103864409Y-110521654D01*
X103894386Y-110458542D01*
X103953726Y-110421655D01*
X104023588Y-110422706D01*
X104074546Y-110453461D01*
X107378664Y-113757578D01*
X107382067Y-113761270D01*
X107417942Y-113803505D01*
X107481781Y-113852034D01*
X107483041Y-113853020D01*
X107545525Y-113903247D01*
X107545529Y-113903249D01*
X107546490Y-113903864D01*
X107564248Y-113914878D01*
X107565210Y-113915456D01*
X107565212Y-113915457D01*
X107565215Y-113915459D01*
X107637955Y-113949111D01*
X107639438Y-113949823D01*
X107663030Y-113961523D01*
X107711258Y-113985442D01*
X107711261Y-113985442D01*
X107711262Y-113985443D01*
X107712298Y-113985824D01*
X107732132Y-113992807D01*
X107733115Y-113993138D01*
X107759515Y-113998948D01*
X107811398Y-114010368D01*
X107812989Y-114010742D01*
X107855143Y-114021225D01*
X107890785Y-114030089D01*
X107890786Y-114030089D01*
X107890790Y-114030090D01*
X107891883Y-114030238D01*
X107912654Y-114032782D01*
X107913781Y-114032904D01*
X107913782Y-114032905D01*
X107993891Y-114032905D01*
X107995570Y-114032928D01*
X108067735Y-114034881D01*
X108075711Y-114035098D01*
X108075711Y-114035097D01*
X108075714Y-114035098D01*
X108076758Y-114035013D01*
X108098927Y-114032905D01*
X136300392Y-114032905D01*
X136367431Y-114052590D01*
X136413186Y-114105394D01*
X136423130Y-114174552D01*
X136394105Y-114238108D01*
X136388073Y-114244586D01*
X135426078Y-115206580D01*
X135422375Y-115209994D01*
X135380148Y-115245863D01*
X135331664Y-115309640D01*
X135330631Y-115310961D01*
X135280406Y-115373444D01*
X135279897Y-115374241D01*
X135268717Y-115392266D01*
X135268189Y-115393143D01*
X135234538Y-115465877D01*
X135233814Y-115467389D01*
X135198214Y-115539172D01*
X135197830Y-115540217D01*
X135190828Y-115560106D01*
X135190515Y-115561033D01*
X135173286Y-115639301D01*
X135172903Y-115640935D01*
X135153562Y-115718707D01*
X135153439Y-115719616D01*
X135150855Y-115740716D01*
X135150748Y-115741701D01*
X135150748Y-115821811D01*
X135150725Y-115823490D01*
X135148554Y-115903637D01*
X135148637Y-115904647D01*
X135150748Y-115926849D01*
X135150748Y-117615876D01*
X135131063Y-117682915D01*
X135123395Y-117693563D01*
X135030405Y-117809246D01*
X134948212Y-117974976D01*
X134948209Y-117974984D01*
X134927914Y-118056590D01*
X134892632Y-118116897D01*
X134830346Y-118148555D01*
X134760832Y-118141513D01*
X134706160Y-118098007D01*
X134703771Y-118094484D01*
X134631231Y-117983452D01*
X134631228Y-117983449D01*
X134631227Y-117983447D01*
X134474032Y-117812687D01*
X134474027Y-117812683D01*
X134474025Y-117812681D01*
X134290882Y-117670135D01*
X134290876Y-117670131D01*
X134086752Y-117559664D01*
X134086743Y-117559661D01*
X133867232Y-117484302D01*
X133695529Y-117455650D01*
X133638297Y-117446100D01*
X133406199Y-117446100D01*
X133360412Y-117453740D01*
X133177263Y-117484302D01*
X132957752Y-117559661D01*
X132957743Y-117559664D01*
X132753619Y-117670131D01*
X132753613Y-117670135D01*
X132570470Y-117812681D01*
X132570467Y-117812684D01*
X132413264Y-117983452D01*
X132286321Y-118177754D01*
X132237888Y-118288169D01*
X132192932Y-118341655D01*
X132126196Y-118362344D01*
X132058868Y-118343669D01*
X132012325Y-118291558D01*
X132007437Y-118278271D01*
X132007169Y-118278369D01*
X132005313Y-118273273D01*
X131909181Y-118067116D01*
X131909179Y-118067112D01*
X131858074Y-117994126D01*
X131858073Y-117994126D01*
X131074394Y-118777806D01*
X131082943Y-118747760D01*
X131072594Y-118636079D01*
X131022600Y-118535678D01*
X130939714Y-118460116D01*
X130835128Y-118419600D01*
X130751246Y-118419600D01*
X130668798Y-118435012D01*
X130573438Y-118494057D01*
X130505847Y-118583562D01*
X130475153Y-118691440D01*
X130485502Y-118803121D01*
X130535496Y-118903522D01*
X130618382Y-118979084D01*
X130722968Y-119019600D01*
X130806850Y-119019600D01*
X130838521Y-119013679D01*
X130779048Y-119073153D01*
X130053574Y-119798625D01*
X130053574Y-119798626D01*
X130126560Y-119849731D01*
X130126564Y-119849733D01*
X130332721Y-119945865D01*
X130332730Y-119945869D01*
X130552437Y-120004739D01*
X130552448Y-120004741D01*
X130779046Y-120024566D01*
X130779050Y-120024566D01*
X130991832Y-120005950D01*
X131060332Y-120019717D01*
X131110515Y-120068332D01*
X131126448Y-120136361D01*
X131103073Y-120202204D01*
X131090320Y-120217159D01*
X129615499Y-121691981D01*
X129554176Y-121725466D01*
X129527818Y-121728300D01*
X128650533Y-121728300D01*
X128583494Y-121708615D01*
X128546725Y-121672122D01*
X128509832Y-121615654D01*
X128509830Y-121615652D01*
X128509827Y-121615647D01*
X128352632Y-121444887D01*
X128352627Y-121444883D01*
X128352625Y-121444881D01*
X128169482Y-121302335D01*
X128169476Y-121302331D01*
X127965352Y-121191864D01*
X127965343Y-121191861D01*
X127745832Y-121116502D01*
X127574130Y-121087850D01*
X127516897Y-121078300D01*
X127284799Y-121078300D01*
X127239012Y-121085940D01*
X127055863Y-121116502D01*
X126836352Y-121191861D01*
X126836343Y-121191864D01*
X126632219Y-121302331D01*
X126632213Y-121302335D01*
X126449070Y-121444881D01*
X126449067Y-121444884D01*
X126449064Y-121444886D01*
X126449064Y-121444887D01*
X126414778Y-121482132D01*
X126291864Y-121615652D01*
X126164923Y-121809951D01*
X126071690Y-122022499D01*
X126014714Y-122247491D01*
X126014712Y-122247502D01*
X125995548Y-122478793D01*
X125995548Y-122478806D01*
X126014712Y-122710097D01*
X126014714Y-122710108D01*
X126071690Y-122935100D01*
X126164923Y-123147648D01*
X126291864Y-123341947D01*
X126291867Y-123341951D01*
X126291869Y-123341953D01*
X126449064Y-123512713D01*
X126449067Y-123512715D01*
X126449070Y-123512718D01*
X126632213Y-123655264D01*
X126632219Y-123655268D01*
X126632222Y-123655270D01*
X126836345Y-123765736D01*
X126950335Y-123804868D01*
X127055863Y-123841097D01*
X127055865Y-123841097D01*
X127055867Y-123841098D01*
X127284799Y-123879300D01*
X127284800Y-123879300D01*
X127516896Y-123879300D01*
X127516897Y-123879300D01*
X127745829Y-123841098D01*
X127965351Y-123765736D01*
X128169474Y-123655270D01*
X128352632Y-123512713D01*
X128509827Y-123341953D01*
X128516762Y-123331337D01*
X128546725Y-123285478D01*
X128599871Y-123240122D01*
X128650533Y-123229300D01*
X129826343Y-123229300D01*
X129844313Y-123230609D01*
X129868071Y-123234089D01*
X129920116Y-123229535D01*
X129925518Y-123229300D01*
X129933752Y-123229300D01*
X129933757Y-123229300D01*
X129965506Y-123225588D01*
X129967123Y-123225422D01*
X130042845Y-123218799D01*
X130042853Y-123218796D01*
X130049914Y-123217339D01*
X130049926Y-123217398D01*
X130057291Y-123215765D01*
X130057277Y-123215706D01*
X130064299Y-123214041D01*
X130064303Y-123214041D01*
X130135635Y-123188077D01*
X130137334Y-123187488D01*
X130209382Y-123163614D01*
X130209390Y-123163608D01*
X130215930Y-123160560D01*
X130215956Y-123160616D01*
X130222738Y-123157332D01*
X130222711Y-123157278D01*
X130229157Y-123154039D01*
X130229165Y-123154037D01*
X130292660Y-123112275D01*
X130294025Y-123111405D01*
X130358704Y-123071512D01*
X130358709Y-123071506D01*
X130364373Y-123067029D01*
X130364410Y-123067077D01*
X130370252Y-123062318D01*
X130370212Y-123062271D01*
X130375734Y-123057635D01*
X130375744Y-123057630D01*
X130427848Y-123002401D01*
X130429042Y-123001172D01*
X132495067Y-120935146D01*
X132556390Y-120901662D01*
X132626082Y-120906646D01*
X132682015Y-120948518D01*
X132706432Y-121013982D01*
X132706748Y-121022828D01*
X132706748Y-121595000D01*
X132721627Y-121774559D01*
X132780637Y-122007589D01*
X132877199Y-122227729D01*
X132991056Y-122401998D01*
X133008677Y-122428969D01*
X133171484Y-122605825D01*
X133171487Y-122605827D01*
X133171490Y-122605830D01*
X133361172Y-122753466D01*
X133361178Y-122753470D01*
X133361181Y-122753472D01*
X133572592Y-122867882D01*
X133572595Y-122867883D01*
X133799947Y-122945933D01*
X133799949Y-122945933D01*
X133799951Y-122945934D01*
X134037056Y-122985500D01*
X134037057Y-122985500D01*
X134277439Y-122985500D01*
X134277440Y-122985500D01*
X134514545Y-122945934D01*
X134741904Y-122867882D01*
X134953315Y-122753472D01*
X135143012Y-122605825D01*
X135305819Y-122428969D01*
X135323441Y-122401995D01*
X135376585Y-122356641D01*
X135445816Y-122347217D01*
X135509152Y-122376718D01*
X135531052Y-122401992D01*
X135548677Y-122428969D01*
X135711484Y-122605825D01*
X135711487Y-122605827D01*
X135711490Y-122605830D01*
X135901172Y-122753466D01*
X135901178Y-122753470D01*
X135901181Y-122753472D01*
X136112592Y-122867882D01*
X136112595Y-122867883D01*
X136339947Y-122945933D01*
X136339949Y-122945933D01*
X136339951Y-122945934D01*
X136577056Y-122985500D01*
X136577057Y-122985500D01*
X136817439Y-122985500D01*
X136817440Y-122985500D01*
X137054545Y-122945934D01*
X137281904Y-122867882D01*
X137493315Y-122753472D01*
X137683012Y-122605825D01*
X137845819Y-122428969D01*
X137863441Y-122401995D01*
X137916585Y-122356641D01*
X137985816Y-122347217D01*
X138049152Y-122376718D01*
X138071052Y-122401992D01*
X138088677Y-122428969D01*
X138251484Y-122605825D01*
X138251487Y-122605827D01*
X138251490Y-122605830D01*
X138441172Y-122753466D01*
X138441178Y-122753470D01*
X138441181Y-122753472D01*
X138652592Y-122867882D01*
X138652595Y-122867883D01*
X138879947Y-122945933D01*
X138879949Y-122945933D01*
X138879951Y-122945934D01*
X139117056Y-122985500D01*
X139117057Y-122985500D01*
X139357439Y-122985500D01*
X139357440Y-122985500D01*
X139594545Y-122945934D01*
X139821904Y-122867882D01*
X140033315Y-122753472D01*
X140223012Y-122605825D01*
X140385819Y-122428969D01*
X140403441Y-122401995D01*
X140456585Y-122356641D01*
X140525816Y-122347217D01*
X140589152Y-122376718D01*
X140611052Y-122401992D01*
X140628677Y-122428969D01*
X140791484Y-122605825D01*
X140791487Y-122605827D01*
X140791490Y-122605830D01*
X140981172Y-122753466D01*
X140981178Y-122753470D01*
X140981181Y-122753472D01*
X141192592Y-122867882D01*
X141192595Y-122867883D01*
X141419947Y-122945933D01*
X141419949Y-122945933D01*
X141419951Y-122945934D01*
X141657056Y-122985500D01*
X141657057Y-122985500D01*
X141897439Y-122985500D01*
X141897440Y-122985500D01*
X142134545Y-122945934D01*
X142361904Y-122867882D01*
X142573315Y-122753472D01*
X142763012Y-122605825D01*
X142925819Y-122428969D01*
X142943441Y-122401995D01*
X142996585Y-122356641D01*
X143065816Y-122347217D01*
X143129152Y-122376718D01*
X143151052Y-122401992D01*
X143168677Y-122428969D01*
X143331484Y-122605825D01*
X143331487Y-122605827D01*
X143331490Y-122605830D01*
X143521172Y-122753466D01*
X143521178Y-122753470D01*
X143521181Y-122753472D01*
X143732592Y-122867882D01*
X143732595Y-122867883D01*
X143959947Y-122945933D01*
X143959949Y-122945933D01*
X143959951Y-122945934D01*
X144197056Y-122985500D01*
X144197057Y-122985500D01*
X144437439Y-122985500D01*
X144437440Y-122985500D01*
X144674545Y-122945934D01*
X144901904Y-122867882D01*
X145113315Y-122753472D01*
X145303012Y-122605825D01*
X145465819Y-122428969D01*
X145483441Y-122401995D01*
X145536585Y-122356641D01*
X145605816Y-122347217D01*
X145669152Y-122376718D01*
X145691052Y-122401992D01*
X145708677Y-122428969D01*
X145871484Y-122605825D01*
X145871487Y-122605827D01*
X145871490Y-122605830D01*
X146061172Y-122753466D01*
X146061178Y-122753470D01*
X146061181Y-122753472D01*
X146272592Y-122867882D01*
X146272595Y-122867883D01*
X146499947Y-122945933D01*
X146499949Y-122945933D01*
X146499951Y-122945934D01*
X146737056Y-122985500D01*
X146737057Y-122985500D01*
X146977439Y-122985500D01*
X146977440Y-122985500D01*
X147214545Y-122945934D01*
X147441904Y-122867882D01*
X147653315Y-122753472D01*
X147843012Y-122605825D01*
X148005819Y-122428969D01*
X148023441Y-122401995D01*
X148076585Y-122356641D01*
X148145816Y-122347217D01*
X148209152Y-122376718D01*
X148231052Y-122401992D01*
X148248677Y-122428969D01*
X148411484Y-122605825D01*
X148411487Y-122605827D01*
X148411490Y-122605830D01*
X148601172Y-122753466D01*
X148601178Y-122753470D01*
X148601181Y-122753472D01*
X148812592Y-122867882D01*
X148812595Y-122867883D01*
X149039947Y-122945933D01*
X149039949Y-122945933D01*
X149039951Y-122945934D01*
X149277056Y-122985500D01*
X149277057Y-122985500D01*
X149517439Y-122985500D01*
X149517440Y-122985500D01*
X149754545Y-122945934D01*
X149981904Y-122867882D01*
X150193315Y-122753472D01*
X150383012Y-122605825D01*
X150545819Y-122428969D01*
X150677297Y-122227728D01*
X150773858Y-122007591D01*
X150832868Y-121774563D01*
X150847748Y-121594990D01*
X150847748Y-120975010D01*
X150832868Y-120795437D01*
X150773858Y-120562409D01*
X150677297Y-120342272D01*
X150667247Y-120326890D01*
X150593073Y-120213358D01*
X150545819Y-120141031D01*
X150383012Y-119964175D01*
X150383007Y-119964171D01*
X150383005Y-119964169D01*
X150193323Y-119816533D01*
X150193317Y-119816529D01*
X149981905Y-119702118D01*
X149981900Y-119702116D01*
X149754548Y-119624066D01*
X149563086Y-119592117D01*
X149517440Y-119584500D01*
X149277056Y-119584500D01*
X149231410Y-119592117D01*
X149039947Y-119624066D01*
X148812595Y-119702116D01*
X148812590Y-119702118D01*
X148601178Y-119816529D01*
X148601172Y-119816533D01*
X148411490Y-119964169D01*
X148411487Y-119964172D01*
X148248678Y-120141029D01*
X148248677Y-120141031D01*
X148231055Y-120168003D01*
X148177908Y-120213358D01*
X148108677Y-120222780D01*
X148045341Y-120193277D01*
X148023441Y-120168003D01*
X148021402Y-120164883D01*
X148005819Y-120141031D01*
X147843012Y-119964175D01*
X147843007Y-119964171D01*
X147843005Y-119964169D01*
X147653323Y-119816533D01*
X147653317Y-119816529D01*
X147441905Y-119702118D01*
X147441900Y-119702116D01*
X147214548Y-119624066D01*
X147023086Y-119592117D01*
X146977440Y-119584500D01*
X146737056Y-119584500D01*
X146691410Y-119592117D01*
X146499947Y-119624066D01*
X146272595Y-119702116D01*
X146272590Y-119702118D01*
X146061178Y-119816529D01*
X146061172Y-119816533D01*
X145871490Y-119964169D01*
X145871487Y-119964172D01*
X145708678Y-120141029D01*
X145708677Y-120141031D01*
X145691055Y-120168003D01*
X145637908Y-120213358D01*
X145568677Y-120222780D01*
X145505341Y-120193277D01*
X145483441Y-120168003D01*
X145481402Y-120164883D01*
X145465819Y-120141031D01*
X145303012Y-119964175D01*
X145303007Y-119964171D01*
X145303005Y-119964169D01*
X145113323Y-119816533D01*
X145113317Y-119816529D01*
X144901905Y-119702118D01*
X144901900Y-119702116D01*
X144674548Y-119624066D01*
X144483086Y-119592117D01*
X144437440Y-119584500D01*
X144197056Y-119584500D01*
X144151410Y-119592117D01*
X143959947Y-119624066D01*
X143732595Y-119702116D01*
X143732590Y-119702118D01*
X143521178Y-119816529D01*
X143521172Y-119816533D01*
X143331490Y-119964169D01*
X143331487Y-119964172D01*
X143168678Y-120141029D01*
X143168677Y-120141031D01*
X143151055Y-120168003D01*
X143097908Y-120213358D01*
X143028677Y-120222780D01*
X142965341Y-120193277D01*
X142943441Y-120168003D01*
X142941402Y-120164883D01*
X142925819Y-120141031D01*
X142763012Y-119964175D01*
X142763007Y-119964171D01*
X142763005Y-119964169D01*
X142573323Y-119816533D01*
X142573317Y-119816529D01*
X142361905Y-119702118D01*
X142361900Y-119702116D01*
X142134548Y-119624066D01*
X141943086Y-119592117D01*
X141897440Y-119584500D01*
X141657056Y-119584500D01*
X141611410Y-119592117D01*
X141419947Y-119624066D01*
X141192595Y-119702116D01*
X141192590Y-119702118D01*
X140981178Y-119816529D01*
X140981172Y-119816533D01*
X140791490Y-119964169D01*
X140791487Y-119964172D01*
X140628678Y-120141029D01*
X140628677Y-120141031D01*
X140611055Y-120168003D01*
X140557908Y-120213358D01*
X140488677Y-120222780D01*
X140425341Y-120193277D01*
X140403441Y-120168003D01*
X140401402Y-120164883D01*
X140385819Y-120141031D01*
X140223012Y-119964175D01*
X140223007Y-119964171D01*
X140223005Y-119964169D01*
X140033323Y-119816533D01*
X140033317Y-119816529D01*
X139821905Y-119702118D01*
X139821900Y-119702116D01*
X139594548Y-119624066D01*
X139403086Y-119592117D01*
X139357440Y-119584500D01*
X139117056Y-119584500D01*
X139005996Y-119603032D01*
X138936631Y-119594650D01*
X138882809Y-119550097D01*
X138861619Y-119483518D01*
X138867881Y-119441718D01*
X138890753Y-119372694D01*
X138890754Y-119372690D01*
X138901247Y-119269986D01*
X138901248Y-119269973D01*
X138901248Y-118995000D01*
X138151248Y-118995000D01*
X138151248Y-120021361D01*
X138148231Y-120021361D01*
X138145018Y-120066283D01*
X138120068Y-120106930D01*
X138088677Y-120141030D01*
X138071055Y-120168003D01*
X138017908Y-120213358D01*
X137948677Y-120222780D01*
X137885341Y-120193277D01*
X137863441Y-120168003D01*
X137861402Y-120164883D01*
X137845819Y-120141031D01*
X137684017Y-119965267D01*
X137653096Y-119902613D01*
X137651248Y-119881285D01*
X137651248Y-117520000D01*
X138151248Y-117520000D01*
X138151248Y-118495000D01*
X138901247Y-118495000D01*
X138901247Y-118220028D01*
X138901246Y-118220013D01*
X138890753Y-118117302D01*
X138835606Y-117950880D01*
X138835604Y-117950875D01*
X138743563Y-117801654D01*
X138619593Y-117677684D01*
X138470372Y-117585643D01*
X138470367Y-117585641D01*
X138303945Y-117530494D01*
X138303938Y-117530493D01*
X138201234Y-117520000D01*
X138151248Y-117520000D01*
X137651248Y-117520000D01*
X137651247Y-117519999D01*
X137601277Y-117520000D01*
X137601259Y-117520001D01*
X137498550Y-117530494D01*
X137332128Y-117585641D01*
X137332123Y-117585643D01*
X137182902Y-117677684D01*
X137105137Y-117755448D01*
X137043814Y-117788933D01*
X136974122Y-117783947D01*
X136920812Y-117745455D01*
X136879099Y-117693562D01*
X136852442Y-117628979D01*
X136851748Y-117615877D01*
X136851748Y-116237850D01*
X136871433Y-116170811D01*
X136888062Y-116150174D01*
X138598679Y-114439556D01*
X138660000Y-114406073D01*
X138729692Y-114411057D01*
X138746817Y-114418978D01*
X138825968Y-114463195D01*
X138880335Y-114482404D01*
X139050751Y-114542616D01*
X139285712Y-114582904D01*
X139285720Y-114582904D01*
X139285722Y-114582905D01*
X139285723Y-114582905D01*
X139964418Y-114582905D01*
X139964419Y-114582905D01*
X139964420Y-114582904D01*
X139964437Y-114582904D01*
X140142458Y-114567752D01*
X140142461Y-114567751D01*
X140142463Y-114567751D01*
X140373171Y-114507680D01*
X140586924Y-114411057D01*
X140590402Y-114409485D01*
X140590403Y-114409483D01*
X140590408Y-114409482D01*
X140762057Y-114293468D01*
X140787915Y-114275991D01*
X140787916Y-114275989D01*
X140787925Y-114275984D01*
X140910708Y-114158306D01*
X140972727Y-114126132D01*
X141042297Y-114132594D01*
X141084188Y-114160149D01*
X141106101Y-114182062D01*
X141292439Y-114312539D01*
X141498595Y-114408670D01*
X141498604Y-114408674D01*
X141718311Y-114467544D01*
X141718322Y-114467546D01*
X141888155Y-114482404D01*
X141888158Y-114482405D01*
X141944922Y-114482405D01*
X141944922Y-113617906D01*
X142052607Y-113667085D01*
X142159159Y-113682405D01*
X142230685Y-113682405D01*
X142337237Y-113667085D01*
X142444922Y-113617906D01*
X142444922Y-114482405D01*
X142501686Y-114482405D01*
X142501688Y-114482404D01*
X142671521Y-114467546D01*
X142671532Y-114467544D01*
X142891239Y-114408674D01*
X142891248Y-114408670D01*
X143097404Y-114312539D01*
X143283742Y-114182062D01*
X143444579Y-114021225D01*
X143575056Y-113834887D01*
X143671187Y-113628731D01*
X143671191Y-113628722D01*
X143723794Y-113432405D01*
X142628608Y-113432405D01*
X142654415Y-113392249D01*
X142694922Y-113254294D01*
X142694922Y-113110516D01*
X142654415Y-112972561D01*
X142628608Y-112932405D01*
X143723794Y-112932405D01*
X143723794Y-112932404D01*
X143671191Y-112736087D01*
X143671187Y-112736078D01*
X143575056Y-112529922D01*
X143444579Y-112343584D01*
X143283742Y-112182747D01*
X143128425Y-112073992D01*
X143084800Y-112019414D01*
X143077608Y-111949916D01*
X143109130Y-111887561D01*
X143130112Y-111869682D01*
X143327915Y-111735991D01*
X143327916Y-111735989D01*
X143327925Y-111735984D01*
X143500040Y-111571026D01*
X143641801Y-111379352D01*
X143749129Y-111166479D01*
X143818938Y-110938528D01*
X143849220Y-110702059D01*
X143839102Y-110463873D01*
X143806727Y-110313655D01*
X143811846Y-110243975D01*
X143840261Y-110199853D01*
X150480433Y-103559680D01*
X150484100Y-103556300D01*
X150526348Y-103520416D01*
X150574881Y-103456570D01*
X150575876Y-103455299D01*
X150626092Y-103392829D01*
X150626680Y-103391908D01*
X150637674Y-103374184D01*
X150638298Y-103373148D01*
X150638302Y-103373143D01*
X150671943Y-103300425D01*
X150672670Y-103298909D01*
X150691143Y-103261662D01*
X150708285Y-103227100D01*
X150708285Y-103227096D01*
X150708288Y-103227092D01*
X150708688Y-103226002D01*
X150715577Y-103206440D01*
X150715977Y-103205251D01*
X150715980Y-103205246D01*
X150733220Y-103126919D01*
X150733591Y-103125340D01*
X150744356Y-103082055D01*
X150752932Y-103047573D01*
X150752932Y-103047569D01*
X150753081Y-103046479D01*
X150755619Y-103025756D01*
X150755748Y-103024576D01*
X150755748Y-102944465D01*
X150755771Y-102942786D01*
X150757941Y-102862641D01*
X150757858Y-102861630D01*
X150755748Y-102839425D01*
X150755748Y-66559687D01*
X150755953Y-66554652D01*
X150757652Y-66533784D01*
X150760449Y-66499433D01*
X150749628Y-66420018D01*
X150749425Y-66418354D01*
X150744038Y-66368818D01*
X150740762Y-66338690D01*
X150740761Y-66338686D01*
X150740528Y-66337626D01*
X150735745Y-66317221D01*
X150735475Y-66316131D01*
X150707836Y-66240898D01*
X150707278Y-66239315D01*
X150690820Y-66190471D01*
X150681692Y-66163379D01*
X150681689Y-66163375D01*
X150681689Y-66163373D01*
X150681254Y-66162431D01*
X150672143Y-66143418D01*
X150671679Y-66142482D01*
X150640733Y-66094069D01*
X150628508Y-66074943D01*
X150627658Y-66073573D01*
X150586318Y-66004864D01*
X150586316Y-66004862D01*
X150586315Y-66004860D01*
X150585703Y-66004055D01*
X150572751Y-65987489D01*
X150572050Y-65986617D01*
X150572047Y-65986611D01*
X150515367Y-65929931D01*
X150514232Y-65928764D01*
X150459096Y-65870557D01*
X150458356Y-65869928D01*
X150441123Y-65855687D01*
X145703016Y-61117580D01*
X140779255Y-56193818D01*
X140775852Y-56190126D01*
X140741836Y-56150079D01*
X140739985Y-56147900D01*
X140676202Y-56099413D01*
X140674936Y-56098424D01*
X140612402Y-56048158D01*
X140611502Y-56047583D01*
X140593667Y-56036520D01*
X140592712Y-56035946D01*
X140519943Y-56002279D01*
X140518457Y-56001566D01*
X140446668Y-55965963D01*
X140445629Y-55965582D01*
X140425808Y-55958602D01*
X140424813Y-55958267D01*
X140346562Y-55941042D01*
X140344927Y-55940659D01*
X140267137Y-55921314D01*
X140266232Y-55921191D01*
X140245154Y-55918610D01*
X140244149Y-55918501D01*
X140244145Y-55918500D01*
X140244140Y-55918500D01*
X140164036Y-55918500D01*
X140162357Y-55918477D01*
X140082212Y-55916306D01*
X140081168Y-55916391D01*
X140059000Y-55918500D01*
X130030151Y-55918500D01*
X129963112Y-55898815D01*
X129917357Y-55846011D01*
X129907155Y-55778749D01*
X129917547Y-55697602D01*
X129917039Y-55685654D01*
X129907429Y-55459419D01*
X129907429Y-55459415D01*
X129857203Y-55226367D01*
X129807900Y-55103674D01*
X129768313Y-55005158D01*
X129643318Y-54802153D01*
X129485813Y-54623193D01*
X129300329Y-54473425D01*
X129166958Y-54398919D01*
X129092204Y-54357158D01*
X128867419Y-54277736D01*
X128632458Y-54237448D01*
X128632449Y-54237448D01*
X128053752Y-54237448D01*
X128053734Y-54237448D01*
X127951511Y-54246149D01*
X127883043Y-54232221D01*
X127853314Y-54210277D01*
X126629066Y-52986029D01*
X126595581Y-52924706D01*
X126592748Y-52898357D01*
X126592748Y-52503046D01*
X126589931Y-52461505D01*
X126545285Y-52281979D01*
X126463090Y-52116247D01*
X126413193Y-52054173D01*
X126347188Y-51972059D01*
X126266793Y-51907436D01*
X126226875Y-51850092D01*
X126224295Y-51780270D01*
X126256800Y-51723107D01*
X126334565Y-51645342D01*
X126426604Y-51496124D01*
X126426606Y-51496119D01*
X126481753Y-51329697D01*
X126481754Y-51329690D01*
X126492247Y-51226986D01*
X126492248Y-51226973D01*
X126492248Y-51177000D01*
X124042249Y-51177000D01*
X124042249Y-51226986D01*
X124052742Y-51329697D01*
X124107889Y-51496119D01*
X124107891Y-51496124D01*
X124199932Y-51645345D01*
X124277695Y-51723108D01*
X124311180Y-51784431D01*
X124306196Y-51854123D01*
X124267703Y-51907435D01*
X124215814Y-51949146D01*
X124151230Y-51975806D01*
X124138125Y-51976500D01*
X123386371Y-51976500D01*
X123319332Y-51956815D01*
X123308683Y-51949147D01*
X123256793Y-51907436D01*
X123216875Y-51850092D01*
X123214295Y-51780270D01*
X123246800Y-51723107D01*
X123324565Y-51645342D01*
X123416604Y-51496124D01*
X123416606Y-51496119D01*
X123471753Y-51329697D01*
X123471754Y-51329690D01*
X123482247Y-51226986D01*
X123482248Y-51226973D01*
X123482248Y-51177000D01*
X121032249Y-51177000D01*
X121032249Y-51226986D01*
X121042742Y-51329697D01*
X121097889Y-51496119D01*
X121097891Y-51496124D01*
X121189932Y-51645345D01*
X121267695Y-51723108D01*
X121301180Y-51784431D01*
X121296196Y-51854123D01*
X121257702Y-51907435D01*
X121177310Y-51972056D01*
X121061404Y-52116249D01*
X120979212Y-52281976D01*
X120979211Y-52281978D01*
X120934565Y-52461500D01*
X120931748Y-52503048D01*
X120931748Y-53150951D01*
X120934565Y-53192499D01*
X120979211Y-53372021D01*
X120979212Y-53372023D01*
X121061404Y-53537750D01*
X121177309Y-53681942D01*
X121255414Y-53744724D01*
X121321495Y-53797842D01*
X121337842Y-53805949D01*
X121389154Y-53853368D01*
X121406748Y-53917037D01*
X121406748Y-54102911D01*
X121406543Y-54107945D01*
X121402046Y-54163164D01*
X121412863Y-54242563D01*
X121413067Y-54244228D01*
X121421734Y-54323912D01*
X121421958Y-54324930D01*
X121426773Y-54345473D01*
X121427022Y-54346471D01*
X121454650Y-54421678D01*
X121455207Y-54423259D01*
X121480805Y-54499225D01*
X121481249Y-54500185D01*
X121490394Y-54519266D01*
X121490812Y-54520109D01*
X121533967Y-54587626D01*
X121534851Y-54589052D01*
X121576175Y-54657733D01*
X121576786Y-54658536D01*
X121589826Y-54675216D01*
X121590445Y-54675986D01*
X121647108Y-54732649D01*
X121648279Y-54733852D01*
X121703399Y-54792041D01*
X121703403Y-54792043D01*
X121704231Y-54792747D01*
X121721367Y-54806908D01*
X122134779Y-55220320D01*
X122168264Y-55281643D01*
X122168331Y-55324452D01*
X122169901Y-55324653D01*
X122138950Y-55566346D01*
X122149067Y-55804528D01*
X122149067Y-55804532D01*
X122199293Y-56037580D01*
X122260592Y-56190126D01*
X122288184Y-56258790D01*
X122413179Y-56461795D01*
X122570684Y-56640755D01*
X122756168Y-56790523D01*
X122805250Y-56817942D01*
X122853322Y-56844797D01*
X122902249Y-56894677D01*
X122916441Y-56963090D01*
X122891393Y-57028316D01*
X122863972Y-57054625D01*
X122704431Y-57166338D01*
X122543590Y-57327179D01*
X122413113Y-57513517D01*
X122316982Y-57719673D01*
X122316978Y-57719682D01*
X122264375Y-57915999D01*
X122264376Y-57916000D01*
X123577137Y-57916000D01*
X123537638Y-57940457D01*
X123470047Y-58029962D01*
X123439353Y-58137840D01*
X123449702Y-58249521D01*
X123499696Y-58349922D01*
X123572179Y-58416000D01*
X122264376Y-58416000D01*
X122316978Y-58612317D01*
X122316982Y-58612326D01*
X122413113Y-58818482D01*
X122543590Y-59004820D01*
X122704427Y-59165657D01*
X122859744Y-59274412D01*
X122903369Y-59328989D01*
X122910561Y-59398488D01*
X122879039Y-59460842D01*
X122858057Y-59478722D01*
X122660255Y-59612413D01*
X122660245Y-59612421D01*
X122488129Y-59777379D01*
X122346371Y-59969050D01*
X122346368Y-59969054D01*
X122239044Y-60181920D01*
X122239041Y-60181926D01*
X122169231Y-60409878D01*
X122138950Y-60646346D01*
X122149067Y-60884528D01*
X122149067Y-60884532D01*
X122199293Y-61117580D01*
X122249299Y-61242022D01*
X122288184Y-61338790D01*
X122413179Y-61541795D01*
X122570684Y-61720755D01*
X122756168Y-61870523D01*
X122756183Y-61870531D01*
X122756190Y-61870538D01*
X122760539Y-61873478D01*
X122759941Y-61874362D01*
X122805109Y-61920411D01*
X122819301Y-61988824D01*
X122794253Y-62054050D01*
X122765145Y-62081520D01*
X122660255Y-62152413D01*
X122660245Y-62152421D01*
X122488129Y-62317379D01*
X122346371Y-62509050D01*
X122346368Y-62509054D01*
X122239044Y-62721920D01*
X122239041Y-62721926D01*
X122169231Y-62949878D01*
X122138950Y-63186346D01*
X122149067Y-63424528D01*
X122149067Y-63424532D01*
X122199293Y-63657580D01*
X122288183Y-63878788D01*
X122288184Y-63878790D01*
X122411888Y-64079699D01*
X122413180Y-64081796D01*
X122504411Y-64185455D01*
X122570684Y-64260755D01*
X122756168Y-64410523D01*
X122756183Y-64410531D01*
X122756190Y-64410538D01*
X122760539Y-64413478D01*
X122759941Y-64414362D01*
X122805109Y-64460411D01*
X122819301Y-64528824D01*
X122794253Y-64594050D01*
X122765145Y-64621520D01*
X122660255Y-64692413D01*
X122660245Y-64692421D01*
X122488129Y-64857379D01*
X122346371Y-65049050D01*
X122346368Y-65049054D01*
X122239044Y-65261920D01*
X122239041Y-65261926D01*
X122169231Y-65489878D01*
X122138950Y-65726346D01*
X122149067Y-65964528D01*
X122149067Y-65964532D01*
X122194508Y-66175376D01*
X122189389Y-66245058D01*
X122147410Y-66300910D01*
X122081898Y-66325201D01*
X122073291Y-66325500D01*
X116097604Y-66325500D01*
X116030565Y-66305815D01*
X115984810Y-66253011D01*
X115974866Y-66183853D01*
X115977398Y-66171060D01*
X116016333Y-66017308D01*
X116016335Y-66017297D01*
X116035500Y-65786006D01*
X116035500Y-65785993D01*
X116016335Y-65554702D01*
X116016333Y-65554691D01*
X115959357Y-65329699D01*
X115866124Y-65117151D01*
X115739183Y-64922852D01*
X115739180Y-64922849D01*
X115739179Y-64922847D01*
X115581984Y-64752087D01*
X115581979Y-64752083D01*
X115581977Y-64752081D01*
X115398834Y-64609535D01*
X115398828Y-64609531D01*
X115194704Y-64499064D01*
X115194695Y-64499061D01*
X114975184Y-64423702D01*
X114803482Y-64395050D01*
X114746249Y-64385500D01*
X114514151Y-64385500D01*
X114385926Y-64406896D01*
X114316561Y-64398514D01*
X114277836Y-64372268D01*
X113955929Y-64050361D01*
X113944149Y-64036730D01*
X113936682Y-64026701D01*
X113929812Y-64017472D01*
X113929810Y-64017470D01*
X113889787Y-63983886D01*
X113885812Y-63980244D01*
X113882890Y-63977322D01*
X113879979Y-63974410D01*
X113854936Y-63954609D01*
X113853538Y-63953470D01*
X113795414Y-63904698D01*
X113789380Y-63900729D01*
X113789412Y-63900680D01*
X113783053Y-63896628D01*
X113783022Y-63896679D01*
X113776880Y-63892891D01*
X113776878Y-63892890D01*
X113776877Y-63892889D01*
X113708072Y-63860804D01*
X113706452Y-63860019D01*
X113666712Y-63840061D01*
X113638633Y-63825960D01*
X113638631Y-63825959D01*
X113638630Y-63825959D01*
X113631845Y-63823489D01*
X113631865Y-63823433D01*
X113624749Y-63820959D01*
X113624731Y-63821015D01*
X113617874Y-63818743D01*
X113543528Y-63803391D01*
X113541769Y-63803001D01*
X113467918Y-63785499D01*
X113460747Y-63784661D01*
X113460753Y-63784601D01*
X113453255Y-63783835D01*
X113453250Y-63783895D01*
X113446060Y-63783265D01*
X113370168Y-63785474D01*
X113368365Y-63785500D01*
X110066149Y-63785500D01*
X109999110Y-63765815D01*
X109953355Y-63713011D01*
X109943411Y-63643853D01*
X109946374Y-63629406D01*
X109982120Y-63496000D01*
X108669359Y-63496000D01*
X108708858Y-63471543D01*
X108776449Y-63382038D01*
X108807143Y-63274160D01*
X108796794Y-63162479D01*
X108746800Y-63062078D01*
X108674317Y-62996000D01*
X109982120Y-62996000D01*
X109982120Y-62995999D01*
X109929517Y-62799682D01*
X109929513Y-62799673D01*
X109833382Y-62593517D01*
X109702905Y-62407179D01*
X109542068Y-62246342D01*
X109386751Y-62137587D01*
X109343126Y-62083009D01*
X109335934Y-62013511D01*
X109367456Y-61951156D01*
X109388438Y-61933277D01*
X109586241Y-61799586D01*
X109586242Y-61799584D01*
X109586251Y-61799579D01*
X109758366Y-61634621D01*
X109900127Y-61442947D01*
X110007455Y-61230074D01*
X110077264Y-61002123D01*
X110107546Y-60765654D01*
X110097428Y-60527468D01*
X110047202Y-60294419D01*
X109958312Y-60073210D01*
X109833317Y-59870205D01*
X109675812Y-59691245D01*
X109490328Y-59541477D01*
X109490322Y-59541474D01*
X109490319Y-59541471D01*
X109490305Y-59541463D01*
X109490299Y-59541457D01*
X109485957Y-59538522D01*
X109486554Y-59537638D01*
X109441382Y-59491580D01*
X109427195Y-59423165D01*
X109452247Y-59357942D01*
X109481347Y-59330481D01*
X109586251Y-59259579D01*
X109758366Y-59094621D01*
X109900127Y-58902947D01*
X110007455Y-58690074D01*
X110077264Y-58462123D01*
X110107546Y-58225654D01*
X110097428Y-57987468D01*
X110096266Y-57982078D01*
X110047202Y-57754419D01*
X110047201Y-57754418D01*
X109958312Y-57533210D01*
X109833317Y-57330205D01*
X109675812Y-57151245D01*
X109490328Y-57001477D01*
X109490322Y-57001474D01*
X109490319Y-57001471D01*
X109490305Y-57001463D01*
X109490299Y-57001457D01*
X109485957Y-56998522D01*
X109486554Y-56997638D01*
X109441382Y-56951580D01*
X109427195Y-56883165D01*
X109452247Y-56817942D01*
X109481347Y-56790481D01*
X109586251Y-56719579D01*
X109758366Y-56554621D01*
X109900127Y-56362947D01*
X110007455Y-56150074D01*
X110077264Y-55922123D01*
X110107546Y-55685654D01*
X110097428Y-55447468D01*
X110047202Y-55214419D01*
X109958312Y-54993210D01*
X109833317Y-54790205D01*
X109675812Y-54611245D01*
X109490328Y-54461477D01*
X109376378Y-54397820D01*
X109282203Y-54345210D01*
X109057418Y-54265788D01*
X108822457Y-54225500D01*
X108822448Y-54225500D01*
X108243751Y-54225500D01*
X108243732Y-54225500D01*
X108065711Y-54240652D01*
X107834999Y-54300724D01*
X107617767Y-54398919D01*
X107617759Y-54398924D01*
X107420254Y-54532413D01*
X107420245Y-54532421D01*
X107248128Y-54697380D01*
X107153569Y-54825234D01*
X107097879Y-54867429D01*
X107053873Y-54875500D01*
X105635106Y-54875500D01*
X105568067Y-54855815D01*
X105529517Y-54816515D01*
X105513317Y-54790205D01*
X105513316Y-54790203D01*
X105355812Y-54611245D01*
X105355811Y-54611244D01*
X105170328Y-54461477D01*
X105056378Y-54397820D01*
X104962203Y-54345210D01*
X104737418Y-54265788D01*
X104502457Y-54225500D01*
X104502448Y-54225500D01*
X103923751Y-54225500D01*
X103923732Y-54225500D01*
X103745711Y-54240652D01*
X103514999Y-54300724D01*
X103297767Y-54398919D01*
X103297759Y-54398924D01*
X103100254Y-54532413D01*
X103100245Y-54532421D01*
X102928128Y-54697380D01*
X102833569Y-54825234D01*
X102777879Y-54867429D01*
X102733873Y-54875500D01*
X89593153Y-54875500D01*
X89575183Y-54874191D01*
X89551420Y-54870710D01*
X89506338Y-54874655D01*
X89499381Y-54875264D01*
X89493980Y-54875500D01*
X89485731Y-54875500D01*
X89454037Y-54879204D01*
X89452269Y-54879385D01*
X89434853Y-54880909D01*
X89376647Y-54886001D01*
X89369581Y-54887461D01*
X89369569Y-54887404D01*
X89362202Y-54889038D01*
X89362216Y-54889094D01*
X89355193Y-54890758D01*
X89283872Y-54916715D01*
X89282172Y-54917306D01*
X89210114Y-54941185D01*
X89203567Y-54944238D01*
X89203542Y-54944186D01*
X89196762Y-54947468D01*
X89196788Y-54947520D01*
X89190330Y-54950763D01*
X89126931Y-54992460D01*
X89125413Y-54993428D01*
X89060794Y-55033287D01*
X89055125Y-55037770D01*
X89055089Y-55037724D01*
X89049246Y-55042484D01*
X89049283Y-55042528D01*
X89043757Y-55047164D01*
X88991661Y-55102381D01*
X88990405Y-55103674D01*
X86580006Y-57514072D01*
X86566377Y-57525851D01*
X86547116Y-57540190D01*
X86513546Y-57580197D01*
X86509901Y-57584176D01*
X86504055Y-57590023D01*
X86484266Y-57615051D01*
X86483129Y-57616447D01*
X86434342Y-57674590D01*
X86430377Y-57680619D01*
X86430330Y-57680588D01*
X86426278Y-57686947D01*
X86426327Y-57686977D01*
X86422537Y-57693121D01*
X86390460Y-57761910D01*
X86389675Y-57763531D01*
X86355605Y-57831372D01*
X86353136Y-57838157D01*
X86353080Y-57838136D01*
X86350608Y-57845250D01*
X86350663Y-57845269D01*
X86348391Y-57852125D01*
X86333039Y-57926470D01*
X86332649Y-57928228D01*
X86315147Y-58002079D01*
X86314309Y-58009254D01*
X86314249Y-58009247D01*
X86313483Y-58016745D01*
X86313543Y-58016751D01*
X86312913Y-58023940D01*
X86315122Y-58099830D01*
X86315148Y-58101633D01*
X86315148Y-76067878D01*
X86295463Y-76134917D01*
X86242659Y-76180672D01*
X86173501Y-76190616D01*
X86109945Y-76161591D01*
X86099918Y-76151861D01*
X86010832Y-76055087D01*
X86010827Y-76055083D01*
X86010825Y-76055081D01*
X85827682Y-75912535D01*
X85827676Y-75912531D01*
X85623552Y-75802064D01*
X85623543Y-75802061D01*
X85404032Y-75726702D01*
X85232330Y-75698050D01*
X85175097Y-75688500D01*
X84942999Y-75688500D01*
X84913018Y-75693503D01*
X84714063Y-75726702D01*
X84494552Y-75802061D01*
X84494543Y-75802064D01*
X84290424Y-75912528D01*
X84258701Y-75937219D01*
X84193706Y-75962859D01*
X84125166Y-75949291D01*
X84094860Y-75927044D01*
X78421177Y-70253361D01*
X78409397Y-70239730D01*
X78401930Y-70229701D01*
X78395060Y-70220472D01*
X78388451Y-70214926D01*
X78355035Y-70186886D01*
X78351060Y-70183244D01*
X78348138Y-70180322D01*
X78345227Y-70177410D01*
X78320184Y-70157609D01*
X78318786Y-70156470D01*
X78308894Y-70148170D01*
X78260662Y-70107698D01*
X78254628Y-70103729D01*
X78254660Y-70103680D01*
X78248301Y-70099628D01*
X78248270Y-70099679D01*
X78242128Y-70095891D01*
X78242126Y-70095890D01*
X78242125Y-70095889D01*
X78173320Y-70063804D01*
X78171700Y-70063019D01*
X78131960Y-70043061D01*
X78103881Y-70028960D01*
X78103879Y-70028959D01*
X78103878Y-70028959D01*
X78097093Y-70026489D01*
X78097113Y-70026433D01*
X78089997Y-70023959D01*
X78089979Y-70024015D01*
X78083122Y-70021743D01*
X78008776Y-70006391D01*
X78007017Y-70006001D01*
X77933166Y-69988499D01*
X77925995Y-69987661D01*
X77926001Y-69987601D01*
X77918503Y-69986835D01*
X77918498Y-69986895D01*
X77911308Y-69986265D01*
X77835416Y-69988474D01*
X77833613Y-69988500D01*
X72413106Y-69988500D01*
X72346067Y-69968815D01*
X72307517Y-69929515D01*
X72291317Y-69903205D01*
X72291316Y-69903203D01*
X72133812Y-69724245D01*
X72133811Y-69724245D01*
X71948328Y-69574477D01*
X71803334Y-69493478D01*
X71740203Y-69458210D01*
X71515418Y-69378788D01*
X71280457Y-69338500D01*
X71280448Y-69338500D01*
X70601751Y-69338500D01*
X70601732Y-69338500D01*
X70423711Y-69353652D01*
X70192999Y-69413724D01*
X69975767Y-69511919D01*
X69975759Y-69511924D01*
X69778254Y-69645413D01*
X69778245Y-69645421D01*
X69606129Y-69810379D01*
X69464371Y-70002050D01*
X69464368Y-70002054D01*
X69357044Y-70214920D01*
X69357041Y-70214926D01*
X69287231Y-70442878D01*
X69256950Y-70679346D01*
X69267067Y-70917528D01*
X69267067Y-70917532D01*
X69317293Y-71150580D01*
X69382564Y-71313011D01*
X69406184Y-71371790D01*
X69531179Y-71574795D01*
X69580775Y-71631147D01*
X69681617Y-71745726D01*
X69688684Y-71753755D01*
X69874168Y-71903523D01*
X69874183Y-71903531D01*
X69874190Y-71903538D01*
X69878539Y-71906478D01*
X69877941Y-71907362D01*
X69923109Y-71953411D01*
X69937301Y-72021824D01*
X69912253Y-72087050D01*
X69883145Y-72114520D01*
X69778255Y-72185413D01*
X69778245Y-72185421D01*
X69606129Y-72350379D01*
X69464371Y-72542050D01*
X69464368Y-72542054D01*
X69357044Y-72754920D01*
X69357041Y-72754926D01*
X69287231Y-72982878D01*
X69256950Y-73219346D01*
X69267067Y-73457528D01*
X69267067Y-73457532D01*
X69317294Y-73690582D01*
X69321441Y-73700902D01*
X69328171Y-73770446D01*
X69296234Y-73832590D01*
X69294063Y-73834815D01*
X64075606Y-79053272D01*
X64061977Y-79065051D01*
X64042716Y-79079390D01*
X64009146Y-79119397D01*
X64005501Y-79123376D01*
X63999655Y-79129223D01*
X63979866Y-79154251D01*
X63978729Y-79155647D01*
X63969492Y-79166656D01*
X63911322Y-79205360D01*
X63841461Y-79206470D01*
X63782090Y-79169635D01*
X63752058Y-79106549D01*
X63750500Y-79086953D01*
X63750500Y-50677000D01*
X121032248Y-50677000D01*
X122007247Y-50677000D01*
X122007247Y-49927000D01*
X122507248Y-49927000D01*
X122507248Y-50677000D01*
X123482247Y-50677000D01*
X124042248Y-50677000D01*
X125017248Y-50677000D01*
X125517247Y-50677000D01*
X126492247Y-50677000D01*
X126492247Y-50627028D01*
X126492246Y-50627013D01*
X126481753Y-50524302D01*
X126426606Y-50357880D01*
X126426604Y-50357875D01*
X126334563Y-50208654D01*
X126210593Y-50084684D01*
X126061372Y-49992643D01*
X126061367Y-49992641D01*
X125894945Y-49937494D01*
X125894938Y-49937493D01*
X125792234Y-49927000D01*
X125517248Y-49927000D01*
X125517247Y-50677000D01*
X125017248Y-50677000D01*
X125017248Y-49927000D01*
X124742277Y-49927000D01*
X124742260Y-49927001D01*
X124639550Y-49937494D01*
X124473128Y-49992641D01*
X124473123Y-49992643D01*
X124323902Y-50084684D01*
X124199932Y-50208654D01*
X124107891Y-50357875D01*
X124107889Y-50357880D01*
X124052742Y-50524302D01*
X124052741Y-50524309D01*
X124042248Y-50627013D01*
X124042248Y-50677000D01*
X123482247Y-50677000D01*
X123482247Y-50627028D01*
X123482246Y-50627013D01*
X123471753Y-50524302D01*
X123416606Y-50357880D01*
X123416604Y-50357875D01*
X123324563Y-50208654D01*
X123200593Y-50084684D01*
X123051372Y-49992643D01*
X123051367Y-49992641D01*
X122884945Y-49937494D01*
X122884938Y-49937493D01*
X122782234Y-49927000D01*
X122507248Y-49927000D01*
X122007247Y-49927000D01*
X121732277Y-49927000D01*
X121732260Y-49927001D01*
X121629550Y-49937494D01*
X121463128Y-49992641D01*
X121463123Y-49992643D01*
X121313902Y-50084684D01*
X121189932Y-50208654D01*
X121097891Y-50357875D01*
X121097889Y-50357880D01*
X121042742Y-50524302D01*
X121042741Y-50524309D01*
X121032248Y-50627013D01*
X121032248Y-50677000D01*
X63750500Y-50677000D01*
X63750500Y-46584000D01*
X63770185Y-46516961D01*
X63822989Y-46471206D01*
X63874500Y-46460000D01*
X73629327Y-46460000D01*
X73696366Y-46479685D01*
G37*
%TD.AperFunction*%
%TA.AperFunction,Conductor*%
G36*
X69234835Y-76119292D02*
G01*
X69290768Y-76161164D01*
X69312717Y-76209348D01*
X69317292Y-76230575D01*
X69317293Y-76230578D01*
X69317294Y-76230581D01*
X69326733Y-76254071D01*
X69388581Y-76407985D01*
X69406184Y-76451790D01*
X69531179Y-76654795D01*
X69688684Y-76833755D01*
X69874168Y-76983523D01*
X69874183Y-76983531D01*
X69874190Y-76983538D01*
X69878539Y-76986478D01*
X69877941Y-76987362D01*
X69923109Y-77033411D01*
X69937301Y-77101824D01*
X69912253Y-77167050D01*
X69883145Y-77194520D01*
X69778255Y-77265413D01*
X69778245Y-77265421D01*
X69606129Y-77430379D01*
X69464371Y-77622050D01*
X69464368Y-77622054D01*
X69357044Y-77834920D01*
X69357041Y-77834926D01*
X69287231Y-78062878D01*
X69256950Y-78299346D01*
X69267067Y-78537528D01*
X69267067Y-78537532D01*
X69317293Y-78770580D01*
X69397611Y-78970455D01*
X69406184Y-78991790D01*
X69531179Y-79194795D01*
X69688684Y-79373755D01*
X69874168Y-79523523D01*
X69874183Y-79523531D01*
X69874190Y-79523538D01*
X69878539Y-79526478D01*
X69877941Y-79527362D01*
X69923109Y-79573411D01*
X69937301Y-79641824D01*
X69912253Y-79707050D01*
X69883145Y-79734520D01*
X69778255Y-79805413D01*
X69778245Y-79805421D01*
X69606129Y-79970379D01*
X69464371Y-80162050D01*
X69464368Y-80162054D01*
X69357044Y-80374920D01*
X69357041Y-80374926D01*
X69287231Y-80602878D01*
X69256950Y-80839346D01*
X69267067Y-81077528D01*
X69267067Y-81077532D01*
X69317293Y-81310580D01*
X69406183Y-81531788D01*
X69406184Y-81531790D01*
X69531179Y-81734795D01*
X69688684Y-81913755D01*
X69874168Y-82063523D01*
X69874183Y-82063531D01*
X69874190Y-82063538D01*
X69878539Y-82066478D01*
X69877941Y-82067362D01*
X69923109Y-82113411D01*
X69937301Y-82181824D01*
X69912253Y-82247050D01*
X69883145Y-82274520D01*
X69778255Y-82345413D01*
X69778245Y-82345421D01*
X69606129Y-82510379D01*
X69464371Y-82702050D01*
X69464368Y-82702054D01*
X69357044Y-82914920D01*
X69357041Y-82914926D01*
X69287231Y-83142878D01*
X69256950Y-83379346D01*
X69267067Y-83617528D01*
X69267067Y-83617532D01*
X69317293Y-83850580D01*
X69390601Y-84033011D01*
X69406184Y-84071790D01*
X69531179Y-84274795D01*
X69688684Y-84453755D01*
X69874168Y-84603523D01*
X69874183Y-84603531D01*
X69874190Y-84603538D01*
X69878539Y-84606478D01*
X69877941Y-84607362D01*
X69923109Y-84653411D01*
X69937301Y-84721824D01*
X69912253Y-84787050D01*
X69883145Y-84814520D01*
X69778255Y-84885413D01*
X69778245Y-84885421D01*
X69606131Y-85050377D01*
X69585527Y-85078236D01*
X69529836Y-85120430D01*
X69485832Y-85128500D01*
X69331271Y-85128500D01*
X69264232Y-85108815D01*
X69220184Y-85059596D01*
X69149090Y-84916247D01*
X69149089Y-84916246D01*
X69149089Y-84916245D01*
X69033188Y-84772059D01*
X68903995Y-84668211D01*
X68889001Y-84656158D01*
X68888999Y-84656157D01*
X68888998Y-84656156D01*
X68723271Y-84573964D01*
X68723269Y-84573963D01*
X68543745Y-84529317D01*
X68543749Y-84529317D01*
X68512587Y-84527204D01*
X68502202Y-84526500D01*
X67854294Y-84526500D01*
X67842425Y-84527304D01*
X67812748Y-84529317D01*
X67633226Y-84573963D01*
X67633224Y-84573964D01*
X67467497Y-84656156D01*
X67323304Y-84772062D01*
X67258683Y-84852454D01*
X67201340Y-84892373D01*
X67131518Y-84894952D01*
X67074356Y-84862447D01*
X66996593Y-84784684D01*
X66847372Y-84692643D01*
X66847367Y-84692641D01*
X66680945Y-84637494D01*
X66680938Y-84637493D01*
X66578234Y-84627000D01*
X66528248Y-84627000D01*
X66528248Y-87076999D01*
X66578220Y-87076999D01*
X66578234Y-87076998D01*
X66680945Y-87066505D01*
X66847367Y-87011358D01*
X66847372Y-87011356D01*
X66996590Y-86919317D01*
X67074355Y-86841552D01*
X67135678Y-86808067D01*
X67205370Y-86813051D01*
X67258683Y-86851544D01*
X67283841Y-86882842D01*
X67300395Y-86903435D01*
X67327054Y-86968019D01*
X67327748Y-86981123D01*
X67327748Y-87732876D01*
X67308063Y-87799915D01*
X67300395Y-87810564D01*
X67258684Y-87862454D01*
X67201340Y-87902372D01*
X67131518Y-87904952D01*
X67074356Y-87872447D01*
X66996593Y-87794684D01*
X66847372Y-87702643D01*
X66847367Y-87702641D01*
X66680945Y-87647494D01*
X66680938Y-87647493D01*
X66578234Y-87637000D01*
X66528248Y-87637000D01*
X66528248Y-90086999D01*
X66578220Y-90086999D01*
X66578234Y-90086998D01*
X66680945Y-90076505D01*
X66847367Y-90021358D01*
X66847372Y-90021356D01*
X66996590Y-89929317D01*
X67074355Y-89851552D01*
X67135678Y-89818067D01*
X67205370Y-89823051D01*
X67258684Y-89861545D01*
X67323307Y-89941940D01*
X67382104Y-89989202D01*
X67467495Y-90057842D01*
X67633227Y-90140037D01*
X67812749Y-90184682D01*
X67812750Y-90184682D01*
X67812753Y-90184683D01*
X67854294Y-90187500D01*
X67854296Y-90187500D01*
X68502200Y-90187500D01*
X68502202Y-90187500D01*
X68543743Y-90184683D01*
X68723269Y-90140037D01*
X68889001Y-90057842D01*
X69033188Y-89941940D01*
X69149090Y-89797753D01*
X69231285Y-89632021D01*
X69275931Y-89452495D01*
X69278748Y-89410954D01*
X69278748Y-89189608D01*
X69298433Y-89122570D01*
X69351237Y-89076815D01*
X69420395Y-89066871D01*
X69483951Y-89095896D01*
X69515130Y-89137205D01*
X69531112Y-89171479D01*
X69531113Y-89171481D01*
X69661590Y-89357820D01*
X69822427Y-89518657D01*
X70008765Y-89649134D01*
X70214921Y-89745265D01*
X70214930Y-89745269D01*
X70434637Y-89804139D01*
X70434648Y-89804141D01*
X70604481Y-89818999D01*
X70604484Y-89819000D01*
X70661248Y-89819000D01*
X70661248Y-88954501D01*
X70768933Y-89003680D01*
X70875485Y-89019000D01*
X70947011Y-89019000D01*
X71053563Y-89003680D01*
X71161248Y-88954501D01*
X71161248Y-89819000D01*
X71218012Y-89819000D01*
X71218014Y-89818999D01*
X71387847Y-89804141D01*
X71387858Y-89804139D01*
X71607565Y-89745269D01*
X71607574Y-89745265D01*
X71813730Y-89649134D01*
X72000068Y-89518657D01*
X72160905Y-89357820D01*
X72291382Y-89171482D01*
X72387513Y-88965326D01*
X72387517Y-88965317D01*
X72440120Y-88769000D01*
X71344934Y-88769000D01*
X71370741Y-88728844D01*
X71411248Y-88590889D01*
X71411248Y-88447111D01*
X71370741Y-88309156D01*
X71344934Y-88269000D01*
X72440120Y-88269000D01*
X72440120Y-88268999D01*
X72387517Y-88072682D01*
X72387513Y-88072673D01*
X72291382Y-87866517D01*
X72160905Y-87680179D01*
X72000068Y-87519342D01*
X71844751Y-87410587D01*
X71801126Y-87356009D01*
X71793934Y-87286511D01*
X71825456Y-87224156D01*
X71846438Y-87206277D01*
X72044241Y-87072586D01*
X72044242Y-87072584D01*
X72044251Y-87072579D01*
X72216366Y-86907621D01*
X72358127Y-86715947D01*
X72465455Y-86503074D01*
X72535264Y-86275123D01*
X72565546Y-86038654D01*
X72564300Y-86009333D01*
X72555428Y-85800471D01*
X72555428Y-85800467D01*
X72505202Y-85567419D01*
X72495956Y-85544409D01*
X72416312Y-85346210D01*
X72291317Y-85143205D01*
X72133812Y-84964245D01*
X71948328Y-84814477D01*
X71948322Y-84814474D01*
X71948319Y-84814471D01*
X71948305Y-84814463D01*
X71948299Y-84814457D01*
X71943957Y-84811522D01*
X71944554Y-84810638D01*
X71899382Y-84764580D01*
X71885195Y-84696165D01*
X71910247Y-84630942D01*
X71939347Y-84603481D01*
X72044251Y-84532579D01*
X72216366Y-84367621D01*
X72358127Y-84175947D01*
X72465455Y-83963074D01*
X72510208Y-83816938D01*
X72548658Y-83758605D01*
X72612546Y-83730318D01*
X72681584Y-83741061D01*
X72716452Y-83765571D01*
X73637515Y-84686634D01*
X73649296Y-84700266D01*
X73663638Y-84719530D01*
X73703668Y-84753119D01*
X73707640Y-84756759D01*
X73710560Y-84759679D01*
X73713468Y-84762588D01*
X73738500Y-84782381D01*
X73739897Y-84783519D01*
X73751288Y-84793077D01*
X73798034Y-84832302D01*
X73798042Y-84832306D01*
X73804072Y-84836273D01*
X73804038Y-84836323D01*
X73810385Y-84840366D01*
X73810417Y-84840316D01*
X73816569Y-84844110D01*
X73816570Y-84844110D01*
X73816571Y-84844111D01*
X73885391Y-84876202D01*
X73886940Y-84876952D01*
X73954815Y-84911040D01*
X73954824Y-84911042D01*
X73961603Y-84913510D01*
X73961582Y-84913567D01*
X73968699Y-84916040D01*
X73968718Y-84915984D01*
X73975572Y-84918254D01*
X73975575Y-84918256D01*
X74049963Y-84933615D01*
X74051600Y-84933978D01*
X74125527Y-84951500D01*
X74125533Y-84951500D01*
X74132700Y-84952338D01*
X74132693Y-84952397D01*
X74140194Y-84953163D01*
X74140200Y-84953104D01*
X74147389Y-84953733D01*
X74147391Y-84953732D01*
X74147392Y-84953733D01*
X74169012Y-84953104D01*
X74223260Y-84951526D01*
X74225063Y-84951500D01*
X75465018Y-84951500D01*
X75532057Y-84971185D01*
X75577812Y-85023989D01*
X75587756Y-85093147D01*
X75558731Y-85156703D01*
X75552699Y-85163181D01*
X73575206Y-87140672D01*
X73561577Y-87152451D01*
X73542316Y-87166790D01*
X73508746Y-87206797D01*
X73505101Y-87210776D01*
X73499255Y-87216623D01*
X73479466Y-87241651D01*
X73478329Y-87243047D01*
X73429542Y-87301190D01*
X73425577Y-87307219D01*
X73425530Y-87307188D01*
X73421478Y-87313547D01*
X73421527Y-87313577D01*
X73417737Y-87319721D01*
X73385660Y-87388510D01*
X73384875Y-87390131D01*
X73350805Y-87457972D01*
X73348336Y-87464757D01*
X73348280Y-87464736D01*
X73345808Y-87471850D01*
X73345863Y-87471869D01*
X73343591Y-87478725D01*
X73328239Y-87553070D01*
X73327849Y-87554828D01*
X73310347Y-87628679D01*
X73309509Y-87635854D01*
X73309449Y-87635847D01*
X73308683Y-87643345D01*
X73308743Y-87643351D01*
X73308113Y-87650540D01*
X73310322Y-87726430D01*
X73310348Y-87728233D01*
X73310348Y-105902610D01*
X73290663Y-105969649D01*
X73237859Y-106015404D01*
X73168701Y-106025348D01*
X73133943Y-106014992D01*
X73002574Y-105953734D01*
X73002565Y-105953730D01*
X72782858Y-105894860D01*
X72782847Y-105894858D01*
X72556250Y-105875034D01*
X72556246Y-105875034D01*
X72329648Y-105894858D01*
X72329637Y-105894860D01*
X72109930Y-105953730D01*
X72109921Y-105953734D01*
X71903761Y-106049868D01*
X71830775Y-106100973D01*
X72609802Y-106880000D01*
X72528446Y-106880000D01*
X72445998Y-106895412D01*
X72350638Y-106954457D01*
X72283047Y-107043962D01*
X72252353Y-107151840D01*
X72260300Y-107237606D01*
X71477221Y-106454527D01*
X71426116Y-106527513D01*
X71329982Y-106733673D01*
X71329978Y-106733682D01*
X71271108Y-106953389D01*
X71271106Y-106953400D01*
X71251282Y-107179997D01*
X71251282Y-107180002D01*
X71271106Y-107406599D01*
X71271108Y-107406610D01*
X71329978Y-107626317D01*
X71329982Y-107626326D01*
X71426113Y-107832482D01*
X71556590Y-108018820D01*
X71558388Y-108020618D01*
X71558928Y-108021608D01*
X71560068Y-108022966D01*
X71559795Y-108023194D01*
X71591873Y-108081941D01*
X71586889Y-108151633D01*
X71561938Y-108192281D01*
X71447264Y-108316852D01*
X71320323Y-108511151D01*
X71227090Y-108723699D01*
X71170114Y-108948691D01*
X71170112Y-108948702D01*
X71150948Y-109179993D01*
X71150948Y-109180006D01*
X71170112Y-109411297D01*
X71170114Y-109411308D01*
X71227090Y-109636300D01*
X71320323Y-109848848D01*
X71447266Y-110043150D01*
X71495933Y-110096016D01*
X71526855Y-110158671D01*
X71518995Y-110228097D01*
X71495934Y-110263980D01*
X71447270Y-110316844D01*
X71447268Y-110316846D01*
X71320323Y-110511151D01*
X71227090Y-110723699D01*
X71170114Y-110948691D01*
X71170112Y-110948702D01*
X71150948Y-111179993D01*
X71150948Y-111180006D01*
X71170112Y-111411297D01*
X71170114Y-111411308D01*
X71227090Y-111636300D01*
X71320323Y-111848848D01*
X71447266Y-112043150D01*
X71495933Y-112096016D01*
X71526855Y-112158671D01*
X71518995Y-112228097D01*
X71495934Y-112263980D01*
X71447270Y-112316844D01*
X71447268Y-112316846D01*
X71320323Y-112511151D01*
X71227090Y-112723699D01*
X71170114Y-112948691D01*
X71170112Y-112948702D01*
X71150948Y-113179993D01*
X71150948Y-113180006D01*
X71170112Y-113411297D01*
X71170114Y-113411308D01*
X71227090Y-113636300D01*
X71320323Y-113848848D01*
X71447264Y-114043147D01*
X71447267Y-114043151D01*
X71447269Y-114043153D01*
X71604464Y-114213913D01*
X71604467Y-114213915D01*
X71604470Y-114213918D01*
X71787613Y-114356464D01*
X71787619Y-114356468D01*
X71787622Y-114356470D01*
X71941155Y-114439558D01*
X71985168Y-114463377D01*
X71991745Y-114466936D01*
X72036802Y-114482404D01*
X72211263Y-114542297D01*
X72211265Y-114542297D01*
X72211267Y-114542298D01*
X72440199Y-114580500D01*
X72440200Y-114580500D01*
X72672296Y-114580500D01*
X72672297Y-114580500D01*
X72901229Y-114542298D01*
X73120751Y-114466936D01*
X73125285Y-114464481D01*
X73127328Y-114463377D01*
X73195655Y-114448780D01*
X73261028Y-114473441D01*
X73302691Y-114529530D01*
X73310348Y-114572430D01*
X73310348Y-124447094D01*
X73309039Y-124465063D01*
X73305558Y-124488825D01*
X73310112Y-124540864D01*
X73310348Y-124546270D01*
X73310348Y-124554512D01*
X73314050Y-124586191D01*
X73314234Y-124587985D01*
X73320848Y-124663592D01*
X73322309Y-124670667D01*
X73322251Y-124670678D01*
X73323882Y-124678037D01*
X73323940Y-124678024D01*
X73325605Y-124685049D01*
X73351556Y-124756351D01*
X73352147Y-124758053D01*
X73376030Y-124830126D01*
X73379084Y-124836674D01*
X73379030Y-124836698D01*
X73382318Y-124843488D01*
X73382369Y-124843463D01*
X73385609Y-124849913D01*
X73385610Y-124849914D01*
X73385611Y-124849917D01*
X73427342Y-124913367D01*
X73428291Y-124914858D01*
X73468137Y-124979457D01*
X73472614Y-124985119D01*
X73472567Y-124985156D01*
X73477330Y-124991002D01*
X73477376Y-124990964D01*
X73482021Y-124996499D01*
X73537212Y-125048569D01*
X73538506Y-125049826D01*
X75669315Y-127180634D01*
X75681096Y-127194266D01*
X75695438Y-127213530D01*
X75735468Y-127247119D01*
X75739440Y-127250759D01*
X75742360Y-127253679D01*
X75745268Y-127256588D01*
X75770300Y-127276381D01*
X75771697Y-127277519D01*
X75794863Y-127296957D01*
X75829834Y-127326302D01*
X75829842Y-127326306D01*
X75835872Y-127330273D01*
X75835838Y-127330323D01*
X75842185Y-127334366D01*
X75842217Y-127334316D01*
X75848369Y-127338110D01*
X75848370Y-127338110D01*
X75848371Y-127338111D01*
X75917191Y-127370202D01*
X75918740Y-127370952D01*
X75986615Y-127405040D01*
X75986624Y-127405042D01*
X75993403Y-127407510D01*
X75993382Y-127407567D01*
X76000499Y-127410040D01*
X76000518Y-127409984D01*
X76007372Y-127412254D01*
X76007375Y-127412256D01*
X76081763Y-127427615D01*
X76083400Y-127427978D01*
X76157327Y-127445500D01*
X76157333Y-127445500D01*
X76164500Y-127446338D01*
X76164493Y-127446397D01*
X76171994Y-127447163D01*
X76172000Y-127447104D01*
X76179189Y-127447733D01*
X76179191Y-127447732D01*
X76179192Y-127447733D01*
X76200812Y-127447104D01*
X76255060Y-127445526D01*
X76256863Y-127445500D01*
X119268943Y-127445500D01*
X119335982Y-127465185D01*
X119381737Y-127517989D01*
X119391681Y-127587147D01*
X119386123Y-127610056D01*
X119360405Y-127684361D01*
X119360404Y-127684366D01*
X119360404Y-127684367D01*
X119332126Y-127881051D01*
X119330494Y-127892401D01*
X119340493Y-128102327D01*
X119386330Y-128291266D01*
X119383005Y-128361056D01*
X119342477Y-128417971D01*
X119277612Y-128443939D01*
X119265825Y-128444500D01*
X74865478Y-128444500D01*
X74798439Y-128424815D01*
X74777797Y-128408181D01*
X65348066Y-118978450D01*
X65314581Y-118917127D01*
X65311747Y-118890769D01*
X65311747Y-111166478D01*
X65311747Y-103985555D01*
X65331432Y-103918520D01*
X65384236Y-103872765D01*
X65453394Y-103862821D01*
X65516950Y-103891846D01*
X65538547Y-103916218D01*
X65694234Y-104147034D01*
X65754843Y-104214347D01*
X65886116Y-104360141D01*
X65886123Y-104360148D01*
X66105793Y-104544474D01*
X66105797Y-104544477D01*
X66105799Y-104544478D01*
X66348994Y-104696443D01*
X66468819Y-104749793D01*
X66610958Y-104813078D01*
X66610963Y-104813079D01*
X66610971Y-104813083D01*
X66886632Y-104892127D01*
X66886637Y-104892127D01*
X66886642Y-104892129D01*
X67075951Y-104918734D01*
X67170606Y-104932037D01*
X67170608Y-104932038D01*
X67170611Y-104932038D01*
X67385588Y-104932038D01*
X67385600Y-104932038D01*
X67600067Y-104917041D01*
X67600072Y-104917040D01*
X67600074Y-104917040D01*
X67743139Y-104886630D01*
X67880571Y-104857418D01*
X68150046Y-104759337D01*
X68403249Y-104624707D01*
X68635250Y-104456148D01*
X68841535Y-104256941D01*
X69018089Y-104030963D01*
X69161473Y-103782613D01*
X69268899Y-103516725D01*
X69338275Y-103238473D01*
X69368251Y-102953274D01*
X69367943Y-102944465D01*
X69358243Y-102666682D01*
X69358242Y-102666675D01*
X69308446Y-102384266D01*
X69219829Y-102111532D01*
X69219827Y-102111527D01*
X69094121Y-101853792D01*
X69094119Y-101853789D01*
X69094117Y-101853785D01*
X68933758Y-101616042D01*
X68781684Y-101447147D01*
X68741875Y-101402934D01*
X68741868Y-101402927D01*
X68522198Y-101218601D01*
X68279002Y-101066635D01*
X68279000Y-101066634D01*
X68017033Y-100949997D01*
X68017023Y-100949994D01*
X68017021Y-100949993D01*
X67741360Y-100870949D01*
X67741358Y-100870948D01*
X67741349Y-100870946D01*
X67457385Y-100831038D01*
X67457381Y-100831038D01*
X67242392Y-100831038D01*
X67242379Y-100831038D01*
X67027921Y-100846035D01*
X67027917Y-100846035D01*
X66747423Y-100905657D01*
X66477950Y-101003737D01*
X66224748Y-101138365D01*
X66224741Y-101138370D01*
X65992749Y-101306921D01*
X65992742Y-101306927D01*
X65786455Y-101506137D01*
X65609903Y-101732112D01*
X65543135Y-101847759D01*
X65492568Y-101895974D01*
X65423961Y-101909198D01*
X65359096Y-101883230D01*
X65318568Y-101826316D01*
X65311748Y-101785759D01*
X65311748Y-89980523D01*
X65331433Y-89913484D01*
X65384237Y-89867729D01*
X65453395Y-89857785D01*
X65516951Y-89886810D01*
X65523429Y-89892842D01*
X65559902Y-89929315D01*
X65709123Y-90021356D01*
X65709128Y-90021358D01*
X65875550Y-90076505D01*
X65875557Y-90076506D01*
X65978267Y-90086999D01*
X66028247Y-90086998D01*
X66028248Y-90086998D01*
X66028247Y-87637000D01*
X66028247Y-87636999D01*
X65978277Y-87637000D01*
X65978259Y-87637001D01*
X65875550Y-87647494D01*
X65709128Y-87702641D01*
X65709123Y-87702643D01*
X65559902Y-87794684D01*
X65523429Y-87831158D01*
X65462106Y-87864643D01*
X65392414Y-87859659D01*
X65336481Y-87817787D01*
X65312064Y-87752323D01*
X65311748Y-87743477D01*
X65311748Y-86970523D01*
X65331433Y-86903484D01*
X65384237Y-86857729D01*
X65453395Y-86847785D01*
X65516951Y-86876810D01*
X65523429Y-86882842D01*
X65559902Y-86919315D01*
X65709123Y-87011356D01*
X65709128Y-87011358D01*
X65875550Y-87066505D01*
X65875557Y-87066506D01*
X65978267Y-87076999D01*
X66028247Y-87076998D01*
X66028248Y-87076998D01*
X66028247Y-84627000D01*
X66028247Y-84626999D01*
X65978277Y-84627000D01*
X65978259Y-84627001D01*
X65875550Y-84637494D01*
X65709128Y-84692641D01*
X65709123Y-84692643D01*
X65559902Y-84784684D01*
X65523429Y-84821158D01*
X65462106Y-84854643D01*
X65392414Y-84849659D01*
X65336481Y-84807787D01*
X65312064Y-84742323D01*
X65311748Y-84733477D01*
X65311748Y-79991228D01*
X65331433Y-79924189D01*
X65348062Y-79903552D01*
X69103822Y-76147791D01*
X69165143Y-76114308D01*
X69234835Y-76119292D01*
G37*
%TD.AperFunction*%
%TA.AperFunction,Conductor*%
G36*
X84756187Y-85661385D02*
G01*
X84801942Y-85714189D01*
X84813148Y-85765700D01*
X84813148Y-86080563D01*
X84828601Y-86197953D01*
X84828605Y-86197965D01*
X84889109Y-86344036D01*
X84889110Y-86344038D01*
X84889111Y-86344040D01*
X84889112Y-86344041D01*
X84892522Y-86348485D01*
X84917718Y-86413652D01*
X84918148Y-86423973D01*
X84918148Y-99268848D01*
X84898463Y-99335887D01*
X84853167Y-99377902D01*
X84798424Y-99407528D01*
X84798413Y-99407535D01*
X84615270Y-99550081D01*
X84615267Y-99550084D01*
X84458064Y-99720852D01*
X84331123Y-99915151D01*
X84237890Y-100127699D01*
X84180914Y-100352691D01*
X84180912Y-100352702D01*
X84161748Y-100583993D01*
X84161748Y-100584006D01*
X84180912Y-100815297D01*
X84180914Y-100815308D01*
X84237890Y-101040300D01*
X84331123Y-101252848D01*
X84458064Y-101447147D01*
X84458067Y-101447151D01*
X84458069Y-101447153D01*
X84615264Y-101617913D01*
X84615267Y-101617915D01*
X84615270Y-101617918D01*
X84798413Y-101760464D01*
X84798419Y-101760468D01*
X84798422Y-101760470D01*
X84845152Y-101785759D01*
X84971329Y-101854043D01*
X85002545Y-101870936D01*
X85113998Y-101909198D01*
X85222063Y-101946297D01*
X85222065Y-101946297D01*
X85222067Y-101946298D01*
X85450999Y-101984500D01*
X85451000Y-101984500D01*
X85683096Y-101984500D01*
X85683097Y-101984500D01*
X85896032Y-101948967D01*
X85965395Y-101957349D01*
X86019217Y-102001901D01*
X86040408Y-102068480D01*
X86022241Y-102135946D01*
X86004121Y-102158957D01*
X83862206Y-104300872D01*
X83848577Y-104312651D01*
X83829316Y-104326990D01*
X83795746Y-104366997D01*
X83792101Y-104370976D01*
X83786255Y-104376823D01*
X83766466Y-104401851D01*
X83765329Y-104403247D01*
X83716542Y-104461390D01*
X83712577Y-104467419D01*
X83712530Y-104467388D01*
X83708478Y-104473747D01*
X83708527Y-104473777D01*
X83704737Y-104479921D01*
X83672660Y-104548710D01*
X83671875Y-104550331D01*
X83637805Y-104618172D01*
X83635336Y-104624957D01*
X83635280Y-104624936D01*
X83632808Y-104632050D01*
X83632863Y-104632069D01*
X83630591Y-104638925D01*
X83615239Y-104713270D01*
X83614849Y-104715028D01*
X83597347Y-104788879D01*
X83596509Y-104796054D01*
X83596449Y-104796047D01*
X83595683Y-104803545D01*
X83595743Y-104803551D01*
X83595113Y-104810740D01*
X83597322Y-104886630D01*
X83597348Y-104888433D01*
X83597348Y-121729294D01*
X83596039Y-121747263D01*
X83592558Y-121771025D01*
X83597112Y-121823064D01*
X83597348Y-121828470D01*
X83597348Y-121836712D01*
X83601050Y-121868391D01*
X83601234Y-121870185D01*
X83607848Y-121945792D01*
X83609309Y-121952867D01*
X83609251Y-121952878D01*
X83610882Y-121960237D01*
X83610940Y-121960224D01*
X83612605Y-121967249D01*
X83612606Y-121967254D01*
X83612607Y-121967255D01*
X83632713Y-122022499D01*
X83638556Y-122038551D01*
X83639147Y-122040253D01*
X83663030Y-122112326D01*
X83666084Y-122118874D01*
X83666030Y-122118898D01*
X83669318Y-122125688D01*
X83669369Y-122125663D01*
X83672609Y-122132113D01*
X83672610Y-122132114D01*
X83672611Y-122132117D01*
X83714342Y-122195567D01*
X83715291Y-122197058D01*
X83746401Y-122247495D01*
X83755137Y-122261657D01*
X83759614Y-122267319D01*
X83759567Y-122267356D01*
X83764330Y-122273202D01*
X83764376Y-122273164D01*
X83769021Y-122278699D01*
X83824211Y-122330768D01*
X83825505Y-122332025D01*
X86870918Y-125377438D01*
X86882699Y-125391070D01*
X86897036Y-125410328D01*
X86937057Y-125443911D01*
X86941045Y-125447566D01*
X86946865Y-125453386D01*
X86946870Y-125453390D01*
X86946871Y-125453391D01*
X86971911Y-125473190D01*
X86973292Y-125474315D01*
X87031434Y-125523102D01*
X87031435Y-125523102D01*
X87031437Y-125523104D01*
X87037466Y-125527070D01*
X87037433Y-125527119D01*
X87043795Y-125531172D01*
X87043827Y-125531121D01*
X87049967Y-125534908D01*
X87049971Y-125534911D01*
X87087926Y-125552609D01*
X87118785Y-125567000D01*
X87120408Y-125567786D01*
X87188210Y-125601838D01*
X87195005Y-125604311D01*
X87194984Y-125604367D01*
X87202105Y-125606843D01*
X87202124Y-125606786D01*
X87208967Y-125609053D01*
X87208975Y-125609057D01*
X87283396Y-125624423D01*
X87285019Y-125624783D01*
X87358927Y-125642300D01*
X87358928Y-125642300D01*
X87358932Y-125642301D01*
X87366101Y-125643139D01*
X87366094Y-125643198D01*
X87373592Y-125643964D01*
X87373598Y-125643905D01*
X87380787Y-125644534D01*
X87380791Y-125644533D01*
X87380792Y-125644534D01*
X87408877Y-125643716D01*
X87456680Y-125642326D01*
X87458483Y-125642300D01*
X142982558Y-125642300D01*
X143049597Y-125661985D01*
X143086367Y-125698479D01*
X143106669Y-125729553D01*
X143113082Y-125736519D01*
X143144003Y-125799172D01*
X143136143Y-125868598D01*
X143091996Y-125922753D01*
X143025578Y-125944444D01*
X143021851Y-125944500D01*
X76607278Y-125944500D01*
X76540239Y-125924815D01*
X76519597Y-125908181D01*
X74847667Y-124236250D01*
X74814182Y-124174927D01*
X74811348Y-124148569D01*
X74811348Y-110323628D01*
X74831033Y-110256589D01*
X74883837Y-110210834D01*
X74952995Y-110200890D01*
X74994363Y-110214572D01*
X75081145Y-110261536D01*
X75192263Y-110299683D01*
X75300663Y-110336897D01*
X75300665Y-110336897D01*
X75300667Y-110336898D01*
X75529599Y-110375100D01*
X75529600Y-110375100D01*
X75761696Y-110375100D01*
X75761697Y-110375100D01*
X75990629Y-110336898D01*
X76210151Y-110261536D01*
X76414274Y-110151070D01*
X76420678Y-110146086D01*
X76485448Y-110095673D01*
X76597432Y-110008513D01*
X76754627Y-109837753D01*
X76881572Y-109643449D01*
X76974805Y-109430900D01*
X77031782Y-109205905D01*
X77033928Y-109180006D01*
X77050948Y-108974606D01*
X77050948Y-108974593D01*
X77031783Y-108743302D01*
X77031781Y-108743291D01*
X76974805Y-108518299D01*
X76881572Y-108305751D01*
X76754631Y-108111452D01*
X76754628Y-108111449D01*
X76754627Y-108111447D01*
X76597432Y-107940687D01*
X76543985Y-107899087D01*
X76503172Y-107842376D01*
X76496148Y-107801234D01*
X76496148Y-98481164D01*
X76515833Y-98414125D01*
X76543981Y-98383314D01*
X76597432Y-98341713D01*
X76754627Y-98170953D01*
X76811839Y-98083382D01*
X76864985Y-98038026D01*
X76934216Y-98028602D01*
X76997552Y-98058104D01*
X77019457Y-98083383D01*
X77076664Y-98170947D01*
X77076667Y-98170951D01*
X77076669Y-98170953D01*
X77233864Y-98341713D01*
X77387310Y-98461144D01*
X77428123Y-98517855D01*
X77435148Y-98558998D01*
X77435148Y-111858018D01*
X77415463Y-111925057D01*
X77387310Y-111955871D01*
X77223870Y-112083081D01*
X77223867Y-112083084D01*
X77066664Y-112253852D01*
X76939723Y-112448151D01*
X76846490Y-112660699D01*
X76789514Y-112885691D01*
X76789512Y-112885702D01*
X76770348Y-113116993D01*
X76770348Y-113117006D01*
X76789512Y-113348297D01*
X76789514Y-113348308D01*
X76846490Y-113573300D01*
X76939723Y-113785848D01*
X77066664Y-113980147D01*
X77066667Y-113980151D01*
X77066669Y-113980153D01*
X77223864Y-114150913D01*
X77223867Y-114150915D01*
X77223870Y-114150918D01*
X77407013Y-114293464D01*
X77407019Y-114293468D01*
X77407022Y-114293470D01*
X77611145Y-114403936D01*
X77714908Y-114439558D01*
X77830663Y-114479297D01*
X77830665Y-114479297D01*
X77830667Y-114479298D01*
X78059599Y-114517500D01*
X78059600Y-114517500D01*
X78291696Y-114517500D01*
X78291697Y-114517500D01*
X78520629Y-114479298D01*
X78740151Y-114403936D01*
X78944274Y-114293470D01*
X78966742Y-114275983D01*
X79046483Y-114213918D01*
X79127432Y-114150913D01*
X79284627Y-113980153D01*
X79411572Y-113785849D01*
X79504805Y-113573300D01*
X79561782Y-113348305D01*
X79570586Y-113242059D01*
X79580948Y-113117006D01*
X79580948Y-113116993D01*
X79561783Y-112885702D01*
X79561781Y-112885691D01*
X79504805Y-112660699D01*
X79411572Y-112448151D01*
X79284631Y-112253852D01*
X79284628Y-112253849D01*
X79284627Y-112253847D01*
X79127432Y-112083087D01*
X79127427Y-112083083D01*
X79127425Y-112083081D01*
X78983986Y-111971438D01*
X78943173Y-111914728D01*
X78936148Y-111873585D01*
X78936148Y-98558998D01*
X78955833Y-98491959D01*
X78983986Y-98461144D01*
X79137432Y-98341713D01*
X79294627Y-98170953D01*
X79351839Y-98083382D01*
X79404985Y-98038026D01*
X79474216Y-98028602D01*
X79537552Y-98058104D01*
X79559457Y-98083383D01*
X79616664Y-98170947D01*
X79616667Y-98170951D01*
X79616669Y-98170953D01*
X79773864Y-98341713D01*
X79927310Y-98461144D01*
X79968123Y-98517855D01*
X79975148Y-98558998D01*
X79975148Y-109940788D01*
X79955463Y-110007827D01*
X79927310Y-110038641D01*
X79789270Y-110146081D01*
X79789267Y-110146084D01*
X79789264Y-110146086D01*
X79789264Y-110146087D01*
X79738730Y-110200982D01*
X79632064Y-110316852D01*
X79505123Y-110511151D01*
X79411890Y-110723699D01*
X79354914Y-110948691D01*
X79354912Y-110948702D01*
X79335748Y-111179993D01*
X79335748Y-111180006D01*
X79354912Y-111411297D01*
X79354914Y-111411308D01*
X79411890Y-111636300D01*
X79505123Y-111848848D01*
X79632064Y-112043147D01*
X79632067Y-112043150D01*
X79632069Y-112043153D01*
X79789264Y-112213913D01*
X79789267Y-112213915D01*
X79789270Y-112213918D01*
X79972413Y-112356464D01*
X79972419Y-112356468D01*
X79972422Y-112356470D01*
X80176545Y-112466936D01*
X80290535Y-112506068D01*
X80396063Y-112542297D01*
X80396065Y-112542297D01*
X80396067Y-112542298D01*
X80624999Y-112580500D01*
X80625000Y-112580500D01*
X80857096Y-112580500D01*
X80857097Y-112580500D01*
X81086029Y-112542298D01*
X81305551Y-112466936D01*
X81509674Y-112356470D01*
X81692832Y-112213913D01*
X81850027Y-112043153D01*
X81976972Y-111848849D01*
X82070205Y-111636300D01*
X82127182Y-111411305D01*
X82127183Y-111411297D01*
X82146348Y-111180006D01*
X82146348Y-111179993D01*
X82127183Y-110948702D01*
X82127181Y-110948691D01*
X82070205Y-110723699D01*
X81976972Y-110511151D01*
X81850031Y-110316852D01*
X81850028Y-110316849D01*
X81850027Y-110316847D01*
X81692832Y-110146087D01*
X81523985Y-110014668D01*
X81483173Y-109957959D01*
X81476148Y-109916816D01*
X81476148Y-98558998D01*
X81495833Y-98491959D01*
X81523986Y-98461144D01*
X81619470Y-98386826D01*
X82540174Y-98386826D01*
X82613160Y-98437931D01*
X82613164Y-98437933D01*
X82819321Y-98534065D01*
X82819330Y-98534069D01*
X83039037Y-98592939D01*
X83039048Y-98592941D01*
X83265646Y-98612766D01*
X83265650Y-98612766D01*
X83492247Y-98592941D01*
X83492258Y-98592939D01*
X83711965Y-98534069D01*
X83711979Y-98534064D01*
X83918126Y-98437936D01*
X83991120Y-98386825D01*
X83265649Y-97661353D01*
X83265648Y-97661353D01*
X82540174Y-98386825D01*
X82540174Y-98386826D01*
X81619470Y-98386826D01*
X81677432Y-98341713D01*
X81834627Y-98170953D01*
X81950812Y-97993118D01*
X82003956Y-97947763D01*
X82073187Y-97938339D01*
X82136523Y-97967841D01*
X82156194Y-97989818D01*
X82186620Y-98033271D01*
X82186622Y-98033272D01*
X82912094Y-97307800D01*
X82912094Y-97307799D01*
X82883935Y-97279640D01*
X82961753Y-97279640D01*
X82972102Y-97391321D01*
X83022096Y-97491722D01*
X83104982Y-97567284D01*
X83209568Y-97607800D01*
X83293450Y-97607800D01*
X83375898Y-97592388D01*
X83471258Y-97533343D01*
X83538849Y-97443838D01*
X83569543Y-97335960D01*
X83566934Y-97307800D01*
X83619201Y-97307800D01*
X84344673Y-98033272D01*
X84395784Y-97960278D01*
X84491912Y-97754131D01*
X84491917Y-97754117D01*
X84550787Y-97534410D01*
X84550789Y-97534399D01*
X84570614Y-97307802D01*
X84570614Y-97307797D01*
X84550789Y-97081200D01*
X84550787Y-97081189D01*
X84491917Y-96861482D01*
X84491913Y-96861473D01*
X84395781Y-96655316D01*
X84395779Y-96655312D01*
X84344674Y-96582326D01*
X84344673Y-96582326D01*
X83619201Y-97307799D01*
X83619201Y-97307800D01*
X83566934Y-97307800D01*
X83559194Y-97224279D01*
X83509200Y-97123878D01*
X83426314Y-97048316D01*
X83321728Y-97007800D01*
X83237846Y-97007800D01*
X83155398Y-97023212D01*
X83060038Y-97082257D01*
X82992447Y-97171762D01*
X82961753Y-97279640D01*
X82883935Y-97279640D01*
X82186621Y-96582326D01*
X82186621Y-96582327D01*
X82156194Y-96625781D01*
X82101616Y-96669406D01*
X82032118Y-96676598D01*
X81969763Y-96645076D01*
X81950810Y-96622478D01*
X81834631Y-96444652D01*
X81834628Y-96444649D01*
X81834627Y-96444647D01*
X81677432Y-96273887D01*
X81677427Y-96273883D01*
X81677425Y-96273881D01*
X81619470Y-96228773D01*
X82540174Y-96228773D01*
X83265648Y-96954246D01*
X83265649Y-96954246D01*
X83991120Y-96228774D01*
X83991119Y-96228773D01*
X83918131Y-96177666D01*
X83918129Y-96177665D01*
X83711974Y-96081534D01*
X83711965Y-96081530D01*
X83492258Y-96022660D01*
X83492247Y-96022658D01*
X83265650Y-96002834D01*
X83265646Y-96002834D01*
X83039048Y-96022658D01*
X83039037Y-96022660D01*
X82819330Y-96081530D01*
X82819321Y-96081534D01*
X82613161Y-96177668D01*
X82540175Y-96228772D01*
X82540174Y-96228773D01*
X81619470Y-96228773D01*
X81494282Y-96131335D01*
X81494276Y-96131331D01*
X81290152Y-96020864D01*
X81290143Y-96020861D01*
X81070632Y-95945502D01*
X80898930Y-95916850D01*
X80841697Y-95907300D01*
X80609599Y-95907300D01*
X80563812Y-95914940D01*
X80380663Y-95945502D01*
X80161152Y-96020861D01*
X80161143Y-96020864D01*
X79957019Y-96131331D01*
X79957013Y-96131335D01*
X79773870Y-96273881D01*
X79773867Y-96273884D01*
X79616664Y-96444652D01*
X79559457Y-96532216D01*
X79506310Y-96577573D01*
X79437079Y-96586997D01*
X79373743Y-96557495D01*
X79351839Y-96532216D01*
X79294631Y-96444652D01*
X79294628Y-96444649D01*
X79294627Y-96444647D01*
X79137432Y-96273887D01*
X79137427Y-96273883D01*
X79137425Y-96273881D01*
X78954282Y-96131335D01*
X78954276Y-96131331D01*
X78750152Y-96020864D01*
X78750143Y-96020861D01*
X78530632Y-95945502D01*
X78372894Y-95919180D01*
X78310009Y-95888729D01*
X78273569Y-95829114D01*
X78275145Y-95759262D01*
X78305620Y-95709194D01*
X79431886Y-94582927D01*
X79445515Y-94571150D01*
X79464778Y-94556810D01*
X79464780Y-94556806D01*
X79464782Y-94556806D01*
X79488416Y-94528639D01*
X79498361Y-94516785D01*
X79502015Y-94512799D01*
X79507838Y-94506977D01*
X79527624Y-94481950D01*
X79528742Y-94480578D01*
X79577550Y-94422414D01*
X79577551Y-94422411D01*
X79581520Y-94416379D01*
X79581571Y-94416412D01*
X79585617Y-94410060D01*
X79585565Y-94410028D01*
X79589357Y-94403879D01*
X79589359Y-94403877D01*
X79621443Y-94335069D01*
X79622206Y-94333492D01*
X79656288Y-94265633D01*
X79656291Y-94265617D01*
X79658758Y-94258844D01*
X79658816Y-94258865D01*
X79661291Y-94251746D01*
X79661233Y-94251727D01*
X79663503Y-94244877D01*
X79663977Y-94242580D01*
X79678856Y-94170519D01*
X79679238Y-94168796D01*
X79681446Y-94159484D01*
X79696748Y-94094921D01*
X79696748Y-94094920D01*
X79696749Y-94094916D01*
X79697587Y-94087748D01*
X79697645Y-94087754D01*
X79698412Y-94080256D01*
X79698352Y-94080251D01*
X79698981Y-94073060D01*
X79698945Y-94071839D01*
X79697725Y-94029883D01*
X79696774Y-93997188D01*
X79696748Y-93995385D01*
X79696748Y-85941200D01*
X83963648Y-85941200D01*
X83963648Y-86089044D01*
X83970049Y-86148572D01*
X83970051Y-86148579D01*
X84020293Y-86283286D01*
X84020297Y-86283293D01*
X84106457Y-86398387D01*
X84106460Y-86398390D01*
X84221554Y-86484550D01*
X84221561Y-86484554D01*
X84356268Y-86534796D01*
X84356275Y-86534798D01*
X84415803Y-86541199D01*
X84415820Y-86541200D01*
X84468648Y-86541200D01*
X84468648Y-85941200D01*
X83963648Y-85941200D01*
X79696748Y-85941200D01*
X79696748Y-85912580D01*
X79716433Y-85845541D01*
X79722372Y-85837094D01*
X79724530Y-85834282D01*
X79820784Y-85708841D01*
X79820786Y-85708834D01*
X79823756Y-85703694D01*
X79874326Y-85655481D01*
X79931140Y-85641700D01*
X84689148Y-85641700D01*
X84756187Y-85661385D01*
G37*
%TD.AperFunction*%
%TA.AperFunction,Conductor*%
G36*
X100137151Y-91223896D02*
G01*
X100168498Y-91270879D01*
X100169982Y-91270188D01*
X100176084Y-91283274D01*
X100176030Y-91283298D01*
X100179318Y-91290088D01*
X100179369Y-91290063D01*
X100182609Y-91296513D01*
X100182610Y-91296514D01*
X100182611Y-91296517D01*
X100224342Y-91359967D01*
X100225291Y-91361458D01*
X100264224Y-91424578D01*
X100265137Y-91426057D01*
X100269614Y-91431719D01*
X100269567Y-91431756D01*
X100274330Y-91437602D01*
X100274376Y-91437564D01*
X100279021Y-91443099D01*
X100334212Y-91495169D01*
X100335506Y-91496426D01*
X105133515Y-96294434D01*
X105145296Y-96308066D01*
X105159638Y-96327330D01*
X105199668Y-96360919D01*
X105203640Y-96364559D01*
X105206560Y-96367479D01*
X105209469Y-96370389D01*
X105234498Y-96390179D01*
X105235894Y-96391317D01*
X105294034Y-96440102D01*
X105294035Y-96440102D01*
X105294037Y-96440104D01*
X105300066Y-96444070D01*
X105300033Y-96444119D01*
X105306395Y-96448172D01*
X105306427Y-96448121D01*
X105312567Y-96451908D01*
X105312571Y-96451911D01*
X105350526Y-96469609D01*
X105381385Y-96484000D01*
X105383008Y-96484786D01*
X105450810Y-96518838D01*
X105457605Y-96521311D01*
X105457584Y-96521367D01*
X105464703Y-96523842D01*
X105464722Y-96523786D01*
X105471572Y-96526055D01*
X105471575Y-96526057D01*
X105545957Y-96541414D01*
X105547666Y-96541794D01*
X105571617Y-96547470D01*
X105621521Y-96559299D01*
X105621524Y-96559299D01*
X105621527Y-96559300D01*
X105621530Y-96559300D01*
X105628700Y-96560138D01*
X105628692Y-96560197D01*
X105636193Y-96560964D01*
X105636199Y-96560905D01*
X105643388Y-96561534D01*
X105643392Y-96561533D01*
X105643393Y-96561534D01*
X105671478Y-96560716D01*
X105719281Y-96559326D01*
X105721084Y-96559300D01*
X112251548Y-96559300D01*
X112318587Y-96578985D01*
X112327028Y-96584919D01*
X112346207Y-96599636D01*
X112492286Y-96660144D01*
X112609687Y-96675600D01*
X114658408Y-96675599D01*
X114658411Y-96675599D01*
X114775801Y-96660146D01*
X114775805Y-96660144D01*
X114775810Y-96660144D01*
X114921889Y-96599636D01*
X115047330Y-96503382D01*
X115143584Y-96377941D01*
X115204092Y-96231862D01*
X115219548Y-96114461D01*
X115219547Y-95503140D01*
X115219547Y-95503139D01*
X115219547Y-95503136D01*
X115204094Y-95385746D01*
X115204092Y-95385741D01*
X115204092Y-95385738D01*
X115143584Y-95239659D01*
X115082449Y-95159987D01*
X115057257Y-95094821D01*
X115064645Y-95041169D01*
X115112645Y-94912476D01*
X115112646Y-94912472D01*
X115119047Y-94852944D01*
X115119048Y-94852927D01*
X115119048Y-94788800D01*
X112149048Y-94788800D01*
X112149048Y-94852944D01*
X112156279Y-94920187D01*
X112153089Y-94920529D01*
X112150105Y-94975619D01*
X112109207Y-95032268D01*
X112044174Y-95057813D01*
X112033192Y-95058300D01*
X111741459Y-95058300D01*
X111674420Y-95038615D01*
X111628665Y-94985811D01*
X111617743Y-94925911D01*
X111620548Y-94884554D01*
X111620548Y-94142905D01*
X111640233Y-94075866D01*
X111693037Y-94030111D01*
X111762195Y-94020167D01*
X111796614Y-94030367D01*
X111807772Y-94035529D01*
X111809241Y-94036234D01*
X111881027Y-94071836D01*
X111881030Y-94071836D01*
X111881035Y-94071839D01*
X111882175Y-94072258D01*
X111901824Y-94079176D01*
X111902883Y-94079533D01*
X111930449Y-94085600D01*
X111981193Y-94096769D01*
X111982789Y-94097143D01*
X112054978Y-94115097D01*
X112115281Y-94150378D01*
X112146940Y-94212663D01*
X112149048Y-94235430D01*
X112149048Y-94288800D01*
X115119048Y-94288800D01*
X115131783Y-94276065D01*
X115193106Y-94242580D01*
X115262798Y-94247564D01*
X115307145Y-94276065D01*
X115773780Y-94742701D01*
X115807265Y-94804024D01*
X115810099Y-94830382D01*
X115810100Y-99205046D01*
X115808791Y-99223015D01*
X115805310Y-99246777D01*
X115809864Y-99298816D01*
X115810100Y-99304222D01*
X115810100Y-99312464D01*
X115813802Y-99344143D01*
X115813986Y-99345937D01*
X115820600Y-99421544D01*
X115822061Y-99428619D01*
X115822003Y-99428630D01*
X115823634Y-99435989D01*
X115823692Y-99435976D01*
X115825357Y-99443001D01*
X115825358Y-99443006D01*
X115825359Y-99443007D01*
X115831071Y-99458702D01*
X115851308Y-99514303D01*
X115851899Y-99516005D01*
X115875782Y-99588078D01*
X115878836Y-99594626D01*
X115878782Y-99594650D01*
X115882070Y-99601440D01*
X115882121Y-99601415D01*
X115885361Y-99607865D01*
X115885362Y-99607866D01*
X115885363Y-99607869D01*
X115927094Y-99671319D01*
X115928043Y-99672810D01*
X115967889Y-99737409D01*
X115972366Y-99743071D01*
X115972319Y-99743108D01*
X115977082Y-99748954D01*
X115977128Y-99748916D01*
X115981773Y-99754452D01*
X116036966Y-99806523D01*
X116038260Y-99807780D01*
X116406115Y-100175634D01*
X116417897Y-100189267D01*
X116432238Y-100208530D01*
X116472270Y-100242122D01*
X116476243Y-100245763D01*
X116482067Y-100251587D01*
X116507098Y-100271379D01*
X116508494Y-100272517D01*
X116566634Y-100321302D01*
X116566635Y-100321302D01*
X116566637Y-100321304D01*
X116572666Y-100325270D01*
X116572633Y-100325319D01*
X116578991Y-100329369D01*
X116579023Y-100329319D01*
X116585165Y-100333107D01*
X116585167Y-100333108D01*
X116585171Y-100333111D01*
X116653980Y-100365197D01*
X116655602Y-100365983D01*
X116723415Y-100400040D01*
X116723417Y-100400040D01*
X116730209Y-100402513D01*
X116730188Y-100402570D01*
X116737303Y-100405043D01*
X116737323Y-100404986D01*
X116744172Y-100407256D01*
X116744175Y-100407256D01*
X116744176Y-100407257D01*
X116818553Y-100422613D01*
X116820262Y-100422993D01*
X116844263Y-100428681D01*
X116894121Y-100440499D01*
X116894124Y-100440499D01*
X116894127Y-100440500D01*
X116894130Y-100440500D01*
X116901300Y-100441338D01*
X116901292Y-100441397D01*
X116908793Y-100442164D01*
X116908799Y-100442105D01*
X116915988Y-100442734D01*
X116915992Y-100442733D01*
X116915993Y-100442734D01*
X116944078Y-100441916D01*
X116991881Y-100440526D01*
X116993684Y-100440500D01*
X128310163Y-100440500D01*
X128377202Y-100460185D01*
X128413971Y-100496678D01*
X128450863Y-100553145D01*
X128450865Y-100553147D01*
X128450869Y-100553153D01*
X128608064Y-100723913D01*
X128608067Y-100723915D01*
X128608070Y-100723918D01*
X128791213Y-100866464D01*
X128791219Y-100866468D01*
X128791222Y-100866470D01*
X128995345Y-100976936D01*
X129109335Y-101016068D01*
X129214863Y-101052297D01*
X129214865Y-101052297D01*
X129214867Y-101052298D01*
X129443799Y-101090500D01*
X129443800Y-101090500D01*
X129675896Y-101090500D01*
X129675897Y-101090500D01*
X129904829Y-101052298D01*
X130124351Y-100976936D01*
X130328474Y-100866470D01*
X130511632Y-100723913D01*
X130668827Y-100553153D01*
X130795772Y-100358849D01*
X130889005Y-100146300D01*
X130945982Y-99921305D01*
X130946947Y-99909661D01*
X130965148Y-99690006D01*
X130965148Y-99689993D01*
X130945983Y-99458702D01*
X130945981Y-99458691D01*
X130889005Y-99233699D01*
X130795772Y-99021151D01*
X130668831Y-98826852D01*
X130668828Y-98826849D01*
X130668827Y-98826847D01*
X130511632Y-98656087D01*
X130334028Y-98517853D01*
X130293216Y-98461143D01*
X130289541Y-98391370D01*
X130324172Y-98330687D01*
X130334029Y-98322146D01*
X130511632Y-98183913D01*
X130668827Y-98013153D01*
X130795772Y-97818849D01*
X130889005Y-97606300D01*
X130945982Y-97381305D01*
X130945983Y-97381297D01*
X130965148Y-97150006D01*
X130965148Y-97149993D01*
X130945983Y-96918702D01*
X130945981Y-96918691D01*
X130889005Y-96693699D01*
X130795772Y-96481151D01*
X130668831Y-96286852D01*
X130668828Y-96286849D01*
X130668827Y-96286847D01*
X130511632Y-96116087D01*
X130511627Y-96116083D01*
X130511625Y-96116081D01*
X130328482Y-95973535D01*
X130328476Y-95973531D01*
X130124352Y-95863064D01*
X130124343Y-95863061D01*
X129904832Y-95787702D01*
X129733129Y-95759050D01*
X129675897Y-95749500D01*
X129443799Y-95749500D01*
X129315574Y-95770896D01*
X129246209Y-95762514D01*
X129207484Y-95736268D01*
X128819777Y-95348561D01*
X128807997Y-95334930D01*
X128800530Y-95324901D01*
X128793660Y-95315672D01*
X128793658Y-95315670D01*
X128753635Y-95282086D01*
X128749660Y-95278444D01*
X128746738Y-95275522D01*
X128743827Y-95272610D01*
X128718784Y-95252809D01*
X128717386Y-95251670D01*
X128659262Y-95202898D01*
X128653228Y-95198929D01*
X128653260Y-95198880D01*
X128646901Y-95194828D01*
X128646870Y-95194879D01*
X128640728Y-95191091D01*
X128640726Y-95191090D01*
X128640725Y-95191089D01*
X128571920Y-95159004D01*
X128570300Y-95158219D01*
X128530560Y-95138261D01*
X128502481Y-95124160D01*
X128502479Y-95124159D01*
X128502478Y-95124159D01*
X128495693Y-95121689D01*
X128495713Y-95121633D01*
X128488597Y-95119159D01*
X128488579Y-95119215D01*
X128481722Y-95116943D01*
X128407376Y-95101591D01*
X128405617Y-95101201D01*
X128331766Y-95083699D01*
X128324595Y-95082861D01*
X128324601Y-95082801D01*
X128317103Y-95082035D01*
X128317098Y-95082095D01*
X128309908Y-95081465D01*
X128234016Y-95083674D01*
X128232213Y-95083700D01*
X120257046Y-95083700D01*
X120190007Y-95064015D01*
X120144252Y-95011211D01*
X120134107Y-94943515D01*
X120147148Y-94844461D01*
X120147147Y-94233140D01*
X120144451Y-94212663D01*
X120137451Y-94159484D01*
X120148217Y-94090449D01*
X120194598Y-94038194D01*
X120260390Y-94019300D01*
X123564510Y-94019300D01*
X123582480Y-94020609D01*
X123606238Y-94024089D01*
X123658283Y-94019535D01*
X123663685Y-94019300D01*
X123671919Y-94019300D01*
X123671924Y-94019300D01*
X123703673Y-94015588D01*
X123705290Y-94015422D01*
X123781012Y-94008799D01*
X123781020Y-94008796D01*
X123788081Y-94007339D01*
X123788093Y-94007398D01*
X123795458Y-94005765D01*
X123795444Y-94005706D01*
X123802466Y-94004041D01*
X123802470Y-94004041D01*
X123873802Y-93978077D01*
X123875501Y-93977488D01*
X123947549Y-93953614D01*
X123947557Y-93953608D01*
X123954097Y-93950560D01*
X123954123Y-93950616D01*
X123960905Y-93947332D01*
X123960878Y-93947278D01*
X123967324Y-93944039D01*
X123967332Y-93944037D01*
X124030827Y-93902275D01*
X124032192Y-93901405D01*
X124096871Y-93861512D01*
X124096876Y-93861506D01*
X124102540Y-93857029D01*
X124102578Y-93857077D01*
X124108415Y-93852322D01*
X124108376Y-93852275D01*
X124113906Y-93847633D01*
X124113911Y-93847630D01*
X124166014Y-93792402D01*
X124167207Y-93791174D01*
X126533805Y-91424576D01*
X126595126Y-91391093D01*
X126664818Y-91396077D01*
X126720751Y-91437949D01*
X126742701Y-91486134D01*
X126769295Y-91609529D01*
X126804798Y-91697882D01*
X126858185Y-91830738D01*
X126975823Y-92021795D01*
X126983181Y-92033744D01*
X127130168Y-92200754D01*
X127140685Y-92212703D01*
X127326169Y-92362471D01*
X127534295Y-92478738D01*
X127695799Y-92535801D01*
X127759078Y-92558159D01*
X127994039Y-92598447D01*
X127994047Y-92598447D01*
X127994049Y-92598448D01*
X127994050Y-92598448D01*
X128572734Y-92598448D01*
X128572746Y-92598448D01*
X128588696Y-92597090D01*
X128657159Y-92611014D01*
X128686891Y-92632958D01*
X132193284Y-96139350D01*
X135731973Y-99678039D01*
X135743754Y-99691671D01*
X135758096Y-99710935D01*
X135798126Y-99744524D01*
X135802098Y-99748164D01*
X135805018Y-99751084D01*
X135807927Y-99753994D01*
X135832956Y-99773784D01*
X135834352Y-99774922D01*
X135892492Y-99823707D01*
X135892493Y-99823707D01*
X135892495Y-99823709D01*
X135898524Y-99827675D01*
X135898491Y-99827724D01*
X135904849Y-99831774D01*
X135904881Y-99831724D01*
X135911023Y-99835512D01*
X135911025Y-99835513D01*
X135911029Y-99835516D01*
X135979838Y-99867602D01*
X135981460Y-99868388D01*
X136049273Y-99902445D01*
X136049275Y-99902445D01*
X136056067Y-99904918D01*
X136056046Y-99904975D01*
X136063161Y-99907448D01*
X136063181Y-99907391D01*
X136070030Y-99909661D01*
X136070033Y-99909661D01*
X136070034Y-99909662D01*
X136144411Y-99925018D01*
X136146120Y-99925398D01*
X136170121Y-99931086D01*
X136219979Y-99942904D01*
X136219982Y-99942904D01*
X136219985Y-99942905D01*
X136219988Y-99942905D01*
X136227158Y-99943743D01*
X136227150Y-99943802D01*
X136234651Y-99944569D01*
X136234657Y-99944510D01*
X136241846Y-99945139D01*
X136241850Y-99945138D01*
X136241851Y-99945139D01*
X136269936Y-99944321D01*
X136317739Y-99942931D01*
X136319542Y-99942905D01*
X137937780Y-99942905D01*
X138004819Y-99962590D01*
X138050574Y-100015394D01*
X138060518Y-100084552D01*
X138056345Y-100103215D01*
X138030905Y-100186283D01*
X138000624Y-100422751D01*
X138010741Y-100660933D01*
X138010741Y-100660937D01*
X138060967Y-100893985D01*
X138149857Y-101115193D01*
X138149858Y-101115195D01*
X138274853Y-101318200D01*
X138432358Y-101497160D01*
X138617842Y-101646928D01*
X138617857Y-101646936D01*
X138617864Y-101646943D01*
X138622213Y-101649883D01*
X138621615Y-101650767D01*
X138666783Y-101696816D01*
X138680975Y-101765229D01*
X138655927Y-101830455D01*
X138626819Y-101857925D01*
X138521929Y-101928818D01*
X138521919Y-101928826D01*
X138349803Y-102093784D01*
X138208045Y-102285455D01*
X138208042Y-102285459D01*
X138100718Y-102498325D01*
X138100715Y-102498331D01*
X138030905Y-102726283D01*
X138000624Y-102962751D01*
X138010741Y-103200933D01*
X138010741Y-103200937D01*
X138060967Y-103433985D01*
X138138154Y-103626070D01*
X138149858Y-103655195D01*
X138274853Y-103858200D01*
X138432358Y-104037160D01*
X138617842Y-104186928D01*
X138617857Y-104186936D01*
X138617864Y-104186943D01*
X138622213Y-104189883D01*
X138621615Y-104190767D01*
X138666783Y-104236816D01*
X138680975Y-104305229D01*
X138655927Y-104370455D01*
X138626819Y-104397925D01*
X138521929Y-104468818D01*
X138521919Y-104468826D01*
X138349803Y-104633784D01*
X138208045Y-104825455D01*
X138208042Y-104825459D01*
X138100718Y-105038325D01*
X138100715Y-105038331D01*
X138030905Y-105266283D01*
X138000624Y-105502751D01*
X138010741Y-105740933D01*
X138010741Y-105740937D01*
X138060967Y-105973985D01*
X138111996Y-106100973D01*
X138149858Y-106195195D01*
X138274853Y-106398200D01*
X138432358Y-106577160D01*
X138617842Y-106726928D01*
X138617857Y-106726936D01*
X138617864Y-106726943D01*
X138622213Y-106729883D01*
X138621615Y-106730767D01*
X138666783Y-106776816D01*
X138680975Y-106845229D01*
X138655927Y-106910455D01*
X138626819Y-106937925D01*
X138521929Y-107008818D01*
X138521919Y-107008826D01*
X138349803Y-107173784D01*
X138208045Y-107365455D01*
X138208042Y-107365459D01*
X138100718Y-107578325D01*
X138100715Y-107578331D01*
X138030905Y-107806283D01*
X138000624Y-108042751D01*
X138010741Y-108280933D01*
X138010741Y-108280937D01*
X138060967Y-108513985D01*
X138119923Y-108660700D01*
X138149858Y-108735195D01*
X138274853Y-108938200D01*
X138432358Y-109117160D01*
X138617842Y-109266928D01*
X138617857Y-109266936D01*
X138617864Y-109266943D01*
X138622213Y-109269883D01*
X138621615Y-109270767D01*
X138666783Y-109316816D01*
X138680975Y-109385229D01*
X138655927Y-109450455D01*
X138626819Y-109477925D01*
X138521929Y-109548818D01*
X138521919Y-109548826D01*
X138349803Y-109713784D01*
X138208045Y-109905455D01*
X138208042Y-109905459D01*
X138100718Y-110118325D01*
X138100715Y-110118331D01*
X138030905Y-110346283D01*
X138000624Y-110582751D01*
X138010741Y-110820933D01*
X138010741Y-110820937D01*
X138060967Y-111053985D01*
X138149857Y-111275193D01*
X138149858Y-111275195D01*
X138274853Y-111478200D01*
X138432358Y-111657160D01*
X138617842Y-111806928D01*
X138617857Y-111806936D01*
X138617864Y-111806943D01*
X138622213Y-111809883D01*
X138621615Y-111810767D01*
X138666783Y-111856816D01*
X138680975Y-111925229D01*
X138655927Y-111990455D01*
X138626819Y-112017925D01*
X138521929Y-112088818D01*
X138521919Y-112088826D01*
X138349805Y-112253782D01*
X138329201Y-112281641D01*
X138273510Y-112323835D01*
X138229506Y-112331905D01*
X108409930Y-112331905D01*
X108342891Y-112312220D01*
X108322249Y-112295586D01*
X106448318Y-110421655D01*
X104568481Y-108541818D01*
X104565078Y-108538126D01*
X104533314Y-108500731D01*
X104529211Y-108495900D01*
X104465428Y-108447413D01*
X104464162Y-108446424D01*
X104401628Y-108396158D01*
X104400728Y-108395583D01*
X104382893Y-108384520D01*
X104381938Y-108383946D01*
X104344629Y-108366685D01*
X104309169Y-108350279D01*
X104307683Y-108349566D01*
X104235894Y-108313963D01*
X104234855Y-108313582D01*
X104215034Y-108306602D01*
X104214039Y-108306267D01*
X104135788Y-108289042D01*
X104134153Y-108288659D01*
X104056363Y-108269314D01*
X104055458Y-108269191D01*
X104034380Y-108266610D01*
X104033375Y-108266501D01*
X104033371Y-108266500D01*
X104033366Y-108266500D01*
X103953262Y-108266500D01*
X103951583Y-108266477D01*
X103871438Y-108264306D01*
X103870394Y-108264391D01*
X103848226Y-108266500D01*
X103749766Y-108266500D01*
X103682727Y-108246815D01*
X103658539Y-108226485D01*
X103569055Y-108129280D01*
X103538135Y-108066628D01*
X103545995Y-107997202D01*
X103570997Y-107960015D01*
X103570932Y-107959960D01*
X103571448Y-107959344D01*
X103572614Y-107957611D01*
X103574409Y-107955815D01*
X103704881Y-107769482D01*
X103801013Y-107563326D01*
X103801017Y-107563317D01*
X103859887Y-107343610D01*
X103859889Y-107343599D01*
X103879714Y-107117002D01*
X103879714Y-107116997D01*
X103859889Y-106890400D01*
X103859887Y-106890389D01*
X103801017Y-106670682D01*
X103801013Y-106670673D01*
X103704881Y-106464516D01*
X103704879Y-106464512D01*
X103653773Y-106391526D01*
X102870094Y-107175205D01*
X102878643Y-107145160D01*
X102868294Y-107033479D01*
X102818300Y-106933078D01*
X102735414Y-106857516D01*
X102630828Y-106817000D01*
X102546946Y-106817000D01*
X102464498Y-106832412D01*
X102369138Y-106891457D01*
X102301547Y-106980962D01*
X102270853Y-107088840D01*
X102278800Y-107174606D01*
X101495721Y-106391527D01*
X101444616Y-106464513D01*
X101348482Y-106670673D01*
X101348478Y-106670682D01*
X101289608Y-106890389D01*
X101289606Y-106890400D01*
X101269782Y-107116997D01*
X101269782Y-107117002D01*
X101289606Y-107343599D01*
X101289608Y-107343610D01*
X101348478Y-107563317D01*
X101348482Y-107563326D01*
X101444613Y-107769482D01*
X101575090Y-107955820D01*
X101576888Y-107957618D01*
X101577428Y-107958608D01*
X101578568Y-107959966D01*
X101578295Y-107960194D01*
X101610373Y-108018941D01*
X101605389Y-108088633D01*
X101580438Y-108129281D01*
X101465764Y-108253852D01*
X101338823Y-108448151D01*
X101245590Y-108660699D01*
X101188614Y-108885691D01*
X101188612Y-108885702D01*
X101169448Y-109116993D01*
X101169448Y-109117006D01*
X101188612Y-109348297D01*
X101188614Y-109348308D01*
X101245590Y-109573300D01*
X101338823Y-109785848D01*
X101461477Y-109973585D01*
X101465769Y-109980153D01*
X101514435Y-110033019D01*
X101545356Y-110095673D01*
X101537495Y-110165099D01*
X101514436Y-110200980D01*
X101465771Y-110253845D01*
X101465763Y-110253854D01*
X101428871Y-110310322D01*
X101375725Y-110355678D01*
X101325063Y-110366500D01*
X99480598Y-110366500D01*
X99413559Y-110346815D01*
X99367804Y-110294011D01*
X99357860Y-110224853D01*
X99367042Y-110192690D01*
X99393005Y-110133500D01*
X99418451Y-110033016D01*
X99449982Y-109908505D01*
X99449983Y-109908497D01*
X99469148Y-109677206D01*
X99469148Y-109677193D01*
X99449983Y-109445908D01*
X99449982Y-109445895D01*
X99448394Y-109439624D01*
X99451014Y-109369807D01*
X99480914Y-109321500D01*
X99667090Y-109135324D01*
X99680719Y-109123547D01*
X99682561Y-109122176D01*
X99699978Y-109109210D01*
X99733549Y-109069201D01*
X99737209Y-109065206D01*
X99743036Y-109059380D01*
X99743036Y-109059379D01*
X99743039Y-109059377D01*
X99762828Y-109034347D01*
X99763957Y-109032962D01*
X99784608Y-109008351D01*
X99812750Y-108974814D01*
X99812753Y-108974807D01*
X99816722Y-108968775D01*
X99816773Y-108968808D01*
X99820820Y-108962456D01*
X99820768Y-108962424D01*
X99824559Y-108956277D01*
X99828091Y-108948702D01*
X99856674Y-108887404D01*
X99857400Y-108885905D01*
X99891488Y-108818033D01*
X99891491Y-108818017D01*
X99893957Y-108811246D01*
X99894015Y-108811267D01*
X99896491Y-108804146D01*
X99896434Y-108804127D01*
X99898704Y-108797277D01*
X99914057Y-108722916D01*
X99914439Y-108721191D01*
X99931948Y-108647321D01*
X99931948Y-108647319D01*
X99931949Y-108647315D01*
X99932787Y-108640148D01*
X99932845Y-108640154D01*
X99933612Y-108632656D01*
X99933552Y-108632651D01*
X99934181Y-108625460D01*
X99931974Y-108549588D01*
X99931948Y-108547785D01*
X99931948Y-106037973D01*
X101849274Y-106037973D01*
X102574748Y-106763446D01*
X102574749Y-106763446D01*
X103300220Y-106037974D01*
X103300219Y-106037973D01*
X103227231Y-105986866D01*
X103227229Y-105986865D01*
X103021074Y-105890734D01*
X103021065Y-105890730D01*
X102801358Y-105831860D01*
X102801347Y-105831858D01*
X102574750Y-105812034D01*
X102574746Y-105812034D01*
X102348148Y-105831858D01*
X102348137Y-105831860D01*
X102128430Y-105890730D01*
X102128421Y-105890734D01*
X101922261Y-105986868D01*
X101849275Y-106037972D01*
X101849274Y-106037973D01*
X99931948Y-106037973D01*
X99931948Y-102898685D01*
X119580488Y-102898685D01*
X119590503Y-103083406D01*
X119590503Y-103083411D01*
X119639992Y-103261656D01*
X119639995Y-103261662D01*
X119726646Y-103425102D01*
X119807608Y-103520418D01*
X119846411Y-103566100D01*
X119993684Y-103678054D01*
X120161581Y-103755732D01*
X120161582Y-103755732D01*
X120161584Y-103755733D01*
X120216396Y-103767797D01*
X120342251Y-103795500D01*
X120342254Y-103795500D01*
X120480855Y-103795500D01*
X120480861Y-103795500D01*
X120618658Y-103780514D01*
X120793969Y-103721444D01*
X120952484Y-103626070D01*
X121086789Y-103498849D01*
X121190606Y-103345730D01*
X121259079Y-103173875D01*
X121289008Y-102991317D01*
X121278993Y-102806593D01*
X121261069Y-102742036D01*
X121229503Y-102628343D01*
X121229500Y-102628337D01*
X121142849Y-102464897D01*
X121023085Y-102323900D01*
X121023084Y-102323900D01*
X120875812Y-102211946D01*
X120707915Y-102134268D01*
X120707911Y-102134266D01*
X120527245Y-102094500D01*
X120388635Y-102094500D01*
X120388631Y-102094500D01*
X120250836Y-102109486D01*
X120075524Y-102168557D01*
X120075522Y-102168558D01*
X119917010Y-102263931D01*
X119917009Y-102263932D01*
X119782707Y-102391149D01*
X119678886Y-102544276D01*
X119610417Y-102716122D01*
X119580488Y-102898685D01*
X99931948Y-102898685D01*
X99931948Y-91317609D01*
X99951633Y-91250570D01*
X100004437Y-91204815D01*
X100073595Y-91194871D01*
X100137151Y-91223896D01*
G37*
%TD.AperFunction*%
%TA.AperFunction,Conductor*%
G36*
X91440082Y-84916280D02*
G01*
X91496015Y-84958152D01*
X91520432Y-85023616D01*
X91520748Y-85032462D01*
X91520748Y-109832694D01*
X91519439Y-109850663D01*
X91515958Y-109874425D01*
X91520512Y-109926464D01*
X91520748Y-109931870D01*
X91520748Y-109940112D01*
X91524450Y-109971791D01*
X91524631Y-109973559D01*
X91525666Y-109985386D01*
X91531248Y-110049192D01*
X91532709Y-110056267D01*
X91532651Y-110056278D01*
X91534282Y-110063637D01*
X91534340Y-110063624D01*
X91536005Y-110070649D01*
X91536006Y-110070654D01*
X91536007Y-110070655D01*
X91545237Y-110096016D01*
X91561956Y-110141951D01*
X91562547Y-110143653D01*
X91582378Y-110203495D01*
X91584780Y-110273323D01*
X91549049Y-110333365D01*
X91486529Y-110364559D01*
X91464672Y-110366500D01*
X88876932Y-110366500D01*
X88809893Y-110346815D01*
X88773124Y-110310322D01*
X88738018Y-110256589D01*
X88736227Y-110253847D01*
X88687560Y-110200981D01*
X88656639Y-110138330D01*
X88664499Y-110068903D01*
X88687561Y-110033018D01*
X88736227Y-109980153D01*
X88863172Y-109785849D01*
X88956405Y-109573300D01*
X89013382Y-109348305D01*
X89014942Y-109329482D01*
X89032548Y-109117006D01*
X89032548Y-109116993D01*
X89013383Y-108885702D01*
X89013381Y-108885691D01*
X88956405Y-108660699D01*
X88863172Y-108448151D01*
X88736231Y-108253852D01*
X88736228Y-108253849D01*
X88736227Y-108253847D01*
X88621555Y-108129280D01*
X88590635Y-108066628D01*
X88598495Y-107997202D01*
X88623497Y-107960015D01*
X88623432Y-107959960D01*
X88623948Y-107959344D01*
X88625114Y-107957611D01*
X88626909Y-107955815D01*
X88757381Y-107769482D01*
X88853513Y-107563326D01*
X88853517Y-107563317D01*
X88912387Y-107343610D01*
X88912389Y-107343599D01*
X88932214Y-107117002D01*
X88932214Y-107116997D01*
X88912389Y-106890400D01*
X88912387Y-106890389D01*
X88853517Y-106670682D01*
X88853513Y-106670673D01*
X88757381Y-106464516D01*
X88757379Y-106464512D01*
X88706273Y-106391526D01*
X87922594Y-107175205D01*
X87931143Y-107145160D01*
X87920794Y-107033479D01*
X87870800Y-106933078D01*
X87787914Y-106857516D01*
X87683328Y-106817000D01*
X87599446Y-106817000D01*
X87516998Y-106832412D01*
X87421638Y-106891457D01*
X87354047Y-106980962D01*
X87323353Y-107088840D01*
X87331300Y-107174606D01*
X86536979Y-106380285D01*
X86510853Y-106375034D01*
X86460671Y-106326418D01*
X86444548Y-106265274D01*
X86444548Y-106037973D01*
X86901774Y-106037973D01*
X87627248Y-106763446D01*
X87627249Y-106763446D01*
X88352720Y-106037974D01*
X88352719Y-106037973D01*
X88279731Y-105986866D01*
X88279729Y-105986865D01*
X88073574Y-105890734D01*
X88073565Y-105890730D01*
X87853858Y-105831860D01*
X87853847Y-105831858D01*
X87627250Y-105812034D01*
X87627246Y-105812034D01*
X87400648Y-105831858D01*
X87400637Y-105831860D01*
X87180930Y-105890730D01*
X87180921Y-105890734D01*
X86974761Y-105986868D01*
X86901775Y-106037972D01*
X86901774Y-106037973D01*
X86444548Y-106037973D01*
X86444548Y-105975429D01*
X86464233Y-105908390D01*
X86480862Y-105887753D01*
X89309290Y-103059324D01*
X89322919Y-103047547D01*
X89324354Y-103046479D01*
X89342178Y-103033210D01*
X89375749Y-102993201D01*
X89379409Y-102989206D01*
X89385236Y-102983380D01*
X89385236Y-102983379D01*
X89385239Y-102983377D01*
X89405028Y-102958347D01*
X89406157Y-102956962D01*
X89416643Y-102944465D01*
X89454950Y-102898814D01*
X89454953Y-102898807D01*
X89458922Y-102892775D01*
X89458973Y-102892808D01*
X89463020Y-102886456D01*
X89462968Y-102886424D01*
X89466759Y-102880277D01*
X89474980Y-102862646D01*
X89498874Y-102811404D01*
X89499600Y-102809905D01*
X89533688Y-102742033D01*
X89533691Y-102742017D01*
X89536157Y-102735246D01*
X89536215Y-102735267D01*
X89538691Y-102728146D01*
X89538634Y-102728128D01*
X89540904Y-102721277D01*
X89541968Y-102716125D01*
X89556274Y-102646834D01*
X89556624Y-102645255D01*
X89574148Y-102571321D01*
X89574148Y-102571312D01*
X89574986Y-102564148D01*
X89575046Y-102564155D01*
X89575812Y-102556655D01*
X89575753Y-102556650D01*
X89576382Y-102549460D01*
X89574174Y-102473567D01*
X89574148Y-102471764D01*
X89574148Y-86731062D01*
X89593833Y-86664023D01*
X89610462Y-86643386D01*
X91309067Y-84944780D01*
X91370390Y-84911296D01*
X91440082Y-84916280D01*
G37*
%TD.AperFunction*%
%TA.AperFunction,Conductor*%
G36*
X98350281Y-80023847D02*
G01*
X98406214Y-80065719D01*
X98430631Y-80131183D01*
X98430947Y-80140029D01*
X98430947Y-108172186D01*
X98411262Y-108239225D01*
X98358458Y-108284980D01*
X98289300Y-108294924D01*
X98286538Y-108294495D01*
X98179897Y-108276700D01*
X97947799Y-108276700D01*
X97902012Y-108284340D01*
X97718863Y-108314902D01*
X97499352Y-108390261D01*
X97499343Y-108390264D01*
X97295219Y-108500731D01*
X97295213Y-108500735D01*
X97112070Y-108643281D01*
X97112067Y-108643284D01*
X97112064Y-108643286D01*
X97112064Y-108643287D01*
X97096035Y-108660699D01*
X96954864Y-108814052D01*
X96827923Y-109008351D01*
X96734690Y-109220899D01*
X96677714Y-109445891D01*
X96677712Y-109445902D01*
X96658548Y-109677193D01*
X96658548Y-109677206D01*
X96677712Y-109908497D01*
X96677714Y-109908508D01*
X96734690Y-110133500D01*
X96760654Y-110192690D01*
X96769557Y-110261990D01*
X96739580Y-110325102D01*
X96680241Y-110361989D01*
X96647098Y-110366500D01*
X93854078Y-110366500D01*
X93787039Y-110346815D01*
X93766397Y-110330181D01*
X93058067Y-109621851D01*
X93024582Y-109560528D01*
X93021748Y-109534170D01*
X93021748Y-89892619D01*
X93041433Y-89825580D01*
X93094237Y-89779825D01*
X93163395Y-89769881D01*
X93177841Y-89772844D01*
X93294638Y-89804139D01*
X93294648Y-89804141D01*
X93464481Y-89818999D01*
X93464484Y-89819000D01*
X93521248Y-89819000D01*
X93521248Y-88954501D01*
X93628933Y-89003680D01*
X93735485Y-89019000D01*
X93807011Y-89019000D01*
X93913563Y-89003680D01*
X94021248Y-88954501D01*
X94021248Y-89819000D01*
X94078012Y-89819000D01*
X94078014Y-89818999D01*
X94247847Y-89804141D01*
X94247858Y-89804139D01*
X94467565Y-89745269D01*
X94467574Y-89745265D01*
X94673730Y-89649134D01*
X94860068Y-89518657D01*
X95020905Y-89357820D01*
X95151382Y-89171482D01*
X95247513Y-88965326D01*
X95247517Y-88965317D01*
X95300120Y-88769000D01*
X94204934Y-88769000D01*
X94230741Y-88728844D01*
X94271248Y-88590889D01*
X94271248Y-88447111D01*
X94230741Y-88309156D01*
X94204934Y-88269000D01*
X95300120Y-88269000D01*
X95300120Y-88268999D01*
X95247517Y-88072682D01*
X95247513Y-88072673D01*
X95151382Y-87866517D01*
X95020905Y-87680179D01*
X94860068Y-87519342D01*
X94704751Y-87410587D01*
X94661126Y-87356009D01*
X94653934Y-87286511D01*
X94685456Y-87224156D01*
X94706438Y-87206277D01*
X94904241Y-87072586D01*
X94904242Y-87072584D01*
X94904251Y-87072579D01*
X95076366Y-86907621D01*
X95218127Y-86715947D01*
X95325455Y-86503074D01*
X95395264Y-86275123D01*
X95425546Y-86038654D01*
X95424300Y-86009333D01*
X95415428Y-85800471D01*
X95415428Y-85800467D01*
X95365202Y-85567419D01*
X95355956Y-85544409D01*
X95276312Y-85346210D01*
X95151317Y-85143205D01*
X94993812Y-84964245D01*
X94808328Y-84814477D01*
X94808322Y-84814474D01*
X94808319Y-84814471D01*
X94808305Y-84814463D01*
X94808299Y-84814457D01*
X94803957Y-84811522D01*
X94804554Y-84810638D01*
X94759382Y-84764580D01*
X94745195Y-84696165D01*
X94770247Y-84630942D01*
X94799347Y-84603481D01*
X94904251Y-84532579D01*
X95076366Y-84367621D01*
X95218127Y-84175947D01*
X95325455Y-83963074D01*
X95395264Y-83735123D01*
X95425546Y-83498654D01*
X95424809Y-83481315D01*
X95415428Y-83260471D01*
X95415428Y-83260467D01*
X95383858Y-83113985D01*
X95365202Y-83027419D01*
X95365200Y-83027413D01*
X95361055Y-83017097D01*
X95354324Y-82947552D01*
X95386260Y-82885408D01*
X95388391Y-82883223D01*
X98219268Y-80052346D01*
X98280589Y-80018863D01*
X98350281Y-80023847D01*
G37*
%TD.AperFunction*%
%TA.AperFunction,Conductor*%
G36*
X72855605Y-107153641D02*
G01*
X72855381Y-107156771D01*
X72854985Y-107152507D01*
X72855605Y-107153641D01*
G37*
%TD.AperFunction*%
%TA.AperFunction,Conductor*%
G36*
X72766651Y-73238330D02*
G01*
X72793328Y-73267600D01*
X72850263Y-73354745D01*
X72850265Y-73354747D01*
X72850269Y-73354753D01*
X73007464Y-73525513D01*
X73007467Y-73525515D01*
X73007470Y-73525518D01*
X73190613Y-73668064D01*
X73190619Y-73668068D01*
X73190622Y-73668070D01*
X73394745Y-73778536D01*
X73450067Y-73797528D01*
X73614263Y-73853897D01*
X73614265Y-73853897D01*
X73614267Y-73853898D01*
X73843199Y-73892100D01*
X73843200Y-73892100D01*
X74075295Y-73892100D01*
X74075297Y-73892100D01*
X74203522Y-73870702D01*
X74272883Y-73879083D01*
X74311610Y-73905330D01*
X82077260Y-81670980D01*
X82110745Y-81732303D01*
X82105761Y-81801995D01*
X82063889Y-81857928D01*
X81998425Y-81882345D01*
X81969170Y-81880970D01*
X81847697Y-81860700D01*
X81615599Y-81860700D01*
X81569812Y-81868340D01*
X81386663Y-81898902D01*
X81167152Y-81974261D01*
X81167143Y-81974264D01*
X80963019Y-82084731D01*
X80963013Y-82084735D01*
X80779870Y-82227281D01*
X80779867Y-82227284D01*
X80779864Y-82227286D01*
X80779864Y-82227287D01*
X80636745Y-82382757D01*
X80622663Y-82398054D01*
X80585771Y-82454522D01*
X80532625Y-82499878D01*
X80481963Y-82510700D01*
X79692315Y-82510700D01*
X79625276Y-82491015D01*
X79616829Y-82485076D01*
X79599089Y-82471464D01*
X79599084Y-82471461D01*
X79453013Y-82410957D01*
X79453008Y-82410955D01*
X79335609Y-82395500D01*
X78556884Y-82395500D01*
X78439494Y-82410953D01*
X78439485Y-82410956D01*
X78293408Y-82471463D01*
X78167966Y-82567718D01*
X78071711Y-82693160D01*
X78011204Y-82839237D01*
X78011203Y-82839239D01*
X77995748Y-82956638D01*
X77995748Y-83545363D01*
X78011201Y-83662753D01*
X78011204Y-83662762D01*
X78066388Y-83795989D01*
X78071712Y-83808841D01*
X78167966Y-83934282D01*
X78293407Y-84030536D01*
X78428369Y-84086439D01*
X78482772Y-84130280D01*
X78504837Y-84196574D01*
X78487558Y-84264273D01*
X78436421Y-84311884D01*
X78428369Y-84315561D01*
X78293408Y-84371463D01*
X78167966Y-84467718D01*
X78071711Y-84593160D01*
X78011204Y-84739237D01*
X78011203Y-84739239D01*
X77995748Y-84856638D01*
X77995748Y-85445363D01*
X78011201Y-85562753D01*
X78011204Y-85562762D01*
X78062641Y-85686943D01*
X78071712Y-85708841D01*
X78167966Y-85834282D01*
X78167968Y-85834283D01*
X78170124Y-85837093D01*
X78195318Y-85902263D01*
X78195748Y-85912580D01*
X78195748Y-93644969D01*
X78176063Y-93712008D01*
X78159429Y-93732650D01*
X75998010Y-95894068D01*
X75936687Y-95927553D01*
X75889920Y-95928696D01*
X75761697Y-95907300D01*
X75529599Y-95907300D01*
X75483812Y-95914940D01*
X75300663Y-95945502D01*
X75081152Y-96020861D01*
X75081138Y-96020867D01*
X74994365Y-96067826D01*
X74926037Y-96082421D01*
X74860664Y-96057758D01*
X74819004Y-96001667D01*
X74811348Y-95958771D01*
X74811348Y-88078628D01*
X74831033Y-88011589D01*
X74847662Y-87990952D01*
X76795796Y-86042817D01*
X76857119Y-86009333D01*
X76883477Y-86006499D01*
X77015611Y-86006499D01*
X77133001Y-85991046D01*
X77133005Y-85991044D01*
X77133010Y-85991044D01*
X77279089Y-85930536D01*
X77404530Y-85834282D01*
X77500784Y-85708841D01*
X77561292Y-85562762D01*
X77576748Y-85445361D01*
X77576747Y-84856640D01*
X77576747Y-84856638D01*
X77576747Y-84856636D01*
X77561294Y-84739246D01*
X77561292Y-84739241D01*
X77561292Y-84739238D01*
X77554752Y-84723451D01*
X77547284Y-84653985D01*
X77554755Y-84628542D01*
X77561292Y-84612762D01*
X77576748Y-84495361D01*
X77576747Y-83906640D01*
X77576747Y-83906639D01*
X77576747Y-83906636D01*
X77561294Y-83789246D01*
X77561292Y-83789241D01*
X77561292Y-83789238D01*
X77530837Y-83715714D01*
X77500786Y-83643163D01*
X77496722Y-83636124D01*
X77497930Y-83635426D01*
X77475865Y-83578345D01*
X77476117Y-83557138D01*
X77476070Y-83557136D01*
X77476131Y-83555990D01*
X77476146Y-83554771D01*
X77476247Y-83553825D01*
X77476248Y-83553819D01*
X77476248Y-83501000D01*
X77424835Y-83501000D01*
X77357796Y-83481315D01*
X77349349Y-83475376D01*
X77279090Y-83421464D01*
X77133010Y-83360956D01*
X77133008Y-83360955D01*
X77015609Y-83345500D01*
X76236884Y-83345500D01*
X76119494Y-83360953D01*
X76119485Y-83360956D01*
X75973405Y-83421464D01*
X75968960Y-83424876D01*
X75903791Y-83450070D01*
X75893474Y-83450500D01*
X74575478Y-83450500D01*
X74508439Y-83430815D01*
X74487797Y-83414181D01*
X74074616Y-83001000D01*
X75776248Y-83001000D01*
X76376248Y-83001000D01*
X76876248Y-83001000D01*
X77476248Y-83001000D01*
X77476248Y-82948172D01*
X77476247Y-82948155D01*
X77469846Y-82888627D01*
X77469844Y-82888620D01*
X77419602Y-82753913D01*
X77419598Y-82753906D01*
X77333438Y-82638812D01*
X77333435Y-82638809D01*
X77218341Y-82552649D01*
X77218334Y-82552645D01*
X77083627Y-82502403D01*
X77083620Y-82502401D01*
X77024092Y-82496000D01*
X76882874Y-82496000D01*
X76877751Y-82494496D01*
X76876248Y-82496000D01*
X76876248Y-83001000D01*
X76376248Y-83001000D01*
X76376248Y-82496000D01*
X76228403Y-82496000D01*
X76168875Y-82502401D01*
X76168868Y-82502403D01*
X76034161Y-82552645D01*
X76034154Y-82552649D01*
X75919060Y-82638809D01*
X75919057Y-82638812D01*
X75832897Y-82753906D01*
X75832893Y-82753913D01*
X75782651Y-82888620D01*
X75782649Y-82888627D01*
X75776248Y-82948155D01*
X75776248Y-83001000D01*
X74074616Y-83001000D01*
X72525490Y-81451874D01*
X72492005Y-81390551D01*
X72494606Y-81327883D01*
X72501767Y-81304500D01*
X72535264Y-81195123D01*
X72565546Y-80958654D01*
X72563143Y-80902096D01*
X72555428Y-80720471D01*
X72555428Y-80720467D01*
X72505202Y-80487419D01*
X72494228Y-80460109D01*
X72416312Y-80266210D01*
X72291317Y-80063205D01*
X72133812Y-79884245D01*
X71948328Y-79734477D01*
X71948322Y-79734474D01*
X71948319Y-79734471D01*
X71948305Y-79734463D01*
X71948299Y-79734457D01*
X71943957Y-79731522D01*
X71944554Y-79730638D01*
X71899382Y-79684580D01*
X71885195Y-79616165D01*
X71910247Y-79550942D01*
X71939347Y-79523481D01*
X72044251Y-79452579D01*
X72216366Y-79287621D01*
X72358127Y-79095947D01*
X72465455Y-78883074D01*
X72535264Y-78655123D01*
X72565546Y-78418654D01*
X72564552Y-78395265D01*
X72558602Y-78255193D01*
X72555428Y-78180468D01*
X72543024Y-78122915D01*
X72505202Y-77947419D01*
X72505202Y-77947418D01*
X72416312Y-77726210D01*
X72291317Y-77523205D01*
X72133812Y-77344245D01*
X71948328Y-77194477D01*
X71948322Y-77194474D01*
X71948319Y-77194471D01*
X71948305Y-77194463D01*
X71948299Y-77194457D01*
X71943957Y-77191522D01*
X71944554Y-77190638D01*
X71899382Y-77144580D01*
X71885195Y-77076165D01*
X71910247Y-77010942D01*
X71939347Y-76983481D01*
X72044251Y-76912579D01*
X72216366Y-76747621D01*
X72358127Y-76555947D01*
X72465455Y-76343074D01*
X72535264Y-76115123D01*
X72565546Y-75878654D01*
X72565546Y-75878650D01*
X72566215Y-75873429D01*
X72568276Y-75873693D01*
X72587873Y-75816016D01*
X72642548Y-75772514D01*
X72712062Y-75765477D01*
X72774346Y-75797140D01*
X72776968Y-75799687D01*
X75966429Y-78989148D01*
X75999914Y-79050471D01*
X76002748Y-79076829D01*
X76002748Y-79597001D01*
X75983063Y-79664040D01*
X75954911Y-79694854D01*
X75801466Y-79814285D01*
X75644264Y-79985052D01*
X75517323Y-80179351D01*
X75424090Y-80391899D01*
X75367114Y-80616891D01*
X75367112Y-80616902D01*
X75347948Y-80848193D01*
X75347948Y-80848206D01*
X75367112Y-81079497D01*
X75367114Y-81079508D01*
X75424090Y-81304500D01*
X75517323Y-81517048D01*
X75644264Y-81711347D01*
X75644267Y-81711351D01*
X75644269Y-81711353D01*
X75801464Y-81882113D01*
X75801467Y-81882115D01*
X75801470Y-81882118D01*
X75984613Y-82024664D01*
X75984619Y-82024668D01*
X75984622Y-82024670D01*
X76188745Y-82135136D01*
X76293018Y-82170933D01*
X76408263Y-82210497D01*
X76408265Y-82210497D01*
X76408267Y-82210498D01*
X76637199Y-82248700D01*
X76637200Y-82248700D01*
X76824186Y-82248700D01*
X76845106Y-82254843D01*
X76847939Y-82253023D01*
X76864309Y-82249974D01*
X76864238Y-82249544D01*
X76869296Y-82248700D01*
X76869297Y-82248700D01*
X77098229Y-82210498D01*
X77317751Y-82135136D01*
X77521874Y-82024670D01*
X77705032Y-81882113D01*
X77862227Y-81711353D01*
X77989172Y-81517049D01*
X78082405Y-81304500D01*
X78139382Y-81079505D01*
X78139383Y-81079497D01*
X78158548Y-80848206D01*
X78158548Y-80848193D01*
X78139383Y-80616902D01*
X78139381Y-80616891D01*
X78082405Y-80391899D01*
X77989172Y-80179351D01*
X77862231Y-79985052D01*
X77862228Y-79985049D01*
X77862227Y-79985047D01*
X77705032Y-79814287D01*
X77627660Y-79754066D01*
X77551585Y-79694854D01*
X77510772Y-79638144D01*
X77503748Y-79597001D01*
X77503748Y-78778305D01*
X77505057Y-78760335D01*
X77508537Y-78736574D01*
X77503984Y-78684539D01*
X77503748Y-78679132D01*
X77503748Y-78670896D01*
X77503748Y-78670891D01*
X77500035Y-78639134D01*
X77499868Y-78637498D01*
X77495191Y-78584033D01*
X77493247Y-78561808D01*
X77491786Y-78554735D01*
X77491846Y-78554722D01*
X77490213Y-78547357D01*
X77490154Y-78547372D01*
X77488489Y-78540349D01*
X77488489Y-78540345D01*
X77462522Y-78469003D01*
X77461946Y-78467346D01*
X77438062Y-78395265D01*
X77438057Y-78395258D01*
X77435009Y-78388718D01*
X77435063Y-78388692D01*
X77431781Y-78381912D01*
X77431728Y-78381940D01*
X77428486Y-78375485D01*
X77428485Y-78375483D01*
X77386775Y-78312066D01*
X77385828Y-78310580D01*
X77345962Y-78245947D01*
X77341482Y-78240281D01*
X77341528Y-78240243D01*
X77336767Y-78234399D01*
X77336722Y-78234438D01*
X77332079Y-78228905D01*
X77276882Y-78176829D01*
X77275622Y-78175606D01*
X72594189Y-73494173D01*
X72560704Y-73432850D01*
X72558875Y-73390742D01*
X72565546Y-73338654D01*
X72565546Y-73338650D01*
X72565770Y-73333393D01*
X72567429Y-73333463D01*
X72582440Y-73272894D01*
X72633244Y-73224928D01*
X72701915Y-73212043D01*
X72766651Y-73238330D01*
G37*
%TD.AperFunction*%
%TA.AperFunction,Conductor*%
G36*
X107118429Y-91956185D02*
G01*
X107156979Y-91995485D01*
X107173178Y-92021794D01*
X107173179Y-92021796D01*
X107264414Y-92125458D01*
X107330684Y-92200755D01*
X107516168Y-92350523D01*
X107724294Y-92466790D01*
X107919614Y-92535801D01*
X107949077Y-92546211D01*
X108184038Y-92586499D01*
X108184046Y-92586499D01*
X108184048Y-92586500D01*
X108184049Y-92586500D01*
X108762744Y-92586500D01*
X108762745Y-92586500D01*
X108762746Y-92586499D01*
X108762763Y-92586499D01*
X108940784Y-92571347D01*
X108940787Y-92571346D01*
X108940789Y-92571346D01*
X109171497Y-92511275D01*
X109316319Y-92445811D01*
X109388728Y-92413080D01*
X109388729Y-92413078D01*
X109388734Y-92413077D01*
X109586251Y-92279579D01*
X109609549Y-92257249D01*
X109671566Y-92225074D01*
X109741136Y-92231536D01*
X109796169Y-92274584D01*
X109819192Y-92340551D01*
X109819348Y-92346772D01*
X109819348Y-92561551D01*
X109822165Y-92603099D01*
X109863554Y-92769526D01*
X109866811Y-92782621D01*
X109936418Y-92922971D01*
X109942519Y-92935273D01*
X109954670Y-93004078D01*
X109927693Y-93068530D01*
X109886525Y-93101455D01*
X109809295Y-93139757D01*
X109665104Y-93255662D01*
X109600483Y-93336054D01*
X109543140Y-93375973D01*
X109473318Y-93378552D01*
X109416156Y-93346047D01*
X109338393Y-93268284D01*
X109189172Y-93176243D01*
X109189167Y-93176241D01*
X109022745Y-93121094D01*
X109022738Y-93121093D01*
X108920034Y-93110600D01*
X108870048Y-93110600D01*
X108870048Y-94461600D01*
X108850363Y-94528639D01*
X108797559Y-94574394D01*
X108746048Y-94585600D01*
X107620049Y-94585600D01*
X107620049Y-94860586D01*
X107626293Y-94921698D01*
X107613524Y-94990390D01*
X107565643Y-95041275D01*
X107502935Y-95058300D01*
X106071477Y-95058300D01*
X106004438Y-95038615D01*
X105983796Y-95021981D01*
X105047415Y-94085600D01*
X107620048Y-94085600D01*
X108370048Y-94085600D01*
X108370048Y-93110600D01*
X108370047Y-93110599D01*
X108320077Y-93110600D01*
X108320059Y-93110601D01*
X108217350Y-93121094D01*
X108050928Y-93176241D01*
X108050923Y-93176243D01*
X107901702Y-93268284D01*
X107777732Y-93392254D01*
X107685691Y-93541475D01*
X107685689Y-93541480D01*
X107630542Y-93707902D01*
X107630541Y-93707909D01*
X107620048Y-93810613D01*
X107620048Y-94085600D01*
X105047415Y-94085600D01*
X103758792Y-92796977D01*
X103725307Y-92735654D01*
X103730291Y-92665962D01*
X103772163Y-92610029D01*
X103837627Y-92585612D01*
X103858743Y-92586654D01*
X103858795Y-92586053D01*
X103864047Y-92586499D01*
X103864048Y-92586500D01*
X103864049Y-92586500D01*
X104442744Y-92586500D01*
X104442745Y-92586500D01*
X104442746Y-92586499D01*
X104442763Y-92586499D01*
X104620784Y-92571347D01*
X104620787Y-92571346D01*
X104620789Y-92571346D01*
X104851497Y-92511275D01*
X104996319Y-92445811D01*
X105068728Y-92413080D01*
X105068729Y-92413078D01*
X105068734Y-92413077D01*
X105266251Y-92279579D01*
X105438366Y-92114621D01*
X105507019Y-92021796D01*
X105532927Y-91986766D01*
X105588617Y-91944571D01*
X105632623Y-91936500D01*
X107051390Y-91936500D01*
X107118429Y-91956185D01*
G37*
%TD.AperFunction*%
%TA.AperFunction,Conductor*%
G36*
X110748057Y-86876185D02*
G01*
X110768699Y-86892819D01*
X112847229Y-88971348D01*
X112880714Y-89032671D01*
X112883548Y-89059029D01*
X112883548Y-91008000D01*
X112863863Y-91075039D01*
X112811059Y-91120794D01*
X112759549Y-91132000D01*
X112609685Y-91132000D01*
X112492294Y-91147453D01*
X112492282Y-91147457D01*
X112394555Y-91187937D01*
X112325086Y-91195406D01*
X112262607Y-91164131D01*
X112226955Y-91104042D01*
X112229449Y-91034216D01*
X112241565Y-91008279D01*
X112304201Y-90906730D01*
X112304206Y-90906719D01*
X112359353Y-90740297D01*
X112359354Y-90740290D01*
X112369847Y-90637586D01*
X112369848Y-90637573D01*
X112369848Y-90587600D01*
X111018848Y-90587600D01*
X110951809Y-90567915D01*
X110906054Y-90515111D01*
X110894848Y-90463600D01*
X110894847Y-89337600D01*
X111394847Y-89337600D01*
X111394847Y-90087599D01*
X111394849Y-90087600D01*
X112369847Y-90087600D01*
X112369847Y-90037628D01*
X112369846Y-90037613D01*
X112359353Y-89934902D01*
X112304206Y-89768480D01*
X112304204Y-89768475D01*
X112212163Y-89619254D01*
X112088193Y-89495284D01*
X111938972Y-89403243D01*
X111938967Y-89403241D01*
X111772545Y-89348094D01*
X111772538Y-89348093D01*
X111669834Y-89337600D01*
X111394847Y-89337600D01*
X110894847Y-89337600D01*
X110619877Y-89337600D01*
X110619860Y-89337601D01*
X110517150Y-89348094D01*
X110350728Y-89403241D01*
X110350723Y-89403243D01*
X110201502Y-89495284D01*
X110077532Y-89619254D01*
X109985491Y-89768475D01*
X109985489Y-89768480D01*
X109930342Y-89934902D01*
X109930341Y-89934909D01*
X109919848Y-90037613D01*
X109919848Y-90119945D01*
X109900163Y-90186984D01*
X109847359Y-90232739D01*
X109778201Y-90242683D01*
X109714645Y-90213658D01*
X109702765Y-90201869D01*
X109687638Y-90184682D01*
X109675812Y-90171245D01*
X109490328Y-90021477D01*
X109490322Y-90021474D01*
X109490319Y-90021471D01*
X109490305Y-90021463D01*
X109490299Y-90021457D01*
X109485957Y-90018522D01*
X109486554Y-90017638D01*
X109441382Y-89971580D01*
X109427195Y-89903165D01*
X109452247Y-89837942D01*
X109481347Y-89810481D01*
X109586251Y-89739579D01*
X109758366Y-89574621D01*
X109900127Y-89382947D01*
X110007455Y-89170074D01*
X110077264Y-88942123D01*
X110107546Y-88705654D01*
X110097428Y-88467468D01*
X110076005Y-88368067D01*
X110047202Y-88234419D01*
X110030955Y-88193987D01*
X109958312Y-88013210D01*
X109833317Y-87810205D01*
X109675812Y-87631245D01*
X109490328Y-87481477D01*
X109490322Y-87481474D01*
X109490319Y-87481471D01*
X109490305Y-87481463D01*
X109490299Y-87481457D01*
X109485957Y-87478522D01*
X109486554Y-87477638D01*
X109441382Y-87431580D01*
X109427195Y-87363165D01*
X109452247Y-87297942D01*
X109481347Y-87270481D01*
X109586251Y-87199579D01*
X109758366Y-87034621D01*
X109827019Y-86941796D01*
X109852927Y-86906766D01*
X109908617Y-86864571D01*
X109952623Y-86856500D01*
X110681018Y-86856500D01*
X110748057Y-86876185D01*
G37*
%TD.AperFunction*%
%TA.AperFunction,Conductor*%
G36*
X139815036Y-57639185D02*
G01*
X139835678Y-57655819D01*
X149018429Y-66838570D01*
X149051914Y-66899893D01*
X149054748Y-66926251D01*
X149054748Y-70356570D01*
X149035063Y-70423609D01*
X148982259Y-70469364D01*
X148913101Y-70479308D01*
X148849545Y-70450283D01*
X148843067Y-70444251D01*
X146645577Y-68246761D01*
X146633797Y-68233130D01*
X146626330Y-68223101D01*
X146619460Y-68213872D01*
X146619458Y-68213870D01*
X146579435Y-68180286D01*
X146575460Y-68176644D01*
X146572538Y-68173722D01*
X146569627Y-68170810D01*
X146544584Y-68151009D01*
X146543186Y-68149870D01*
X146485062Y-68101098D01*
X146479028Y-68097129D01*
X146479060Y-68097080D01*
X146472701Y-68093028D01*
X146472670Y-68093079D01*
X146466528Y-68089291D01*
X146466526Y-68089290D01*
X146466525Y-68089289D01*
X146397720Y-68057204D01*
X146396100Y-68056419D01*
X146356360Y-68036461D01*
X146328281Y-68022360D01*
X146328279Y-68022359D01*
X146328278Y-68022359D01*
X146321493Y-68019889D01*
X146321513Y-68019833D01*
X146314397Y-68017359D01*
X146314379Y-68017415D01*
X146307522Y-68015143D01*
X146233176Y-67999791D01*
X146231417Y-67999401D01*
X146157566Y-67981899D01*
X146150395Y-67981061D01*
X146150401Y-67981001D01*
X146142903Y-67980235D01*
X146142898Y-67980295D01*
X146135708Y-67979665D01*
X146059816Y-67981874D01*
X146058013Y-67981900D01*
X143918190Y-67981900D01*
X143851151Y-67962215D01*
X143805396Y-67909411D01*
X143795452Y-67840253D01*
X143799625Y-67821590D01*
X143818938Y-67758528D01*
X143849220Y-67522059D01*
X143848984Y-67516515D01*
X143839102Y-67283876D01*
X143839102Y-67283872D01*
X143788876Y-67050824D01*
X143748577Y-66950538D01*
X143699986Y-66829615D01*
X143574991Y-66626610D01*
X143417486Y-66447650D01*
X143232002Y-66297882D01*
X143231996Y-66297879D01*
X143231993Y-66297876D01*
X143231979Y-66297868D01*
X143231973Y-66297862D01*
X143227631Y-66294927D01*
X143228228Y-66294043D01*
X143183056Y-66247985D01*
X143168869Y-66179570D01*
X143193921Y-66114347D01*
X143223021Y-66086886D01*
X143327925Y-66015984D01*
X143500040Y-65851026D01*
X143641801Y-65659352D01*
X143749129Y-65446479D01*
X143818938Y-65218528D01*
X143849220Y-64982059D01*
X143848374Y-64962153D01*
X143840265Y-64771245D01*
X143839102Y-64743873D01*
X143830586Y-64704361D01*
X143788876Y-64510824D01*
X143753867Y-64423702D01*
X143699986Y-64289615D01*
X143574991Y-64086610D01*
X143417486Y-63907650D01*
X143232002Y-63757882D01*
X143118052Y-63694225D01*
X143023877Y-63641615D01*
X142799092Y-63562193D01*
X142564131Y-63521905D01*
X142564122Y-63521905D01*
X141885425Y-63521905D01*
X141885406Y-63521905D01*
X141707385Y-63537057D01*
X141476673Y-63597129D01*
X141259441Y-63695324D01*
X141259433Y-63695329D01*
X141061920Y-63828824D01*
X141011737Y-63876920D01*
X140949717Y-63909095D01*
X140880147Y-63902631D01*
X140848039Y-63883873D01*
X140827329Y-63867151D01*
X140692002Y-63757882D01*
X140578052Y-63694225D01*
X140483877Y-63641615D01*
X140259092Y-63562193D01*
X140024131Y-63521905D01*
X140024122Y-63521905D01*
X139345425Y-63521905D01*
X139345406Y-63521905D01*
X139167385Y-63537057D01*
X138936673Y-63597129D01*
X138719441Y-63695324D01*
X138719433Y-63695329D01*
X138521928Y-63828818D01*
X138521919Y-63828826D01*
X138349803Y-63993784D01*
X138208045Y-64185455D01*
X138208042Y-64185459D01*
X138100718Y-64398325D01*
X138100715Y-64398331D01*
X138030905Y-64626283D01*
X138000624Y-64862751D01*
X138010741Y-65100933D01*
X138010741Y-65100937D01*
X138060967Y-65333985D01*
X138149655Y-65554691D01*
X138149858Y-65555195D01*
X138274853Y-65758200D01*
X138328193Y-65818806D01*
X138424968Y-65928764D01*
X138432358Y-65937160D01*
X138617842Y-66086928D01*
X138617857Y-66086936D01*
X138617864Y-66086943D01*
X138622213Y-66089883D01*
X138621615Y-66090767D01*
X138666783Y-66136816D01*
X138680975Y-66205229D01*
X138655927Y-66270455D01*
X138626819Y-66297925D01*
X138521929Y-66368818D01*
X138521919Y-66368826D01*
X138349803Y-66533784D01*
X138208045Y-66725455D01*
X138208042Y-66725459D01*
X138100718Y-66938325D01*
X138100715Y-66938331D01*
X138030905Y-67166283D01*
X138000624Y-67402751D01*
X138010741Y-67640933D01*
X138010741Y-67640937D01*
X138051871Y-67831776D01*
X138046752Y-67901457D01*
X138004773Y-67957310D01*
X137939262Y-67981601D01*
X137930654Y-67981900D01*
X131039678Y-67981900D01*
X130972639Y-67962215D01*
X130951997Y-67945581D01*
X129713887Y-66707471D01*
X129680402Y-66646148D01*
X129685386Y-66576456D01*
X129701871Y-66546057D01*
X129710128Y-66534895D01*
X129817456Y-66322022D01*
X129887265Y-66094071D01*
X129917547Y-65857602D01*
X129917039Y-65845654D01*
X129909560Y-65669574D01*
X129907429Y-65619416D01*
X129904854Y-65607470D01*
X129857203Y-65386367D01*
X129847661Y-65362621D01*
X129768313Y-65165158D01*
X129643318Y-64962153D01*
X129485813Y-64783193D01*
X129300329Y-64633425D01*
X129300323Y-64633422D01*
X129300320Y-64633419D01*
X129300306Y-64633411D01*
X129300300Y-64633405D01*
X129295958Y-64630470D01*
X129296555Y-64629586D01*
X129251383Y-64583528D01*
X129237196Y-64515113D01*
X129262248Y-64449890D01*
X129291348Y-64422429D01*
X129396252Y-64351527D01*
X129568367Y-64186569D01*
X129710128Y-63994895D01*
X129817456Y-63782022D01*
X129887265Y-63554071D01*
X129917547Y-63317602D01*
X129914635Y-63249061D01*
X129909811Y-63135500D01*
X129907429Y-63079416D01*
X129903692Y-63062078D01*
X129857203Y-62846367D01*
X129807198Y-62721926D01*
X129768313Y-62625158D01*
X129643318Y-62422153D01*
X129485813Y-62243193D01*
X129300329Y-62093425D01*
X129300323Y-62093422D01*
X129300320Y-62093419D01*
X129300306Y-62093411D01*
X129300300Y-62093405D01*
X129295958Y-62090470D01*
X129296555Y-62089586D01*
X129251383Y-62043528D01*
X129237196Y-61975113D01*
X129262248Y-61909890D01*
X129291348Y-61882429D01*
X129396252Y-61811527D01*
X129568367Y-61646569D01*
X129710128Y-61454895D01*
X129817456Y-61242022D01*
X129887265Y-61014071D01*
X129917547Y-60777602D01*
X129917039Y-60765654D01*
X129907429Y-60539419D01*
X129907429Y-60539415D01*
X129857203Y-60306367D01*
X129807198Y-60181926D01*
X129768313Y-60085158D01*
X129643318Y-59882153D01*
X129485813Y-59703193D01*
X129300329Y-59553425D01*
X129279018Y-59541520D01*
X129203173Y-59499150D01*
X129154246Y-59449270D01*
X129140054Y-59380857D01*
X129165102Y-59315631D01*
X129192524Y-59289321D01*
X129352066Y-59177608D01*
X129512906Y-59016768D01*
X129643383Y-58830430D01*
X129739514Y-58624274D01*
X129739518Y-58624265D01*
X129792121Y-58427948D01*
X128479360Y-58427948D01*
X128518859Y-58403491D01*
X128586450Y-58313986D01*
X128617144Y-58206108D01*
X128606795Y-58094427D01*
X128556801Y-57994026D01*
X128484318Y-57927948D01*
X129792121Y-57927948D01*
X129792120Y-57927947D01*
X129751298Y-57775594D01*
X129752961Y-57705744D01*
X129792123Y-57647881D01*
X129856352Y-57620377D01*
X129871073Y-57619500D01*
X139747997Y-57619500D01*
X139815036Y-57639185D01*
G37*
%TD.AperFunction*%
%TA.AperFunction,Conductor*%
G36*
X102798429Y-58936185D02*
G01*
X102836979Y-58975485D01*
X102853178Y-59001794D01*
X102853179Y-59001796D01*
X102934875Y-59094620D01*
X103010684Y-59180755D01*
X103196168Y-59330523D01*
X103196183Y-59330531D01*
X103196190Y-59330538D01*
X103200539Y-59333478D01*
X103199941Y-59334362D01*
X103245109Y-59380411D01*
X103259301Y-59448824D01*
X103234253Y-59514050D01*
X103205145Y-59541520D01*
X103100255Y-59612413D01*
X103100245Y-59612421D01*
X102928129Y-59777379D01*
X102786371Y-59969050D01*
X102786368Y-59969054D01*
X102679044Y-60181920D01*
X102679041Y-60181926D01*
X102609231Y-60409878D01*
X102578950Y-60646346D01*
X102589067Y-60884528D01*
X102589067Y-60884532D01*
X102639293Y-61117580D01*
X102689299Y-61242022D01*
X102728184Y-61338790D01*
X102853179Y-61541795D01*
X103010684Y-61720755D01*
X103196168Y-61870523D01*
X103224428Y-61886310D01*
X103293322Y-61924797D01*
X103342249Y-61974677D01*
X103356441Y-62043090D01*
X103331393Y-62108316D01*
X103303972Y-62134625D01*
X103144431Y-62246338D01*
X102983590Y-62407179D01*
X102853113Y-62593517D01*
X102756982Y-62799673D01*
X102756978Y-62799682D01*
X102704375Y-62995999D01*
X102704376Y-62996000D01*
X104017137Y-62996000D01*
X103977638Y-63020457D01*
X103910047Y-63109962D01*
X103879353Y-63217840D01*
X103889702Y-63329521D01*
X103939696Y-63429922D01*
X104012179Y-63496000D01*
X102704376Y-63496000D01*
X102740122Y-63629406D01*
X102738459Y-63699256D01*
X102699297Y-63757119D01*
X102635068Y-63784623D01*
X102620347Y-63785500D01*
X101955213Y-63785500D01*
X101888174Y-63765815D01*
X101844126Y-63716596D01*
X101839292Y-63706849D01*
X101723388Y-63562659D01*
X101621233Y-63480545D01*
X101579201Y-63446758D01*
X101579199Y-63446757D01*
X101579198Y-63446756D01*
X101413471Y-63364564D01*
X101413469Y-63364563D01*
X101233945Y-63319917D01*
X101233949Y-63319917D01*
X101202787Y-63317804D01*
X101192402Y-63317100D01*
X100519494Y-63317100D01*
X100507625Y-63317904D01*
X100477948Y-63319917D01*
X100298426Y-63364563D01*
X100298424Y-63364564D01*
X100132694Y-63446757D01*
X100021135Y-63536432D01*
X99956551Y-63563091D01*
X99887807Y-63550601D01*
X99865761Y-63536432D01*
X99754201Y-63446757D01*
X99588471Y-63364564D01*
X99588469Y-63364563D01*
X99408945Y-63319917D01*
X99408949Y-63319917D01*
X99377787Y-63317804D01*
X99367402Y-63317100D01*
X98694494Y-63317100D01*
X98694491Y-63317100D01*
X98667335Y-63318941D01*
X98599118Y-63303836D01*
X98549896Y-63254248D01*
X98534948Y-63195225D01*
X98534948Y-60357029D01*
X98554633Y-60289990D01*
X98571262Y-60269353D01*
X99887796Y-58952819D01*
X99949120Y-58919334D01*
X99975478Y-58916500D01*
X102731390Y-58916500D01*
X102798429Y-58936185D01*
G37*
%TD.AperFunction*%
%TA.AperFunction,Conductor*%
G36*
X107118429Y-61476185D02*
G01*
X107156979Y-61515485D01*
X107173178Y-61541794D01*
X107173179Y-61541796D01*
X107254875Y-61634620D01*
X107330684Y-61720755D01*
X107516168Y-61870523D01*
X107544428Y-61886310D01*
X107613322Y-61924797D01*
X107662249Y-61974677D01*
X107676441Y-62043090D01*
X107651393Y-62108316D01*
X107623972Y-62134625D01*
X107464431Y-62246338D01*
X107303590Y-62407179D01*
X107173113Y-62593517D01*
X107076982Y-62799673D01*
X107076978Y-62799682D01*
X107024375Y-62995999D01*
X107024376Y-62996000D01*
X108337137Y-62996000D01*
X108297638Y-63020457D01*
X108230047Y-63109962D01*
X108199353Y-63217840D01*
X108209702Y-63329521D01*
X108259696Y-63429922D01*
X108332179Y-63496000D01*
X107024376Y-63496000D01*
X107060122Y-63629406D01*
X107058459Y-63699256D01*
X107019297Y-63757119D01*
X106955068Y-63784623D01*
X106940347Y-63785500D01*
X105746149Y-63785500D01*
X105679110Y-63765815D01*
X105633355Y-63713011D01*
X105623411Y-63643853D01*
X105626374Y-63629406D01*
X105662120Y-63496000D01*
X104349359Y-63496000D01*
X104388858Y-63471543D01*
X104456449Y-63382038D01*
X104487143Y-63274160D01*
X104476794Y-63162479D01*
X104426800Y-63062078D01*
X104354317Y-62996000D01*
X105662120Y-62996000D01*
X105662120Y-62995999D01*
X105609517Y-62799682D01*
X105609513Y-62799673D01*
X105513382Y-62593517D01*
X105382905Y-62407179D01*
X105222068Y-62246342D01*
X105066751Y-62137587D01*
X105023126Y-62083009D01*
X105015934Y-62013511D01*
X105047456Y-61951156D01*
X105068438Y-61933277D01*
X105266241Y-61799586D01*
X105266242Y-61799584D01*
X105266251Y-61799579D01*
X105438366Y-61634621D01*
X105507019Y-61541796D01*
X105532927Y-61506766D01*
X105588617Y-61464571D01*
X105632623Y-61456500D01*
X107051390Y-61456500D01*
X107118429Y-61476185D01*
G37*
%TD.AperFunction*%
%TA.AperFunction,Conductor*%
G36*
X126996594Y-56496185D02*
G01*
X127022636Y-56518575D01*
X127140685Y-56652703D01*
X127326169Y-56802471D01*
X127326173Y-56802473D01*
X127423323Y-56856745D01*
X127472250Y-56906625D01*
X127486442Y-56975038D01*
X127461394Y-57040264D01*
X127433973Y-57066573D01*
X127274432Y-57178286D01*
X127113591Y-57339127D01*
X126983114Y-57525465D01*
X126886983Y-57731621D01*
X126886979Y-57731630D01*
X126834376Y-57927947D01*
X126834377Y-57927948D01*
X128147138Y-57927948D01*
X128107639Y-57952405D01*
X128040048Y-58041910D01*
X128009354Y-58149788D01*
X128019703Y-58261469D01*
X128069697Y-58361870D01*
X128142180Y-58427948D01*
X126834377Y-58427948D01*
X126886979Y-58624265D01*
X126886983Y-58624274D01*
X126983114Y-58830430D01*
X127113591Y-59016768D01*
X127274428Y-59177605D01*
X127429745Y-59286360D01*
X127473370Y-59340937D01*
X127480562Y-59410436D01*
X127449040Y-59472790D01*
X127428058Y-59490670D01*
X127230256Y-59624361D01*
X127230246Y-59624369D01*
X127058130Y-59789327D01*
X126916372Y-59980998D01*
X126916369Y-59981002D01*
X126809045Y-60193868D01*
X126809042Y-60193874D01*
X126739232Y-60421826D01*
X126708951Y-60658294D01*
X126719068Y-60896476D01*
X126719068Y-60896480D01*
X126769294Y-61129528D01*
X126853383Y-61338788D01*
X126858185Y-61350738D01*
X126975823Y-61541795D01*
X126983181Y-61553744D01*
X127130168Y-61720754D01*
X127140685Y-61732703D01*
X127326169Y-61882471D01*
X127326184Y-61882479D01*
X127326191Y-61882486D01*
X127330540Y-61885426D01*
X127329942Y-61886310D01*
X127375110Y-61932359D01*
X127389302Y-62000772D01*
X127364254Y-62065998D01*
X127335146Y-62093468D01*
X127230256Y-62164361D01*
X127230246Y-62164369D01*
X127058130Y-62329327D01*
X127058129Y-62329328D01*
X126972405Y-62445235D01*
X126916715Y-62487429D01*
X126872710Y-62495500D01*
X125195106Y-62495500D01*
X125128067Y-62475815D01*
X125089517Y-62436515D01*
X125073317Y-62410205D01*
X125073316Y-62410203D01*
X124915812Y-62231245D01*
X124730328Y-62081477D01*
X124730322Y-62081474D01*
X124730319Y-62081471D01*
X124730305Y-62081463D01*
X124730299Y-62081457D01*
X124725957Y-62078522D01*
X124726554Y-62077638D01*
X124681382Y-62031580D01*
X124667195Y-61963165D01*
X124692247Y-61897942D01*
X124721347Y-61870481D01*
X124826251Y-61799579D01*
X124998366Y-61634621D01*
X125140127Y-61442947D01*
X125247455Y-61230074D01*
X125317264Y-61002123D01*
X125347546Y-60765654D01*
X125337428Y-60527468D01*
X125287202Y-60294419D01*
X125198312Y-60073210D01*
X125073317Y-59870205D01*
X124915812Y-59691245D01*
X124730328Y-59541477D01*
X124730317Y-59541471D01*
X124633172Y-59487202D01*
X124584245Y-59437322D01*
X124570053Y-59368909D01*
X124595101Y-59303683D01*
X124622523Y-59277373D01*
X124782065Y-59165660D01*
X124942905Y-59004820D01*
X125073382Y-58818482D01*
X125169513Y-58612326D01*
X125169517Y-58612317D01*
X125222120Y-58416000D01*
X123909359Y-58416000D01*
X123948858Y-58391543D01*
X124016449Y-58302038D01*
X124047143Y-58194160D01*
X124036794Y-58082479D01*
X123986800Y-57982078D01*
X123914317Y-57916000D01*
X125222120Y-57916000D01*
X125222120Y-57915999D01*
X125169517Y-57719682D01*
X125169513Y-57719673D01*
X125073382Y-57513517D01*
X124942905Y-57327179D01*
X124782068Y-57166342D01*
X124626751Y-57057587D01*
X124583126Y-57003009D01*
X124575934Y-56933511D01*
X124607456Y-56871156D01*
X124628438Y-56853277D01*
X124826241Y-56719586D01*
X124826242Y-56719584D01*
X124826251Y-56719579D01*
X124998366Y-56554621D01*
X125018968Y-56526764D01*
X125074660Y-56484570D01*
X125118664Y-56476500D01*
X126929555Y-56476500D01*
X126996594Y-56496185D01*
G37*
%TD.AperFunction*%
%TD*%
M02*
