%TF.GenerationSoftware,KiCad,Pcbnew,8.0.2-1*%
%TF.CreationDate,2024-08-02T11:08:52+02:00*%
%TF.ProjectId,Com_Nucleo-L432kc,436f6d5f-4e75-4636-9c65-6f2d4c343332,rev?*%
%TF.SameCoordinates,Original*%
%TF.FileFunction,Soldermask,Bot*%
%TF.FilePolarity,Negative*%
%FSLAX46Y46*%
G04 Gerber Fmt 4.6, Leading zero omitted, Abs format (unit mm)*
G04 Created by KiCad (PCBNEW 8.0.2-1) date 2024-08-02 11:08:52*
%MOMM*%
%LPD*%
G01*
G04 APERTURE LIST*
G04 Aperture macros list*
%AMRoundRect*
0 Rectangle with rounded corners*
0 $1 Rounding radius*
0 $2 $3 $4 $5 $6 $7 $8 $9 X,Y pos of 4 corners*
0 Add a 4 corners polygon primitive as box body*
4,1,4,$2,$3,$4,$5,$6,$7,$8,$9,$2,$3,0*
0 Add four circle primitives for the rounded corners*
1,1,$1+$1,$2,$3*
1,1,$1+$1,$4,$5*
1,1,$1+$1,$6,$7*
1,1,$1+$1,$8,$9*
0 Add four rect primitives between the rounded corners*
20,1,$1+$1,$2,$3,$4,$5,0*
20,1,$1+$1,$4,$5,$6,$7,0*
20,1,$1+$1,$6,$7,$8,$9,0*
20,1,$1+$1,$8,$9,$2,$3,0*%
G04 Aperture macros list end*
%ADD10C,5.400000*%
%ADD11C,1.600000*%
%ADD12C,1.100000*%
%ADD13C,2.000000*%
%ADD14R,1.700000X1.700000*%
%ADD15O,1.700000X1.700000*%
%ADD16R,1.524000X1.524000*%
%ADD17C,1.524000*%
%ADD18R,1.295400X1.295400*%
%ADD19C,1.295400*%
%ADD20R,1.600000X1.600000*%
%ADD21O,1.600000X1.600000*%
%ADD22R,1.650000X1.650000*%
%ADD23C,1.650000*%
%ADD24RoundRect,0.250000X-0.350000X-0.450000X0.350000X-0.450000X0.350000X0.450000X-0.350000X0.450000X0*%
%TA.AperFunction,Profile*%
%ADD25C,0.100000*%
%TD*%
G04 APERTURE END LIST*
D10*
%TO.C,REF\u002A\u002A*%
X72610000Y-126370000D03*
%TD*%
%TO.C,REF\u002A\u002A*%
X72570000Y-104290000D03*
%TD*%
D11*
%TO.C,IC1*%
X120434748Y-127945000D03*
D12*
X120434748Y-102945000D03*
%TD*%
D13*
%TO.C,SW102*%
X139280000Y-55970000D03*
X139280000Y-49470000D03*
X143780000Y-55970000D03*
X143780000Y-49470000D03*
%TD*%
D14*
%TO.C,JP5*%
X131150000Y-99360000D03*
D15*
X133690000Y-99360000D03*
%TD*%
D16*
%TO.C,J3*%
X93530000Y-57570000D03*
D17*
X93530000Y-59570000D03*
X93530000Y-61570000D03*
X93530000Y-63570000D03*
%TD*%
D14*
%TO.C,J5*%
X93771248Y-70739000D03*
D15*
X93771248Y-73279000D03*
X93771248Y-75819000D03*
X93771248Y-78359000D03*
X93771248Y-80899000D03*
X93771248Y-83439000D03*
X93771248Y-85979000D03*
X93771248Y-88519000D03*
%TD*%
D14*
%TO.C,J6*%
X128313249Y-55637948D03*
D15*
X128313249Y-58177948D03*
X128313249Y-60717948D03*
X128313249Y-63257948D03*
X128313249Y-65797948D03*
X128313249Y-68337948D03*
X128313249Y-70877948D03*
X128313249Y-73417948D03*
X128313249Y-75957948D03*
X128313249Y-78497948D03*
X128313249Y-81037948D03*
X128313249Y-83577948D03*
X128313249Y-86117948D03*
X128313249Y-88657948D03*
X128313249Y-91197948D03*
%TD*%
D14*
%TO.C,J7*%
X104183248Y-55626000D03*
D15*
X104183248Y-58166000D03*
X104183248Y-60706000D03*
X104183248Y-63246000D03*
X104183248Y-65786000D03*
X104183248Y-68326000D03*
X104183248Y-70866000D03*
X104183248Y-73406000D03*
X104183248Y-75946000D03*
X104183248Y-78486000D03*
X104183248Y-81026000D03*
X104183248Y-83566000D03*
X104183248Y-86106000D03*
X104183248Y-88646000D03*
X104183248Y-91186000D03*
%TD*%
D14*
%TO.C,JP4*%
X134170000Y-107570000D03*
D15*
X131630000Y-107570000D03*
%TD*%
D16*
%TO.C,J8*%
X70730000Y-57640000D03*
D17*
X70730000Y-59640000D03*
X70730000Y-61640000D03*
X70730000Y-63640000D03*
%TD*%
D18*
%TO.C,U1*%
X134157248Y-128905000D03*
D19*
X136697248Y-128905000D03*
X139237248Y-128905000D03*
X141777248Y-128905000D03*
X144317248Y-128905000D03*
X146857248Y-128905000D03*
X149397248Y-128905000D03*
X149397248Y-121285000D03*
X146857248Y-121285000D03*
X144317248Y-121285000D03*
X141777248Y-121285000D03*
X139237248Y-121285000D03*
X136697248Y-121285000D03*
X134157248Y-121285000D03*
%TD*%
D20*
%TO.C,L432KC1*%
X108503248Y-55626000D03*
D21*
X108503248Y-58166000D03*
X108503248Y-60706000D03*
X108503248Y-63246000D03*
X108503248Y-65786000D03*
X108503248Y-68326000D03*
X108503248Y-70866000D03*
X108503248Y-73406000D03*
X108503248Y-75946000D03*
X108503248Y-78486000D03*
X108503248Y-81026000D03*
X108503248Y-83566000D03*
X108503248Y-86106000D03*
X108503248Y-88646000D03*
X108503248Y-91186000D03*
X123743248Y-91186000D03*
X123743248Y-88646000D03*
X123743248Y-86106000D03*
X123743248Y-83566000D03*
X123743248Y-81026000D03*
X123743248Y-78486000D03*
X123743248Y-75946000D03*
X123743248Y-73406000D03*
X123743248Y-70866000D03*
X123743248Y-68326000D03*
X123743248Y-65786000D03*
X123743248Y-63246000D03*
X123743248Y-60706000D03*
X123743248Y-58166000D03*
X123743248Y-55626000D03*
%TD*%
D16*
%TO.C,J9*%
X81730000Y-57600000D03*
D17*
X81730000Y-59600000D03*
X81730000Y-61600000D03*
X81730000Y-63600000D03*
%TD*%
D13*
%TO.C,SW103*%
X151360000Y-49320000D03*
X151360000Y-55820000D03*
X146860000Y-49320000D03*
X146860000Y-55820000D03*
%TD*%
%TO.C,SW101*%
X131670000Y-55990000D03*
X131670000Y-49490000D03*
X136170000Y-55990000D03*
X136170000Y-49490000D03*
%TD*%
D14*
%TO.C,J4*%
X70911248Y-70739000D03*
D15*
X70911248Y-73279000D03*
X70911248Y-75819000D03*
X70911248Y-78359000D03*
X70911248Y-80899000D03*
X70911248Y-83439000D03*
X70911248Y-85979000D03*
X70911248Y-88519000D03*
%TD*%
D14*
%TO.C,J2*%
X79030000Y-51010000D03*
D15*
X81570000Y-51010000D03*
X84110000Y-51010000D03*
X86650000Y-51010000D03*
%TD*%
D22*
%TO.C,J1*%
X141997282Y-113187349D03*
D23*
X139457282Y-113187349D03*
X141997282Y-110647349D03*
X139457282Y-110647349D03*
X141997282Y-108107349D03*
X139457282Y-108107349D03*
X141997282Y-105567349D03*
X139457282Y-105567349D03*
X141997282Y-103027349D03*
X139457282Y-103027349D03*
X141997282Y-100487349D03*
X139457282Y-100487349D03*
X141997282Y-97947349D03*
X139457282Y-97947349D03*
X141997282Y-95407349D03*
X139457282Y-95407349D03*
X141997282Y-92867349D03*
X139457282Y-92867349D03*
X141997282Y-90327349D03*
X139457282Y-90327349D03*
X141997282Y-87787349D03*
X139457282Y-87787349D03*
X141997282Y-85247349D03*
X139457282Y-85247349D03*
X141997282Y-82707349D03*
X139457282Y-82707349D03*
X141997282Y-80167349D03*
X139457282Y-80167349D03*
X141997282Y-77627349D03*
X139457282Y-77627349D03*
X141997282Y-75087349D03*
X139457282Y-75087349D03*
X141997282Y-72547349D03*
X139457282Y-72547349D03*
X141997282Y-70007349D03*
X139457282Y-70007349D03*
X141997282Y-67467349D03*
X139457282Y-67467349D03*
X141997282Y-64927349D03*
X139457282Y-64927349D03*
%TD*%
D24*
%TO.C,R7*%
X98943448Y-64617600D03*
X100943448Y-64617600D03*
%TD*%
D25*
X73750000Y-43050000D02*
X73750000Y-46550000D01*
X63750000Y-43050000D02*
X73750000Y-43050000D01*
X73750000Y-131550000D02*
X153750000Y-131550000D01*
X73750000Y-46550000D02*
X153750000Y-46550000D01*
X63750000Y-135050000D02*
X73750000Y-135050000D01*
X153750000Y-131550000D02*
X153750000Y-46550000D01*
X63750000Y-135050000D02*
X63750000Y-43050000D01*
X73750000Y-131550000D02*
X73750000Y-135050000D01*
M02*
