%TF.GenerationSoftware,KiCad,Pcbnew,7.0.5-7.0.5~ubuntu22.04.1*%
%TF.CreationDate,2023-06-27T08:30:26+02:00*%
%TF.ProjectId,Com_Nucleo-L432kc,436f6d5f-4e75-4636-9c65-6f2d4c343332,rev?*%
%TF.SameCoordinates,Original*%
%TF.FileFunction,Copper,L2,Bot*%
%TF.FilePolarity,Positive*%
%FSLAX46Y46*%
G04 Gerber Fmt 4.6, Leading zero omitted, Abs format (unit mm)*
G04 Created by KiCad (PCBNEW 7.0.5-7.0.5~ubuntu22.04.1) date 2023-06-27 08:30:26*
%MOMM*%
%LPD*%
G01*
G04 APERTURE LIST*
G04 Aperture macros list*
%AMRoundRect*
0 Rectangle with rounded corners*
0 $1 Rounding radius*
0 $2 $3 $4 $5 $6 $7 $8 $9 X,Y pos of 4 corners*
0 Add a 4 corners polygon primitive as box body*
4,1,4,$2,$3,$4,$5,$6,$7,$8,$9,$2,$3,0*
0 Add four circle primitives for the rounded corners*
1,1,$1+$1,$2,$3*
1,1,$1+$1,$4,$5*
1,1,$1+$1,$6,$7*
1,1,$1+$1,$8,$9*
0 Add four rect primitives between the rounded corners*
20,1,$1+$1,$2,$3,$4,$5,0*
20,1,$1+$1,$4,$5,$6,$7,0*
20,1,$1+$1,$6,$7,$8,$9,0*
20,1,$1+$1,$8,$9,$2,$3,0*%
G04 Aperture macros list end*
%TA.AperFunction,ComponentPad*%
%ADD10C,1.600000*%
%TD*%
%TA.AperFunction,ComponentPad*%
%ADD11O,2.100000X1.600000*%
%TD*%
%TA.AperFunction,ComponentPad*%
%ADD12O,2.000000X1.600000*%
%TD*%
%TA.AperFunction,ComponentPad*%
%ADD13O,1.700000X2.200000*%
%TD*%
%TA.AperFunction,ComponentPad*%
%ADD14O,1.600000X2.200000*%
%TD*%
%TA.AperFunction,SMDPad,CuDef*%
%ADD15R,0.700000X0.510000*%
%TD*%
%TA.AperFunction,SMDPad,CuDef*%
%ADD16RoundRect,0.250000X-0.475000X0.250000X-0.475000X-0.250000X0.475000X-0.250000X0.475000X0.250000X0*%
%TD*%
%TA.AperFunction,SMDPad,CuDef*%
%ADD17RoundRect,0.250000X0.450000X-0.262500X0.450000X0.262500X-0.450000X0.262500X-0.450000X-0.262500X0*%
%TD*%
%TA.AperFunction,SMDPad,CuDef*%
%ADD18R,0.510000X0.700000*%
%TD*%
%TA.AperFunction,SMDPad,CuDef*%
%ADD19RoundRect,0.250000X0.250000X0.475000X-0.250000X0.475000X-0.250000X-0.475000X0.250000X-0.475000X0*%
%TD*%
%TA.AperFunction,SMDPad,CuDef*%
%ADD20R,0.532600X1.969999*%
%TD*%
%TA.AperFunction,ViaPad*%
%ADD21C,1.600000*%
%TD*%
%TA.AperFunction,Conductor*%
%ADD22C,0.500000*%
%TD*%
%TA.AperFunction,Conductor*%
%ADD23C,0.300000*%
%TD*%
%TA.AperFunction,Conductor*%
%ADD24C,0.250000*%
%TD*%
G04 APERTURE END LIST*
D10*
%TO.P,JP5,1,A*%
%TO.N,Net-(CR1-ASC)*%
X152175000Y-121275000D03*
%TO.P,JP5,2,B*%
%TO.N,+3V3*%
X149635000Y-121275000D03*
%TD*%
%TO.P,J3,1,Pin_1*%
%TO.N,/SCL*%
X77931500Y-61340000D03*
%TO.P,J3,2,Pin_2*%
%TO.N,/SDA*%
X77931500Y-59340000D03*
%TO.P,J3,3,Pin_3*%
%TO.N,+3V3*%
X77931500Y-57340000D03*
%TO.P,J3,4,Pin_4*%
%TO.N,GND*%
X77931500Y-55340000D03*
%TD*%
D11*
%TO.P,J5,1,Pin_1*%
%TO.N,/PWM_MKR*%
X94027000Y-102765000D03*
%TO.P,J5,2,Pin_2*%
%TO.N,/INT_MKR*%
X94027000Y-105305000D03*
%TO.P,J5,3,Pin_3*%
%TO.N,unconnected-(J5-Pin_3-Pad3)*%
X94027000Y-107845000D03*
%TO.P,J5,4,Pin_4*%
%TO.N,unconnected-(J5-Pin_4-Pad4)*%
X94027000Y-110385000D03*
%TO.P,J5,5,Pin_5*%
%TO.N,/SCL*%
X94027000Y-112925000D03*
%TO.P,J5,6,Pin_6*%
%TO.N,/SDA*%
X94027000Y-115465000D03*
%TO.P,J5,7,Pin_7*%
%TO.N,unconnected-(J5-Pin_7-Pad7)*%
X94027000Y-118005000D03*
%TO.P,J5,8,Pin_8*%
%TO.N,GND*%
X94027000Y-120545000D03*
%TD*%
D12*
%TO.P,J6,1,Pin_1*%
%TO.N,/Vin*%
X105489999Y-123156052D03*
%TO.P,J6,2,Pin_2*%
%TO.N,GND*%
X105489999Y-120616052D03*
%TO.P,J6,3,Pin_3*%
%TO.N,unconnected-(J6-Pin_3-Pad3)*%
X105489999Y-118076052D03*
%TO.P,J6,4,Pin_4*%
%TO.N,Net-(J6-Pin_4)*%
X105489999Y-115536052D03*
%TO.P,J6,5,Pin_5*%
%TO.N,/INT_MKR*%
X105489999Y-112996052D03*
%TO.P,J6,6,Pin_6*%
%TO.N,/MCU_MOSI*%
X105489999Y-110456052D03*
%TO.P,J6,7,Pin_7*%
%TO.N,/MISO*%
X105489999Y-107916052D03*
%TO.P,J6,8,Pin_8*%
%TO.N,/RESET_SIGNAL*%
X105489999Y-105376052D03*
%TO.P,J6,9,Pin_9*%
%TO.N,/AN*%
X105489999Y-102836052D03*
%TO.P,J6,10,Pin_10*%
%TO.N,/GPIO(6)*%
X105489999Y-100296052D03*
%TO.P,J6,11,Pin_11*%
%TO.N,/HOST_SCK*%
X105489999Y-97756052D03*
%TO.P,J6,12,Pin_12*%
%TO.N,/SENS_ROUE{slash}MAG-X*%
X105489999Y-95216052D03*
%TO.P,J6,13,Pin_13*%
%TO.N,/AREF*%
X105489999Y-92676052D03*
%TO.P,J6,14,Pin_14*%
%TO.N,/3.3V*%
X105489999Y-90136052D03*
%TO.P,J6,15,Pin_15*%
%TO.N,/SENS_MAG-Y*%
X105489999Y-87596052D03*
%TD*%
%TO.P,J7,1,Pin_1*%
%TO.N,/SCL*%
X129620000Y-123168000D03*
%TO.P,J7,2,Pin_2*%
%TO.N,/SDA*%
X129620000Y-120628000D03*
%TO.P,J7,3,Pin_3*%
%TO.N,/L432KC_RESET*%
X129620000Y-118088000D03*
%TO.P,J7,4,Pin_4*%
%TO.N,GND*%
X129620000Y-115548000D03*
%TO.P,J7,5,Pin_5*%
%TO.N,/CAN1_TX*%
X129620000Y-113008000D03*
%TO.P,J7,6,Pin_6*%
%TO.N,/PWM_MAG-Y*%
X129620000Y-110468000D03*
%TO.P,J7,7,Pin_7*%
%TO.N,/TX_CALC*%
X129620000Y-107928000D03*
%TO.P,J7,8,Pin_8*%
%TO.N,/RX_CALC*%
X129620000Y-105388000D03*
%TO.P,J7,9,Pin_9*%
%TO.N,/PWM_MKR*%
X129620000Y-102848000D03*
%TO.P,J7,10,Pin_10*%
%TO.N,unconnected-(J7-Pin_10-Pad10)*%
X129620000Y-100308000D03*
%TO.P,J7,11,Pin_11*%
%TO.N,unconnected-(J7-Pin_11-Pad11)*%
X129620000Y-97768000D03*
%TO.P,J7,12,Pin_12*%
%TO.N,/PWM_ROUE{slash}MAG-X*%
X129620000Y-95228000D03*
%TO.P,J7,13,Pin_13*%
%TO.N,/CAN1_RX*%
X129620000Y-92688000D03*
%TO.P,J7,14,Pin_14*%
%TO.N,/MCU_NRESET*%
X129620000Y-90148000D03*
%TO.P,J7,15,Pin_15*%
%TO.N,/CS_MCU*%
X129620000Y-87608000D03*
%TD*%
D10*
%TO.P,JP4,1,A*%
%TO.N,/STANDBY_GPS*%
X133600000Y-74325000D03*
%TO.P,JP4,2,B*%
%TO.N,GND*%
X133600000Y-76865000D03*
%TD*%
%TO.P,J8,1,Pin_1*%
%TO.N,/SCL*%
X107950000Y-61277000D03*
%TO.P,J8,2,Pin_2*%
%TO.N,/SDA*%
X107950000Y-59277000D03*
%TO.P,J8,3,Pin_3*%
%TO.N,+3V3*%
X107950000Y-57277000D03*
%TO.P,J8,4,Pin_4*%
%TO.N,GND*%
X107950000Y-55277000D03*
%TD*%
D13*
%TO.P,U1,1*%
%TO.N,/MCU_NRESET*%
X135890000Y-60960000D03*
D14*
%TO.P,U1,2*%
%TO.N,/SX1303_RESET*%
X138430000Y-60960000D03*
%TO.P,U1,3*%
%TO.N,N/C*%
X140970000Y-60960000D03*
%TO.P,U1,4*%
X143510000Y-60960000D03*
D13*
%TO.P,U1,5*%
%TO.N,/CS_MCU*%
X146050000Y-60960000D03*
%TO.P,U1,6*%
%TO.N,Net-(B2-OE)*%
X148590000Y-60960000D03*
%TO.P,U1,7,GND*%
%TO.N,GND*%
X151130000Y-60960000D03*
%TO.P,U1,8*%
%TO.N,N/C*%
X151130000Y-53340000D03*
%TO.P,U1,9*%
X148590000Y-53340000D03*
%TO.P,U1,10*%
X146050000Y-53340000D03*
%TO.P,U1,11*%
X143510000Y-53340000D03*
%TO.P,U1,12*%
X140970000Y-53340000D03*
%TO.P,U1,13*%
X138430000Y-53340000D03*
%TO.P,U1,14,VCC*%
%TO.N,+3V3*%
X135890000Y-53340000D03*
%TD*%
D12*
%TO.P,L432KC1,1,D1*%
%TO.N,/SCL*%
X125300000Y-123168000D03*
%TO.P,L432KC1,2,D0*%
%TO.N,/SDA*%
X125300000Y-120628000D03*
%TO.P,L432KC1,3,RESET*%
%TO.N,/L432KC_RESET*%
X125300000Y-118088000D03*
%TO.P,L432KC1,4,GND*%
%TO.N,GND*%
X125300000Y-115548000D03*
%TO.P,L432KC1,5,D2*%
%TO.N,/CAN1_TX*%
X125300000Y-113008000D03*
%TO.P,L432KC1,6,D3*%
%TO.N,/PWM_MAG-Y*%
X125300000Y-110468000D03*
%TO.P,L432KC1,7,D4*%
%TO.N,/TX_CALC*%
X125300000Y-107928000D03*
%TO.P,L432KC1,8,D5*%
%TO.N,/RX_CALC*%
X125300000Y-105388000D03*
%TO.P,L432KC1,9,D6*%
%TO.N,/PWM_MKR*%
X125300000Y-102848000D03*
%TO.P,L432KC1,10,D7*%
%TO.N,unconnected-(L432KC1-D7-Pad10)*%
X125300000Y-100308000D03*
%TO.P,L432KC1,11,D8*%
%TO.N,unconnected-(L432KC1-D8-Pad11)*%
X125300000Y-97768000D03*
%TO.P,L432KC1,12,D9*%
%TO.N,/PWM_ROUE{slash}MAG-X*%
X125300000Y-95228000D03*
%TO.P,L432KC1,13,D10*%
%TO.N,/CAN1_RX*%
X125300000Y-92688000D03*
%TO.P,L432KC1,14,D11*%
%TO.N,/MCU_NRESET*%
X125300000Y-90148000D03*
%TO.P,L432KC1,15,D12*%
%TO.N,/CS_MCU*%
X125300000Y-87608000D03*
%TO.P,L432KC1,16,D13*%
%TO.N,/SENS_MAG-Y*%
X110060000Y-87608000D03*
%TO.P,L432KC1,17,+3V3*%
%TO.N,/3.3V*%
X110060000Y-90148000D03*
%TO.P,L432KC1,18,AREF*%
%TO.N,/AREF*%
X110060000Y-92688000D03*
%TO.P,L432KC1,19,A0*%
%TO.N,/SENS_ROUE{slash}MAG-X*%
X110060000Y-95228000D03*
%TO.P,L432KC1,20,A1*%
%TO.N,/HOST_SCK*%
X110060000Y-97768000D03*
%TO.P,L432KC1,21,A2*%
%TO.N,/GPIO(6)*%
X110060000Y-100308000D03*
%TO.P,L432KC1,22,A3*%
%TO.N,/AN*%
X110060000Y-102848000D03*
%TO.P,L432KC1,23,A4*%
%TO.N,/RESET_SIGNAL*%
X110060000Y-105388000D03*
%TO.P,L432KC1,24,A5*%
%TO.N,/MISO*%
X110060000Y-107928000D03*
%TO.P,L432KC1,25,A6*%
%TO.N,/MCU_MOSI*%
X110060000Y-110468000D03*
%TO.P,L432KC1,26,A7*%
%TO.N,/INT_MKR*%
X110060000Y-113008000D03*
%TO.P,L432KC1,27,+5V*%
%TO.N,Net-(J6-Pin_4)*%
X110060000Y-115548000D03*
%TO.P,L432KC1,28,RESET*%
%TO.N,unconnected-(L432KC1-RESET-Pad28)*%
X110060000Y-118088000D03*
%TO.P,L432KC1,29,GND*%
%TO.N,GND*%
X110060000Y-120628000D03*
%TO.P,L432KC1,30,VIN*%
%TO.N,/Vin*%
X110060000Y-123168000D03*
%TD*%
D10*
%TO.P,J9,1,Pin_1*%
%TO.N,/SCL*%
X93002500Y-61277000D03*
%TO.P,J9,2,Pin_2*%
%TO.N,/SDA*%
X93002500Y-59277000D03*
%TO.P,J9,3,Pin_3*%
%TO.N,+3V3*%
X93002500Y-57277000D03*
%TO.P,J9,4,Pin_4*%
%TO.N,GND*%
X93002500Y-55277000D03*
%TD*%
D11*
%TO.P,J4,1,Pin_1*%
%TO.N,/AN*%
X71167000Y-102765000D03*
%TO.P,J4,2,Pin_2*%
%TO.N,/MCU_NRESET*%
X71167000Y-105305000D03*
%TO.P,J4,3,Pin_3*%
%TO.N,/CS_MCU*%
X71167000Y-107845000D03*
%TO.P,J4,4,Pin_4*%
%TO.N,/HOST_SCK*%
X71167000Y-110385000D03*
%TO.P,J4,5,Pin_5*%
%TO.N,/MKB_MISO*%
X71167000Y-112925000D03*
%TO.P,J4,6,Pin_6*%
%TO.N,/MCU_MOSI*%
X71167000Y-115465000D03*
%TO.P,J4,7,Pin_7*%
%TO.N,+3V3*%
X71167000Y-118005000D03*
%TO.P,J4,8,Pin_8*%
%TO.N,GND*%
X71167000Y-120545000D03*
%TD*%
D10*
%TO.P,J2,1,Pin_1*%
%TO.N,+3V3*%
X79582000Y-128502000D03*
%TO.P,J2,2,Pin_2*%
%TO.N,/SCL*%
X82122000Y-128502000D03*
%TO.P,J2,3,Pin_3*%
%TO.N,/SDA*%
X84662000Y-128502000D03*
%TO.P,J2,4,Pin_4*%
%TO.N,GND*%
X87202000Y-128502000D03*
%TD*%
D11*
%TO.P,J1,1,GND*%
%TO.N,GND*%
X139662718Y-64912651D03*
%TO.P,J1,2,3V3*%
%TO.N,+3V3*%
X142202718Y-64912651D03*
%TO.P,J1,3,V_IN*%
%TO.N,/Vin*%
X139662718Y-67452651D03*
%TO.P,J1,4,5V*%
%TO.N,unconnected-(J1-5V-Pad4)*%
X142202718Y-67452651D03*
%TO.P,J1,5,V_B*%
%TO.N,unconnected-(J1-V_B-Pad5)*%
X139662718Y-69992651D03*
%TO.P,J1,6,NC1*%
%TO.N,/PWM_ROUE{slash}MAG-X*%
X142202718Y-69992651D03*
%TO.P,J1,7,NC2*%
%TO.N,unconnected-(J1-NC2-Pad7)*%
X139662718Y-72532651D03*
%TO.P,J1,8,NC3*%
%TO.N,/SENS_ROUE{slash}MAG-X*%
X142202718Y-72532651D03*
%TO.P,J1,9,NC4*%
%TO.N,/PWM_MAG-Y*%
X139662718Y-75072651D03*
%TO.P,J1,10,RD-*%
%TO.N,unconnected-(J1-RD--Pad10)*%
X142202718Y-75072651D03*
%TO.P,J1,11,NC*%
%TO.N,/SENS_MAG-Y*%
X139662718Y-77612651D03*
%TO.P,J1,12,RD+*%
%TO.N,unconnected-(J1-RD+-Pad12)*%
X142202718Y-77612651D03*
%TO.P,J1,13,NC*%
%TO.N,unconnected-(J1-NC-Pad13)*%
X139662718Y-80152651D03*
%TO.P,J1,14,TD-*%
%TO.N,unconnected-(J1-TD--Pad14)*%
X142202718Y-80152651D03*
%TO.P,J1,15,NC*%
%TO.N,unconnected-(J1-NC-Pad15)*%
X139662718Y-82692651D03*
%TO.P,J1,16,TD+*%
%TO.N,unconnected-(J1-TD+-Pad16)*%
X142202718Y-82692651D03*
%TO.P,J1,17,RX/SDA*%
%TO.N,/RX_CALC*%
X139662718Y-85232651D03*
%TO.P,J1,18,D-*%
%TO.N,unconnected-(J1-D--Pad18)*%
X142202718Y-85232651D03*
%TO.P,J1,19,TX/SCL*%
%TO.N,/TX_CALC*%
X139662718Y-87772651D03*
%TO.P,J1,20,D+*%
%TO.N,unconnected-(J1-D+-Pad20)*%
X142202718Y-87772651D03*
%TO.P,J1,21,SCK*%
%TO.N,unconnected-(J1-SCK-Pad21)*%
X139662718Y-90312651D03*
%TO.P,J1,22,RD*%
%TO.N,/CAN_RD*%
X142202718Y-90312651D03*
%TO.P,J1,23,MOSI*%
%TO.N,unconnected-(J1-MOSI-Pad23)*%
X139662718Y-92852651D03*
%TO.P,J1,24,TD*%
%TO.N,/CAN_TD*%
X142202718Y-92852651D03*
%TO.P,J1,25,MISO*%
%TO.N,unconnected-(J1-MISO-Pad25)*%
X139662718Y-95392651D03*
%TO.P,J1,26,SDA/RX*%
%TO.N,/SDA*%
X142202718Y-95392651D03*
%TO.P,J1,27,SSEL*%
%TO.N,unconnected-(J1-SSEL-Pad27)*%
X139662718Y-97932651D03*
%TO.P,J1,28,SCL/TX*%
%TO.N,/SCL*%
X142202718Y-97932651D03*
%TO.P,J1,29,AI_1*%
%TO.N,unconnected-(J1-AI_1-Pad29)*%
X139662718Y-100472651D03*
%TO.P,J1,30,PWM_O_1*%
%TO.N,/RESET_SIGNAL*%
X142202718Y-100472651D03*
%TO.P,J1,31,AI_2*%
%TO.N,unconnected-(J1-AI_2-Pad31)*%
X139662718Y-103012651D03*
%TO.P,J1,32,PWM_O_2*%
%TO.N,unconnected-(J1-PWM_O_2-Pad32)*%
X142202718Y-103012651D03*
%TO.P,J1,33,AI_3*%
%TO.N,unconnected-(J1-AI_3-Pad33)*%
X139662718Y-105552651D03*
%TO.P,J1,34,PWM_O_3*%
%TO.N,unconnected-(J1-PWM_O_3-Pad34)*%
X142202718Y-105552651D03*
%TO.P,J1,35,AI_4*%
%TO.N,unconnected-(J1-AI_4-Pad35)*%
X139662718Y-108092651D03*
%TO.P,J1,36,PWM_O_4*%
%TO.N,unconnected-(J1-PWM_O_4-Pad36)*%
X142202718Y-108092651D03*
%TO.P,J1,37,AI_5*%
%TO.N,unconnected-(J1-AI_5-Pad37)*%
X139662718Y-110632651D03*
%TO.P,J1,38,PWM_O_5*%
%TO.N,unconnected-(J1-PWM_O_5-Pad38)*%
X142202718Y-110632651D03*
%TO.P,J1,39,AI_6*%
%TO.N,unconnected-(J1-AI_6-Pad39)*%
X139662718Y-113172651D03*
%TO.P,J1,40,PWM_O_6*%
%TO.N,unconnected-(J1-PWM_O_6-Pad40)*%
X142202718Y-113172651D03*
%TD*%
D15*
%TO.P,B2,1,OE*%
%TO.N,Net-(B2-OE)*%
X118046000Y-128436000D03*
%TO.P,B2,2,A*%
%TO.N,/MKB_MISO*%
X118046000Y-127486000D03*
%TO.P,B2,3,GND*%
%TO.N,GND*%
X118046000Y-126536000D03*
%TO.P,B2,4,Y*%
%TO.N,/MISO*%
X120366000Y-126536000D03*
%TO.P,B2,5,VCC*%
%TO.N,+3V3*%
X120366000Y-128436000D03*
%TD*%
D16*
%TO.P,C9,1*%
%TO.N,+3V3*%
X146130000Y-125078000D03*
%TO.P,C9,2*%
%TO.N,GND*%
X146130000Y-126978000D03*
%TD*%
D17*
%TO.P,R4,1*%
%TO.N,/HOST_MISO*%
X117555000Y-101625000D03*
%TO.P,R4,2*%
%TO.N,Net-(IC1-RESERVED2)*%
X117555000Y-99800000D03*
%TD*%
%TO.P,R6,1*%
%TO.N,/CS_MCU*%
X80090000Y-97815000D03*
%TO.P,R6,2*%
%TO.N,Net-(IC1-RESERVED4)*%
X80090000Y-95990000D03*
%TD*%
D18*
%TO.P,B1,1,OE*%
%TO.N,/CS_MCU*%
X118596936Y-107770418D03*
%TO.P,B1,2,A*%
%TO.N,/HOST_MISO*%
X117646936Y-107770418D03*
%TO.P,B1,3,GND*%
%TO.N,GND*%
X116696936Y-107770418D03*
%TO.P,B1,4,Y*%
%TO.N,/MISO*%
X116696936Y-105450418D03*
%TO.P,B1,5,VCC*%
%TO.N,/3.3V*%
X118596936Y-105450418D03*
%TD*%
D16*
%TO.P,C10,1*%
%TO.N,+3V3*%
X144098000Y-125078000D03*
%TO.P,C10,2*%
%TO.N,GND*%
X144098000Y-126978000D03*
%TD*%
D19*
%TO.P,C8,1*%
%TO.N,/Vin*%
X100965000Y-124460000D03*
%TO.P,C8,2*%
%TO.N,GND*%
X99065000Y-124460000D03*
%TD*%
D20*
%TO.P,CR1,1,TX0*%
%TO.N,/CAN1_TX*%
X145749000Y-121948800D03*
%TO.P,CR1,2,GND*%
%TO.N,GND*%
X144479000Y-121948800D03*
%TO.P,CR1,3,VS*%
%TO.N,+3V3*%
X143209000Y-121948800D03*
%TO.P,CR1,4,RX0*%
%TO.N,/CAN1_RX*%
X141939000Y-121948800D03*
%TO.P,CR1,5,RX1*%
%TO.N,unconnected-(CR1-RX1-Pad5)*%
X141939000Y-117021200D03*
%TO.P,CR1,6,C_L*%
%TO.N,/CAN_RD*%
X143209000Y-117021200D03*
%TO.P,CR1,7,C_H*%
%TO.N,/CAN_TD*%
X144479000Y-117021200D03*
%TO.P,CR1,8,ASC*%
%TO.N,Net-(CR1-ASC)*%
X145749000Y-117021200D03*
%TD*%
D19*
%TO.P,C7,1*%
%TO.N,/Vin*%
X100965000Y-121450000D03*
%TO.P,C7,2*%
%TO.N,GND*%
X99065000Y-121450000D03*
%TD*%
D17*
%TO.P,R5,1*%
%TO.N,/MCU_MOSI*%
X82630000Y-97838500D03*
%TO.P,R5,2*%
%TO.N,Net-(IC1-RESERVED3)*%
X82630000Y-96013500D03*
%TD*%
D19*
%TO.P,C14,1*%
%TO.N,+3V3*%
X68575000Y-121755000D03*
%TO.P,C14,2*%
%TO.N,GND*%
X66675000Y-121755000D03*
%TD*%
%TO.P,C13,1*%
%TO.N,+3V3*%
X68575000Y-118745000D03*
%TO.P,C13,2*%
%TO.N,GND*%
X66675000Y-118745000D03*
%TD*%
D17*
%TO.P,R3,1*%
%TO.N,/HOST_SCK*%
X85424000Y-97918500D03*
%TO.P,R3,2*%
%TO.N,Net-(IC1-RESERVED1)*%
X85424000Y-96093500D03*
%TD*%
D21*
%TO.N,GND*%
X111450000Y-58075000D03*
X70600000Y-127625000D03*
X125350000Y-62450000D03*
X118249041Y-86226905D03*
X122275000Y-121225000D03*
X132275000Y-59150000D03*
X118315000Y-74292117D03*
X146100000Y-128975000D03*
X136095000Y-127256850D03*
X85805000Y-116310000D03*
X77675000Y-81258000D03*
X120850000Y-114850000D03*
X65875000Y-124400000D03*
X138975000Y-57925000D03*
X113463513Y-114355592D03*
X97995000Y-66653000D03*
X114200000Y-120650000D03*
X135400000Y-58100000D03*
X134975000Y-69825000D03*
X96090000Y-88878000D03*
X136675000Y-65100000D03*
X147650000Y-121325000D03*
%TO.N,/HOST_SCK*%
X68914000Y-111738000D03*
%TO.N,/SDA*%
X89615000Y-120120000D03*
X136732000Y-97006000D03*
%TO.N,/SCL*%
X87710000Y-118850000D03*
X97235000Y-115675000D03*
X119460000Y-123295000D03*
X136732000Y-98905503D03*
%TO.N,/RESET_SIGNAL*%
X134124377Y-111750000D03*
X100875000Y-111150000D03*
%TO.N,/MCU_NRESET*%
X73825000Y-116900000D03*
X126776500Y-65475000D03*
%TO.N,/CS_MCU*%
X120855000Y-93323000D03*
X79600788Y-101447873D03*
X122385470Y-103995470D03*
%TO.N,Net-(B2-OE)*%
X118444000Y-129714500D03*
X133650000Y-130575000D03*
%TO.N,/SX1303_RESET*%
X117550000Y-66850000D03*
%TO.N,Net-(IC1-RESERVED1)*%
X125175000Y-59143509D03*
%TO.N,Net-(IC1-RESERVED2)*%
X115904000Y-98276000D03*
%TO.N,Net-(IC1-RESERVED3)*%
X124596051Y-56149947D03*
%TO.N,Net-(IC1-RESERVED4)*%
X124665000Y-54059500D03*
%TO.N,/AN*%
X76026000Y-97514000D03*
%TO.N,/MCU_MOSI*%
X74375000Y-114405000D03*
%TO.N,/PWM_MKR*%
X97231469Y-103613531D03*
%TO.N,/INT_MKR*%
X96600000Y-107420000D03*
%TD*%
D22*
%TO.N,+3V3*%
X143209000Y-121948800D02*
X143209000Y-120463801D01*
X81360000Y-130280000D02*
X69955000Y-130280000D01*
X69315000Y-118005000D02*
X68575000Y-118745000D01*
X144098000Y-125078000D02*
X142147000Y-125078000D01*
X117100311Y-130280000D02*
X81360000Y-130280000D01*
X119003189Y-131064500D02*
X120258845Y-129808845D01*
X120366000Y-129701689D02*
X120366000Y-129645000D01*
X138425000Y-128800000D02*
X123502000Y-128800000D01*
X120258845Y-129808845D02*
X120411690Y-129656000D01*
X71167000Y-118005000D02*
X69315000Y-118005000D01*
X69955000Y-130280000D02*
X68575000Y-128900000D01*
X146130000Y-125078000D02*
X144098000Y-125078000D01*
X120258845Y-129808845D02*
X120366000Y-129701689D01*
X119003189Y-131064500D02*
X117884811Y-131064500D01*
X120411690Y-129656000D02*
X122646000Y-129656000D01*
X149635000Y-121275000D02*
X149635000Y-121573000D01*
X147972000Y-119612000D02*
X149635000Y-121275000D01*
X143209000Y-120463801D02*
X144060801Y-119612000D01*
X117884811Y-131064500D02*
X117100311Y-130280000D01*
X68575000Y-118745000D02*
X68575000Y-121755000D01*
X149635000Y-121573000D02*
X146130000Y-125078000D01*
X68575000Y-128900000D02*
X68575000Y-121755000D01*
X81360000Y-130280000D02*
X79582000Y-128502000D01*
X123502000Y-128800000D02*
X122646000Y-129656000D01*
X144060801Y-119612000D02*
X147972000Y-119612000D01*
X120366000Y-128436000D02*
X120366000Y-129645000D01*
X142147000Y-125078000D02*
X138425000Y-128800000D01*
D23*
%TO.N,GND*%
X144479000Y-121230101D02*
X145384101Y-120325000D01*
X138975000Y-57925000D02*
X140002767Y-57925000D01*
X142220000Y-62355369D02*
X139662718Y-64912651D01*
X142220000Y-60142233D02*
X142220000Y-62355369D01*
X140002767Y-57925000D02*
X142220000Y-60142233D01*
X144098000Y-126978000D02*
X146130000Y-126978000D01*
D22*
X65875000Y-124400000D02*
X65875000Y-122555000D01*
D23*
X145384101Y-120325000D02*
X146650000Y-120325000D01*
D22*
X71167000Y-120545000D02*
X71167000Y-127058000D01*
D23*
X129620000Y-115548000D02*
X125300000Y-115548000D01*
X144479000Y-121948800D02*
X144479000Y-121230101D01*
X133325000Y-58100000D02*
X132275000Y-59150000D01*
X146650000Y-120325000D02*
X147650000Y-121325000D01*
D22*
X71167000Y-127058000D02*
X70600000Y-127625000D01*
X65875000Y-122555000D02*
X66675000Y-121755000D01*
D23*
X135400000Y-58100000D02*
X133325000Y-58100000D01*
D22*
%TO.N,/Vin*%
X100965000Y-124460000D02*
X102268948Y-123156052D01*
X100965000Y-121450000D02*
X100965000Y-124460000D01*
X133289034Y-67452651D02*
X131675685Y-69066000D01*
X99140000Y-119625000D02*
X100965000Y-121450000D01*
X139662718Y-67452651D02*
X133289034Y-67452651D01*
X105489999Y-123156052D02*
X105501947Y-123168000D01*
X105501947Y-123168000D02*
X110060000Y-123168000D01*
X99140000Y-88370000D02*
X99140000Y-119625000D01*
X102268948Y-123156052D02*
X105489999Y-123156052D01*
X131675685Y-69066000D02*
X118444000Y-69066000D01*
X118444000Y-69066000D02*
X99140000Y-88370000D01*
D23*
%TO.N,/HOST_SCK*%
X85424000Y-101451000D02*
X76490000Y-110385000D01*
X76490000Y-110385000D02*
X71167000Y-110385000D01*
X85424000Y-97918500D02*
X85424000Y-101451000D01*
X105489999Y-97756052D02*
X105501947Y-97768000D01*
X70267000Y-110385000D02*
X68914000Y-111738000D01*
X71167000Y-110385000D02*
X70267000Y-110385000D01*
X105501947Y-97768000D02*
X110060000Y-97768000D01*
%TO.N,/HOST_MISO*%
X117555000Y-101625000D02*
X117646936Y-101716936D01*
X117646936Y-101716936D02*
X117646936Y-107770418D01*
D24*
%TO.N,/PWM_ROUE{slash}MAG-X*%
X129620000Y-95228000D02*
X125300000Y-95228000D01*
D23*
X143702718Y-71492651D02*
X143702718Y-73522282D01*
X137875000Y-88436936D02*
X131083936Y-95228000D01*
X137875000Y-74842602D02*
X137875000Y-88436936D01*
X138894951Y-73822651D02*
X137875000Y-74842602D01*
X143402349Y-73822651D02*
X138894951Y-73822651D01*
X142202718Y-69992651D02*
X143702718Y-71492651D01*
X143702718Y-73522282D02*
X143402349Y-73822651D01*
D24*
X129620000Y-95228000D02*
X131083936Y-95228000D01*
D23*
%TO.N,/SENS_ROUE{slash}MAG-X*%
X137050000Y-86718852D02*
X132350852Y-91418000D01*
X142202718Y-72532651D02*
X140952718Y-71282651D01*
X137050000Y-72685000D02*
X137050000Y-86718852D01*
X113870000Y-91418000D02*
X110060000Y-95228000D01*
X138452349Y-71282651D02*
X137050000Y-72685000D01*
X140952718Y-71282651D02*
X138452349Y-71282651D01*
X132350852Y-91418000D02*
X113870000Y-91418000D01*
X105489999Y-95216052D02*
X105501947Y-95228000D01*
X105501947Y-95228000D02*
X110060000Y-95228000D01*
%TO.N,/PWM_MAG-Y*%
X125300000Y-110468000D02*
X129620000Y-110468000D01*
%TO.N,/SENS_MAG-Y*%
X105501947Y-87608000D02*
X110060000Y-87608000D01*
X105489999Y-87596052D02*
X105501947Y-87608000D01*
%TO.N,/RX_CALC*%
X125300000Y-105388000D02*
X129620000Y-105388000D01*
%TO.N,/TX_CALC*%
X125300000Y-107928000D02*
X129620000Y-107928000D01*
%TO.N,/CAN_RD*%
X145580000Y-113818901D02*
X145580000Y-95990000D01*
X138162718Y-93853891D02*
X138162718Y-89794884D01*
X145580000Y-95990000D02*
X143732651Y-94142651D01*
X143209000Y-116189901D02*
X145580000Y-113818901D01*
X138162718Y-89794884D02*
X138894951Y-89062651D01*
X138451478Y-94142651D02*
X138162718Y-93853891D01*
X143732651Y-94142651D02*
X138451478Y-94142651D01*
X138894951Y-89062651D02*
X140952718Y-89062651D01*
X143209000Y-117021200D02*
X143209000Y-116189901D01*
X140952718Y-89062651D02*
X142202718Y-90312651D01*
%TO.N,/CAN_TD*%
X144479000Y-116302501D02*
X146180000Y-114601501D01*
X144479000Y-117021200D02*
X144479000Y-116302501D01*
X146180000Y-95725879D02*
X143306772Y-92852651D01*
X143306772Y-92852651D02*
X142202718Y-92852651D01*
X146180000Y-114601501D02*
X146180000Y-95725879D01*
D24*
%TO.N,/SDA*%
X94027000Y-115465000D02*
X94027000Y-115708000D01*
D23*
X140912718Y-96682651D02*
X142202718Y-95392651D01*
D24*
X94027000Y-115708000D02*
X89615000Y-120120000D01*
D23*
X137055349Y-96682651D02*
X140912718Y-96682651D01*
X136732000Y-97006000D02*
X137055349Y-96682651D01*
X125300000Y-120628000D02*
X129620000Y-120628000D01*
%TO.N,/SCL*%
X119587000Y-123168000D02*
X119460000Y-123295000D01*
X137009148Y-99182651D02*
X140952718Y-99182651D01*
X94027000Y-112925000D02*
X88102000Y-118850000D01*
X94485000Y-112925000D02*
X97235000Y-115675000D01*
X125300000Y-123168000D02*
X119587000Y-123168000D01*
X88102000Y-118850000D02*
X87710000Y-118850000D01*
X94027000Y-112925000D02*
X94485000Y-112925000D01*
X125300000Y-123168000D02*
X129620000Y-123168000D01*
X136732000Y-98905503D02*
X137009148Y-99182651D01*
X140952718Y-99182651D02*
X142202718Y-97932651D01*
%TO.N,/RESET_SIGNAL*%
X100875000Y-108697936D02*
X100875000Y-111150000D01*
X140912718Y-101762651D02*
X138887349Y-101762651D01*
X105489999Y-105376052D02*
X104196884Y-105376052D01*
X105501947Y-105388000D02*
X110060000Y-105388000D01*
X142202718Y-100472651D02*
X140912718Y-101762651D01*
X138887349Y-101762651D02*
X134124377Y-106525623D01*
X104196884Y-105376052D02*
X100875000Y-108697936D01*
X134124377Y-106525623D02*
X134124377Y-111750000D01*
D24*
X105489999Y-105376052D02*
X105501947Y-105388000D01*
D23*
%TO.N,/MCU_NRESET*%
X131291500Y-60960000D02*
X126776500Y-65475000D01*
X135890000Y-60960000D02*
X136700000Y-60150000D01*
X66120000Y-108690000D02*
X69505000Y-105305000D01*
X77804000Y-95736000D02*
X77804000Y-98668000D01*
X73680000Y-116755000D02*
X69740000Y-116755000D01*
X69505000Y-105305000D02*
X71167000Y-105305000D01*
X136700000Y-60150000D02*
X136700000Y-56675000D01*
X73825000Y-116900000D02*
X73680000Y-116755000D01*
X77804000Y-98668000D02*
X71167000Y-105305000D01*
X69740000Y-116755000D02*
X66120000Y-113135000D01*
X66120000Y-113135000D02*
X66120000Y-108690000D01*
X132835000Y-52810000D02*
X120730000Y-52810000D01*
X136700000Y-56675000D02*
X132835000Y-52810000D01*
X125300000Y-90148000D02*
X129620000Y-90148000D01*
X120730000Y-52810000D02*
X77804000Y-95736000D01*
X135890000Y-60960000D02*
X131291500Y-60960000D01*
%TO.N,/L432KC_RESET*%
X125300000Y-118088000D02*
X129620000Y-118088000D01*
D24*
%TO.N,/CAN1_TX*%
X142005936Y-123930000D02*
X131083936Y-113008000D01*
X145749000Y-122667499D02*
X144486499Y-123930000D01*
X129620000Y-113008000D02*
X125300000Y-113008000D01*
X145749000Y-121948800D02*
X145749000Y-122667499D01*
X144486499Y-123930000D02*
X142005936Y-123930000D01*
X129620000Y-113008000D02*
X131083936Y-113008000D01*
D23*
%TO.N,/CS_MCU*%
X122762000Y-95230000D02*
X122762000Y-103618940D01*
X80090000Y-100958661D02*
X79600788Y-101447873D01*
X146050000Y-65623136D02*
X146050000Y-60960000D01*
D24*
X129620000Y-87608000D02*
X125300000Y-87608000D01*
D23*
X142930485Y-68742651D02*
X146050000Y-65623136D01*
X80090000Y-98922000D02*
X80090000Y-100958661D01*
X122371884Y-103995470D02*
X122385470Y-103995470D01*
X80090000Y-97815000D02*
X80090000Y-98922000D01*
X138894951Y-68742651D02*
X142930485Y-68742651D01*
X122762000Y-103618940D02*
X122385470Y-103995470D01*
X80090000Y-98922000D02*
X71167000Y-107845000D01*
X136300000Y-82391936D02*
X136300000Y-71337602D01*
D24*
X129620000Y-87608000D02*
X131083936Y-87608000D01*
D23*
X118596936Y-107770418D02*
X122371884Y-103995470D01*
X120855000Y-93323000D02*
X122762000Y-95230000D01*
X136300000Y-71337602D02*
X138894951Y-68742651D01*
X131083936Y-87608000D02*
X136300000Y-82391936D01*
D24*
%TO.N,/CAN1_RX*%
X132078000Y-96543000D02*
X123949000Y-96543000D01*
X123395000Y-95989000D02*
X123395000Y-94593000D01*
X141939000Y-121948800D02*
X132899877Y-112909677D01*
X132899877Y-112909677D02*
X132899877Y-97364877D01*
X123949000Y-96543000D02*
X123395000Y-95989000D01*
X132899877Y-97364877D02*
X132078000Y-96543000D01*
D23*
X125300000Y-92688000D02*
X129620000Y-92688000D01*
D24*
X123395000Y-94593000D02*
X125300000Y-92688000D01*
D23*
%TO.N,Net-(B2-OE)*%
X152480000Y-119648617D02*
X153425000Y-120593617D01*
X152480000Y-64748000D02*
X152480000Y-119648617D01*
X148692000Y-60960000D02*
X152480000Y-64748000D01*
X153425000Y-120593617D02*
X153425000Y-122350000D01*
X118046000Y-128690000D02*
X118046000Y-128436000D01*
X153425000Y-122350000D02*
X152480000Y-123295000D01*
X152480000Y-129645000D02*
X151175000Y-130950000D01*
X148590000Y-60960000D02*
X148692000Y-60960000D01*
X134025000Y-130950000D02*
X133650000Y-130575000D01*
X151175000Y-130950000D02*
X134025000Y-130950000D01*
X152480000Y-123295000D02*
X152480000Y-129645000D01*
X118444000Y-129088000D02*
X118046000Y-128690000D01*
X118444000Y-129714500D02*
X118444000Y-129088000D01*
%TO.N,Net-(CR1-ASC)*%
X145749000Y-117021200D02*
X148403200Y-117021200D01*
X148403200Y-117021200D02*
X152175000Y-120793000D01*
X152175000Y-120793000D02*
X152175000Y-121275000D01*
%TO.N,Net-(J6-Pin_4)*%
X105501947Y-115548000D02*
X110060000Y-115548000D01*
X105489999Y-115536052D02*
X105501947Y-115548000D01*
%TO.N,/MKB_MISO*%
X92536000Y-127486000D02*
X77975000Y-112925000D01*
X118046000Y-127486000D02*
X92536000Y-127486000D01*
X77975000Y-112925000D02*
X71167000Y-112925000D01*
%TO.N,/GPIO(6)*%
X105489999Y-100296052D02*
X105501947Y-100308000D01*
X105501947Y-100308000D02*
X110060000Y-100308000D01*
%TO.N,/AREF*%
X105489999Y-92676052D02*
X105501947Y-92688000D01*
X105501947Y-92688000D02*
X110060000Y-92688000D01*
%TO.N,/SX1303_RESET*%
X131975000Y-67415000D02*
X138430000Y-60960000D01*
X118115000Y-67415000D02*
X131975000Y-67415000D01*
%TO.N,Net-(IC1-RESERVED1)*%
X125175000Y-59143509D02*
X122016491Y-59143509D01*
X85424000Y-95736000D02*
X85424000Y-96093500D01*
X122016491Y-59143509D02*
X85424000Y-95736000D01*
%TO.N,Net-(IC1-RESERVED2)*%
X117428000Y-99673000D02*
X117555000Y-99800000D01*
X117301000Y-99673000D02*
X117428000Y-99673000D01*
X115904000Y-98276000D02*
X117301000Y-99673000D01*
%TO.N,Net-(IC1-RESERVED3)*%
X124596051Y-56149947D02*
X122493553Y-56149947D01*
X122493553Y-56149947D02*
X82630000Y-96013500D01*
%TO.N,Net-(IC1-RESERVED4)*%
X122020500Y-54059500D02*
X80090000Y-95990000D01*
X124665000Y-54059500D02*
X122020500Y-54059500D01*
%TO.N,/AN*%
X105501947Y-102848000D02*
X110060000Y-102848000D01*
X71167000Y-102373000D02*
X76026000Y-97514000D01*
X71167000Y-102765000D02*
X71167000Y-102373000D01*
X105489999Y-102836052D02*
X105501947Y-102848000D01*
%TO.N,/MCU_MOSI*%
X66974000Y-110376000D02*
X66974000Y-112338000D01*
X82630000Y-97838500D02*
X82630000Y-100435000D01*
X68215000Y-109135000D02*
X66974000Y-110376000D01*
X70101000Y-115465000D02*
X71167000Y-115465000D01*
X82630000Y-100435000D02*
X73930000Y-109135000D01*
X71167000Y-115465000D02*
X73315000Y-115465000D01*
X73315000Y-115465000D02*
X74375000Y-114405000D01*
X105489999Y-110456052D02*
X105501947Y-110468000D01*
X105501947Y-110468000D02*
X110060000Y-110468000D01*
X66974000Y-112338000D02*
X70101000Y-115465000D01*
X73930000Y-109135000D02*
X68215000Y-109135000D01*
%TO.N,/MISO*%
X117555000Y-115423000D02*
X110060000Y-107928000D01*
X116696936Y-105450418D02*
X112537582Y-105450418D01*
X105489999Y-107916052D02*
X105501947Y-107928000D01*
X117555000Y-123725000D02*
X117555000Y-115423000D01*
X105501947Y-107928000D02*
X110060000Y-107928000D01*
X112537582Y-105450418D02*
X110060000Y-107928000D01*
X120366000Y-126536000D02*
X117555000Y-123725000D01*
%TO.N,/PWM_MKR*%
X125300000Y-102848000D02*
X129620000Y-102848000D01*
D24*
X96382938Y-102765000D02*
X97231469Y-103613531D01*
X94027000Y-102765000D02*
X96382938Y-102765000D01*
D23*
%TO.N,/INT_MKR*%
X94027000Y-105305000D02*
X94485000Y-105305000D01*
X105489999Y-112996052D02*
X105501947Y-113008000D01*
X105501947Y-113008000D02*
X110060000Y-113008000D01*
X94485000Y-105305000D02*
X96600000Y-107420000D01*
%TO.N,/3.3V*%
X105489999Y-90136052D02*
X105501947Y-90148000D01*
X101680000Y-92652936D02*
X104196884Y-90136052D01*
X102696000Y-96498000D02*
X101680000Y-95482000D01*
X117045000Y-96498000D02*
X102696000Y-96498000D01*
X104196884Y-90136052D02*
X105489999Y-90136052D01*
X120220000Y-103827354D02*
X120220000Y-99673000D01*
X101680000Y-95482000D02*
X101680000Y-92652936D01*
X118596936Y-105450418D02*
X120220000Y-103827354D01*
X105501947Y-90148000D02*
X110060000Y-90148000D01*
X120220000Y-99673000D02*
X117045000Y-96498000D01*
%TD*%
%TA.AperFunction,Conductor*%
%TO.N,GND*%
G36*
X73696366Y-46479685D02*
G01*
X73742121Y-46532489D01*
X73743893Y-46536558D01*
X73749459Y-46549999D01*
X73749459Y-46550000D01*
X73749500Y-46550099D01*
X73749617Y-46550383D01*
X73749618Y-46550384D01*
X73749808Y-46550462D01*
X73750000Y-46550541D01*
X73750002Y-46550539D01*
X73774616Y-46550524D01*
X73774616Y-46550528D01*
X73774760Y-46550500D01*
X153625500Y-46550500D01*
X153692539Y-46570185D01*
X153738294Y-46622989D01*
X153749500Y-46674500D01*
X153749500Y-119557386D01*
X153729815Y-119624425D01*
X153677011Y-119670180D01*
X153607853Y-119680124D01*
X153544297Y-119651099D01*
X153537819Y-119645067D01*
X153266819Y-119374068D01*
X153233334Y-119312745D01*
X153230500Y-119286387D01*
X153230500Y-64811705D01*
X153231809Y-64793735D01*
X153232129Y-64791547D01*
X153235289Y-64769977D01*
X153230735Y-64717931D01*
X153230500Y-64712528D01*
X153230500Y-64704296D01*
X153230500Y-64704291D01*
X153226795Y-64672602D01*
X153226618Y-64670876D01*
X153219999Y-64595203D01*
X153219999Y-64595201D01*
X153218539Y-64588129D01*
X153218597Y-64588116D01*
X153216965Y-64580757D01*
X153216906Y-64580772D01*
X153215241Y-64573751D01*
X153215241Y-64573745D01*
X153189284Y-64502427D01*
X153188692Y-64500724D01*
X153164813Y-64428663D01*
X153161764Y-64422124D01*
X153161817Y-64422099D01*
X153158531Y-64415311D01*
X153158479Y-64415338D01*
X153155236Y-64408882D01*
X153113530Y-64345469D01*
X153112561Y-64343949D01*
X153072714Y-64279347D01*
X153068234Y-64273681D01*
X153068280Y-64273643D01*
X153063519Y-64267799D01*
X153063474Y-64267838D01*
X153058831Y-64262305D01*
X153003634Y-64210229D01*
X153002374Y-64209006D01*
X151495592Y-62702224D01*
X151462107Y-62640901D01*
X151467091Y-62571209D01*
X151508963Y-62515276D01*
X151551181Y-62494768D01*
X151593481Y-62483434D01*
X151593492Y-62483429D01*
X151807577Y-62383600D01*
X151807579Y-62383599D01*
X152001073Y-62248113D01*
X152001079Y-62248108D01*
X152168108Y-62081079D01*
X152168113Y-62081073D01*
X152303599Y-61887579D01*
X152303600Y-61887577D01*
X152403429Y-61673492D01*
X152403433Y-61673483D01*
X152464567Y-61445326D01*
X152464569Y-61445316D01*
X152479999Y-61268946D01*
X152480000Y-61268946D01*
X152480000Y-61210000D01*
X151563686Y-61210000D01*
X151589493Y-61169844D01*
X151630000Y-61031889D01*
X151630000Y-60888111D01*
X151589493Y-60750156D01*
X151563686Y-60710000D01*
X152480000Y-60710000D01*
X152480000Y-60651053D01*
X152464569Y-60474683D01*
X152464567Y-60474673D01*
X152403433Y-60246516D01*
X152403429Y-60246507D01*
X152303600Y-60032422D01*
X152303599Y-60032420D01*
X152168113Y-59838926D01*
X152168108Y-59838920D01*
X152001082Y-59671894D01*
X151807578Y-59536399D01*
X151593492Y-59436570D01*
X151593486Y-59436567D01*
X151380000Y-59379364D01*
X151380000Y-60524498D01*
X151272315Y-60475320D01*
X151165763Y-60460000D01*
X151094237Y-60460000D01*
X150987685Y-60475320D01*
X150880000Y-60524498D01*
X150880000Y-59379364D01*
X150879999Y-59379364D01*
X150666513Y-59436567D01*
X150666507Y-59436570D01*
X150452422Y-59536399D01*
X150452420Y-59536400D01*
X150258926Y-59671886D01*
X150258920Y-59671891D01*
X150091891Y-59838920D01*
X150091890Y-59838922D01*
X150021981Y-59938762D01*
X149967404Y-59982387D01*
X149897905Y-59989579D01*
X149835551Y-59958057D01*
X149816598Y-59935460D01*
X149805735Y-59918833D01*
X149738571Y-59816031D01*
X149575764Y-59639175D01*
X149575759Y-59639171D01*
X149575757Y-59639169D01*
X149386075Y-59491533D01*
X149386069Y-59491529D01*
X149174657Y-59377118D01*
X149174652Y-59377116D01*
X148947300Y-59299066D01*
X148769468Y-59269391D01*
X148710192Y-59259500D01*
X148469808Y-59259500D01*
X148422387Y-59267413D01*
X148232699Y-59299066D01*
X148005347Y-59377116D01*
X148005342Y-59377118D01*
X147793930Y-59491529D01*
X147793924Y-59491533D01*
X147604242Y-59639169D01*
X147604239Y-59639172D01*
X147604236Y-59639174D01*
X147604236Y-59639175D01*
X147574119Y-59671891D01*
X147441430Y-59816029D01*
X147441429Y-59816031D01*
X147423807Y-59843003D01*
X147370660Y-59888358D01*
X147301429Y-59897780D01*
X147238093Y-59868277D01*
X147216193Y-59843003D01*
X147213525Y-59838920D01*
X147198571Y-59816031D01*
X147035764Y-59639175D01*
X147035759Y-59639171D01*
X147035757Y-59639169D01*
X146846075Y-59491533D01*
X146846069Y-59491529D01*
X146634657Y-59377118D01*
X146634652Y-59377116D01*
X146407300Y-59299066D01*
X146229468Y-59269391D01*
X146170192Y-59259500D01*
X145929808Y-59259500D01*
X145882386Y-59267413D01*
X145692699Y-59299066D01*
X145465347Y-59377116D01*
X145465342Y-59377118D01*
X145253930Y-59491529D01*
X145253924Y-59491533D01*
X145064242Y-59639169D01*
X145064239Y-59639172D01*
X145064236Y-59639174D01*
X145064236Y-59639175D01*
X144901429Y-59816031D01*
X144870054Y-59864054D01*
X144816907Y-59909410D01*
X144747676Y-59918833D01*
X144684340Y-59889330D01*
X144663511Y-59865668D01*
X144603586Y-59777007D01*
X144603584Y-59777005D01*
X144603579Y-59776997D01*
X144438621Y-59604882D01*
X144246947Y-59463121D01*
X144034074Y-59355793D01*
X143904283Y-59316045D01*
X143806121Y-59285983D01*
X143569647Y-59255701D01*
X143331471Y-59265819D01*
X143331467Y-59265819D01*
X143098419Y-59316045D01*
X142877211Y-59404935D01*
X142674203Y-59529932D01*
X142495245Y-59687435D01*
X142458212Y-59733300D01*
X142369634Y-59843003D01*
X142345471Y-59872928D01*
X142345458Y-59872952D01*
X142345449Y-59872960D01*
X142342522Y-59877291D01*
X142341640Y-59876695D01*
X142295570Y-59921870D01*
X142227154Y-59936051D01*
X142161933Y-59910993D01*
X142134479Y-59881897D01*
X142063586Y-59777006D01*
X142063582Y-59777001D01*
X142063579Y-59776997D01*
X141898621Y-59604882D01*
X141706947Y-59463121D01*
X141494074Y-59355793D01*
X141364283Y-59316045D01*
X141266121Y-59285983D01*
X141029647Y-59255701D01*
X140791471Y-59265819D01*
X140791467Y-59265819D01*
X140558419Y-59316045D01*
X140337211Y-59404935D01*
X140134203Y-59529932D01*
X139955245Y-59687435D01*
X139918212Y-59733300D01*
X139829634Y-59843003D01*
X139805471Y-59872928D01*
X139805458Y-59872952D01*
X139805449Y-59872960D01*
X139802522Y-59877291D01*
X139801640Y-59876695D01*
X139755570Y-59921870D01*
X139687154Y-59936051D01*
X139621933Y-59910993D01*
X139594479Y-59881897D01*
X139523586Y-59777006D01*
X139523582Y-59777001D01*
X139523579Y-59776997D01*
X139358621Y-59604882D01*
X139166947Y-59463121D01*
X138954074Y-59355793D01*
X138824283Y-59316045D01*
X138726121Y-59285983D01*
X138489647Y-59255701D01*
X138251471Y-59265819D01*
X138251467Y-59265819D01*
X138018419Y-59316045D01*
X137797211Y-59404935D01*
X137639514Y-59502033D01*
X137572107Y-59520420D01*
X137505460Y-59499445D01*
X137460732Y-59445768D01*
X137450500Y-59396443D01*
X137450500Y-56738705D01*
X137451809Y-56720735D01*
X137455289Y-56696974D01*
X137450736Y-56644939D01*
X137450500Y-56639532D01*
X137450500Y-56631296D01*
X137450500Y-56631291D01*
X137446791Y-56599564D01*
X137446618Y-56597872D01*
X137439998Y-56522202D01*
X137439996Y-56522197D01*
X137438538Y-56515133D01*
X137438597Y-56515120D01*
X137436967Y-56507764D01*
X137436908Y-56507779D01*
X137435241Y-56500747D01*
X137435241Y-56500745D01*
X137409247Y-56429327D01*
X137408708Y-56427775D01*
X137384814Y-56355665D01*
X137384813Y-56355663D01*
X137381763Y-56349121D01*
X137381817Y-56349095D01*
X137378533Y-56342312D01*
X137378480Y-56342340D01*
X137375238Y-56335885D01*
X137359287Y-56311633D01*
X137333496Y-56272419D01*
X137332555Y-56270941D01*
X137315374Y-56243087D01*
X137292711Y-56206344D01*
X137292710Y-56206343D01*
X137292709Y-56206341D01*
X137288233Y-56200681D01*
X137288280Y-56200643D01*
X137283519Y-56194799D01*
X137283474Y-56194838D01*
X137278831Y-56189305D01*
X137223616Y-56137212D01*
X137222356Y-56135989D01*
X136268652Y-55182285D01*
X136235168Y-55120963D01*
X136240152Y-55051271D01*
X136282024Y-54995338D01*
X136316071Y-54977324D01*
X136320181Y-54975912D01*
X136474656Y-54922882D01*
X136686067Y-54808472D01*
X136875764Y-54660825D01*
X137038571Y-54483969D01*
X137056193Y-54456995D01*
X137109337Y-54411641D01*
X137178568Y-54402217D01*
X137241904Y-54431718D01*
X137263804Y-54456992D01*
X137281429Y-54483969D01*
X137444236Y-54660825D01*
X137444239Y-54660827D01*
X137444242Y-54660830D01*
X137633924Y-54808466D01*
X137633930Y-54808470D01*
X137633933Y-54808472D01*
X137845344Y-54922882D01*
X137845347Y-54922883D01*
X138072699Y-55000933D01*
X138072701Y-55000933D01*
X138072703Y-55000934D01*
X138309808Y-55040500D01*
X138309809Y-55040500D01*
X138550191Y-55040500D01*
X138550192Y-55040500D01*
X138787297Y-55000934D01*
X139014656Y-54922882D01*
X139226067Y-54808472D01*
X139415764Y-54660825D01*
X139578571Y-54483969D01*
X139596193Y-54456995D01*
X139649337Y-54411641D01*
X139718568Y-54402217D01*
X139781904Y-54431718D01*
X139803804Y-54456992D01*
X139821429Y-54483969D01*
X139984236Y-54660825D01*
X139984239Y-54660827D01*
X139984242Y-54660830D01*
X140173924Y-54808466D01*
X140173930Y-54808470D01*
X140173933Y-54808472D01*
X140385344Y-54922882D01*
X140385347Y-54922883D01*
X140612699Y-55000933D01*
X140612701Y-55000933D01*
X140612703Y-55000934D01*
X140849808Y-55040500D01*
X140849809Y-55040500D01*
X141090191Y-55040500D01*
X141090192Y-55040500D01*
X141327297Y-55000934D01*
X141554656Y-54922882D01*
X141766067Y-54808472D01*
X141955764Y-54660825D01*
X142118571Y-54483969D01*
X142136193Y-54456995D01*
X142189337Y-54411641D01*
X142258568Y-54402217D01*
X142321904Y-54431718D01*
X142343804Y-54456992D01*
X142361429Y-54483969D01*
X142524236Y-54660825D01*
X142524239Y-54660827D01*
X142524242Y-54660830D01*
X142713924Y-54808466D01*
X142713930Y-54808470D01*
X142713933Y-54808472D01*
X142925344Y-54922882D01*
X142925347Y-54922883D01*
X143152699Y-55000933D01*
X143152701Y-55000933D01*
X143152703Y-55000934D01*
X143389808Y-55040500D01*
X143389809Y-55040500D01*
X143630191Y-55040500D01*
X143630192Y-55040500D01*
X143867297Y-55000934D01*
X144094656Y-54922882D01*
X144306067Y-54808472D01*
X144495764Y-54660825D01*
X144658571Y-54483969D01*
X144676193Y-54456995D01*
X144729337Y-54411641D01*
X144798568Y-54402217D01*
X144861904Y-54431718D01*
X144883804Y-54456992D01*
X144901429Y-54483969D01*
X145064236Y-54660825D01*
X145064239Y-54660827D01*
X145064242Y-54660830D01*
X145253924Y-54808466D01*
X145253930Y-54808470D01*
X145253933Y-54808472D01*
X145465344Y-54922882D01*
X145465347Y-54922883D01*
X145692699Y-55000933D01*
X145692701Y-55000933D01*
X145692703Y-55000934D01*
X145929808Y-55040500D01*
X145929809Y-55040500D01*
X146170191Y-55040500D01*
X146170192Y-55040500D01*
X146407297Y-55000934D01*
X146634656Y-54922882D01*
X146846067Y-54808472D01*
X147035764Y-54660825D01*
X147198571Y-54483969D01*
X147216193Y-54456995D01*
X147269337Y-54411641D01*
X147338568Y-54402217D01*
X147401904Y-54431718D01*
X147423804Y-54456992D01*
X147441429Y-54483969D01*
X147604236Y-54660825D01*
X147604239Y-54660827D01*
X147604242Y-54660830D01*
X147793924Y-54808466D01*
X147793930Y-54808470D01*
X147793933Y-54808472D01*
X148005344Y-54922882D01*
X148005347Y-54922883D01*
X148232699Y-55000933D01*
X148232701Y-55000933D01*
X148232703Y-55000934D01*
X148469808Y-55040500D01*
X148469809Y-55040500D01*
X148710191Y-55040500D01*
X148710192Y-55040500D01*
X148947297Y-55000934D01*
X149174656Y-54922882D01*
X149386067Y-54808472D01*
X149575764Y-54660825D01*
X149738571Y-54483969D01*
X149756193Y-54456995D01*
X149809337Y-54411641D01*
X149878568Y-54402217D01*
X149941904Y-54431718D01*
X149963804Y-54456992D01*
X149981429Y-54483969D01*
X150144236Y-54660825D01*
X150144239Y-54660827D01*
X150144242Y-54660830D01*
X150333924Y-54808466D01*
X150333930Y-54808470D01*
X150333933Y-54808472D01*
X150545344Y-54922882D01*
X150545347Y-54922883D01*
X150772699Y-55000933D01*
X150772701Y-55000933D01*
X150772703Y-55000934D01*
X151009808Y-55040500D01*
X151009809Y-55040500D01*
X151250191Y-55040500D01*
X151250192Y-55040500D01*
X151487297Y-55000934D01*
X151714656Y-54922882D01*
X151926067Y-54808472D01*
X152115764Y-54660825D01*
X152278571Y-54483969D01*
X152410049Y-54282728D01*
X152506610Y-54062591D01*
X152565620Y-53829563D01*
X152580500Y-53649990D01*
X152580500Y-53030010D01*
X152565620Y-52850437D01*
X152506610Y-52617409D01*
X152410049Y-52397272D01*
X152399999Y-52381890D01*
X152312705Y-52248277D01*
X152278571Y-52196031D01*
X152115764Y-52019175D01*
X152115759Y-52019171D01*
X152115757Y-52019169D01*
X151926075Y-51871533D01*
X151926069Y-51871529D01*
X151714657Y-51757118D01*
X151714652Y-51757116D01*
X151487300Y-51679066D01*
X151309468Y-51649391D01*
X151250192Y-51639500D01*
X151009808Y-51639500D01*
X150962387Y-51647413D01*
X150772699Y-51679066D01*
X150545347Y-51757116D01*
X150545342Y-51757118D01*
X150333930Y-51871529D01*
X150333924Y-51871533D01*
X150144242Y-52019169D01*
X150144239Y-52019172D01*
X150144236Y-52019174D01*
X150144236Y-52019175D01*
X150125236Y-52039815D01*
X149981430Y-52196029D01*
X149981429Y-52196031D01*
X149963807Y-52223003D01*
X149910660Y-52268358D01*
X149841429Y-52277780D01*
X149778093Y-52248277D01*
X149756193Y-52223003D01*
X149752458Y-52217287D01*
X149738571Y-52196031D01*
X149575764Y-52019175D01*
X149575759Y-52019171D01*
X149575757Y-52019169D01*
X149386075Y-51871533D01*
X149386069Y-51871529D01*
X149174657Y-51757118D01*
X149174652Y-51757116D01*
X148947300Y-51679066D01*
X148769468Y-51649391D01*
X148710192Y-51639500D01*
X148469808Y-51639500D01*
X148422387Y-51647413D01*
X148232699Y-51679066D01*
X148005347Y-51757116D01*
X148005342Y-51757118D01*
X147793930Y-51871529D01*
X147793924Y-51871533D01*
X147604242Y-52019169D01*
X147604239Y-52019172D01*
X147604236Y-52019174D01*
X147604236Y-52019175D01*
X147585236Y-52039815D01*
X147441430Y-52196029D01*
X147441429Y-52196031D01*
X147423807Y-52223003D01*
X147370660Y-52268358D01*
X147301429Y-52277780D01*
X147238093Y-52248277D01*
X147216193Y-52223003D01*
X147212458Y-52217287D01*
X147198571Y-52196031D01*
X147035764Y-52019175D01*
X147035759Y-52019171D01*
X147035757Y-52019169D01*
X146846075Y-51871533D01*
X146846069Y-51871529D01*
X146634657Y-51757118D01*
X146634652Y-51757116D01*
X146407300Y-51679066D01*
X146229468Y-51649391D01*
X146170192Y-51639500D01*
X145929808Y-51639500D01*
X145882386Y-51647413D01*
X145692699Y-51679066D01*
X145465347Y-51757116D01*
X145465342Y-51757118D01*
X145253930Y-51871529D01*
X145253924Y-51871533D01*
X145064242Y-52019169D01*
X145064239Y-52019172D01*
X145064236Y-52019174D01*
X145064236Y-52019175D01*
X145045236Y-52039815D01*
X144901430Y-52196029D01*
X144901429Y-52196031D01*
X144883807Y-52223003D01*
X144830660Y-52268358D01*
X144761429Y-52277780D01*
X144698093Y-52248277D01*
X144676193Y-52223003D01*
X144672458Y-52217287D01*
X144658571Y-52196031D01*
X144495764Y-52019175D01*
X144495759Y-52019171D01*
X144495757Y-52019169D01*
X144306075Y-51871533D01*
X144306069Y-51871529D01*
X144094657Y-51757118D01*
X144094652Y-51757116D01*
X143867300Y-51679066D01*
X143689468Y-51649391D01*
X143630192Y-51639500D01*
X143389808Y-51639500D01*
X143342387Y-51647413D01*
X143152699Y-51679066D01*
X142925347Y-51757116D01*
X142925342Y-51757118D01*
X142713930Y-51871529D01*
X142713924Y-51871533D01*
X142524242Y-52019169D01*
X142524239Y-52019172D01*
X142524236Y-52019174D01*
X142524236Y-52019175D01*
X142505236Y-52039815D01*
X142361430Y-52196029D01*
X142361429Y-52196031D01*
X142343807Y-52223003D01*
X142290660Y-52268358D01*
X142221429Y-52277780D01*
X142158093Y-52248277D01*
X142136193Y-52223003D01*
X142132458Y-52217287D01*
X142118571Y-52196031D01*
X141955764Y-52019175D01*
X141955759Y-52019171D01*
X141955757Y-52019169D01*
X141766075Y-51871533D01*
X141766069Y-51871529D01*
X141554657Y-51757118D01*
X141554652Y-51757116D01*
X141327300Y-51679066D01*
X141149468Y-51649391D01*
X141090192Y-51639500D01*
X140849808Y-51639500D01*
X140802386Y-51647413D01*
X140612699Y-51679066D01*
X140385347Y-51757116D01*
X140385342Y-51757118D01*
X140173930Y-51871529D01*
X140173924Y-51871533D01*
X139984242Y-52019169D01*
X139984239Y-52019172D01*
X139984236Y-52019174D01*
X139984236Y-52019175D01*
X139965236Y-52039815D01*
X139821430Y-52196029D01*
X139821429Y-52196031D01*
X139803807Y-52223003D01*
X139750660Y-52268358D01*
X139681429Y-52277780D01*
X139618093Y-52248277D01*
X139596193Y-52223003D01*
X139592458Y-52217287D01*
X139578571Y-52196031D01*
X139415764Y-52019175D01*
X139415759Y-52019171D01*
X139415757Y-52019169D01*
X139226075Y-51871533D01*
X139226069Y-51871529D01*
X139014657Y-51757118D01*
X139014652Y-51757116D01*
X138787300Y-51679066D01*
X138609468Y-51649391D01*
X138550192Y-51639500D01*
X138309808Y-51639500D01*
X138262386Y-51647413D01*
X138072699Y-51679066D01*
X137845347Y-51757116D01*
X137845342Y-51757118D01*
X137633930Y-51871529D01*
X137633924Y-51871533D01*
X137444242Y-52019169D01*
X137444239Y-52019172D01*
X137444236Y-52019174D01*
X137444236Y-52019175D01*
X137425236Y-52039815D01*
X137281430Y-52196029D01*
X137281429Y-52196031D01*
X137263807Y-52223003D01*
X137210660Y-52268358D01*
X137141429Y-52277780D01*
X137078093Y-52248277D01*
X137056193Y-52223003D01*
X137052458Y-52217287D01*
X137038571Y-52196031D01*
X136875764Y-52019175D01*
X136875759Y-52019171D01*
X136875757Y-52019169D01*
X136686075Y-51871533D01*
X136686069Y-51871529D01*
X136474657Y-51757118D01*
X136474652Y-51757116D01*
X136247300Y-51679066D01*
X136069468Y-51649391D01*
X136010192Y-51639500D01*
X135769808Y-51639500D01*
X135722386Y-51647413D01*
X135532699Y-51679066D01*
X135305347Y-51757116D01*
X135305342Y-51757118D01*
X135093930Y-51871529D01*
X135093924Y-51871533D01*
X134904242Y-52019169D01*
X134904239Y-52019172D01*
X134904236Y-52019174D01*
X134904236Y-52019175D01*
X134885236Y-52039815D01*
X134741430Y-52196029D01*
X134741427Y-52196033D01*
X134609951Y-52397270D01*
X134513389Y-52617410D01*
X134454379Y-52850440D01*
X134439500Y-53029999D01*
X134439500Y-53053769D01*
X134419815Y-53120808D01*
X134367011Y-53166563D01*
X134297853Y-53176507D01*
X134234297Y-53147482D01*
X134227819Y-53141450D01*
X133410729Y-52324361D01*
X133398949Y-52310730D01*
X133391482Y-52300701D01*
X133384612Y-52291472D01*
X133380087Y-52287675D01*
X133344587Y-52257886D01*
X133340612Y-52254244D01*
X133337690Y-52251322D01*
X133334779Y-52248410D01*
X133309736Y-52228609D01*
X133308338Y-52227470D01*
X133303014Y-52223003D01*
X133250214Y-52178698D01*
X133244180Y-52174729D01*
X133244212Y-52174680D01*
X133237853Y-52170628D01*
X133237822Y-52170679D01*
X133231680Y-52166891D01*
X133231678Y-52166890D01*
X133231677Y-52166889D01*
X133162872Y-52134804D01*
X133161252Y-52134019D01*
X133121512Y-52114061D01*
X133093433Y-52099960D01*
X133093431Y-52099959D01*
X133093430Y-52099959D01*
X133086645Y-52097489D01*
X133086665Y-52097433D01*
X133079549Y-52094959D01*
X133079531Y-52095015D01*
X133072674Y-52092743D01*
X132998328Y-52077391D01*
X132996569Y-52077001D01*
X132922718Y-52059499D01*
X132915547Y-52058661D01*
X132915553Y-52058601D01*
X132908055Y-52057835D01*
X132908050Y-52057895D01*
X132900860Y-52057265D01*
X132824968Y-52059474D01*
X132823165Y-52059500D01*
X126319899Y-52059500D01*
X126252860Y-52039815D01*
X126207105Y-51987011D01*
X126197161Y-51917853D01*
X126226186Y-51854297D01*
X126255970Y-51829250D01*
X126272669Y-51819202D01*
X126327736Y-51786070D01*
X126462041Y-51658849D01*
X126565858Y-51505730D01*
X126634331Y-51333875D01*
X126664260Y-51151317D01*
X126654245Y-50966593D01*
X126629126Y-50876122D01*
X126604755Y-50788343D01*
X126604752Y-50788337D01*
X126518101Y-50624897D01*
X126398337Y-50483900D01*
X126319449Y-50423931D01*
X126251064Y-50371946D01*
X126083167Y-50294268D01*
X126083163Y-50294266D01*
X125902497Y-50254500D01*
X125763887Y-50254500D01*
X125763883Y-50254500D01*
X125626088Y-50269486D01*
X125450776Y-50328557D01*
X125450774Y-50328558D01*
X125292262Y-50423931D01*
X125292261Y-50423932D01*
X125157959Y-50551149D01*
X125054138Y-50704276D01*
X124985669Y-50876122D01*
X124955740Y-51058685D01*
X124965755Y-51243406D01*
X124965755Y-51243411D01*
X125015244Y-51421656D01*
X125015247Y-51421662D01*
X125101898Y-51585102D01*
X125179724Y-51676726D01*
X125221663Y-51726100D01*
X125367266Y-51836785D01*
X125408724Y-51893025D01*
X125413193Y-51962752D01*
X125379257Y-52023826D01*
X125317688Y-52056858D01*
X125292225Y-52059500D01*
X120793705Y-52059500D01*
X120775735Y-52058191D01*
X120751972Y-52054710D01*
X120706890Y-52058655D01*
X120699933Y-52059264D01*
X120694532Y-52059500D01*
X120686283Y-52059500D01*
X120654589Y-52063204D01*
X120652821Y-52063385D01*
X120635405Y-52064909D01*
X120577199Y-52070001D01*
X120570133Y-52071461D01*
X120570121Y-52071404D01*
X120562754Y-52073038D01*
X120562768Y-52073094D01*
X120555745Y-52074758D01*
X120484424Y-52100715D01*
X120482724Y-52101306D01*
X120410666Y-52125185D01*
X120404119Y-52128238D01*
X120404094Y-52128186D01*
X120397314Y-52131468D01*
X120397340Y-52131520D01*
X120390882Y-52134763D01*
X120327483Y-52176460D01*
X120325965Y-52177428D01*
X120261346Y-52217287D01*
X120255677Y-52221770D01*
X120255641Y-52221724D01*
X120249798Y-52226484D01*
X120249835Y-52226528D01*
X120244309Y-52231164D01*
X120192212Y-52286382D01*
X120190956Y-52287675D01*
X77318358Y-95160272D01*
X77304729Y-95172051D01*
X77285468Y-95186390D01*
X77251898Y-95226397D01*
X77248253Y-95230376D01*
X77242407Y-95236223D01*
X77222618Y-95261251D01*
X77221481Y-95262647D01*
X77172694Y-95320790D01*
X77168729Y-95326819D01*
X77168682Y-95326788D01*
X77164630Y-95333147D01*
X77164679Y-95333177D01*
X77160889Y-95339321D01*
X77128812Y-95408110D01*
X77128027Y-95409731D01*
X77093957Y-95477572D01*
X77091488Y-95484357D01*
X77091432Y-95484336D01*
X77088960Y-95491450D01*
X77089015Y-95491469D01*
X77086743Y-95498325D01*
X77071391Y-95572670D01*
X77071001Y-95574428D01*
X77053499Y-95648279D01*
X77052661Y-95655454D01*
X77052601Y-95655447D01*
X77051835Y-95662945D01*
X77051895Y-95662951D01*
X77051265Y-95670140D01*
X77053474Y-95746030D01*
X77053500Y-95747833D01*
X77053500Y-96285373D01*
X77033815Y-96352412D01*
X76981011Y-96398167D01*
X76911853Y-96408111D01*
X76853338Y-96383227D01*
X76794627Y-96337531D01*
X76794626Y-96337530D01*
X76698248Y-96285373D01*
X76590504Y-96227064D01*
X76590495Y-96227061D01*
X76370984Y-96151702D01*
X76199281Y-96123050D01*
X76142049Y-96113500D01*
X75909951Y-96113500D01*
X75864164Y-96121140D01*
X75681015Y-96151702D01*
X75461504Y-96227061D01*
X75461495Y-96227064D01*
X75257371Y-96337531D01*
X75257365Y-96337535D01*
X75074222Y-96480081D01*
X75074219Y-96480084D01*
X75074216Y-96480086D01*
X75074216Y-96480087D01*
X75064114Y-96491061D01*
X74917016Y-96650852D01*
X74790075Y-96845151D01*
X74696842Y-97057699D01*
X74639866Y-97282691D01*
X74639864Y-97282702D01*
X74620700Y-97513993D01*
X74620700Y-97514006D01*
X74639865Y-97745303D01*
X74641455Y-97751581D01*
X74638829Y-97821401D01*
X74608930Y-97869701D01*
X71150451Y-101328181D01*
X71089128Y-101361666D01*
X71062770Y-101364500D01*
X70857484Y-101364500D01*
X70679463Y-101379652D01*
X70448751Y-101439724D01*
X70231519Y-101537919D01*
X70231511Y-101537924D01*
X70034006Y-101671413D01*
X70033997Y-101671421D01*
X69861881Y-101836379D01*
X69720123Y-102028050D01*
X69720120Y-102028054D01*
X69612796Y-102240920D01*
X69612793Y-102240926D01*
X69542983Y-102468878D01*
X69512702Y-102705346D01*
X69522819Y-102943528D01*
X69522819Y-102943532D01*
X69573045Y-103176580D01*
X69651602Y-103372073D01*
X69661936Y-103397790D01*
X69786931Y-103600795D01*
X69944436Y-103779755D01*
X70129920Y-103929523D01*
X70129935Y-103929531D01*
X70129942Y-103929538D01*
X70134291Y-103932478D01*
X70133693Y-103933362D01*
X70178861Y-103979411D01*
X70193053Y-104047824D01*
X70168005Y-104113050D01*
X70138897Y-104140520D01*
X70034007Y-104211413D01*
X70033997Y-104211421D01*
X69861880Y-104376380D01*
X69767321Y-104504234D01*
X69711631Y-104546429D01*
X69667625Y-104554500D01*
X69568705Y-104554500D01*
X69550735Y-104553191D01*
X69526972Y-104549710D01*
X69481533Y-104553686D01*
X69474931Y-104554264D01*
X69469530Y-104554500D01*
X69461283Y-104554500D01*
X69429606Y-104558202D01*
X69427832Y-104558384D01*
X69397390Y-104561047D01*
X69352198Y-104565001D01*
X69345132Y-104566460D01*
X69345120Y-104566404D01*
X69337763Y-104568035D01*
X69337777Y-104568092D01*
X69330740Y-104569760D01*
X69259385Y-104595729D01*
X69257685Y-104596320D01*
X69185668Y-104620185D01*
X69179126Y-104623236D01*
X69179101Y-104623183D01*
X69172308Y-104626471D01*
X69172334Y-104626523D01*
X69165880Y-104629764D01*
X69102468Y-104671470D01*
X69100948Y-104672439D01*
X69036348Y-104712285D01*
X69030683Y-104716765D01*
X69030647Y-104716719D01*
X69024798Y-104721484D01*
X69024835Y-104721528D01*
X69019309Y-104726164D01*
X68967213Y-104781381D01*
X68965958Y-104782674D01*
X65634358Y-108114272D01*
X65620729Y-108126051D01*
X65601468Y-108140390D01*
X65567898Y-108180397D01*
X65564253Y-108184376D01*
X65558407Y-108190223D01*
X65538618Y-108215251D01*
X65537481Y-108216647D01*
X65488694Y-108274790D01*
X65484729Y-108280819D01*
X65484682Y-108280788D01*
X65480630Y-108287147D01*
X65480679Y-108287177D01*
X65476889Y-108293321D01*
X65444812Y-108362110D01*
X65444027Y-108363731D01*
X65409957Y-108431572D01*
X65407488Y-108438357D01*
X65407432Y-108438336D01*
X65404960Y-108445450D01*
X65405015Y-108445469D01*
X65402743Y-108452325D01*
X65387391Y-108526670D01*
X65387001Y-108528428D01*
X65369499Y-108602279D01*
X65368661Y-108609454D01*
X65368601Y-108609447D01*
X65367835Y-108616946D01*
X65367895Y-108616952D01*
X65367265Y-108624141D01*
X65369473Y-108700029D01*
X65369499Y-108701832D01*
X65369499Y-113071294D01*
X65368191Y-113089259D01*
X65364710Y-113113026D01*
X65369264Y-113165064D01*
X65369500Y-113170470D01*
X65369500Y-113178712D01*
X65373202Y-113210391D01*
X65373386Y-113212185D01*
X65380000Y-113287792D01*
X65381461Y-113294867D01*
X65381403Y-113294878D01*
X65383034Y-113302237D01*
X65383092Y-113302224D01*
X65384757Y-113309249D01*
X65384758Y-113309254D01*
X65384759Y-113309255D01*
X65394714Y-113336608D01*
X65410708Y-113380551D01*
X65411299Y-113382253D01*
X65435182Y-113454326D01*
X65438236Y-113460874D01*
X65438182Y-113460898D01*
X65441470Y-113467688D01*
X65441521Y-113467663D01*
X65444761Y-113474113D01*
X65444762Y-113474114D01*
X65444763Y-113474117D01*
X65486494Y-113537567D01*
X65487443Y-113539058D01*
X65515306Y-113584231D01*
X65527289Y-113603657D01*
X65531766Y-113609319D01*
X65531719Y-113609356D01*
X65536482Y-113615202D01*
X65536528Y-113615164D01*
X65541173Y-113620699D01*
X65596363Y-113672768D01*
X65597657Y-113674025D01*
X68964770Y-117041138D01*
X68998255Y-117102461D01*
X68993271Y-117172153D01*
X68951399Y-117228086D01*
X68940460Y-117234815D01*
X68940546Y-117234949D01*
X68867352Y-117281732D01*
X68865927Y-117282616D01*
X68797265Y-117323929D01*
X68796494Y-117324515D01*
X68779791Y-117337572D01*
X68779007Y-117338202D01*
X68734028Y-117383182D01*
X68672705Y-117416666D01*
X68646348Y-117419500D01*
X68251046Y-117419500D01*
X68239177Y-117420304D01*
X68209500Y-117422317D01*
X68029978Y-117466963D01*
X68029976Y-117466964D01*
X67864249Y-117549156D01*
X67720056Y-117665062D01*
X67655435Y-117745454D01*
X67598092Y-117785373D01*
X67528270Y-117787952D01*
X67471108Y-117755447D01*
X67393345Y-117677684D01*
X67244124Y-117585643D01*
X67244119Y-117585641D01*
X67077697Y-117530494D01*
X67077690Y-117530493D01*
X66974986Y-117520000D01*
X66925000Y-117520000D01*
X66925000Y-119969999D01*
X66974972Y-119969999D01*
X66974986Y-119969998D01*
X67077697Y-119959505D01*
X67244119Y-119904358D01*
X67244124Y-119904356D01*
X67393342Y-119812317D01*
X67471107Y-119734552D01*
X67532430Y-119701067D01*
X67602122Y-119706051D01*
X67655436Y-119744545D01*
X67697147Y-119796435D01*
X67723806Y-119861019D01*
X67724500Y-119874123D01*
X67724500Y-120625876D01*
X67704815Y-120692915D01*
X67697147Y-120703564D01*
X67655436Y-120755454D01*
X67598092Y-120795372D01*
X67528270Y-120797952D01*
X67471108Y-120765447D01*
X67393345Y-120687684D01*
X67244124Y-120595643D01*
X67244119Y-120595641D01*
X67077697Y-120540494D01*
X67077690Y-120540493D01*
X66974986Y-120530000D01*
X66925000Y-120530000D01*
X66925000Y-122979999D01*
X66974972Y-122979999D01*
X66974986Y-122979998D01*
X67077697Y-122969505D01*
X67244119Y-122914358D01*
X67244124Y-122914356D01*
X67393342Y-122822317D01*
X67471107Y-122744552D01*
X67532430Y-122711067D01*
X67602122Y-122716051D01*
X67655436Y-122754545D01*
X67697147Y-122806435D01*
X67723806Y-122871019D01*
X67724500Y-122884123D01*
X67724500Y-128862911D01*
X67724295Y-128867945D01*
X67719798Y-128923164D01*
X67730615Y-129002563D01*
X67730819Y-129004228D01*
X67739486Y-129083912D01*
X67739710Y-129084930D01*
X67744525Y-129105473D01*
X67744774Y-129106471D01*
X67772402Y-129181678D01*
X67772959Y-129183259D01*
X67798557Y-129259225D01*
X67799001Y-129260185D01*
X67808146Y-129279266D01*
X67808564Y-129280109D01*
X67808567Y-129280114D01*
X67808568Y-129280116D01*
X67834554Y-129320772D01*
X67851719Y-129347626D01*
X67852603Y-129349052D01*
X67893927Y-129417733D01*
X67894538Y-129418536D01*
X67907578Y-129435216D01*
X67908197Y-129435986D01*
X67964859Y-129492648D01*
X67966031Y-129493852D01*
X68021154Y-129552044D01*
X68021950Y-129552720D01*
X68039118Y-129566907D01*
X69327385Y-130855173D01*
X69330788Y-130858865D01*
X69366662Y-130901099D01*
X69430450Y-130949589D01*
X69431773Y-130950624D01*
X69494242Y-131000838D01*
X69494247Y-131000842D01*
X69494252Y-131000844D01*
X69495163Y-131001427D01*
X69512955Y-131012463D01*
X69513933Y-131013052D01*
X69513936Y-131013054D01*
X69513938Y-131013055D01*
X69513940Y-131013056D01*
X69586681Y-131046709D01*
X69588171Y-131047423D01*
X69659979Y-131083037D01*
X69659982Y-131083037D01*
X69659987Y-131083040D01*
X69661019Y-131083419D01*
X69680853Y-131090402D01*
X69681836Y-131090733D01*
X69708236Y-131096543D01*
X69760119Y-131107963D01*
X69761710Y-131108337D01*
X69815195Y-131121638D01*
X69839506Y-131127684D01*
X69839507Y-131127684D01*
X69839511Y-131127685D01*
X69840604Y-131127833D01*
X69861375Y-131130377D01*
X69862502Y-131130499D01*
X69862503Y-131130500D01*
X69942612Y-131130500D01*
X69944291Y-131130523D01*
X70016456Y-131132476D01*
X70024432Y-131132693D01*
X70024432Y-131132692D01*
X70024435Y-131132693D01*
X70025479Y-131132608D01*
X70047648Y-131130500D01*
X81267503Y-131130500D01*
X81347612Y-131130500D01*
X81349291Y-131130523D01*
X81421456Y-131132476D01*
X81429432Y-131132693D01*
X81429432Y-131132692D01*
X81429435Y-131132693D01*
X81430479Y-131132608D01*
X81452648Y-131130500D01*
X116696660Y-131130500D01*
X116763699Y-131150185D01*
X116784341Y-131166819D01*
X116955341Y-131337819D01*
X116988826Y-131399142D01*
X116983842Y-131468834D01*
X116941970Y-131524767D01*
X116876506Y-131549184D01*
X116867660Y-131549500D01*
X73774760Y-131549500D01*
X73774554Y-131549459D01*
X73726753Y-131549459D01*
X73724033Y-131550000D01*
X63874500Y-131550000D01*
X63807461Y-131530315D01*
X63761706Y-131477511D01*
X63750500Y-131426000D01*
X63750500Y-122005000D01*
X65675001Y-122005000D01*
X65675001Y-122279986D01*
X65685494Y-122382697D01*
X65740641Y-122549119D01*
X65740643Y-122549124D01*
X65832684Y-122698345D01*
X65956654Y-122822315D01*
X66105875Y-122914356D01*
X66105880Y-122914358D01*
X66272302Y-122969505D01*
X66272309Y-122969506D01*
X66375019Y-122979999D01*
X66424999Y-122979998D01*
X66425000Y-122979998D01*
X66425000Y-122005000D01*
X65675001Y-122005000D01*
X63750500Y-122005000D01*
X63750500Y-121505000D01*
X65675000Y-121505000D01*
X66425000Y-121505000D01*
X66425000Y-120530000D01*
X66424999Y-120529999D01*
X66375029Y-120530000D01*
X66375011Y-120530001D01*
X66272302Y-120540494D01*
X66105880Y-120595641D01*
X66105875Y-120595643D01*
X65956654Y-120687684D01*
X65832684Y-120811654D01*
X65740643Y-120960875D01*
X65740641Y-120960880D01*
X65685494Y-121127302D01*
X65685493Y-121127309D01*
X65675000Y-121230013D01*
X65675000Y-121505000D01*
X63750500Y-121505000D01*
X63750500Y-118995000D01*
X65675001Y-118995000D01*
X65675001Y-119269986D01*
X65685494Y-119372697D01*
X65740641Y-119539119D01*
X65740643Y-119539124D01*
X65832684Y-119688345D01*
X65956654Y-119812315D01*
X66105875Y-119904356D01*
X66105880Y-119904358D01*
X66272302Y-119959505D01*
X66272309Y-119959506D01*
X66375019Y-119969999D01*
X66424999Y-119969998D01*
X66425000Y-119969998D01*
X66425000Y-118995000D01*
X65675001Y-118995000D01*
X63750500Y-118995000D01*
X63750500Y-118495000D01*
X65675000Y-118495000D01*
X66425000Y-118495000D01*
X66425000Y-117520000D01*
X66424999Y-117519999D01*
X66375029Y-117520000D01*
X66375011Y-117520001D01*
X66272302Y-117530494D01*
X66105880Y-117585641D01*
X66105875Y-117585643D01*
X65956654Y-117677684D01*
X65832684Y-117801654D01*
X65740643Y-117950875D01*
X65740641Y-117950880D01*
X65685494Y-118117302D01*
X65685493Y-118117309D01*
X65675000Y-118220013D01*
X65675000Y-118495000D01*
X63750500Y-118495000D01*
X63750500Y-75889812D01*
X70634992Y-75889812D01*
X70645000Y-76176393D01*
X70645001Y-76176400D01*
X70694797Y-76458807D01*
X70694798Y-76458811D01*
X70783416Y-76731548D01*
X70909122Y-76989283D01*
X70909125Y-76989287D01*
X70909127Y-76989291D01*
X71069486Y-77227034D01*
X71069489Y-77227037D01*
X71261368Y-77440141D01*
X71261375Y-77440148D01*
X71481045Y-77624474D01*
X71481049Y-77624477D01*
X71481051Y-77624478D01*
X71724246Y-77776443D01*
X71844071Y-77829793D01*
X71986210Y-77893078D01*
X71986215Y-77893079D01*
X71986223Y-77893083D01*
X72261884Y-77972127D01*
X72261889Y-77972127D01*
X72261894Y-77972129D01*
X72451203Y-77998734D01*
X72545858Y-78012037D01*
X72545860Y-78012038D01*
X72545863Y-78012038D01*
X72760840Y-78012038D01*
X72760852Y-78012038D01*
X72975319Y-77997041D01*
X72975324Y-77997040D01*
X72975326Y-77997040D01*
X73096911Y-77971195D01*
X73255823Y-77937418D01*
X73525298Y-77839337D01*
X73778501Y-77704707D01*
X74010502Y-77536148D01*
X74216787Y-77336941D01*
X74393341Y-77110963D01*
X74536725Y-76862613D01*
X74644151Y-76596725D01*
X74713527Y-76318473D01*
X74743503Y-76033274D01*
X74742385Y-76001272D01*
X74733495Y-75746682D01*
X74733494Y-75746675D01*
X74732921Y-75743424D01*
X74683698Y-75464266D01*
X74595081Y-75191532D01*
X74593430Y-75188147D01*
X74469373Y-74933792D01*
X74469371Y-74933789D01*
X74469369Y-74933785D01*
X74309010Y-74696042D01*
X74157969Y-74528294D01*
X74117127Y-74482934D01*
X74117120Y-74482927D01*
X73897450Y-74298601D01*
X73654254Y-74146635D01*
X73654252Y-74146634D01*
X73392285Y-74029997D01*
X73392275Y-74029994D01*
X73392273Y-74029993D01*
X73116612Y-73950949D01*
X73116610Y-73950948D01*
X73116601Y-73950946D01*
X72832637Y-73911038D01*
X72832633Y-73911038D01*
X72617644Y-73911038D01*
X72617631Y-73911038D01*
X72403173Y-73926035D01*
X72403169Y-73926035D01*
X72122675Y-73985657D01*
X71853202Y-74083737D01*
X71600000Y-74218365D01*
X71599993Y-74218370D01*
X71368001Y-74386921D01*
X71367994Y-74386927D01*
X71161707Y-74586137D01*
X70985155Y-74812112D01*
X70841773Y-75060458D01*
X70841767Y-75060470D01*
X70734345Y-75326349D01*
X70674257Y-75567352D01*
X70664969Y-75604603D01*
X70639769Y-75844367D01*
X70634992Y-75889812D01*
X63750500Y-75889812D01*
X63750500Y-61340006D01*
X76526200Y-61340006D01*
X76545364Y-61571297D01*
X76545366Y-61571308D01*
X76602342Y-61796300D01*
X76695575Y-62008848D01*
X76822516Y-62203147D01*
X76822519Y-62203151D01*
X76822521Y-62203153D01*
X76979716Y-62373913D01*
X76979719Y-62373915D01*
X76979722Y-62373918D01*
X77162865Y-62516464D01*
X77162871Y-62516468D01*
X77162874Y-62516470D01*
X77366997Y-62626936D01*
X77446356Y-62654180D01*
X77586515Y-62702297D01*
X77586517Y-62702297D01*
X77586519Y-62702298D01*
X77815451Y-62740500D01*
X77815452Y-62740500D01*
X78047548Y-62740500D01*
X78047549Y-62740500D01*
X78276481Y-62702298D01*
X78496003Y-62626936D01*
X78700126Y-62516470D01*
X78701933Y-62515064D01*
X78761629Y-62468600D01*
X78883284Y-62373913D01*
X79040479Y-62203153D01*
X79167424Y-62008849D01*
X79260657Y-61796300D01*
X79317634Y-61571305D01*
X79322854Y-61508308D01*
X79336800Y-61340006D01*
X79336800Y-61339993D01*
X79331581Y-61277006D01*
X91597200Y-61277006D01*
X91616364Y-61508297D01*
X91616366Y-61508308D01*
X91673342Y-61733300D01*
X91766575Y-61945848D01*
X91893516Y-62140147D01*
X91893519Y-62140151D01*
X91893521Y-62140153D01*
X92050716Y-62310913D01*
X92050719Y-62310915D01*
X92050722Y-62310918D01*
X92233865Y-62453464D01*
X92233871Y-62453468D01*
X92233874Y-62453470D01*
X92437997Y-62563936D01*
X92507173Y-62587684D01*
X92657515Y-62639297D01*
X92657517Y-62639297D01*
X92657519Y-62639298D01*
X92886451Y-62677500D01*
X92886452Y-62677500D01*
X93118548Y-62677500D01*
X93118549Y-62677500D01*
X93347481Y-62639298D01*
X93567003Y-62563936D01*
X93771126Y-62453470D01*
X93954284Y-62310913D01*
X94111479Y-62140153D01*
X94238424Y-61945849D01*
X94331657Y-61733300D01*
X94388634Y-61508305D01*
X94392637Y-61460000D01*
X94407800Y-61277006D01*
X106544700Y-61277006D01*
X106563864Y-61508297D01*
X106563866Y-61508308D01*
X106620842Y-61733300D01*
X106714075Y-61945848D01*
X106841016Y-62140147D01*
X106841019Y-62140151D01*
X106841021Y-62140153D01*
X106998216Y-62310913D01*
X106998219Y-62310915D01*
X106998222Y-62310918D01*
X107181365Y-62453464D01*
X107181371Y-62453468D01*
X107181374Y-62453470D01*
X107385497Y-62563936D01*
X107454673Y-62587684D01*
X107605015Y-62639297D01*
X107605017Y-62639297D01*
X107605019Y-62639298D01*
X107833951Y-62677500D01*
X107833952Y-62677500D01*
X108066048Y-62677500D01*
X108066049Y-62677500D01*
X108294981Y-62639298D01*
X108514503Y-62563936D01*
X108718626Y-62453470D01*
X108901784Y-62310913D01*
X109058979Y-62140153D01*
X109185924Y-61945849D01*
X109279157Y-61733300D01*
X109336134Y-61508305D01*
X109340137Y-61460000D01*
X109355300Y-61277006D01*
X109355300Y-61276993D01*
X109336135Y-61045702D01*
X109336133Y-61045691D01*
X109279157Y-60820699D01*
X109185924Y-60608151D01*
X109058981Y-60413849D01*
X109035276Y-60388099D01*
X109010312Y-60360981D01*
X108979391Y-60298330D01*
X108987251Y-60228903D01*
X109010313Y-60193018D01*
X109058979Y-60140153D01*
X109185924Y-59945849D01*
X109279157Y-59733300D01*
X109336134Y-59508305D01*
X109342078Y-59436570D01*
X109355300Y-59277006D01*
X109355300Y-59276993D01*
X109336135Y-59045702D01*
X109336133Y-59045691D01*
X109279157Y-58820699D01*
X109185924Y-58608151D01*
X109058981Y-58413849D01*
X109049463Y-58403510D01*
X109010312Y-58360981D01*
X108979391Y-58298330D01*
X108987251Y-58228903D01*
X109010313Y-58193018D01*
X109058979Y-58140153D01*
X109185924Y-57945849D01*
X109279157Y-57733300D01*
X109336134Y-57508305D01*
X109342052Y-57436883D01*
X109355300Y-57277006D01*
X109355300Y-57276993D01*
X109336135Y-57045702D01*
X109336133Y-57045691D01*
X109279157Y-56820699D01*
X109185924Y-56608151D01*
X109058983Y-56413852D01*
X109058980Y-56413849D01*
X109058979Y-56413847D01*
X108944307Y-56289280D01*
X108913387Y-56226628D01*
X108921247Y-56157202D01*
X108946249Y-56120015D01*
X108946184Y-56119960D01*
X108946700Y-56119344D01*
X108947866Y-56117611D01*
X108949661Y-56115815D01*
X109080133Y-55929482D01*
X109176265Y-55723326D01*
X109176269Y-55723317D01*
X109235139Y-55503610D01*
X109235141Y-55503599D01*
X109254966Y-55277002D01*
X109254966Y-55276997D01*
X109235141Y-55050400D01*
X109235139Y-55050389D01*
X109176269Y-54830682D01*
X109176265Y-54830673D01*
X109080133Y-54624516D01*
X109080131Y-54624512D01*
X109029025Y-54551526D01*
X108245346Y-55335205D01*
X108253895Y-55305160D01*
X108243546Y-55193479D01*
X108193552Y-55093078D01*
X108110666Y-55017516D01*
X108006080Y-54977000D01*
X107922198Y-54977000D01*
X107839750Y-54992412D01*
X107744390Y-55051457D01*
X107676799Y-55140962D01*
X107646105Y-55248840D01*
X107654052Y-55334606D01*
X106870973Y-54551527D01*
X106819868Y-54624513D01*
X106723734Y-54830673D01*
X106723730Y-54830682D01*
X106664860Y-55050389D01*
X106664858Y-55050400D01*
X106645034Y-55276997D01*
X106645034Y-55277002D01*
X106664858Y-55503599D01*
X106664860Y-55503610D01*
X106723730Y-55723317D01*
X106723734Y-55723326D01*
X106819865Y-55929482D01*
X106950342Y-56115820D01*
X106952140Y-56117618D01*
X106952680Y-56118608D01*
X106953820Y-56119966D01*
X106953547Y-56120194D01*
X106985625Y-56178941D01*
X106980641Y-56248633D01*
X106955690Y-56289281D01*
X106841016Y-56413852D01*
X106714075Y-56608151D01*
X106620842Y-56820699D01*
X106563866Y-57045691D01*
X106563864Y-57045702D01*
X106544700Y-57276993D01*
X106544700Y-57277006D01*
X106563864Y-57508297D01*
X106563866Y-57508308D01*
X106620842Y-57733300D01*
X106714075Y-57945848D01*
X106727920Y-57967040D01*
X106841021Y-58140153D01*
X106889687Y-58193019D01*
X106920608Y-58255673D01*
X106912747Y-58325099D01*
X106889688Y-58360980D01*
X106841021Y-58413847D01*
X106841019Y-58413848D01*
X106841016Y-58413853D01*
X106714075Y-58608151D01*
X106620842Y-58820699D01*
X106563866Y-59045691D01*
X106563864Y-59045702D01*
X106544700Y-59276993D01*
X106544700Y-59277006D01*
X106563864Y-59508297D01*
X106563866Y-59508308D01*
X106620842Y-59733300D01*
X106714075Y-59945848D01*
X106837856Y-60135310D01*
X106841021Y-60140153D01*
X106889687Y-60193019D01*
X106920608Y-60255673D01*
X106912747Y-60325099D01*
X106889688Y-60360980D01*
X106841021Y-60413847D01*
X106841019Y-60413848D01*
X106841016Y-60413853D01*
X106714075Y-60608151D01*
X106620842Y-60820699D01*
X106563866Y-61045691D01*
X106563864Y-61045702D01*
X106544700Y-61276993D01*
X106544700Y-61277006D01*
X94407800Y-61277006D01*
X94407800Y-61276993D01*
X94388635Y-61045702D01*
X94388633Y-61045691D01*
X94331657Y-60820699D01*
X94238424Y-60608151D01*
X94151225Y-60474683D01*
X94111479Y-60413847D01*
X94063134Y-60361330D01*
X94062813Y-60360981D01*
X94031891Y-60298326D01*
X94039752Y-60228900D01*
X94062811Y-60193019D01*
X94111479Y-60140153D01*
X94238424Y-59945849D01*
X94331657Y-59733300D01*
X94388634Y-59508305D01*
X94394578Y-59436570D01*
X94407800Y-59277006D01*
X94407800Y-59276993D01*
X94388635Y-59045702D01*
X94388633Y-59045691D01*
X94331657Y-58820699D01*
X94238424Y-58608151D01*
X94200953Y-58550797D01*
X94111479Y-58413847D01*
X94063134Y-58361330D01*
X94062813Y-58360981D01*
X94031891Y-58298326D01*
X94039752Y-58228900D01*
X94062811Y-58193019D01*
X94111479Y-58140153D01*
X94238424Y-57945849D01*
X94331657Y-57733300D01*
X94388634Y-57508305D01*
X94394552Y-57436883D01*
X94407800Y-57277006D01*
X94407800Y-57276993D01*
X94388635Y-57045702D01*
X94388633Y-57045691D01*
X94331657Y-56820699D01*
X94238424Y-56608151D01*
X94111483Y-56413852D01*
X94111480Y-56413849D01*
X94111479Y-56413847D01*
X93996807Y-56289280D01*
X93965887Y-56226628D01*
X93973747Y-56157202D01*
X93998749Y-56120015D01*
X93998684Y-56119960D01*
X93999200Y-56119344D01*
X94000366Y-56117611D01*
X94002161Y-56115815D01*
X94132633Y-55929482D01*
X94228765Y-55723326D01*
X94228769Y-55723317D01*
X94287639Y-55503610D01*
X94287641Y-55503599D01*
X94307466Y-55277002D01*
X94307466Y-55276997D01*
X94287641Y-55050400D01*
X94287639Y-55050389D01*
X94228769Y-54830682D01*
X94228765Y-54830673D01*
X94132633Y-54624516D01*
X94132631Y-54624512D01*
X94081525Y-54551526D01*
X93297846Y-55335205D01*
X93306395Y-55305160D01*
X93296046Y-55193479D01*
X93246052Y-55093078D01*
X93163166Y-55017516D01*
X93058580Y-54977000D01*
X92974698Y-54977000D01*
X92892250Y-54992412D01*
X92796890Y-55051457D01*
X92729299Y-55140962D01*
X92698605Y-55248840D01*
X92706552Y-55334606D01*
X91923473Y-54551527D01*
X91872368Y-54624513D01*
X91776234Y-54830673D01*
X91776230Y-54830682D01*
X91717360Y-55050389D01*
X91717358Y-55050400D01*
X91697534Y-55276997D01*
X91697534Y-55277002D01*
X91717358Y-55503599D01*
X91717360Y-55503610D01*
X91776230Y-55723317D01*
X91776234Y-55723326D01*
X91872365Y-55929482D01*
X92002842Y-56115820D01*
X92004640Y-56117618D01*
X92005180Y-56118608D01*
X92006320Y-56119966D01*
X92006047Y-56120194D01*
X92038125Y-56178941D01*
X92033141Y-56248633D01*
X92008190Y-56289281D01*
X91893516Y-56413852D01*
X91766575Y-56608151D01*
X91673342Y-56820699D01*
X91616366Y-57045691D01*
X91616364Y-57045702D01*
X91597200Y-57276993D01*
X91597200Y-57277006D01*
X91616364Y-57508297D01*
X91616366Y-57508308D01*
X91673342Y-57733300D01*
X91766575Y-57945848D01*
X91780420Y-57967040D01*
X91893521Y-58140153D01*
X91942187Y-58193019D01*
X91973108Y-58255673D01*
X91965247Y-58325099D01*
X91942188Y-58360980D01*
X91893521Y-58413847D01*
X91893519Y-58413848D01*
X91893516Y-58413853D01*
X91766575Y-58608151D01*
X91673342Y-58820699D01*
X91616366Y-59045691D01*
X91616364Y-59045702D01*
X91597200Y-59276993D01*
X91597200Y-59277006D01*
X91616364Y-59508297D01*
X91616366Y-59508308D01*
X91673342Y-59733300D01*
X91766575Y-59945848D01*
X91890356Y-60135310D01*
X91893521Y-60140153D01*
X91942187Y-60193019D01*
X91973108Y-60255671D01*
X91965248Y-60325097D01*
X91942187Y-60360980D01*
X91893519Y-60413849D01*
X91766575Y-60608151D01*
X91673342Y-60820699D01*
X91616366Y-61045691D01*
X91616364Y-61045702D01*
X91597200Y-61276993D01*
X91597200Y-61277006D01*
X79331581Y-61277006D01*
X79317635Y-61108702D01*
X79317633Y-61108691D01*
X79260657Y-60883699D01*
X79167424Y-60671151D01*
X79040481Y-60476849D01*
X79024970Y-60460000D01*
X78991812Y-60423981D01*
X78960891Y-60361330D01*
X78968751Y-60291903D01*
X78991813Y-60256018D01*
X79040479Y-60203153D01*
X79167424Y-60008849D01*
X79260657Y-59796300D01*
X79317634Y-59571305D01*
X79317635Y-59571297D01*
X79336800Y-59340006D01*
X79336800Y-59339993D01*
X79317635Y-59108702D01*
X79317633Y-59108691D01*
X79260657Y-58883699D01*
X79167424Y-58671151D01*
X79040481Y-58476849D01*
X79032582Y-58468269D01*
X78991812Y-58423981D01*
X78960891Y-58361330D01*
X78968751Y-58291903D01*
X78991813Y-58256018D01*
X79040479Y-58203153D01*
X79167424Y-58008849D01*
X79260657Y-57796300D01*
X79317634Y-57571305D01*
X79317648Y-57571138D01*
X79336800Y-57340006D01*
X79336800Y-57339993D01*
X79317635Y-57108702D01*
X79317633Y-57108691D01*
X79260657Y-56883699D01*
X79167424Y-56671151D01*
X79040483Y-56476852D01*
X79040480Y-56476849D01*
X79040479Y-56476847D01*
X78925807Y-56352280D01*
X78894887Y-56289628D01*
X78902747Y-56220202D01*
X78927749Y-56183015D01*
X78927684Y-56182960D01*
X78928200Y-56182344D01*
X78929366Y-56180611D01*
X78931161Y-56178815D01*
X79061633Y-55992482D01*
X79157765Y-55786326D01*
X79157769Y-55786317D01*
X79216639Y-55566610D01*
X79216641Y-55566599D01*
X79236466Y-55340002D01*
X79236466Y-55339997D01*
X79216641Y-55113400D01*
X79216639Y-55113389D01*
X79157769Y-54893682D01*
X79157765Y-54893673D01*
X79061633Y-54687516D01*
X79061631Y-54687512D01*
X79010525Y-54614526D01*
X78226846Y-55398205D01*
X78235395Y-55368160D01*
X78225046Y-55256479D01*
X78175052Y-55156078D01*
X78092166Y-55080516D01*
X77987580Y-55040000D01*
X77903698Y-55040000D01*
X77821250Y-55055412D01*
X77725890Y-55114457D01*
X77658299Y-55203962D01*
X77627605Y-55311840D01*
X77635552Y-55397606D01*
X76852473Y-54614527D01*
X76801368Y-54687513D01*
X76705234Y-54893673D01*
X76705230Y-54893682D01*
X76646360Y-55113389D01*
X76646358Y-55113400D01*
X76626534Y-55339997D01*
X76626534Y-55340002D01*
X76646358Y-55566599D01*
X76646360Y-55566610D01*
X76705230Y-55786317D01*
X76705234Y-55786326D01*
X76801365Y-55992482D01*
X76931842Y-56178820D01*
X76933640Y-56180618D01*
X76934180Y-56181608D01*
X76935320Y-56182966D01*
X76935047Y-56183194D01*
X76967125Y-56241941D01*
X76962141Y-56311633D01*
X76937190Y-56352281D01*
X76822516Y-56476852D01*
X76695575Y-56671151D01*
X76602342Y-56883699D01*
X76545366Y-57108691D01*
X76545364Y-57108702D01*
X76526200Y-57339993D01*
X76526200Y-57340006D01*
X76545364Y-57571297D01*
X76545366Y-57571308D01*
X76602342Y-57796300D01*
X76695575Y-58008848D01*
X76815896Y-58193014D01*
X76822521Y-58203153D01*
X76871187Y-58256019D01*
X76902108Y-58318673D01*
X76894247Y-58388099D01*
X76871188Y-58423980D01*
X76822521Y-58476847D01*
X76822519Y-58476848D01*
X76822516Y-58476853D01*
X76695575Y-58671151D01*
X76602342Y-58883699D01*
X76545366Y-59108691D01*
X76545364Y-59108702D01*
X76526200Y-59339993D01*
X76526200Y-59340006D01*
X76545364Y-59571297D01*
X76545366Y-59571308D01*
X76602342Y-59796300D01*
X76695575Y-60008848D01*
X76815896Y-60193014D01*
X76822521Y-60203153D01*
X76871187Y-60256019D01*
X76902108Y-60318673D01*
X76894247Y-60388099D01*
X76871188Y-60423980D01*
X76822521Y-60476847D01*
X76822519Y-60476848D01*
X76822516Y-60476853D01*
X76695575Y-60671151D01*
X76602342Y-60883699D01*
X76545366Y-61108691D01*
X76545364Y-61108702D01*
X76526200Y-61339993D01*
X76526200Y-61340006D01*
X63750500Y-61340006D01*
X63750500Y-54260973D01*
X77206026Y-54260973D01*
X77931500Y-54986446D01*
X77931501Y-54986446D01*
X78656972Y-54260974D01*
X78656971Y-54260973D01*
X78583983Y-54209866D01*
X78583981Y-54209865D01*
X78558478Y-54197973D01*
X92277026Y-54197973D01*
X93002500Y-54923446D01*
X93002501Y-54923446D01*
X93727972Y-54197974D01*
X93727971Y-54197973D01*
X107224526Y-54197973D01*
X107950000Y-54923446D01*
X107950001Y-54923446D01*
X108675472Y-54197974D01*
X108675471Y-54197973D01*
X108602483Y-54146866D01*
X108602481Y-54146865D01*
X108396326Y-54050734D01*
X108396317Y-54050730D01*
X108176610Y-53991860D01*
X108176599Y-53991858D01*
X107950002Y-53972034D01*
X107949998Y-53972034D01*
X107723400Y-53991858D01*
X107723389Y-53991860D01*
X107503682Y-54050730D01*
X107503673Y-54050734D01*
X107297513Y-54146868D01*
X107224527Y-54197972D01*
X107224526Y-54197973D01*
X93727971Y-54197973D01*
X93654983Y-54146866D01*
X93654981Y-54146865D01*
X93448826Y-54050734D01*
X93448817Y-54050730D01*
X93229110Y-53991860D01*
X93229099Y-53991858D01*
X93002502Y-53972034D01*
X93002498Y-53972034D01*
X92775900Y-53991858D01*
X92775889Y-53991860D01*
X92556182Y-54050730D01*
X92556173Y-54050734D01*
X92350013Y-54146868D01*
X92277027Y-54197972D01*
X92277026Y-54197973D01*
X78558478Y-54197973D01*
X78377826Y-54113734D01*
X78377817Y-54113730D01*
X78158110Y-54054860D01*
X78158099Y-54054858D01*
X77931502Y-54035034D01*
X77931498Y-54035034D01*
X77704900Y-54054858D01*
X77704889Y-54054860D01*
X77485182Y-54113730D01*
X77485173Y-54113734D01*
X77279013Y-54209868D01*
X77206027Y-54260972D01*
X77206026Y-54260973D01*
X63750500Y-54260973D01*
X63750500Y-50969812D01*
X70634992Y-50969812D01*
X70645000Y-51256393D01*
X70645001Y-51256400D01*
X70694797Y-51538807D01*
X70694798Y-51538811D01*
X70783416Y-51811548D01*
X70909122Y-52069283D01*
X70909125Y-52069287D01*
X70909127Y-52069291D01*
X71069486Y-52307034D01*
X71136887Y-52381890D01*
X71261368Y-52520141D01*
X71261375Y-52520148D01*
X71481045Y-52704474D01*
X71481049Y-52704477D01*
X71481051Y-52704478D01*
X71724246Y-52856443D01*
X71844071Y-52909793D01*
X71986210Y-52973078D01*
X71986215Y-52973079D01*
X71986223Y-52973083D01*
X72261884Y-53052127D01*
X72261889Y-53052127D01*
X72261894Y-53052129D01*
X72451203Y-53078734D01*
X72545858Y-53092037D01*
X72545860Y-53092038D01*
X72545863Y-53092038D01*
X72760840Y-53092038D01*
X72760852Y-53092038D01*
X72975319Y-53077041D01*
X72975324Y-53077040D01*
X72975326Y-53077040D01*
X73096911Y-53051195D01*
X73255823Y-53017418D01*
X73525298Y-52919337D01*
X73778501Y-52784707D01*
X74008765Y-52617410D01*
X74010494Y-52616154D01*
X74010495Y-52616152D01*
X74010502Y-52616148D01*
X74216787Y-52416941D01*
X74393341Y-52190963D01*
X74536725Y-51942613D01*
X74644151Y-51676725D01*
X74713527Y-51398473D01*
X74743503Y-51113274D01*
X74733495Y-50826679D01*
X74683698Y-50544266D01*
X74595081Y-50271532D01*
X74595079Y-50271527D01*
X74469373Y-50013792D01*
X74469371Y-50013789D01*
X74469369Y-50013785D01*
X74309010Y-49776042D01*
X74117123Y-49562930D01*
X74117120Y-49562927D01*
X73897450Y-49378601D01*
X73654254Y-49226635D01*
X73654252Y-49226634D01*
X73392285Y-49109997D01*
X73392275Y-49109994D01*
X73392273Y-49109993D01*
X73116612Y-49030949D01*
X73116610Y-49030948D01*
X73116601Y-49030946D01*
X72832637Y-48991038D01*
X72832633Y-48991038D01*
X72617644Y-48991038D01*
X72617631Y-48991038D01*
X72403173Y-49006035D01*
X72403169Y-49006035D01*
X72122675Y-49065657D01*
X71853202Y-49163737D01*
X71600000Y-49298365D01*
X71599993Y-49298370D01*
X71368001Y-49466921D01*
X71367994Y-49466927D01*
X71161707Y-49666137D01*
X70985155Y-49892112D01*
X70841773Y-50140458D01*
X70841767Y-50140470D01*
X70734345Y-50406349D01*
X70664969Y-50684603D01*
X70634992Y-50969812D01*
X63750500Y-50969812D01*
X63750500Y-46584000D01*
X63770185Y-46516961D01*
X63822989Y-46471206D01*
X63874500Y-46460000D01*
X73629327Y-46460000D01*
X73696366Y-46479685D01*
G37*
%TD.AperFunction*%
%TA.AperFunction,Conductor*%
G36*
X150986904Y-122025304D02*
G01*
X151008809Y-122050583D01*
X151066016Y-122138147D01*
X151066019Y-122138151D01*
X151066021Y-122138153D01*
X151223216Y-122308913D01*
X151223219Y-122308915D01*
X151223222Y-122308918D01*
X151406365Y-122451464D01*
X151406371Y-122451468D01*
X151406374Y-122451470D01*
X151542284Y-122525021D01*
X151586822Y-122549124D01*
X151610497Y-122561936D01*
X151714639Y-122597688D01*
X151831673Y-122637866D01*
X151888688Y-122678251D01*
X151914819Y-122743051D01*
X151901768Y-122811691D01*
X151886402Y-122834850D01*
X151848694Y-122879790D01*
X151844729Y-122885819D01*
X151844682Y-122885788D01*
X151840630Y-122892147D01*
X151840679Y-122892177D01*
X151836889Y-122898321D01*
X151804812Y-122967110D01*
X151804027Y-122968731D01*
X151769957Y-123036572D01*
X151767488Y-123043357D01*
X151767432Y-123043336D01*
X151764960Y-123050450D01*
X151765015Y-123050469D01*
X151762743Y-123057325D01*
X151747391Y-123131670D01*
X151747001Y-123133428D01*
X151729499Y-123207279D01*
X151728661Y-123214454D01*
X151728601Y-123214447D01*
X151727835Y-123221945D01*
X151727895Y-123221951D01*
X151727265Y-123229140D01*
X151729474Y-123305030D01*
X151729500Y-123306833D01*
X151729500Y-129282769D01*
X151709815Y-129349808D01*
X151693181Y-129370450D01*
X150900451Y-130163181D01*
X150839128Y-130196666D01*
X150812770Y-130199500D01*
X135095430Y-130199500D01*
X135028391Y-130179815D01*
X134982636Y-130127011D01*
X134980960Y-130122811D01*
X134979157Y-130118700D01*
X134885924Y-129906151D01*
X134844221Y-129842320D01*
X134824035Y-129775432D01*
X134843215Y-129708246D01*
X134895673Y-129662096D01*
X134948031Y-129650500D01*
X138387913Y-129650500D01*
X138392948Y-129650705D01*
X138412562Y-129652301D01*
X138448167Y-129655201D01*
X138512520Y-129646432D01*
X138527580Y-129644381D01*
X138529248Y-129644177D01*
X138608911Y-129635514D01*
X138610036Y-129635266D01*
X138630307Y-129630515D01*
X138631463Y-129630227D01*
X138631468Y-129630227D01*
X138668387Y-129616663D01*
X138706711Y-129602584D01*
X138708267Y-129602035D01*
X138784221Y-129576444D01*
X138784230Y-129576438D01*
X138785351Y-129575920D01*
X138804123Y-129566923D01*
X138805111Y-129566433D01*
X138805116Y-129566432D01*
X138872702Y-129523230D01*
X138874032Y-129522406D01*
X138942736Y-129481070D01*
X138942743Y-129481062D01*
X138943669Y-129480360D01*
X138960076Y-129467533D01*
X138960990Y-129466799D01*
X138960990Y-129466798D01*
X139017722Y-129410065D01*
X139018782Y-129409033D01*
X139077041Y-129353849D01*
X139077044Y-129353843D01*
X139077757Y-129353005D01*
X139091904Y-129335883D01*
X141199787Y-127228000D01*
X142873001Y-127228000D01*
X142873001Y-127277986D01*
X142883494Y-127380697D01*
X142938641Y-127547119D01*
X142938643Y-127547124D01*
X143030684Y-127696345D01*
X143154654Y-127820315D01*
X143303875Y-127912356D01*
X143303880Y-127912358D01*
X143470302Y-127967505D01*
X143470309Y-127967506D01*
X143573019Y-127977999D01*
X143847999Y-127977999D01*
X143848000Y-127977998D01*
X143848000Y-127228000D01*
X144348000Y-127228000D01*
X144348000Y-127977999D01*
X144622972Y-127977999D01*
X144622986Y-127977998D01*
X144725697Y-127967505D01*
X144892119Y-127912358D01*
X144892124Y-127912356D01*
X145047491Y-127816525D01*
X145048955Y-127818898D01*
X145101858Y-127797543D01*
X145170503Y-127810568D01*
X145180299Y-127816864D01*
X145180509Y-127816525D01*
X145335875Y-127912356D01*
X145335880Y-127912358D01*
X145502302Y-127967505D01*
X145502309Y-127967506D01*
X145605019Y-127977999D01*
X145879999Y-127977999D01*
X145880000Y-127977998D01*
X145880000Y-127228000D01*
X146380000Y-127228000D01*
X146380000Y-127977999D01*
X146654972Y-127977999D01*
X146654986Y-127977998D01*
X146757697Y-127967505D01*
X146924119Y-127912358D01*
X146924124Y-127912356D01*
X147073345Y-127820315D01*
X147197315Y-127696345D01*
X147289356Y-127547124D01*
X147289358Y-127547119D01*
X147344505Y-127380697D01*
X147344506Y-127380690D01*
X147354999Y-127277986D01*
X147355000Y-127277973D01*
X147355000Y-127228000D01*
X146380000Y-127228000D01*
X145880000Y-127228000D01*
X144348000Y-127228000D01*
X143848000Y-127228000D01*
X142873001Y-127228000D01*
X141199787Y-127228000D01*
X142462968Y-125964819D01*
X142524292Y-125931334D01*
X142550650Y-125928500D01*
X142968877Y-125928500D01*
X143035916Y-125948185D01*
X143046562Y-125955851D01*
X143074316Y-125978160D01*
X143098454Y-125997563D01*
X143138372Y-126054907D01*
X143140952Y-126124729D01*
X143108448Y-126181891D01*
X143030682Y-126259657D01*
X142938643Y-126408875D01*
X142938641Y-126408880D01*
X142883494Y-126575302D01*
X142883493Y-126575309D01*
X142873000Y-126678013D01*
X142873000Y-126728000D01*
X147354999Y-126728000D01*
X147354999Y-126678028D01*
X147354998Y-126678013D01*
X147344505Y-126575302D01*
X147289358Y-126408880D01*
X147289356Y-126408875D01*
X147197315Y-126259654D01*
X147119552Y-126181891D01*
X147086067Y-126120568D01*
X147091051Y-126050876D01*
X147129546Y-125997563D01*
X147209938Y-125932942D01*
X147217277Y-125923812D01*
X147325842Y-125788753D01*
X147408037Y-125623021D01*
X147452683Y-125443495D01*
X147455500Y-125401954D01*
X147455500Y-125006649D01*
X147475185Y-124939611D01*
X147491819Y-124918969D01*
X148578486Y-123832302D01*
X149704043Y-122706744D01*
X149765364Y-122673261D01*
X149771291Y-122672122D01*
X149979981Y-122637298D01*
X150199503Y-122561936D01*
X150403626Y-122451470D01*
X150406100Y-122449545D01*
X150478305Y-122393345D01*
X150586784Y-122308913D01*
X150743979Y-122138153D01*
X150801191Y-122050582D01*
X150854337Y-122005226D01*
X150923568Y-121995802D01*
X150986904Y-122025304D01*
G37*
%TD.AperFunction*%
%TA.AperFunction,Conductor*%
G36*
X77679809Y-113695185D02*
G01*
X77700451Y-113711819D01*
X91960267Y-127971634D01*
X91972048Y-127985266D01*
X91986390Y-128004530D01*
X92026420Y-128038119D01*
X92030392Y-128041759D01*
X92033312Y-128044679D01*
X92036221Y-128047589D01*
X92061250Y-128067379D01*
X92062646Y-128068517D01*
X92120786Y-128117302D01*
X92120787Y-128117302D01*
X92120789Y-128117304D01*
X92126818Y-128121270D01*
X92126785Y-128121319D01*
X92133147Y-128125372D01*
X92133179Y-128125321D01*
X92139319Y-128129108D01*
X92139323Y-128129111D01*
X92166202Y-128141645D01*
X92208137Y-128161200D01*
X92209760Y-128161986D01*
X92277562Y-128196038D01*
X92284357Y-128198511D01*
X92284336Y-128198567D01*
X92291455Y-128201042D01*
X92291474Y-128200986D01*
X92298324Y-128203255D01*
X92298327Y-128203257D01*
X92372709Y-128218614D01*
X92374418Y-128218994D01*
X92398369Y-128224670D01*
X92448273Y-128236499D01*
X92448276Y-128236499D01*
X92448279Y-128236500D01*
X92448282Y-128236500D01*
X92455452Y-128237338D01*
X92455444Y-128237397D01*
X92462945Y-128238164D01*
X92462951Y-128238105D01*
X92470140Y-128238734D01*
X92470144Y-128238733D01*
X92470145Y-128238734D01*
X92498230Y-128237916D01*
X92546033Y-128236526D01*
X92547836Y-128236500D01*
X116971500Y-128236500D01*
X117038539Y-128256185D01*
X117084294Y-128308989D01*
X117095500Y-128360500D01*
X117095500Y-128730363D01*
X117110953Y-128847753D01*
X117110956Y-128847762D01*
X117171464Y-128993841D01*
X117173809Y-128997903D01*
X117190279Y-129065804D01*
X117179976Y-129109710D01*
X117114845Y-129258193D01*
X117114845Y-129258195D01*
X117114843Y-129258200D01*
X117095154Y-129335944D01*
X117059617Y-129396096D01*
X116997197Y-129427488D01*
X116974951Y-129429500D01*
X88377766Y-129429500D01*
X88310727Y-129409815D01*
X88264972Y-129357011D01*
X88255028Y-129287853D01*
X88276192Y-129234376D01*
X88332129Y-129154489D01*
X88332133Y-129154483D01*
X88428265Y-128948326D01*
X88428269Y-128948317D01*
X88487139Y-128728610D01*
X88487141Y-128728599D01*
X88506966Y-128502002D01*
X88506966Y-128501997D01*
X88487141Y-128275400D01*
X88487139Y-128275389D01*
X88428269Y-128055682D01*
X88428265Y-128055673D01*
X88332133Y-127849516D01*
X88332131Y-127849512D01*
X88281025Y-127776526D01*
X87497346Y-128560205D01*
X87505895Y-128530160D01*
X87495546Y-128418479D01*
X87445552Y-128318078D01*
X87362666Y-128242516D01*
X87258080Y-128202000D01*
X87174198Y-128202000D01*
X87091750Y-128217412D01*
X86996390Y-128276457D01*
X86928799Y-128365962D01*
X86898105Y-128473840D01*
X86906052Y-128559606D01*
X86122973Y-127776527D01*
X86092546Y-127819981D01*
X86037968Y-127863606D01*
X85968470Y-127870798D01*
X85906115Y-127839276D01*
X85887162Y-127816678D01*
X85770983Y-127638852D01*
X85770980Y-127638849D01*
X85770979Y-127638847D01*
X85613784Y-127468087D01*
X85613779Y-127468083D01*
X85613777Y-127468081D01*
X85555822Y-127422973D01*
X86476526Y-127422973D01*
X87202000Y-128148446D01*
X87202001Y-128148446D01*
X87927472Y-127422974D01*
X87927471Y-127422973D01*
X87854483Y-127371866D01*
X87854481Y-127371865D01*
X87648326Y-127275734D01*
X87648317Y-127275730D01*
X87428610Y-127216860D01*
X87428599Y-127216858D01*
X87202002Y-127197034D01*
X87201998Y-127197034D01*
X86975400Y-127216858D01*
X86975389Y-127216860D01*
X86755682Y-127275730D01*
X86755673Y-127275734D01*
X86549513Y-127371868D01*
X86476527Y-127422972D01*
X86476526Y-127422973D01*
X85555822Y-127422973D01*
X85430634Y-127325535D01*
X85430628Y-127325531D01*
X85226504Y-127215064D01*
X85226495Y-127215061D01*
X85006984Y-127139702D01*
X84835281Y-127111050D01*
X84778049Y-127101500D01*
X84545951Y-127101500D01*
X84500164Y-127109140D01*
X84317015Y-127139702D01*
X84097504Y-127215061D01*
X84097495Y-127215064D01*
X83893371Y-127325531D01*
X83893365Y-127325535D01*
X83710222Y-127468081D01*
X83710219Y-127468084D01*
X83710216Y-127468086D01*
X83710216Y-127468087D01*
X83689652Y-127490426D01*
X83553016Y-127638852D01*
X83495809Y-127726416D01*
X83442662Y-127771773D01*
X83373431Y-127781197D01*
X83310095Y-127751695D01*
X83288191Y-127726416D01*
X83230983Y-127638852D01*
X83230980Y-127638849D01*
X83230979Y-127638847D01*
X83073784Y-127468087D01*
X83073779Y-127468083D01*
X83073777Y-127468081D01*
X82890634Y-127325535D01*
X82890628Y-127325531D01*
X82686504Y-127215064D01*
X82686495Y-127215061D01*
X82466984Y-127139702D01*
X82295282Y-127111050D01*
X82238049Y-127101500D01*
X82005951Y-127101500D01*
X81960164Y-127109140D01*
X81777015Y-127139702D01*
X81557504Y-127215061D01*
X81557495Y-127215064D01*
X81353371Y-127325531D01*
X81353365Y-127325535D01*
X81170222Y-127468081D01*
X81170219Y-127468084D01*
X81170216Y-127468086D01*
X81170216Y-127468087D01*
X81149652Y-127490426D01*
X81013016Y-127638852D01*
X80955809Y-127726416D01*
X80902662Y-127771773D01*
X80833431Y-127781197D01*
X80770095Y-127751695D01*
X80748191Y-127726416D01*
X80690983Y-127638852D01*
X80690980Y-127638849D01*
X80690979Y-127638847D01*
X80533784Y-127468087D01*
X80533779Y-127468083D01*
X80533777Y-127468081D01*
X80350634Y-127325535D01*
X80350628Y-127325531D01*
X80146504Y-127215064D01*
X80146495Y-127215061D01*
X79926984Y-127139702D01*
X79755281Y-127111050D01*
X79698049Y-127101500D01*
X79465951Y-127101500D01*
X79420164Y-127109140D01*
X79237015Y-127139702D01*
X79017504Y-127215061D01*
X79017495Y-127215064D01*
X78813371Y-127325531D01*
X78813365Y-127325535D01*
X78630222Y-127468081D01*
X78630219Y-127468084D01*
X78630216Y-127468086D01*
X78630216Y-127468087D01*
X78609652Y-127490426D01*
X78473016Y-127638852D01*
X78346075Y-127833151D01*
X78252842Y-128045699D01*
X78195866Y-128270691D01*
X78195864Y-128270702D01*
X78176700Y-128501993D01*
X78176700Y-128502006D01*
X78195864Y-128733297D01*
X78195866Y-128733308D01*
X78252842Y-128958300D01*
X78338897Y-129154483D01*
X78346076Y-129170849D01*
X78389738Y-129237678D01*
X78409925Y-129304568D01*
X78390745Y-129371754D01*
X78338287Y-129417904D01*
X78285929Y-129429500D01*
X70358651Y-129429500D01*
X70291612Y-129409815D01*
X70270970Y-129393181D01*
X69461819Y-128584030D01*
X69428334Y-128522707D01*
X69425500Y-128496349D01*
X69425500Y-122884123D01*
X69445185Y-122817084D01*
X69452853Y-122806435D01*
X69545842Y-122690753D01*
X69628037Y-122525021D01*
X69672683Y-122345495D01*
X69675500Y-122303954D01*
X69675500Y-121431712D01*
X69695185Y-121364673D01*
X69747989Y-121318918D01*
X69817147Y-121308974D01*
X69880703Y-121337999D01*
X69901075Y-121360589D01*
X69917340Y-121383818D01*
X70078179Y-121544657D01*
X70264517Y-121675134D01*
X70470673Y-121771265D01*
X70470682Y-121771269D01*
X70690389Y-121830139D01*
X70690400Y-121830141D01*
X70860233Y-121844999D01*
X70860236Y-121845000D01*
X70917000Y-121845000D01*
X70917000Y-120980501D01*
X71024685Y-121029680D01*
X71131237Y-121045000D01*
X71202763Y-121045000D01*
X71309315Y-121029680D01*
X71417000Y-120980501D01*
X71417000Y-121845000D01*
X71473764Y-121845000D01*
X71473766Y-121844999D01*
X71643599Y-121830141D01*
X71643610Y-121830139D01*
X71863317Y-121771269D01*
X71863326Y-121771265D01*
X72069482Y-121675134D01*
X72255820Y-121544657D01*
X72416657Y-121383820D01*
X72547134Y-121197482D01*
X72643265Y-120991326D01*
X72643269Y-120991317D01*
X72695872Y-120795000D01*
X71600686Y-120795000D01*
X71626493Y-120754844D01*
X71667000Y-120616889D01*
X71667000Y-120473111D01*
X71626493Y-120335156D01*
X71600686Y-120295000D01*
X72695872Y-120295000D01*
X72695872Y-120294999D01*
X72643269Y-120098682D01*
X72643265Y-120098673D01*
X72547134Y-119892517D01*
X72416657Y-119706179D01*
X72255820Y-119545342D01*
X72100503Y-119436587D01*
X72056878Y-119382009D01*
X72049686Y-119312511D01*
X72081208Y-119250156D01*
X72102190Y-119232277D01*
X72299993Y-119098586D01*
X72299994Y-119098584D01*
X72300003Y-119098579D01*
X72472118Y-118933621D01*
X72613879Y-118741947D01*
X72721207Y-118529074D01*
X72791016Y-118301123D01*
X72813616Y-118124637D01*
X72841657Y-118060642D01*
X72899845Y-118021965D01*
X72969706Y-118020887D01*
X73012774Y-118042535D01*
X73020853Y-118048823D01*
X73056374Y-118076470D01*
X73260497Y-118186936D01*
X73287034Y-118196046D01*
X73480015Y-118262297D01*
X73480017Y-118262297D01*
X73480019Y-118262298D01*
X73708951Y-118300500D01*
X73708952Y-118300500D01*
X73941048Y-118300500D01*
X73941049Y-118300500D01*
X74169981Y-118262298D01*
X74389503Y-118186936D01*
X74593626Y-118076470D01*
X74608813Y-118064650D01*
X74670807Y-118016398D01*
X74776784Y-117933913D01*
X74933979Y-117763153D01*
X75060924Y-117568849D01*
X75154157Y-117356300D01*
X75211134Y-117131305D01*
X75216935Y-117061297D01*
X75230300Y-116900006D01*
X75230300Y-116899993D01*
X75211135Y-116668702D01*
X75211133Y-116668691D01*
X75154157Y-116443699D01*
X75060924Y-116231151D01*
X74933981Y-116036849D01*
X74822585Y-115915840D01*
X74791663Y-115853186D01*
X74799523Y-115783760D01*
X74843671Y-115729604D01*
X74873548Y-115714578D01*
X74939503Y-115691936D01*
X75143626Y-115581470D01*
X75150449Y-115576160D01*
X75209289Y-115530363D01*
X75326784Y-115438913D01*
X75483979Y-115268153D01*
X75487077Y-115263412D01*
X75543253Y-115177427D01*
X75610924Y-115073849D01*
X75704157Y-114861300D01*
X75761134Y-114636305D01*
X75761135Y-114636297D01*
X75780300Y-114405006D01*
X75780300Y-114404993D01*
X75761135Y-114173702D01*
X75761133Y-114173691D01*
X75704157Y-113948699D01*
X75660561Y-113849310D01*
X75651658Y-113780010D01*
X75681635Y-113716898D01*
X75740975Y-113680011D01*
X75774117Y-113675500D01*
X77612770Y-113675500D01*
X77679809Y-113695185D01*
G37*
%TD.AperFunction*%
%TA.AperFunction,Conductor*%
G36*
X130975962Y-113940374D02*
G01*
X131017853Y-113967929D01*
X141448386Y-124398462D01*
X141481871Y-124459785D01*
X141476887Y-124529477D01*
X141448386Y-124573824D01*
X138109030Y-127913181D01*
X138047707Y-127946666D01*
X138021349Y-127949500D01*
X123539087Y-127949500D01*
X123534052Y-127949295D01*
X123478835Y-127944798D01*
X123478826Y-127944799D01*
X123399434Y-127955615D01*
X123397769Y-127955819D01*
X123318092Y-127964485D01*
X123317131Y-127964697D01*
X123296471Y-127969538D01*
X123295538Y-127969770D01*
X123220287Y-127997415D01*
X123218706Y-127997972D01*
X123142784Y-128023553D01*
X123141920Y-128023953D01*
X123122704Y-128033160D01*
X123121885Y-128033567D01*
X123054352Y-128076732D01*
X123052927Y-128077616D01*
X122984265Y-128118929D01*
X122983494Y-128119515D01*
X122966791Y-128132572D01*
X122966012Y-128133199D01*
X122909366Y-128189843D01*
X122908165Y-128191012D01*
X122849956Y-128246152D01*
X122849322Y-128246899D01*
X122835093Y-128264116D01*
X122330030Y-128769181D01*
X122268707Y-128802666D01*
X122242349Y-128805500D01*
X121440500Y-128805500D01*
X121373461Y-128785815D01*
X121327706Y-128733011D01*
X121316500Y-128681500D01*
X121316499Y-128141636D01*
X121301046Y-128024246D01*
X121301044Y-128024239D01*
X121301044Y-128024238D01*
X121240536Y-127878159D01*
X121144282Y-127752718D01*
X121018841Y-127656464D01*
X121018840Y-127656463D01*
X121018838Y-127656462D01*
X120883879Y-127600561D01*
X120829475Y-127556720D01*
X120807410Y-127490426D01*
X120824689Y-127422727D01*
X120875826Y-127375116D01*
X120883879Y-127371439D01*
X120994701Y-127325535D01*
X121018841Y-127315536D01*
X121144282Y-127219282D01*
X121240536Y-127093841D01*
X121301044Y-126947762D01*
X121316500Y-126830361D01*
X121316499Y-126241640D01*
X121316499Y-126241639D01*
X121316499Y-126241636D01*
X121301046Y-126124246D01*
X121301044Y-126124241D01*
X121301044Y-126124238D01*
X121240536Y-125978159D01*
X121144282Y-125852718D01*
X121018841Y-125756464D01*
X121018365Y-125756267D01*
X120872762Y-125695956D01*
X120872760Y-125695955D01*
X120755370Y-125680501D01*
X120755367Y-125680500D01*
X120755361Y-125680500D01*
X120755354Y-125680500D01*
X120623230Y-125680500D01*
X120556191Y-125660815D01*
X120535549Y-125644181D01*
X119754634Y-124863266D01*
X119721149Y-124801943D01*
X119726133Y-124732251D01*
X119768005Y-124676318D01*
X119802052Y-124658304D01*
X119932123Y-124613650D01*
X120024503Y-124581936D01*
X120228626Y-124471470D01*
X120257766Y-124448790D01*
X120342127Y-124383129D01*
X120411784Y-124328913D01*
X120568979Y-124158153D01*
X120688849Y-123974677D01*
X120741996Y-123929322D01*
X120792658Y-123918500D01*
X123848142Y-123918500D01*
X123915181Y-123938185D01*
X123953731Y-123977485D01*
X123969930Y-124003794D01*
X123969931Y-124003796D01*
X124116920Y-124170807D01*
X124127436Y-124182755D01*
X124312920Y-124332523D01*
X124521046Y-124448790D01*
X124613135Y-124481327D01*
X124745829Y-124528211D01*
X124980790Y-124568499D01*
X124980798Y-124568499D01*
X124980800Y-124568500D01*
X124980801Y-124568500D01*
X125559496Y-124568500D01*
X125559497Y-124568500D01*
X125559498Y-124568499D01*
X125559515Y-124568499D01*
X125737536Y-124553347D01*
X125737539Y-124553346D01*
X125737541Y-124553346D01*
X125968249Y-124493275D01*
X126177998Y-124398462D01*
X126185480Y-124395080D01*
X126185481Y-124395078D01*
X126185486Y-124395077D01*
X126379383Y-124264026D01*
X126382993Y-124261586D01*
X126382994Y-124261584D01*
X126383003Y-124261579D01*
X126555118Y-124096621D01*
X126621732Y-124006552D01*
X126649679Y-123968766D01*
X126705369Y-123926571D01*
X126749375Y-123918500D01*
X128168142Y-123918500D01*
X128235181Y-123938185D01*
X128273731Y-123977485D01*
X128289930Y-124003794D01*
X128289931Y-124003796D01*
X128436920Y-124170807D01*
X128447436Y-124182755D01*
X128632920Y-124332523D01*
X128841046Y-124448790D01*
X128933135Y-124481327D01*
X129065829Y-124528211D01*
X129300790Y-124568499D01*
X129300798Y-124568499D01*
X129300800Y-124568500D01*
X129300801Y-124568500D01*
X129879496Y-124568500D01*
X129879497Y-124568500D01*
X129879498Y-124568499D01*
X129879515Y-124568499D01*
X130057536Y-124553347D01*
X130057539Y-124553346D01*
X130057541Y-124553346D01*
X130288249Y-124493275D01*
X130497998Y-124398462D01*
X130505480Y-124395080D01*
X130505481Y-124395078D01*
X130505486Y-124395077D01*
X130699383Y-124264026D01*
X130702993Y-124261586D01*
X130702994Y-124261584D01*
X130703003Y-124261579D01*
X130875118Y-124096621D01*
X131016879Y-123904947D01*
X131124207Y-123692074D01*
X131194016Y-123464123D01*
X131224298Y-123227654D01*
X131224088Y-123222720D01*
X131217063Y-123057327D01*
X131214180Y-122989468D01*
X131209361Y-122967110D01*
X131163954Y-122756419D01*
X131145730Y-122711067D01*
X131075064Y-122535210D01*
X130950069Y-122332205D01*
X130792564Y-122153245D01*
X130607080Y-122003477D01*
X130607074Y-122003474D01*
X130607071Y-122003471D01*
X130607057Y-122003463D01*
X130607051Y-122003457D01*
X130602709Y-122000522D01*
X130603306Y-121999638D01*
X130558134Y-121953580D01*
X130543947Y-121885165D01*
X130568999Y-121819942D01*
X130598099Y-121792481D01*
X130703003Y-121721579D01*
X130875118Y-121556621D01*
X131016879Y-121364947D01*
X131124207Y-121152074D01*
X131194016Y-120924123D01*
X131224298Y-120687654D01*
X131223611Y-120671490D01*
X131215570Y-120482185D01*
X131214180Y-120449468D01*
X131213018Y-120444078D01*
X131163954Y-120216419D01*
X131138502Y-120153079D01*
X131075064Y-119995210D01*
X130950069Y-119792205D01*
X130792564Y-119613245D01*
X130607080Y-119463477D01*
X130607074Y-119463474D01*
X130607071Y-119463471D01*
X130607057Y-119463463D01*
X130607051Y-119463457D01*
X130602709Y-119460522D01*
X130603306Y-119459638D01*
X130558134Y-119413580D01*
X130543947Y-119345165D01*
X130568999Y-119279942D01*
X130598099Y-119252481D01*
X130703003Y-119181579D01*
X130875118Y-119016621D01*
X131016879Y-118824947D01*
X131124207Y-118612074D01*
X131194016Y-118384123D01*
X131224298Y-118147654D01*
X131223790Y-118135706D01*
X131214180Y-117909471D01*
X131214180Y-117909467D01*
X131163954Y-117676419D01*
X131159153Y-117664471D01*
X131075064Y-117455210D01*
X130950069Y-117252205D01*
X130792564Y-117073245D01*
X130607080Y-116923477D01*
X130607069Y-116923471D01*
X130509924Y-116869202D01*
X130460997Y-116819322D01*
X130446805Y-116750909D01*
X130471853Y-116685683D01*
X130499275Y-116659373D01*
X130658817Y-116547660D01*
X130819657Y-116386820D01*
X130950134Y-116200482D01*
X131046265Y-115994326D01*
X131046269Y-115994317D01*
X131098872Y-115798000D01*
X129786111Y-115798000D01*
X129825610Y-115773543D01*
X129893201Y-115684038D01*
X129923895Y-115576160D01*
X129913546Y-115464479D01*
X129863552Y-115364078D01*
X129791069Y-115298000D01*
X131098872Y-115298000D01*
X131098872Y-115297999D01*
X131046269Y-115101682D01*
X131046265Y-115101673D01*
X130950134Y-114895517D01*
X130819657Y-114709179D01*
X130658820Y-114548342D01*
X130503503Y-114439587D01*
X130459878Y-114385009D01*
X130452686Y-114315511D01*
X130484208Y-114253156D01*
X130505190Y-114235277D01*
X130702993Y-114101586D01*
X130702994Y-114101584D01*
X130703003Y-114101579D01*
X130844375Y-113966085D01*
X130906392Y-113933912D01*
X130975962Y-113940374D01*
G37*
%TD.AperFunction*%
%TA.AperFunction,Conductor*%
G36*
X116193165Y-66130716D02*
G01*
X116249098Y-66172588D01*
X116273515Y-66238052D01*
X116263387Y-66296708D01*
X116220843Y-66393699D01*
X116163866Y-66618691D01*
X116163864Y-66618702D01*
X116144700Y-66849993D01*
X116144700Y-66850006D01*
X116163864Y-67081297D01*
X116163866Y-67081308D01*
X116220842Y-67306300D01*
X116314075Y-67518848D01*
X116441016Y-67713147D01*
X116441019Y-67713151D01*
X116441021Y-67713153D01*
X116598216Y-67883913D01*
X116598219Y-67883915D01*
X116598222Y-67883918D01*
X116781365Y-68026464D01*
X116781371Y-68026468D01*
X116781374Y-68026470D01*
X116985497Y-68136936D01*
X117068701Y-68165500D01*
X117205015Y-68212297D01*
X117205017Y-68212297D01*
X117205019Y-68212298D01*
X117433951Y-68250500D01*
X117433952Y-68250500D01*
X117666048Y-68250500D01*
X117666049Y-68250500D01*
X117753168Y-68235962D01*
X117822531Y-68244344D01*
X117876353Y-68288896D01*
X117897544Y-68355475D01*
X117879377Y-68422941D01*
X117861257Y-68445952D01*
X117851367Y-68455842D01*
X117850165Y-68457012D01*
X117791956Y-68512152D01*
X117791322Y-68512899D01*
X117777093Y-68530116D01*
X98564830Y-87742380D01*
X98561127Y-87745794D01*
X98518900Y-87781663D01*
X98470416Y-87845440D01*
X98469383Y-87846761D01*
X98419158Y-87909244D01*
X98418649Y-87910041D01*
X98407469Y-87928066D01*
X98406941Y-87928943D01*
X98373290Y-88001677D01*
X98372566Y-88003189D01*
X98336966Y-88074972D01*
X98336582Y-88076017D01*
X98329580Y-88095906D01*
X98329267Y-88096833D01*
X98312038Y-88175101D01*
X98311655Y-88176735D01*
X98292314Y-88254507D01*
X98292191Y-88255416D01*
X98289607Y-88276516D01*
X98289500Y-88277501D01*
X98289500Y-88357611D01*
X98289477Y-88359290D01*
X98287306Y-88439437D01*
X98287389Y-88440447D01*
X98289500Y-88462649D01*
X98289500Y-102408667D01*
X98269815Y-102475706D01*
X98217011Y-102521461D01*
X98147853Y-102531405D01*
X98089338Y-102506521D01*
X98000096Y-102437062D01*
X98000095Y-102437061D01*
X97884766Y-102374648D01*
X97795973Y-102326595D01*
X97795964Y-102326592D01*
X97576453Y-102251233D01*
X97401955Y-102222115D01*
X97347518Y-102213031D01*
X97115420Y-102213031D01*
X96954239Y-102239926D01*
X96884874Y-102231544D01*
X96856923Y-102214886D01*
X96841913Y-102203019D01*
X96840514Y-102201879D01*
X96784321Y-102154727D01*
X96784316Y-102154724D01*
X96778286Y-102150758D01*
X96778339Y-102150676D01*
X96772594Y-102147017D01*
X96772543Y-102147100D01*
X96766399Y-102143310D01*
X96699965Y-102112331D01*
X96698342Y-102111546D01*
X96632763Y-102078612D01*
X96625973Y-102076140D01*
X96626005Y-102076050D01*
X96619579Y-102073816D01*
X96619549Y-102073908D01*
X96612696Y-102071637D01*
X96540866Y-102056804D01*
X96539108Y-102056414D01*
X96467734Y-102039499D01*
X96460562Y-102038661D01*
X96460573Y-102038564D01*
X96453805Y-102037872D01*
X96453797Y-102037969D01*
X96446605Y-102037339D01*
X96373255Y-102039474D01*
X96371452Y-102039500D01*
X95544251Y-102039500D01*
X95477212Y-102019815D01*
X95438662Y-101980514D01*
X95407072Y-101929210D01*
X95407068Y-101929203D01*
X95249564Y-101750245D01*
X95249563Y-101750245D01*
X95064080Y-101600477D01*
X94940692Y-101531548D01*
X94855955Y-101484210D01*
X94631170Y-101404788D01*
X94396209Y-101364500D01*
X94396200Y-101364500D01*
X93717503Y-101364500D01*
X93717484Y-101364500D01*
X93539463Y-101379652D01*
X93308751Y-101439724D01*
X93091519Y-101537919D01*
X93091511Y-101537924D01*
X92894006Y-101671413D01*
X92893997Y-101671421D01*
X92721881Y-101836379D01*
X92580123Y-102028050D01*
X92580120Y-102028054D01*
X92472796Y-102240920D01*
X92472793Y-102240926D01*
X92402983Y-102468878D01*
X92372702Y-102705346D01*
X92382819Y-102943528D01*
X92382819Y-102943532D01*
X92433045Y-103176580D01*
X92511602Y-103372073D01*
X92521936Y-103397790D01*
X92646931Y-103600795D01*
X92804436Y-103779755D01*
X92989920Y-103929523D01*
X92989935Y-103929531D01*
X92989942Y-103929538D01*
X92994291Y-103932478D01*
X92993693Y-103933362D01*
X93038861Y-103979411D01*
X93053053Y-104047824D01*
X93028005Y-104113050D01*
X92998897Y-104140520D01*
X92894007Y-104211413D01*
X92893997Y-104211421D01*
X92721881Y-104376379D01*
X92580123Y-104568050D01*
X92580120Y-104568054D01*
X92472796Y-104780920D01*
X92472793Y-104780926D01*
X92402983Y-105008878D01*
X92372702Y-105245346D01*
X92382819Y-105483528D01*
X92382819Y-105483532D01*
X92433045Y-105716580D01*
X92486165Y-105848772D01*
X92521936Y-105937790D01*
X92646931Y-106140795D01*
X92804436Y-106319755D01*
X92989920Y-106469523D01*
X92989935Y-106469531D01*
X92989942Y-106469538D01*
X92994291Y-106472478D01*
X92993693Y-106473362D01*
X93038861Y-106519411D01*
X93053053Y-106587824D01*
X93028005Y-106653050D01*
X92998897Y-106680520D01*
X92894007Y-106751413D01*
X92893997Y-106751421D01*
X92721881Y-106916379D01*
X92580123Y-107108050D01*
X92580120Y-107108054D01*
X92472796Y-107320920D01*
X92472793Y-107320926D01*
X92402983Y-107548878D01*
X92372702Y-107785346D01*
X92382819Y-108023528D01*
X92382819Y-108023532D01*
X92433045Y-108256580D01*
X92521863Y-108477608D01*
X92521936Y-108477790D01*
X92646931Y-108680795D01*
X92804436Y-108859755D01*
X92989920Y-109009523D01*
X92989935Y-109009531D01*
X92989942Y-109009538D01*
X92994291Y-109012478D01*
X92993693Y-109013362D01*
X93038861Y-109059411D01*
X93053053Y-109127824D01*
X93028005Y-109193050D01*
X92998897Y-109220520D01*
X92894007Y-109291413D01*
X92893997Y-109291421D01*
X92721881Y-109456379D01*
X92580123Y-109648050D01*
X92580120Y-109648054D01*
X92472796Y-109860920D01*
X92472793Y-109860926D01*
X92402983Y-110088878D01*
X92372702Y-110325346D01*
X92382819Y-110563528D01*
X92382819Y-110563532D01*
X92433045Y-110796580D01*
X92521935Y-111017788D01*
X92521936Y-111017790D01*
X92637174Y-111204949D01*
X92646932Y-111220796D01*
X92788200Y-111381308D01*
X92804436Y-111399755D01*
X92989920Y-111549523D01*
X92989935Y-111549531D01*
X92989942Y-111549538D01*
X92994291Y-111552478D01*
X92993693Y-111553362D01*
X93038861Y-111599411D01*
X93053053Y-111667824D01*
X93028005Y-111733050D01*
X92998897Y-111760520D01*
X92894007Y-111831413D01*
X92893997Y-111831421D01*
X92721881Y-111996379D01*
X92580123Y-112188050D01*
X92580120Y-112188054D01*
X92472796Y-112400920D01*
X92472793Y-112400926D01*
X92402983Y-112628878D01*
X92372702Y-112865346D01*
X92382819Y-113103528D01*
X92382819Y-113103532D01*
X92433046Y-113336582D01*
X92437193Y-113346902D01*
X92443923Y-113416446D01*
X92411986Y-113478590D01*
X92409815Y-113480815D01*
X88368739Y-117521891D01*
X88307416Y-117555376D01*
X88240795Y-117551491D01*
X88054984Y-117487702D01*
X87860267Y-117455210D01*
X87826049Y-117449500D01*
X87593951Y-117449500D01*
X87559733Y-117455210D01*
X87365015Y-117487702D01*
X87145504Y-117563061D01*
X87145495Y-117563064D01*
X86941371Y-117673531D01*
X86941365Y-117673535D01*
X86758222Y-117816081D01*
X86758219Y-117816084D01*
X86601016Y-117986852D01*
X86474075Y-118181151D01*
X86380842Y-118393699D01*
X86323866Y-118618691D01*
X86323864Y-118618702D01*
X86304700Y-118849993D01*
X86304700Y-118850006D01*
X86323864Y-119081297D01*
X86323866Y-119081308D01*
X86380842Y-119306300D01*
X86474075Y-119518848D01*
X86601016Y-119713147D01*
X86601019Y-119713151D01*
X86601021Y-119713153D01*
X86758216Y-119883913D01*
X86758219Y-119883915D01*
X86758222Y-119883918D01*
X86941365Y-120026464D01*
X86941371Y-120026468D01*
X86941374Y-120026470D01*
X87145497Y-120136936D01*
X87241008Y-120169725D01*
X87365015Y-120212297D01*
X87365017Y-120212297D01*
X87365019Y-120212298D01*
X87593951Y-120250500D01*
X87593952Y-120250500D01*
X87826048Y-120250500D01*
X87826049Y-120250500D01*
X88054981Y-120212298D01*
X88058535Y-120211077D01*
X88062168Y-120209831D01*
X88131966Y-120206678D01*
X88192389Y-120241761D01*
X88224252Y-120303942D01*
X88226012Y-120316870D01*
X88228864Y-120351296D01*
X88228866Y-120351308D01*
X88285842Y-120576300D01*
X88379075Y-120788848D01*
X88506016Y-120983147D01*
X88506019Y-120983151D01*
X88506021Y-120983153D01*
X88663216Y-121153913D01*
X88663219Y-121153915D01*
X88663222Y-121153918D01*
X88846365Y-121296464D01*
X88846371Y-121296468D01*
X88846374Y-121296470D01*
X89050497Y-121406936D01*
X89114086Y-121428766D01*
X89270015Y-121482297D01*
X89270017Y-121482297D01*
X89270019Y-121482298D01*
X89498951Y-121520500D01*
X89498952Y-121520500D01*
X89731048Y-121520500D01*
X89731049Y-121520500D01*
X89959981Y-121482298D01*
X90179503Y-121406936D01*
X90383626Y-121296470D01*
X90404168Y-121280482D01*
X90553175Y-121164505D01*
X90566784Y-121153913D01*
X90723979Y-120983153D01*
X90850924Y-120788849D01*
X90944157Y-120576300D01*
X91001134Y-120351305D01*
X91001135Y-120351296D01*
X91020300Y-120120006D01*
X91020300Y-120119993D01*
X91001135Y-119888702D01*
X91001131Y-119888682D01*
X90992401Y-119854207D01*
X90995025Y-119784387D01*
X91024923Y-119736087D01*
X92274903Y-118486107D01*
X92336224Y-118452624D01*
X92405916Y-118457608D01*
X92461849Y-118499480D01*
X92477639Y-118527555D01*
X92478250Y-118529074D01*
X92514265Y-118618702D01*
X92521936Y-118637790D01*
X92646931Y-118840795D01*
X92804436Y-119019755D01*
X92989920Y-119169523D01*
X93011501Y-119181579D01*
X93087074Y-119223797D01*
X93136001Y-119273677D01*
X93150193Y-119342090D01*
X93125145Y-119407316D01*
X93097724Y-119433625D01*
X92938183Y-119545338D01*
X92777342Y-119706179D01*
X92646865Y-119892517D01*
X92550734Y-120098673D01*
X92550730Y-120098682D01*
X92498127Y-120294999D01*
X92498128Y-120295000D01*
X93593314Y-120295000D01*
X93567507Y-120335156D01*
X93527000Y-120473111D01*
X93527000Y-120616889D01*
X93567507Y-120754844D01*
X93593314Y-120795000D01*
X92498128Y-120795000D01*
X92550730Y-120991317D01*
X92550734Y-120991326D01*
X92646865Y-121197482D01*
X92777342Y-121383820D01*
X92938179Y-121544657D01*
X93124517Y-121675134D01*
X93330673Y-121771265D01*
X93330682Y-121771269D01*
X93550389Y-121830139D01*
X93550400Y-121830141D01*
X93720233Y-121844999D01*
X93720236Y-121845000D01*
X93777000Y-121845000D01*
X93777000Y-120980501D01*
X93884685Y-121029680D01*
X93991237Y-121045000D01*
X94062763Y-121045000D01*
X94169315Y-121029680D01*
X94277000Y-120980501D01*
X94277000Y-121845000D01*
X94333764Y-121845000D01*
X94333766Y-121844999D01*
X94503599Y-121830141D01*
X94503610Y-121830139D01*
X94723317Y-121771269D01*
X94723326Y-121771265D01*
X94876156Y-121700000D01*
X98065001Y-121700000D01*
X98065001Y-121974986D01*
X98075494Y-122077697D01*
X98130641Y-122244119D01*
X98130643Y-122244124D01*
X98222684Y-122393345D01*
X98346654Y-122517315D01*
X98495875Y-122609356D01*
X98495880Y-122609358D01*
X98662302Y-122664505D01*
X98662309Y-122664506D01*
X98765019Y-122674999D01*
X98814999Y-122674998D01*
X98815000Y-122674998D01*
X98815000Y-121700000D01*
X98065001Y-121700000D01*
X94876156Y-121700000D01*
X94929482Y-121675134D01*
X95115820Y-121544657D01*
X95276657Y-121383820D01*
X95407134Y-121197482D01*
X95503265Y-120991326D01*
X95503269Y-120991317D01*
X95555872Y-120795000D01*
X94460686Y-120795000D01*
X94486493Y-120754844D01*
X94527000Y-120616889D01*
X94527000Y-120473111D01*
X94486493Y-120335156D01*
X94460686Y-120295000D01*
X95555872Y-120295000D01*
X95555872Y-120294999D01*
X95503269Y-120098682D01*
X95503265Y-120098673D01*
X95407134Y-119892517D01*
X95276657Y-119706179D01*
X95115820Y-119545342D01*
X94960503Y-119436587D01*
X94916878Y-119382009D01*
X94909686Y-119312511D01*
X94941208Y-119250156D01*
X94962190Y-119232277D01*
X95159993Y-119098586D01*
X95159994Y-119098584D01*
X95160003Y-119098579D01*
X95332118Y-118933621D01*
X95473879Y-118741947D01*
X95581207Y-118529074D01*
X95651016Y-118301123D01*
X95681298Y-118064654D01*
X95680358Y-118042535D01*
X95671180Y-117826471D01*
X95671180Y-117826467D01*
X95620954Y-117593419D01*
X95617829Y-117585643D01*
X95532064Y-117372210D01*
X95407069Y-117169205D01*
X95249564Y-116990245D01*
X95064080Y-116840477D01*
X95064074Y-116840474D01*
X95064071Y-116840471D01*
X95064057Y-116840463D01*
X95064051Y-116840457D01*
X95059709Y-116837522D01*
X95060306Y-116836638D01*
X95015134Y-116790580D01*
X95000947Y-116722165D01*
X95025999Y-116656942D01*
X95055099Y-116629481D01*
X95160003Y-116558579D01*
X95332118Y-116393621D01*
X95473879Y-116201947D01*
X95581207Y-115989074D01*
X95609307Y-115897316D01*
X95647757Y-115838983D01*
X95711644Y-115810695D01*
X95780683Y-115821438D01*
X95832954Y-115867801D01*
X95848075Y-115903188D01*
X95905841Y-116131295D01*
X95905841Y-116131296D01*
X95999075Y-116343848D01*
X96126016Y-116538147D01*
X96126019Y-116538151D01*
X96126021Y-116538153D01*
X96283216Y-116708913D01*
X96283219Y-116708915D01*
X96283222Y-116708918D01*
X96466365Y-116851464D01*
X96466371Y-116851468D01*
X96466374Y-116851470D01*
X96670497Y-116961936D01*
X96765099Y-116994413D01*
X96890015Y-117037297D01*
X96890017Y-117037297D01*
X96890019Y-117037298D01*
X97118951Y-117075500D01*
X97118952Y-117075500D01*
X97351048Y-117075500D01*
X97351049Y-117075500D01*
X97579981Y-117037298D01*
X97799503Y-116961936D01*
X98003626Y-116851470D01*
X98089338Y-116784757D01*
X98154331Y-116759115D01*
X98222871Y-116772681D01*
X98273196Y-116821149D01*
X98289500Y-116882611D01*
X98289500Y-119587911D01*
X98289295Y-119592945D01*
X98284798Y-119648164D01*
X98295615Y-119727563D01*
X98295819Y-119729228D01*
X98304486Y-119808912D01*
X98304710Y-119809930D01*
X98309525Y-119830473D01*
X98309774Y-119831471D01*
X98337402Y-119906678D01*
X98337959Y-119908259D01*
X98363557Y-119984225D01*
X98364001Y-119985185D01*
X98373146Y-120004266D01*
X98373564Y-120005109D01*
X98373567Y-120005114D01*
X98373568Y-120005116D01*
X98387216Y-120026468D01*
X98416719Y-120072626D01*
X98417603Y-120074052D01*
X98458927Y-120142733D01*
X98462994Y-120148082D01*
X98461093Y-120149526D01*
X98487903Y-120201929D01*
X98481044Y-120271461D01*
X98437683Y-120326247D01*
X98431169Y-120330554D01*
X98346656Y-120382682D01*
X98222684Y-120506654D01*
X98130643Y-120655875D01*
X98130641Y-120655880D01*
X98075494Y-120822302D01*
X98075493Y-120822309D01*
X98065000Y-120925013D01*
X98065000Y-120925026D01*
X98064999Y-121199999D01*
X98065000Y-121200000D01*
X99191000Y-121200000D01*
X99258039Y-121219685D01*
X99303794Y-121272489D01*
X99315000Y-121324000D01*
X99314999Y-122674998D01*
X99315000Y-122674999D01*
X99364972Y-122674999D01*
X99364986Y-122674998D01*
X99467697Y-122664505D01*
X99634119Y-122609358D01*
X99634124Y-122609356D01*
X99783342Y-122517317D01*
X99861107Y-122439552D01*
X99922430Y-122406067D01*
X99992122Y-122411051D01*
X100045436Y-122449545D01*
X100087147Y-122501435D01*
X100113806Y-122566019D01*
X100114500Y-122579123D01*
X100114500Y-123330876D01*
X100094815Y-123397915D01*
X100087147Y-123408564D01*
X100045436Y-123460454D01*
X99988092Y-123500372D01*
X99918270Y-123502952D01*
X99861108Y-123470447D01*
X99783345Y-123392684D01*
X99634124Y-123300643D01*
X99634119Y-123300641D01*
X99467697Y-123245494D01*
X99467690Y-123245493D01*
X99364986Y-123235000D01*
X99315000Y-123235000D01*
X99315000Y-125684999D01*
X99364972Y-125684999D01*
X99364986Y-125684998D01*
X99467697Y-125674505D01*
X99634119Y-125619358D01*
X99634124Y-125619356D01*
X99783342Y-125527317D01*
X99861107Y-125449552D01*
X99922430Y-125416067D01*
X99992122Y-125421051D01*
X100045436Y-125459545D01*
X100110059Y-125539940D01*
X100192173Y-125605945D01*
X100254247Y-125655842D01*
X100419979Y-125738037D01*
X100599501Y-125782682D01*
X100599502Y-125782682D01*
X100599505Y-125782683D01*
X100641046Y-125785500D01*
X100641048Y-125785500D01*
X101288952Y-125785500D01*
X101288954Y-125785500D01*
X101330495Y-125782683D01*
X101510021Y-125738037D01*
X101675753Y-125655842D01*
X101819940Y-125539940D01*
X101935842Y-125395753D01*
X102018037Y-125230021D01*
X102062683Y-125050495D01*
X102065500Y-125008954D01*
X102065500Y-124613649D01*
X102085185Y-124546611D01*
X102101819Y-124525969D01*
X102584917Y-124042871D01*
X102646240Y-124009386D01*
X102672598Y-124006552D01*
X104116821Y-124006552D01*
X104183860Y-124026237D01*
X104209902Y-124048626D01*
X104241628Y-124084674D01*
X104306294Y-124158149D01*
X104317435Y-124170807D01*
X104502919Y-124320575D01*
X104711045Y-124436842D01*
X104836950Y-124481327D01*
X104935828Y-124516263D01*
X105170789Y-124556551D01*
X105170797Y-124556551D01*
X105170799Y-124556552D01*
X105170800Y-124556552D01*
X105749495Y-124556552D01*
X105749496Y-124556552D01*
X105749497Y-124556551D01*
X105749514Y-124556551D01*
X105927535Y-124541399D01*
X105927538Y-124541398D01*
X105927540Y-124541398D01*
X106158248Y-124481327D01*
X106349047Y-124395080D01*
X106375479Y-124383132D01*
X106375480Y-124383130D01*
X106375485Y-124383129D01*
X106555314Y-124261586D01*
X106572992Y-124249638D01*
X106572993Y-124249636D01*
X106573002Y-124249631D01*
X106745117Y-124084673D01*
X106756882Y-124068764D01*
X106812573Y-124026571D01*
X106856578Y-124018500D01*
X108686822Y-124018500D01*
X108753861Y-124038185D01*
X108779903Y-124060574D01*
X108840177Y-124129058D01*
X108876919Y-124170806D01*
X108887436Y-124182755D01*
X109072920Y-124332523D01*
X109281046Y-124448790D01*
X109373135Y-124481327D01*
X109505829Y-124528211D01*
X109740790Y-124568499D01*
X109740798Y-124568499D01*
X109740800Y-124568500D01*
X109740801Y-124568500D01*
X110319496Y-124568500D01*
X110319497Y-124568500D01*
X110319498Y-124568499D01*
X110319515Y-124568499D01*
X110497536Y-124553347D01*
X110497539Y-124553346D01*
X110497541Y-124553346D01*
X110728249Y-124493275D01*
X110937998Y-124398462D01*
X110945480Y-124395080D01*
X110945481Y-124395078D01*
X110945486Y-124395077D01*
X111139383Y-124264026D01*
X111142993Y-124261586D01*
X111142994Y-124261584D01*
X111143003Y-124261579D01*
X111315118Y-124096621D01*
X111456879Y-123904947D01*
X111564207Y-123692074D01*
X111634016Y-123464123D01*
X111664298Y-123227654D01*
X111664088Y-123222720D01*
X111657063Y-123057327D01*
X111654180Y-122989468D01*
X111649361Y-122967110D01*
X111603954Y-122756419D01*
X111585730Y-122711067D01*
X111515064Y-122535210D01*
X111390069Y-122332205D01*
X111232564Y-122153245D01*
X111047080Y-122003477D01*
X111047069Y-122003471D01*
X110949924Y-121949202D01*
X110900997Y-121899322D01*
X110886805Y-121830909D01*
X110911853Y-121765683D01*
X110939275Y-121739373D01*
X111098817Y-121627660D01*
X111259657Y-121466820D01*
X111390134Y-121280482D01*
X111486265Y-121074326D01*
X111486269Y-121074317D01*
X111538872Y-120878000D01*
X110226111Y-120878000D01*
X110265610Y-120853543D01*
X110333201Y-120764038D01*
X110363895Y-120656160D01*
X110353546Y-120544479D01*
X110303552Y-120444078D01*
X110231069Y-120378000D01*
X111538872Y-120378000D01*
X111538872Y-120377999D01*
X111486269Y-120181682D01*
X111486265Y-120181673D01*
X111390134Y-119975517D01*
X111259657Y-119789179D01*
X111098820Y-119628342D01*
X110943503Y-119519587D01*
X110899878Y-119465009D01*
X110892686Y-119395511D01*
X110924208Y-119333156D01*
X110945190Y-119315277D01*
X110949283Y-119312511D01*
X111045165Y-119247706D01*
X111142993Y-119181586D01*
X111142994Y-119181584D01*
X111143003Y-119181579D01*
X111315118Y-119016621D01*
X111456879Y-118824947D01*
X111564207Y-118612074D01*
X111634016Y-118384123D01*
X111664298Y-118147654D01*
X111663790Y-118135706D01*
X111654180Y-117909471D01*
X111654180Y-117909467D01*
X111603954Y-117676419D01*
X111599153Y-117664471D01*
X111515064Y-117455210D01*
X111390069Y-117252205D01*
X111232564Y-117073245D01*
X111047080Y-116923477D01*
X111047074Y-116923474D01*
X111047071Y-116923471D01*
X111047057Y-116923463D01*
X111047051Y-116923457D01*
X111042709Y-116920522D01*
X111043306Y-116919638D01*
X110998134Y-116873580D01*
X110983947Y-116805165D01*
X111008999Y-116739942D01*
X111038099Y-116712481D01*
X111143003Y-116641579D01*
X111315118Y-116476621D01*
X111456879Y-116284947D01*
X111564207Y-116072074D01*
X111634016Y-115844123D01*
X111664298Y-115607654D01*
X111663185Y-115581464D01*
X111657003Y-115435929D01*
X111654180Y-115369468D01*
X111653018Y-115364078D01*
X111603954Y-115136419D01*
X111592942Y-115109015D01*
X111515064Y-114915210D01*
X111390069Y-114712205D01*
X111232564Y-114533245D01*
X111047080Y-114383477D01*
X111047074Y-114383474D01*
X111047071Y-114383471D01*
X111047057Y-114383463D01*
X111047051Y-114383457D01*
X111042709Y-114380522D01*
X111043306Y-114379638D01*
X110998134Y-114333580D01*
X110983947Y-114265165D01*
X111008999Y-114199942D01*
X111038099Y-114172481D01*
X111143003Y-114101579D01*
X111315118Y-113936621D01*
X111456879Y-113744947D01*
X111564207Y-113532074D01*
X111634016Y-113304123D01*
X111664298Y-113067654D01*
X111664292Y-113067523D01*
X111658301Y-112926470D01*
X111654180Y-112829468D01*
X111603954Y-112596419D01*
X111515064Y-112375210D01*
X111390069Y-112172205D01*
X111232564Y-111993245D01*
X111047080Y-111843477D01*
X111047074Y-111843474D01*
X111047071Y-111843471D01*
X111047057Y-111843463D01*
X111047051Y-111843457D01*
X111042709Y-111840522D01*
X111043306Y-111839638D01*
X110998134Y-111793580D01*
X110983947Y-111725165D01*
X111008999Y-111659942D01*
X111038099Y-111632481D01*
X111143003Y-111561579D01*
X111315118Y-111396621D01*
X111456879Y-111204947D01*
X111564207Y-110992074D01*
X111620682Y-110807660D01*
X111659132Y-110749328D01*
X111723020Y-110721040D01*
X111792058Y-110731783D01*
X111826925Y-110756292D01*
X116768181Y-115697549D01*
X116801665Y-115758870D01*
X116804499Y-115785228D01*
X116804499Y-123661294D01*
X116803191Y-123679259D01*
X116799710Y-123703026D01*
X116804264Y-123755064D01*
X116804500Y-123760470D01*
X116804500Y-123768712D01*
X116808202Y-123800391D01*
X116808386Y-123802185D01*
X116815000Y-123877792D01*
X116816461Y-123884867D01*
X116816403Y-123884878D01*
X116818034Y-123892237D01*
X116818092Y-123892224D01*
X116819757Y-123899249D01*
X116819758Y-123899254D01*
X116819759Y-123899255D01*
X116843268Y-123963849D01*
X116845708Y-123970551D01*
X116846299Y-123972253D01*
X116870182Y-124044326D01*
X116873236Y-124050874D01*
X116873182Y-124050898D01*
X116876470Y-124057688D01*
X116876521Y-124057663D01*
X116879761Y-124064113D01*
X116879762Y-124064114D01*
X116879763Y-124064117D01*
X116921494Y-124127567D01*
X116922443Y-124129058D01*
X116955563Y-124182754D01*
X116962289Y-124193657D01*
X116966766Y-124199319D01*
X116966719Y-124199356D01*
X116971482Y-124205202D01*
X116971528Y-124205164D01*
X116976173Y-124210699D01*
X117031364Y-124262769D01*
X117032658Y-124264026D01*
X118218184Y-125449552D01*
X118337952Y-125569319D01*
X118371437Y-125630642D01*
X118366453Y-125700334D01*
X118324581Y-125756267D01*
X118318443Y-125758556D01*
X118296000Y-125781000D01*
X118296000Y-126286000D01*
X118902952Y-126286000D01*
X118948956Y-126260879D01*
X119018647Y-126265862D01*
X119062997Y-126294364D01*
X119379181Y-126610548D01*
X119412666Y-126671871D01*
X119415500Y-126698228D01*
X119415500Y-126830362D01*
X119430953Y-126947753D01*
X119430956Y-126947762D01*
X119483342Y-127074234D01*
X119491464Y-127093841D01*
X119587718Y-127219282D01*
X119713159Y-127315536D01*
X119848121Y-127371439D01*
X119902524Y-127415280D01*
X119924589Y-127481574D01*
X119907310Y-127549273D01*
X119856173Y-127596884D01*
X119848121Y-127600561D01*
X119713160Y-127656463D01*
X119587718Y-127752718D01*
X119491463Y-127878160D01*
X119430956Y-128024237D01*
X119430955Y-128024239D01*
X119416611Y-128133199D01*
X119415501Y-128141636D01*
X119415500Y-128141645D01*
X119415500Y-128442286D01*
X119395815Y-128509325D01*
X119343011Y-128555080D01*
X119273853Y-128565024D01*
X119216931Y-128540820D01*
X119216921Y-128540836D01*
X119216831Y-128540777D01*
X119215344Y-128540145D01*
X119212627Y-128538031D01*
X119212628Y-128538031D01*
X119061481Y-128456234D01*
X119011891Y-128407014D01*
X118996499Y-128347179D01*
X118996499Y-128141638D01*
X118982272Y-128033567D01*
X118981044Y-128024238D01*
X118974505Y-128008453D01*
X118967036Y-127938987D01*
X118974504Y-127913549D01*
X118981044Y-127897762D01*
X118996500Y-127780361D01*
X118996499Y-127191640D01*
X118996499Y-127191639D01*
X118996499Y-127191636D01*
X118981046Y-127074246D01*
X118981044Y-127074241D01*
X118981044Y-127074238D01*
X118920536Y-126928159D01*
X118920534Y-126928157D01*
X118916474Y-126921124D01*
X118917682Y-126920426D01*
X118895617Y-126863345D01*
X118895869Y-126842138D01*
X118895822Y-126842136D01*
X118895883Y-126840990D01*
X118895898Y-126839771D01*
X118895999Y-126838825D01*
X118896000Y-126838819D01*
X118896000Y-126786000D01*
X118844587Y-126786000D01*
X118777548Y-126766315D01*
X118769101Y-126760376D01*
X118698842Y-126706464D01*
X118552762Y-126645956D01*
X118552760Y-126645955D01*
X118435361Y-126630500D01*
X117656636Y-126630500D01*
X117539246Y-126645953D01*
X117539237Y-126645956D01*
X117393157Y-126706464D01*
X117388712Y-126709876D01*
X117323543Y-126735070D01*
X117313226Y-126735500D01*
X92898229Y-126735500D01*
X92831190Y-126715815D01*
X92810548Y-126699181D01*
X92397367Y-126286000D01*
X117196000Y-126286000D01*
X117796000Y-126286000D01*
X117796000Y-125781000D01*
X117648155Y-125781000D01*
X117588627Y-125787401D01*
X117588620Y-125787403D01*
X117453913Y-125837645D01*
X117453906Y-125837649D01*
X117338812Y-125923809D01*
X117338809Y-125923812D01*
X117252649Y-126038906D01*
X117252645Y-126038913D01*
X117202403Y-126173620D01*
X117202401Y-126173627D01*
X117196000Y-126233155D01*
X117196000Y-126286000D01*
X92397367Y-126286000D01*
X90821367Y-124710000D01*
X98065001Y-124710000D01*
X98065001Y-124984986D01*
X98075494Y-125087697D01*
X98130641Y-125254119D01*
X98130643Y-125254124D01*
X98222684Y-125403345D01*
X98346654Y-125527315D01*
X98495875Y-125619356D01*
X98495880Y-125619358D01*
X98662302Y-125674505D01*
X98662309Y-125674506D01*
X98765019Y-125684999D01*
X98814999Y-125684998D01*
X98815000Y-125684998D01*
X98815000Y-124710000D01*
X98065001Y-124710000D01*
X90821367Y-124710000D01*
X90321367Y-124210000D01*
X98064999Y-124210000D01*
X98815000Y-124210000D01*
X98815000Y-123235000D01*
X98814999Y-123234999D01*
X98765029Y-123235000D01*
X98765011Y-123235001D01*
X98662302Y-123245494D01*
X98495880Y-123300641D01*
X98495875Y-123300643D01*
X98346654Y-123392684D01*
X98222684Y-123516654D01*
X98130643Y-123665875D01*
X98130641Y-123665880D01*
X98075494Y-123832302D01*
X98075493Y-123832309D01*
X98065000Y-123935013D01*
X98065000Y-123935026D01*
X98064999Y-124210000D01*
X90321367Y-124210000D01*
X78550729Y-112439361D01*
X78538949Y-112425730D01*
X78531482Y-112415701D01*
X78524612Y-112406472D01*
X78518003Y-112400926D01*
X78484587Y-112372886D01*
X78480612Y-112369244D01*
X78477690Y-112366322D01*
X78474779Y-112363410D01*
X78449736Y-112343609D01*
X78448338Y-112342470D01*
X78423480Y-112321612D01*
X78390214Y-112293698D01*
X78384180Y-112289729D01*
X78384212Y-112289680D01*
X78377853Y-112285628D01*
X78377822Y-112285679D01*
X78371680Y-112281891D01*
X78371678Y-112281890D01*
X78371677Y-112281889D01*
X78302872Y-112249804D01*
X78301252Y-112249019D01*
X78261512Y-112229061D01*
X78233433Y-112214960D01*
X78233431Y-112214959D01*
X78233430Y-112214959D01*
X78226645Y-112212489D01*
X78226665Y-112212433D01*
X78219549Y-112209959D01*
X78219531Y-112210015D01*
X78212674Y-112207743D01*
X78138328Y-112192391D01*
X78136569Y-112192001D01*
X78062718Y-112174499D01*
X78055547Y-112173661D01*
X78055553Y-112173601D01*
X78048055Y-112172835D01*
X78048050Y-112172895D01*
X78040860Y-112172265D01*
X77964968Y-112174474D01*
X77963165Y-112174500D01*
X72668858Y-112174500D01*
X72601819Y-112154815D01*
X72563269Y-112115515D01*
X72547069Y-112089205D01*
X72547068Y-112089203D01*
X72389564Y-111910245D01*
X72382553Y-111904584D01*
X72204080Y-111760477D01*
X72204074Y-111760474D01*
X72204071Y-111760471D01*
X72204057Y-111760463D01*
X72204051Y-111760457D01*
X72199709Y-111757522D01*
X72200306Y-111756638D01*
X72155134Y-111710580D01*
X72140947Y-111642165D01*
X72165999Y-111576942D01*
X72195099Y-111549481D01*
X72300003Y-111478579D01*
X72472118Y-111313621D01*
X72540771Y-111220796D01*
X72566679Y-111185766D01*
X72622369Y-111143571D01*
X72666375Y-111135500D01*
X76426295Y-111135500D01*
X76444265Y-111136809D01*
X76468023Y-111140289D01*
X76520068Y-111135735D01*
X76525470Y-111135500D01*
X76533704Y-111135500D01*
X76533709Y-111135500D01*
X76565458Y-111131788D01*
X76567075Y-111131622D01*
X76642797Y-111124999D01*
X76642805Y-111124996D01*
X76649866Y-111123539D01*
X76649878Y-111123598D01*
X76657243Y-111121965D01*
X76657229Y-111121906D01*
X76664251Y-111120241D01*
X76664255Y-111120241D01*
X76735587Y-111094277D01*
X76737286Y-111093688D01*
X76809334Y-111069814D01*
X76809342Y-111069808D01*
X76815882Y-111066760D01*
X76815908Y-111066816D01*
X76822690Y-111063532D01*
X76822663Y-111063478D01*
X76829109Y-111060239D01*
X76829117Y-111060237D01*
X76892612Y-111018475D01*
X76893977Y-111017605D01*
X76958656Y-110977712D01*
X76958661Y-110977706D01*
X76964325Y-110973229D01*
X76964363Y-110973277D01*
X76970200Y-110968522D01*
X76970161Y-110968475D01*
X76975691Y-110963833D01*
X76975696Y-110963830D01*
X77027799Y-110908602D01*
X77028993Y-110907374D01*
X85909642Y-102026724D01*
X85923271Y-102014947D01*
X85942530Y-102000610D01*
X85975385Y-101961454D01*
X85976101Y-101960601D01*
X85979761Y-101956606D01*
X85985588Y-101950780D01*
X85985588Y-101950779D01*
X85985591Y-101950777D01*
X86005380Y-101925747D01*
X86006509Y-101924362D01*
X86020716Y-101907431D01*
X86055302Y-101866214D01*
X86055305Y-101866207D01*
X86059274Y-101860175D01*
X86059325Y-101860208D01*
X86063372Y-101853856D01*
X86063320Y-101853824D01*
X86067111Y-101847677D01*
X86072379Y-101836379D01*
X86099226Y-101778804D01*
X86099952Y-101777305D01*
X86134040Y-101709433D01*
X86134043Y-101709417D01*
X86136509Y-101702646D01*
X86136567Y-101702667D01*
X86139043Y-101695546D01*
X86138986Y-101695528D01*
X86141256Y-101688677D01*
X86142331Y-101683471D01*
X86156626Y-101614234D01*
X86156976Y-101612655D01*
X86174500Y-101538721D01*
X86174500Y-101538712D01*
X86175338Y-101531548D01*
X86175398Y-101531555D01*
X86176164Y-101524055D01*
X86176105Y-101524050D01*
X86176734Y-101516860D01*
X86174526Y-101440968D01*
X86174500Y-101439165D01*
X86174500Y-99058233D01*
X86194185Y-98991194D01*
X86243402Y-98947146D01*
X86334753Y-98901842D01*
X86447241Y-98811420D01*
X86478938Y-98785942D01*
X86481501Y-98782754D01*
X86594842Y-98641753D01*
X86677037Y-98476021D01*
X86721683Y-98296495D01*
X86724500Y-98254954D01*
X86724500Y-97582046D01*
X86721683Y-97540505D01*
X86713588Y-97507956D01*
X86710545Y-97495720D01*
X86677037Y-97360979D01*
X86594842Y-97195247D01*
X86505166Y-97083686D01*
X86478508Y-97019104D01*
X86490998Y-96950360D01*
X86505167Y-96928312D01*
X86594842Y-96816753D01*
X86677037Y-96651021D01*
X86721683Y-96471495D01*
X86724500Y-96429954D01*
X86724500Y-95757046D01*
X86721683Y-95715505D01*
X86715441Y-95690407D01*
X86695619Y-95610700D01*
X86698543Y-95540892D01*
X86728271Y-95493095D01*
X116062151Y-66159216D01*
X116123473Y-66125732D01*
X116193165Y-66130716D01*
G37*
%TD.AperFunction*%
%TA.AperFunction,Conductor*%
G36*
X147635388Y-120482185D02*
G01*
X147656030Y-120498819D01*
X148204554Y-121047343D01*
X148238039Y-121108666D01*
X148240449Y-121145262D01*
X148230878Y-121260790D01*
X148229700Y-121275005D01*
X148229700Y-121275006D01*
X148248865Y-121506301D01*
X148248865Y-121506304D01*
X148248866Y-121506305D01*
X148279596Y-121627657D01*
X148282094Y-121637519D01*
X148279469Y-121707339D01*
X148249569Y-121755640D01*
X146810991Y-123194219D01*
X146749668Y-123227704D01*
X146679976Y-123222720D01*
X146624043Y-123180848D01*
X146599626Y-123115384D01*
X146600370Y-123090358D01*
X146615800Y-122973161D01*
X146615799Y-120924440D01*
X146615799Y-120924439D01*
X146615799Y-120924436D01*
X146600346Y-120807046D01*
X146600344Y-120807041D01*
X146600344Y-120807038D01*
X146539836Y-120660959D01*
X146539834Y-120660956D01*
X146535772Y-120653919D01*
X146537189Y-120653100D01*
X146515430Y-120596822D01*
X146529466Y-120528376D01*
X146578278Y-120478385D01*
X146639000Y-120462500D01*
X147568349Y-120462500D01*
X147635388Y-120482185D01*
G37*
%TD.AperFunction*%
%TA.AperFunction,Conductor*%
G36*
X123971351Y-103689840D02*
G01*
X123991247Y-103708015D01*
X124116920Y-103850807D01*
X124127436Y-103862755D01*
X124312920Y-104012523D01*
X124312935Y-104012531D01*
X124312942Y-104012538D01*
X124317291Y-104015478D01*
X124316693Y-104016362D01*
X124361861Y-104062411D01*
X124376053Y-104130824D01*
X124351005Y-104196050D01*
X124321897Y-104223520D01*
X124217007Y-104294413D01*
X124216997Y-104294421D01*
X124044881Y-104459379D01*
X123903123Y-104651050D01*
X123903117Y-104651059D01*
X123862405Y-104731806D01*
X123836030Y-104759970D01*
X123835878Y-104780267D01*
X123827890Y-104800263D01*
X123795798Y-104863914D01*
X123795793Y-104863926D01*
X123725983Y-105091878D01*
X123695702Y-105328346D01*
X123705819Y-105566528D01*
X123705819Y-105566532D01*
X123756045Y-105799580D01*
X123844935Y-106020788D01*
X123844936Y-106020790D01*
X123969931Y-106223795D01*
X124127436Y-106402755D01*
X124312920Y-106552523D01*
X124312935Y-106552531D01*
X124312942Y-106552538D01*
X124317291Y-106555478D01*
X124316693Y-106556362D01*
X124361861Y-106602411D01*
X124376053Y-106670824D01*
X124351005Y-106736050D01*
X124321897Y-106763520D01*
X124217007Y-106834413D01*
X124216997Y-106834421D01*
X124044881Y-106999379D01*
X123903123Y-107191050D01*
X123903120Y-107191054D01*
X123795796Y-107403920D01*
X123795793Y-107403926D01*
X123725983Y-107631878D01*
X123695702Y-107868346D01*
X123705819Y-108106528D01*
X123705819Y-108106532D01*
X123756045Y-108339580D01*
X123844935Y-108560788D01*
X123844936Y-108560790D01*
X123969930Y-108763794D01*
X123969932Y-108763796D01*
X124116919Y-108930806D01*
X124127436Y-108942755D01*
X124312920Y-109092523D01*
X124312935Y-109092531D01*
X124312942Y-109092538D01*
X124317291Y-109095478D01*
X124316693Y-109096362D01*
X124361861Y-109142411D01*
X124376053Y-109210824D01*
X124351005Y-109276050D01*
X124321897Y-109303520D01*
X124217007Y-109374413D01*
X124216997Y-109374421D01*
X124044881Y-109539379D01*
X123903123Y-109731050D01*
X123903120Y-109731054D01*
X123795796Y-109943920D01*
X123795793Y-109943926D01*
X123725983Y-110171878D01*
X123695702Y-110408346D01*
X123705819Y-110646528D01*
X123705819Y-110646532D01*
X123756045Y-110879580D01*
X123832489Y-111069815D01*
X123844936Y-111100790D01*
X123969930Y-111303794D01*
X123969932Y-111303796D01*
X124116919Y-111470806D01*
X124127436Y-111482755D01*
X124312920Y-111632523D01*
X124312935Y-111632531D01*
X124312942Y-111632538D01*
X124317291Y-111635478D01*
X124316693Y-111636362D01*
X124361861Y-111682411D01*
X124376053Y-111750824D01*
X124351005Y-111816050D01*
X124321897Y-111843520D01*
X124217007Y-111914413D01*
X124216997Y-111914421D01*
X124044881Y-112079379D01*
X123903123Y-112271050D01*
X123903120Y-112271054D01*
X123795796Y-112483920D01*
X123795793Y-112483926D01*
X123725983Y-112711878D01*
X123695702Y-112948346D01*
X123705819Y-113186528D01*
X123705819Y-113186532D01*
X123756045Y-113419580D01*
X123840134Y-113628840D01*
X123844936Y-113640790D01*
X123969931Y-113843795D01*
X123978577Y-113853619D01*
X124116919Y-114010806D01*
X124127436Y-114022755D01*
X124312920Y-114172523D01*
X124356616Y-114196933D01*
X124410074Y-114226797D01*
X124459001Y-114276677D01*
X124473193Y-114345090D01*
X124448145Y-114410316D01*
X124420724Y-114436625D01*
X124261183Y-114548338D01*
X124100342Y-114709179D01*
X123969865Y-114895517D01*
X123873734Y-115101673D01*
X123873730Y-115101682D01*
X123821127Y-115297999D01*
X123821128Y-115298000D01*
X125133889Y-115298000D01*
X125094390Y-115322457D01*
X125026799Y-115411962D01*
X124996105Y-115519840D01*
X125006454Y-115631521D01*
X125056448Y-115731922D01*
X125128931Y-115798000D01*
X123821128Y-115798000D01*
X123873730Y-115994317D01*
X123873734Y-115994326D01*
X123969865Y-116200482D01*
X124100342Y-116386820D01*
X124261179Y-116547657D01*
X124416496Y-116656412D01*
X124460121Y-116710989D01*
X124467313Y-116780488D01*
X124435791Y-116842842D01*
X124414809Y-116860722D01*
X124217007Y-116994413D01*
X124216997Y-116994421D01*
X124044881Y-117159379D01*
X123903123Y-117351050D01*
X123903120Y-117351054D01*
X123795796Y-117563920D01*
X123795793Y-117563926D01*
X123725983Y-117791878D01*
X123695702Y-118028346D01*
X123705819Y-118266528D01*
X123705819Y-118266532D01*
X123756045Y-118499580D01*
X123844935Y-118720788D01*
X123844936Y-118720790D01*
X123969930Y-118923794D01*
X123969932Y-118923796D01*
X124124627Y-119099564D01*
X124127436Y-119102755D01*
X124312920Y-119252523D01*
X124312935Y-119252531D01*
X124312942Y-119252538D01*
X124317291Y-119255478D01*
X124316693Y-119256362D01*
X124361861Y-119302411D01*
X124376053Y-119370824D01*
X124351005Y-119436050D01*
X124321897Y-119463520D01*
X124217007Y-119534413D01*
X124216997Y-119534421D01*
X124044881Y-119699379D01*
X123903123Y-119891050D01*
X123903120Y-119891054D01*
X123795796Y-120103920D01*
X123795793Y-120103926D01*
X123725983Y-120331878D01*
X123695702Y-120568346D01*
X123705819Y-120806528D01*
X123705819Y-120806532D01*
X123756045Y-121039580D01*
X123844935Y-121260788D01*
X123844936Y-121260790D01*
X123969931Y-121463795D01*
X124127436Y-121642755D01*
X124312920Y-121792523D01*
X124312935Y-121792531D01*
X124312942Y-121792538D01*
X124317291Y-121795478D01*
X124316693Y-121796362D01*
X124361861Y-121842411D01*
X124376053Y-121910824D01*
X124351005Y-121976050D01*
X124321897Y-122003520D01*
X124217007Y-122074413D01*
X124216997Y-122074421D01*
X124044880Y-122239380D01*
X123950321Y-122367234D01*
X123894631Y-122409429D01*
X123850625Y-122417500D01*
X120610164Y-122417500D01*
X120543125Y-122397815D01*
X120518934Y-122377483D01*
X120448388Y-122300850D01*
X120411784Y-122261087D01*
X120411783Y-122261086D01*
X120411781Y-122261084D01*
X120411777Y-122261081D01*
X120228634Y-122118535D01*
X120228628Y-122118531D01*
X120024504Y-122008064D01*
X120024495Y-122008061D01*
X119804984Y-121932702D01*
X119608607Y-121899933D01*
X119576049Y-121894500D01*
X119343951Y-121894500D01*
X119311393Y-121899933D01*
X119115015Y-121932702D01*
X118895504Y-122008061D01*
X118895495Y-122008064D01*
X118691372Y-122118531D01*
X118505662Y-122263075D01*
X118440668Y-122288717D01*
X118372128Y-122275150D01*
X118321803Y-122226682D01*
X118305500Y-122165221D01*
X118305500Y-115486705D01*
X118306809Y-115468735D01*
X118307432Y-115464479D01*
X118310289Y-115444977D01*
X118309497Y-115435929D01*
X118305736Y-115392934D01*
X118305500Y-115387528D01*
X118305500Y-115379296D01*
X118305500Y-115379291D01*
X118301795Y-115347602D01*
X118301618Y-115345876D01*
X118294999Y-115270203D01*
X118294999Y-115270201D01*
X118293539Y-115263129D01*
X118293597Y-115263116D01*
X118291965Y-115255757D01*
X118291906Y-115255772D01*
X118290241Y-115248751D01*
X118290241Y-115248745D01*
X118264267Y-115177382D01*
X118263691Y-115175723D01*
X118239814Y-115103666D01*
X118239810Y-115103659D01*
X118236760Y-115097118D01*
X118236815Y-115097091D01*
X118233533Y-115090313D01*
X118233480Y-115090340D01*
X118230236Y-115083881D01*
X118188529Y-115020470D01*
X118187560Y-115018949D01*
X118147710Y-114954342D01*
X118143234Y-114948682D01*
X118143281Y-114948644D01*
X118138519Y-114942799D01*
X118138474Y-114942838D01*
X118133831Y-114937305D01*
X118078616Y-114885212D01*
X118077356Y-114883989D01*
X111635964Y-108442596D01*
X111602479Y-108381273D01*
X111605081Y-108318604D01*
X111607105Y-108311997D01*
X111634016Y-108224123D01*
X111660102Y-108020418D01*
X115941936Y-108020418D01*
X115941936Y-108168262D01*
X115948337Y-108227790D01*
X115948339Y-108227797D01*
X115998581Y-108362504D01*
X115998585Y-108362511D01*
X116084745Y-108477605D01*
X116084748Y-108477608D01*
X116199842Y-108563768D01*
X116199849Y-108563772D01*
X116334556Y-108614014D01*
X116334563Y-108614016D01*
X116394091Y-108620417D01*
X116394108Y-108620418D01*
X116446936Y-108620418D01*
X116446936Y-108020418D01*
X115941936Y-108020418D01*
X111660102Y-108020418D01*
X111664298Y-107987654D01*
X111654180Y-107749468D01*
X111605596Y-107524038D01*
X111605862Y-107520418D01*
X115941936Y-107520418D01*
X116446936Y-107520418D01*
X116446936Y-106920418D01*
X116394091Y-106920418D01*
X116334563Y-106926819D01*
X116334556Y-106926821D01*
X116199849Y-106977063D01*
X116199842Y-106977067D01*
X116084748Y-107063227D01*
X116084745Y-107063230D01*
X115998585Y-107178324D01*
X115998581Y-107178331D01*
X115948339Y-107313038D01*
X115948337Y-107313045D01*
X115941936Y-107372573D01*
X115941936Y-107520418D01*
X111605862Y-107520418D01*
X111610715Y-107454358D01*
X111639130Y-107410236D01*
X112812130Y-106237237D01*
X112873454Y-106203752D01*
X112899812Y-106200918D01*
X115935356Y-106200918D01*
X116002395Y-106220603D01*
X116010843Y-106226542D01*
X116013652Y-106228697D01*
X116013654Y-106228700D01*
X116139095Y-106324954D01*
X116285174Y-106385462D01*
X116402575Y-106400918D01*
X116772436Y-106400917D01*
X116839475Y-106420601D01*
X116885230Y-106473405D01*
X116896436Y-106524917D01*
X116896435Y-107037643D01*
X116876750Y-107104683D01*
X116870819Y-107113119D01*
X116867401Y-107117573D01*
X116867401Y-107117574D01*
X116806892Y-107263655D01*
X116806891Y-107263657D01*
X116791436Y-107381056D01*
X116791436Y-108159781D01*
X116806889Y-108277171D01*
X116806893Y-108277183D01*
X116867397Y-108423254D01*
X116867397Y-108423255D01*
X116867399Y-108423257D01*
X116867400Y-108423259D01*
X116921313Y-108493520D01*
X116946506Y-108558686D01*
X116946936Y-108569004D01*
X116946936Y-108620418D01*
X116999755Y-108620418D01*
X116999761Y-108620417D01*
X117000707Y-108620316D01*
X117000924Y-108620355D01*
X117003072Y-108620240D01*
X117003082Y-108620418D01*
X117003085Y-108620418D01*
X117003085Y-108620482D01*
X117003099Y-108620747D01*
X117069467Y-108632719D01*
X117088060Y-108644356D01*
X117089093Y-108644952D01*
X117089095Y-108644954D01*
X117089096Y-108644954D01*
X117089099Y-108644956D01*
X117137357Y-108664945D01*
X117235174Y-108705462D01*
X117352575Y-108720918D01*
X117941296Y-108720917D01*
X117941297Y-108720917D01*
X117980430Y-108715765D01*
X118058698Y-108705462D01*
X118074482Y-108698923D01*
X118143949Y-108691454D01*
X118169386Y-108698922D01*
X118185174Y-108705462D01*
X118302575Y-108720918D01*
X118891296Y-108720917D01*
X118891299Y-108720917D01*
X119008689Y-108705464D01*
X119008693Y-108705462D01*
X119008698Y-108705462D01*
X119154777Y-108644954D01*
X119280218Y-108548700D01*
X119376472Y-108423259D01*
X119436980Y-108277180D01*
X119452436Y-108159779D01*
X119452435Y-108027647D01*
X119472119Y-107960608D01*
X119488749Y-107939971D01*
X122021464Y-105407255D01*
X122082785Y-105373772D01*
X122129548Y-105372629D01*
X122269421Y-105395970D01*
X122269423Y-105395970D01*
X122501518Y-105395970D01*
X122501519Y-105395970D01*
X122730451Y-105357768D01*
X122949973Y-105282406D01*
X123154096Y-105171940D01*
X123196517Y-105138923D01*
X123215599Y-105124070D01*
X123337254Y-105029383D01*
X123494449Y-104858623D01*
X123613359Y-104676616D01*
X123630586Y-104661914D01*
X123629718Y-104653609D01*
X123638124Y-104626178D01*
X123714627Y-104451770D01*
X123771604Y-104226775D01*
X123771605Y-104226767D01*
X123790770Y-103995476D01*
X123790770Y-103995464D01*
X123774588Y-103800179D01*
X123788669Y-103731743D01*
X123837514Y-103681784D01*
X123905615Y-103666163D01*
X123971351Y-103689840D01*
G37*
%TD.AperFunction*%
%TA.AperFunction,Conductor*%
G36*
X108675181Y-116318185D02*
G01*
X108713731Y-116357485D01*
X108729930Y-116383794D01*
X108729931Y-116383796D01*
X108876920Y-116550807D01*
X108887436Y-116562755D01*
X109072920Y-116712523D01*
X109072935Y-116712531D01*
X109072942Y-116712538D01*
X109077291Y-116715478D01*
X109076693Y-116716362D01*
X109121861Y-116762411D01*
X109136053Y-116830824D01*
X109111005Y-116896050D01*
X109081897Y-116923520D01*
X108977007Y-116994413D01*
X108976997Y-116994421D01*
X108804881Y-117159379D01*
X108663123Y-117351050D01*
X108663120Y-117351054D01*
X108555796Y-117563920D01*
X108555793Y-117563926D01*
X108485983Y-117791878D01*
X108455702Y-118028346D01*
X108465819Y-118266528D01*
X108465819Y-118266532D01*
X108516045Y-118499580D01*
X108604935Y-118720788D01*
X108604936Y-118720790D01*
X108729930Y-118923794D01*
X108729932Y-118923796D01*
X108884627Y-119099564D01*
X108887436Y-119102755D01*
X109072920Y-119252523D01*
X109072947Y-119252538D01*
X109170074Y-119306797D01*
X109219001Y-119356677D01*
X109233193Y-119425090D01*
X109208145Y-119490316D01*
X109180724Y-119516625D01*
X109021183Y-119628338D01*
X108860342Y-119789179D01*
X108729865Y-119975517D01*
X108633734Y-120181673D01*
X108633730Y-120181682D01*
X108581127Y-120377999D01*
X108581128Y-120378000D01*
X109893889Y-120378000D01*
X109854390Y-120402457D01*
X109786799Y-120491962D01*
X109756105Y-120599840D01*
X109766454Y-120711521D01*
X109816448Y-120811922D01*
X109888931Y-120878000D01*
X108581128Y-120878000D01*
X108633730Y-121074317D01*
X108633734Y-121074326D01*
X108729865Y-121280482D01*
X108860342Y-121466820D01*
X109021179Y-121627657D01*
X109176496Y-121736412D01*
X109220121Y-121790989D01*
X109227313Y-121860488D01*
X109195791Y-121922842D01*
X109174809Y-121940722D01*
X108977007Y-122074413D01*
X108976997Y-122074421D01*
X108804883Y-122239377D01*
X108784279Y-122267236D01*
X108728588Y-122309430D01*
X108684584Y-122317500D01*
X106873693Y-122317500D01*
X106806654Y-122297815D01*
X106780610Y-122275424D01*
X106769741Y-122263075D01*
X106662563Y-122141297D01*
X106477079Y-121991529D01*
X106391728Y-121943849D01*
X106379923Y-121937254D01*
X106330996Y-121887374D01*
X106316804Y-121818961D01*
X106341852Y-121753735D01*
X106369274Y-121727425D01*
X106528816Y-121615712D01*
X106689656Y-121454872D01*
X106820133Y-121268534D01*
X106916264Y-121062378D01*
X106916268Y-121062369D01*
X106968871Y-120866052D01*
X105656110Y-120866052D01*
X105695609Y-120841595D01*
X105763200Y-120752090D01*
X105793894Y-120644212D01*
X105783545Y-120532531D01*
X105733551Y-120432130D01*
X105661068Y-120366052D01*
X106968871Y-120366052D01*
X106968871Y-120366051D01*
X106916268Y-120169734D01*
X106916264Y-120169725D01*
X106820133Y-119963569D01*
X106689656Y-119777231D01*
X106528819Y-119616394D01*
X106373502Y-119507639D01*
X106329877Y-119453061D01*
X106322685Y-119383563D01*
X106354207Y-119321208D01*
X106375189Y-119303329D01*
X106572992Y-119169638D01*
X106572993Y-119169636D01*
X106573002Y-119169631D01*
X106745117Y-119004673D01*
X106886878Y-118812999D01*
X106994206Y-118600126D01*
X107064015Y-118372175D01*
X107094297Y-118135706D01*
X107091780Y-118076464D01*
X107084687Y-117909471D01*
X107084179Y-117897520D01*
X107060009Y-117785373D01*
X107033953Y-117664471D01*
X107000691Y-117581697D01*
X106945063Y-117443262D01*
X106820068Y-117240257D01*
X106662563Y-117061297D01*
X106477079Y-116911529D01*
X106477073Y-116911526D01*
X106477070Y-116911523D01*
X106477056Y-116911515D01*
X106477050Y-116911509D01*
X106472708Y-116908574D01*
X106473305Y-116907690D01*
X106428133Y-116861632D01*
X106413946Y-116793217D01*
X106438998Y-116727994D01*
X106468098Y-116700533D01*
X106573002Y-116629631D01*
X106745117Y-116464673D01*
X106797668Y-116393620D01*
X106830843Y-116348765D01*
X106886533Y-116306571D01*
X106930538Y-116298500D01*
X108608142Y-116298500D01*
X108675181Y-116318185D01*
G37*
%TD.AperFunction*%
%TA.AperFunction,Conductor*%
G36*
X104328705Y-106408110D02*
G01*
X104363269Y-106427815D01*
X104502919Y-106540575D01*
X104502934Y-106540583D01*
X104502941Y-106540590D01*
X104507290Y-106543530D01*
X104506692Y-106544414D01*
X104551860Y-106590463D01*
X104566052Y-106658876D01*
X104541004Y-106724102D01*
X104511896Y-106751572D01*
X104407006Y-106822465D01*
X104406996Y-106822473D01*
X104234880Y-106987431D01*
X104093122Y-107179102D01*
X104093119Y-107179106D01*
X103985795Y-107391972D01*
X103985792Y-107391978D01*
X103915982Y-107619930D01*
X103885701Y-107856398D01*
X103895818Y-108094580D01*
X103895818Y-108094584D01*
X103946044Y-108327632D01*
X104034878Y-108548700D01*
X104034935Y-108548842D01*
X104159930Y-108751847D01*
X104317435Y-108930807D01*
X104502919Y-109080575D01*
X104502934Y-109080583D01*
X104502941Y-109080590D01*
X104507290Y-109083530D01*
X104506692Y-109084414D01*
X104551860Y-109130463D01*
X104566052Y-109198876D01*
X104541004Y-109264102D01*
X104511896Y-109291572D01*
X104407006Y-109362465D01*
X104406996Y-109362473D01*
X104234880Y-109527431D01*
X104093122Y-109719102D01*
X104093119Y-109719106D01*
X103985795Y-109931972D01*
X103985792Y-109931978D01*
X103915982Y-110159930D01*
X103885701Y-110396398D01*
X103895818Y-110634580D01*
X103895818Y-110634584D01*
X103946044Y-110867632D01*
X104026084Y-111066816D01*
X104034935Y-111088842D01*
X104159930Y-111291847D01*
X104317435Y-111470807D01*
X104502919Y-111620575D01*
X104502934Y-111620583D01*
X104502941Y-111620590D01*
X104507290Y-111623530D01*
X104506692Y-111624414D01*
X104551860Y-111670463D01*
X104566052Y-111738876D01*
X104541004Y-111804102D01*
X104511896Y-111831572D01*
X104407006Y-111902465D01*
X104406996Y-111902473D01*
X104234880Y-112067431D01*
X104093122Y-112259102D01*
X104093119Y-112259106D01*
X103985795Y-112471972D01*
X103985792Y-112471978D01*
X103915982Y-112699930D01*
X103885701Y-112936398D01*
X103895818Y-113174580D01*
X103895818Y-113174584D01*
X103946044Y-113407632D01*
X104031663Y-113620699D01*
X104034935Y-113628842D01*
X104159930Y-113831847D01*
X104175992Y-113850097D01*
X104279697Y-113967929D01*
X104317435Y-114010807D01*
X104502919Y-114160575D01*
X104502934Y-114160583D01*
X104502941Y-114160590D01*
X104507290Y-114163530D01*
X104506692Y-114164414D01*
X104551860Y-114210463D01*
X104566052Y-114278876D01*
X104541004Y-114344102D01*
X104511896Y-114371572D01*
X104407006Y-114442465D01*
X104406996Y-114442473D01*
X104234880Y-114607431D01*
X104093122Y-114799102D01*
X104093119Y-114799106D01*
X103985795Y-115011972D01*
X103985792Y-115011978D01*
X103915982Y-115239930D01*
X103885701Y-115476398D01*
X103895818Y-115714576D01*
X103895818Y-115714584D01*
X103946044Y-115947632D01*
X104028583Y-116153035D01*
X104034935Y-116168842D01*
X104159930Y-116371847D01*
X104317435Y-116550807D01*
X104502919Y-116700575D01*
X104502934Y-116700583D01*
X104502941Y-116700590D01*
X104507290Y-116703530D01*
X104506692Y-116704414D01*
X104551860Y-116750463D01*
X104566052Y-116818876D01*
X104541004Y-116884102D01*
X104511896Y-116911572D01*
X104407006Y-116982465D01*
X104406996Y-116982473D01*
X104234880Y-117147431D01*
X104093122Y-117339102D01*
X104093119Y-117339106D01*
X103985795Y-117551972D01*
X103985792Y-117551978D01*
X103915982Y-117779930D01*
X103885701Y-118016398D01*
X103895818Y-118254580D01*
X103895818Y-118254584D01*
X103946044Y-118487632D01*
X104034934Y-118708840D01*
X104034935Y-118708842D01*
X104159930Y-118911847D01*
X104216148Y-118975723D01*
X104297169Y-119067781D01*
X104317435Y-119090807D01*
X104502919Y-119240575D01*
X104531179Y-119256362D01*
X104600073Y-119294849D01*
X104649000Y-119344729D01*
X104663192Y-119413142D01*
X104638144Y-119478368D01*
X104610723Y-119504677D01*
X104451182Y-119616390D01*
X104290341Y-119777231D01*
X104159864Y-119963569D01*
X104063733Y-120169725D01*
X104063729Y-120169734D01*
X104011126Y-120366051D01*
X104011127Y-120366052D01*
X105323888Y-120366052D01*
X105284389Y-120390509D01*
X105216798Y-120480014D01*
X105186104Y-120587892D01*
X105196453Y-120699573D01*
X105246447Y-120799974D01*
X105318930Y-120866052D01*
X104011127Y-120866052D01*
X104063729Y-121062369D01*
X104063733Y-121062378D01*
X104159864Y-121268534D01*
X104290341Y-121454872D01*
X104451178Y-121615709D01*
X104606495Y-121724464D01*
X104650120Y-121779041D01*
X104657312Y-121848540D01*
X104625790Y-121910894D01*
X104604808Y-121928774D01*
X104407006Y-122062465D01*
X104406996Y-122062473D01*
X104234882Y-122227429D01*
X104214278Y-122255288D01*
X104158587Y-122297482D01*
X104114583Y-122305552D01*
X102306035Y-122305552D01*
X102301000Y-122305347D01*
X102245783Y-122300850D01*
X102245776Y-122300851D01*
X102170454Y-122311113D01*
X102101371Y-122300658D01*
X102048907Y-122254514D01*
X102029718Y-122187331D01*
X102033381Y-122158321D01*
X102062681Y-122040505D01*
X102062682Y-122040501D01*
X102062682Y-122040498D01*
X102062683Y-122040495D01*
X102065500Y-121998954D01*
X102065500Y-120901046D01*
X102062683Y-120859505D01*
X102061200Y-120853543D01*
X102038941Y-120764038D01*
X102018037Y-120679979D01*
X101935842Y-120514247D01*
X101868387Y-120430330D01*
X101819940Y-120370059D01*
X101700789Y-120274283D01*
X101675753Y-120254158D01*
X101675751Y-120254157D01*
X101675750Y-120254156D01*
X101510023Y-120171964D01*
X101510021Y-120171963D01*
X101330497Y-120127317D01*
X101330501Y-120127317D01*
X101299339Y-120125204D01*
X101288954Y-120124500D01*
X101288952Y-120124500D01*
X100893651Y-120124500D01*
X100826612Y-120104815D01*
X100805970Y-120088181D01*
X100026818Y-119309029D01*
X99993333Y-119247706D01*
X99990500Y-119221357D01*
X99990500Y-112471861D01*
X100010185Y-112404822D01*
X100062989Y-112359067D01*
X100132147Y-112349123D01*
X100173515Y-112362805D01*
X100310497Y-112436936D01*
X100412571Y-112471978D01*
X100530015Y-112512297D01*
X100530017Y-112512297D01*
X100530019Y-112512298D01*
X100758951Y-112550500D01*
X100758952Y-112550500D01*
X100991048Y-112550500D01*
X100991049Y-112550500D01*
X101219981Y-112512298D01*
X101439503Y-112436936D01*
X101643626Y-112326470D01*
X101653034Y-112319148D01*
X101732239Y-112257500D01*
X101826784Y-112183913D01*
X101983979Y-112013153D01*
X102110924Y-111818849D01*
X102204157Y-111606300D01*
X102261134Y-111381305D01*
X102262104Y-111369598D01*
X102280300Y-111150006D01*
X102280300Y-111149993D01*
X102261135Y-110918702D01*
X102261133Y-110918691D01*
X102204157Y-110693699D01*
X102110924Y-110481151D01*
X101983983Y-110286852D01*
X101983980Y-110286849D01*
X101983979Y-110286847D01*
X101826784Y-110116087D01*
X101759499Y-110063717D01*
X101673337Y-109996654D01*
X101632524Y-109939944D01*
X101625500Y-109898801D01*
X101625500Y-109060164D01*
X101645185Y-108993125D01*
X101661814Y-108972488D01*
X104197692Y-106436609D01*
X104259013Y-106403126D01*
X104328705Y-106408110D01*
G37*
%TD.AperFunction*%
%TA.AperFunction,Conductor*%
G36*
X128219788Y-113753185D02*
G01*
X128258338Y-113792486D01*
X128289927Y-113843789D01*
X128289931Y-113843796D01*
X128436920Y-114010807D01*
X128447436Y-114022755D01*
X128632920Y-114172523D01*
X128676616Y-114196933D01*
X128730074Y-114226797D01*
X128779001Y-114276677D01*
X128793193Y-114345090D01*
X128768145Y-114410316D01*
X128740724Y-114436625D01*
X128581183Y-114548338D01*
X128420342Y-114709179D01*
X128289865Y-114895517D01*
X128193734Y-115101673D01*
X128193730Y-115101682D01*
X128141127Y-115297999D01*
X128141128Y-115298000D01*
X129453889Y-115298000D01*
X129414390Y-115322457D01*
X129346799Y-115411962D01*
X129316105Y-115519840D01*
X129326454Y-115631521D01*
X129376448Y-115731922D01*
X129448931Y-115798000D01*
X128141128Y-115798000D01*
X128193730Y-115994317D01*
X128193734Y-115994326D01*
X128289865Y-116200482D01*
X128420342Y-116386820D01*
X128581179Y-116547657D01*
X128736496Y-116656412D01*
X128780121Y-116710989D01*
X128787313Y-116780488D01*
X128755791Y-116842842D01*
X128734809Y-116860722D01*
X128537007Y-116994413D01*
X128536997Y-116994421D01*
X128364880Y-117159380D01*
X128270321Y-117287234D01*
X128214631Y-117329429D01*
X128170625Y-117337500D01*
X126751858Y-117337500D01*
X126684819Y-117317815D01*
X126646269Y-117278515D01*
X126630069Y-117252205D01*
X126630068Y-117252203D01*
X126472564Y-117073245D01*
X126432800Y-117041138D01*
X126287080Y-116923477D01*
X126287069Y-116923471D01*
X126189924Y-116869202D01*
X126140997Y-116819322D01*
X126126805Y-116750909D01*
X126151853Y-116685683D01*
X126179275Y-116659373D01*
X126338817Y-116547660D01*
X126499657Y-116386820D01*
X126630134Y-116200482D01*
X126726265Y-115994326D01*
X126726269Y-115994317D01*
X126778872Y-115798000D01*
X125466111Y-115798000D01*
X125505610Y-115773543D01*
X125573201Y-115684038D01*
X125603895Y-115576160D01*
X125593546Y-115464479D01*
X125543552Y-115364078D01*
X125471069Y-115298000D01*
X126778872Y-115298000D01*
X126778872Y-115297999D01*
X126726269Y-115101682D01*
X126726265Y-115101673D01*
X126630134Y-114895517D01*
X126499657Y-114709179D01*
X126338820Y-114548342D01*
X126183503Y-114439587D01*
X126139878Y-114385009D01*
X126132686Y-114315511D01*
X126164208Y-114253156D01*
X126185190Y-114235277D01*
X126382993Y-114101586D01*
X126382994Y-114101584D01*
X126383003Y-114101579D01*
X126555118Y-113936621D01*
X126668169Y-113783764D01*
X126723860Y-113741571D01*
X126767865Y-113733500D01*
X128152749Y-113733500D01*
X128219788Y-113753185D01*
G37*
%TD.AperFunction*%
%TA.AperFunction,Conductor*%
G36*
X138040761Y-68322836D02*
G01*
X138086516Y-68375640D01*
X138096460Y-68444798D01*
X138067435Y-68508354D01*
X138061403Y-68514832D01*
X135814358Y-70761874D01*
X135800729Y-70773653D01*
X135781468Y-70787992D01*
X135747898Y-70827999D01*
X135744253Y-70831978D01*
X135738407Y-70837825D01*
X135718618Y-70862853D01*
X135717481Y-70864249D01*
X135668694Y-70922392D01*
X135664729Y-70928421D01*
X135664682Y-70928390D01*
X135660630Y-70934749D01*
X135660679Y-70934779D01*
X135656889Y-70940923D01*
X135624812Y-71009712D01*
X135624027Y-71011333D01*
X135589957Y-71079174D01*
X135587488Y-71085959D01*
X135587432Y-71085938D01*
X135584960Y-71093052D01*
X135585015Y-71093071D01*
X135582743Y-71099927D01*
X135567391Y-71174272D01*
X135567001Y-71176030D01*
X135549499Y-71249881D01*
X135548661Y-71257056D01*
X135548601Y-71257049D01*
X135547835Y-71264547D01*
X135547895Y-71264553D01*
X135547265Y-71271742D01*
X135549474Y-71347621D01*
X135549500Y-71349425D01*
X135549500Y-82029705D01*
X135529815Y-82096744D01*
X135513181Y-82117386D01*
X131000589Y-86629977D01*
X130939266Y-86663462D01*
X130869574Y-86658478D01*
X130819824Y-86624219D01*
X130805662Y-86608128D01*
X130792564Y-86593245D01*
X130607080Y-86443477D01*
X130451604Y-86356622D01*
X130398955Y-86327210D01*
X130174170Y-86247788D01*
X129939209Y-86207500D01*
X129939200Y-86207500D01*
X129360503Y-86207500D01*
X129360484Y-86207500D01*
X129182463Y-86222652D01*
X128951751Y-86282724D01*
X128734519Y-86380919D01*
X128734511Y-86380924D01*
X128537006Y-86514413D01*
X128536997Y-86514421D01*
X128364884Y-86679376D01*
X128364881Y-86679379D01*
X128364882Y-86679379D01*
X128276771Y-86798514D01*
X128251831Y-86832235D01*
X128196140Y-86874429D01*
X128152135Y-86882500D01*
X126767251Y-86882500D01*
X126700212Y-86862815D01*
X126661662Y-86823514D01*
X126630072Y-86772210D01*
X126630068Y-86772203D01*
X126472564Y-86593245D01*
X126457767Y-86581297D01*
X126287080Y-86443477D01*
X126131604Y-86356622D01*
X126078955Y-86327210D01*
X125854170Y-86247788D01*
X125619209Y-86207500D01*
X125619200Y-86207500D01*
X125040503Y-86207500D01*
X125040484Y-86207500D01*
X124862463Y-86222652D01*
X124631751Y-86282724D01*
X124414519Y-86380919D01*
X124414511Y-86380924D01*
X124217006Y-86514413D01*
X124216997Y-86514421D01*
X124044881Y-86679379D01*
X123903123Y-86871050D01*
X123903120Y-86871054D01*
X123795796Y-87083920D01*
X123795793Y-87083926D01*
X123725983Y-87311878D01*
X123695702Y-87548346D01*
X123705819Y-87786528D01*
X123705819Y-87786532D01*
X123756045Y-88019580D01*
X123818871Y-88175926D01*
X123844936Y-88240790D01*
X123969930Y-88443794D01*
X123969932Y-88443796D01*
X124116919Y-88610806D01*
X124127436Y-88622755D01*
X124312920Y-88772523D01*
X124312935Y-88772531D01*
X124312942Y-88772538D01*
X124317291Y-88775478D01*
X124316693Y-88776362D01*
X124361861Y-88822411D01*
X124376053Y-88890824D01*
X124351005Y-88956050D01*
X124321897Y-88983520D01*
X124217007Y-89054413D01*
X124216997Y-89054421D01*
X124044881Y-89219379D01*
X123903123Y-89411050D01*
X123903120Y-89411054D01*
X123795796Y-89623920D01*
X123795793Y-89623926D01*
X123725983Y-89851878D01*
X123695702Y-90088346D01*
X123705819Y-90326528D01*
X123705819Y-90326532D01*
X123746950Y-90517376D01*
X123741831Y-90587058D01*
X123699852Y-90642910D01*
X123634341Y-90667201D01*
X123625733Y-90667500D01*
X113933705Y-90667500D01*
X113915735Y-90666191D01*
X113891972Y-90662710D01*
X113846533Y-90666686D01*
X113839931Y-90667264D01*
X113834530Y-90667500D01*
X113826283Y-90667500D01*
X113794606Y-90671202D01*
X113792832Y-90671384D01*
X113762390Y-90674047D01*
X113717198Y-90678001D01*
X113710132Y-90679460D01*
X113710120Y-90679404D01*
X113702763Y-90681035D01*
X113702777Y-90681092D01*
X113695740Y-90682760D01*
X113624385Y-90708729D01*
X113622685Y-90709320D01*
X113550668Y-90733185D01*
X113544126Y-90736236D01*
X113544101Y-90736183D01*
X113537308Y-90739471D01*
X113537334Y-90739523D01*
X113530880Y-90742764D01*
X113467468Y-90784470D01*
X113465948Y-90785439D01*
X113401348Y-90825285D01*
X113395683Y-90829765D01*
X113395647Y-90829719D01*
X113389798Y-90834484D01*
X113389835Y-90834528D01*
X113384309Y-90839164D01*
X113332212Y-90894382D01*
X113330956Y-90895675D01*
X111826292Y-92400339D01*
X111764969Y-92433824D01*
X111695277Y-92428840D01*
X111639344Y-92386968D01*
X111617394Y-92338782D01*
X111616390Y-92334123D01*
X111603954Y-92276419D01*
X111515064Y-92055210D01*
X111390069Y-91852205D01*
X111232564Y-91673245D01*
X111047080Y-91523477D01*
X111047074Y-91523474D01*
X111047071Y-91523471D01*
X111047057Y-91523463D01*
X111047051Y-91523457D01*
X111042709Y-91520522D01*
X111043306Y-91519638D01*
X110998134Y-91473580D01*
X110983947Y-91405165D01*
X111008999Y-91339942D01*
X111038099Y-91312481D01*
X111143003Y-91241579D01*
X111315118Y-91076621D01*
X111456879Y-90884947D01*
X111564207Y-90672074D01*
X111634016Y-90444123D01*
X111664298Y-90207654D01*
X111654180Y-89969468D01*
X111652373Y-89961085D01*
X111603954Y-89736419D01*
X111554651Y-89613726D01*
X111515064Y-89515210D01*
X111390069Y-89312205D01*
X111232564Y-89133245D01*
X111047080Y-88983477D01*
X111047074Y-88983474D01*
X111047071Y-88983471D01*
X111047057Y-88983463D01*
X111047051Y-88983457D01*
X111042709Y-88980522D01*
X111043306Y-88979638D01*
X110998134Y-88933580D01*
X110983947Y-88865165D01*
X111008999Y-88799942D01*
X111038099Y-88772481D01*
X111143003Y-88701579D01*
X111315118Y-88536621D01*
X111456879Y-88344947D01*
X111564207Y-88132074D01*
X111634016Y-87904123D01*
X111664298Y-87667654D01*
X111654180Y-87429468D01*
X111603954Y-87196419D01*
X111515064Y-86975210D01*
X111390069Y-86772205D01*
X111232564Y-86593245D01*
X111047080Y-86443477D01*
X110891604Y-86356622D01*
X110838955Y-86327210D01*
X110614170Y-86247788D01*
X110379209Y-86207500D01*
X110379200Y-86207500D01*
X109800503Y-86207500D01*
X109800484Y-86207500D01*
X109622463Y-86222652D01*
X109391751Y-86282724D01*
X109174519Y-86380919D01*
X109174511Y-86380924D01*
X108977006Y-86514413D01*
X108976997Y-86514421D01*
X108804880Y-86679380D01*
X108710321Y-86807234D01*
X108654631Y-86849429D01*
X108610625Y-86857500D01*
X106949214Y-86857500D01*
X106882175Y-86837815D01*
X106843624Y-86798514D01*
X106820068Y-86760257D01*
X106662563Y-86581297D01*
X106618321Y-86545574D01*
X106477079Y-86431529D01*
X106342990Y-86356622D01*
X106268954Y-86315262D01*
X106044169Y-86235840D01*
X105809208Y-86195552D01*
X105809199Y-86195552D01*
X105230502Y-86195552D01*
X105230483Y-86195552D01*
X105052462Y-86210704D01*
X104821750Y-86270776D01*
X104604518Y-86368971D01*
X104604510Y-86368976D01*
X104407005Y-86502465D01*
X104406996Y-86502473D01*
X104234880Y-86667431D01*
X104093122Y-86859102D01*
X104093119Y-86859106D01*
X103985795Y-87071972D01*
X103985792Y-87071978D01*
X103915982Y-87299930D01*
X103885701Y-87536398D01*
X103895818Y-87774580D01*
X103895818Y-87774584D01*
X103946044Y-88007632D01*
X104023631Y-88200712D01*
X104034935Y-88228842D01*
X104159930Y-88431847D01*
X104317435Y-88610807D01*
X104502919Y-88760575D01*
X104502934Y-88760583D01*
X104502941Y-88760590D01*
X104507290Y-88763530D01*
X104506692Y-88764414D01*
X104551860Y-88810463D01*
X104566052Y-88878876D01*
X104541004Y-88944102D01*
X104511896Y-88971572D01*
X104407006Y-89042465D01*
X104406996Y-89042473D01*
X104234880Y-89207431D01*
X104234879Y-89207432D01*
X104132149Y-89346332D01*
X104076459Y-89388526D01*
X104051104Y-89394331D01*
X104051159Y-89394593D01*
X104037017Y-89397513D01*
X104037005Y-89397456D01*
X104029636Y-89399090D01*
X104029650Y-89399147D01*
X104022622Y-89400812D01*
X103951290Y-89426775D01*
X103949589Y-89427366D01*
X103877559Y-89451234D01*
X103871012Y-89454288D01*
X103870986Y-89454234D01*
X103864190Y-89457524D01*
X103864216Y-89457576D01*
X103857763Y-89460816D01*
X103794327Y-89502538D01*
X103792807Y-89503507D01*
X103728231Y-89543338D01*
X103722566Y-89547818D01*
X103722530Y-89547772D01*
X103716682Y-89552536D01*
X103716719Y-89552580D01*
X103711193Y-89557216D01*
X103659097Y-89612433D01*
X103657841Y-89613726D01*
X101194358Y-92077208D01*
X101180729Y-92088987D01*
X101161468Y-92103326D01*
X101127898Y-92143333D01*
X101124253Y-92147312D01*
X101118407Y-92153159D01*
X101098618Y-92178187D01*
X101097481Y-92179583D01*
X101048694Y-92237726D01*
X101044729Y-92243755D01*
X101044682Y-92243724D01*
X101040630Y-92250083D01*
X101040679Y-92250113D01*
X101036889Y-92256257D01*
X101004812Y-92325046D01*
X101004027Y-92326667D01*
X100969957Y-92394508D01*
X100967488Y-92401293D01*
X100967432Y-92401272D01*
X100964960Y-92408386D01*
X100965015Y-92408405D01*
X100962743Y-92415261D01*
X100947391Y-92489606D01*
X100947001Y-92491364D01*
X100929499Y-92565215D01*
X100928661Y-92572390D01*
X100928601Y-92572383D01*
X100927835Y-92579881D01*
X100927895Y-92579887D01*
X100927265Y-92587077D01*
X100929473Y-92662967D01*
X100929499Y-92664770D01*
X100929500Y-95418294D01*
X100928191Y-95436263D01*
X100924710Y-95460025D01*
X100929264Y-95512064D01*
X100929500Y-95517470D01*
X100929500Y-95525712D01*
X100933202Y-95557391D01*
X100933383Y-95559159D01*
X100934644Y-95573565D01*
X100940000Y-95634792D01*
X100941461Y-95641867D01*
X100941403Y-95641878D01*
X100943034Y-95649237D01*
X100943092Y-95649224D01*
X100944757Y-95656249D01*
X100944758Y-95656254D01*
X100944759Y-95656255D01*
X100966323Y-95715505D01*
X100970708Y-95727551D01*
X100971299Y-95729253D01*
X100995182Y-95801326D01*
X100998236Y-95807874D01*
X100998182Y-95807898D01*
X101001470Y-95814688D01*
X101001521Y-95814663D01*
X101004761Y-95821113D01*
X101004762Y-95821114D01*
X101004763Y-95821117D01*
X101046494Y-95884567D01*
X101047443Y-95886058D01*
X101082093Y-95942234D01*
X101087289Y-95950657D01*
X101091766Y-95956319D01*
X101091719Y-95956356D01*
X101096482Y-95962202D01*
X101096528Y-95962164D01*
X101101173Y-95967699D01*
X101156363Y-96019768D01*
X101157657Y-96021025D01*
X102120270Y-96983638D01*
X102132051Y-96997270D01*
X102146388Y-97016528D01*
X102186409Y-97050111D01*
X102190397Y-97053766D01*
X102196217Y-97059586D01*
X102196222Y-97059590D01*
X102196223Y-97059591D01*
X102221263Y-97079390D01*
X102222644Y-97080515D01*
X102236028Y-97091745D01*
X102280786Y-97129302D01*
X102280787Y-97129302D01*
X102280789Y-97129304D01*
X102286818Y-97133270D01*
X102286785Y-97133319D01*
X102293147Y-97137372D01*
X102293179Y-97137321D01*
X102299319Y-97141108D01*
X102299323Y-97141111D01*
X102335679Y-97158064D01*
X102368137Y-97173200D01*
X102369760Y-97173986D01*
X102437562Y-97208038D01*
X102444357Y-97210511D01*
X102444336Y-97210567D01*
X102451457Y-97213043D01*
X102451476Y-97212986D01*
X102458319Y-97215253D01*
X102458327Y-97215257D01*
X102532748Y-97230623D01*
X102534371Y-97230983D01*
X102608279Y-97248500D01*
X102608280Y-97248500D01*
X102608284Y-97248501D01*
X102615453Y-97249339D01*
X102615446Y-97249398D01*
X102622944Y-97250164D01*
X102622950Y-97250105D01*
X102630139Y-97250734D01*
X102630143Y-97250733D01*
X102630144Y-97250734D01*
X102658229Y-97249916D01*
X102706032Y-97248526D01*
X102707835Y-97248500D01*
X103813073Y-97248500D01*
X103880112Y-97268185D01*
X103925867Y-97320989D01*
X103935811Y-97390147D01*
X103931638Y-97408809D01*
X103915982Y-97459930D01*
X103885701Y-97696398D01*
X103895818Y-97934580D01*
X103895818Y-97934584D01*
X103946044Y-98167632D01*
X104028377Y-98372522D01*
X104034935Y-98388842D01*
X104159930Y-98591847D01*
X104172680Y-98606334D01*
X104297844Y-98748548D01*
X104317435Y-98770807D01*
X104502919Y-98920575D01*
X104502934Y-98920583D01*
X104502941Y-98920590D01*
X104507290Y-98923530D01*
X104506692Y-98924414D01*
X104551860Y-98970463D01*
X104566052Y-99038876D01*
X104541004Y-99104102D01*
X104511896Y-99131572D01*
X104407006Y-99202465D01*
X104406996Y-99202473D01*
X104234880Y-99367431D01*
X104093122Y-99559102D01*
X104093119Y-99559106D01*
X103985795Y-99771972D01*
X103985792Y-99771978D01*
X103915982Y-99999930D01*
X103885701Y-100236398D01*
X103895818Y-100474580D01*
X103895818Y-100474584D01*
X103946044Y-100707632D01*
X104017009Y-100884232D01*
X104034935Y-100928842D01*
X104159930Y-101131847D01*
X104181018Y-101155808D01*
X104297844Y-101288548D01*
X104317435Y-101310807D01*
X104502919Y-101460575D01*
X104502934Y-101460583D01*
X104502941Y-101460590D01*
X104507290Y-101463530D01*
X104506692Y-101464414D01*
X104551860Y-101510463D01*
X104566052Y-101578876D01*
X104541004Y-101644102D01*
X104511896Y-101671572D01*
X104407006Y-101742465D01*
X104406996Y-101742473D01*
X104234880Y-101907431D01*
X104093122Y-102099102D01*
X104093119Y-102099106D01*
X103985795Y-102311972D01*
X103985792Y-102311978D01*
X103915982Y-102539930D01*
X103885701Y-102776398D01*
X103895818Y-103014580D01*
X103895818Y-103014584D01*
X103946044Y-103247632D01*
X104034934Y-103468840D01*
X104034935Y-103468842D01*
X104159930Y-103671847D01*
X104317435Y-103850807D01*
X104502919Y-104000575D01*
X104502934Y-104000583D01*
X104502941Y-104000590D01*
X104507290Y-104003530D01*
X104506692Y-104004414D01*
X104551860Y-104050463D01*
X104566052Y-104118876D01*
X104541004Y-104184102D01*
X104511896Y-104211572D01*
X104407006Y-104282465D01*
X104406996Y-104282473D01*
X104234880Y-104447431D01*
X104234879Y-104447432D01*
X104132149Y-104586332D01*
X104076459Y-104628526D01*
X104051104Y-104634331D01*
X104051159Y-104634593D01*
X104037017Y-104637513D01*
X104037005Y-104637456D01*
X104029638Y-104639090D01*
X104029652Y-104639146D01*
X104022629Y-104640810D01*
X103951308Y-104666767D01*
X103949608Y-104667358D01*
X103877550Y-104691237D01*
X103871003Y-104694290D01*
X103870978Y-104694238D01*
X103864198Y-104697520D01*
X103864224Y-104697572D01*
X103857766Y-104700815D01*
X103794367Y-104742512D01*
X103792849Y-104743480D01*
X103728230Y-104783339D01*
X103722561Y-104787822D01*
X103722525Y-104787776D01*
X103716682Y-104792536D01*
X103716719Y-104792580D01*
X103711193Y-104797216D01*
X103659097Y-104852433D01*
X103657842Y-104853726D01*
X100389358Y-108122208D01*
X100375729Y-108133987D01*
X100356468Y-108148326D01*
X100322898Y-108188333D01*
X100319253Y-108192312D01*
X100313407Y-108198159D01*
X100293618Y-108223187D01*
X100292481Y-108224583D01*
X100243694Y-108282726D01*
X100239729Y-108288755D01*
X100239682Y-108288724D01*
X100235630Y-108295083D01*
X100235679Y-108295113D01*
X100231891Y-108301253D01*
X100226882Y-108311997D01*
X100180709Y-108364436D01*
X100113515Y-108383587D01*
X100046634Y-108363371D01*
X100001300Y-108310205D01*
X99990500Y-108259591D01*
X99990500Y-88773650D01*
X100010185Y-88706611D01*
X100026819Y-88685969D01*
X110768762Y-77944026D01*
X132874526Y-77944026D01*
X132947512Y-77995131D01*
X132947516Y-77995133D01*
X133153673Y-78091265D01*
X133153682Y-78091269D01*
X133373389Y-78150139D01*
X133373400Y-78150141D01*
X133599998Y-78169966D01*
X133600002Y-78169966D01*
X133826599Y-78150141D01*
X133826610Y-78150139D01*
X134046317Y-78091269D01*
X134046331Y-78091264D01*
X134252478Y-77995136D01*
X134325472Y-77944025D01*
X133600001Y-77218553D01*
X133600000Y-77218553D01*
X132874526Y-77944025D01*
X132874526Y-77944026D01*
X110768762Y-77944026D01*
X112660387Y-76052401D01*
X124705746Y-76052401D01*
X124715745Y-76262327D01*
X124765296Y-76466578D01*
X124765298Y-76466582D01*
X124852598Y-76657743D01*
X124852601Y-76657748D01*
X124852602Y-76657750D01*
X124852604Y-76657753D01*
X124937417Y-76776856D01*
X124974515Y-76828953D01*
X124974520Y-76828959D01*
X125126620Y-76973985D01*
X125221578Y-77035011D01*
X125303428Y-77087613D01*
X125498543Y-77165725D01*
X125601729Y-77185612D01*
X125704914Y-77205500D01*
X125704915Y-77205500D01*
X125862419Y-77205500D01*
X125862425Y-77205500D01*
X126019218Y-77190528D01*
X126220875Y-77131316D01*
X126407682Y-77035011D01*
X126572886Y-76905092D01*
X126607624Y-76865002D01*
X132295034Y-76865002D01*
X132314858Y-77091599D01*
X132314860Y-77091610D01*
X132373730Y-77311317D01*
X132373734Y-77311326D01*
X132469865Y-77517481D01*
X132469866Y-77517483D01*
X132520973Y-77590471D01*
X132520974Y-77590472D01*
X133246446Y-76865000D01*
X133246446Y-76864999D01*
X133218287Y-76836840D01*
X133296105Y-76836840D01*
X133306454Y-76948521D01*
X133356448Y-77048922D01*
X133439334Y-77124484D01*
X133543920Y-77165000D01*
X133627802Y-77165000D01*
X133710250Y-77149588D01*
X133805610Y-77090543D01*
X133873201Y-77001038D01*
X133903895Y-76893160D01*
X133901286Y-76865000D01*
X133953553Y-76865000D01*
X134679025Y-77590472D01*
X134730136Y-77517478D01*
X134826264Y-77311331D01*
X134826269Y-77311317D01*
X134885139Y-77091610D01*
X134885141Y-77091599D01*
X134904966Y-76865002D01*
X134904966Y-76864997D01*
X134885141Y-76638400D01*
X134885139Y-76638389D01*
X134826269Y-76418682D01*
X134826265Y-76418673D01*
X134730133Y-76212516D01*
X134730131Y-76212512D01*
X134679026Y-76139526D01*
X134679025Y-76139526D01*
X133953553Y-76864999D01*
X133953553Y-76865000D01*
X133901286Y-76865000D01*
X133893546Y-76781479D01*
X133843552Y-76681078D01*
X133760666Y-76605516D01*
X133656080Y-76565000D01*
X133572198Y-76565000D01*
X133489750Y-76580412D01*
X133394390Y-76639457D01*
X133326799Y-76728962D01*
X133296105Y-76836840D01*
X133218287Y-76836840D01*
X132520973Y-76139526D01*
X132520972Y-76139527D01*
X132469868Y-76212513D01*
X132373734Y-76418673D01*
X132373730Y-76418682D01*
X132314860Y-76638389D01*
X132314858Y-76638400D01*
X132295034Y-76864997D01*
X132295034Y-76865002D01*
X126607624Y-76865002D01*
X126710519Y-76746256D01*
X126815604Y-76564244D01*
X126884344Y-76365633D01*
X126914254Y-76157602D01*
X126904254Y-75947670D01*
X126854704Y-75743424D01*
X126854701Y-75743417D01*
X126767401Y-75552256D01*
X126767398Y-75552251D01*
X126767397Y-75552250D01*
X126767396Y-75552247D01*
X126645486Y-75381048D01*
X126645484Y-75381046D01*
X126645479Y-75381040D01*
X126493379Y-75236014D01*
X126316574Y-75122388D01*
X126121455Y-75044274D01*
X125915086Y-75004500D01*
X125915085Y-75004500D01*
X125757575Y-75004500D01*
X125600782Y-75019472D01*
X125600778Y-75019473D01*
X125399127Y-75078683D01*
X125212313Y-75174991D01*
X125047116Y-75304905D01*
X125047112Y-75304909D01*
X124909478Y-75463746D01*
X124804398Y-75645750D01*
X124735656Y-75844365D01*
X124735656Y-75844367D01*
X124708498Y-76033263D01*
X124705746Y-76052401D01*
X112660387Y-76052401D01*
X114387782Y-74325006D01*
X132194700Y-74325006D01*
X132213864Y-74556297D01*
X132213866Y-74556308D01*
X132270842Y-74781300D01*
X132364075Y-74993848D01*
X132491016Y-75188147D01*
X132491019Y-75188151D01*
X132491021Y-75188153D01*
X132648216Y-75358913D01*
X132648219Y-75358915D01*
X132648222Y-75358918D01*
X132831365Y-75501464D01*
X132831380Y-75501474D01*
X132908395Y-75543153D01*
X132957985Y-75592372D01*
X132973093Y-75660589D01*
X132948922Y-75726144D01*
X132920500Y-75753782D01*
X132874527Y-75785972D01*
X132874526Y-75785973D01*
X133600000Y-76511446D01*
X133600001Y-76511446D01*
X134325472Y-75785974D01*
X134325471Y-75785972D01*
X134279498Y-75753782D01*
X134235873Y-75699206D01*
X134228679Y-75629707D01*
X134260202Y-75567352D01*
X134291602Y-75543152D01*
X134368626Y-75501470D01*
X134416429Y-75464264D01*
X134430129Y-75453600D01*
X134551784Y-75358913D01*
X134708979Y-75188153D01*
X134835924Y-74993849D01*
X134929157Y-74781300D01*
X134986134Y-74556305D01*
X134990702Y-74501179D01*
X135005300Y-74325006D01*
X135005300Y-74324993D01*
X134986135Y-74093702D01*
X134986133Y-74093691D01*
X134929157Y-73868699D01*
X134835924Y-73656151D01*
X134708983Y-73461852D01*
X134708980Y-73461849D01*
X134708979Y-73461847D01*
X134551784Y-73291087D01*
X134551779Y-73291083D01*
X134551777Y-73291081D01*
X134368634Y-73148535D01*
X134368628Y-73148531D01*
X134164504Y-73038064D01*
X134164495Y-73038061D01*
X133944984Y-72962702D01*
X133773281Y-72934050D01*
X133716049Y-72924500D01*
X133483951Y-72924500D01*
X133438164Y-72932140D01*
X133255015Y-72962702D01*
X133035504Y-73038061D01*
X133035495Y-73038064D01*
X132831371Y-73148531D01*
X132831365Y-73148535D01*
X132648222Y-73291081D01*
X132648219Y-73291084D01*
X132491016Y-73461852D01*
X132364075Y-73656151D01*
X132270842Y-73868699D01*
X132213866Y-74093691D01*
X132213864Y-74093702D01*
X132194700Y-74324993D01*
X132194700Y-74325006D01*
X114387782Y-74325006D01*
X118759969Y-69952819D01*
X118821292Y-69919334D01*
X118847650Y-69916500D01*
X131638598Y-69916500D01*
X131643633Y-69916705D01*
X131663247Y-69918301D01*
X131698852Y-69921201D01*
X131763205Y-69912432D01*
X131778265Y-69910381D01*
X131779933Y-69910177D01*
X131859596Y-69901514D01*
X131860721Y-69901266D01*
X131880992Y-69896515D01*
X131882148Y-69896227D01*
X131882153Y-69896227D01*
X131919072Y-69882663D01*
X131957396Y-69868584D01*
X131958952Y-69868035D01*
X132034906Y-69842444D01*
X132034915Y-69842438D01*
X132036036Y-69841920D01*
X132054808Y-69832923D01*
X132055796Y-69832433D01*
X132055801Y-69832432D01*
X132123387Y-69789230D01*
X132124717Y-69788406D01*
X132193421Y-69747070D01*
X132193428Y-69747062D01*
X132194354Y-69746360D01*
X132210761Y-69733533D01*
X132211675Y-69732799D01*
X132211675Y-69732798D01*
X132268407Y-69676065D01*
X132269467Y-69675033D01*
X132327726Y-69619849D01*
X132327729Y-69619843D01*
X132328442Y-69619005D01*
X132342589Y-69601883D01*
X133605003Y-68339470D01*
X133666327Y-68305985D01*
X133692685Y-68303151D01*
X137973722Y-68303151D01*
X138040761Y-68322836D01*
G37*
%TD.AperFunction*%
%TA.AperFunction,Conductor*%
G36*
X132539809Y-53580185D02*
G01*
X132560451Y-53596819D01*
X135913181Y-56949548D01*
X135946666Y-57010871D01*
X135949500Y-57037229D01*
X135949500Y-59135500D01*
X135929815Y-59202539D01*
X135877011Y-59248294D01*
X135825500Y-59259500D01*
X135769808Y-59259500D01*
X135722387Y-59267413D01*
X135532699Y-59299066D01*
X135305347Y-59377116D01*
X135305342Y-59377118D01*
X135093930Y-59491529D01*
X135093924Y-59491533D01*
X134904242Y-59639169D01*
X134904239Y-59639172D01*
X134904236Y-59639174D01*
X134904236Y-59639175D01*
X134874119Y-59671891D01*
X134741430Y-59816029D01*
X134741427Y-59816033D01*
X134609951Y-60017270D01*
X134558175Y-60135310D01*
X134513219Y-60188796D01*
X134446483Y-60209486D01*
X134444619Y-60209500D01*
X131355205Y-60209500D01*
X131337235Y-60208191D01*
X131313472Y-60204710D01*
X131268390Y-60208655D01*
X131261433Y-60209264D01*
X131256032Y-60209500D01*
X131247781Y-60209500D01*
X131216094Y-60213203D01*
X131214302Y-60213386D01*
X131138701Y-60220001D01*
X131131634Y-60221461D01*
X131131622Y-60221404D01*
X131124253Y-60223038D01*
X131124267Y-60223095D01*
X131117243Y-60224759D01*
X131045898Y-60250725D01*
X131044197Y-60251316D01*
X130972160Y-60275187D01*
X130965623Y-60278236D01*
X130965598Y-60278184D01*
X130958810Y-60281470D01*
X130958836Y-60281521D01*
X130952384Y-60284761D01*
X130888983Y-60326460D01*
X130887463Y-60327429D01*
X130822847Y-60367285D01*
X130817182Y-60371765D01*
X130817146Y-60371719D01*
X130811298Y-60376484D01*
X130811335Y-60376528D01*
X130805809Y-60381164D01*
X130753729Y-60436364D01*
X130752474Y-60437657D01*
X127128862Y-64061268D01*
X127067539Y-64094753D01*
X127020772Y-64095896D01*
X126892549Y-64074500D01*
X126660451Y-64074500D01*
X126614664Y-64082140D01*
X126431515Y-64112702D01*
X126212004Y-64188061D01*
X126211995Y-64188064D01*
X126007871Y-64298531D01*
X126007865Y-64298535D01*
X125824722Y-64441081D01*
X125824719Y-64441084D01*
X125667516Y-64611852D01*
X125540575Y-64806151D01*
X125447342Y-65018699D01*
X125390366Y-65243691D01*
X125390364Y-65243702D01*
X125371200Y-65474993D01*
X125371200Y-65475006D01*
X125390364Y-65706297D01*
X125390366Y-65706308D01*
X125447342Y-65931300D01*
X125540575Y-66143848D01*
X125667516Y-66338147D01*
X125667519Y-66338151D01*
X125667521Y-66338153D01*
X125776483Y-66456518D01*
X125807405Y-66519172D01*
X125799545Y-66588598D01*
X125755397Y-66642753D01*
X125688980Y-66664444D01*
X125685253Y-66664500D01*
X119044247Y-66664500D01*
X118977208Y-66644815D01*
X118931453Y-66592011D01*
X118924041Y-66570941D01*
X118908333Y-66508913D01*
X118879157Y-66393700D01*
X118785924Y-66181151D01*
X118779855Y-66171861D01*
X118658983Y-65986852D01*
X118658980Y-65986849D01*
X118658979Y-65986847D01*
X118501784Y-65816087D01*
X118501779Y-65816083D01*
X118501777Y-65816081D01*
X118318634Y-65673535D01*
X118318628Y-65673531D01*
X118114504Y-65563064D01*
X118114495Y-65563061D01*
X117894984Y-65487702D01*
X117723281Y-65459050D01*
X117666049Y-65449500D01*
X117433951Y-65449500D01*
X117401213Y-65454963D01*
X117205019Y-65487701D01*
X116994195Y-65560077D01*
X116924397Y-65563226D01*
X116863976Y-65528139D01*
X116832115Y-65465957D01*
X116838931Y-65396420D01*
X116866248Y-65355119D01*
X122291039Y-59930328D01*
X122352363Y-59896843D01*
X122378721Y-59894009D01*
X123925315Y-59894009D01*
X123992354Y-59913694D01*
X124029123Y-59950187D01*
X124066015Y-60006654D01*
X124066017Y-60006656D01*
X124066021Y-60006662D01*
X124223216Y-60177422D01*
X124223219Y-60177424D01*
X124223222Y-60177427D01*
X124406365Y-60319973D01*
X124406371Y-60319977D01*
X124406374Y-60319979D01*
X124610497Y-60430445D01*
X124696588Y-60460000D01*
X124830015Y-60505806D01*
X124830017Y-60505806D01*
X124830019Y-60505807D01*
X125058951Y-60544009D01*
X125058952Y-60544009D01*
X125291048Y-60544009D01*
X125291049Y-60544009D01*
X125519981Y-60505807D01*
X125739503Y-60430445D01*
X125943626Y-60319979D01*
X126126784Y-60177422D01*
X126283979Y-60006662D01*
X126410924Y-59812358D01*
X126504157Y-59599809D01*
X126561134Y-59374814D01*
X126562710Y-59355793D01*
X126580300Y-59143515D01*
X126580300Y-59143502D01*
X126561135Y-58912211D01*
X126561133Y-58912200D01*
X126504157Y-58687208D01*
X126410924Y-58474660D01*
X126283983Y-58280361D01*
X126283980Y-58280358D01*
X126283979Y-58280356D01*
X126126784Y-58109596D01*
X126126779Y-58109592D01*
X126126777Y-58109590D01*
X125943634Y-57967044D01*
X125943628Y-57967040D01*
X125739504Y-57856573D01*
X125739495Y-57856570D01*
X125519984Y-57781211D01*
X125302177Y-57744866D01*
X125291049Y-57743009D01*
X125058951Y-57743009D01*
X125058950Y-57743009D01*
X124997587Y-57753248D01*
X124928222Y-57744866D01*
X124900983Y-57722317D01*
X124899672Y-57727186D01*
X124847913Y-57774120D01*
X124834134Y-57779797D01*
X124610504Y-57856570D01*
X124610495Y-57856573D01*
X124406371Y-57967040D01*
X124406365Y-57967044D01*
X124223222Y-58109590D01*
X124223219Y-58109593D01*
X124223216Y-58109595D01*
X124223216Y-58109596D01*
X124069111Y-58277000D01*
X124066015Y-58280363D01*
X124029123Y-58336831D01*
X123975977Y-58382187D01*
X123925315Y-58393009D01*
X122080196Y-58393009D01*
X122062226Y-58391700D01*
X122038463Y-58388219D01*
X121993024Y-58392195D01*
X121986422Y-58392773D01*
X121981021Y-58393009D01*
X121972774Y-58393009D01*
X121941097Y-58396711D01*
X121939323Y-58396893D01*
X121908881Y-58399556D01*
X121863689Y-58403510D01*
X121856623Y-58404969D01*
X121856611Y-58404913D01*
X121849254Y-58406544D01*
X121849268Y-58406601D01*
X121842231Y-58408269D01*
X121770876Y-58434238D01*
X121769176Y-58434829D01*
X121697159Y-58458693D01*
X121690617Y-58461744D01*
X121690592Y-58461692D01*
X121683799Y-58464980D01*
X121683825Y-58465031D01*
X121677377Y-58468269D01*
X121613967Y-58509974D01*
X121612448Y-58510941D01*
X121547835Y-58550797D01*
X121542168Y-58555278D01*
X121542132Y-58555232D01*
X121536289Y-58559993D01*
X121536326Y-58560037D01*
X121530800Y-58564673D01*
X121478720Y-58619873D01*
X121477465Y-58621166D01*
X85154451Y-94944181D01*
X85093128Y-94977666D01*
X85066770Y-94980500D01*
X85023729Y-94980500D01*
X84956690Y-94960815D01*
X84910935Y-94908011D01*
X84900991Y-94838853D01*
X84930016Y-94775297D01*
X84936048Y-94768819D01*
X122768101Y-56936766D01*
X122829424Y-56903281D01*
X122855782Y-56900447D01*
X123346366Y-56900447D01*
X123413405Y-56920132D01*
X123450174Y-56956625D01*
X123487066Y-57013092D01*
X123487068Y-57013094D01*
X123487072Y-57013100D01*
X123644267Y-57183860D01*
X123644270Y-57183862D01*
X123644273Y-57183865D01*
X123827416Y-57326411D01*
X123827422Y-57326415D01*
X123827425Y-57326417D01*
X124031548Y-57436883D01*
X124145538Y-57476015D01*
X124251066Y-57512244D01*
X124251068Y-57512244D01*
X124251070Y-57512245D01*
X124480002Y-57550447D01*
X124480003Y-57550447D01*
X124712098Y-57550447D01*
X124712100Y-57550447D01*
X124773462Y-57540207D01*
X124842826Y-57548589D01*
X124870067Y-57571138D01*
X124871379Y-57566267D01*
X124923139Y-57519334D01*
X124936916Y-57513658D01*
X124952532Y-57508297D01*
X125160554Y-57436883D01*
X125364677Y-57326417D01*
X125547835Y-57183860D01*
X125705030Y-57013100D01*
X125831975Y-56818796D01*
X125925208Y-56606247D01*
X125982185Y-56381252D01*
X125982186Y-56381244D01*
X126001351Y-56149953D01*
X126001351Y-56149940D01*
X125982186Y-55918649D01*
X125982184Y-55918638D01*
X125925208Y-55693646D01*
X125831975Y-55481098D01*
X125705032Y-55286796D01*
X125649208Y-55226155D01*
X125618286Y-55163500D01*
X125626146Y-55094074D01*
X125649203Y-55058195D01*
X125773979Y-54922653D01*
X125900924Y-54728349D01*
X125994157Y-54515800D01*
X126051134Y-54290805D01*
X126051135Y-54290797D01*
X126070300Y-54059506D01*
X126070300Y-54059493D01*
X126051135Y-53828202D01*
X126051133Y-53828191D01*
X126022454Y-53714940D01*
X126025079Y-53645120D01*
X126065035Y-53587802D01*
X126129637Y-53561186D01*
X126142660Y-53560500D01*
X132472770Y-53560500D01*
X132539809Y-53580185D01*
G37*
%TD.AperFunction*%
%TA.AperFunction,Conductor*%
G36*
X142318041Y-62008987D02*
G01*
X142345520Y-62038102D01*
X142416413Y-62142993D01*
X142416418Y-62142998D01*
X142416421Y-62143003D01*
X142581379Y-62315118D01*
X142773053Y-62456879D01*
X142985926Y-62564207D01*
X143213877Y-62634016D01*
X143450346Y-62664298D01*
X143688532Y-62654180D01*
X143921581Y-62603954D01*
X144142790Y-62515064D01*
X144345795Y-62390069D01*
X144524755Y-62232564D01*
X144672334Y-62049790D01*
X144729763Y-62009999D01*
X144799591Y-62007572D01*
X144859645Y-62043283D01*
X144872616Y-62059868D01*
X144901429Y-62103969D01*
X145064236Y-62280825D01*
X145064239Y-62280827D01*
X145064242Y-62280830D01*
X145251662Y-62426705D01*
X145292475Y-62483415D01*
X145299500Y-62524558D01*
X145299500Y-65260905D01*
X145279815Y-65327944D01*
X145263181Y-65348586D01*
X143850820Y-66760946D01*
X143789497Y-66794431D01*
X143719805Y-66789447D01*
X143663872Y-66747575D01*
X143657559Y-66738294D01*
X143582787Y-66616856D01*
X143582786Y-66616855D01*
X143582785Y-66616853D01*
X143425282Y-66437896D01*
X143395835Y-66414119D01*
X143239798Y-66288128D01*
X143239792Y-66288125D01*
X143239789Y-66288122D01*
X143239775Y-66288114D01*
X143239769Y-66288108D01*
X143235427Y-66285173D01*
X143236024Y-66284289D01*
X143190852Y-66238231D01*
X143176665Y-66169816D01*
X143201717Y-66104593D01*
X143230817Y-66077132D01*
X143335721Y-66006230D01*
X143507836Y-65841272D01*
X143649597Y-65649598D01*
X143756925Y-65436725D01*
X143826734Y-65208774D01*
X143857016Y-64972305D01*
X143846898Y-64734119D01*
X143831495Y-64662651D01*
X143796672Y-64501070D01*
X143782710Y-64466324D01*
X143707782Y-64279861D01*
X143582787Y-64076856D01*
X143425282Y-63897896D01*
X143239798Y-63748128D01*
X143125848Y-63684471D01*
X143031673Y-63631861D01*
X142806888Y-63552439D01*
X142571927Y-63512151D01*
X142571918Y-63512151D01*
X141893221Y-63512151D01*
X141893202Y-63512151D01*
X141715181Y-63527303D01*
X141484469Y-63587375D01*
X141267237Y-63685570D01*
X141267229Y-63685575D01*
X141069724Y-63819064D01*
X141069715Y-63819072D01*
X140946931Y-63936749D01*
X140884911Y-63968924D01*
X140815341Y-63962460D01*
X140773451Y-63934906D01*
X140751538Y-63912993D01*
X140565200Y-63782516D01*
X140359044Y-63686385D01*
X140359035Y-63686381D01*
X140139328Y-63627511D01*
X140139317Y-63627509D01*
X139969484Y-63612651D01*
X139912718Y-63612651D01*
X139912718Y-64477149D01*
X139805033Y-64427971D01*
X139698481Y-64412651D01*
X139626955Y-64412651D01*
X139520403Y-64427971D01*
X139412718Y-64477149D01*
X139412718Y-63612651D01*
X139355951Y-63612651D01*
X139186118Y-63627509D01*
X139186107Y-63627511D01*
X138966400Y-63686381D01*
X138966391Y-63686385D01*
X138760235Y-63782516D01*
X138573897Y-63912993D01*
X138413060Y-64073830D01*
X138282583Y-64260168D01*
X138186452Y-64466324D01*
X138186448Y-64466333D01*
X138133845Y-64662650D01*
X138133846Y-64662651D01*
X139229032Y-64662651D01*
X139203225Y-64702807D01*
X139162718Y-64840762D01*
X139162718Y-64984540D01*
X139203225Y-65122495D01*
X139229032Y-65162651D01*
X138133846Y-65162651D01*
X138186448Y-65358968D01*
X138186452Y-65358977D01*
X138282583Y-65565133D01*
X138413060Y-65751471D01*
X138573897Y-65912308D01*
X138729214Y-66021063D01*
X138772839Y-66075640D01*
X138780031Y-66145139D01*
X138748509Y-66207493D01*
X138727527Y-66225373D01*
X138529725Y-66359064D01*
X138529715Y-66359072D01*
X138357601Y-66524028D01*
X138336997Y-66551887D01*
X138281306Y-66594081D01*
X138237302Y-66602151D01*
X134148579Y-66602151D01*
X134081540Y-66582466D01*
X134035785Y-66529662D01*
X134025841Y-66460504D01*
X134054866Y-66396948D01*
X134060898Y-66390470D01*
X134666636Y-65784732D01*
X137838848Y-62612517D01*
X137900169Y-62579034D01*
X137962834Y-62581634D01*
X138133877Y-62634016D01*
X138370346Y-62664298D01*
X138608532Y-62654180D01*
X138841581Y-62603954D01*
X139062790Y-62515064D01*
X139265795Y-62390069D01*
X139444755Y-62232564D01*
X139594523Y-62047080D01*
X139594529Y-62047070D01*
X139597472Y-62042717D01*
X139598357Y-62043315D01*
X139644401Y-61998144D01*
X139712813Y-61983945D01*
X139778041Y-62008987D01*
X139805520Y-62038102D01*
X139876413Y-62142993D01*
X139876418Y-62142998D01*
X139876421Y-62143003D01*
X140041379Y-62315118D01*
X140233053Y-62456879D01*
X140445926Y-62564207D01*
X140673877Y-62634016D01*
X140910346Y-62664298D01*
X141148532Y-62654180D01*
X141381581Y-62603954D01*
X141602790Y-62515064D01*
X141805795Y-62390069D01*
X141984755Y-62232564D01*
X142134523Y-62047080D01*
X142134529Y-62047070D01*
X142137472Y-62042717D01*
X142138357Y-62043315D01*
X142184401Y-61998144D01*
X142252813Y-61983945D01*
X142318041Y-62008987D01*
G37*
%TD.AperFunction*%
%TD*%
M02*
