%TF.GenerationSoftware,KiCad,Pcbnew,7.0.5-7.0.5~ubuntu22.04.1*%
%TF.CreationDate,2023-06-27T09:13:02+02:00*%
%TF.ProjectId,Com_Nucleo-L432kc,436f6d5f-4e75-4636-9c65-6f2d4c343332,rev?*%
%TF.SameCoordinates,Original*%
%TF.FileFunction,Drillmap*%
%TF.FilePolarity,Positive*%
%FSLAX45Y45*%
G04 Gerber Fmt 4.5, Leading zero omitted, Abs format (unit mm)*
G04 Created by KiCad (PCBNEW 7.0.5-7.0.5~ubuntu22.04.1) date 2023-06-27 09:13:02*
%MOMM*%
%LPD*%
G01*
G04 APERTURE LIST*
%ADD10C,0.100000*%
%ADD11C,0.200000*%
%ADD12C,0.060000*%
%ADD13C,0.110000*%
%ADD14C,0.160000*%
%ADD15C,0.350000*%
G04 APERTURE END LIST*
D10*
X7375000Y-4305000D02*
X7375000Y-4655000D01*
X6375000Y-4305000D02*
X7375000Y-4305000D01*
X7375000Y-13155000D02*
X15375000Y-13155000D01*
X7375000Y-4655000D02*
X15375000Y-4655000D01*
X6375000Y-13505000D02*
X7375000Y-13505000D01*
X15375000Y-13155000D02*
X15375000Y-4655000D01*
X6375000Y-13505000D02*
X6375000Y-4305000D01*
X7375000Y-13155000D02*
X7375000Y-13505000D01*
D11*
D12*
X6557500Y-12410000D02*
X6617500Y-12470000D01*
X6617500Y-12410000D02*
X6557500Y-12470000D01*
X6861400Y-11143800D02*
X6921400Y-11203800D01*
X6921400Y-11143800D02*
X6861400Y-11203800D01*
X7030000Y-12732500D02*
X7090000Y-12792500D01*
X7090000Y-12732500D02*
X7030000Y-12792500D01*
X7352500Y-11660000D02*
X7412500Y-11720000D01*
X7412500Y-11660000D02*
X7352500Y-11720000D01*
X7407500Y-11410500D02*
X7467500Y-11470500D01*
X7467500Y-11410500D02*
X7407500Y-11470500D01*
X7572600Y-9721400D02*
X7632600Y-9781400D01*
X7632600Y-9721400D02*
X7572600Y-9781400D01*
X7737500Y-8095800D02*
X7797500Y-8155800D01*
X7797500Y-8095800D02*
X7737500Y-8155800D01*
X7930079Y-10114787D02*
X7990079Y-10174787D01*
X7990079Y-10114787D02*
X7930079Y-10174787D01*
X8550500Y-11601000D02*
X8610500Y-11661000D01*
X8610500Y-11601000D02*
X8550500Y-11661000D01*
X8741000Y-11855000D02*
X8801000Y-11915000D01*
X8801000Y-11855000D02*
X8741000Y-11915000D01*
X8931500Y-11982000D02*
X8991500Y-12042000D01*
X8991500Y-11982000D02*
X8931500Y-12042000D01*
X9579000Y-8857800D02*
X9639000Y-8917800D01*
X9639000Y-8857800D02*
X9579000Y-8917800D01*
X9630000Y-10712000D02*
X9690000Y-10772000D01*
X9690000Y-10712000D02*
X9630000Y-10772000D01*
X9693147Y-10331353D02*
X9753147Y-10391353D01*
X9753147Y-10331353D02*
X9693147Y-10391353D01*
X9693500Y-11537500D02*
X9753500Y-11597500D01*
X9753500Y-11537500D02*
X9693500Y-11597500D01*
X9769500Y-6635300D02*
X9829500Y-6695300D01*
X9829500Y-6635300D02*
X9769500Y-6695300D01*
X10057500Y-11085000D02*
X10117500Y-11145000D01*
X10117500Y-11085000D02*
X10057500Y-11145000D01*
X11115000Y-5777500D02*
X11175000Y-5837500D01*
X11175000Y-5777500D02*
X11115000Y-5837500D01*
X11316351Y-11405559D02*
X11376351Y-11465559D01*
X11376351Y-11405559D02*
X11316351Y-11465559D01*
X11390000Y-12035000D02*
X11450000Y-12095000D01*
X11450000Y-12035000D02*
X11390000Y-12095000D01*
X11560400Y-9797600D02*
X11620400Y-9857600D01*
X11620400Y-9797600D02*
X11560400Y-9857600D01*
X11725000Y-6655000D02*
X11785000Y-6715000D01*
X11785000Y-6655000D02*
X11725000Y-6715000D01*
X11794904Y-8592691D02*
X11854904Y-8652691D01*
X11854904Y-8592691D02*
X11794904Y-8652691D01*
X11801500Y-7399212D02*
X11861500Y-7459212D01*
X11861500Y-7399212D02*
X11801500Y-7459212D01*
X11814400Y-12941450D02*
X11874400Y-13001450D01*
X11874400Y-12941450D02*
X11814400Y-13001450D01*
X11916000Y-12299500D02*
X11976000Y-12359500D01*
X11976000Y-12299500D02*
X11916000Y-12359500D01*
X12055000Y-11455000D02*
X12115000Y-11515000D01*
X12115000Y-11455000D02*
X12055000Y-11515000D01*
X12055500Y-9302300D02*
X12115500Y-9362300D01*
X12115500Y-9302300D02*
X12055500Y-9362300D01*
X12197500Y-12092500D02*
X12257500Y-12152500D01*
X12257500Y-12092500D02*
X12197500Y-12152500D01*
X12208547Y-10369547D02*
X12268547Y-10429547D01*
X12268547Y-10369547D02*
X12208547Y-10429547D01*
X12429605Y-5584995D02*
X12489605Y-5644995D01*
X12489605Y-5584995D02*
X12429605Y-5644995D01*
X12436500Y-5375950D02*
X12496500Y-5435950D01*
X12496500Y-5375950D02*
X12436500Y-5435950D01*
X12487500Y-5884351D02*
X12547500Y-5944351D01*
X12547500Y-5884351D02*
X12487500Y-5944351D01*
X12505000Y-6215000D02*
X12565000Y-6275000D01*
X12565000Y-6215000D02*
X12505000Y-6275000D01*
X12647650Y-6517500D02*
X12707650Y-6577500D01*
X12707650Y-6517500D02*
X12647650Y-6577500D01*
X13197500Y-5885000D02*
X13257500Y-5945000D01*
X13257500Y-5885000D02*
X13197500Y-5945000D01*
X13335000Y-13027500D02*
X13395000Y-13087500D01*
X13395000Y-13027500D02*
X13335000Y-13087500D01*
X13382438Y-11145000D02*
X13442438Y-11205000D01*
X13442438Y-11145000D02*
X13382438Y-11205000D01*
X13467500Y-6952500D02*
X13527500Y-7012500D01*
X13527500Y-6952500D02*
X13467500Y-7012500D01*
X13510000Y-5780000D02*
X13570000Y-5840000D01*
X13570000Y-5780000D02*
X13510000Y-5840000D01*
X13579500Y-12695685D02*
X13639500Y-12755685D01*
X13639500Y-12695685D02*
X13579500Y-12755685D01*
X13637500Y-6480000D02*
X13697500Y-6540000D01*
X13697500Y-6480000D02*
X13637500Y-6540000D01*
X13643200Y-9670600D02*
X13703200Y-9730600D01*
X13703200Y-9670600D02*
X13643200Y-9730600D01*
X13643200Y-9860550D02*
X13703200Y-9920550D01*
X13703200Y-9860550D02*
X13643200Y-9920550D01*
X13867500Y-5762500D02*
X13927500Y-5822500D01*
X13927500Y-5762500D02*
X13867500Y-5822500D01*
X14580000Y-12867500D02*
X14640000Y-12927500D01*
X14640000Y-12867500D02*
X14580000Y-12927500D01*
X14735000Y-12102500D02*
X14795000Y-12162500D01*
X14795000Y-12102500D02*
X14735000Y-12162500D01*
X7823150Y-5534000D02*
G75*
G03*
X7823150Y-5534000I-30000J0D01*
G01*
X7823150Y-5734000D02*
G75*
G03*
X7823150Y-5734000I-30000J0D01*
G01*
X7823150Y-5934000D02*
G75*
G03*
X7823150Y-5934000I-30000J0D01*
G01*
X7823150Y-6134000D02*
G75*
G03*
X7823150Y-6134000I-30000J0D01*
G01*
X7988200Y-12850200D02*
G75*
G03*
X7988200Y-12850200I-30000J0D01*
G01*
X8242200Y-12850200D02*
G75*
G03*
X8242200Y-12850200I-30000J0D01*
G01*
X8496200Y-12850200D02*
G75*
G03*
X8496200Y-12850200I-30000J0D01*
G01*
X8750200Y-12850200D02*
G75*
G03*
X8750200Y-12850200I-30000J0D01*
G01*
X9330250Y-5527700D02*
G75*
G03*
X9330250Y-5527700I-30000J0D01*
G01*
X9330250Y-5727700D02*
G75*
G03*
X9330250Y-5727700I-30000J0D01*
G01*
X9330250Y-5927700D02*
G75*
G03*
X9330250Y-5927700I-30000J0D01*
G01*
X9330250Y-6127700D02*
G75*
G03*
X9330250Y-6127700I-30000J0D01*
G01*
X10579000Y-8759605D02*
G75*
G03*
X10579000Y-8759605I-30000J0D01*
G01*
X10579000Y-9013605D02*
G75*
G03*
X10579000Y-9013605I-30000J0D01*
G01*
X10579000Y-9267605D02*
G75*
G03*
X10579000Y-9267605I-30000J0D01*
G01*
X10579000Y-9521605D02*
G75*
G03*
X10579000Y-9521605I-30000J0D01*
G01*
X10579000Y-9775605D02*
G75*
G03*
X10579000Y-9775605I-30000J0D01*
G01*
X10579000Y-10029605D02*
G75*
G03*
X10579000Y-10029605I-30000J0D01*
G01*
X10579000Y-10283605D02*
G75*
G03*
X10579000Y-10283605I-30000J0D01*
G01*
X10579000Y-10537605D02*
G75*
G03*
X10579000Y-10537605I-30000J0D01*
G01*
X10579000Y-10791605D02*
G75*
G03*
X10579000Y-10791605I-30000J0D01*
G01*
X10579000Y-11045605D02*
G75*
G03*
X10579000Y-11045605I-30000J0D01*
G01*
X10579000Y-11299605D02*
G75*
G03*
X10579000Y-11299605I-30000J0D01*
G01*
X10579000Y-11553605D02*
G75*
G03*
X10579000Y-11553605I-30000J0D01*
G01*
X10579000Y-11807605D02*
G75*
G03*
X10579000Y-11807605I-30000J0D01*
G01*
X10579000Y-12061605D02*
G75*
G03*
X10579000Y-12061605I-30000J0D01*
G01*
X10579000Y-12315605D02*
G75*
G03*
X10579000Y-12315605I-30000J0D01*
G01*
X10825000Y-5527700D02*
G75*
G03*
X10825000Y-5527700I-30000J0D01*
G01*
X10825000Y-5727700D02*
G75*
G03*
X10825000Y-5727700I-30000J0D01*
G01*
X10825000Y-5927700D02*
G75*
G03*
X10825000Y-5927700I-30000J0D01*
G01*
X10825000Y-6127700D02*
G75*
G03*
X10825000Y-6127700I-30000J0D01*
G01*
X11036000Y-8760800D02*
G75*
G03*
X11036000Y-8760800I-30000J0D01*
G01*
X11036000Y-9014800D02*
G75*
G03*
X11036000Y-9014800I-30000J0D01*
G01*
X11036000Y-9268800D02*
G75*
G03*
X11036000Y-9268800I-30000J0D01*
G01*
X11036000Y-9522800D02*
G75*
G03*
X11036000Y-9522800I-30000J0D01*
G01*
X11036000Y-9776800D02*
G75*
G03*
X11036000Y-9776800I-30000J0D01*
G01*
X11036000Y-10030800D02*
G75*
G03*
X11036000Y-10030800I-30000J0D01*
G01*
X11036000Y-10284800D02*
G75*
G03*
X11036000Y-10284800I-30000J0D01*
G01*
X11036000Y-10538800D02*
G75*
G03*
X11036000Y-10538800I-30000J0D01*
G01*
X11036000Y-10792800D02*
G75*
G03*
X11036000Y-10792800I-30000J0D01*
G01*
X11036000Y-11046800D02*
G75*
G03*
X11036000Y-11046800I-30000J0D01*
G01*
X11036000Y-11300800D02*
G75*
G03*
X11036000Y-11300800I-30000J0D01*
G01*
X11036000Y-11554800D02*
G75*
G03*
X11036000Y-11554800I-30000J0D01*
G01*
X11036000Y-11808800D02*
G75*
G03*
X11036000Y-11808800I-30000J0D01*
G01*
X11036000Y-12062800D02*
G75*
G03*
X11036000Y-12062800I-30000J0D01*
G01*
X11036000Y-12316800D02*
G75*
G03*
X11036000Y-12316800I-30000J0D01*
G01*
X12560000Y-8760800D02*
G75*
G03*
X12560000Y-8760800I-30000J0D01*
G01*
X12560000Y-9014800D02*
G75*
G03*
X12560000Y-9014800I-30000J0D01*
G01*
X12560000Y-9268800D02*
G75*
G03*
X12560000Y-9268800I-30000J0D01*
G01*
X12560000Y-9522800D02*
G75*
G03*
X12560000Y-9522800I-30000J0D01*
G01*
X12560000Y-9776800D02*
G75*
G03*
X12560000Y-9776800I-30000J0D01*
G01*
X12560000Y-10030800D02*
G75*
G03*
X12560000Y-10030800I-30000J0D01*
G01*
X12560000Y-10284800D02*
G75*
G03*
X12560000Y-10284800I-30000J0D01*
G01*
X12560000Y-10538800D02*
G75*
G03*
X12560000Y-10538800I-30000J0D01*
G01*
X12560000Y-10792800D02*
G75*
G03*
X12560000Y-10792800I-30000J0D01*
G01*
X12560000Y-11046800D02*
G75*
G03*
X12560000Y-11046800I-30000J0D01*
G01*
X12560000Y-11300800D02*
G75*
G03*
X12560000Y-11300800I-30000J0D01*
G01*
X12560000Y-11554800D02*
G75*
G03*
X12560000Y-11554800I-30000J0D01*
G01*
X12560000Y-11808800D02*
G75*
G03*
X12560000Y-11808800I-30000J0D01*
G01*
X12560000Y-12062800D02*
G75*
G03*
X12560000Y-12062800I-30000J0D01*
G01*
X12560000Y-12316800D02*
G75*
G03*
X12560000Y-12316800I-30000J0D01*
G01*
X12992000Y-8760800D02*
G75*
G03*
X12992000Y-8760800I-30000J0D01*
G01*
X12992000Y-9014800D02*
G75*
G03*
X12992000Y-9014800I-30000J0D01*
G01*
X12992000Y-9268800D02*
G75*
G03*
X12992000Y-9268800I-30000J0D01*
G01*
X12992000Y-9522800D02*
G75*
G03*
X12992000Y-9522800I-30000J0D01*
G01*
X12992000Y-9776800D02*
G75*
G03*
X12992000Y-9776800I-30000J0D01*
G01*
X12992000Y-10030800D02*
G75*
G03*
X12992000Y-10030800I-30000J0D01*
G01*
X12992000Y-10284800D02*
G75*
G03*
X12992000Y-10284800I-30000J0D01*
G01*
X12992000Y-10538800D02*
G75*
G03*
X12992000Y-10538800I-30000J0D01*
G01*
X12992000Y-10792800D02*
G75*
G03*
X12992000Y-10792800I-30000J0D01*
G01*
X12992000Y-11046800D02*
G75*
G03*
X12992000Y-11046800I-30000J0D01*
G01*
X12992000Y-11300800D02*
G75*
G03*
X12992000Y-11300800I-30000J0D01*
G01*
X12992000Y-11554800D02*
G75*
G03*
X12992000Y-11554800I-30000J0D01*
G01*
X12992000Y-11808800D02*
G75*
G03*
X12992000Y-11808800I-30000J0D01*
G01*
X12992000Y-12062800D02*
G75*
G03*
X12992000Y-12062800I-30000J0D01*
G01*
X12992000Y-12316800D02*
G75*
G03*
X12992000Y-12316800I-30000J0D01*
G01*
X13390000Y-7432500D02*
G75*
G03*
X13390000Y-7432500I-30000J0D01*
G01*
X13390000Y-7686500D02*
G75*
G03*
X13390000Y-7686500I-30000J0D01*
G01*
X14993500Y-12127500D02*
G75*
G03*
X14993500Y-12127500I-30000J0D01*
G01*
X15247500Y-12127500D02*
G75*
G03*
X15247500Y-12127500I-30000J0D01*
G01*
D10*
X7116700Y-10226500D02*
X7116700Y-10326500D01*
X7066700Y-10276500D02*
X7166700Y-10276500D01*
X7116700Y-10480500D02*
X7116700Y-10580500D01*
X7066700Y-10530500D02*
X7166700Y-10530500D01*
X7116700Y-10734500D02*
X7116700Y-10834500D01*
X7066700Y-10784500D02*
X7166700Y-10784500D01*
X7116700Y-10988500D02*
X7116700Y-11088500D01*
X7066700Y-11038500D02*
X7166700Y-11038500D01*
X7116700Y-11242500D02*
X7116700Y-11342500D01*
X7066700Y-11292500D02*
X7166700Y-11292500D01*
X7116700Y-11496500D02*
X7116700Y-11596500D01*
X7066700Y-11546500D02*
X7166700Y-11546500D01*
X7116700Y-11750500D02*
X7116700Y-11850500D01*
X7066700Y-11800500D02*
X7166700Y-11800500D01*
X7116700Y-12004500D02*
X7116700Y-12104500D01*
X7066700Y-12054500D02*
X7166700Y-12054500D01*
X9402700Y-10226500D02*
X9402700Y-10326500D01*
X9352700Y-10276500D02*
X9452700Y-10276500D01*
X9402700Y-10480500D02*
X9402700Y-10580500D01*
X9352700Y-10530500D02*
X9452700Y-10530500D01*
X9402700Y-10734500D02*
X9402700Y-10834500D01*
X9352700Y-10784500D02*
X9452700Y-10784500D01*
X9402700Y-10988500D02*
X9402700Y-11088500D01*
X9352700Y-11038500D02*
X9452700Y-11038500D01*
X9402700Y-11242500D02*
X9402700Y-11342500D01*
X9352700Y-11292500D02*
X9452700Y-11292500D01*
X9402700Y-11496500D02*
X9402700Y-11596500D01*
X9352700Y-11546500D02*
X9452700Y-11546500D01*
X9402700Y-11750500D02*
X9402700Y-11850500D01*
X9352700Y-11800500D02*
X9452700Y-11800500D01*
X9402700Y-12004500D02*
X9402700Y-12104500D01*
X9352700Y-12054500D02*
X9452700Y-12054500D01*
X13589000Y-5284000D02*
X13589000Y-5384000D01*
X13539000Y-5334000D02*
X13639000Y-5334000D01*
X13589000Y-6046000D02*
X13589000Y-6146000D01*
X13539000Y-6096000D02*
X13639000Y-6096000D01*
X13843000Y-5284000D02*
X13843000Y-5384000D01*
X13793000Y-5334000D02*
X13893000Y-5334000D01*
X13843000Y-6046000D02*
X13843000Y-6146000D01*
X13793000Y-6096000D02*
X13893000Y-6096000D01*
X13966272Y-6441265D02*
X13966272Y-6541265D01*
X13916272Y-6491265D02*
X14016272Y-6491265D01*
X13966272Y-6695265D02*
X13966272Y-6795265D01*
X13916272Y-6745265D02*
X14016272Y-6745265D01*
X13966272Y-6949265D02*
X13966272Y-7049265D01*
X13916272Y-6999265D02*
X14016272Y-6999265D01*
X13966272Y-7203265D02*
X13966272Y-7303265D01*
X13916272Y-7253265D02*
X14016272Y-7253265D01*
X13966272Y-7457265D02*
X13966272Y-7557265D01*
X13916272Y-7507265D02*
X14016272Y-7507265D01*
X13966272Y-7711265D02*
X13966272Y-7811265D01*
X13916272Y-7761265D02*
X14016272Y-7761265D01*
X13966272Y-7965265D02*
X13966272Y-8065265D01*
X13916272Y-8015265D02*
X14016272Y-8015265D01*
X13966272Y-8219265D02*
X13966272Y-8319265D01*
X13916272Y-8269265D02*
X14016272Y-8269265D01*
X13966272Y-8473265D02*
X13966272Y-8573265D01*
X13916272Y-8523265D02*
X14016272Y-8523265D01*
X13966272Y-8727265D02*
X13966272Y-8827265D01*
X13916272Y-8777265D02*
X14016272Y-8777265D01*
X13966272Y-8981265D02*
X13966272Y-9081265D01*
X13916272Y-9031265D02*
X14016272Y-9031265D01*
X13966272Y-9235265D02*
X13966272Y-9335265D01*
X13916272Y-9285265D02*
X14016272Y-9285265D01*
X13966272Y-9489265D02*
X13966272Y-9589265D01*
X13916272Y-9539265D02*
X14016272Y-9539265D01*
X13966272Y-9743265D02*
X13966272Y-9843265D01*
X13916272Y-9793265D02*
X14016272Y-9793265D01*
X13966272Y-9997265D02*
X13966272Y-10097265D01*
X13916272Y-10047265D02*
X14016272Y-10047265D01*
X13966272Y-10251265D02*
X13966272Y-10351265D01*
X13916272Y-10301265D02*
X14016272Y-10301265D01*
X13966272Y-10505265D02*
X13966272Y-10605265D01*
X13916272Y-10555265D02*
X14016272Y-10555265D01*
X13966272Y-10759265D02*
X13966272Y-10859265D01*
X13916272Y-10809265D02*
X14016272Y-10809265D01*
X13966272Y-11013265D02*
X13966272Y-11113265D01*
X13916272Y-11063265D02*
X14016272Y-11063265D01*
X13966272Y-11267265D02*
X13966272Y-11367265D01*
X13916272Y-11317265D02*
X14016272Y-11317265D01*
X14097000Y-5284000D02*
X14097000Y-5384000D01*
X14047000Y-5334000D02*
X14147000Y-5334000D01*
X14097000Y-6046000D02*
X14097000Y-6146000D01*
X14047000Y-6096000D02*
X14147000Y-6096000D01*
X14220272Y-6441265D02*
X14220272Y-6541265D01*
X14170272Y-6491265D02*
X14270272Y-6491265D01*
X14220272Y-6695265D02*
X14220272Y-6795265D01*
X14170272Y-6745265D02*
X14270272Y-6745265D01*
X14220272Y-6949265D02*
X14220272Y-7049265D01*
X14170272Y-6999265D02*
X14270272Y-6999265D01*
X14220272Y-7203265D02*
X14220272Y-7303265D01*
X14170272Y-7253265D02*
X14270272Y-7253265D01*
X14220272Y-7457265D02*
X14220272Y-7557265D01*
X14170272Y-7507265D02*
X14270272Y-7507265D01*
X14220272Y-7711265D02*
X14220272Y-7811265D01*
X14170272Y-7761265D02*
X14270272Y-7761265D01*
X14220272Y-7965265D02*
X14220272Y-8065265D01*
X14170272Y-8015265D02*
X14270272Y-8015265D01*
X14220272Y-8219265D02*
X14220272Y-8319265D01*
X14170272Y-8269265D02*
X14270272Y-8269265D01*
X14220272Y-8473265D02*
X14220272Y-8573265D01*
X14170272Y-8523265D02*
X14270272Y-8523265D01*
X14220272Y-8727265D02*
X14220272Y-8827265D01*
X14170272Y-8777265D02*
X14270272Y-8777265D01*
X14220272Y-8981265D02*
X14220272Y-9081265D01*
X14170272Y-9031265D02*
X14270272Y-9031265D01*
X14220272Y-9235265D02*
X14220272Y-9335265D01*
X14170272Y-9285265D02*
X14270272Y-9285265D01*
X14220272Y-9489265D02*
X14220272Y-9589265D01*
X14170272Y-9539265D02*
X14270272Y-9539265D01*
X14220272Y-9743265D02*
X14220272Y-9843265D01*
X14170272Y-9793265D02*
X14270272Y-9793265D01*
X14220272Y-9997265D02*
X14220272Y-10097265D01*
X14170272Y-10047265D02*
X14270272Y-10047265D01*
X14220272Y-10251265D02*
X14220272Y-10351265D01*
X14170272Y-10301265D02*
X14270272Y-10301265D01*
X14220272Y-10505265D02*
X14220272Y-10605265D01*
X14170272Y-10555265D02*
X14270272Y-10555265D01*
X14220272Y-10759265D02*
X14220272Y-10859265D01*
X14170272Y-10809265D02*
X14270272Y-10809265D01*
X14220272Y-11013265D02*
X14220272Y-11113265D01*
X14170272Y-11063265D02*
X14270272Y-11063265D01*
X14220272Y-11267265D02*
X14220272Y-11367265D01*
X14170272Y-11317265D02*
X14270272Y-11317265D01*
X14351000Y-5284000D02*
X14351000Y-5384000D01*
X14301000Y-5334000D02*
X14401000Y-5334000D01*
X14351000Y-6046000D02*
X14351000Y-6146000D01*
X14301000Y-6096000D02*
X14401000Y-6096000D01*
X14605000Y-5284000D02*
X14605000Y-5384000D01*
X14555000Y-5334000D02*
X14655000Y-5334000D01*
X14605000Y-6046000D02*
X14605000Y-6146000D01*
X14555000Y-6096000D02*
X14655000Y-6096000D01*
X14859000Y-5284000D02*
X14859000Y-5384000D01*
X14809000Y-5334000D02*
X14909000Y-5334000D01*
X14859000Y-6046000D02*
X14859000Y-6146000D01*
X14809000Y-6096000D02*
X14909000Y-6096000D01*
X15113000Y-5284000D02*
X15113000Y-5384000D01*
X15063000Y-5334000D02*
X15163000Y-5334000D01*
X15113000Y-6046000D02*
X15113000Y-6146000D01*
X15063000Y-6096000D02*
X15163000Y-6096000D01*
D13*
X12619891Y-5149391D02*
X12619891Y-5071609D01*
X12542109Y-5071609D01*
X12542109Y-5149391D01*
X12619891Y-5149391D01*
D14*
X12581000Y-7690500D02*
X12661000Y-7610500D01*
X12581000Y-7530500D01*
X12501000Y-7610500D01*
X12581000Y-7690500D01*
D15*
X7093925Y-4929154D02*
X7443925Y-5279154D01*
X7443925Y-4929154D02*
X7093925Y-5279154D01*
X7443925Y-5104154D02*
G75*
G03*
X7443925Y-5104154I-175000J0D01*
G01*
X7093925Y-7421154D02*
X7443925Y-7771154D01*
X7443925Y-7421154D02*
X7093925Y-7771154D01*
X7443925Y-7596154D02*
G75*
G03*
X7443925Y-7596154I-175000J0D01*
G01*
D11*
X6630777Y-13821484D02*
X6630777Y-13621484D01*
X6630777Y-13621484D02*
X6678396Y-13621484D01*
X6678396Y-13621484D02*
X6706967Y-13631008D01*
X6706967Y-13631008D02*
X6726015Y-13650055D01*
X6726015Y-13650055D02*
X6735539Y-13669103D01*
X6735539Y-13669103D02*
X6745062Y-13707198D01*
X6745062Y-13707198D02*
X6745062Y-13735769D01*
X6745062Y-13735769D02*
X6735539Y-13773865D01*
X6735539Y-13773865D02*
X6726015Y-13792912D01*
X6726015Y-13792912D02*
X6706967Y-13811960D01*
X6706967Y-13811960D02*
X6678396Y-13821484D01*
X6678396Y-13821484D02*
X6630777Y-13821484D01*
X6830777Y-13821484D02*
X6830777Y-13688150D01*
X6830777Y-13726246D02*
X6840301Y-13707198D01*
X6840301Y-13707198D02*
X6849824Y-13697674D01*
X6849824Y-13697674D02*
X6868872Y-13688150D01*
X6868872Y-13688150D02*
X6887920Y-13688150D01*
X6954586Y-13821484D02*
X6954586Y-13688150D01*
X6954586Y-13621484D02*
X6945062Y-13631008D01*
X6945062Y-13631008D02*
X6954586Y-13640531D01*
X6954586Y-13640531D02*
X6964110Y-13631008D01*
X6964110Y-13631008D02*
X6954586Y-13621484D01*
X6954586Y-13621484D02*
X6954586Y-13640531D01*
X7078396Y-13821484D02*
X7059348Y-13811960D01*
X7059348Y-13811960D02*
X7049824Y-13792912D01*
X7049824Y-13792912D02*
X7049824Y-13621484D01*
X7183158Y-13821484D02*
X7164110Y-13811960D01*
X7164110Y-13811960D02*
X7154586Y-13792912D01*
X7154586Y-13792912D02*
X7154586Y-13621484D01*
X7411729Y-13821484D02*
X7411729Y-13621484D01*
X7411729Y-13621484D02*
X7478396Y-13764341D01*
X7478396Y-13764341D02*
X7545062Y-13621484D01*
X7545062Y-13621484D02*
X7545062Y-13821484D01*
X7726015Y-13821484D02*
X7726015Y-13716722D01*
X7726015Y-13716722D02*
X7716491Y-13697674D01*
X7716491Y-13697674D02*
X7697443Y-13688150D01*
X7697443Y-13688150D02*
X7659348Y-13688150D01*
X7659348Y-13688150D02*
X7640301Y-13697674D01*
X7726015Y-13811960D02*
X7706967Y-13821484D01*
X7706967Y-13821484D02*
X7659348Y-13821484D01*
X7659348Y-13821484D02*
X7640301Y-13811960D01*
X7640301Y-13811960D02*
X7630777Y-13792912D01*
X7630777Y-13792912D02*
X7630777Y-13773865D01*
X7630777Y-13773865D02*
X7640301Y-13754817D01*
X7640301Y-13754817D02*
X7659348Y-13745293D01*
X7659348Y-13745293D02*
X7706967Y-13745293D01*
X7706967Y-13745293D02*
X7726015Y-13735769D01*
X7821253Y-13688150D02*
X7821253Y-13888150D01*
X7821253Y-13697674D02*
X7840301Y-13688150D01*
X7840301Y-13688150D02*
X7878396Y-13688150D01*
X7878396Y-13688150D02*
X7897443Y-13697674D01*
X7897443Y-13697674D02*
X7906967Y-13707198D01*
X7906967Y-13707198D02*
X7916491Y-13726246D01*
X7916491Y-13726246D02*
X7916491Y-13783388D01*
X7916491Y-13783388D02*
X7906967Y-13802436D01*
X7906967Y-13802436D02*
X7897443Y-13811960D01*
X7897443Y-13811960D02*
X7878396Y-13821484D01*
X7878396Y-13821484D02*
X7840301Y-13821484D01*
X7840301Y-13821484D02*
X7821253Y-13811960D01*
X8002205Y-13802436D02*
X8011729Y-13811960D01*
X8011729Y-13811960D02*
X8002205Y-13821484D01*
X8002205Y-13821484D02*
X7992682Y-13811960D01*
X7992682Y-13811960D02*
X8002205Y-13802436D01*
X8002205Y-13802436D02*
X8002205Y-13821484D01*
X8002205Y-13697674D02*
X8011729Y-13707198D01*
X8011729Y-13707198D02*
X8002205Y-13716722D01*
X8002205Y-13716722D02*
X7992682Y-13707198D01*
X7992682Y-13707198D02*
X8002205Y-13697674D01*
X8002205Y-13697674D02*
X8002205Y-13716722D01*
D12*
X6310000Y-14120000D02*
X6370000Y-14180000D01*
X6370000Y-14120000D02*
X6310000Y-14180000D01*
D11*
X6668872Y-14041484D02*
X6687920Y-14041484D01*
X6687920Y-14041484D02*
X6706967Y-14051008D01*
X6706967Y-14051008D02*
X6716491Y-14060531D01*
X6716491Y-14060531D02*
X6726015Y-14079579D01*
X6726015Y-14079579D02*
X6735539Y-14117674D01*
X6735539Y-14117674D02*
X6735539Y-14165293D01*
X6735539Y-14165293D02*
X6726015Y-14203388D01*
X6726015Y-14203388D02*
X6716491Y-14222436D01*
X6716491Y-14222436D02*
X6706967Y-14231960D01*
X6706967Y-14231960D02*
X6687920Y-14241484D01*
X6687920Y-14241484D02*
X6668872Y-14241484D01*
X6668872Y-14241484D02*
X6649824Y-14231960D01*
X6649824Y-14231960D02*
X6640301Y-14222436D01*
X6640301Y-14222436D02*
X6630777Y-14203388D01*
X6630777Y-14203388D02*
X6621253Y-14165293D01*
X6621253Y-14165293D02*
X6621253Y-14117674D01*
X6621253Y-14117674D02*
X6630777Y-14079579D01*
X6630777Y-14079579D02*
X6640301Y-14060531D01*
X6640301Y-14060531D02*
X6649824Y-14051008D01*
X6649824Y-14051008D02*
X6668872Y-14041484D01*
X6821253Y-14222436D02*
X6830777Y-14231960D01*
X6830777Y-14231960D02*
X6821253Y-14241484D01*
X6821253Y-14241484D02*
X6811729Y-14231960D01*
X6811729Y-14231960D02*
X6821253Y-14222436D01*
X6821253Y-14222436D02*
X6821253Y-14241484D01*
X7002205Y-14041484D02*
X6964110Y-14041484D01*
X6964110Y-14041484D02*
X6945062Y-14051008D01*
X6945062Y-14051008D02*
X6935539Y-14060531D01*
X6935539Y-14060531D02*
X6916491Y-14089103D01*
X6916491Y-14089103D02*
X6906967Y-14127198D01*
X6906967Y-14127198D02*
X6906967Y-14203388D01*
X6906967Y-14203388D02*
X6916491Y-14222436D01*
X6916491Y-14222436D02*
X6926015Y-14231960D01*
X6926015Y-14231960D02*
X6945062Y-14241484D01*
X6945062Y-14241484D02*
X6983158Y-14241484D01*
X6983158Y-14241484D02*
X7002205Y-14231960D01*
X7002205Y-14231960D02*
X7011729Y-14222436D01*
X7011729Y-14222436D02*
X7021253Y-14203388D01*
X7021253Y-14203388D02*
X7021253Y-14155769D01*
X7021253Y-14155769D02*
X7011729Y-14136722D01*
X7011729Y-14136722D02*
X7002205Y-14127198D01*
X7002205Y-14127198D02*
X6983158Y-14117674D01*
X6983158Y-14117674D02*
X6945062Y-14117674D01*
X6945062Y-14117674D02*
X6926015Y-14127198D01*
X6926015Y-14127198D02*
X6916491Y-14136722D01*
X6916491Y-14136722D02*
X6906967Y-14155769D01*
X7145062Y-14041484D02*
X7164110Y-14041484D01*
X7164110Y-14041484D02*
X7183158Y-14051008D01*
X7183158Y-14051008D02*
X7192682Y-14060531D01*
X7192682Y-14060531D02*
X7202205Y-14079579D01*
X7202205Y-14079579D02*
X7211729Y-14117674D01*
X7211729Y-14117674D02*
X7211729Y-14165293D01*
X7211729Y-14165293D02*
X7202205Y-14203388D01*
X7202205Y-14203388D02*
X7192682Y-14222436D01*
X7192682Y-14222436D02*
X7183158Y-14231960D01*
X7183158Y-14231960D02*
X7164110Y-14241484D01*
X7164110Y-14241484D02*
X7145062Y-14241484D01*
X7145062Y-14241484D02*
X7126015Y-14231960D01*
X7126015Y-14231960D02*
X7116491Y-14222436D01*
X7116491Y-14222436D02*
X7106967Y-14203388D01*
X7106967Y-14203388D02*
X7097443Y-14165293D01*
X7097443Y-14165293D02*
X7097443Y-14117674D01*
X7097443Y-14117674D02*
X7106967Y-14079579D01*
X7106967Y-14079579D02*
X7116491Y-14060531D01*
X7116491Y-14060531D02*
X7126015Y-14051008D01*
X7126015Y-14051008D02*
X7145062Y-14041484D01*
X7335539Y-14041484D02*
X7354586Y-14041484D01*
X7354586Y-14041484D02*
X7373634Y-14051008D01*
X7373634Y-14051008D02*
X7383158Y-14060531D01*
X7383158Y-14060531D02*
X7392682Y-14079579D01*
X7392682Y-14079579D02*
X7402205Y-14117674D01*
X7402205Y-14117674D02*
X7402205Y-14165293D01*
X7402205Y-14165293D02*
X7392682Y-14203388D01*
X7392682Y-14203388D02*
X7383158Y-14222436D01*
X7383158Y-14222436D02*
X7373634Y-14231960D01*
X7373634Y-14231960D02*
X7354586Y-14241484D01*
X7354586Y-14241484D02*
X7335539Y-14241484D01*
X7335539Y-14241484D02*
X7316491Y-14231960D01*
X7316491Y-14231960D02*
X7306967Y-14222436D01*
X7306967Y-14222436D02*
X7297443Y-14203388D01*
X7297443Y-14203388D02*
X7287920Y-14165293D01*
X7287920Y-14165293D02*
X7287920Y-14117674D01*
X7287920Y-14117674D02*
X7297443Y-14079579D01*
X7297443Y-14079579D02*
X7306967Y-14060531D01*
X7306967Y-14060531D02*
X7316491Y-14051008D01*
X7316491Y-14051008D02*
X7335539Y-14041484D01*
X7487920Y-14241484D02*
X7487920Y-14108150D01*
X7487920Y-14127198D02*
X7497443Y-14117674D01*
X7497443Y-14117674D02*
X7516491Y-14108150D01*
X7516491Y-14108150D02*
X7545063Y-14108150D01*
X7545063Y-14108150D02*
X7564110Y-14117674D01*
X7564110Y-14117674D02*
X7573634Y-14136722D01*
X7573634Y-14136722D02*
X7573634Y-14241484D01*
X7573634Y-14136722D02*
X7583158Y-14117674D01*
X7583158Y-14117674D02*
X7602205Y-14108150D01*
X7602205Y-14108150D02*
X7630777Y-14108150D01*
X7630777Y-14108150D02*
X7649824Y-14117674D01*
X7649824Y-14117674D02*
X7659348Y-14136722D01*
X7659348Y-14136722D02*
X7659348Y-14241484D01*
X7754586Y-14241484D02*
X7754586Y-14108150D01*
X7754586Y-14127198D02*
X7764110Y-14117674D01*
X7764110Y-14117674D02*
X7783158Y-14108150D01*
X7783158Y-14108150D02*
X7811729Y-14108150D01*
X7811729Y-14108150D02*
X7830777Y-14117674D01*
X7830777Y-14117674D02*
X7840301Y-14136722D01*
X7840301Y-14136722D02*
X7840301Y-14241484D01*
X7840301Y-14136722D02*
X7849824Y-14117674D01*
X7849824Y-14117674D02*
X7868872Y-14108150D01*
X7868872Y-14108150D02*
X7897443Y-14108150D01*
X7897443Y-14108150D02*
X7916491Y-14117674D01*
X7916491Y-14117674D02*
X7926015Y-14136722D01*
X7926015Y-14136722D02*
X7926015Y-14241484D01*
X8316491Y-14031960D02*
X8145063Y-14289103D01*
X8573634Y-14041484D02*
X8592682Y-14041484D01*
X8592682Y-14041484D02*
X8611729Y-14051008D01*
X8611729Y-14051008D02*
X8621253Y-14060531D01*
X8621253Y-14060531D02*
X8630777Y-14079579D01*
X8630777Y-14079579D02*
X8640301Y-14117674D01*
X8640301Y-14117674D02*
X8640301Y-14165293D01*
X8640301Y-14165293D02*
X8630777Y-14203388D01*
X8630777Y-14203388D02*
X8621253Y-14222436D01*
X8621253Y-14222436D02*
X8611729Y-14231960D01*
X8611729Y-14231960D02*
X8592682Y-14241484D01*
X8592682Y-14241484D02*
X8573634Y-14241484D01*
X8573634Y-14241484D02*
X8554587Y-14231960D01*
X8554587Y-14231960D02*
X8545063Y-14222436D01*
X8545063Y-14222436D02*
X8535539Y-14203388D01*
X8535539Y-14203388D02*
X8526015Y-14165293D01*
X8526015Y-14165293D02*
X8526015Y-14117674D01*
X8526015Y-14117674D02*
X8535539Y-14079579D01*
X8535539Y-14079579D02*
X8545063Y-14060531D01*
X8545063Y-14060531D02*
X8554587Y-14051008D01*
X8554587Y-14051008D02*
X8573634Y-14041484D01*
X8726015Y-14222436D02*
X8735539Y-14231960D01*
X8735539Y-14231960D02*
X8726015Y-14241484D01*
X8726015Y-14241484D02*
X8716491Y-14231960D01*
X8716491Y-14231960D02*
X8726015Y-14222436D01*
X8726015Y-14222436D02*
X8726015Y-14241484D01*
X8859348Y-14041484D02*
X8878396Y-14041484D01*
X8878396Y-14041484D02*
X8897444Y-14051008D01*
X8897444Y-14051008D02*
X8906968Y-14060531D01*
X8906968Y-14060531D02*
X8916491Y-14079579D01*
X8916491Y-14079579D02*
X8926015Y-14117674D01*
X8926015Y-14117674D02*
X8926015Y-14165293D01*
X8926015Y-14165293D02*
X8916491Y-14203388D01*
X8916491Y-14203388D02*
X8906968Y-14222436D01*
X8906968Y-14222436D02*
X8897444Y-14231960D01*
X8897444Y-14231960D02*
X8878396Y-14241484D01*
X8878396Y-14241484D02*
X8859348Y-14241484D01*
X8859348Y-14241484D02*
X8840301Y-14231960D01*
X8840301Y-14231960D02*
X8830777Y-14222436D01*
X8830777Y-14222436D02*
X8821253Y-14203388D01*
X8821253Y-14203388D02*
X8811729Y-14165293D01*
X8811729Y-14165293D02*
X8811729Y-14117674D01*
X8811729Y-14117674D02*
X8821253Y-14079579D01*
X8821253Y-14079579D02*
X8830777Y-14060531D01*
X8830777Y-14060531D02*
X8840301Y-14051008D01*
X8840301Y-14051008D02*
X8859348Y-14041484D01*
X9002206Y-14060531D02*
X9011729Y-14051008D01*
X9011729Y-14051008D02*
X9030777Y-14041484D01*
X9030777Y-14041484D02*
X9078396Y-14041484D01*
X9078396Y-14041484D02*
X9097444Y-14051008D01*
X9097444Y-14051008D02*
X9106968Y-14060531D01*
X9106968Y-14060531D02*
X9116491Y-14079579D01*
X9116491Y-14079579D02*
X9116491Y-14098627D01*
X9116491Y-14098627D02*
X9106968Y-14127198D01*
X9106968Y-14127198D02*
X8992682Y-14241484D01*
X8992682Y-14241484D02*
X9116491Y-14241484D01*
X9183158Y-14041484D02*
X9306968Y-14041484D01*
X9306968Y-14041484D02*
X9240301Y-14117674D01*
X9240301Y-14117674D02*
X9268872Y-14117674D01*
X9268872Y-14117674D02*
X9287920Y-14127198D01*
X9287920Y-14127198D02*
X9297444Y-14136722D01*
X9297444Y-14136722D02*
X9306968Y-14155769D01*
X9306968Y-14155769D02*
X9306968Y-14203388D01*
X9306968Y-14203388D02*
X9297444Y-14222436D01*
X9297444Y-14222436D02*
X9287920Y-14231960D01*
X9287920Y-14231960D02*
X9268872Y-14241484D01*
X9268872Y-14241484D02*
X9211729Y-14241484D01*
X9211729Y-14241484D02*
X9192682Y-14231960D01*
X9192682Y-14231960D02*
X9183158Y-14222436D01*
X9478396Y-14041484D02*
X9440301Y-14041484D01*
X9440301Y-14041484D02*
X9421253Y-14051008D01*
X9421253Y-14051008D02*
X9411729Y-14060531D01*
X9411729Y-14060531D02*
X9392682Y-14089103D01*
X9392682Y-14089103D02*
X9383158Y-14127198D01*
X9383158Y-14127198D02*
X9383158Y-14203388D01*
X9383158Y-14203388D02*
X9392682Y-14222436D01*
X9392682Y-14222436D02*
X9402206Y-14231960D01*
X9402206Y-14231960D02*
X9421253Y-14241484D01*
X9421253Y-14241484D02*
X9459349Y-14241484D01*
X9459349Y-14241484D02*
X9478396Y-14231960D01*
X9478396Y-14231960D02*
X9487920Y-14222436D01*
X9487920Y-14222436D02*
X9497444Y-14203388D01*
X9497444Y-14203388D02*
X9497444Y-14155769D01*
X9497444Y-14155769D02*
X9487920Y-14136722D01*
X9487920Y-14136722D02*
X9478396Y-14127198D01*
X9478396Y-14127198D02*
X9459349Y-14117674D01*
X9459349Y-14117674D02*
X9421253Y-14117674D01*
X9421253Y-14117674D02*
X9402206Y-14127198D01*
X9402206Y-14127198D02*
X9392682Y-14136722D01*
X9392682Y-14136722D02*
X9383158Y-14155769D01*
X9573634Y-14041484D02*
X9573634Y-14079579D01*
X9649825Y-14041484D02*
X9649825Y-14079579D01*
X9945063Y-14317674D02*
X9935539Y-14308150D01*
X9935539Y-14308150D02*
X9916491Y-14279579D01*
X9916491Y-14279579D02*
X9906968Y-14260531D01*
X9906968Y-14260531D02*
X9897444Y-14231960D01*
X9897444Y-14231960D02*
X9887920Y-14184341D01*
X9887920Y-14184341D02*
X9887920Y-14146246D01*
X9887920Y-14146246D02*
X9897444Y-14098627D01*
X9897444Y-14098627D02*
X9906968Y-14070055D01*
X9906968Y-14070055D02*
X9916491Y-14051008D01*
X9916491Y-14051008D02*
X9935539Y-14022436D01*
X9935539Y-14022436D02*
X9945063Y-14012912D01*
X10106968Y-14108150D02*
X10106968Y-14241484D01*
X10059349Y-14031960D02*
X10011730Y-14174817D01*
X10011730Y-14174817D02*
X10135539Y-14174817D01*
X10192682Y-14041484D02*
X10326015Y-14041484D01*
X10326015Y-14041484D02*
X10240301Y-14241484D01*
X10554587Y-14241484D02*
X10554587Y-14041484D01*
X10640301Y-14241484D02*
X10640301Y-14136722D01*
X10640301Y-14136722D02*
X10630777Y-14117674D01*
X10630777Y-14117674D02*
X10611730Y-14108150D01*
X10611730Y-14108150D02*
X10583158Y-14108150D01*
X10583158Y-14108150D02*
X10564111Y-14117674D01*
X10564111Y-14117674D02*
X10554587Y-14127198D01*
X10764111Y-14241484D02*
X10745063Y-14231960D01*
X10745063Y-14231960D02*
X10735539Y-14222436D01*
X10735539Y-14222436D02*
X10726015Y-14203388D01*
X10726015Y-14203388D02*
X10726015Y-14146246D01*
X10726015Y-14146246D02*
X10735539Y-14127198D01*
X10735539Y-14127198D02*
X10745063Y-14117674D01*
X10745063Y-14117674D02*
X10764111Y-14108150D01*
X10764111Y-14108150D02*
X10792682Y-14108150D01*
X10792682Y-14108150D02*
X10811730Y-14117674D01*
X10811730Y-14117674D02*
X10821253Y-14127198D01*
X10821253Y-14127198D02*
X10830777Y-14146246D01*
X10830777Y-14146246D02*
X10830777Y-14203388D01*
X10830777Y-14203388D02*
X10821253Y-14222436D01*
X10821253Y-14222436D02*
X10811730Y-14231960D01*
X10811730Y-14231960D02*
X10792682Y-14241484D01*
X10792682Y-14241484D02*
X10764111Y-14241484D01*
X10945063Y-14241484D02*
X10926015Y-14231960D01*
X10926015Y-14231960D02*
X10916492Y-14212912D01*
X10916492Y-14212912D02*
X10916492Y-14041484D01*
X11097444Y-14231960D02*
X11078396Y-14241484D01*
X11078396Y-14241484D02*
X11040301Y-14241484D01*
X11040301Y-14241484D02*
X11021253Y-14231960D01*
X11021253Y-14231960D02*
X11011730Y-14212912D01*
X11011730Y-14212912D02*
X11011730Y-14136722D01*
X11011730Y-14136722D02*
X11021253Y-14117674D01*
X11021253Y-14117674D02*
X11040301Y-14108150D01*
X11040301Y-14108150D02*
X11078396Y-14108150D01*
X11078396Y-14108150D02*
X11097444Y-14117674D01*
X11097444Y-14117674D02*
X11106968Y-14136722D01*
X11106968Y-14136722D02*
X11106968Y-14155769D01*
X11106968Y-14155769D02*
X11011730Y-14174817D01*
X11183158Y-14231960D02*
X11202206Y-14241484D01*
X11202206Y-14241484D02*
X11240301Y-14241484D01*
X11240301Y-14241484D02*
X11259349Y-14231960D01*
X11259349Y-14231960D02*
X11268872Y-14212912D01*
X11268872Y-14212912D02*
X11268872Y-14203388D01*
X11268872Y-14203388D02*
X11259349Y-14184341D01*
X11259349Y-14184341D02*
X11240301Y-14174817D01*
X11240301Y-14174817D02*
X11211730Y-14174817D01*
X11211730Y-14174817D02*
X11192682Y-14165293D01*
X11192682Y-14165293D02*
X11183158Y-14146246D01*
X11183158Y-14146246D02*
X11183158Y-14136722D01*
X11183158Y-14136722D02*
X11192682Y-14117674D01*
X11192682Y-14117674D02*
X11211730Y-14108150D01*
X11211730Y-14108150D02*
X11240301Y-14108150D01*
X11240301Y-14108150D02*
X11259349Y-14117674D01*
X11335539Y-14317674D02*
X11345063Y-14308150D01*
X11345063Y-14308150D02*
X11364111Y-14279579D01*
X11364111Y-14279579D02*
X11373634Y-14260531D01*
X11373634Y-14260531D02*
X11383158Y-14231960D01*
X11383158Y-14231960D02*
X11392682Y-14184341D01*
X11392682Y-14184341D02*
X11392682Y-14146246D01*
X11392682Y-14146246D02*
X11383158Y-14098627D01*
X11383158Y-14098627D02*
X11373634Y-14070055D01*
X11373634Y-14070055D02*
X11364111Y-14051008D01*
X11364111Y-14051008D02*
X11345063Y-14022436D01*
X11345063Y-14022436D02*
X11335539Y-14012912D01*
D12*
X6370000Y-14414000D02*
G75*
G03*
X6370000Y-14414000I-30000J0D01*
G01*
D11*
X6668872Y-14305484D02*
X6687920Y-14305484D01*
X6687920Y-14305484D02*
X6706967Y-14315008D01*
X6706967Y-14315008D02*
X6716491Y-14324531D01*
X6716491Y-14324531D02*
X6726015Y-14343579D01*
X6726015Y-14343579D02*
X6735539Y-14381674D01*
X6735539Y-14381674D02*
X6735539Y-14429293D01*
X6735539Y-14429293D02*
X6726015Y-14467388D01*
X6726015Y-14467388D02*
X6716491Y-14486436D01*
X6716491Y-14486436D02*
X6706967Y-14495960D01*
X6706967Y-14495960D02*
X6687920Y-14505484D01*
X6687920Y-14505484D02*
X6668872Y-14505484D01*
X6668872Y-14505484D02*
X6649824Y-14495960D01*
X6649824Y-14495960D02*
X6640301Y-14486436D01*
X6640301Y-14486436D02*
X6630777Y-14467388D01*
X6630777Y-14467388D02*
X6621253Y-14429293D01*
X6621253Y-14429293D02*
X6621253Y-14381674D01*
X6621253Y-14381674D02*
X6630777Y-14343579D01*
X6630777Y-14343579D02*
X6640301Y-14324531D01*
X6640301Y-14324531D02*
X6649824Y-14315008D01*
X6649824Y-14315008D02*
X6668872Y-14305484D01*
X6821253Y-14486436D02*
X6830777Y-14495960D01*
X6830777Y-14495960D02*
X6821253Y-14505484D01*
X6821253Y-14505484D02*
X6811729Y-14495960D01*
X6811729Y-14495960D02*
X6821253Y-14486436D01*
X6821253Y-14486436D02*
X6821253Y-14505484D01*
X7002205Y-14305484D02*
X6964110Y-14305484D01*
X6964110Y-14305484D02*
X6945062Y-14315008D01*
X6945062Y-14315008D02*
X6935539Y-14324531D01*
X6935539Y-14324531D02*
X6916491Y-14353103D01*
X6916491Y-14353103D02*
X6906967Y-14391198D01*
X6906967Y-14391198D02*
X6906967Y-14467388D01*
X6906967Y-14467388D02*
X6916491Y-14486436D01*
X6916491Y-14486436D02*
X6926015Y-14495960D01*
X6926015Y-14495960D02*
X6945062Y-14505484D01*
X6945062Y-14505484D02*
X6983158Y-14505484D01*
X6983158Y-14505484D02*
X7002205Y-14495960D01*
X7002205Y-14495960D02*
X7011729Y-14486436D01*
X7011729Y-14486436D02*
X7021253Y-14467388D01*
X7021253Y-14467388D02*
X7021253Y-14419769D01*
X7021253Y-14419769D02*
X7011729Y-14400722D01*
X7011729Y-14400722D02*
X7002205Y-14391198D01*
X7002205Y-14391198D02*
X6983158Y-14381674D01*
X6983158Y-14381674D02*
X6945062Y-14381674D01*
X6945062Y-14381674D02*
X6926015Y-14391198D01*
X6926015Y-14391198D02*
X6916491Y-14400722D01*
X6916491Y-14400722D02*
X6906967Y-14419769D01*
X7145062Y-14305484D02*
X7164110Y-14305484D01*
X7164110Y-14305484D02*
X7183158Y-14315008D01*
X7183158Y-14315008D02*
X7192682Y-14324531D01*
X7192682Y-14324531D02*
X7202205Y-14343579D01*
X7202205Y-14343579D02*
X7211729Y-14381674D01*
X7211729Y-14381674D02*
X7211729Y-14429293D01*
X7211729Y-14429293D02*
X7202205Y-14467388D01*
X7202205Y-14467388D02*
X7192682Y-14486436D01*
X7192682Y-14486436D02*
X7183158Y-14495960D01*
X7183158Y-14495960D02*
X7164110Y-14505484D01*
X7164110Y-14505484D02*
X7145062Y-14505484D01*
X7145062Y-14505484D02*
X7126015Y-14495960D01*
X7126015Y-14495960D02*
X7116491Y-14486436D01*
X7116491Y-14486436D02*
X7106967Y-14467388D01*
X7106967Y-14467388D02*
X7097443Y-14429293D01*
X7097443Y-14429293D02*
X7097443Y-14381674D01*
X7097443Y-14381674D02*
X7106967Y-14343579D01*
X7106967Y-14343579D02*
X7116491Y-14324531D01*
X7116491Y-14324531D02*
X7126015Y-14315008D01*
X7126015Y-14315008D02*
X7145062Y-14305484D01*
X7335539Y-14305484D02*
X7354586Y-14305484D01*
X7354586Y-14305484D02*
X7373634Y-14315008D01*
X7373634Y-14315008D02*
X7383158Y-14324531D01*
X7383158Y-14324531D02*
X7392682Y-14343579D01*
X7392682Y-14343579D02*
X7402205Y-14381674D01*
X7402205Y-14381674D02*
X7402205Y-14429293D01*
X7402205Y-14429293D02*
X7392682Y-14467388D01*
X7392682Y-14467388D02*
X7383158Y-14486436D01*
X7383158Y-14486436D02*
X7373634Y-14495960D01*
X7373634Y-14495960D02*
X7354586Y-14505484D01*
X7354586Y-14505484D02*
X7335539Y-14505484D01*
X7335539Y-14505484D02*
X7316491Y-14495960D01*
X7316491Y-14495960D02*
X7306967Y-14486436D01*
X7306967Y-14486436D02*
X7297443Y-14467388D01*
X7297443Y-14467388D02*
X7287920Y-14429293D01*
X7287920Y-14429293D02*
X7287920Y-14381674D01*
X7287920Y-14381674D02*
X7297443Y-14343579D01*
X7297443Y-14343579D02*
X7306967Y-14324531D01*
X7306967Y-14324531D02*
X7316491Y-14315008D01*
X7316491Y-14315008D02*
X7335539Y-14305484D01*
X7487920Y-14505484D02*
X7487920Y-14372150D01*
X7487920Y-14391198D02*
X7497443Y-14381674D01*
X7497443Y-14381674D02*
X7516491Y-14372150D01*
X7516491Y-14372150D02*
X7545063Y-14372150D01*
X7545063Y-14372150D02*
X7564110Y-14381674D01*
X7564110Y-14381674D02*
X7573634Y-14400722D01*
X7573634Y-14400722D02*
X7573634Y-14505484D01*
X7573634Y-14400722D02*
X7583158Y-14381674D01*
X7583158Y-14381674D02*
X7602205Y-14372150D01*
X7602205Y-14372150D02*
X7630777Y-14372150D01*
X7630777Y-14372150D02*
X7649824Y-14381674D01*
X7649824Y-14381674D02*
X7659348Y-14400722D01*
X7659348Y-14400722D02*
X7659348Y-14505484D01*
X7754586Y-14505484D02*
X7754586Y-14372150D01*
X7754586Y-14391198D02*
X7764110Y-14381674D01*
X7764110Y-14381674D02*
X7783158Y-14372150D01*
X7783158Y-14372150D02*
X7811729Y-14372150D01*
X7811729Y-14372150D02*
X7830777Y-14381674D01*
X7830777Y-14381674D02*
X7840301Y-14400722D01*
X7840301Y-14400722D02*
X7840301Y-14505484D01*
X7840301Y-14400722D02*
X7849824Y-14381674D01*
X7849824Y-14381674D02*
X7868872Y-14372150D01*
X7868872Y-14372150D02*
X7897443Y-14372150D01*
X7897443Y-14372150D02*
X7916491Y-14381674D01*
X7916491Y-14381674D02*
X7926015Y-14400722D01*
X7926015Y-14400722D02*
X7926015Y-14505484D01*
X8316491Y-14295960D02*
X8145063Y-14553103D01*
X8573634Y-14305484D02*
X8592682Y-14305484D01*
X8592682Y-14305484D02*
X8611729Y-14315008D01*
X8611729Y-14315008D02*
X8621253Y-14324531D01*
X8621253Y-14324531D02*
X8630777Y-14343579D01*
X8630777Y-14343579D02*
X8640301Y-14381674D01*
X8640301Y-14381674D02*
X8640301Y-14429293D01*
X8640301Y-14429293D02*
X8630777Y-14467388D01*
X8630777Y-14467388D02*
X8621253Y-14486436D01*
X8621253Y-14486436D02*
X8611729Y-14495960D01*
X8611729Y-14495960D02*
X8592682Y-14505484D01*
X8592682Y-14505484D02*
X8573634Y-14505484D01*
X8573634Y-14505484D02*
X8554587Y-14495960D01*
X8554587Y-14495960D02*
X8545063Y-14486436D01*
X8545063Y-14486436D02*
X8535539Y-14467388D01*
X8535539Y-14467388D02*
X8526015Y-14429293D01*
X8526015Y-14429293D02*
X8526015Y-14381674D01*
X8526015Y-14381674D02*
X8535539Y-14343579D01*
X8535539Y-14343579D02*
X8545063Y-14324531D01*
X8545063Y-14324531D02*
X8554587Y-14315008D01*
X8554587Y-14315008D02*
X8573634Y-14305484D01*
X8726015Y-14486436D02*
X8735539Y-14495960D01*
X8735539Y-14495960D02*
X8726015Y-14505484D01*
X8726015Y-14505484D02*
X8716491Y-14495960D01*
X8716491Y-14495960D02*
X8726015Y-14486436D01*
X8726015Y-14486436D02*
X8726015Y-14505484D01*
X8859348Y-14305484D02*
X8878396Y-14305484D01*
X8878396Y-14305484D02*
X8897444Y-14315008D01*
X8897444Y-14315008D02*
X8906968Y-14324531D01*
X8906968Y-14324531D02*
X8916491Y-14343579D01*
X8916491Y-14343579D02*
X8926015Y-14381674D01*
X8926015Y-14381674D02*
X8926015Y-14429293D01*
X8926015Y-14429293D02*
X8916491Y-14467388D01*
X8916491Y-14467388D02*
X8906968Y-14486436D01*
X8906968Y-14486436D02*
X8897444Y-14495960D01*
X8897444Y-14495960D02*
X8878396Y-14505484D01*
X8878396Y-14505484D02*
X8859348Y-14505484D01*
X8859348Y-14505484D02*
X8840301Y-14495960D01*
X8840301Y-14495960D02*
X8830777Y-14486436D01*
X8830777Y-14486436D02*
X8821253Y-14467388D01*
X8821253Y-14467388D02*
X8811729Y-14429293D01*
X8811729Y-14429293D02*
X8811729Y-14381674D01*
X8811729Y-14381674D02*
X8821253Y-14343579D01*
X8821253Y-14343579D02*
X8830777Y-14324531D01*
X8830777Y-14324531D02*
X8840301Y-14315008D01*
X8840301Y-14315008D02*
X8859348Y-14305484D01*
X9002206Y-14324531D02*
X9011729Y-14315008D01*
X9011729Y-14315008D02*
X9030777Y-14305484D01*
X9030777Y-14305484D02*
X9078396Y-14305484D01*
X9078396Y-14305484D02*
X9097444Y-14315008D01*
X9097444Y-14315008D02*
X9106968Y-14324531D01*
X9106968Y-14324531D02*
X9116491Y-14343579D01*
X9116491Y-14343579D02*
X9116491Y-14362627D01*
X9116491Y-14362627D02*
X9106968Y-14391198D01*
X9106968Y-14391198D02*
X8992682Y-14505484D01*
X8992682Y-14505484D02*
X9116491Y-14505484D01*
X9183158Y-14305484D02*
X9306968Y-14305484D01*
X9306968Y-14305484D02*
X9240301Y-14381674D01*
X9240301Y-14381674D02*
X9268872Y-14381674D01*
X9268872Y-14381674D02*
X9287920Y-14391198D01*
X9287920Y-14391198D02*
X9297444Y-14400722D01*
X9297444Y-14400722D02*
X9306968Y-14419769D01*
X9306968Y-14419769D02*
X9306968Y-14467388D01*
X9306968Y-14467388D02*
X9297444Y-14486436D01*
X9297444Y-14486436D02*
X9287920Y-14495960D01*
X9287920Y-14495960D02*
X9268872Y-14505484D01*
X9268872Y-14505484D02*
X9211729Y-14505484D01*
X9211729Y-14505484D02*
X9192682Y-14495960D01*
X9192682Y-14495960D02*
X9183158Y-14486436D01*
X9478396Y-14305484D02*
X9440301Y-14305484D01*
X9440301Y-14305484D02*
X9421253Y-14315008D01*
X9421253Y-14315008D02*
X9411729Y-14324531D01*
X9411729Y-14324531D02*
X9392682Y-14353103D01*
X9392682Y-14353103D02*
X9383158Y-14391198D01*
X9383158Y-14391198D02*
X9383158Y-14467388D01*
X9383158Y-14467388D02*
X9392682Y-14486436D01*
X9392682Y-14486436D02*
X9402206Y-14495960D01*
X9402206Y-14495960D02*
X9421253Y-14505484D01*
X9421253Y-14505484D02*
X9459349Y-14505484D01*
X9459349Y-14505484D02*
X9478396Y-14495960D01*
X9478396Y-14495960D02*
X9487920Y-14486436D01*
X9487920Y-14486436D02*
X9497444Y-14467388D01*
X9497444Y-14467388D02*
X9497444Y-14419769D01*
X9497444Y-14419769D02*
X9487920Y-14400722D01*
X9487920Y-14400722D02*
X9478396Y-14391198D01*
X9478396Y-14391198D02*
X9459349Y-14381674D01*
X9459349Y-14381674D02*
X9421253Y-14381674D01*
X9421253Y-14381674D02*
X9402206Y-14391198D01*
X9402206Y-14391198D02*
X9392682Y-14400722D01*
X9392682Y-14400722D02*
X9383158Y-14419769D01*
X9573634Y-14305484D02*
X9573634Y-14343579D01*
X9649825Y-14305484D02*
X9649825Y-14343579D01*
X9945063Y-14581674D02*
X9935539Y-14572150D01*
X9935539Y-14572150D02*
X9916491Y-14543579D01*
X9916491Y-14543579D02*
X9906968Y-14524531D01*
X9906968Y-14524531D02*
X9897444Y-14495960D01*
X9897444Y-14495960D02*
X9887920Y-14448341D01*
X9887920Y-14448341D02*
X9887920Y-14410246D01*
X9887920Y-14410246D02*
X9897444Y-14362627D01*
X9897444Y-14362627D02*
X9906968Y-14334055D01*
X9906968Y-14334055D02*
X9916491Y-14315008D01*
X9916491Y-14315008D02*
X9935539Y-14286436D01*
X9935539Y-14286436D02*
X9945063Y-14276912D01*
X10049825Y-14391198D02*
X10030777Y-14381674D01*
X10030777Y-14381674D02*
X10021253Y-14372150D01*
X10021253Y-14372150D02*
X10011730Y-14353103D01*
X10011730Y-14353103D02*
X10011730Y-14343579D01*
X10011730Y-14343579D02*
X10021253Y-14324531D01*
X10021253Y-14324531D02*
X10030777Y-14315008D01*
X10030777Y-14315008D02*
X10049825Y-14305484D01*
X10049825Y-14305484D02*
X10087920Y-14305484D01*
X10087920Y-14305484D02*
X10106968Y-14315008D01*
X10106968Y-14315008D02*
X10116491Y-14324531D01*
X10116491Y-14324531D02*
X10126015Y-14343579D01*
X10126015Y-14343579D02*
X10126015Y-14353103D01*
X10126015Y-14353103D02*
X10116491Y-14372150D01*
X10116491Y-14372150D02*
X10106968Y-14381674D01*
X10106968Y-14381674D02*
X10087920Y-14391198D01*
X10087920Y-14391198D02*
X10049825Y-14391198D01*
X10049825Y-14391198D02*
X10030777Y-14400722D01*
X10030777Y-14400722D02*
X10021253Y-14410246D01*
X10021253Y-14410246D02*
X10011730Y-14429293D01*
X10011730Y-14429293D02*
X10011730Y-14467388D01*
X10011730Y-14467388D02*
X10021253Y-14486436D01*
X10021253Y-14486436D02*
X10030777Y-14495960D01*
X10030777Y-14495960D02*
X10049825Y-14505484D01*
X10049825Y-14505484D02*
X10087920Y-14505484D01*
X10087920Y-14505484D02*
X10106968Y-14495960D01*
X10106968Y-14495960D02*
X10116491Y-14486436D01*
X10116491Y-14486436D02*
X10126015Y-14467388D01*
X10126015Y-14467388D02*
X10126015Y-14429293D01*
X10126015Y-14429293D02*
X10116491Y-14410246D01*
X10116491Y-14410246D02*
X10106968Y-14400722D01*
X10106968Y-14400722D02*
X10087920Y-14391198D01*
X10249825Y-14305484D02*
X10268872Y-14305484D01*
X10268872Y-14305484D02*
X10287920Y-14315008D01*
X10287920Y-14315008D02*
X10297444Y-14324531D01*
X10297444Y-14324531D02*
X10306968Y-14343579D01*
X10306968Y-14343579D02*
X10316491Y-14381674D01*
X10316491Y-14381674D02*
X10316491Y-14429293D01*
X10316491Y-14429293D02*
X10306968Y-14467388D01*
X10306968Y-14467388D02*
X10297444Y-14486436D01*
X10297444Y-14486436D02*
X10287920Y-14495960D01*
X10287920Y-14495960D02*
X10268872Y-14505484D01*
X10268872Y-14505484D02*
X10249825Y-14505484D01*
X10249825Y-14505484D02*
X10230777Y-14495960D01*
X10230777Y-14495960D02*
X10221253Y-14486436D01*
X10221253Y-14486436D02*
X10211730Y-14467388D01*
X10211730Y-14467388D02*
X10202206Y-14429293D01*
X10202206Y-14429293D02*
X10202206Y-14381674D01*
X10202206Y-14381674D02*
X10211730Y-14343579D01*
X10211730Y-14343579D02*
X10221253Y-14324531D01*
X10221253Y-14324531D02*
X10230777Y-14315008D01*
X10230777Y-14315008D02*
X10249825Y-14305484D01*
X10554587Y-14505484D02*
X10554587Y-14305484D01*
X10640301Y-14505484D02*
X10640301Y-14400722D01*
X10640301Y-14400722D02*
X10630777Y-14381674D01*
X10630777Y-14381674D02*
X10611730Y-14372150D01*
X10611730Y-14372150D02*
X10583158Y-14372150D01*
X10583158Y-14372150D02*
X10564111Y-14381674D01*
X10564111Y-14381674D02*
X10554587Y-14391198D01*
X10764111Y-14505484D02*
X10745063Y-14495960D01*
X10745063Y-14495960D02*
X10735539Y-14486436D01*
X10735539Y-14486436D02*
X10726015Y-14467388D01*
X10726015Y-14467388D02*
X10726015Y-14410246D01*
X10726015Y-14410246D02*
X10735539Y-14391198D01*
X10735539Y-14391198D02*
X10745063Y-14381674D01*
X10745063Y-14381674D02*
X10764111Y-14372150D01*
X10764111Y-14372150D02*
X10792682Y-14372150D01*
X10792682Y-14372150D02*
X10811730Y-14381674D01*
X10811730Y-14381674D02*
X10821253Y-14391198D01*
X10821253Y-14391198D02*
X10830777Y-14410246D01*
X10830777Y-14410246D02*
X10830777Y-14467388D01*
X10830777Y-14467388D02*
X10821253Y-14486436D01*
X10821253Y-14486436D02*
X10811730Y-14495960D01*
X10811730Y-14495960D02*
X10792682Y-14505484D01*
X10792682Y-14505484D02*
X10764111Y-14505484D01*
X10945063Y-14505484D02*
X10926015Y-14495960D01*
X10926015Y-14495960D02*
X10916492Y-14476912D01*
X10916492Y-14476912D02*
X10916492Y-14305484D01*
X11097444Y-14495960D02*
X11078396Y-14505484D01*
X11078396Y-14505484D02*
X11040301Y-14505484D01*
X11040301Y-14505484D02*
X11021253Y-14495960D01*
X11021253Y-14495960D02*
X11011730Y-14476912D01*
X11011730Y-14476912D02*
X11011730Y-14400722D01*
X11011730Y-14400722D02*
X11021253Y-14381674D01*
X11021253Y-14381674D02*
X11040301Y-14372150D01*
X11040301Y-14372150D02*
X11078396Y-14372150D01*
X11078396Y-14372150D02*
X11097444Y-14381674D01*
X11097444Y-14381674D02*
X11106968Y-14400722D01*
X11106968Y-14400722D02*
X11106968Y-14419769D01*
X11106968Y-14419769D02*
X11011730Y-14438817D01*
X11183158Y-14495960D02*
X11202206Y-14505484D01*
X11202206Y-14505484D02*
X11240301Y-14505484D01*
X11240301Y-14505484D02*
X11259349Y-14495960D01*
X11259349Y-14495960D02*
X11268872Y-14476912D01*
X11268872Y-14476912D02*
X11268872Y-14467388D01*
X11268872Y-14467388D02*
X11259349Y-14448341D01*
X11259349Y-14448341D02*
X11240301Y-14438817D01*
X11240301Y-14438817D02*
X11211730Y-14438817D01*
X11211730Y-14438817D02*
X11192682Y-14429293D01*
X11192682Y-14429293D02*
X11183158Y-14410246D01*
X11183158Y-14410246D02*
X11183158Y-14400722D01*
X11183158Y-14400722D02*
X11192682Y-14381674D01*
X11192682Y-14381674D02*
X11211730Y-14372150D01*
X11211730Y-14372150D02*
X11240301Y-14372150D01*
X11240301Y-14372150D02*
X11259349Y-14381674D01*
X11335539Y-14581674D02*
X11345063Y-14572150D01*
X11345063Y-14572150D02*
X11364111Y-14543579D01*
X11364111Y-14543579D02*
X11373634Y-14524531D01*
X11373634Y-14524531D02*
X11383158Y-14495960D01*
X11383158Y-14495960D02*
X11392682Y-14448341D01*
X11392682Y-14448341D02*
X11392682Y-14410246D01*
X11392682Y-14410246D02*
X11383158Y-14362627D01*
X11383158Y-14362627D02*
X11373634Y-14334055D01*
X11373634Y-14334055D02*
X11364111Y-14315008D01*
X11364111Y-14315008D02*
X11345063Y-14286436D01*
X11345063Y-14286436D02*
X11335539Y-14276912D01*
D10*
X6320000Y-14628000D02*
X6320000Y-14728000D01*
X6270000Y-14678000D02*
X6370000Y-14678000D01*
D11*
X6735539Y-14769484D02*
X6621253Y-14769484D01*
X6678396Y-14769484D02*
X6678396Y-14569484D01*
X6678396Y-14569484D02*
X6659348Y-14598055D01*
X6659348Y-14598055D02*
X6640301Y-14617103D01*
X6640301Y-14617103D02*
X6621253Y-14626627D01*
X6821253Y-14750436D02*
X6830777Y-14759960D01*
X6830777Y-14759960D02*
X6821253Y-14769484D01*
X6821253Y-14769484D02*
X6811729Y-14759960D01*
X6811729Y-14759960D02*
X6821253Y-14750436D01*
X6821253Y-14750436D02*
X6821253Y-14769484D01*
X6954586Y-14569484D02*
X6973634Y-14569484D01*
X6973634Y-14569484D02*
X6992682Y-14579008D01*
X6992682Y-14579008D02*
X7002205Y-14588531D01*
X7002205Y-14588531D02*
X7011729Y-14607579D01*
X7011729Y-14607579D02*
X7021253Y-14645674D01*
X7021253Y-14645674D02*
X7021253Y-14693293D01*
X7021253Y-14693293D02*
X7011729Y-14731388D01*
X7011729Y-14731388D02*
X7002205Y-14750436D01*
X7002205Y-14750436D02*
X6992682Y-14759960D01*
X6992682Y-14759960D02*
X6973634Y-14769484D01*
X6973634Y-14769484D02*
X6954586Y-14769484D01*
X6954586Y-14769484D02*
X6935539Y-14759960D01*
X6935539Y-14759960D02*
X6926015Y-14750436D01*
X6926015Y-14750436D02*
X6916491Y-14731388D01*
X6916491Y-14731388D02*
X6906967Y-14693293D01*
X6906967Y-14693293D02*
X6906967Y-14645674D01*
X6906967Y-14645674D02*
X6916491Y-14607579D01*
X6916491Y-14607579D02*
X6926015Y-14588531D01*
X6926015Y-14588531D02*
X6935539Y-14579008D01*
X6935539Y-14579008D02*
X6954586Y-14569484D01*
X7145062Y-14569484D02*
X7164110Y-14569484D01*
X7164110Y-14569484D02*
X7183158Y-14579008D01*
X7183158Y-14579008D02*
X7192682Y-14588531D01*
X7192682Y-14588531D02*
X7202205Y-14607579D01*
X7202205Y-14607579D02*
X7211729Y-14645674D01*
X7211729Y-14645674D02*
X7211729Y-14693293D01*
X7211729Y-14693293D02*
X7202205Y-14731388D01*
X7202205Y-14731388D02*
X7192682Y-14750436D01*
X7192682Y-14750436D02*
X7183158Y-14759960D01*
X7183158Y-14759960D02*
X7164110Y-14769484D01*
X7164110Y-14769484D02*
X7145062Y-14769484D01*
X7145062Y-14769484D02*
X7126015Y-14759960D01*
X7126015Y-14759960D02*
X7116491Y-14750436D01*
X7116491Y-14750436D02*
X7106967Y-14731388D01*
X7106967Y-14731388D02*
X7097443Y-14693293D01*
X7097443Y-14693293D02*
X7097443Y-14645674D01*
X7097443Y-14645674D02*
X7106967Y-14607579D01*
X7106967Y-14607579D02*
X7116491Y-14588531D01*
X7116491Y-14588531D02*
X7126015Y-14579008D01*
X7126015Y-14579008D02*
X7145062Y-14569484D01*
X7335539Y-14569484D02*
X7354586Y-14569484D01*
X7354586Y-14569484D02*
X7373634Y-14579008D01*
X7373634Y-14579008D02*
X7383158Y-14588531D01*
X7383158Y-14588531D02*
X7392682Y-14607579D01*
X7392682Y-14607579D02*
X7402205Y-14645674D01*
X7402205Y-14645674D02*
X7402205Y-14693293D01*
X7402205Y-14693293D02*
X7392682Y-14731388D01*
X7392682Y-14731388D02*
X7383158Y-14750436D01*
X7383158Y-14750436D02*
X7373634Y-14759960D01*
X7373634Y-14759960D02*
X7354586Y-14769484D01*
X7354586Y-14769484D02*
X7335539Y-14769484D01*
X7335539Y-14769484D02*
X7316491Y-14759960D01*
X7316491Y-14759960D02*
X7306967Y-14750436D01*
X7306967Y-14750436D02*
X7297443Y-14731388D01*
X7297443Y-14731388D02*
X7287920Y-14693293D01*
X7287920Y-14693293D02*
X7287920Y-14645674D01*
X7287920Y-14645674D02*
X7297443Y-14607579D01*
X7297443Y-14607579D02*
X7306967Y-14588531D01*
X7306967Y-14588531D02*
X7316491Y-14579008D01*
X7316491Y-14579008D02*
X7335539Y-14569484D01*
X7487920Y-14769484D02*
X7487920Y-14636150D01*
X7487920Y-14655198D02*
X7497443Y-14645674D01*
X7497443Y-14645674D02*
X7516491Y-14636150D01*
X7516491Y-14636150D02*
X7545063Y-14636150D01*
X7545063Y-14636150D02*
X7564110Y-14645674D01*
X7564110Y-14645674D02*
X7573634Y-14664722D01*
X7573634Y-14664722D02*
X7573634Y-14769484D01*
X7573634Y-14664722D02*
X7583158Y-14645674D01*
X7583158Y-14645674D02*
X7602205Y-14636150D01*
X7602205Y-14636150D02*
X7630777Y-14636150D01*
X7630777Y-14636150D02*
X7649824Y-14645674D01*
X7649824Y-14645674D02*
X7659348Y-14664722D01*
X7659348Y-14664722D02*
X7659348Y-14769484D01*
X7754586Y-14769484D02*
X7754586Y-14636150D01*
X7754586Y-14655198D02*
X7764110Y-14645674D01*
X7764110Y-14645674D02*
X7783158Y-14636150D01*
X7783158Y-14636150D02*
X7811729Y-14636150D01*
X7811729Y-14636150D02*
X7830777Y-14645674D01*
X7830777Y-14645674D02*
X7840301Y-14664722D01*
X7840301Y-14664722D02*
X7840301Y-14769484D01*
X7840301Y-14664722D02*
X7849824Y-14645674D01*
X7849824Y-14645674D02*
X7868872Y-14636150D01*
X7868872Y-14636150D02*
X7897443Y-14636150D01*
X7897443Y-14636150D02*
X7916491Y-14645674D01*
X7916491Y-14645674D02*
X7926015Y-14664722D01*
X7926015Y-14664722D02*
X7926015Y-14769484D01*
X8316491Y-14559960D02*
X8145063Y-14817103D01*
X8573634Y-14569484D02*
X8592682Y-14569484D01*
X8592682Y-14569484D02*
X8611729Y-14579008D01*
X8611729Y-14579008D02*
X8621253Y-14588531D01*
X8621253Y-14588531D02*
X8630777Y-14607579D01*
X8630777Y-14607579D02*
X8640301Y-14645674D01*
X8640301Y-14645674D02*
X8640301Y-14693293D01*
X8640301Y-14693293D02*
X8630777Y-14731388D01*
X8630777Y-14731388D02*
X8621253Y-14750436D01*
X8621253Y-14750436D02*
X8611729Y-14759960D01*
X8611729Y-14759960D02*
X8592682Y-14769484D01*
X8592682Y-14769484D02*
X8573634Y-14769484D01*
X8573634Y-14769484D02*
X8554587Y-14759960D01*
X8554587Y-14759960D02*
X8545063Y-14750436D01*
X8545063Y-14750436D02*
X8535539Y-14731388D01*
X8535539Y-14731388D02*
X8526015Y-14693293D01*
X8526015Y-14693293D02*
X8526015Y-14645674D01*
X8526015Y-14645674D02*
X8535539Y-14607579D01*
X8535539Y-14607579D02*
X8545063Y-14588531D01*
X8545063Y-14588531D02*
X8554587Y-14579008D01*
X8554587Y-14579008D02*
X8573634Y-14569484D01*
X8726015Y-14750436D02*
X8735539Y-14759960D01*
X8735539Y-14759960D02*
X8726015Y-14769484D01*
X8726015Y-14769484D02*
X8716491Y-14759960D01*
X8716491Y-14759960D02*
X8726015Y-14750436D01*
X8726015Y-14750436D02*
X8726015Y-14769484D01*
X8859348Y-14569484D02*
X8878396Y-14569484D01*
X8878396Y-14569484D02*
X8897444Y-14579008D01*
X8897444Y-14579008D02*
X8906968Y-14588531D01*
X8906968Y-14588531D02*
X8916491Y-14607579D01*
X8916491Y-14607579D02*
X8926015Y-14645674D01*
X8926015Y-14645674D02*
X8926015Y-14693293D01*
X8926015Y-14693293D02*
X8916491Y-14731388D01*
X8916491Y-14731388D02*
X8906968Y-14750436D01*
X8906968Y-14750436D02*
X8897444Y-14759960D01*
X8897444Y-14759960D02*
X8878396Y-14769484D01*
X8878396Y-14769484D02*
X8859348Y-14769484D01*
X8859348Y-14769484D02*
X8840301Y-14759960D01*
X8840301Y-14759960D02*
X8830777Y-14750436D01*
X8830777Y-14750436D02*
X8821253Y-14731388D01*
X8821253Y-14731388D02*
X8811729Y-14693293D01*
X8811729Y-14693293D02*
X8811729Y-14645674D01*
X8811729Y-14645674D02*
X8821253Y-14607579D01*
X8821253Y-14607579D02*
X8830777Y-14588531D01*
X8830777Y-14588531D02*
X8840301Y-14579008D01*
X8840301Y-14579008D02*
X8859348Y-14569484D01*
X8992682Y-14569484D02*
X9116491Y-14569484D01*
X9116491Y-14569484D02*
X9049825Y-14645674D01*
X9049825Y-14645674D02*
X9078396Y-14645674D01*
X9078396Y-14645674D02*
X9097444Y-14655198D01*
X9097444Y-14655198D02*
X9106968Y-14664722D01*
X9106968Y-14664722D02*
X9116491Y-14683769D01*
X9116491Y-14683769D02*
X9116491Y-14731388D01*
X9116491Y-14731388D02*
X9106968Y-14750436D01*
X9106968Y-14750436D02*
X9097444Y-14759960D01*
X9097444Y-14759960D02*
X9078396Y-14769484D01*
X9078396Y-14769484D02*
X9021253Y-14769484D01*
X9021253Y-14769484D02*
X9002206Y-14759960D01*
X9002206Y-14759960D02*
X8992682Y-14750436D01*
X9211729Y-14769484D02*
X9249825Y-14769484D01*
X9249825Y-14769484D02*
X9268872Y-14759960D01*
X9268872Y-14759960D02*
X9278396Y-14750436D01*
X9278396Y-14750436D02*
X9297444Y-14721865D01*
X9297444Y-14721865D02*
X9306968Y-14683769D01*
X9306968Y-14683769D02*
X9306968Y-14607579D01*
X9306968Y-14607579D02*
X9297444Y-14588531D01*
X9297444Y-14588531D02*
X9287920Y-14579008D01*
X9287920Y-14579008D02*
X9268872Y-14569484D01*
X9268872Y-14569484D02*
X9230777Y-14569484D01*
X9230777Y-14569484D02*
X9211729Y-14579008D01*
X9211729Y-14579008D02*
X9202206Y-14588531D01*
X9202206Y-14588531D02*
X9192682Y-14607579D01*
X9192682Y-14607579D02*
X9192682Y-14655198D01*
X9192682Y-14655198D02*
X9202206Y-14674246D01*
X9202206Y-14674246D02*
X9211729Y-14683769D01*
X9211729Y-14683769D02*
X9230777Y-14693293D01*
X9230777Y-14693293D02*
X9268872Y-14693293D01*
X9268872Y-14693293D02*
X9287920Y-14683769D01*
X9287920Y-14683769D02*
X9297444Y-14674246D01*
X9297444Y-14674246D02*
X9306968Y-14655198D01*
X9478396Y-14636150D02*
X9478396Y-14769484D01*
X9430777Y-14559960D02*
X9383158Y-14702817D01*
X9383158Y-14702817D02*
X9506968Y-14702817D01*
X9573634Y-14569484D02*
X9573634Y-14607579D01*
X9649825Y-14569484D02*
X9649825Y-14607579D01*
X9945063Y-14845674D02*
X9935539Y-14836150D01*
X9935539Y-14836150D02*
X9916491Y-14807579D01*
X9916491Y-14807579D02*
X9906968Y-14788531D01*
X9906968Y-14788531D02*
X9897444Y-14759960D01*
X9897444Y-14759960D02*
X9887920Y-14712341D01*
X9887920Y-14712341D02*
X9887920Y-14674246D01*
X9887920Y-14674246D02*
X9897444Y-14626627D01*
X9897444Y-14626627D02*
X9906968Y-14598055D01*
X9906968Y-14598055D02*
X9916491Y-14579008D01*
X9916491Y-14579008D02*
X9935539Y-14550436D01*
X9935539Y-14550436D02*
X9945063Y-14540912D01*
X10002206Y-14569484D02*
X10135539Y-14569484D01*
X10135539Y-14569484D02*
X10049825Y-14769484D01*
X10249825Y-14569484D02*
X10268872Y-14569484D01*
X10268872Y-14569484D02*
X10287920Y-14579008D01*
X10287920Y-14579008D02*
X10297444Y-14588531D01*
X10297444Y-14588531D02*
X10306968Y-14607579D01*
X10306968Y-14607579D02*
X10316491Y-14645674D01*
X10316491Y-14645674D02*
X10316491Y-14693293D01*
X10316491Y-14693293D02*
X10306968Y-14731388D01*
X10306968Y-14731388D02*
X10297444Y-14750436D01*
X10297444Y-14750436D02*
X10287920Y-14759960D01*
X10287920Y-14759960D02*
X10268872Y-14769484D01*
X10268872Y-14769484D02*
X10249825Y-14769484D01*
X10249825Y-14769484D02*
X10230777Y-14759960D01*
X10230777Y-14759960D02*
X10221253Y-14750436D01*
X10221253Y-14750436D02*
X10211730Y-14731388D01*
X10211730Y-14731388D02*
X10202206Y-14693293D01*
X10202206Y-14693293D02*
X10202206Y-14645674D01*
X10202206Y-14645674D02*
X10211730Y-14607579D01*
X10211730Y-14607579D02*
X10221253Y-14588531D01*
X10221253Y-14588531D02*
X10230777Y-14579008D01*
X10230777Y-14579008D02*
X10249825Y-14569484D01*
X10554587Y-14769484D02*
X10554587Y-14569484D01*
X10640301Y-14769484D02*
X10640301Y-14664722D01*
X10640301Y-14664722D02*
X10630777Y-14645674D01*
X10630777Y-14645674D02*
X10611730Y-14636150D01*
X10611730Y-14636150D02*
X10583158Y-14636150D01*
X10583158Y-14636150D02*
X10564111Y-14645674D01*
X10564111Y-14645674D02*
X10554587Y-14655198D01*
X10764111Y-14769484D02*
X10745063Y-14759960D01*
X10745063Y-14759960D02*
X10735539Y-14750436D01*
X10735539Y-14750436D02*
X10726015Y-14731388D01*
X10726015Y-14731388D02*
X10726015Y-14674246D01*
X10726015Y-14674246D02*
X10735539Y-14655198D01*
X10735539Y-14655198D02*
X10745063Y-14645674D01*
X10745063Y-14645674D02*
X10764111Y-14636150D01*
X10764111Y-14636150D02*
X10792682Y-14636150D01*
X10792682Y-14636150D02*
X10811730Y-14645674D01*
X10811730Y-14645674D02*
X10821253Y-14655198D01*
X10821253Y-14655198D02*
X10830777Y-14674246D01*
X10830777Y-14674246D02*
X10830777Y-14731388D01*
X10830777Y-14731388D02*
X10821253Y-14750436D01*
X10821253Y-14750436D02*
X10811730Y-14759960D01*
X10811730Y-14759960D02*
X10792682Y-14769484D01*
X10792682Y-14769484D02*
X10764111Y-14769484D01*
X10945063Y-14769484D02*
X10926015Y-14759960D01*
X10926015Y-14759960D02*
X10916492Y-14740912D01*
X10916492Y-14740912D02*
X10916492Y-14569484D01*
X11097444Y-14759960D02*
X11078396Y-14769484D01*
X11078396Y-14769484D02*
X11040301Y-14769484D01*
X11040301Y-14769484D02*
X11021253Y-14759960D01*
X11021253Y-14759960D02*
X11011730Y-14740912D01*
X11011730Y-14740912D02*
X11011730Y-14664722D01*
X11011730Y-14664722D02*
X11021253Y-14645674D01*
X11021253Y-14645674D02*
X11040301Y-14636150D01*
X11040301Y-14636150D02*
X11078396Y-14636150D01*
X11078396Y-14636150D02*
X11097444Y-14645674D01*
X11097444Y-14645674D02*
X11106968Y-14664722D01*
X11106968Y-14664722D02*
X11106968Y-14683769D01*
X11106968Y-14683769D02*
X11011730Y-14702817D01*
X11183158Y-14759960D02*
X11202206Y-14769484D01*
X11202206Y-14769484D02*
X11240301Y-14769484D01*
X11240301Y-14769484D02*
X11259349Y-14759960D01*
X11259349Y-14759960D02*
X11268872Y-14740912D01*
X11268872Y-14740912D02*
X11268872Y-14731388D01*
X11268872Y-14731388D02*
X11259349Y-14712341D01*
X11259349Y-14712341D02*
X11240301Y-14702817D01*
X11240301Y-14702817D02*
X11211730Y-14702817D01*
X11211730Y-14702817D02*
X11192682Y-14693293D01*
X11192682Y-14693293D02*
X11183158Y-14674246D01*
X11183158Y-14674246D02*
X11183158Y-14664722D01*
X11183158Y-14664722D02*
X11192682Y-14645674D01*
X11192682Y-14645674D02*
X11211730Y-14636150D01*
X11211730Y-14636150D02*
X11240301Y-14636150D01*
X11240301Y-14636150D02*
X11259349Y-14645674D01*
X11335539Y-14845674D02*
X11345063Y-14836150D01*
X11345063Y-14836150D02*
X11364111Y-14807579D01*
X11364111Y-14807579D02*
X11373634Y-14788531D01*
X11373634Y-14788531D02*
X11383158Y-14759960D01*
X11383158Y-14759960D02*
X11392682Y-14712341D01*
X11392682Y-14712341D02*
X11392682Y-14674246D01*
X11392682Y-14674246D02*
X11383158Y-14626627D01*
X11383158Y-14626627D02*
X11373634Y-14598055D01*
X11373634Y-14598055D02*
X11364111Y-14579008D01*
X11364111Y-14579008D02*
X11345063Y-14550436D01*
X11345063Y-14550436D02*
X11335539Y-14540912D01*
D13*
X6353891Y-14980891D02*
X6353891Y-14903109D01*
X6276109Y-14903109D01*
X6276109Y-14980891D01*
X6353891Y-14980891D01*
D11*
X6735539Y-15033484D02*
X6621253Y-15033484D01*
X6678396Y-15033484D02*
X6678396Y-14833484D01*
X6678396Y-14833484D02*
X6659348Y-14862055D01*
X6659348Y-14862055D02*
X6640301Y-14881103D01*
X6640301Y-14881103D02*
X6621253Y-14890627D01*
X6821253Y-15014436D02*
X6830777Y-15023960D01*
X6830777Y-15023960D02*
X6821253Y-15033484D01*
X6821253Y-15033484D02*
X6811729Y-15023960D01*
X6811729Y-15023960D02*
X6821253Y-15014436D01*
X6821253Y-15014436D02*
X6821253Y-15033484D01*
X7021253Y-15033484D02*
X6906967Y-15033484D01*
X6964110Y-15033484D02*
X6964110Y-14833484D01*
X6964110Y-14833484D02*
X6945062Y-14862055D01*
X6945062Y-14862055D02*
X6926015Y-14881103D01*
X6926015Y-14881103D02*
X6906967Y-14890627D01*
X7145062Y-14833484D02*
X7164110Y-14833484D01*
X7164110Y-14833484D02*
X7183158Y-14843008D01*
X7183158Y-14843008D02*
X7192682Y-14852531D01*
X7192682Y-14852531D02*
X7202205Y-14871579D01*
X7202205Y-14871579D02*
X7211729Y-14909674D01*
X7211729Y-14909674D02*
X7211729Y-14957293D01*
X7211729Y-14957293D02*
X7202205Y-14995388D01*
X7202205Y-14995388D02*
X7192682Y-15014436D01*
X7192682Y-15014436D02*
X7183158Y-15023960D01*
X7183158Y-15023960D02*
X7164110Y-15033484D01*
X7164110Y-15033484D02*
X7145062Y-15033484D01*
X7145062Y-15033484D02*
X7126015Y-15023960D01*
X7126015Y-15023960D02*
X7116491Y-15014436D01*
X7116491Y-15014436D02*
X7106967Y-14995388D01*
X7106967Y-14995388D02*
X7097443Y-14957293D01*
X7097443Y-14957293D02*
X7097443Y-14909674D01*
X7097443Y-14909674D02*
X7106967Y-14871579D01*
X7106967Y-14871579D02*
X7116491Y-14852531D01*
X7116491Y-14852531D02*
X7126015Y-14843008D01*
X7126015Y-14843008D02*
X7145062Y-14833484D01*
X7335539Y-14833484D02*
X7354586Y-14833484D01*
X7354586Y-14833484D02*
X7373634Y-14843008D01*
X7373634Y-14843008D02*
X7383158Y-14852531D01*
X7383158Y-14852531D02*
X7392682Y-14871579D01*
X7392682Y-14871579D02*
X7402205Y-14909674D01*
X7402205Y-14909674D02*
X7402205Y-14957293D01*
X7402205Y-14957293D02*
X7392682Y-14995388D01*
X7392682Y-14995388D02*
X7383158Y-15014436D01*
X7383158Y-15014436D02*
X7373634Y-15023960D01*
X7373634Y-15023960D02*
X7354586Y-15033484D01*
X7354586Y-15033484D02*
X7335539Y-15033484D01*
X7335539Y-15033484D02*
X7316491Y-15023960D01*
X7316491Y-15023960D02*
X7306967Y-15014436D01*
X7306967Y-15014436D02*
X7297443Y-14995388D01*
X7297443Y-14995388D02*
X7287920Y-14957293D01*
X7287920Y-14957293D02*
X7287920Y-14909674D01*
X7287920Y-14909674D02*
X7297443Y-14871579D01*
X7297443Y-14871579D02*
X7306967Y-14852531D01*
X7306967Y-14852531D02*
X7316491Y-14843008D01*
X7316491Y-14843008D02*
X7335539Y-14833484D01*
X7487920Y-15033484D02*
X7487920Y-14900150D01*
X7487920Y-14919198D02*
X7497443Y-14909674D01*
X7497443Y-14909674D02*
X7516491Y-14900150D01*
X7516491Y-14900150D02*
X7545063Y-14900150D01*
X7545063Y-14900150D02*
X7564110Y-14909674D01*
X7564110Y-14909674D02*
X7573634Y-14928722D01*
X7573634Y-14928722D02*
X7573634Y-15033484D01*
X7573634Y-14928722D02*
X7583158Y-14909674D01*
X7583158Y-14909674D02*
X7602205Y-14900150D01*
X7602205Y-14900150D02*
X7630777Y-14900150D01*
X7630777Y-14900150D02*
X7649824Y-14909674D01*
X7649824Y-14909674D02*
X7659348Y-14928722D01*
X7659348Y-14928722D02*
X7659348Y-15033484D01*
X7754586Y-15033484D02*
X7754586Y-14900150D01*
X7754586Y-14919198D02*
X7764110Y-14909674D01*
X7764110Y-14909674D02*
X7783158Y-14900150D01*
X7783158Y-14900150D02*
X7811729Y-14900150D01*
X7811729Y-14900150D02*
X7830777Y-14909674D01*
X7830777Y-14909674D02*
X7840301Y-14928722D01*
X7840301Y-14928722D02*
X7840301Y-15033484D01*
X7840301Y-14928722D02*
X7849824Y-14909674D01*
X7849824Y-14909674D02*
X7868872Y-14900150D01*
X7868872Y-14900150D02*
X7897443Y-14900150D01*
X7897443Y-14900150D02*
X7916491Y-14909674D01*
X7916491Y-14909674D02*
X7926015Y-14928722D01*
X7926015Y-14928722D02*
X7926015Y-15033484D01*
X8316491Y-14823960D02*
X8145063Y-15081103D01*
X8573634Y-14833484D02*
X8592682Y-14833484D01*
X8592682Y-14833484D02*
X8611729Y-14843008D01*
X8611729Y-14843008D02*
X8621253Y-14852531D01*
X8621253Y-14852531D02*
X8630777Y-14871579D01*
X8630777Y-14871579D02*
X8640301Y-14909674D01*
X8640301Y-14909674D02*
X8640301Y-14957293D01*
X8640301Y-14957293D02*
X8630777Y-14995388D01*
X8630777Y-14995388D02*
X8621253Y-15014436D01*
X8621253Y-15014436D02*
X8611729Y-15023960D01*
X8611729Y-15023960D02*
X8592682Y-15033484D01*
X8592682Y-15033484D02*
X8573634Y-15033484D01*
X8573634Y-15033484D02*
X8554587Y-15023960D01*
X8554587Y-15023960D02*
X8545063Y-15014436D01*
X8545063Y-15014436D02*
X8535539Y-14995388D01*
X8535539Y-14995388D02*
X8526015Y-14957293D01*
X8526015Y-14957293D02*
X8526015Y-14909674D01*
X8526015Y-14909674D02*
X8535539Y-14871579D01*
X8535539Y-14871579D02*
X8545063Y-14852531D01*
X8545063Y-14852531D02*
X8554587Y-14843008D01*
X8554587Y-14843008D02*
X8573634Y-14833484D01*
X8726015Y-15014436D02*
X8735539Y-15023960D01*
X8735539Y-15023960D02*
X8726015Y-15033484D01*
X8726015Y-15033484D02*
X8716491Y-15023960D01*
X8716491Y-15023960D02*
X8726015Y-15014436D01*
X8726015Y-15014436D02*
X8726015Y-15033484D01*
X8859348Y-14833484D02*
X8878396Y-14833484D01*
X8878396Y-14833484D02*
X8897444Y-14843008D01*
X8897444Y-14843008D02*
X8906968Y-14852531D01*
X8906968Y-14852531D02*
X8916491Y-14871579D01*
X8916491Y-14871579D02*
X8926015Y-14909674D01*
X8926015Y-14909674D02*
X8926015Y-14957293D01*
X8926015Y-14957293D02*
X8916491Y-14995388D01*
X8916491Y-14995388D02*
X8906968Y-15014436D01*
X8906968Y-15014436D02*
X8897444Y-15023960D01*
X8897444Y-15023960D02*
X8878396Y-15033484D01*
X8878396Y-15033484D02*
X8859348Y-15033484D01*
X8859348Y-15033484D02*
X8840301Y-15023960D01*
X8840301Y-15023960D02*
X8830777Y-15014436D01*
X8830777Y-15014436D02*
X8821253Y-14995388D01*
X8821253Y-14995388D02*
X8811729Y-14957293D01*
X8811729Y-14957293D02*
X8811729Y-14909674D01*
X8811729Y-14909674D02*
X8821253Y-14871579D01*
X8821253Y-14871579D02*
X8830777Y-14852531D01*
X8830777Y-14852531D02*
X8840301Y-14843008D01*
X8840301Y-14843008D02*
X8859348Y-14833484D01*
X9097444Y-14900150D02*
X9097444Y-15033484D01*
X9049825Y-14823960D02*
X9002206Y-14966817D01*
X9002206Y-14966817D02*
X9126015Y-14966817D01*
X9183158Y-14833484D02*
X9306968Y-14833484D01*
X9306968Y-14833484D02*
X9240301Y-14909674D01*
X9240301Y-14909674D02*
X9268872Y-14909674D01*
X9268872Y-14909674D02*
X9287920Y-14919198D01*
X9287920Y-14919198D02*
X9297444Y-14928722D01*
X9297444Y-14928722D02*
X9306968Y-14947769D01*
X9306968Y-14947769D02*
X9306968Y-14995388D01*
X9306968Y-14995388D02*
X9297444Y-15014436D01*
X9297444Y-15014436D02*
X9287920Y-15023960D01*
X9287920Y-15023960D02*
X9268872Y-15033484D01*
X9268872Y-15033484D02*
X9211729Y-15033484D01*
X9211729Y-15033484D02*
X9192682Y-15023960D01*
X9192682Y-15023960D02*
X9183158Y-15014436D01*
X9373634Y-14833484D02*
X9497444Y-14833484D01*
X9497444Y-14833484D02*
X9430777Y-14909674D01*
X9430777Y-14909674D02*
X9459349Y-14909674D01*
X9459349Y-14909674D02*
X9478396Y-14919198D01*
X9478396Y-14919198D02*
X9487920Y-14928722D01*
X9487920Y-14928722D02*
X9497444Y-14947769D01*
X9497444Y-14947769D02*
X9497444Y-14995388D01*
X9497444Y-14995388D02*
X9487920Y-15014436D01*
X9487920Y-15014436D02*
X9478396Y-15023960D01*
X9478396Y-15023960D02*
X9459349Y-15033484D01*
X9459349Y-15033484D02*
X9402206Y-15033484D01*
X9402206Y-15033484D02*
X9383158Y-15023960D01*
X9383158Y-15023960D02*
X9373634Y-15014436D01*
X9573634Y-14833484D02*
X9573634Y-14871579D01*
X9649825Y-14833484D02*
X9649825Y-14871579D01*
X9945063Y-15109674D02*
X9935539Y-15100150D01*
X9935539Y-15100150D02*
X9916491Y-15071579D01*
X9916491Y-15071579D02*
X9906968Y-15052531D01*
X9906968Y-15052531D02*
X9897444Y-15023960D01*
X9897444Y-15023960D02*
X9887920Y-14976341D01*
X9887920Y-14976341D02*
X9887920Y-14938246D01*
X9887920Y-14938246D02*
X9897444Y-14890627D01*
X9897444Y-14890627D02*
X9906968Y-14862055D01*
X9906968Y-14862055D02*
X9916491Y-14843008D01*
X9916491Y-14843008D02*
X9935539Y-14814436D01*
X9935539Y-14814436D02*
X9945063Y-14804912D01*
X10126015Y-15033484D02*
X10011730Y-15033484D01*
X10068872Y-15033484D02*
X10068872Y-14833484D01*
X10068872Y-14833484D02*
X10049825Y-14862055D01*
X10049825Y-14862055D02*
X10030777Y-14881103D01*
X10030777Y-14881103D02*
X10011730Y-14890627D01*
X10364111Y-15033484D02*
X10364111Y-14833484D01*
X10449825Y-15033484D02*
X10449825Y-14928722D01*
X10449825Y-14928722D02*
X10440301Y-14909674D01*
X10440301Y-14909674D02*
X10421253Y-14900150D01*
X10421253Y-14900150D02*
X10392682Y-14900150D01*
X10392682Y-14900150D02*
X10373634Y-14909674D01*
X10373634Y-14909674D02*
X10364111Y-14919198D01*
X10573634Y-15033484D02*
X10554587Y-15023960D01*
X10554587Y-15023960D02*
X10545063Y-15014436D01*
X10545063Y-15014436D02*
X10535539Y-14995388D01*
X10535539Y-14995388D02*
X10535539Y-14938246D01*
X10535539Y-14938246D02*
X10545063Y-14919198D01*
X10545063Y-14919198D02*
X10554587Y-14909674D01*
X10554587Y-14909674D02*
X10573634Y-14900150D01*
X10573634Y-14900150D02*
X10602206Y-14900150D01*
X10602206Y-14900150D02*
X10621253Y-14909674D01*
X10621253Y-14909674D02*
X10630777Y-14919198D01*
X10630777Y-14919198D02*
X10640301Y-14938246D01*
X10640301Y-14938246D02*
X10640301Y-14995388D01*
X10640301Y-14995388D02*
X10630777Y-15014436D01*
X10630777Y-15014436D02*
X10621253Y-15023960D01*
X10621253Y-15023960D02*
X10602206Y-15033484D01*
X10602206Y-15033484D02*
X10573634Y-15033484D01*
X10754587Y-15033484D02*
X10735539Y-15023960D01*
X10735539Y-15023960D02*
X10726015Y-15004912D01*
X10726015Y-15004912D02*
X10726015Y-14833484D01*
X10906968Y-15023960D02*
X10887920Y-15033484D01*
X10887920Y-15033484D02*
X10849825Y-15033484D01*
X10849825Y-15033484D02*
X10830777Y-15023960D01*
X10830777Y-15023960D02*
X10821253Y-15004912D01*
X10821253Y-15004912D02*
X10821253Y-14928722D01*
X10821253Y-14928722D02*
X10830777Y-14909674D01*
X10830777Y-14909674D02*
X10849825Y-14900150D01*
X10849825Y-14900150D02*
X10887920Y-14900150D01*
X10887920Y-14900150D02*
X10906968Y-14909674D01*
X10906968Y-14909674D02*
X10916492Y-14928722D01*
X10916492Y-14928722D02*
X10916492Y-14947769D01*
X10916492Y-14947769D02*
X10821253Y-14966817D01*
X10983158Y-15109674D02*
X10992682Y-15100150D01*
X10992682Y-15100150D02*
X11011730Y-15071579D01*
X11011730Y-15071579D02*
X11021253Y-15052531D01*
X11021253Y-15052531D02*
X11030777Y-15023960D01*
X11030777Y-15023960D02*
X11040301Y-14976341D01*
X11040301Y-14976341D02*
X11040301Y-14938246D01*
X11040301Y-14938246D02*
X11030777Y-14890627D01*
X11030777Y-14890627D02*
X11021253Y-14862055D01*
X11021253Y-14862055D02*
X11011730Y-14843008D01*
X11011730Y-14843008D02*
X10992682Y-14814436D01*
X10992682Y-14814436D02*
X10983158Y-14804912D01*
X11345063Y-15109674D02*
X11335539Y-15100150D01*
X11335539Y-15100150D02*
X11316491Y-15071579D01*
X11316491Y-15071579D02*
X11306968Y-15052531D01*
X11306968Y-15052531D02*
X11297444Y-15023960D01*
X11297444Y-15023960D02*
X11287920Y-14976341D01*
X11287920Y-14976341D02*
X11287920Y-14938246D01*
X11287920Y-14938246D02*
X11297444Y-14890627D01*
X11297444Y-14890627D02*
X11306968Y-14862055D01*
X11306968Y-14862055D02*
X11316491Y-14843008D01*
X11316491Y-14843008D02*
X11335539Y-14814436D01*
X11335539Y-14814436D02*
X11345063Y-14804912D01*
X11421253Y-14900150D02*
X11421253Y-15033484D01*
X11421253Y-14919198D02*
X11430777Y-14909674D01*
X11430777Y-14909674D02*
X11449825Y-14900150D01*
X11449825Y-14900150D02*
X11478396Y-14900150D01*
X11478396Y-14900150D02*
X11497444Y-14909674D01*
X11497444Y-14909674D02*
X11506968Y-14928722D01*
X11506968Y-14928722D02*
X11506968Y-15033484D01*
X11630777Y-15033484D02*
X11611730Y-15023960D01*
X11611730Y-15023960D02*
X11602206Y-15014436D01*
X11602206Y-15014436D02*
X11592682Y-14995388D01*
X11592682Y-14995388D02*
X11592682Y-14938246D01*
X11592682Y-14938246D02*
X11602206Y-14919198D01*
X11602206Y-14919198D02*
X11611730Y-14909674D01*
X11611730Y-14909674D02*
X11630777Y-14900150D01*
X11630777Y-14900150D02*
X11659349Y-14900150D01*
X11659349Y-14900150D02*
X11678396Y-14909674D01*
X11678396Y-14909674D02*
X11687920Y-14919198D01*
X11687920Y-14919198D02*
X11697444Y-14938246D01*
X11697444Y-14938246D02*
X11697444Y-14995388D01*
X11697444Y-14995388D02*
X11687920Y-15014436D01*
X11687920Y-15014436D02*
X11678396Y-15023960D01*
X11678396Y-15023960D02*
X11659349Y-15033484D01*
X11659349Y-15033484D02*
X11630777Y-15033484D01*
X11754587Y-14900150D02*
X11830777Y-14900150D01*
X11783158Y-14833484D02*
X11783158Y-15004912D01*
X11783158Y-15004912D02*
X11792682Y-15023960D01*
X11792682Y-15023960D02*
X11811730Y-15033484D01*
X11811730Y-15033484D02*
X11830777Y-15033484D01*
X12049825Y-14900150D02*
X12049825Y-15100150D01*
X12049825Y-14909674D02*
X12068872Y-14900150D01*
X12068872Y-14900150D02*
X12106968Y-14900150D01*
X12106968Y-14900150D02*
X12126015Y-14909674D01*
X12126015Y-14909674D02*
X12135539Y-14919198D01*
X12135539Y-14919198D02*
X12145063Y-14938246D01*
X12145063Y-14938246D02*
X12145063Y-14995388D01*
X12145063Y-14995388D02*
X12135539Y-15014436D01*
X12135539Y-15014436D02*
X12126015Y-15023960D01*
X12126015Y-15023960D02*
X12106968Y-15033484D01*
X12106968Y-15033484D02*
X12068872Y-15033484D01*
X12068872Y-15033484D02*
X12049825Y-15023960D01*
X12259349Y-15033484D02*
X12240301Y-15023960D01*
X12240301Y-15023960D02*
X12230777Y-15004912D01*
X12230777Y-15004912D02*
X12230777Y-14833484D01*
X12421253Y-15033484D02*
X12421253Y-14928722D01*
X12421253Y-14928722D02*
X12411730Y-14909674D01*
X12411730Y-14909674D02*
X12392682Y-14900150D01*
X12392682Y-14900150D02*
X12354587Y-14900150D01*
X12354587Y-14900150D02*
X12335539Y-14909674D01*
X12421253Y-15023960D02*
X12402206Y-15033484D01*
X12402206Y-15033484D02*
X12354587Y-15033484D01*
X12354587Y-15033484D02*
X12335539Y-15023960D01*
X12335539Y-15023960D02*
X12326015Y-15004912D01*
X12326015Y-15004912D02*
X12326015Y-14985865D01*
X12326015Y-14985865D02*
X12335539Y-14966817D01*
X12335539Y-14966817D02*
X12354587Y-14957293D01*
X12354587Y-14957293D02*
X12402206Y-14957293D01*
X12402206Y-14957293D02*
X12421253Y-14947769D01*
X12487920Y-14900150D02*
X12564111Y-14900150D01*
X12516492Y-14833484D02*
X12516492Y-15004912D01*
X12516492Y-15004912D02*
X12526015Y-15023960D01*
X12526015Y-15023960D02*
X12545063Y-15033484D01*
X12545063Y-15033484D02*
X12564111Y-15033484D01*
X12706968Y-15023960D02*
X12687920Y-15033484D01*
X12687920Y-15033484D02*
X12649825Y-15033484D01*
X12649825Y-15033484D02*
X12630777Y-15023960D01*
X12630777Y-15023960D02*
X12621253Y-15004912D01*
X12621253Y-15004912D02*
X12621253Y-14928722D01*
X12621253Y-14928722D02*
X12630777Y-14909674D01*
X12630777Y-14909674D02*
X12649825Y-14900150D01*
X12649825Y-14900150D02*
X12687920Y-14900150D01*
X12687920Y-14900150D02*
X12706968Y-14909674D01*
X12706968Y-14909674D02*
X12716492Y-14928722D01*
X12716492Y-14928722D02*
X12716492Y-14947769D01*
X12716492Y-14947769D02*
X12621253Y-14966817D01*
X12887920Y-15033484D02*
X12887920Y-14833484D01*
X12887920Y-15023960D02*
X12868873Y-15033484D01*
X12868873Y-15033484D02*
X12830777Y-15033484D01*
X12830777Y-15033484D02*
X12811730Y-15023960D01*
X12811730Y-15023960D02*
X12802206Y-15014436D01*
X12802206Y-15014436D02*
X12792682Y-14995388D01*
X12792682Y-14995388D02*
X12792682Y-14938246D01*
X12792682Y-14938246D02*
X12802206Y-14919198D01*
X12802206Y-14919198D02*
X12811730Y-14909674D01*
X12811730Y-14909674D02*
X12830777Y-14900150D01*
X12830777Y-14900150D02*
X12868873Y-14900150D01*
X12868873Y-14900150D02*
X12887920Y-14909674D01*
X12964111Y-15109674D02*
X12973634Y-15100150D01*
X12973634Y-15100150D02*
X12992682Y-15071579D01*
X12992682Y-15071579D02*
X13002206Y-15052531D01*
X13002206Y-15052531D02*
X13011730Y-15023960D01*
X13011730Y-15023960D02*
X13021253Y-14976341D01*
X13021253Y-14976341D02*
X13021253Y-14938246D01*
X13021253Y-14938246D02*
X13011730Y-14890627D01*
X13011730Y-14890627D02*
X13002206Y-14862055D01*
X13002206Y-14862055D02*
X12992682Y-14843008D01*
X12992682Y-14843008D02*
X12973634Y-14814436D01*
X12973634Y-14814436D02*
X12964111Y-14804912D01*
D14*
X6290000Y-15286000D02*
X6370000Y-15206000D01*
X6290000Y-15126000D01*
X6210000Y-15206000D01*
X6290000Y-15286000D01*
D11*
X6735539Y-15297484D02*
X6621253Y-15297484D01*
X6678396Y-15297484D02*
X6678396Y-15097484D01*
X6678396Y-15097484D02*
X6659348Y-15126055D01*
X6659348Y-15126055D02*
X6640301Y-15145103D01*
X6640301Y-15145103D02*
X6621253Y-15154627D01*
X6821253Y-15278436D02*
X6830777Y-15287960D01*
X6830777Y-15287960D02*
X6821253Y-15297484D01*
X6821253Y-15297484D02*
X6811729Y-15287960D01*
X6811729Y-15287960D02*
X6821253Y-15278436D01*
X6821253Y-15278436D02*
X6821253Y-15297484D01*
X7002205Y-15097484D02*
X6964110Y-15097484D01*
X6964110Y-15097484D02*
X6945062Y-15107008D01*
X6945062Y-15107008D02*
X6935539Y-15116531D01*
X6935539Y-15116531D02*
X6916491Y-15145103D01*
X6916491Y-15145103D02*
X6906967Y-15183198D01*
X6906967Y-15183198D02*
X6906967Y-15259388D01*
X6906967Y-15259388D02*
X6916491Y-15278436D01*
X6916491Y-15278436D02*
X6926015Y-15287960D01*
X6926015Y-15287960D02*
X6945062Y-15297484D01*
X6945062Y-15297484D02*
X6983158Y-15297484D01*
X6983158Y-15297484D02*
X7002205Y-15287960D01*
X7002205Y-15287960D02*
X7011729Y-15278436D01*
X7011729Y-15278436D02*
X7021253Y-15259388D01*
X7021253Y-15259388D02*
X7021253Y-15211769D01*
X7021253Y-15211769D02*
X7011729Y-15192722D01*
X7011729Y-15192722D02*
X7002205Y-15183198D01*
X7002205Y-15183198D02*
X6983158Y-15173674D01*
X6983158Y-15173674D02*
X6945062Y-15173674D01*
X6945062Y-15173674D02*
X6926015Y-15183198D01*
X6926015Y-15183198D02*
X6916491Y-15192722D01*
X6916491Y-15192722D02*
X6906967Y-15211769D01*
X7145062Y-15097484D02*
X7164110Y-15097484D01*
X7164110Y-15097484D02*
X7183158Y-15107008D01*
X7183158Y-15107008D02*
X7192682Y-15116531D01*
X7192682Y-15116531D02*
X7202205Y-15135579D01*
X7202205Y-15135579D02*
X7211729Y-15173674D01*
X7211729Y-15173674D02*
X7211729Y-15221293D01*
X7211729Y-15221293D02*
X7202205Y-15259388D01*
X7202205Y-15259388D02*
X7192682Y-15278436D01*
X7192682Y-15278436D02*
X7183158Y-15287960D01*
X7183158Y-15287960D02*
X7164110Y-15297484D01*
X7164110Y-15297484D02*
X7145062Y-15297484D01*
X7145062Y-15297484D02*
X7126015Y-15287960D01*
X7126015Y-15287960D02*
X7116491Y-15278436D01*
X7116491Y-15278436D02*
X7106967Y-15259388D01*
X7106967Y-15259388D02*
X7097443Y-15221293D01*
X7097443Y-15221293D02*
X7097443Y-15173674D01*
X7097443Y-15173674D02*
X7106967Y-15135579D01*
X7106967Y-15135579D02*
X7116491Y-15116531D01*
X7116491Y-15116531D02*
X7126015Y-15107008D01*
X7126015Y-15107008D02*
X7145062Y-15097484D01*
X7335539Y-15097484D02*
X7354586Y-15097484D01*
X7354586Y-15097484D02*
X7373634Y-15107008D01*
X7373634Y-15107008D02*
X7383158Y-15116531D01*
X7383158Y-15116531D02*
X7392682Y-15135579D01*
X7392682Y-15135579D02*
X7402205Y-15173674D01*
X7402205Y-15173674D02*
X7402205Y-15221293D01*
X7402205Y-15221293D02*
X7392682Y-15259388D01*
X7392682Y-15259388D02*
X7383158Y-15278436D01*
X7383158Y-15278436D02*
X7373634Y-15287960D01*
X7373634Y-15287960D02*
X7354586Y-15297484D01*
X7354586Y-15297484D02*
X7335539Y-15297484D01*
X7335539Y-15297484D02*
X7316491Y-15287960D01*
X7316491Y-15287960D02*
X7306967Y-15278436D01*
X7306967Y-15278436D02*
X7297443Y-15259388D01*
X7297443Y-15259388D02*
X7287920Y-15221293D01*
X7287920Y-15221293D02*
X7287920Y-15173674D01*
X7287920Y-15173674D02*
X7297443Y-15135579D01*
X7297443Y-15135579D02*
X7306967Y-15116531D01*
X7306967Y-15116531D02*
X7316491Y-15107008D01*
X7316491Y-15107008D02*
X7335539Y-15097484D01*
X7487920Y-15297484D02*
X7487920Y-15164150D01*
X7487920Y-15183198D02*
X7497443Y-15173674D01*
X7497443Y-15173674D02*
X7516491Y-15164150D01*
X7516491Y-15164150D02*
X7545063Y-15164150D01*
X7545063Y-15164150D02*
X7564110Y-15173674D01*
X7564110Y-15173674D02*
X7573634Y-15192722D01*
X7573634Y-15192722D02*
X7573634Y-15297484D01*
X7573634Y-15192722D02*
X7583158Y-15173674D01*
X7583158Y-15173674D02*
X7602205Y-15164150D01*
X7602205Y-15164150D02*
X7630777Y-15164150D01*
X7630777Y-15164150D02*
X7649824Y-15173674D01*
X7649824Y-15173674D02*
X7659348Y-15192722D01*
X7659348Y-15192722D02*
X7659348Y-15297484D01*
X7754586Y-15297484D02*
X7754586Y-15164150D01*
X7754586Y-15183198D02*
X7764110Y-15173674D01*
X7764110Y-15173674D02*
X7783158Y-15164150D01*
X7783158Y-15164150D02*
X7811729Y-15164150D01*
X7811729Y-15164150D02*
X7830777Y-15173674D01*
X7830777Y-15173674D02*
X7840301Y-15192722D01*
X7840301Y-15192722D02*
X7840301Y-15297484D01*
X7840301Y-15192722D02*
X7849824Y-15173674D01*
X7849824Y-15173674D02*
X7868872Y-15164150D01*
X7868872Y-15164150D02*
X7897443Y-15164150D01*
X7897443Y-15164150D02*
X7916491Y-15173674D01*
X7916491Y-15173674D02*
X7926015Y-15192722D01*
X7926015Y-15192722D02*
X7926015Y-15297484D01*
X8316491Y-15087960D02*
X8145063Y-15345103D01*
X8573634Y-15097484D02*
X8592682Y-15097484D01*
X8592682Y-15097484D02*
X8611729Y-15107008D01*
X8611729Y-15107008D02*
X8621253Y-15116531D01*
X8621253Y-15116531D02*
X8630777Y-15135579D01*
X8630777Y-15135579D02*
X8640301Y-15173674D01*
X8640301Y-15173674D02*
X8640301Y-15221293D01*
X8640301Y-15221293D02*
X8630777Y-15259388D01*
X8630777Y-15259388D02*
X8621253Y-15278436D01*
X8621253Y-15278436D02*
X8611729Y-15287960D01*
X8611729Y-15287960D02*
X8592682Y-15297484D01*
X8592682Y-15297484D02*
X8573634Y-15297484D01*
X8573634Y-15297484D02*
X8554587Y-15287960D01*
X8554587Y-15287960D02*
X8545063Y-15278436D01*
X8545063Y-15278436D02*
X8535539Y-15259388D01*
X8535539Y-15259388D02*
X8526015Y-15221293D01*
X8526015Y-15221293D02*
X8526015Y-15173674D01*
X8526015Y-15173674D02*
X8535539Y-15135579D01*
X8535539Y-15135579D02*
X8545063Y-15116531D01*
X8545063Y-15116531D02*
X8554587Y-15107008D01*
X8554587Y-15107008D02*
X8573634Y-15097484D01*
X8726015Y-15278436D02*
X8735539Y-15287960D01*
X8735539Y-15287960D02*
X8726015Y-15297484D01*
X8726015Y-15297484D02*
X8716491Y-15287960D01*
X8716491Y-15287960D02*
X8726015Y-15278436D01*
X8726015Y-15278436D02*
X8726015Y-15297484D01*
X8859348Y-15097484D02*
X8878396Y-15097484D01*
X8878396Y-15097484D02*
X8897444Y-15107008D01*
X8897444Y-15107008D02*
X8906968Y-15116531D01*
X8906968Y-15116531D02*
X8916491Y-15135579D01*
X8916491Y-15135579D02*
X8926015Y-15173674D01*
X8926015Y-15173674D02*
X8926015Y-15221293D01*
X8926015Y-15221293D02*
X8916491Y-15259388D01*
X8916491Y-15259388D02*
X8906968Y-15278436D01*
X8906968Y-15278436D02*
X8897444Y-15287960D01*
X8897444Y-15287960D02*
X8878396Y-15297484D01*
X8878396Y-15297484D02*
X8859348Y-15297484D01*
X8859348Y-15297484D02*
X8840301Y-15287960D01*
X8840301Y-15287960D02*
X8830777Y-15278436D01*
X8830777Y-15278436D02*
X8821253Y-15259388D01*
X8821253Y-15259388D02*
X8811729Y-15221293D01*
X8811729Y-15221293D02*
X8811729Y-15173674D01*
X8811729Y-15173674D02*
X8821253Y-15135579D01*
X8821253Y-15135579D02*
X8830777Y-15116531D01*
X8830777Y-15116531D02*
X8840301Y-15107008D01*
X8840301Y-15107008D02*
X8859348Y-15097484D01*
X9097444Y-15097484D02*
X9059348Y-15097484D01*
X9059348Y-15097484D02*
X9040301Y-15107008D01*
X9040301Y-15107008D02*
X9030777Y-15116531D01*
X9030777Y-15116531D02*
X9011729Y-15145103D01*
X9011729Y-15145103D02*
X9002206Y-15183198D01*
X9002206Y-15183198D02*
X9002206Y-15259388D01*
X9002206Y-15259388D02*
X9011729Y-15278436D01*
X9011729Y-15278436D02*
X9021253Y-15287960D01*
X9021253Y-15287960D02*
X9040301Y-15297484D01*
X9040301Y-15297484D02*
X9078396Y-15297484D01*
X9078396Y-15297484D02*
X9097444Y-15287960D01*
X9097444Y-15287960D02*
X9106968Y-15278436D01*
X9106968Y-15278436D02*
X9116491Y-15259388D01*
X9116491Y-15259388D02*
X9116491Y-15211769D01*
X9116491Y-15211769D02*
X9106968Y-15192722D01*
X9106968Y-15192722D02*
X9097444Y-15183198D01*
X9097444Y-15183198D02*
X9078396Y-15173674D01*
X9078396Y-15173674D02*
X9040301Y-15173674D01*
X9040301Y-15173674D02*
X9021253Y-15183198D01*
X9021253Y-15183198D02*
X9011729Y-15192722D01*
X9011729Y-15192722D02*
X9002206Y-15211769D01*
X9183158Y-15097484D02*
X9306968Y-15097484D01*
X9306968Y-15097484D02*
X9240301Y-15173674D01*
X9240301Y-15173674D02*
X9268872Y-15173674D01*
X9268872Y-15173674D02*
X9287920Y-15183198D01*
X9287920Y-15183198D02*
X9297444Y-15192722D01*
X9297444Y-15192722D02*
X9306968Y-15211769D01*
X9306968Y-15211769D02*
X9306968Y-15259388D01*
X9306968Y-15259388D02*
X9297444Y-15278436D01*
X9297444Y-15278436D02*
X9287920Y-15287960D01*
X9287920Y-15287960D02*
X9268872Y-15297484D01*
X9268872Y-15297484D02*
X9211729Y-15297484D01*
X9211729Y-15297484D02*
X9192682Y-15287960D01*
X9192682Y-15287960D02*
X9183158Y-15278436D01*
X9430777Y-15097484D02*
X9449825Y-15097484D01*
X9449825Y-15097484D02*
X9468872Y-15107008D01*
X9468872Y-15107008D02*
X9478396Y-15116531D01*
X9478396Y-15116531D02*
X9487920Y-15135579D01*
X9487920Y-15135579D02*
X9497444Y-15173674D01*
X9497444Y-15173674D02*
X9497444Y-15221293D01*
X9497444Y-15221293D02*
X9487920Y-15259388D01*
X9487920Y-15259388D02*
X9478396Y-15278436D01*
X9478396Y-15278436D02*
X9468872Y-15287960D01*
X9468872Y-15287960D02*
X9449825Y-15297484D01*
X9449825Y-15297484D02*
X9430777Y-15297484D01*
X9430777Y-15297484D02*
X9411729Y-15287960D01*
X9411729Y-15287960D02*
X9402206Y-15278436D01*
X9402206Y-15278436D02*
X9392682Y-15259388D01*
X9392682Y-15259388D02*
X9383158Y-15221293D01*
X9383158Y-15221293D02*
X9383158Y-15173674D01*
X9383158Y-15173674D02*
X9392682Y-15135579D01*
X9392682Y-15135579D02*
X9402206Y-15116531D01*
X9402206Y-15116531D02*
X9411729Y-15107008D01*
X9411729Y-15107008D02*
X9430777Y-15097484D01*
X9573634Y-15097484D02*
X9573634Y-15135579D01*
X9649825Y-15097484D02*
X9649825Y-15135579D01*
X9945063Y-15373674D02*
X9935539Y-15364150D01*
X9935539Y-15364150D02*
X9916491Y-15335579D01*
X9916491Y-15335579D02*
X9906968Y-15316531D01*
X9906968Y-15316531D02*
X9897444Y-15287960D01*
X9897444Y-15287960D02*
X9887920Y-15240341D01*
X9887920Y-15240341D02*
X9887920Y-15202246D01*
X9887920Y-15202246D02*
X9897444Y-15154627D01*
X9897444Y-15154627D02*
X9906968Y-15126055D01*
X9906968Y-15126055D02*
X9916491Y-15107008D01*
X9916491Y-15107008D02*
X9935539Y-15078436D01*
X9935539Y-15078436D02*
X9945063Y-15068912D01*
X10126015Y-15297484D02*
X10011730Y-15297484D01*
X10068872Y-15297484D02*
X10068872Y-15097484D01*
X10068872Y-15097484D02*
X10049825Y-15126055D01*
X10049825Y-15126055D02*
X10030777Y-15145103D01*
X10030777Y-15145103D02*
X10011730Y-15154627D01*
X10364111Y-15297484D02*
X10364111Y-15097484D01*
X10449825Y-15297484D02*
X10449825Y-15192722D01*
X10449825Y-15192722D02*
X10440301Y-15173674D01*
X10440301Y-15173674D02*
X10421253Y-15164150D01*
X10421253Y-15164150D02*
X10392682Y-15164150D01*
X10392682Y-15164150D02*
X10373634Y-15173674D01*
X10373634Y-15173674D02*
X10364111Y-15183198D01*
X10573634Y-15297484D02*
X10554587Y-15287960D01*
X10554587Y-15287960D02*
X10545063Y-15278436D01*
X10545063Y-15278436D02*
X10535539Y-15259388D01*
X10535539Y-15259388D02*
X10535539Y-15202246D01*
X10535539Y-15202246D02*
X10545063Y-15183198D01*
X10545063Y-15183198D02*
X10554587Y-15173674D01*
X10554587Y-15173674D02*
X10573634Y-15164150D01*
X10573634Y-15164150D02*
X10602206Y-15164150D01*
X10602206Y-15164150D02*
X10621253Y-15173674D01*
X10621253Y-15173674D02*
X10630777Y-15183198D01*
X10630777Y-15183198D02*
X10640301Y-15202246D01*
X10640301Y-15202246D02*
X10640301Y-15259388D01*
X10640301Y-15259388D02*
X10630777Y-15278436D01*
X10630777Y-15278436D02*
X10621253Y-15287960D01*
X10621253Y-15287960D02*
X10602206Y-15297484D01*
X10602206Y-15297484D02*
X10573634Y-15297484D01*
X10754587Y-15297484D02*
X10735539Y-15287960D01*
X10735539Y-15287960D02*
X10726015Y-15268912D01*
X10726015Y-15268912D02*
X10726015Y-15097484D01*
X10906968Y-15287960D02*
X10887920Y-15297484D01*
X10887920Y-15297484D02*
X10849825Y-15297484D01*
X10849825Y-15297484D02*
X10830777Y-15287960D01*
X10830777Y-15287960D02*
X10821253Y-15268912D01*
X10821253Y-15268912D02*
X10821253Y-15192722D01*
X10821253Y-15192722D02*
X10830777Y-15173674D01*
X10830777Y-15173674D02*
X10849825Y-15164150D01*
X10849825Y-15164150D02*
X10887920Y-15164150D01*
X10887920Y-15164150D02*
X10906968Y-15173674D01*
X10906968Y-15173674D02*
X10916492Y-15192722D01*
X10916492Y-15192722D02*
X10916492Y-15211769D01*
X10916492Y-15211769D02*
X10821253Y-15230817D01*
X10983158Y-15373674D02*
X10992682Y-15364150D01*
X10992682Y-15364150D02*
X11011730Y-15335579D01*
X11011730Y-15335579D02*
X11021253Y-15316531D01*
X11021253Y-15316531D02*
X11030777Y-15287960D01*
X11030777Y-15287960D02*
X11040301Y-15240341D01*
X11040301Y-15240341D02*
X11040301Y-15202246D01*
X11040301Y-15202246D02*
X11030777Y-15154627D01*
X11030777Y-15154627D02*
X11021253Y-15126055D01*
X11021253Y-15126055D02*
X11011730Y-15107008D01*
X11011730Y-15107008D02*
X10992682Y-15078436D01*
X10992682Y-15078436D02*
X10983158Y-15068912D01*
X11345063Y-15373674D02*
X11335539Y-15364150D01*
X11335539Y-15364150D02*
X11316491Y-15335579D01*
X11316491Y-15335579D02*
X11306968Y-15316531D01*
X11306968Y-15316531D02*
X11297444Y-15287960D01*
X11297444Y-15287960D02*
X11287920Y-15240341D01*
X11287920Y-15240341D02*
X11287920Y-15202246D01*
X11287920Y-15202246D02*
X11297444Y-15154627D01*
X11297444Y-15154627D02*
X11306968Y-15126055D01*
X11306968Y-15126055D02*
X11316491Y-15107008D01*
X11316491Y-15107008D02*
X11335539Y-15078436D01*
X11335539Y-15078436D02*
X11345063Y-15068912D01*
X11421253Y-15164150D02*
X11421253Y-15297484D01*
X11421253Y-15183198D02*
X11430777Y-15173674D01*
X11430777Y-15173674D02*
X11449825Y-15164150D01*
X11449825Y-15164150D02*
X11478396Y-15164150D01*
X11478396Y-15164150D02*
X11497444Y-15173674D01*
X11497444Y-15173674D02*
X11506968Y-15192722D01*
X11506968Y-15192722D02*
X11506968Y-15297484D01*
X11630777Y-15297484D02*
X11611730Y-15287960D01*
X11611730Y-15287960D02*
X11602206Y-15278436D01*
X11602206Y-15278436D02*
X11592682Y-15259388D01*
X11592682Y-15259388D02*
X11592682Y-15202246D01*
X11592682Y-15202246D02*
X11602206Y-15183198D01*
X11602206Y-15183198D02*
X11611730Y-15173674D01*
X11611730Y-15173674D02*
X11630777Y-15164150D01*
X11630777Y-15164150D02*
X11659349Y-15164150D01*
X11659349Y-15164150D02*
X11678396Y-15173674D01*
X11678396Y-15173674D02*
X11687920Y-15183198D01*
X11687920Y-15183198D02*
X11697444Y-15202246D01*
X11697444Y-15202246D02*
X11697444Y-15259388D01*
X11697444Y-15259388D02*
X11687920Y-15278436D01*
X11687920Y-15278436D02*
X11678396Y-15287960D01*
X11678396Y-15287960D02*
X11659349Y-15297484D01*
X11659349Y-15297484D02*
X11630777Y-15297484D01*
X11754587Y-15164150D02*
X11830777Y-15164150D01*
X11783158Y-15097484D02*
X11783158Y-15268912D01*
X11783158Y-15268912D02*
X11792682Y-15287960D01*
X11792682Y-15287960D02*
X11811730Y-15297484D01*
X11811730Y-15297484D02*
X11830777Y-15297484D01*
X12049825Y-15164150D02*
X12049825Y-15364150D01*
X12049825Y-15173674D02*
X12068872Y-15164150D01*
X12068872Y-15164150D02*
X12106968Y-15164150D01*
X12106968Y-15164150D02*
X12126015Y-15173674D01*
X12126015Y-15173674D02*
X12135539Y-15183198D01*
X12135539Y-15183198D02*
X12145063Y-15202246D01*
X12145063Y-15202246D02*
X12145063Y-15259388D01*
X12145063Y-15259388D02*
X12135539Y-15278436D01*
X12135539Y-15278436D02*
X12126015Y-15287960D01*
X12126015Y-15287960D02*
X12106968Y-15297484D01*
X12106968Y-15297484D02*
X12068872Y-15297484D01*
X12068872Y-15297484D02*
X12049825Y-15287960D01*
X12259349Y-15297484D02*
X12240301Y-15287960D01*
X12240301Y-15287960D02*
X12230777Y-15268912D01*
X12230777Y-15268912D02*
X12230777Y-15097484D01*
X12421253Y-15297484D02*
X12421253Y-15192722D01*
X12421253Y-15192722D02*
X12411730Y-15173674D01*
X12411730Y-15173674D02*
X12392682Y-15164150D01*
X12392682Y-15164150D02*
X12354587Y-15164150D01*
X12354587Y-15164150D02*
X12335539Y-15173674D01*
X12421253Y-15287960D02*
X12402206Y-15297484D01*
X12402206Y-15297484D02*
X12354587Y-15297484D01*
X12354587Y-15297484D02*
X12335539Y-15287960D01*
X12335539Y-15287960D02*
X12326015Y-15268912D01*
X12326015Y-15268912D02*
X12326015Y-15249865D01*
X12326015Y-15249865D02*
X12335539Y-15230817D01*
X12335539Y-15230817D02*
X12354587Y-15221293D01*
X12354587Y-15221293D02*
X12402206Y-15221293D01*
X12402206Y-15221293D02*
X12421253Y-15211769D01*
X12487920Y-15164150D02*
X12564111Y-15164150D01*
X12516492Y-15097484D02*
X12516492Y-15268912D01*
X12516492Y-15268912D02*
X12526015Y-15287960D01*
X12526015Y-15287960D02*
X12545063Y-15297484D01*
X12545063Y-15297484D02*
X12564111Y-15297484D01*
X12706968Y-15287960D02*
X12687920Y-15297484D01*
X12687920Y-15297484D02*
X12649825Y-15297484D01*
X12649825Y-15297484D02*
X12630777Y-15287960D01*
X12630777Y-15287960D02*
X12621253Y-15268912D01*
X12621253Y-15268912D02*
X12621253Y-15192722D01*
X12621253Y-15192722D02*
X12630777Y-15173674D01*
X12630777Y-15173674D02*
X12649825Y-15164150D01*
X12649825Y-15164150D02*
X12687920Y-15164150D01*
X12687920Y-15164150D02*
X12706968Y-15173674D01*
X12706968Y-15173674D02*
X12716492Y-15192722D01*
X12716492Y-15192722D02*
X12716492Y-15211769D01*
X12716492Y-15211769D02*
X12621253Y-15230817D01*
X12887920Y-15297484D02*
X12887920Y-15097484D01*
X12887920Y-15287960D02*
X12868873Y-15297484D01*
X12868873Y-15297484D02*
X12830777Y-15297484D01*
X12830777Y-15297484D02*
X12811730Y-15287960D01*
X12811730Y-15287960D02*
X12802206Y-15278436D01*
X12802206Y-15278436D02*
X12792682Y-15259388D01*
X12792682Y-15259388D02*
X12792682Y-15202246D01*
X12792682Y-15202246D02*
X12802206Y-15183198D01*
X12802206Y-15183198D02*
X12811730Y-15173674D01*
X12811730Y-15173674D02*
X12830777Y-15164150D01*
X12830777Y-15164150D02*
X12868873Y-15164150D01*
X12868873Y-15164150D02*
X12887920Y-15173674D01*
X12964111Y-15373674D02*
X12973634Y-15364150D01*
X12973634Y-15364150D02*
X12992682Y-15335579D01*
X12992682Y-15335579D02*
X13002206Y-15316531D01*
X13002206Y-15316531D02*
X13011730Y-15287960D01*
X13011730Y-15287960D02*
X13021253Y-15240341D01*
X13021253Y-15240341D02*
X13021253Y-15202246D01*
X13021253Y-15202246D02*
X13011730Y-15154627D01*
X13011730Y-15154627D02*
X13002206Y-15126055D01*
X13002206Y-15126055D02*
X12992682Y-15107008D01*
X12992682Y-15107008D02*
X12973634Y-15078436D01*
X12973634Y-15078436D02*
X12964111Y-15068912D01*
X6170000Y-15386000D02*
X6370000Y-15586000D01*
X6370000Y-15386000D02*
X6170000Y-15586000D01*
X6370000Y-15486000D02*
G75*
G03*
X6370000Y-15486000I-100000J0D01*
G01*
X6611729Y-15377484D02*
X6735539Y-15377484D01*
X6735539Y-15377484D02*
X6668872Y-15453674D01*
X6668872Y-15453674D02*
X6697443Y-15453674D01*
X6697443Y-15453674D02*
X6716491Y-15463198D01*
X6716491Y-15463198D02*
X6726015Y-15472722D01*
X6726015Y-15472722D02*
X6735539Y-15491769D01*
X6735539Y-15491769D02*
X6735539Y-15539388D01*
X6735539Y-15539388D02*
X6726015Y-15558436D01*
X6726015Y-15558436D02*
X6716491Y-15567960D01*
X6716491Y-15567960D02*
X6697443Y-15577484D01*
X6697443Y-15577484D02*
X6640301Y-15577484D01*
X6640301Y-15577484D02*
X6621253Y-15567960D01*
X6621253Y-15567960D02*
X6611729Y-15558436D01*
X6821253Y-15558436D02*
X6830777Y-15567960D01*
X6830777Y-15567960D02*
X6821253Y-15577484D01*
X6821253Y-15577484D02*
X6811729Y-15567960D01*
X6811729Y-15567960D02*
X6821253Y-15558436D01*
X6821253Y-15558436D02*
X6821253Y-15577484D01*
X7011729Y-15377484D02*
X6916491Y-15377484D01*
X6916491Y-15377484D02*
X6906967Y-15472722D01*
X6906967Y-15472722D02*
X6916491Y-15463198D01*
X6916491Y-15463198D02*
X6935539Y-15453674D01*
X6935539Y-15453674D02*
X6983158Y-15453674D01*
X6983158Y-15453674D02*
X7002205Y-15463198D01*
X7002205Y-15463198D02*
X7011729Y-15472722D01*
X7011729Y-15472722D02*
X7021253Y-15491769D01*
X7021253Y-15491769D02*
X7021253Y-15539388D01*
X7021253Y-15539388D02*
X7011729Y-15558436D01*
X7011729Y-15558436D02*
X7002205Y-15567960D01*
X7002205Y-15567960D02*
X6983158Y-15577484D01*
X6983158Y-15577484D02*
X6935539Y-15577484D01*
X6935539Y-15577484D02*
X6916491Y-15567960D01*
X6916491Y-15567960D02*
X6906967Y-15558436D01*
X7145062Y-15377484D02*
X7164110Y-15377484D01*
X7164110Y-15377484D02*
X7183158Y-15387008D01*
X7183158Y-15387008D02*
X7192682Y-15396531D01*
X7192682Y-15396531D02*
X7202205Y-15415579D01*
X7202205Y-15415579D02*
X7211729Y-15453674D01*
X7211729Y-15453674D02*
X7211729Y-15501293D01*
X7211729Y-15501293D02*
X7202205Y-15539388D01*
X7202205Y-15539388D02*
X7192682Y-15558436D01*
X7192682Y-15558436D02*
X7183158Y-15567960D01*
X7183158Y-15567960D02*
X7164110Y-15577484D01*
X7164110Y-15577484D02*
X7145062Y-15577484D01*
X7145062Y-15577484D02*
X7126015Y-15567960D01*
X7126015Y-15567960D02*
X7116491Y-15558436D01*
X7116491Y-15558436D02*
X7106967Y-15539388D01*
X7106967Y-15539388D02*
X7097443Y-15501293D01*
X7097443Y-15501293D02*
X7097443Y-15453674D01*
X7097443Y-15453674D02*
X7106967Y-15415579D01*
X7106967Y-15415579D02*
X7116491Y-15396531D01*
X7116491Y-15396531D02*
X7126015Y-15387008D01*
X7126015Y-15387008D02*
X7145062Y-15377484D01*
X7335539Y-15377484D02*
X7354586Y-15377484D01*
X7354586Y-15377484D02*
X7373634Y-15387008D01*
X7373634Y-15387008D02*
X7383158Y-15396531D01*
X7383158Y-15396531D02*
X7392682Y-15415579D01*
X7392682Y-15415579D02*
X7402205Y-15453674D01*
X7402205Y-15453674D02*
X7402205Y-15501293D01*
X7402205Y-15501293D02*
X7392682Y-15539388D01*
X7392682Y-15539388D02*
X7383158Y-15558436D01*
X7383158Y-15558436D02*
X7373634Y-15567960D01*
X7373634Y-15567960D02*
X7354586Y-15577484D01*
X7354586Y-15577484D02*
X7335539Y-15577484D01*
X7335539Y-15577484D02*
X7316491Y-15567960D01*
X7316491Y-15567960D02*
X7306967Y-15558436D01*
X7306967Y-15558436D02*
X7297443Y-15539388D01*
X7297443Y-15539388D02*
X7287920Y-15501293D01*
X7287920Y-15501293D02*
X7287920Y-15453674D01*
X7287920Y-15453674D02*
X7297443Y-15415579D01*
X7297443Y-15415579D02*
X7306967Y-15396531D01*
X7306967Y-15396531D02*
X7316491Y-15387008D01*
X7316491Y-15387008D02*
X7335539Y-15377484D01*
X7487920Y-15577484D02*
X7487920Y-15444150D01*
X7487920Y-15463198D02*
X7497443Y-15453674D01*
X7497443Y-15453674D02*
X7516491Y-15444150D01*
X7516491Y-15444150D02*
X7545063Y-15444150D01*
X7545063Y-15444150D02*
X7564110Y-15453674D01*
X7564110Y-15453674D02*
X7573634Y-15472722D01*
X7573634Y-15472722D02*
X7573634Y-15577484D01*
X7573634Y-15472722D02*
X7583158Y-15453674D01*
X7583158Y-15453674D02*
X7602205Y-15444150D01*
X7602205Y-15444150D02*
X7630777Y-15444150D01*
X7630777Y-15444150D02*
X7649824Y-15453674D01*
X7649824Y-15453674D02*
X7659348Y-15472722D01*
X7659348Y-15472722D02*
X7659348Y-15577484D01*
X7754586Y-15577484D02*
X7754586Y-15444150D01*
X7754586Y-15463198D02*
X7764110Y-15453674D01*
X7764110Y-15453674D02*
X7783158Y-15444150D01*
X7783158Y-15444150D02*
X7811729Y-15444150D01*
X7811729Y-15444150D02*
X7830777Y-15453674D01*
X7830777Y-15453674D02*
X7840301Y-15472722D01*
X7840301Y-15472722D02*
X7840301Y-15577484D01*
X7840301Y-15472722D02*
X7849824Y-15453674D01*
X7849824Y-15453674D02*
X7868872Y-15444150D01*
X7868872Y-15444150D02*
X7897443Y-15444150D01*
X7897443Y-15444150D02*
X7916491Y-15453674D01*
X7916491Y-15453674D02*
X7926015Y-15472722D01*
X7926015Y-15472722D02*
X7926015Y-15577484D01*
X8316491Y-15367960D02*
X8145063Y-15625103D01*
X8573634Y-15377484D02*
X8592682Y-15377484D01*
X8592682Y-15377484D02*
X8611729Y-15387008D01*
X8611729Y-15387008D02*
X8621253Y-15396531D01*
X8621253Y-15396531D02*
X8630777Y-15415579D01*
X8630777Y-15415579D02*
X8640301Y-15453674D01*
X8640301Y-15453674D02*
X8640301Y-15501293D01*
X8640301Y-15501293D02*
X8630777Y-15539388D01*
X8630777Y-15539388D02*
X8621253Y-15558436D01*
X8621253Y-15558436D02*
X8611729Y-15567960D01*
X8611729Y-15567960D02*
X8592682Y-15577484D01*
X8592682Y-15577484D02*
X8573634Y-15577484D01*
X8573634Y-15577484D02*
X8554587Y-15567960D01*
X8554587Y-15567960D02*
X8545063Y-15558436D01*
X8545063Y-15558436D02*
X8535539Y-15539388D01*
X8535539Y-15539388D02*
X8526015Y-15501293D01*
X8526015Y-15501293D02*
X8526015Y-15453674D01*
X8526015Y-15453674D02*
X8535539Y-15415579D01*
X8535539Y-15415579D02*
X8545063Y-15396531D01*
X8545063Y-15396531D02*
X8554587Y-15387008D01*
X8554587Y-15387008D02*
X8573634Y-15377484D01*
X8726015Y-15558436D02*
X8735539Y-15567960D01*
X8735539Y-15567960D02*
X8726015Y-15577484D01*
X8726015Y-15577484D02*
X8716491Y-15567960D01*
X8716491Y-15567960D02*
X8726015Y-15558436D01*
X8726015Y-15558436D02*
X8726015Y-15577484D01*
X8926015Y-15577484D02*
X8811729Y-15577484D01*
X8868872Y-15577484D02*
X8868872Y-15377484D01*
X8868872Y-15377484D02*
X8849825Y-15406055D01*
X8849825Y-15406055D02*
X8830777Y-15425103D01*
X8830777Y-15425103D02*
X8811729Y-15434627D01*
X8992682Y-15377484D02*
X9116491Y-15377484D01*
X9116491Y-15377484D02*
X9049825Y-15453674D01*
X9049825Y-15453674D02*
X9078396Y-15453674D01*
X9078396Y-15453674D02*
X9097444Y-15463198D01*
X9097444Y-15463198D02*
X9106968Y-15472722D01*
X9106968Y-15472722D02*
X9116491Y-15491769D01*
X9116491Y-15491769D02*
X9116491Y-15539388D01*
X9116491Y-15539388D02*
X9106968Y-15558436D01*
X9106968Y-15558436D02*
X9097444Y-15567960D01*
X9097444Y-15567960D02*
X9078396Y-15577484D01*
X9078396Y-15577484D02*
X9021253Y-15577484D01*
X9021253Y-15577484D02*
X9002206Y-15567960D01*
X9002206Y-15567960D02*
X8992682Y-15558436D01*
X9183158Y-15377484D02*
X9316491Y-15377484D01*
X9316491Y-15377484D02*
X9230777Y-15577484D01*
X9421253Y-15463198D02*
X9402206Y-15453674D01*
X9402206Y-15453674D02*
X9392682Y-15444150D01*
X9392682Y-15444150D02*
X9383158Y-15425103D01*
X9383158Y-15425103D02*
X9383158Y-15415579D01*
X9383158Y-15415579D02*
X9392682Y-15396531D01*
X9392682Y-15396531D02*
X9402206Y-15387008D01*
X9402206Y-15387008D02*
X9421253Y-15377484D01*
X9421253Y-15377484D02*
X9459349Y-15377484D01*
X9459349Y-15377484D02*
X9478396Y-15387008D01*
X9478396Y-15387008D02*
X9487920Y-15396531D01*
X9487920Y-15396531D02*
X9497444Y-15415579D01*
X9497444Y-15415579D02*
X9497444Y-15425103D01*
X9497444Y-15425103D02*
X9487920Y-15444150D01*
X9487920Y-15444150D02*
X9478396Y-15453674D01*
X9478396Y-15453674D02*
X9459349Y-15463198D01*
X9459349Y-15463198D02*
X9421253Y-15463198D01*
X9421253Y-15463198D02*
X9402206Y-15472722D01*
X9402206Y-15472722D02*
X9392682Y-15482246D01*
X9392682Y-15482246D02*
X9383158Y-15501293D01*
X9383158Y-15501293D02*
X9383158Y-15539388D01*
X9383158Y-15539388D02*
X9392682Y-15558436D01*
X9392682Y-15558436D02*
X9402206Y-15567960D01*
X9402206Y-15567960D02*
X9421253Y-15577484D01*
X9421253Y-15577484D02*
X9459349Y-15577484D01*
X9459349Y-15577484D02*
X9478396Y-15567960D01*
X9478396Y-15567960D02*
X9487920Y-15558436D01*
X9487920Y-15558436D02*
X9497444Y-15539388D01*
X9497444Y-15539388D02*
X9497444Y-15501293D01*
X9497444Y-15501293D02*
X9487920Y-15482246D01*
X9487920Y-15482246D02*
X9478396Y-15472722D01*
X9478396Y-15472722D02*
X9459349Y-15463198D01*
X9573634Y-15377484D02*
X9573634Y-15415579D01*
X9649825Y-15377484D02*
X9649825Y-15415579D01*
X9945063Y-15653674D02*
X9935539Y-15644150D01*
X9935539Y-15644150D02*
X9916491Y-15615579D01*
X9916491Y-15615579D02*
X9906968Y-15596531D01*
X9906968Y-15596531D02*
X9897444Y-15567960D01*
X9897444Y-15567960D02*
X9887920Y-15520341D01*
X9887920Y-15520341D02*
X9887920Y-15482246D01*
X9887920Y-15482246D02*
X9897444Y-15434627D01*
X9897444Y-15434627D02*
X9906968Y-15406055D01*
X9906968Y-15406055D02*
X9916491Y-15387008D01*
X9916491Y-15387008D02*
X9935539Y-15358436D01*
X9935539Y-15358436D02*
X9945063Y-15348912D01*
X10011730Y-15396531D02*
X10021253Y-15387008D01*
X10021253Y-15387008D02*
X10040301Y-15377484D01*
X10040301Y-15377484D02*
X10087920Y-15377484D01*
X10087920Y-15377484D02*
X10106968Y-15387008D01*
X10106968Y-15387008D02*
X10116491Y-15396531D01*
X10116491Y-15396531D02*
X10126015Y-15415579D01*
X10126015Y-15415579D02*
X10126015Y-15434627D01*
X10126015Y-15434627D02*
X10116491Y-15463198D01*
X10116491Y-15463198D02*
X10002206Y-15577484D01*
X10002206Y-15577484D02*
X10126015Y-15577484D01*
X10364111Y-15577484D02*
X10364111Y-15377484D01*
X10449825Y-15577484D02*
X10449825Y-15472722D01*
X10449825Y-15472722D02*
X10440301Y-15453674D01*
X10440301Y-15453674D02*
X10421253Y-15444150D01*
X10421253Y-15444150D02*
X10392682Y-15444150D01*
X10392682Y-15444150D02*
X10373634Y-15453674D01*
X10373634Y-15453674D02*
X10364111Y-15463198D01*
X10573634Y-15577484D02*
X10554587Y-15567960D01*
X10554587Y-15567960D02*
X10545063Y-15558436D01*
X10545063Y-15558436D02*
X10535539Y-15539388D01*
X10535539Y-15539388D02*
X10535539Y-15482246D01*
X10535539Y-15482246D02*
X10545063Y-15463198D01*
X10545063Y-15463198D02*
X10554587Y-15453674D01*
X10554587Y-15453674D02*
X10573634Y-15444150D01*
X10573634Y-15444150D02*
X10602206Y-15444150D01*
X10602206Y-15444150D02*
X10621253Y-15453674D01*
X10621253Y-15453674D02*
X10630777Y-15463198D01*
X10630777Y-15463198D02*
X10640301Y-15482246D01*
X10640301Y-15482246D02*
X10640301Y-15539388D01*
X10640301Y-15539388D02*
X10630777Y-15558436D01*
X10630777Y-15558436D02*
X10621253Y-15567960D01*
X10621253Y-15567960D02*
X10602206Y-15577484D01*
X10602206Y-15577484D02*
X10573634Y-15577484D01*
X10754587Y-15577484D02*
X10735539Y-15567960D01*
X10735539Y-15567960D02*
X10726015Y-15548912D01*
X10726015Y-15548912D02*
X10726015Y-15377484D01*
X10906968Y-15567960D02*
X10887920Y-15577484D01*
X10887920Y-15577484D02*
X10849825Y-15577484D01*
X10849825Y-15577484D02*
X10830777Y-15567960D01*
X10830777Y-15567960D02*
X10821253Y-15548912D01*
X10821253Y-15548912D02*
X10821253Y-15472722D01*
X10821253Y-15472722D02*
X10830777Y-15453674D01*
X10830777Y-15453674D02*
X10849825Y-15444150D01*
X10849825Y-15444150D02*
X10887920Y-15444150D01*
X10887920Y-15444150D02*
X10906968Y-15453674D01*
X10906968Y-15453674D02*
X10916492Y-15472722D01*
X10916492Y-15472722D02*
X10916492Y-15491769D01*
X10916492Y-15491769D02*
X10821253Y-15510817D01*
X10992682Y-15567960D02*
X11011730Y-15577484D01*
X11011730Y-15577484D02*
X11049825Y-15577484D01*
X11049825Y-15577484D02*
X11068873Y-15567960D01*
X11068873Y-15567960D02*
X11078396Y-15548912D01*
X11078396Y-15548912D02*
X11078396Y-15539388D01*
X11078396Y-15539388D02*
X11068873Y-15520341D01*
X11068873Y-15520341D02*
X11049825Y-15510817D01*
X11049825Y-15510817D02*
X11021253Y-15510817D01*
X11021253Y-15510817D02*
X11002206Y-15501293D01*
X11002206Y-15501293D02*
X10992682Y-15482246D01*
X10992682Y-15482246D02*
X10992682Y-15472722D01*
X10992682Y-15472722D02*
X11002206Y-15453674D01*
X11002206Y-15453674D02*
X11021253Y-15444150D01*
X11021253Y-15444150D02*
X11049825Y-15444150D01*
X11049825Y-15444150D02*
X11068873Y-15453674D01*
X11145063Y-15653674D02*
X11154587Y-15644150D01*
X11154587Y-15644150D02*
X11173634Y-15615579D01*
X11173634Y-15615579D02*
X11183158Y-15596531D01*
X11183158Y-15596531D02*
X11192682Y-15567960D01*
X11192682Y-15567960D02*
X11202206Y-15520341D01*
X11202206Y-15520341D02*
X11202206Y-15482246D01*
X11202206Y-15482246D02*
X11192682Y-15434627D01*
X11192682Y-15434627D02*
X11183158Y-15406055D01*
X11183158Y-15406055D02*
X11173634Y-15387008D01*
X11173634Y-15387008D02*
X11154587Y-15358436D01*
X11154587Y-15358436D02*
X11145063Y-15348912D01*
X11506968Y-15653674D02*
X11497444Y-15644150D01*
X11497444Y-15644150D02*
X11478396Y-15615579D01*
X11478396Y-15615579D02*
X11468872Y-15596531D01*
X11468872Y-15596531D02*
X11459349Y-15567960D01*
X11459349Y-15567960D02*
X11449825Y-15520341D01*
X11449825Y-15520341D02*
X11449825Y-15482246D01*
X11449825Y-15482246D02*
X11459349Y-15434627D01*
X11459349Y-15434627D02*
X11468872Y-15406055D01*
X11468872Y-15406055D02*
X11478396Y-15387008D01*
X11478396Y-15387008D02*
X11497444Y-15358436D01*
X11497444Y-15358436D02*
X11506968Y-15348912D01*
X11583158Y-15444150D02*
X11583158Y-15577484D01*
X11583158Y-15463198D02*
X11592682Y-15453674D01*
X11592682Y-15453674D02*
X11611730Y-15444150D01*
X11611730Y-15444150D02*
X11640301Y-15444150D01*
X11640301Y-15444150D02*
X11659349Y-15453674D01*
X11659349Y-15453674D02*
X11668872Y-15472722D01*
X11668872Y-15472722D02*
X11668872Y-15577484D01*
X11792682Y-15577484D02*
X11773634Y-15567960D01*
X11773634Y-15567960D02*
X11764111Y-15558436D01*
X11764111Y-15558436D02*
X11754587Y-15539388D01*
X11754587Y-15539388D02*
X11754587Y-15482246D01*
X11754587Y-15482246D02*
X11764111Y-15463198D01*
X11764111Y-15463198D02*
X11773634Y-15453674D01*
X11773634Y-15453674D02*
X11792682Y-15444150D01*
X11792682Y-15444150D02*
X11821253Y-15444150D01*
X11821253Y-15444150D02*
X11840301Y-15453674D01*
X11840301Y-15453674D02*
X11849825Y-15463198D01*
X11849825Y-15463198D02*
X11859349Y-15482246D01*
X11859349Y-15482246D02*
X11859349Y-15539388D01*
X11859349Y-15539388D02*
X11849825Y-15558436D01*
X11849825Y-15558436D02*
X11840301Y-15567960D01*
X11840301Y-15567960D02*
X11821253Y-15577484D01*
X11821253Y-15577484D02*
X11792682Y-15577484D01*
X11916492Y-15444150D02*
X11992682Y-15444150D01*
X11945063Y-15377484D02*
X11945063Y-15548912D01*
X11945063Y-15548912D02*
X11954587Y-15567960D01*
X11954587Y-15567960D02*
X11973634Y-15577484D01*
X11973634Y-15577484D02*
X11992682Y-15577484D01*
X12211730Y-15444150D02*
X12211730Y-15644150D01*
X12211730Y-15453674D02*
X12230777Y-15444150D01*
X12230777Y-15444150D02*
X12268873Y-15444150D01*
X12268873Y-15444150D02*
X12287920Y-15453674D01*
X12287920Y-15453674D02*
X12297444Y-15463198D01*
X12297444Y-15463198D02*
X12306968Y-15482246D01*
X12306968Y-15482246D02*
X12306968Y-15539388D01*
X12306968Y-15539388D02*
X12297444Y-15558436D01*
X12297444Y-15558436D02*
X12287920Y-15567960D01*
X12287920Y-15567960D02*
X12268873Y-15577484D01*
X12268873Y-15577484D02*
X12230777Y-15577484D01*
X12230777Y-15577484D02*
X12211730Y-15567960D01*
X12421253Y-15577484D02*
X12402206Y-15567960D01*
X12402206Y-15567960D02*
X12392682Y-15548912D01*
X12392682Y-15548912D02*
X12392682Y-15377484D01*
X12583158Y-15577484D02*
X12583158Y-15472722D01*
X12583158Y-15472722D02*
X12573634Y-15453674D01*
X12573634Y-15453674D02*
X12554587Y-15444150D01*
X12554587Y-15444150D02*
X12516492Y-15444150D01*
X12516492Y-15444150D02*
X12497444Y-15453674D01*
X12583158Y-15567960D02*
X12564111Y-15577484D01*
X12564111Y-15577484D02*
X12516492Y-15577484D01*
X12516492Y-15577484D02*
X12497444Y-15567960D01*
X12497444Y-15567960D02*
X12487920Y-15548912D01*
X12487920Y-15548912D02*
X12487920Y-15529865D01*
X12487920Y-15529865D02*
X12497444Y-15510817D01*
X12497444Y-15510817D02*
X12516492Y-15501293D01*
X12516492Y-15501293D02*
X12564111Y-15501293D01*
X12564111Y-15501293D02*
X12583158Y-15491769D01*
X12649825Y-15444150D02*
X12726015Y-15444150D01*
X12678396Y-15377484D02*
X12678396Y-15548912D01*
X12678396Y-15548912D02*
X12687920Y-15567960D01*
X12687920Y-15567960D02*
X12706968Y-15577484D01*
X12706968Y-15577484D02*
X12726015Y-15577484D01*
X12868873Y-15567960D02*
X12849825Y-15577484D01*
X12849825Y-15577484D02*
X12811730Y-15577484D01*
X12811730Y-15577484D02*
X12792682Y-15567960D01*
X12792682Y-15567960D02*
X12783158Y-15548912D01*
X12783158Y-15548912D02*
X12783158Y-15472722D01*
X12783158Y-15472722D02*
X12792682Y-15453674D01*
X12792682Y-15453674D02*
X12811730Y-15444150D01*
X12811730Y-15444150D02*
X12849825Y-15444150D01*
X12849825Y-15444150D02*
X12868873Y-15453674D01*
X12868873Y-15453674D02*
X12878396Y-15472722D01*
X12878396Y-15472722D02*
X12878396Y-15491769D01*
X12878396Y-15491769D02*
X12783158Y-15510817D01*
X13049825Y-15577484D02*
X13049825Y-15377484D01*
X13049825Y-15567960D02*
X13030777Y-15577484D01*
X13030777Y-15577484D02*
X12992682Y-15577484D01*
X12992682Y-15577484D02*
X12973634Y-15567960D01*
X12973634Y-15567960D02*
X12964111Y-15558436D01*
X12964111Y-15558436D02*
X12954587Y-15539388D01*
X12954587Y-15539388D02*
X12954587Y-15482246D01*
X12954587Y-15482246D02*
X12964111Y-15463198D01*
X12964111Y-15463198D02*
X12973634Y-15453674D01*
X12973634Y-15453674D02*
X12992682Y-15444150D01*
X12992682Y-15444150D02*
X13030777Y-15444150D01*
X13030777Y-15444150D02*
X13049825Y-15453674D01*
X13126015Y-15653674D02*
X13135539Y-15644150D01*
X13135539Y-15644150D02*
X13154587Y-15615579D01*
X13154587Y-15615579D02*
X13164111Y-15596531D01*
X13164111Y-15596531D02*
X13173634Y-15567960D01*
X13173634Y-15567960D02*
X13183158Y-15520341D01*
X13183158Y-15520341D02*
X13183158Y-15482246D01*
X13183158Y-15482246D02*
X13173634Y-15434627D01*
X13173634Y-15434627D02*
X13164111Y-15406055D01*
X13164111Y-15406055D02*
X13154587Y-15387008D01*
X13154587Y-15387008D02*
X13135539Y-15358436D01*
X13135539Y-15358436D02*
X13126015Y-15348912D01*
M02*
