M48
; DRILL file {KiCad 8.0.2-1} date 2024-08-02T11:01:17+0200
; FORMAT={-:-/ absolute / metric / decimal}
; #@! TF.CreationDate,2024-08-02T11:01:17+02:00
; #@! TF.GenerationSoftware,Kicad,Pcbnew,8.0.2-1
; #@! TF.FileFunction,MixedPlating,1,2
FMAT,2
METRIC
; #@! TA.AperFunction,Plated,PTH,ViaDrill
T1C0.600
; #@! TA.AperFunction,Plated,PTH,ComponentDrill
T2C0.762
; #@! TA.AperFunction,Plated,PTH,ComponentDrill
T3C0.787
; #@! TA.AperFunction,Plated,PTH,ComponentDrill
T4C0.889
; #@! TA.AperFunction,Plated,PTH,ComponentDrill
T5C1.000
; #@! TA.AperFunction,Plated,PTH,ComponentDrill
T6C1.100
; #@! TA.AperFunction,Plated,PTH,ComponentDrill
T7C2.700
; #@! TA.AperFunction,NonPlated,NPTH,ComponentDrill
T8C1.100
; #@! TA.AperFunction,NonPlated,NPTH,ComponentDrill
T9C1.600
%
G90
G05
T1
X65.69Y-57.4
X65.77Y-50.35
X65.77Y-76.61
X65.77Y-87.58
X65.77Y-96.91
X65.84Y-66.65
X66.08Y-106.01
X66.16Y-115.96
X66.39Y-125.21
X68.28Y-48.07
X69.22Y-127.88
X70.968Y-91.516
X74.55Y-109.76
X74.69Y-69.5
X74.9Y-84.96
X74.96Y-82.43
X76.11Y-58.73
X76.11Y-60.52
X76.95Y-72.01
X76.98Y-47.76
X78.16Y-120.18
X78.94Y-95.61
X79.55Y-79.59
X79.64Y-128.11
X81.12Y-84.87
X82.84Y-83.74
X85.56Y-72.03
X85.87Y-95.61
X87.2Y-87.48
X88.0Y-60.54
X88.34Y-58.59
X88.81Y-47.91
X90.08Y-110.55
X90.3Y-127.96
X90.5Y-91.059
X90.62Y-120.3
X90.76Y-73.767
X93.07Y-98.54
X95.95Y-96.281
X95.987Y-92.126
X96.337Y-74.498
X96.49Y-67.33
X97.187Y-89.947
X97.68Y-61.66
X98.61Y-48.31
X98.61Y-53.95
X99.8Y-78.51
X99.88Y-81.14
X100.03Y-128.35
X100.34Y-58.19
X100.38Y-70.12
X100.51Y-74.46
X101.4Y-79.776
X102.38Y-82.316
X103.45Y-107.05
X103.51Y-114.16
X108.93Y-103.32
X109.21Y-53.41
X109.51Y-48.23
X109.59Y-128.98
X110.3Y-84.83
X110.97Y-94.29
X111.28Y-81.06
X111.42Y-78.57
X112.127Y-112.3
X112.293Y-55.643
X112.352Y-111.071
X114.73Y-56.17
X114.73Y-62.69
X116.1Y-84.9
X117.97Y-73.46
X118.26Y-75.96
X118.63Y-120.27
X118.64Y-100.6
X118.7Y-81.21
X119.71Y-64.51
X120.193Y-122.047
X120.49Y-47.91
X120.63Y-72.116
X120.66Y-107.31
X120.67Y-62.47
X120.89Y-56.72
X120.92Y-91.68
X121.04Y-111.27
X121.19Y-98.77
X121.65Y-67.01
X127.54Y-96.81
X128.72Y-102.3
X128.86Y-124.79
X129.04Y-47.98
X130.65Y-95.74
X131.83Y-75.09
X131.85Y-114.46
X132.63Y-78.27
X132.81Y-88.64
X132.9Y-86.11
X132.93Y-80.99
X132.98Y-65.59
X133.4Y-71.36
X133.82Y-92.82
X136.534Y-85.523
X136.66Y-75.18
X141.86Y-61.97
X144.317Y-126.4
X146.48Y-123.61
X149.06Y-48.01
X151.68Y-105.29
X151.76Y-98.4
X151.76Y-112.47
X151.83Y-91.22
X151.86Y-58.83
X151.94Y-65.31
X151.98Y-72.22
X151.98Y-84.71
X152.05Y-78.21
T2
X70.73Y-57.64
X70.73Y-59.64
X70.73Y-61.64
X70.73Y-63.64
X81.73Y-57.6
X81.73Y-59.6
X81.73Y-61.6
X81.73Y-63.6
X93.53Y-57.57
X93.53Y-59.57
X93.53Y-61.57
X93.53Y-63.57
T3
X134.157Y-121.285
X134.157Y-128.905
X136.697Y-121.285
X136.697Y-128.905
X139.237Y-121.285
X139.237Y-128.905
X141.777Y-121.285
X141.777Y-128.905
X144.317Y-121.285
X144.317Y-128.905
X146.857Y-121.285
X146.857Y-128.905
X149.397Y-121.285
X149.397Y-128.905
T4
X70.911Y-70.739
X70.911Y-73.279
X70.911Y-75.819
X70.911Y-78.359
X70.911Y-80.899
X70.911Y-83.439
X70.911Y-85.979
X70.911Y-88.519
X93.771Y-70.739
X93.771Y-73.279
X93.771Y-75.819
X93.771Y-78.359
X93.771Y-80.899
X93.771Y-83.439
X93.771Y-85.979
X93.771Y-88.519
T5
X79.03Y-51.01
X81.57Y-51.01
X84.11Y-51.01
X86.65Y-51.01
X104.183Y-55.626
X104.183Y-58.166
X104.183Y-60.706
X104.183Y-63.246
X104.183Y-65.786
X104.183Y-68.326
X104.183Y-70.866
X104.183Y-73.406
X104.183Y-75.946
X104.183Y-78.486
X104.183Y-81.026
X104.183Y-83.566
X104.183Y-86.106
X104.183Y-88.646
X104.183Y-91.186
X108.503Y-55.626
X108.503Y-58.166
X108.503Y-60.706
X108.503Y-63.246
X108.503Y-65.786
X108.503Y-68.326
X108.503Y-70.866
X108.503Y-73.406
X108.503Y-75.946
X108.503Y-78.486
X108.503Y-81.026
X108.503Y-83.566
X108.503Y-86.106
X108.503Y-88.646
X108.503Y-91.186
X123.743Y-55.626
X123.743Y-58.166
X123.743Y-60.706
X123.743Y-63.246
X123.743Y-65.786
X123.743Y-68.326
X123.743Y-70.866
X123.743Y-73.406
X123.743Y-75.946
X123.743Y-78.486
X123.743Y-81.026
X123.743Y-83.566
X123.743Y-86.106
X123.743Y-88.646
X123.743Y-91.186
X128.313Y-55.638
X128.313Y-58.178
X128.313Y-60.718
X128.313Y-63.258
X128.313Y-65.798
X128.313Y-68.338
X128.313Y-70.878
X128.313Y-73.418
X128.313Y-75.958
X128.313Y-78.498
X128.313Y-81.038
X128.313Y-83.578
X128.313Y-86.118
X128.313Y-88.658
X128.313Y-91.198
X131.15Y-99.36
X131.63Y-107.57
X133.69Y-99.36
X134.17Y-107.57
T6
X131.67Y-49.49
X131.67Y-55.99
X136.17Y-49.49
X136.17Y-55.99
X139.28Y-49.47
X139.28Y-55.97
X139.457Y-64.927
X139.457Y-67.467
X139.457Y-70.007
X139.457Y-72.547
X139.457Y-75.087
X139.457Y-77.627
X139.457Y-80.167
X139.457Y-82.707
X139.457Y-85.247
X139.457Y-87.787
X139.457Y-90.327
X139.457Y-92.867
X139.457Y-95.407
X139.457Y-97.947
X139.457Y-100.487
X139.457Y-103.027
X139.457Y-105.567
X139.457Y-108.107
X139.457Y-110.647
X139.457Y-113.187
X141.997Y-64.927
X141.997Y-67.467
X141.997Y-70.007
X141.997Y-72.547
X141.997Y-75.087
X141.997Y-77.627
X141.997Y-80.167
X141.997Y-82.707
X141.997Y-85.247
X141.997Y-87.787
X141.997Y-90.327
X141.997Y-92.867
X141.997Y-95.407
X141.997Y-97.947
X141.997Y-100.487
X141.997Y-103.027
X141.997Y-105.567
X141.997Y-108.107
X141.997Y-110.647
X141.997Y-113.187
X143.78Y-49.47
X143.78Y-55.97
X146.86Y-49.32
X146.86Y-55.82
X151.36Y-49.32
X151.36Y-55.82
T7
X72.57Y-104.29
X72.61Y-126.37
T8
X120.435Y-102.945
T9
X120.435Y-127.945
M30
