%TF.GenerationSoftware,KiCad,Pcbnew,7.0.5-7.0.5~ubuntu22.04.1*%
%TF.CreationDate,2023-06-27T08:30:26+02:00*%
%TF.ProjectId,Com_Nucleo-L432kc,436f6d5f-4e75-4636-9c65-6f2d4c343332,rev?*%
%TF.SameCoordinates,Original*%
%TF.FileFunction,Copper,L1,Top*%
%TF.FilePolarity,Positive*%
%FSLAX46Y46*%
G04 Gerber Fmt 4.6, Leading zero omitted, Abs format (unit mm)*
G04 Created by KiCad (PCBNEW 7.0.5-7.0.5~ubuntu22.04.1) date 2023-06-27 08:30:26*
%MOMM*%
%LPD*%
G01*
G04 APERTURE LIST*
G04 Aperture macros list*
%AMRoundRect*
0 Rectangle with rounded corners*
0 $1 Rounding radius*
0 $2 $3 $4 $5 $6 $7 $8 $9 X,Y pos of 4 corners*
0 Add a 4 corners polygon primitive as box body*
4,1,4,$2,$3,$4,$5,$6,$7,$8,$9,$2,$3,0*
0 Add four circle primitives for the rounded corners*
1,1,$1+$1,$2,$3*
1,1,$1+$1,$4,$5*
1,1,$1+$1,$6,$7*
1,1,$1+$1,$8,$9*
0 Add four rect primitives between the rounded corners*
20,1,$1+$1,$2,$3,$4,$5,0*
20,1,$1+$1,$4,$5,$6,$7,0*
20,1,$1+$1,$6,$7,$8,$9,0*
20,1,$1+$1,$8,$9,$2,$3,0*%
G04 Aperture macros list end*
%TA.AperFunction,SMDPad,CuDef*%
%ADD10R,1.000000X0.900000*%
%TD*%
%TA.AperFunction,SMDPad,CuDef*%
%ADD11R,2.000000X0.600000*%
%TD*%
%TA.AperFunction,SMDPad,CuDef*%
%ADD12R,3.200000X2.300000*%
%TD*%
%TA.AperFunction,ComponentPad*%
%ADD13C,1.600000*%
%TD*%
%TA.AperFunction,SMDPad,CuDef*%
%ADD14RoundRect,0.250000X0.250000X0.475000X-0.250000X0.475000X-0.250000X-0.475000X0.250000X-0.475000X0*%
%TD*%
%TA.AperFunction,ComponentPad*%
%ADD15O,2.100000X1.600000*%
%TD*%
%TA.AperFunction,ComponentPad*%
%ADD16O,2.000000X1.600000*%
%TD*%
%TA.AperFunction,SMDPad,CuDef*%
%ADD17RoundRect,0.250000X0.475000X-0.250000X0.475000X0.250000X-0.475000X0.250000X-0.475000X-0.250000X0*%
%TD*%
%TA.AperFunction,SMDPad,CuDef*%
%ADD18RoundRect,0.250000X-0.450000X0.262500X-0.450000X-0.262500X0.450000X-0.262500X0.450000X0.262500X0*%
%TD*%
%TA.AperFunction,SMDPad,CuDef*%
%ADD19RoundRect,0.250000X0.450000X-0.262500X0.450000X0.262500X-0.450000X0.262500X-0.450000X-0.262500X0*%
%TD*%
%TA.AperFunction,SMDPad,CuDef*%
%ADD20RoundRect,0.250000X-0.475000X0.250000X-0.475000X-0.250000X0.475000X-0.250000X0.475000X0.250000X0*%
%TD*%
%TA.AperFunction,SMDPad,CuDef*%
%ADD21RoundRect,0.250000X-0.250000X-0.475000X0.250000X-0.475000X0.250000X0.475000X-0.250000X0.475000X0*%
%TD*%
%TA.AperFunction,ComponentPad*%
%ADD22O,1.700000X2.200000*%
%TD*%
%TA.AperFunction,ComponentPad*%
%ADD23O,1.600000X2.200000*%
%TD*%
%TA.AperFunction,ViaPad*%
%ADD24C,1.600000*%
%TD*%
%TA.AperFunction,Conductor*%
%ADD25C,0.300000*%
%TD*%
%TA.AperFunction,Conductor*%
%ADD26C,0.500000*%
%TD*%
%TA.AperFunction,Conductor*%
%ADD27C,0.250000*%
%TD*%
G04 APERTURE END LIST*
D10*
%TO.P,JP3,1,A*%
%TO.N,/SX1303_RESET*%
X147625000Y-129830000D03*
X147625000Y-125730000D03*
%TO.P,JP3,2,B*%
%TO.N,+3V3*%
X149225000Y-129830000D03*
X149225000Y-125730000D03*
%TD*%
%TO.P,JP2,1,A*%
%TO.N,/MCU_NRESET*%
X142975000Y-129830000D03*
X142975000Y-125730000D03*
%TO.P,JP2,2,B*%
%TO.N,GND*%
X144575000Y-129830000D03*
X144575000Y-125730000D03*
%TD*%
D11*
%TO.P,IC1,1,~{WAKE}*%
%TO.N,unconnected-(IC1-~{WAKE}-Pad1)*%
X129910000Y-75405000D03*
%TO.P,IC1,2,3.3VAUX_1*%
%TO.N,+3V3*%
X121710000Y-75005000D03*
%TO.P,IC1,3,COEX1*%
%TO.N,unconnected-(IC1-COEX1-Pad3)*%
X129910000Y-74605000D03*
%TO.P,IC1,4,GND7*%
%TO.N,GND*%
X121710000Y-74205000D03*
%TO.P,IC1,5,COEX2*%
%TO.N,unconnected-(IC1-COEX2-Pad5)*%
X129910000Y-73805000D03*
%TO.P,IC1,6,1.5V_2*%
%TO.N,/TH1*%
X121710000Y-73405000D03*
%TO.P,IC1,7,~{CLKREQ}*%
%TO.N,unconnected-(IC1-~{CLKREQ}-Pad7)*%
X129910000Y-73005000D03*
%TO.P,IC1,8,UIM_PWR*%
%TO.N,unconnected-(IC1-UIM_PWR-Pad8)*%
X121710000Y-72605000D03*
%TO.P,IC1,9,GND1*%
%TO.N,GND*%
X129910000Y-72205000D03*
%TO.P,IC1,10,UIM_DATA*%
%TO.N,unconnected-(IC1-UIM_DATA-Pad10)*%
X121710000Y-71805000D03*
%TO.P,IC1,11,SX1261_NRESET*%
%TO.N,unconnected-(IC1-SX1261_NRESET-Pad11)*%
X129910000Y-71405000D03*
%TO.P,IC1,12,UIM_CLK*%
%TO.N,unconnected-(IC1-UIM_CLK-Pad12)*%
X121710000Y-71005000D03*
%TO.P,IC1,13,REFCLK+*%
%TO.N,Net-(IC1-REFCLK+)*%
X129910000Y-70605000D03*
%TO.P,IC1,14,UIM_RESET*%
%TO.N,unconnected-(IC1-UIM_RESET-Pad14)*%
X121710000Y-70205000D03*
%TO.P,IC1,15,GND2*%
%TO.N,GND*%
X129910000Y-69805000D03*
%TO.P,IC1,16,UIM_VPP*%
%TO.N,unconnected-(IC1-UIM_VPP-Pad16)*%
X121710000Y-69405000D03*
%TO.P,IC1,17,RESERVED*%
%TO.N,unconnected-(IC1-RESERVED-Pad17)*%
X129910000Y-65805000D03*
%TO.P,IC1,18,GND8*%
%TO.N,GND*%
X121710000Y-65405000D03*
%TO.P,IC1,19,RESERVED*%
%TO.N,unconnected-(IC1-RESERVED-Pad19)*%
X129910000Y-65005000D03*
%TO.P,IC1,20,~{W_DISABLE}*%
%TO.N,unconnected-(IC1-~{W_DISABLE}-Pad20)*%
X121710000Y-64605000D03*
%TO.P,IC1,21,GND3*%
%TO.N,GND*%
X129910000Y-64205000D03*
%TO.P,IC1,22,~{PERST}*%
%TO.N,/SX1303_RESET*%
X121710000Y-63805000D03*
%TO.P,IC1,23,PERn0*%
%TO.N,Net-(IC1-PERn0)*%
X129910000Y-63405000D03*
%TO.P,IC1,24,3.3VAUX_2*%
%TO.N,+3V3*%
X121710000Y-63005000D03*
%TO.P,IC1,25,PERp0*%
%TO.N,/STANDBY_GPS*%
X129910000Y-62605000D03*
%TO.P,IC1,26,GND9*%
%TO.N,GND*%
X121710000Y-62205000D03*
%TO.P,IC1,27,GND4*%
X129910000Y-61805000D03*
%TO.P,IC1,28,1.5V_2*%
%TO.N,unconnected-(IC1-1.5V_2-Pad28)*%
X121710000Y-61405000D03*
%TO.P,IC1,29,GND5*%
%TO.N,GND*%
X129910000Y-61005000D03*
%TO.P,IC1,30,SMB_SCL*%
%TO.N,/SCL*%
X121710000Y-60605000D03*
%TO.P,IC1,31,PETn0*%
%TO.N,unconnected-(IC1-PETn0-Pad31)*%
X129910000Y-60205000D03*
%TO.P,IC1,32,SMB_SDA*%
%TO.N,/SDA*%
X121710000Y-59805000D03*
%TO.P,IC1,33,PETp0*%
%TO.N,unconnected-(IC1-PETp0-Pad33)*%
X129910000Y-59405000D03*
%TO.P,IC1,34,GND*%
%TO.N,GND*%
X121710000Y-59005000D03*
%TO.P,IC1,35,GND6*%
X129910000Y-58605000D03*
%TO.P,IC1,36,USB_D-*%
%TO.N,unconnected-(IC1-USB_D--Pad36)*%
X121710000Y-58205000D03*
%TO.P,IC1,37,GND13*%
%TO.N,GND*%
X129910000Y-57805000D03*
%TO.P,IC1,38,USB_D+*%
%TO.N,unconnected-(IC1-USB_D+-Pad38)*%
X121710000Y-57405000D03*
%TO.P,IC1,39,3.3VAUX_3*%
%TO.N,+3V3*%
X129910000Y-57005000D03*
%TO.P,IC1,40,GND*%
%TO.N,GND*%
X121710000Y-56605000D03*
%TO.P,IC1,41,3.3VAUX_4*%
%TO.N,+3V3*%
X129910000Y-56205000D03*
%TO.P,IC1,42,LED_WWAN*%
%TO.N,unconnected-(IC1-LED_WWAN-Pad42)*%
X121710000Y-55805000D03*
%TO.P,IC1,43,GND14*%
%TO.N,GND*%
X129910000Y-55405000D03*
%TO.P,IC1,44,LED_WLAN*%
%TO.N,unconnected-(IC1-LED_WLAN-Pad44)*%
X121710000Y-55005000D03*
%TO.P,IC1,45,RESERVED1*%
%TO.N,Net-(IC1-RESERVED1)*%
X129910000Y-54605000D03*
%TO.P,IC1,46,LED_WPAN*%
%TO.N,unconnected-(IC1-LED_WPAN-Pad46)*%
X121710000Y-54205000D03*
%TO.P,IC1,47,RESERVED2*%
%TO.N,Net-(IC1-RESERVED2)*%
X129910000Y-53805000D03*
%TO.P,IC1,48,1.5V_3*%
%TO.N,unconnected-(IC1-1.5V_3-Pad48)*%
X121710000Y-53405000D03*
%TO.P,IC1,49,RESERVED3*%
%TO.N,Net-(IC1-RESERVED3)*%
X129910000Y-53005000D03*
%TO.P,IC1,50,GND12*%
%TO.N,GND*%
X121710000Y-52605000D03*
%TO.P,IC1,51,RESERVED4*%
%TO.N,Net-(IC1-RESERVED4)*%
X129910000Y-52205000D03*
%TO.P,IC1,52,3.3VAUX_5*%
%TO.N,+3V3*%
X121710000Y-51805000D03*
D12*
%TO.P,IC1,MP*%
%TO.N,N/C*%
X129310000Y-78255000D03*
X129310000Y-48955000D03*
%TD*%
D13*
%TO.P,JP5,1,A*%
%TO.N,Net-(CR1-ASC)*%
X152175000Y-121275000D03*
%TO.P,JP5,2,B*%
%TO.N,+3V3*%
X149635000Y-121275000D03*
%TD*%
%TO.P,J3,1,Pin_1*%
%TO.N,/SCL*%
X77931500Y-61340000D03*
%TO.P,J3,2,Pin_2*%
%TO.N,/SDA*%
X77931500Y-59340000D03*
%TO.P,J3,3,Pin_3*%
%TO.N,+3V3*%
X77931500Y-57340000D03*
%TO.P,J3,4,Pin_4*%
%TO.N,GND*%
X77931500Y-55340000D03*
%TD*%
D14*
%TO.P,C1,1*%
%TO.N,+3V3*%
X118745000Y-51435000D03*
%TO.P,C1,2*%
%TO.N,GND*%
X116845000Y-51435000D03*
%TD*%
D15*
%TO.P,J5,1,Pin_1*%
%TO.N,/PWM_MKR*%
X94027000Y-102765000D03*
%TO.P,J5,2,Pin_2*%
%TO.N,/INT_MKR*%
X94027000Y-105305000D03*
%TO.P,J5,3,Pin_3*%
%TO.N,unconnected-(J5-Pin_3-Pad3)*%
X94027000Y-107845000D03*
%TO.P,J5,4,Pin_4*%
%TO.N,unconnected-(J5-Pin_4-Pad4)*%
X94027000Y-110385000D03*
%TO.P,J5,5,Pin_5*%
%TO.N,/SCL*%
X94027000Y-112925000D03*
%TO.P,J5,6,Pin_6*%
%TO.N,/SDA*%
X94027000Y-115465000D03*
%TO.P,J5,7,Pin_7*%
%TO.N,unconnected-(J5-Pin_7-Pad7)*%
X94027000Y-118005000D03*
%TO.P,J5,8,Pin_8*%
%TO.N,GND*%
X94027000Y-120545000D03*
%TD*%
D16*
%TO.P,J6,1,Pin_1*%
%TO.N,/Vin*%
X105489999Y-123156052D03*
%TO.P,J6,2,Pin_2*%
%TO.N,GND*%
X105489999Y-120616052D03*
%TO.P,J6,3,Pin_3*%
%TO.N,unconnected-(J6-Pin_3-Pad3)*%
X105489999Y-118076052D03*
%TO.P,J6,4,Pin_4*%
%TO.N,Net-(J6-Pin_4)*%
X105489999Y-115536052D03*
%TO.P,J6,5,Pin_5*%
%TO.N,/INT_MKR*%
X105489999Y-112996052D03*
%TO.P,J6,6,Pin_6*%
%TO.N,/MCU_MOSI*%
X105489999Y-110456052D03*
%TO.P,J6,7,Pin_7*%
%TO.N,/MISO*%
X105489999Y-107916052D03*
%TO.P,J6,8,Pin_8*%
%TO.N,/RESET_SIGNAL*%
X105489999Y-105376052D03*
%TO.P,J6,9,Pin_9*%
%TO.N,/AN*%
X105489999Y-102836052D03*
%TO.P,J6,10,Pin_10*%
%TO.N,/GPIO(6)*%
X105489999Y-100296052D03*
%TO.P,J6,11,Pin_11*%
%TO.N,/HOST_SCK*%
X105489999Y-97756052D03*
%TO.P,J6,12,Pin_12*%
%TO.N,/SENS_ROUE{slash}MAG-X*%
X105489999Y-95216052D03*
%TO.P,J6,13,Pin_13*%
%TO.N,/AREF*%
X105489999Y-92676052D03*
%TO.P,J6,14,Pin_14*%
%TO.N,/3.3V*%
X105489999Y-90136052D03*
%TO.P,J6,15,Pin_15*%
%TO.N,/SENS_MAG-Y*%
X105489999Y-87596052D03*
%TD*%
%TO.P,J7,1,Pin_1*%
%TO.N,/SCL*%
X129620000Y-123168000D03*
%TO.P,J7,2,Pin_2*%
%TO.N,/SDA*%
X129620000Y-120628000D03*
%TO.P,J7,3,Pin_3*%
%TO.N,/L432KC_RESET*%
X129620000Y-118088000D03*
%TO.P,J7,4,Pin_4*%
%TO.N,GND*%
X129620000Y-115548000D03*
%TO.P,J7,5,Pin_5*%
%TO.N,/CAN1_TX*%
X129620000Y-113008000D03*
%TO.P,J7,6,Pin_6*%
%TO.N,/PWM_MAG-Y*%
X129620000Y-110468000D03*
%TO.P,J7,7,Pin_7*%
%TO.N,/TX_CALC*%
X129620000Y-107928000D03*
%TO.P,J7,8,Pin_8*%
%TO.N,/RX_CALC*%
X129620000Y-105388000D03*
%TO.P,J7,9,Pin_9*%
%TO.N,/PWM_MKR*%
X129620000Y-102848000D03*
%TO.P,J7,10,Pin_10*%
%TO.N,unconnected-(J7-Pin_10-Pad10)*%
X129620000Y-100308000D03*
%TO.P,J7,11,Pin_11*%
%TO.N,unconnected-(J7-Pin_11-Pad11)*%
X129620000Y-97768000D03*
%TO.P,J7,12,Pin_12*%
%TO.N,/PWM_ROUE{slash}MAG-X*%
X129620000Y-95228000D03*
%TO.P,J7,13,Pin_13*%
%TO.N,/CAN1_RX*%
X129620000Y-92688000D03*
%TO.P,J7,14,Pin_14*%
%TO.N,/MCU_NRESET*%
X129620000Y-90148000D03*
%TO.P,J7,15,Pin_15*%
%TO.N,/CS_MCU*%
X129620000Y-87608000D03*
%TD*%
D17*
%TO.P,C11,1*%
%TO.N,+3V3*%
X137875000Y-50585000D03*
%TO.P,C11,2*%
%TO.N,GND*%
X137875000Y-48685000D03*
%TD*%
D18*
%TO.P,R7,1*%
%TO.N,/TH1*%
X113618000Y-98022000D03*
%TO.P,R7,2*%
%TO.N,/GPIO(6)*%
X113618000Y-99847000D03*
%TD*%
D13*
%TO.P,JP4,1,A*%
%TO.N,/STANDBY_GPS*%
X133600000Y-74325000D03*
%TO.P,JP4,2,B*%
%TO.N,GND*%
X133600000Y-76865000D03*
%TD*%
D19*
%TO.P,R1,1*%
%TO.N,/MCU_NRESET*%
X131525000Y-83567500D03*
%TO.P,R1,2*%
%TO.N,Net-(IC1-REFCLK+)*%
X131525000Y-81742500D03*
%TD*%
D20*
%TO.P,C3,1*%
%TO.N,+3V3*%
X133985000Y-63185000D03*
%TO.P,C3,2*%
%TO.N,GND*%
X133985000Y-65085000D03*
%TD*%
D13*
%TO.P,J8,1,Pin_1*%
%TO.N,/SCL*%
X107950000Y-61277000D03*
%TO.P,J8,2,Pin_2*%
%TO.N,/SDA*%
X107950000Y-59277000D03*
%TO.P,J8,3,Pin_3*%
%TO.N,+3V3*%
X107950000Y-57277000D03*
%TO.P,J8,4,Pin_4*%
%TO.N,GND*%
X107950000Y-55277000D03*
%TD*%
D17*
%TO.P,C4,1*%
%TO.N,+3V3*%
X117675000Y-64175000D03*
%TO.P,C4,2*%
%TO.N,GND*%
X117675000Y-62275000D03*
%TD*%
D14*
%TO.P,C2,1*%
%TO.N,+3V3*%
X118740000Y-76200000D03*
%TO.P,C2,2*%
%TO.N,GND*%
X116840000Y-76200000D03*
%TD*%
D21*
%TO.P,C6,1*%
%TO.N,+3V3*%
X133430000Y-50270000D03*
%TO.P,C6,2*%
%TO.N,GND*%
X135330000Y-50270000D03*
%TD*%
D22*
%TO.P,U1,1*%
%TO.N,/MCU_NRESET*%
X135890000Y-60960000D03*
D23*
%TO.P,U1,2*%
%TO.N,/SX1303_RESET*%
X138430000Y-60960000D03*
%TO.P,U1,3*%
%TO.N,N/C*%
X140970000Y-60960000D03*
%TO.P,U1,4*%
X143510000Y-60960000D03*
D22*
%TO.P,U1,5*%
%TO.N,/CS_MCU*%
X146050000Y-60960000D03*
%TO.P,U1,6*%
%TO.N,Net-(B2-OE)*%
X148590000Y-60960000D03*
%TO.P,U1,7,GND*%
%TO.N,GND*%
X151130000Y-60960000D03*
%TO.P,U1,8*%
%TO.N,N/C*%
X151130000Y-53340000D03*
%TO.P,U1,9*%
X148590000Y-53340000D03*
%TO.P,U1,10*%
X146050000Y-53340000D03*
%TO.P,U1,11*%
X143510000Y-53340000D03*
%TO.P,U1,12*%
X140970000Y-53340000D03*
%TO.P,U1,13*%
X138430000Y-53340000D03*
%TO.P,U1,14,VCC*%
%TO.N,+3V3*%
X135890000Y-53340000D03*
%TD*%
D16*
%TO.P,L432KC1,1,D1*%
%TO.N,/SCL*%
X125300000Y-123168000D03*
%TO.P,L432KC1,2,D0*%
%TO.N,/SDA*%
X125300000Y-120628000D03*
%TO.P,L432KC1,3,RESET*%
%TO.N,/L432KC_RESET*%
X125300000Y-118088000D03*
%TO.P,L432KC1,4,GND*%
%TO.N,GND*%
X125300000Y-115548000D03*
%TO.P,L432KC1,5,D2*%
%TO.N,/CAN1_TX*%
X125300000Y-113008000D03*
%TO.P,L432KC1,6,D3*%
%TO.N,/PWM_MAG-Y*%
X125300000Y-110468000D03*
%TO.P,L432KC1,7,D4*%
%TO.N,/TX_CALC*%
X125300000Y-107928000D03*
%TO.P,L432KC1,8,D5*%
%TO.N,/RX_CALC*%
X125300000Y-105388000D03*
%TO.P,L432KC1,9,D6*%
%TO.N,/PWM_MKR*%
X125300000Y-102848000D03*
%TO.P,L432KC1,10,D7*%
%TO.N,unconnected-(L432KC1-D7-Pad10)*%
X125300000Y-100308000D03*
%TO.P,L432KC1,11,D8*%
%TO.N,unconnected-(L432KC1-D8-Pad11)*%
X125300000Y-97768000D03*
%TO.P,L432KC1,12,D9*%
%TO.N,/PWM_ROUE{slash}MAG-X*%
X125300000Y-95228000D03*
%TO.P,L432KC1,13,D10*%
%TO.N,/CAN1_RX*%
X125300000Y-92688000D03*
%TO.P,L432KC1,14,D11*%
%TO.N,/MCU_NRESET*%
X125300000Y-90148000D03*
%TO.P,L432KC1,15,D12*%
%TO.N,/CS_MCU*%
X125300000Y-87608000D03*
%TO.P,L432KC1,16,D13*%
%TO.N,/SENS_MAG-Y*%
X110060000Y-87608000D03*
%TO.P,L432KC1,17,+3V3*%
%TO.N,/3.3V*%
X110060000Y-90148000D03*
%TO.P,L432KC1,18,AREF*%
%TO.N,/AREF*%
X110060000Y-92688000D03*
%TO.P,L432KC1,19,A0*%
%TO.N,/SENS_ROUE{slash}MAG-X*%
X110060000Y-95228000D03*
%TO.P,L432KC1,20,A1*%
%TO.N,/HOST_SCK*%
X110060000Y-97768000D03*
%TO.P,L432KC1,21,A2*%
%TO.N,/GPIO(6)*%
X110060000Y-100308000D03*
%TO.P,L432KC1,22,A3*%
%TO.N,/AN*%
X110060000Y-102848000D03*
%TO.P,L432KC1,23,A4*%
%TO.N,/RESET_SIGNAL*%
X110060000Y-105388000D03*
%TO.P,L432KC1,24,A5*%
%TO.N,/MISO*%
X110060000Y-107928000D03*
%TO.P,L432KC1,25,A6*%
%TO.N,/MCU_MOSI*%
X110060000Y-110468000D03*
%TO.P,L432KC1,26,A7*%
%TO.N,/INT_MKR*%
X110060000Y-113008000D03*
%TO.P,L432KC1,27,+5V*%
%TO.N,Net-(J6-Pin_4)*%
X110060000Y-115548000D03*
%TO.P,L432KC1,28,RESET*%
%TO.N,unconnected-(L432KC1-RESET-Pad28)*%
X110060000Y-118088000D03*
%TO.P,L432KC1,29,GND*%
%TO.N,GND*%
X110060000Y-120628000D03*
%TO.P,L432KC1,30,VIN*%
%TO.N,/Vin*%
X110060000Y-123168000D03*
%TD*%
D13*
%TO.P,J9,1,Pin_1*%
%TO.N,/SCL*%
X93002500Y-61277000D03*
%TO.P,J9,2,Pin_2*%
%TO.N,/SDA*%
X93002500Y-59277000D03*
%TO.P,J9,3,Pin_3*%
%TO.N,+3V3*%
X93002500Y-57277000D03*
%TO.P,J9,4,Pin_4*%
%TO.N,GND*%
X93002500Y-55277000D03*
%TD*%
D19*
%TO.P,R2,1*%
%TO.N,/MCU_NRESET*%
X134065000Y-83567500D03*
%TO.P,R2,2*%
%TO.N,Net-(IC1-PERn0)*%
X134065000Y-81742500D03*
%TD*%
D15*
%TO.P,J4,1,Pin_1*%
%TO.N,/AN*%
X71167000Y-102765000D03*
%TO.P,J4,2,Pin_2*%
%TO.N,/MCU_NRESET*%
X71167000Y-105305000D03*
%TO.P,J4,3,Pin_3*%
%TO.N,/CS_MCU*%
X71167000Y-107845000D03*
%TO.P,J4,4,Pin_4*%
%TO.N,/HOST_SCK*%
X71167000Y-110385000D03*
%TO.P,J4,5,Pin_5*%
%TO.N,/MKB_MISO*%
X71167000Y-112925000D03*
%TO.P,J4,6,Pin_6*%
%TO.N,/MCU_MOSI*%
X71167000Y-115465000D03*
%TO.P,J4,7,Pin_7*%
%TO.N,+3V3*%
X71167000Y-118005000D03*
%TO.P,J4,8,Pin_8*%
%TO.N,GND*%
X71167000Y-120545000D03*
%TD*%
D10*
%TO.P,JP1,1,A*%
%TO.N,/L432KC_RESET*%
X138325000Y-129830000D03*
X138325000Y-125730000D03*
%TO.P,JP1,2,B*%
%TO.N,GND*%
X139925000Y-129830000D03*
X139925000Y-125730000D03*
%TD*%
D13*
%TO.P,J2,1,Pin_1*%
%TO.N,+3V3*%
X79582000Y-128502000D03*
%TO.P,J2,2,Pin_2*%
%TO.N,/SCL*%
X82122000Y-128502000D03*
%TO.P,J2,3,Pin_3*%
%TO.N,/SDA*%
X84662000Y-128502000D03*
%TO.P,J2,4,Pin_4*%
%TO.N,GND*%
X87202000Y-128502000D03*
%TD*%
D14*
%TO.P,C5,1*%
%TO.N,+3V3*%
X118740000Y-49000000D03*
%TO.P,C5,2*%
%TO.N,GND*%
X116840000Y-49000000D03*
%TD*%
D15*
%TO.P,J1,1,GND*%
%TO.N,GND*%
X139662718Y-64912651D03*
%TO.P,J1,2,3V3*%
%TO.N,+3V3*%
X142202718Y-64912651D03*
%TO.P,J1,3,V_IN*%
%TO.N,/Vin*%
X139662718Y-67452651D03*
%TO.P,J1,4,5V*%
%TO.N,unconnected-(J1-5V-Pad4)*%
X142202718Y-67452651D03*
%TO.P,J1,5,V_B*%
%TO.N,unconnected-(J1-V_B-Pad5)*%
X139662718Y-69992651D03*
%TO.P,J1,6,NC1*%
%TO.N,/PWM_ROUE{slash}MAG-X*%
X142202718Y-69992651D03*
%TO.P,J1,7,NC2*%
%TO.N,unconnected-(J1-NC2-Pad7)*%
X139662718Y-72532651D03*
%TO.P,J1,8,NC3*%
%TO.N,/SENS_ROUE{slash}MAG-X*%
X142202718Y-72532651D03*
%TO.P,J1,9,NC4*%
%TO.N,/PWM_MAG-Y*%
X139662718Y-75072651D03*
%TO.P,J1,10,RD-*%
%TO.N,unconnected-(J1-RD--Pad10)*%
X142202718Y-75072651D03*
%TO.P,J1,11,NC*%
%TO.N,/SENS_MAG-Y*%
X139662718Y-77612651D03*
%TO.P,J1,12,RD+*%
%TO.N,unconnected-(J1-RD+-Pad12)*%
X142202718Y-77612651D03*
%TO.P,J1,13,NC*%
%TO.N,unconnected-(J1-NC-Pad13)*%
X139662718Y-80152651D03*
%TO.P,J1,14,TD-*%
%TO.N,unconnected-(J1-TD--Pad14)*%
X142202718Y-80152651D03*
%TO.P,J1,15,NC*%
%TO.N,unconnected-(J1-NC-Pad15)*%
X139662718Y-82692651D03*
%TO.P,J1,16,TD+*%
%TO.N,unconnected-(J1-TD+-Pad16)*%
X142202718Y-82692651D03*
%TO.P,J1,17,RX/SDA*%
%TO.N,/RX_CALC*%
X139662718Y-85232651D03*
%TO.P,J1,18,D-*%
%TO.N,unconnected-(J1-D--Pad18)*%
X142202718Y-85232651D03*
%TO.P,J1,19,TX/SCL*%
%TO.N,/TX_CALC*%
X139662718Y-87772651D03*
%TO.P,J1,20,D+*%
%TO.N,unconnected-(J1-D+-Pad20)*%
X142202718Y-87772651D03*
%TO.P,J1,21,SCK*%
%TO.N,unconnected-(J1-SCK-Pad21)*%
X139662718Y-90312651D03*
%TO.P,J1,22,RD*%
%TO.N,/CAN_RD*%
X142202718Y-90312651D03*
%TO.P,J1,23,MOSI*%
%TO.N,unconnected-(J1-MOSI-Pad23)*%
X139662718Y-92852651D03*
%TO.P,J1,24,TD*%
%TO.N,/CAN_TD*%
X142202718Y-92852651D03*
%TO.P,J1,25,MISO*%
%TO.N,unconnected-(J1-MISO-Pad25)*%
X139662718Y-95392651D03*
%TO.P,J1,26,SDA/RX*%
%TO.N,/SDA*%
X142202718Y-95392651D03*
%TO.P,J1,27,SSEL*%
%TO.N,unconnected-(J1-SSEL-Pad27)*%
X139662718Y-97932651D03*
%TO.P,J1,28,SCL/TX*%
%TO.N,/SCL*%
X142202718Y-97932651D03*
%TO.P,J1,29,AI_1*%
%TO.N,unconnected-(J1-AI_1-Pad29)*%
X139662718Y-100472651D03*
%TO.P,J1,30,PWM_O_1*%
%TO.N,/RESET_SIGNAL*%
X142202718Y-100472651D03*
%TO.P,J1,31,AI_2*%
%TO.N,unconnected-(J1-AI_2-Pad31)*%
X139662718Y-103012651D03*
%TO.P,J1,32,PWM_O_2*%
%TO.N,unconnected-(J1-PWM_O_2-Pad32)*%
X142202718Y-103012651D03*
%TO.P,J1,33,AI_3*%
%TO.N,unconnected-(J1-AI_3-Pad33)*%
X139662718Y-105552651D03*
%TO.P,J1,34,PWM_O_3*%
%TO.N,unconnected-(J1-PWM_O_3-Pad34)*%
X142202718Y-105552651D03*
%TO.P,J1,35,AI_4*%
%TO.N,unconnected-(J1-AI_4-Pad35)*%
X139662718Y-108092651D03*
%TO.P,J1,36,PWM_O_4*%
%TO.N,unconnected-(J1-PWM_O_4-Pad36)*%
X142202718Y-108092651D03*
%TO.P,J1,37,AI_5*%
%TO.N,unconnected-(J1-AI_5-Pad37)*%
X139662718Y-110632651D03*
%TO.P,J1,38,PWM_O_5*%
%TO.N,unconnected-(J1-PWM_O_5-Pad38)*%
X142202718Y-110632651D03*
%TO.P,J1,39,AI_6*%
%TO.N,unconnected-(J1-AI_6-Pad39)*%
X139662718Y-113172651D03*
%TO.P,J1,40,PWM_O_6*%
%TO.N,unconnected-(J1-PWM_O_6-Pad40)*%
X142202718Y-113172651D03*
%TD*%
D24*
%TO.N,GND*%
X111450000Y-58075000D03*
X70600000Y-127625000D03*
X125350000Y-62450000D03*
X118249041Y-86226905D03*
X122275000Y-121225000D03*
X132275000Y-59150000D03*
X118315000Y-74292117D03*
X146100000Y-128975000D03*
X136095000Y-127256850D03*
X85805000Y-116310000D03*
X77675000Y-81258000D03*
X120850000Y-114850000D03*
X65875000Y-124400000D03*
X138975000Y-57925000D03*
X113463513Y-114355592D03*
X97995000Y-66653000D03*
X114200000Y-120650000D03*
X135400000Y-58100000D03*
X134975000Y-69825000D03*
X96090000Y-88878000D03*
X136675000Y-65100000D03*
X147650000Y-121325000D03*
%TO.N,/HOST_SCK*%
X68914000Y-111738000D03*
%TO.N,/SDA*%
X89615000Y-120120000D03*
X136732000Y-97006000D03*
%TO.N,/SCL*%
X87710000Y-118850000D03*
X97235000Y-115675000D03*
X119460000Y-123295000D03*
X136732000Y-98905503D03*
%TO.N,/RESET_SIGNAL*%
X134124377Y-111750000D03*
X100875000Y-111150000D03*
%TO.N,/MCU_NRESET*%
X73825000Y-116900000D03*
X126776500Y-65475000D03*
%TO.N,/CS_MCU*%
X120855000Y-93323000D03*
X79600788Y-101447873D03*
X122385470Y-103995470D03*
%TO.N,Net-(B2-OE)*%
X118444000Y-129714500D03*
X133650000Y-130575000D03*
%TO.N,/SX1303_RESET*%
X117550000Y-66850000D03*
%TO.N,Net-(IC1-RESERVED1)*%
X125175000Y-59143509D03*
%TO.N,Net-(IC1-RESERVED2)*%
X115904000Y-98276000D03*
%TO.N,Net-(IC1-RESERVED3)*%
X124596051Y-56149947D03*
%TO.N,Net-(IC1-RESERVED4)*%
X124665000Y-54059500D03*
%TO.N,/AN*%
X76026000Y-97514000D03*
%TO.N,/MCU_MOSI*%
X74375000Y-114405000D03*
%TO.N,/PWM_MKR*%
X97231469Y-103613531D03*
%TO.N,/INT_MKR*%
X96600000Y-107420000D03*
%TD*%
D25*
%TO.N,+3V3*%
X133840000Y-57005000D02*
X133985000Y-57150000D01*
D26*
X149635000Y-125320000D02*
X149225000Y-125730000D01*
X118740000Y-51430000D02*
X118745000Y-51435000D01*
X118745000Y-55350000D02*
X118745000Y-51435000D01*
X118740000Y-49000000D02*
X118740000Y-51430000D01*
X119065000Y-51755000D02*
X121710000Y-51755000D01*
X133985000Y-55245000D02*
X133985000Y-50825000D01*
X118745000Y-51435000D02*
X119065000Y-51755000D01*
X133985000Y-55880000D02*
X133985000Y-55245000D01*
D25*
X123250000Y-51945000D02*
X123250000Y-63605000D01*
D26*
X149225000Y-125730000D02*
X149225000Y-129830000D01*
D25*
X129910000Y-56205000D02*
X133660000Y-56205000D01*
D26*
X140475067Y-63185000D02*
X133985000Y-63185000D01*
D25*
X123110000Y-63005000D02*
X123250000Y-63145000D01*
D26*
X149686000Y-121224000D02*
X149635000Y-121275000D01*
X142202718Y-64912651D02*
X149686000Y-72395933D01*
D25*
X133660000Y-56205000D02*
X133985000Y-55880000D01*
X119885000Y-75055000D02*
X121710000Y-75055000D01*
X118740000Y-76200000D02*
X119885000Y-75055000D01*
D26*
X93002500Y-57277000D02*
X107950000Y-57277000D01*
D25*
X121710000Y-51805000D02*
X123110000Y-51805000D01*
D26*
X142202718Y-64912651D02*
X140475067Y-63185000D01*
X118740000Y-49000000D02*
X125784619Y-49000000D01*
X125784619Y-49000000D02*
X127781289Y-50996670D01*
X77931500Y-57340000D02*
X92939500Y-57340000D01*
X137875000Y-51355000D02*
X135890000Y-53340000D01*
D25*
X121710000Y-63005000D02*
X123110000Y-63005000D01*
X118845000Y-63005000D02*
X117675000Y-64175000D01*
D26*
X149635000Y-121275000D02*
X149635000Y-125320000D01*
D25*
X129910000Y-57005000D02*
X133840000Y-57005000D01*
D26*
X137875000Y-50585000D02*
X137875000Y-51355000D01*
X117570000Y-56525000D02*
X118745000Y-55350000D01*
X121680000Y-75035000D02*
X121710000Y-75005000D01*
X149686000Y-72395933D02*
X149686000Y-121224000D01*
D25*
X123250000Y-63605000D02*
X123250000Y-74865000D01*
D26*
X133985000Y-63185000D02*
X133985000Y-57150000D01*
X107950000Y-57277000D02*
X108702000Y-56525000D01*
D25*
X121710000Y-63005000D02*
X118845000Y-63005000D01*
X123250000Y-63145000D02*
X123250000Y-63605000D01*
D26*
X133985000Y-55245000D02*
X135890000Y-53340000D01*
D25*
X123110000Y-75005000D02*
X121710000Y-75005000D01*
D26*
X127781289Y-50996670D02*
X132703330Y-50996670D01*
X108702000Y-56525000D02*
X117570000Y-56525000D01*
D25*
X123110000Y-51805000D02*
X123250000Y-51945000D01*
D26*
X133985000Y-50825000D02*
X133430000Y-50270000D01*
X133985000Y-57150000D02*
X133985000Y-55880000D01*
X132703330Y-50996670D02*
X133430000Y-50270000D01*
D25*
X123250000Y-74865000D02*
X123110000Y-75005000D01*
D26*
X92939500Y-57340000D02*
X93002500Y-57277000D01*
%TO.N,GND*%
X120095000Y-52820000D02*
X120095000Y-56390000D01*
D25*
X118315000Y-74292117D02*
X118402117Y-74205000D01*
X129910000Y-61805000D02*
X129910000Y-61005000D01*
X117745000Y-62205000D02*
X121710000Y-62205000D01*
X128026000Y-71721000D02*
X128510000Y-72205000D01*
X118315000Y-74725000D02*
X116840000Y-76200000D01*
X129910000Y-61005000D02*
X128510000Y-61005000D01*
D26*
X136675000Y-68125000D02*
X134975000Y-69825000D01*
D25*
X120310000Y-56605000D02*
X121710000Y-56605000D01*
X128479000Y-55405000D02*
X128026000Y-55858000D01*
X128026000Y-55858000D02*
X128026000Y-57382000D01*
X128026000Y-61446000D02*
X128026000Y-63478000D01*
X121710000Y-59005000D02*
X120310000Y-59005000D01*
X128449000Y-57805000D02*
X128026000Y-57382000D01*
D26*
X69100000Y-127625000D02*
X65875000Y-124400000D01*
D25*
X139925000Y-128375000D02*
X139925000Y-127200000D01*
X129910000Y-55405000D02*
X128479000Y-55405000D01*
X128026000Y-60430000D02*
X128026000Y-61446000D01*
X128233000Y-58605000D02*
X128026000Y-58398000D01*
X139925000Y-127200000D02*
X139925000Y-125730000D01*
X120310000Y-59005000D02*
X120095000Y-58790000D01*
X121710000Y-52605000D02*
X120310000Y-52605000D01*
X128026000Y-63478000D02*
X128026000Y-69066000D01*
X128753000Y-64205000D02*
X128026000Y-63478000D01*
X118315000Y-74292117D02*
X118315000Y-74725000D01*
D27*
X136095000Y-127256850D02*
X138806850Y-127256850D01*
D25*
X137875000Y-48685000D02*
X136915000Y-48685000D01*
D26*
X111450000Y-58075000D02*
X118410000Y-58075000D01*
D25*
X128510000Y-72205000D02*
X129910000Y-72205000D01*
X135400000Y-58100000D02*
X138800000Y-58100000D01*
X136915000Y-48685000D02*
X135330000Y-50270000D01*
D26*
X136675000Y-65100000D02*
X136675000Y-68125000D01*
D25*
X128385000Y-61805000D02*
X128026000Y-61446000D01*
X129910000Y-69805000D02*
X128765000Y-69805000D01*
X128026000Y-60521000D02*
X128026000Y-60430000D01*
X129910000Y-64205000D02*
X128753000Y-64205000D01*
D26*
X70600000Y-127625000D02*
X69100000Y-127625000D01*
D25*
X118402117Y-74205000D02*
X121710000Y-74205000D01*
D26*
X132275000Y-59150000D02*
X132275000Y-60140000D01*
D25*
X117675000Y-62275000D02*
X117745000Y-62205000D01*
X128510000Y-61005000D02*
X128026000Y-60521000D01*
X120095000Y-56390000D02*
X120310000Y-56605000D01*
X129910000Y-61805000D02*
X128385000Y-61805000D01*
D26*
X118410000Y-58075000D02*
X120095000Y-56390000D01*
D25*
X128026000Y-57382000D02*
X128026000Y-58398000D01*
D26*
X132275000Y-60140000D02*
X131410000Y-61005000D01*
D27*
X138806850Y-127256850D02*
X139925000Y-128375000D01*
D25*
X120095000Y-58790000D02*
X120095000Y-56390000D01*
X138800000Y-58100000D02*
X138975000Y-57925000D01*
X128026000Y-58398000D02*
X128026000Y-60430000D01*
X129910000Y-58605000D02*
X128233000Y-58605000D01*
X128026000Y-69066000D02*
X128026000Y-71721000D01*
X128765000Y-69805000D02*
X128026000Y-69066000D01*
X131410000Y-61005000D02*
X129910000Y-61005000D01*
X129910000Y-57805000D02*
X128449000Y-57805000D01*
X139925000Y-129830000D02*
X139925000Y-128375000D01*
D26*
X120310000Y-52605000D02*
X120095000Y-52820000D01*
D25*
%TO.N,Net-(IC1-REFCLK+)*%
X131525000Y-70820000D02*
X131525000Y-81742500D01*
X129910000Y-70605000D02*
X131310000Y-70605000D01*
X131310000Y-70605000D02*
X131525000Y-70820000D01*
%TO.N,/HOST_SCK*%
X105489999Y-97756052D02*
X104131052Y-97756052D01*
X75010000Y-95990000D02*
X68914000Y-102086000D01*
X68914000Y-102086000D02*
X68914000Y-111738000D01*
X104131052Y-97756052D02*
X102365000Y-95990000D01*
X102365000Y-95990000D02*
X75010000Y-95990000D01*
%TO.N,/PWM_MAG-Y*%
X144225000Y-88227718D02*
X144225000Y-77617166D01*
X140952718Y-76362651D02*
X139662718Y-75072651D01*
X142970485Y-76362651D02*
X140952718Y-76362651D01*
X134065000Y-93766500D02*
X138808849Y-89022651D01*
X138808849Y-89022651D02*
X143430067Y-89022651D01*
X131083936Y-110468000D02*
X134065000Y-107486936D01*
X134065000Y-107486936D02*
X134065000Y-93766500D01*
X144225000Y-77617166D02*
X142970485Y-76362651D01*
X143430067Y-89022651D02*
X144225000Y-88227718D01*
X129620000Y-110468000D02*
X131083936Y-110468000D01*
%TO.N,/SENS_MAG-Y*%
X136095000Y-87982952D02*
X132659952Y-91418000D01*
X114422000Y-101578000D02*
X109597588Y-101578000D01*
X139662718Y-77612651D02*
X136095000Y-81180369D01*
X107739465Y-100527465D02*
X107739465Y-89845518D01*
X136095000Y-81180369D02*
X136095000Y-87982952D01*
X107739465Y-89845518D02*
X105489999Y-87596052D01*
X108770000Y-101558000D02*
X107739465Y-100527465D01*
X109542233Y-101558000D02*
X108770000Y-101558000D01*
X124582000Y-91418000D02*
X114422000Y-101578000D01*
X132659952Y-91418000D02*
X124582000Y-91418000D01*
%TO.N,/RX_CALC*%
X131381340Y-93950000D02*
X139662718Y-85668622D01*
X127080000Y-95577617D02*
X128707617Y-93950000D01*
X125300000Y-105388000D02*
X127080000Y-103608000D01*
X128707617Y-93950000D02*
X131381340Y-93950000D01*
X139662718Y-85668622D02*
X139662718Y-85232651D01*
X127080000Y-103608000D02*
X127080000Y-95577617D01*
%TO.N,/TX_CALC*%
X128920408Y-99039825D02*
X127715000Y-100245233D01*
X132769773Y-97134740D02*
X130864688Y-99039825D01*
X139662718Y-87772651D02*
X138763058Y-87772651D01*
X130864688Y-99039825D02*
X128920408Y-99039825D01*
X127715000Y-105513000D02*
X125300000Y-107928000D01*
X132769773Y-93765936D02*
X132769773Y-97134740D01*
X127715000Y-100245233D02*
X127715000Y-105513000D01*
X138763058Y-87772651D02*
X132769773Y-93765936D01*
%TO.N,/SDA*%
X76853870Y-59340000D02*
X77931500Y-59340000D01*
X84662000Y-128502000D02*
X86085000Y-129925000D01*
X86085000Y-129925000D02*
X116003000Y-129925000D01*
X131083936Y-120628000D02*
X129620000Y-120628000D01*
X116003000Y-129925000D02*
X125300000Y-120628000D01*
X136361233Y-97006000D02*
X135400000Y-97967233D01*
X135400000Y-116311936D02*
X131083936Y-120628000D01*
X107950000Y-59277000D02*
X93002500Y-59277000D01*
X84662000Y-128502000D02*
X82589000Y-130575000D01*
X82589000Y-130575000D02*
X76575000Y-130575000D01*
X135400000Y-97967233D02*
X135400000Y-116311936D01*
X77931500Y-59340000D02*
X92939500Y-59340000D01*
X108478000Y-59805000D02*
X107950000Y-59277000D01*
X66374000Y-120374000D02*
X66374000Y-69819870D01*
X92939500Y-59340000D02*
X93002500Y-59277000D01*
X121710000Y-59805000D02*
X108478000Y-59805000D01*
X84662000Y-125835000D02*
X84662000Y-128502000D01*
X136732000Y-97006000D02*
X136361233Y-97006000D01*
X66374000Y-69819870D02*
X76853870Y-59340000D01*
X89615000Y-120120000D02*
X84662000Y-125073000D01*
X76575000Y-130575000D02*
X66374000Y-120374000D01*
X84662000Y-125073000D02*
X84662000Y-125835000D01*
%TO.N,/SCL*%
X100916219Y-119356219D02*
X115521219Y-119356219D01*
X67390000Y-120120000D02*
X67390000Y-71881500D01*
X87710000Y-118850000D02*
X87710000Y-119485000D01*
X67390000Y-71881500D02*
X77931500Y-61340000D01*
X136732000Y-98905503D02*
X136725000Y-98912503D01*
X87710000Y-119485000D02*
X82365000Y-124830000D01*
X136725000Y-98912503D02*
X136725000Y-117526936D01*
X121710000Y-60605000D02*
X108622000Y-60605000D01*
X82122000Y-124830000D02*
X72100000Y-124830000D01*
X93002500Y-61277000D02*
X77994500Y-61277000D01*
X97235000Y-115675000D02*
X100916219Y-119356219D01*
X82122000Y-125592000D02*
X82122000Y-128502000D01*
X72100000Y-124830000D02*
X67390000Y-120120000D01*
X77994500Y-61277000D02*
X77931500Y-61340000D01*
X136725000Y-117526936D02*
X131083936Y-123168000D01*
X107950000Y-61277000D02*
X93002500Y-61277000D01*
X131083936Y-123168000D02*
X129620000Y-123168000D01*
X115521219Y-119356219D02*
X119460000Y-123295000D01*
X82365000Y-124830000D02*
X82122000Y-124830000D01*
X108622000Y-60605000D02*
X107950000Y-61277000D01*
X81360000Y-124830000D02*
X82122000Y-125592000D01*
%TO.N,/RESET_SIGNAL*%
X101450917Y-111725917D02*
X100875000Y-111150000D01*
X134124377Y-111750000D02*
X134100294Y-111725917D01*
X134100294Y-111725917D02*
X101450917Y-111725917D01*
%TO.N,/MCU_NRESET*%
X131525000Y-83567500D02*
X134065000Y-83567500D01*
X129620000Y-90148000D02*
X132662416Y-90148000D01*
X128850000Y-125130000D02*
X137075000Y-125130000D01*
X73825000Y-116900000D02*
X79090000Y-111635000D01*
X95560000Y-111635000D02*
X100738089Y-116813089D01*
X134098468Y-88711948D02*
X134098468Y-83600968D01*
X128442500Y-83567500D02*
X131525000Y-83567500D01*
X126776500Y-65475000D02*
X127205000Y-65903500D01*
X126113089Y-116813089D02*
X127884417Y-118584417D01*
X100738089Y-116813089D02*
X126113089Y-116813089D01*
X137075000Y-125130000D02*
X137375000Y-124830000D01*
X137375000Y-124830000D02*
X142075000Y-124830000D01*
X134098468Y-83600968D02*
X134065000Y-83567500D01*
X127884417Y-118584417D02*
X127884417Y-124164417D01*
X127205000Y-82330000D02*
X128442500Y-83567500D01*
X142975000Y-125730000D02*
X142975000Y-129830000D01*
X127205000Y-65903500D02*
X127205000Y-82330000D01*
X142075000Y-124830000D02*
X142975000Y-125730000D01*
X132662416Y-90148000D02*
X134098468Y-88711948D01*
X127884417Y-124164417D02*
X128850000Y-125130000D01*
X79090000Y-111635000D02*
X95560000Y-111635000D01*
%TO.N,/L432KC_RESET*%
X128181500Y-125730000D02*
X127080000Y-124628500D01*
X138325000Y-129830000D02*
X136407000Y-129830000D01*
X126313000Y-118088000D02*
X125300000Y-118088000D01*
X138325000Y-125730000D02*
X134050000Y-125730000D01*
X134050000Y-125730000D02*
X128181500Y-125730000D01*
X134050000Y-127473000D02*
X134050000Y-125730000D01*
X136407000Y-129830000D02*
X134050000Y-127473000D01*
X127080000Y-124628500D02*
X127080000Y-118855000D01*
X127080000Y-118855000D02*
X126313000Y-118088000D01*
%TO.N,/CS_MCU*%
X120855000Y-92053000D02*
X125300000Y-87608000D01*
X122385470Y-103995470D02*
X122280587Y-104100353D01*
D27*
X122217940Y-104163000D02*
X122385470Y-103995470D01*
D25*
X79772293Y-101276368D02*
X79600788Y-101447873D01*
X120855000Y-93323000D02*
X120855000Y-92053000D01*
X99485352Y-104100353D02*
X96661367Y-101276368D01*
X96661367Y-101276368D02*
X79772293Y-101276368D01*
X122280587Y-104100353D02*
X99485352Y-104100353D01*
%TO.N,Net-(B2-OE)*%
X119704500Y-130975000D02*
X118444000Y-129714500D01*
X133650000Y-130575000D02*
X133250000Y-130975000D01*
X133250000Y-130975000D02*
X119704500Y-130975000D01*
%TO.N,Net-(IC1-PERn0)*%
X129910000Y-63405000D02*
X131261472Y-63405000D01*
X132125000Y-64268528D02*
X132125000Y-79802500D01*
X132125000Y-79802500D02*
X134065000Y-81742500D01*
X131261472Y-63405000D02*
X132125000Y-64268528D01*
%TO.N,/GPIO(6)*%
X113157000Y-100308000D02*
X110060000Y-100308000D01*
X113618000Y-99847000D02*
X113157000Y-100308000D01*
%TO.N,/STANDBY_GPS*%
X132810000Y-64105000D02*
X132810000Y-73535000D01*
X131310000Y-62605000D02*
X132810000Y-64105000D01*
X129910000Y-62605000D02*
X131310000Y-62605000D01*
X132810000Y-73535000D02*
X133600000Y-74325000D01*
%TO.N,/TH1*%
X121710000Y-73405000D02*
X119947383Y-73405000D01*
X119947383Y-73405000D02*
X119585000Y-73042617D01*
X117640383Y-73042617D02*
X113618000Y-77065000D01*
X113618000Y-77065000D02*
X113618000Y-98022000D01*
X119585000Y-73042617D02*
X117640383Y-73042617D01*
%TO.N,/SX1303_RESET*%
X152480000Y-59795000D02*
X152480000Y-62335000D01*
X117550000Y-66565000D02*
X117550000Y-66850000D01*
X150925000Y-129930000D02*
X149940000Y-130915000D01*
X138430000Y-60960000D02*
X140484000Y-58906000D01*
X147625000Y-130505000D02*
X147625000Y-129830000D01*
X121710000Y-63805000D02*
X120310000Y-63805000D01*
X152480000Y-62335000D02*
X150925000Y-63890000D01*
X120310000Y-63805000D02*
X117550000Y-66565000D01*
X148035000Y-130915000D02*
X147625000Y-130505000D01*
X150925000Y-63890000D02*
X150925000Y-129930000D01*
X151591000Y-58906000D02*
X152480000Y-59795000D01*
X149940000Y-130915000D02*
X148035000Y-130915000D01*
X147625000Y-129830000D02*
X147625000Y-125730000D01*
X140484000Y-58906000D02*
X151591000Y-58906000D01*
%TO.N,Net-(IC1-RESERVED1)*%
X127426000Y-56892509D02*
X125175000Y-59143509D01*
X129910000Y-54605000D02*
X127611559Y-54605000D01*
X127426000Y-54790559D02*
X127426000Y-56892509D01*
X127611559Y-54605000D02*
X127426000Y-54790559D01*
%TO.N,Net-(IC1-RESERVED2)*%
X123925000Y-86445000D02*
X123925000Y-58588059D01*
X115904000Y-94466000D02*
X123925000Y-86445000D01*
X126826000Y-55687059D02*
X126826000Y-54542031D01*
X115904000Y-98276000D02*
X115904000Y-94466000D01*
X127563031Y-53805000D02*
X129910000Y-53805000D01*
X123925000Y-58588059D02*
X126826000Y-55687059D01*
X126826000Y-54542031D02*
X127563031Y-53805000D01*
%TO.N,Net-(IC1-RESERVED3)*%
X127514503Y-53005000D02*
X129910000Y-53005000D01*
X124596051Y-56149947D02*
X124596051Y-55923452D01*
X124596051Y-55923452D02*
X127514503Y-53005000D01*
%TO.N,Net-(IC1-RESERVED4)*%
X125611475Y-54059500D02*
X127465975Y-52205000D01*
X127465975Y-52205000D02*
X129910000Y-52205000D01*
X124665000Y-54059500D02*
X125611475Y-54059500D01*
%TO.N,/AN*%
X98850936Y-97514000D02*
X104172988Y-102836052D01*
X76026000Y-97514000D02*
X98850936Y-97514000D01*
X104172988Y-102836052D02*
X105489999Y-102836052D01*
%TO.N,/MCU_MOSI*%
X101981052Y-110456052D02*
X95580000Y-104055000D01*
X95580000Y-104055000D02*
X84725000Y-104055000D01*
X84725000Y-104055000D02*
X74375000Y-114405000D01*
X105489999Y-110456052D02*
X101981052Y-110456052D01*
D27*
%TO.N,/PWM_MKR*%
X97231469Y-103613531D02*
X97231469Y-104241469D01*
D25*
X102423000Y-109198000D02*
X118950000Y-109198000D01*
X118950000Y-109198000D02*
X125300000Y-102848000D01*
D27*
X102188000Y-109198000D02*
X102423000Y-109198000D01*
X97231469Y-104241469D02*
X102188000Y-109198000D01*
D25*
%TO.N,/INT_MKR*%
X100208000Y-113008000D02*
X105478051Y-113008000D01*
X96600000Y-107420000D02*
X96600000Y-109400000D01*
X96600000Y-109400000D02*
X100208000Y-113008000D01*
X105478051Y-113008000D02*
X105489999Y-112996052D01*
%TD*%
%TA.AperFunction,Conductor*%
%TO.N,GND*%
G36*
X73696366Y-46479685D02*
G01*
X73742121Y-46532489D01*
X73743893Y-46536558D01*
X73749459Y-46549999D01*
X73749459Y-46550000D01*
X73749500Y-46550099D01*
X73749617Y-46550383D01*
X73749618Y-46550384D01*
X73749808Y-46550462D01*
X73750000Y-46550541D01*
X73750002Y-46550539D01*
X73774616Y-46550524D01*
X73774616Y-46550528D01*
X73774760Y-46550500D01*
X153625500Y-46550500D01*
X153692539Y-46570185D01*
X153738294Y-46622989D01*
X153749500Y-46674500D01*
X153749500Y-120792749D01*
X153729815Y-120859788D01*
X153677011Y-120905543D01*
X153607853Y-120915487D01*
X153544297Y-120886462D01*
X153506523Y-120827684D01*
X153505295Y-120823191D01*
X153504158Y-120818702D01*
X153410924Y-120606151D01*
X153283983Y-120411852D01*
X153283980Y-120411849D01*
X153283979Y-120411847D01*
X153126784Y-120241087D01*
X153126779Y-120241083D01*
X153126777Y-120241081D01*
X152943634Y-120098535D01*
X152943628Y-120098531D01*
X152739504Y-119988064D01*
X152739495Y-119988061D01*
X152519984Y-119912702D01*
X152348282Y-119884050D01*
X152291049Y-119874500D01*
X152058951Y-119874500D01*
X152026246Y-119879957D01*
X151830013Y-119912702D01*
X151829938Y-119912722D01*
X151829906Y-119912720D01*
X151824961Y-119913546D01*
X151824791Y-119912528D01*
X151760118Y-119910096D01*
X151702801Y-119870139D01*
X151676186Y-119805537D01*
X151675500Y-119792516D01*
X151675500Y-64252229D01*
X151695185Y-64185190D01*
X151711819Y-64164548D01*
X152323928Y-63552439D01*
X152965642Y-62910724D01*
X152979271Y-62898947D01*
X152998530Y-62884610D01*
X153032101Y-62844601D01*
X153035761Y-62840606D01*
X153041588Y-62834780D01*
X153041588Y-62834779D01*
X153041591Y-62834777D01*
X153061380Y-62809747D01*
X153062509Y-62808362D01*
X153064879Y-62805536D01*
X153111302Y-62750214D01*
X153111305Y-62750207D01*
X153115274Y-62744175D01*
X153115325Y-62744208D01*
X153119372Y-62737856D01*
X153119320Y-62737824D01*
X153123111Y-62731677D01*
X153124736Y-62728193D01*
X153155226Y-62662804D01*
X153155952Y-62661305D01*
X153190040Y-62593433D01*
X153190043Y-62593417D01*
X153192509Y-62586646D01*
X153192567Y-62586667D01*
X153195043Y-62579546D01*
X153194986Y-62579527D01*
X153197256Y-62572677D01*
X153203408Y-62542883D01*
X153212608Y-62498316D01*
X153212991Y-62496591D01*
X153230500Y-62422721D01*
X153230500Y-62422719D01*
X153230501Y-62422715D01*
X153231339Y-62415548D01*
X153231397Y-62415554D01*
X153232164Y-62408056D01*
X153232104Y-62408051D01*
X153232733Y-62400860D01*
X153230526Y-62324988D01*
X153230500Y-62323185D01*
X153230500Y-59858705D01*
X153231809Y-59840735D01*
X153234673Y-59821179D01*
X153235289Y-59816977D01*
X153235206Y-59816031D01*
X153230736Y-59764934D01*
X153230500Y-59759528D01*
X153230500Y-59751296D01*
X153230500Y-59751291D01*
X153226795Y-59719602D01*
X153226618Y-59717876D01*
X153219999Y-59642203D01*
X153219999Y-59642201D01*
X153218539Y-59635129D01*
X153218597Y-59635116D01*
X153216965Y-59627757D01*
X153216906Y-59627772D01*
X153215241Y-59620751D01*
X153215241Y-59620745D01*
X153189267Y-59549382D01*
X153188691Y-59547723D01*
X153164814Y-59475666D01*
X153164810Y-59475659D01*
X153161760Y-59469118D01*
X153161815Y-59469091D01*
X153158533Y-59462313D01*
X153158480Y-59462340D01*
X153155236Y-59455881D01*
X153113529Y-59392470D01*
X153112560Y-59390949D01*
X153072710Y-59326342D01*
X153068234Y-59320682D01*
X153068281Y-59320644D01*
X153063519Y-59314799D01*
X153063474Y-59314838D01*
X153058831Y-59309305D01*
X153003617Y-59257213D01*
X153002357Y-59255990D01*
X152166729Y-58420361D01*
X152154949Y-58406730D01*
X152141078Y-58388098D01*
X152140612Y-58387472D01*
X152136087Y-58383675D01*
X152100587Y-58353886D01*
X152096612Y-58350244D01*
X152093690Y-58347322D01*
X152090779Y-58344410D01*
X152065736Y-58324609D01*
X152064338Y-58323470D01*
X152006214Y-58274698D01*
X152000180Y-58270729D01*
X152000212Y-58270680D01*
X151993853Y-58266628D01*
X151993822Y-58266679D01*
X151987680Y-58262891D01*
X151987678Y-58262890D01*
X151987677Y-58262889D01*
X151918872Y-58230804D01*
X151917252Y-58230019D01*
X151877512Y-58210061D01*
X151849433Y-58195960D01*
X151849431Y-58195959D01*
X151849430Y-58195959D01*
X151842645Y-58193489D01*
X151842665Y-58193433D01*
X151835549Y-58190959D01*
X151835531Y-58191015D01*
X151828674Y-58188743D01*
X151754328Y-58173391D01*
X151752569Y-58173001D01*
X151678718Y-58155499D01*
X151671547Y-58154661D01*
X151671553Y-58154601D01*
X151664055Y-58153835D01*
X151664050Y-58153895D01*
X151656860Y-58153265D01*
X151580968Y-58155474D01*
X151579165Y-58155500D01*
X140547705Y-58155500D01*
X140529735Y-58154191D01*
X140505972Y-58150710D01*
X140461512Y-58154601D01*
X140453931Y-58155264D01*
X140448530Y-58155500D01*
X140440283Y-58155500D01*
X140408606Y-58159202D01*
X140406832Y-58159384D01*
X140376390Y-58162047D01*
X140331198Y-58166001D01*
X140324132Y-58167460D01*
X140324120Y-58167404D01*
X140316763Y-58169035D01*
X140316777Y-58169092D01*
X140309740Y-58170760D01*
X140238385Y-58196729D01*
X140236685Y-58197320D01*
X140164668Y-58221185D01*
X140158126Y-58224236D01*
X140158101Y-58224183D01*
X140151308Y-58227471D01*
X140151334Y-58227523D01*
X140144880Y-58230764D01*
X140081468Y-58272470D01*
X140079948Y-58273439D01*
X140015348Y-58313285D01*
X140009683Y-58317765D01*
X140009647Y-58317719D01*
X140003798Y-58322484D01*
X140003835Y-58322528D01*
X139998309Y-58327164D01*
X139946212Y-58382382D01*
X139944956Y-58383675D01*
X139021151Y-59307480D01*
X138959828Y-59340965D01*
X138897162Y-59338364D01*
X138789130Y-59305279D01*
X138726121Y-59285983D01*
X138489647Y-59255701D01*
X138251471Y-59265819D01*
X138251467Y-59265819D01*
X138018419Y-59316045D01*
X137797211Y-59404935D01*
X137594203Y-59529932D01*
X137415245Y-59687435D01*
X137267666Y-59870208D01*
X137210235Y-59910000D01*
X137140408Y-59912426D01*
X137080353Y-59876716D01*
X137067385Y-59860135D01*
X137038571Y-59816031D01*
X136875764Y-59639175D01*
X136875759Y-59639171D01*
X136875757Y-59639169D01*
X136686075Y-59491533D01*
X136686069Y-59491529D01*
X136474657Y-59377118D01*
X136474652Y-59377116D01*
X136247300Y-59299066D01*
X136069468Y-59269391D01*
X136010192Y-59259500D01*
X135769808Y-59259500D01*
X135722387Y-59267413D01*
X135532699Y-59299066D01*
X135305347Y-59377116D01*
X135305342Y-59377118D01*
X135093930Y-59491529D01*
X135093924Y-59491533D01*
X135035662Y-59536881D01*
X134970668Y-59562524D01*
X134902128Y-59548957D01*
X134851804Y-59500489D01*
X134835500Y-59439028D01*
X134835500Y-55648649D01*
X134855185Y-55581610D01*
X134871815Y-55560972D01*
X135402895Y-55029891D01*
X135464216Y-54996408D01*
X135527635Y-55000106D01*
X135527744Y-54999678D01*
X135529972Y-55000242D01*
X135530835Y-55000292D01*
X135532703Y-55000934D01*
X135532707Y-55000934D01*
X135532708Y-55000935D01*
X135607329Y-55013387D01*
X135769808Y-55040500D01*
X135769809Y-55040500D01*
X136010191Y-55040500D01*
X136010192Y-55040500D01*
X136247297Y-55000934D01*
X136474656Y-54922882D01*
X136686067Y-54808472D01*
X136875764Y-54660825D01*
X137038571Y-54483969D01*
X137056193Y-54456995D01*
X137109337Y-54411641D01*
X137178568Y-54402217D01*
X137241904Y-54431718D01*
X137263804Y-54456992D01*
X137281429Y-54483969D01*
X137444236Y-54660825D01*
X137444239Y-54660827D01*
X137444242Y-54660830D01*
X137633924Y-54808466D01*
X137633930Y-54808470D01*
X137633933Y-54808472D01*
X137845344Y-54922882D01*
X137845347Y-54922883D01*
X138072699Y-55000933D01*
X138072701Y-55000933D01*
X138072703Y-55000934D01*
X138309808Y-55040500D01*
X138309809Y-55040500D01*
X138550191Y-55040500D01*
X138550192Y-55040500D01*
X138787297Y-55000934D01*
X139014656Y-54922882D01*
X139226067Y-54808472D01*
X139415764Y-54660825D01*
X139578571Y-54483969D01*
X139596193Y-54456995D01*
X139649337Y-54411641D01*
X139718568Y-54402217D01*
X139781904Y-54431718D01*
X139803804Y-54456992D01*
X139821429Y-54483969D01*
X139984236Y-54660825D01*
X139984239Y-54660827D01*
X139984242Y-54660830D01*
X140173924Y-54808466D01*
X140173930Y-54808470D01*
X140173933Y-54808472D01*
X140385344Y-54922882D01*
X140385347Y-54922883D01*
X140612699Y-55000933D01*
X140612701Y-55000933D01*
X140612703Y-55000934D01*
X140849808Y-55040500D01*
X140849809Y-55040500D01*
X141090191Y-55040500D01*
X141090192Y-55040500D01*
X141327297Y-55000934D01*
X141554656Y-54922882D01*
X141766067Y-54808472D01*
X141955764Y-54660825D01*
X142118571Y-54483969D01*
X142136193Y-54456995D01*
X142189337Y-54411641D01*
X142258568Y-54402217D01*
X142321904Y-54431718D01*
X142343804Y-54456992D01*
X142361429Y-54483969D01*
X142524236Y-54660825D01*
X142524239Y-54660827D01*
X142524242Y-54660830D01*
X142713924Y-54808466D01*
X142713930Y-54808470D01*
X142713933Y-54808472D01*
X142925344Y-54922882D01*
X142925347Y-54922883D01*
X143152699Y-55000933D01*
X143152701Y-55000933D01*
X143152703Y-55000934D01*
X143389808Y-55040500D01*
X143389809Y-55040500D01*
X143630191Y-55040500D01*
X143630192Y-55040500D01*
X143867297Y-55000934D01*
X144094656Y-54922882D01*
X144306067Y-54808472D01*
X144495764Y-54660825D01*
X144658571Y-54483969D01*
X144676193Y-54456995D01*
X144729337Y-54411641D01*
X144798568Y-54402217D01*
X144861904Y-54431718D01*
X144883804Y-54456992D01*
X144901429Y-54483969D01*
X145064236Y-54660825D01*
X145064239Y-54660827D01*
X145064242Y-54660830D01*
X145253924Y-54808466D01*
X145253930Y-54808470D01*
X145253933Y-54808472D01*
X145465344Y-54922882D01*
X145465347Y-54922883D01*
X145692699Y-55000933D01*
X145692701Y-55000933D01*
X145692703Y-55000934D01*
X145929808Y-55040500D01*
X145929809Y-55040500D01*
X146170191Y-55040500D01*
X146170192Y-55040500D01*
X146407297Y-55000934D01*
X146634656Y-54922882D01*
X146846067Y-54808472D01*
X147035764Y-54660825D01*
X147198571Y-54483969D01*
X147216193Y-54456995D01*
X147269337Y-54411641D01*
X147338568Y-54402217D01*
X147401904Y-54431718D01*
X147423804Y-54456992D01*
X147441429Y-54483969D01*
X147604236Y-54660825D01*
X147604239Y-54660827D01*
X147604242Y-54660830D01*
X147793924Y-54808466D01*
X147793930Y-54808470D01*
X147793933Y-54808472D01*
X148005344Y-54922882D01*
X148005347Y-54922883D01*
X148232699Y-55000933D01*
X148232701Y-55000933D01*
X148232703Y-55000934D01*
X148469808Y-55040500D01*
X148469809Y-55040500D01*
X148710191Y-55040500D01*
X148710192Y-55040500D01*
X148947297Y-55000934D01*
X149174656Y-54922882D01*
X149386067Y-54808472D01*
X149575764Y-54660825D01*
X149738571Y-54483969D01*
X149756193Y-54456995D01*
X149809337Y-54411641D01*
X149878568Y-54402217D01*
X149941904Y-54431718D01*
X149963804Y-54456992D01*
X149981429Y-54483969D01*
X150144236Y-54660825D01*
X150144239Y-54660827D01*
X150144242Y-54660830D01*
X150333924Y-54808466D01*
X150333930Y-54808470D01*
X150333933Y-54808472D01*
X150545344Y-54922882D01*
X150545347Y-54922883D01*
X150772699Y-55000933D01*
X150772701Y-55000933D01*
X150772703Y-55000934D01*
X151009808Y-55040500D01*
X151009809Y-55040500D01*
X151250191Y-55040500D01*
X151250192Y-55040500D01*
X151487297Y-55000934D01*
X151714656Y-54922882D01*
X151926067Y-54808472D01*
X152115764Y-54660825D01*
X152278571Y-54483969D01*
X152410049Y-54282728D01*
X152506610Y-54062591D01*
X152565620Y-53829563D01*
X152580500Y-53649990D01*
X152580500Y-53030010D01*
X152565620Y-52850437D01*
X152506610Y-52617409D01*
X152410049Y-52397272D01*
X152409251Y-52396051D01*
X152300192Y-52229124D01*
X152278571Y-52196031D01*
X152115764Y-52019175D01*
X152115759Y-52019171D01*
X152115757Y-52019169D01*
X151926075Y-51871533D01*
X151926069Y-51871529D01*
X151714657Y-51757118D01*
X151714652Y-51757116D01*
X151487300Y-51679066D01*
X151309468Y-51649391D01*
X151250192Y-51639500D01*
X151009808Y-51639500D01*
X150962387Y-51647413D01*
X150772699Y-51679066D01*
X150545347Y-51757116D01*
X150545342Y-51757118D01*
X150333930Y-51871529D01*
X150333924Y-51871533D01*
X150144242Y-52019169D01*
X150144239Y-52019172D01*
X149981430Y-52196029D01*
X149981429Y-52196031D01*
X149963807Y-52223003D01*
X149910660Y-52268358D01*
X149841429Y-52277780D01*
X149778093Y-52248277D01*
X149756193Y-52223003D01*
X149754154Y-52219883D01*
X149738571Y-52196031D01*
X149575764Y-52019175D01*
X149575759Y-52019171D01*
X149575757Y-52019169D01*
X149386075Y-51871533D01*
X149386069Y-51871529D01*
X149174657Y-51757118D01*
X149174652Y-51757116D01*
X148947300Y-51679066D01*
X148769468Y-51649391D01*
X148710192Y-51639500D01*
X148469808Y-51639500D01*
X148422387Y-51647413D01*
X148232699Y-51679066D01*
X148005347Y-51757116D01*
X148005342Y-51757118D01*
X147793930Y-51871529D01*
X147793924Y-51871533D01*
X147604242Y-52019169D01*
X147604239Y-52019172D01*
X147441430Y-52196029D01*
X147441429Y-52196031D01*
X147423807Y-52223003D01*
X147370660Y-52268358D01*
X147301429Y-52277780D01*
X147238093Y-52248277D01*
X147216193Y-52223003D01*
X147214154Y-52219883D01*
X147198571Y-52196031D01*
X147035764Y-52019175D01*
X147035759Y-52019171D01*
X147035757Y-52019169D01*
X146846075Y-51871533D01*
X146846069Y-51871529D01*
X146634657Y-51757118D01*
X146634652Y-51757116D01*
X146407300Y-51679066D01*
X146229468Y-51649391D01*
X146170192Y-51639500D01*
X145929808Y-51639500D01*
X145882386Y-51647413D01*
X145692699Y-51679066D01*
X145465347Y-51757116D01*
X145465342Y-51757118D01*
X145253930Y-51871529D01*
X145253924Y-51871533D01*
X145064242Y-52019169D01*
X145064239Y-52019172D01*
X144901430Y-52196029D01*
X144901429Y-52196031D01*
X144883807Y-52223003D01*
X144830660Y-52268358D01*
X144761429Y-52277780D01*
X144698093Y-52248277D01*
X144676193Y-52223003D01*
X144674154Y-52219883D01*
X144658571Y-52196031D01*
X144495764Y-52019175D01*
X144495759Y-52019171D01*
X144495757Y-52019169D01*
X144306075Y-51871533D01*
X144306069Y-51871529D01*
X144094657Y-51757118D01*
X144094652Y-51757116D01*
X143867300Y-51679066D01*
X143689468Y-51649391D01*
X143630192Y-51639500D01*
X143389808Y-51639500D01*
X143342387Y-51647413D01*
X143152699Y-51679066D01*
X142925347Y-51757116D01*
X142925342Y-51757118D01*
X142713930Y-51871529D01*
X142713924Y-51871533D01*
X142524242Y-52019169D01*
X142524239Y-52019172D01*
X142361430Y-52196029D01*
X142361429Y-52196031D01*
X142343807Y-52223003D01*
X142290660Y-52268358D01*
X142221429Y-52277780D01*
X142158093Y-52248277D01*
X142136193Y-52223003D01*
X142134154Y-52219883D01*
X142118571Y-52196031D01*
X141955764Y-52019175D01*
X141955759Y-52019171D01*
X141955757Y-52019169D01*
X141766075Y-51871533D01*
X141766069Y-51871529D01*
X141554657Y-51757118D01*
X141554652Y-51757116D01*
X141327300Y-51679066D01*
X141149468Y-51649391D01*
X141090192Y-51639500D01*
X140849808Y-51639500D01*
X140802386Y-51647413D01*
X140612699Y-51679066D01*
X140385347Y-51757116D01*
X140385342Y-51757118D01*
X140173930Y-51871529D01*
X140173924Y-51871533D01*
X139984242Y-52019169D01*
X139984239Y-52019172D01*
X139821430Y-52196029D01*
X139821429Y-52196031D01*
X139803807Y-52223003D01*
X139750660Y-52268358D01*
X139681429Y-52277780D01*
X139618093Y-52248277D01*
X139596193Y-52223003D01*
X139594154Y-52219883D01*
X139578571Y-52196031D01*
X139415764Y-52019175D01*
X139415759Y-52019171D01*
X139415757Y-52019169D01*
X139226075Y-51871533D01*
X139226069Y-51871529D01*
X139014656Y-51757118D01*
X138909027Y-51720855D01*
X138852012Y-51680469D01*
X138825882Y-51615669D01*
X138838934Y-51547029D01*
X138871602Y-51506929D01*
X138954940Y-51439940D01*
X139070842Y-51295753D01*
X139153037Y-51130021D01*
X139197683Y-50950495D01*
X139200500Y-50908954D01*
X139200500Y-50261046D01*
X139197683Y-50219505D01*
X139196785Y-50215896D01*
X139179445Y-50146170D01*
X139153037Y-50039979D01*
X139070842Y-49874247D01*
X139006433Y-49794119D01*
X138954940Y-49730059D01*
X138874545Y-49665436D01*
X138834627Y-49608092D01*
X138832047Y-49538270D01*
X138864552Y-49481107D01*
X138942317Y-49403342D01*
X139034356Y-49254124D01*
X139034358Y-49254119D01*
X139089505Y-49087697D01*
X139089506Y-49087690D01*
X139099999Y-48984986D01*
X139100000Y-48984973D01*
X139100000Y-48935000D01*
X136650001Y-48935000D01*
X136650001Y-48984986D01*
X136660494Y-49087697D01*
X136715641Y-49254119D01*
X136715643Y-49254124D01*
X136807684Y-49403345D01*
X136885447Y-49481108D01*
X136918932Y-49542431D01*
X136913948Y-49612123D01*
X136875454Y-49665435D01*
X136795062Y-49730056D01*
X136679156Y-49874249D01*
X136596964Y-50039976D01*
X136596961Y-50039984D01*
X136574333Y-50130972D01*
X136539051Y-50191279D01*
X136476765Y-50222937D01*
X136407251Y-50215896D01*
X136352579Y-50172390D01*
X136330108Y-50106232D01*
X136329999Y-50101045D01*
X136329999Y-49745028D01*
X136329998Y-49745012D01*
X136319505Y-49642302D01*
X136264358Y-49475880D01*
X136264356Y-49475875D01*
X136172315Y-49326654D01*
X136048345Y-49202684D01*
X135899124Y-49110643D01*
X135899119Y-49110641D01*
X135732697Y-49055494D01*
X135732690Y-49055493D01*
X135629986Y-49045000D01*
X135580000Y-49045000D01*
X135580000Y-51507905D01*
X135597960Y-51540797D01*
X135592976Y-51610489D01*
X135551104Y-51666422D01*
X135517057Y-51684436D01*
X135305348Y-51757116D01*
X135305342Y-51757118D01*
X135093930Y-51871529D01*
X135093924Y-51871533D01*
X135035662Y-51916881D01*
X134970668Y-51942524D01*
X134902128Y-51928957D01*
X134851804Y-51880489D01*
X134835500Y-51819028D01*
X134835500Y-51612440D01*
X134855185Y-51545401D01*
X134907989Y-51499646D01*
X134972105Y-51489082D01*
X135030021Y-51494999D01*
X135079999Y-51494998D01*
X135080000Y-51494998D01*
X135080000Y-49045000D01*
X135079999Y-49044999D01*
X135030029Y-49045000D01*
X135030011Y-49045001D01*
X134927302Y-49055494D01*
X134760880Y-49110641D01*
X134760875Y-49110643D01*
X134611657Y-49202682D01*
X134533891Y-49280448D01*
X134472567Y-49313932D01*
X134402876Y-49308948D01*
X134349563Y-49270454D01*
X134284940Y-49190059D01*
X134157587Y-49087690D01*
X134140753Y-49074158D01*
X134140751Y-49074157D01*
X134140750Y-49074156D01*
X133975023Y-48991964D01*
X133975021Y-48991963D01*
X133795497Y-48947317D01*
X133795501Y-48947317D01*
X133764339Y-48945204D01*
X133753954Y-48944500D01*
X133106046Y-48944500D01*
X133094177Y-48945304D01*
X133064500Y-48947317D01*
X132884978Y-48991963D01*
X132884976Y-48991964D01*
X132719249Y-49074156D01*
X132575059Y-49190059D01*
X132459156Y-49334249D01*
X132376964Y-49499976D01*
X132376963Y-49499978D01*
X132332317Y-49679500D01*
X132329500Y-49721048D01*
X132329500Y-50022170D01*
X132309815Y-50089209D01*
X132257011Y-50134964D01*
X132205500Y-50146170D01*
X131634500Y-50146170D01*
X131567461Y-50126485D01*
X131521706Y-50073681D01*
X131510500Y-50022170D01*
X131510499Y-48435000D01*
X136650000Y-48435000D01*
X137625000Y-48435000D01*
X137625000Y-47685000D01*
X138125000Y-47685000D01*
X138125000Y-48435000D01*
X139099999Y-48435000D01*
X139099999Y-48385028D01*
X139099998Y-48385013D01*
X139089505Y-48282302D01*
X139034358Y-48115880D01*
X139034356Y-48115875D01*
X138942315Y-47966654D01*
X138818345Y-47842684D01*
X138669124Y-47750643D01*
X138669119Y-47750641D01*
X138502697Y-47695494D01*
X138502690Y-47695493D01*
X138399986Y-47685000D01*
X138125000Y-47685000D01*
X137625000Y-47685000D01*
X137350029Y-47685000D01*
X137350012Y-47685001D01*
X137247302Y-47695494D01*
X137080880Y-47750641D01*
X137080875Y-47750643D01*
X136931654Y-47842684D01*
X136807684Y-47966654D01*
X136715643Y-48115875D01*
X136715641Y-48115880D01*
X136660494Y-48282302D01*
X136660493Y-48282309D01*
X136650000Y-48385013D01*
X136650000Y-48435000D01*
X131510499Y-48435000D01*
X131510499Y-47765636D01*
X131495046Y-47648246D01*
X131495044Y-47648239D01*
X131495044Y-47648238D01*
X131434536Y-47502159D01*
X131338282Y-47376718D01*
X131212841Y-47280464D01*
X131066762Y-47219956D01*
X131066760Y-47219955D01*
X130949370Y-47204501D01*
X130949367Y-47204500D01*
X130949361Y-47204500D01*
X130949354Y-47204500D01*
X127670636Y-47204500D01*
X127553246Y-47219953D01*
X127553237Y-47219956D01*
X127407160Y-47280463D01*
X127281718Y-47376718D01*
X127185463Y-47502160D01*
X127124956Y-47648237D01*
X127124955Y-47648239D01*
X127111474Y-47750643D01*
X127109501Y-47765636D01*
X127109500Y-47765645D01*
X127109500Y-48822730D01*
X127089815Y-48889769D01*
X127037011Y-48935524D01*
X126967853Y-48945468D01*
X126904297Y-48916443D01*
X126897819Y-48910411D01*
X126737408Y-48750000D01*
X126412226Y-48424818D01*
X126408823Y-48421126D01*
X126372955Y-48378899D01*
X126309173Y-48330413D01*
X126307907Y-48329424D01*
X126245373Y-48279158D01*
X126244473Y-48278583D01*
X126226638Y-48267520D01*
X126225683Y-48266946D01*
X126152914Y-48233279D01*
X126151428Y-48232566D01*
X126079639Y-48196963D01*
X126078600Y-48196582D01*
X126058779Y-48189602D01*
X126057784Y-48189267D01*
X125979533Y-48172042D01*
X125977898Y-48171659D01*
X125900108Y-48152314D01*
X125899203Y-48152191D01*
X125878125Y-48149610D01*
X125877120Y-48149501D01*
X125877116Y-48149500D01*
X125877111Y-48149500D01*
X125797007Y-48149500D01*
X125795328Y-48149477D01*
X125715183Y-48147306D01*
X125714139Y-48147391D01*
X125691971Y-48149500D01*
X119830037Y-48149500D01*
X119762998Y-48129815D01*
X119718949Y-48080594D01*
X119710842Y-48064247D01*
X119667596Y-48010447D01*
X119594942Y-47920061D01*
X119496139Y-47840641D01*
X119450753Y-47804158D01*
X119450751Y-47804157D01*
X119450750Y-47804156D01*
X119285023Y-47721964D01*
X119285021Y-47721963D01*
X119105497Y-47677317D01*
X119105501Y-47677317D01*
X119074339Y-47675204D01*
X119063954Y-47674500D01*
X118416046Y-47674500D01*
X118404177Y-47675304D01*
X118374500Y-47677317D01*
X118194978Y-47721963D01*
X118194976Y-47721964D01*
X118029249Y-47804156D01*
X117885056Y-47920062D01*
X117820435Y-48000454D01*
X117763092Y-48040373D01*
X117693270Y-48042952D01*
X117636108Y-48010447D01*
X117558345Y-47932684D01*
X117409124Y-47840643D01*
X117409119Y-47840641D01*
X117242697Y-47785494D01*
X117242690Y-47785493D01*
X117139986Y-47775000D01*
X117090000Y-47775000D01*
X117090000Y-50196028D01*
X117092164Y-50199991D01*
X117095000Y-50226361D01*
X117095000Y-52659999D01*
X117144972Y-52659999D01*
X117144986Y-52659998D01*
X117247697Y-52649505D01*
X117414119Y-52594358D01*
X117414124Y-52594356D01*
X117563342Y-52502317D01*
X117641107Y-52424552D01*
X117702430Y-52391067D01*
X117772122Y-52396051D01*
X117825436Y-52434545D01*
X117867147Y-52486435D01*
X117893806Y-52551019D01*
X117894500Y-52564123D01*
X117894500Y-54946348D01*
X117874815Y-55013387D01*
X117858181Y-55034029D01*
X117254030Y-55638181D01*
X117192707Y-55671666D01*
X117166349Y-55674500D01*
X109350950Y-55674500D01*
X109283911Y-55654815D01*
X109238156Y-55602011D01*
X109228212Y-55532853D01*
X109231175Y-55518408D01*
X109235139Y-55503610D01*
X109235140Y-55503603D01*
X109254966Y-55277001D01*
X109254966Y-55276997D01*
X109235141Y-55050400D01*
X109235139Y-55050389D01*
X109176269Y-54830682D01*
X109176265Y-54830673D01*
X109080133Y-54624516D01*
X109080131Y-54624512D01*
X109029025Y-54551526D01*
X108245346Y-55335205D01*
X108253895Y-55305160D01*
X108243546Y-55193479D01*
X108193552Y-55093078D01*
X108110666Y-55017516D01*
X108006080Y-54977000D01*
X107922198Y-54977000D01*
X107839750Y-54992412D01*
X107744390Y-55051457D01*
X107676799Y-55140962D01*
X107646105Y-55248840D01*
X107654052Y-55334606D01*
X106870973Y-54551527D01*
X106819868Y-54624513D01*
X106723734Y-54830673D01*
X106723730Y-54830682D01*
X106664860Y-55050389D01*
X106664858Y-55050400D01*
X106645034Y-55276997D01*
X106645034Y-55277002D01*
X106664858Y-55503599D01*
X106664860Y-55503610D01*
X106723730Y-55723317D01*
X106723734Y-55723326D01*
X106819865Y-55929482D01*
X106950342Y-56115820D01*
X106952140Y-56117618D01*
X106952680Y-56118608D01*
X106953820Y-56119966D01*
X106953547Y-56120194D01*
X106985625Y-56178941D01*
X106980641Y-56248633D01*
X106955690Y-56289281D01*
X106866212Y-56386482D01*
X106806325Y-56422473D01*
X106774981Y-56426500D01*
X94177518Y-56426500D01*
X94110479Y-56406815D01*
X94086291Y-56386485D01*
X93996807Y-56289280D01*
X93965887Y-56226628D01*
X93973747Y-56157202D01*
X93998749Y-56120015D01*
X93998684Y-56119960D01*
X93999200Y-56119344D01*
X94000366Y-56117611D01*
X94002161Y-56115815D01*
X94132633Y-55929482D01*
X94228765Y-55723326D01*
X94228769Y-55723317D01*
X94287639Y-55503610D01*
X94287641Y-55503599D01*
X94307466Y-55277002D01*
X94307466Y-55276997D01*
X94287641Y-55050400D01*
X94287639Y-55050389D01*
X94228769Y-54830682D01*
X94228765Y-54830673D01*
X94132633Y-54624516D01*
X94132631Y-54624512D01*
X94081525Y-54551526D01*
X93297846Y-55335205D01*
X93306395Y-55305160D01*
X93296046Y-55193479D01*
X93246052Y-55093078D01*
X93163166Y-55017516D01*
X93058580Y-54977000D01*
X92974698Y-54977000D01*
X92892250Y-54992412D01*
X92796890Y-55051457D01*
X92729299Y-55140962D01*
X92698605Y-55248840D01*
X92706552Y-55334606D01*
X91923473Y-54551527D01*
X91872368Y-54624513D01*
X91776234Y-54830673D01*
X91776230Y-54830682D01*
X91717360Y-55050389D01*
X91717358Y-55050400D01*
X91697534Y-55276997D01*
X91697534Y-55277002D01*
X91717358Y-55503599D01*
X91717360Y-55503610D01*
X91776230Y-55723317D01*
X91776234Y-55723326D01*
X91872365Y-55929482D01*
X92002842Y-56115820D01*
X92004640Y-56117618D01*
X92005180Y-56118608D01*
X92006320Y-56119966D01*
X92006047Y-56120194D01*
X92038125Y-56178941D01*
X92033141Y-56248633D01*
X92008190Y-56289281D01*
X91893522Y-56413845D01*
X91893517Y-56413852D01*
X91880796Y-56433323D01*
X91827649Y-56478679D01*
X91776989Y-56489500D01*
X79106518Y-56489500D01*
X79039479Y-56469815D01*
X79015291Y-56449485D01*
X78925807Y-56352280D01*
X78894887Y-56289628D01*
X78902747Y-56220202D01*
X78927749Y-56183015D01*
X78927684Y-56182960D01*
X78928200Y-56182344D01*
X78929366Y-56180611D01*
X78931161Y-56178815D01*
X79061633Y-55992482D01*
X79157765Y-55786326D01*
X79157769Y-55786317D01*
X79216639Y-55566610D01*
X79216641Y-55566599D01*
X79236466Y-55340002D01*
X79236466Y-55339997D01*
X79216641Y-55113400D01*
X79216639Y-55113389D01*
X79157769Y-54893682D01*
X79157765Y-54893673D01*
X79061633Y-54687516D01*
X79061631Y-54687512D01*
X79010525Y-54614526D01*
X78226846Y-55398205D01*
X78235395Y-55368160D01*
X78225046Y-55256479D01*
X78175052Y-55156078D01*
X78092166Y-55080516D01*
X77987580Y-55040000D01*
X77903698Y-55040000D01*
X77821250Y-55055412D01*
X77725890Y-55114457D01*
X77658299Y-55203962D01*
X77627605Y-55311840D01*
X77635552Y-55397606D01*
X76852473Y-54614527D01*
X76801368Y-54687513D01*
X76705234Y-54893673D01*
X76705230Y-54893682D01*
X76646360Y-55113389D01*
X76646358Y-55113400D01*
X76626534Y-55339997D01*
X76626534Y-55340002D01*
X76646358Y-55566599D01*
X76646360Y-55566610D01*
X76705230Y-55786317D01*
X76705234Y-55786326D01*
X76801365Y-55992482D01*
X76931842Y-56178820D01*
X76933640Y-56180618D01*
X76934180Y-56181608D01*
X76935320Y-56182966D01*
X76935047Y-56183194D01*
X76967125Y-56241941D01*
X76962141Y-56311633D01*
X76937190Y-56352281D01*
X76822516Y-56476852D01*
X76695575Y-56671151D01*
X76602342Y-56883699D01*
X76545366Y-57108691D01*
X76545364Y-57108702D01*
X76526200Y-57339993D01*
X76526200Y-57340006D01*
X76545364Y-57571297D01*
X76545366Y-57571308D01*
X76602342Y-57796300D01*
X76695575Y-58008848D01*
X76817821Y-58195960D01*
X76822521Y-58203153D01*
X76870869Y-58255673D01*
X76871186Y-58256017D01*
X76902107Y-58318672D01*
X76894246Y-58388098D01*
X76871186Y-58423980D01*
X76822523Y-58476843D01*
X76776664Y-58547035D01*
X76723517Y-58592391D01*
X76707818Y-58597459D01*
X76707910Y-58597737D01*
X76702589Y-58599499D01*
X76699113Y-58600269D01*
X76697941Y-58600648D01*
X76694015Y-58601459D01*
X76694003Y-58601402D01*
X76686623Y-58603038D01*
X76686637Y-58603095D01*
X76679613Y-58604759D01*
X76608268Y-58630725D01*
X76606567Y-58631316D01*
X76534530Y-58655187D01*
X76527993Y-58658236D01*
X76527968Y-58658184D01*
X76521180Y-58661470D01*
X76521206Y-58661521D01*
X76514754Y-58664761D01*
X76451353Y-58706460D01*
X76449833Y-58707429D01*
X76385217Y-58747285D01*
X76379552Y-58751765D01*
X76379516Y-58751719D01*
X76373668Y-58756484D01*
X76373705Y-58756528D01*
X76368179Y-58761164D01*
X76316099Y-58816364D01*
X76314844Y-58817657D01*
X65888358Y-69244142D01*
X65874729Y-69255921D01*
X65855468Y-69270260D01*
X65821898Y-69310267D01*
X65818253Y-69314246D01*
X65812407Y-69320093D01*
X65792618Y-69345121D01*
X65791481Y-69346517D01*
X65742694Y-69404660D01*
X65738729Y-69410689D01*
X65738682Y-69410658D01*
X65734630Y-69417017D01*
X65734679Y-69417047D01*
X65730889Y-69423191D01*
X65698812Y-69491980D01*
X65698027Y-69493601D01*
X65663957Y-69561442D01*
X65661488Y-69568227D01*
X65661432Y-69568206D01*
X65658960Y-69575320D01*
X65659015Y-69575339D01*
X65656743Y-69582195D01*
X65641391Y-69656540D01*
X65641001Y-69658298D01*
X65623499Y-69732149D01*
X65622661Y-69739324D01*
X65622601Y-69739317D01*
X65621835Y-69746815D01*
X65621895Y-69746821D01*
X65621265Y-69754010D01*
X65623474Y-69829900D01*
X65623500Y-69831703D01*
X65623500Y-120310294D01*
X65622191Y-120328263D01*
X65618710Y-120352025D01*
X65623264Y-120404064D01*
X65623500Y-120409470D01*
X65623500Y-120417712D01*
X65627202Y-120449391D01*
X65627386Y-120451185D01*
X65634000Y-120526792D01*
X65635461Y-120533867D01*
X65635403Y-120533878D01*
X65637034Y-120541237D01*
X65637092Y-120541224D01*
X65638757Y-120548249D01*
X65664708Y-120619551D01*
X65665299Y-120621253D01*
X65689182Y-120693326D01*
X65692236Y-120699874D01*
X65692182Y-120699898D01*
X65695470Y-120706688D01*
X65695521Y-120706663D01*
X65698761Y-120713113D01*
X65698762Y-120713114D01*
X65698763Y-120713117D01*
X65740494Y-120776567D01*
X65741443Y-120778058D01*
X65781289Y-120842657D01*
X65785766Y-120848319D01*
X65785719Y-120848356D01*
X65790482Y-120854202D01*
X65790528Y-120854164D01*
X65795173Y-120859699D01*
X65850364Y-120911769D01*
X65851658Y-120913026D01*
X75999267Y-131060634D01*
X76011048Y-131074266D01*
X76012933Y-131076798D01*
X76025390Y-131093530D01*
X76065420Y-131127119D01*
X76069392Y-131130759D01*
X76072312Y-131133679D01*
X76075221Y-131136589D01*
X76100250Y-131156379D01*
X76101646Y-131157517D01*
X76159786Y-131206302D01*
X76159787Y-131206302D01*
X76159789Y-131206304D01*
X76165818Y-131210270D01*
X76165785Y-131210319D01*
X76172143Y-131214369D01*
X76172175Y-131214319D01*
X76178317Y-131218107D01*
X76178319Y-131218108D01*
X76178323Y-131218111D01*
X76247132Y-131250197D01*
X76248754Y-131250983D01*
X76266338Y-131259814D01*
X76316567Y-131285040D01*
X76316569Y-131285040D01*
X76323361Y-131287513D01*
X76323340Y-131287570D01*
X76330455Y-131290043D01*
X76330475Y-131289986D01*
X76337324Y-131292256D01*
X76337327Y-131292256D01*
X76337328Y-131292257D01*
X76394503Y-131304062D01*
X76456175Y-131336895D01*
X76490308Y-131397860D01*
X76486062Y-131467600D01*
X76444786Y-131523974D01*
X76379584Y-131549083D01*
X76369428Y-131549500D01*
X73774760Y-131549500D01*
X73774554Y-131549459D01*
X73726753Y-131549459D01*
X73724033Y-131550000D01*
X63874500Y-131550000D01*
X63807461Y-131530315D01*
X63761706Y-131477511D01*
X63750500Y-131426000D01*
X63750500Y-54260973D01*
X77206026Y-54260973D01*
X77931500Y-54986446D01*
X77931501Y-54986446D01*
X78656972Y-54260974D01*
X78656971Y-54260973D01*
X78583983Y-54209866D01*
X78583981Y-54209865D01*
X78558478Y-54197973D01*
X92277026Y-54197973D01*
X93002500Y-54923446D01*
X93002501Y-54923446D01*
X93727972Y-54197974D01*
X93727971Y-54197973D01*
X107224526Y-54197973D01*
X107950000Y-54923446D01*
X107950001Y-54923446D01*
X108675472Y-54197974D01*
X108675471Y-54197973D01*
X108602483Y-54146866D01*
X108602481Y-54146865D01*
X108396326Y-54050734D01*
X108396317Y-54050730D01*
X108176610Y-53991860D01*
X108176599Y-53991858D01*
X107950002Y-53972034D01*
X107949998Y-53972034D01*
X107723400Y-53991858D01*
X107723389Y-53991860D01*
X107503682Y-54050730D01*
X107503673Y-54050734D01*
X107297513Y-54146868D01*
X107224527Y-54197972D01*
X107224526Y-54197973D01*
X93727971Y-54197973D01*
X93654983Y-54146866D01*
X93654981Y-54146865D01*
X93448826Y-54050734D01*
X93448817Y-54050730D01*
X93229110Y-53991860D01*
X93229099Y-53991858D01*
X93002502Y-53972034D01*
X93002498Y-53972034D01*
X92775900Y-53991858D01*
X92775889Y-53991860D01*
X92556182Y-54050730D01*
X92556173Y-54050734D01*
X92350013Y-54146868D01*
X92277027Y-54197972D01*
X92277026Y-54197973D01*
X78558478Y-54197973D01*
X78377826Y-54113734D01*
X78377817Y-54113730D01*
X78158110Y-54054860D01*
X78158099Y-54054858D01*
X77931502Y-54035034D01*
X77931498Y-54035034D01*
X77704900Y-54054858D01*
X77704889Y-54054860D01*
X77485182Y-54113730D01*
X77485173Y-54113734D01*
X77279013Y-54209868D01*
X77206027Y-54260972D01*
X77206026Y-54260973D01*
X63750500Y-54260973D01*
X63750500Y-50969812D01*
X70634992Y-50969812D01*
X70645000Y-51256393D01*
X70645001Y-51256400D01*
X70694797Y-51538807D01*
X70694798Y-51538811D01*
X70783416Y-51811548D01*
X70909122Y-52069283D01*
X70909125Y-52069287D01*
X70909127Y-52069291D01*
X71069486Y-52307034D01*
X71069489Y-52307037D01*
X71261368Y-52520141D01*
X71261375Y-52520148D01*
X71481045Y-52704474D01*
X71481049Y-52704477D01*
X71481051Y-52704478D01*
X71724246Y-52856443D01*
X71844071Y-52909793D01*
X71986210Y-52973078D01*
X71986215Y-52973079D01*
X71986223Y-52973083D01*
X72261884Y-53052127D01*
X72261889Y-53052127D01*
X72261894Y-53052129D01*
X72451203Y-53078734D01*
X72545858Y-53092037D01*
X72545860Y-53092038D01*
X72545863Y-53092038D01*
X72760840Y-53092038D01*
X72760852Y-53092038D01*
X72975319Y-53077041D01*
X72975324Y-53077040D01*
X72975326Y-53077040D01*
X73096911Y-53051195D01*
X73255823Y-53017418D01*
X73525298Y-52919337D01*
X73778501Y-52784707D01*
X73980699Y-52637800D01*
X74010494Y-52616154D01*
X74010495Y-52616152D01*
X74010502Y-52616148D01*
X74216787Y-52416941D01*
X74393341Y-52190963D01*
X74536725Y-51942613D01*
X74640808Y-51685000D01*
X115845001Y-51685000D01*
X115845001Y-51959986D01*
X115855494Y-52062697D01*
X115910641Y-52229119D01*
X115910643Y-52229124D01*
X116002684Y-52378345D01*
X116126654Y-52502315D01*
X116275875Y-52594356D01*
X116275880Y-52594358D01*
X116442302Y-52649505D01*
X116442309Y-52649506D01*
X116545019Y-52659999D01*
X116594999Y-52659998D01*
X116595000Y-52659998D01*
X116595000Y-51685000D01*
X115845001Y-51685000D01*
X74640808Y-51685000D01*
X74644151Y-51676725D01*
X74713527Y-51398473D01*
X74743503Y-51113274D01*
X74742863Y-51094960D01*
X74733495Y-50826682D01*
X74733494Y-50826675D01*
X74730629Y-50810426D01*
X74683698Y-50544266D01*
X74595081Y-50271532D01*
X74594113Y-50269547D01*
X74469373Y-50013792D01*
X74469371Y-50013789D01*
X74469369Y-50013785D01*
X74309010Y-49776042D01*
X74188590Y-49642302D01*
X74117127Y-49562934D01*
X74117120Y-49562927D01*
X73897450Y-49378601D01*
X73691646Y-49250000D01*
X115840001Y-49250000D01*
X115840001Y-49524986D01*
X115850494Y-49627697D01*
X115905641Y-49794119D01*
X115905643Y-49794124D01*
X115997684Y-49943345D01*
X116121654Y-50067315D01*
X116196536Y-50113503D01*
X116243260Y-50165451D01*
X116254483Y-50234414D01*
X116226639Y-50298496D01*
X116196536Y-50324581D01*
X116126654Y-50367684D01*
X116002684Y-50491654D01*
X115910643Y-50640875D01*
X115910641Y-50640880D01*
X115855494Y-50807302D01*
X115855493Y-50807309D01*
X115845000Y-50910013D01*
X115845000Y-51185000D01*
X116595000Y-51185000D01*
X116595000Y-50238962D01*
X116592834Y-50234996D01*
X116590000Y-50208638D01*
X116590000Y-49250000D01*
X115840001Y-49250000D01*
X73691646Y-49250000D01*
X73654254Y-49226635D01*
X73654252Y-49226634D01*
X73392285Y-49109997D01*
X73392275Y-49109994D01*
X73392273Y-49109993D01*
X73116612Y-49030949D01*
X73116610Y-49030948D01*
X73116601Y-49030946D01*
X72832637Y-48991038D01*
X72832633Y-48991038D01*
X72617644Y-48991038D01*
X72617631Y-48991038D01*
X72403173Y-49006035D01*
X72403169Y-49006035D01*
X72122675Y-49065657D01*
X71853202Y-49163737D01*
X71600000Y-49298365D01*
X71599993Y-49298370D01*
X71368001Y-49466921D01*
X71367994Y-49466927D01*
X71161707Y-49666137D01*
X70985155Y-49892112D01*
X70841773Y-50140458D01*
X70841767Y-50140470D01*
X70734345Y-50406349D01*
X70711183Y-50499247D01*
X70664969Y-50684603D01*
X70641389Y-50908954D01*
X70634992Y-50969812D01*
X63750500Y-50969812D01*
X63750500Y-48750000D01*
X115840000Y-48750000D01*
X116590000Y-48750000D01*
X116590000Y-47775000D01*
X116589999Y-47774999D01*
X116540029Y-47775000D01*
X116540011Y-47775001D01*
X116437302Y-47785494D01*
X116270880Y-47840641D01*
X116270875Y-47840643D01*
X116121654Y-47932684D01*
X115997684Y-48056654D01*
X115905643Y-48205875D01*
X115905641Y-48205880D01*
X115850494Y-48372302D01*
X115850493Y-48372309D01*
X115840000Y-48475013D01*
X115840000Y-48750000D01*
X63750500Y-48750000D01*
X63750500Y-46584000D01*
X63770185Y-46516961D01*
X63822989Y-46471206D01*
X63874500Y-46460000D01*
X73629327Y-46460000D01*
X73696366Y-46479685D01*
G37*
%TD.AperFunction*%
%TA.AperFunction,Conductor*%
G36*
X143939898Y-67862978D02*
G01*
X143974766Y-67887488D01*
X148799181Y-72711902D01*
X148832666Y-72773225D01*
X148835500Y-72799583D01*
X148835500Y-120061939D01*
X148815815Y-120128978D01*
X148787663Y-120159792D01*
X148683218Y-120241085D01*
X148683216Y-120241086D01*
X148683216Y-120241087D01*
X148663217Y-120262812D01*
X148526016Y-120411852D01*
X148399075Y-120606151D01*
X148305842Y-120818699D01*
X148248866Y-121043691D01*
X148248864Y-121043702D01*
X148229700Y-121274993D01*
X148229700Y-121275006D01*
X148248864Y-121506297D01*
X148248866Y-121506308D01*
X148305842Y-121731300D01*
X148399075Y-121943848D01*
X148526016Y-122138147D01*
X148526019Y-122138151D01*
X148526021Y-122138153D01*
X148683216Y-122308913D01*
X148736664Y-122350513D01*
X148777475Y-122407220D01*
X148784500Y-122448364D01*
X148784500Y-124557740D01*
X148764815Y-124624779D01*
X148712011Y-124670534D01*
X148676684Y-124680679D01*
X148568246Y-124694954D01*
X148568234Y-124694957D01*
X148472452Y-124734631D01*
X148402983Y-124742100D01*
X148377548Y-124734631D01*
X148281765Y-124694957D01*
X148281760Y-124694955D01*
X148164370Y-124679501D01*
X148164367Y-124679500D01*
X148164361Y-124679500D01*
X148164354Y-124679500D01*
X147085636Y-124679500D01*
X146968246Y-124694953D01*
X146968237Y-124694956D01*
X146822160Y-124755463D01*
X146696718Y-124851718D01*
X146600463Y-124977160D01*
X146539956Y-125123237D01*
X146539955Y-125123239D01*
X146524501Y-125240629D01*
X146524500Y-125240645D01*
X146524500Y-126219363D01*
X146539953Y-126336753D01*
X146539956Y-126336762D01*
X146600464Y-126482841D01*
X146696718Y-126608282D01*
X146822159Y-126704536D01*
X146822160Y-126704536D01*
X146825986Y-126707472D01*
X146867189Y-126763900D01*
X146874500Y-126805848D01*
X146874500Y-128754151D01*
X146854815Y-128821190D01*
X146825987Y-128852527D01*
X146822159Y-128855463D01*
X146822159Y-128855464D01*
X146774501Y-128892033D01*
X146696718Y-128951718D01*
X146600463Y-129077160D01*
X146539956Y-129223237D01*
X146539955Y-129223239D01*
X146524501Y-129340629D01*
X146524500Y-129340645D01*
X146524500Y-130319363D01*
X146539953Y-130436753D01*
X146539956Y-130436762D01*
X146598312Y-130577647D01*
X146600464Y-130582841D01*
X146696718Y-130708282D01*
X146822159Y-130804536D01*
X146822160Y-130804536D01*
X146822161Y-130804537D01*
X146926553Y-130847777D01*
X146980957Y-130891617D01*
X146982702Y-130894200D01*
X146991484Y-130907553D01*
X146992453Y-130909074D01*
X147032289Y-130973657D01*
X147036766Y-130979319D01*
X147036719Y-130979356D01*
X147041482Y-130985202D01*
X147041528Y-130985164D01*
X147046173Y-130990700D01*
X147101366Y-131042771D01*
X147102660Y-131044028D01*
X147276743Y-131218111D01*
X147396452Y-131337819D01*
X147429937Y-131399142D01*
X147424953Y-131468833D01*
X147383082Y-131524767D01*
X147317617Y-131549184D01*
X147308771Y-131549500D01*
X134915365Y-131549500D01*
X134848326Y-131529815D01*
X134802571Y-131477011D01*
X134792627Y-131407853D01*
X134811556Y-131357679D01*
X134851771Y-131296123D01*
X134885924Y-131243849D01*
X134979157Y-131031300D01*
X135036134Y-130806305D01*
X135036135Y-130806297D01*
X135055300Y-130575006D01*
X135055300Y-130574993D01*
X135036135Y-130343702D01*
X135036133Y-130343691D01*
X134979157Y-130118699D01*
X134885924Y-129906151D01*
X134758983Y-129711852D01*
X134758980Y-129711849D01*
X134758979Y-129711847D01*
X134601784Y-129541087D01*
X134601779Y-129541083D01*
X134601777Y-129541081D01*
X134418634Y-129398535D01*
X134418628Y-129398531D01*
X134214504Y-129288064D01*
X134214495Y-129288061D01*
X133994984Y-129212702D01*
X133823281Y-129184050D01*
X133766049Y-129174500D01*
X133533951Y-129174500D01*
X133488164Y-129182140D01*
X133305015Y-129212702D01*
X133085504Y-129288061D01*
X133085495Y-129288064D01*
X132881371Y-129398531D01*
X132881365Y-129398535D01*
X132698222Y-129541081D01*
X132698219Y-129541084D01*
X132541016Y-129711852D01*
X132414075Y-129906151D01*
X132320841Y-130118702D01*
X132317742Y-130130942D01*
X132282202Y-130191098D01*
X132219781Y-130222489D01*
X132197537Y-130224500D01*
X120066730Y-130224500D01*
X119999691Y-130204815D01*
X119979049Y-130188181D01*
X119861069Y-130070201D01*
X119827584Y-130008878D01*
X119828544Y-129952079D01*
X119830134Y-129945805D01*
X119833420Y-129906151D01*
X119849300Y-129714506D01*
X119849300Y-129714493D01*
X119830135Y-129483202D01*
X119830133Y-129483191D01*
X119773157Y-129258199D01*
X119679924Y-129045651D01*
X119552983Y-128851352D01*
X119552980Y-128851349D01*
X119552979Y-128851347D01*
X119395784Y-128680587D01*
X119395779Y-128680583D01*
X119395777Y-128680581D01*
X119212634Y-128538035D01*
X119212628Y-128538031D01*
X119008504Y-128427564D01*
X119008495Y-128427561D01*
X118863844Y-128377902D01*
X118806829Y-128337517D01*
X118780698Y-128272717D01*
X118793749Y-128204077D01*
X118816423Y-128172943D01*
X123533709Y-123455656D01*
X123595030Y-123422173D01*
X123664722Y-123427157D01*
X123720655Y-123469029D01*
X123742604Y-123517213D01*
X123744564Y-123526305D01*
X123756046Y-123579581D01*
X123844841Y-123800555D01*
X123844936Y-123800790D01*
X123962574Y-123991847D01*
X123969932Y-124003796D01*
X124116919Y-124170806D01*
X124127436Y-124182755D01*
X124312920Y-124332523D01*
X124521046Y-124448790D01*
X124676340Y-124503659D01*
X124745829Y-124528211D01*
X124980790Y-124568499D01*
X124980798Y-124568499D01*
X124980800Y-124568500D01*
X124980801Y-124568500D01*
X125559496Y-124568500D01*
X125559497Y-124568500D01*
X125559498Y-124568499D01*
X125559515Y-124568499D01*
X125737536Y-124553347D01*
X125737539Y-124553346D01*
X125737541Y-124553346D01*
X125968249Y-124493275D01*
X126154424Y-124409117D01*
X126223620Y-124399441D01*
X126287063Y-124428711D01*
X126324611Y-124487634D01*
X126329500Y-124522110D01*
X126329500Y-124564794D01*
X126328191Y-124582763D01*
X126324710Y-124606525D01*
X126329264Y-124658564D01*
X126329500Y-124663970D01*
X126329500Y-124672212D01*
X126333202Y-124703891D01*
X126333386Y-124705685D01*
X126340000Y-124781292D01*
X126341461Y-124788367D01*
X126341403Y-124788378D01*
X126343034Y-124795737D01*
X126343092Y-124795724D01*
X126344757Y-124802749D01*
X126344758Y-124802754D01*
X126344759Y-124802755D01*
X126362579Y-124851718D01*
X126370708Y-124874051D01*
X126371299Y-124875753D01*
X126395182Y-124947826D01*
X126398236Y-124954374D01*
X126398182Y-124954398D01*
X126401470Y-124961188D01*
X126401521Y-124961163D01*
X126404761Y-124967613D01*
X126404762Y-124967614D01*
X126404763Y-124967617D01*
X126446494Y-125031067D01*
X126447443Y-125032558D01*
X126479121Y-125083916D01*
X126487289Y-125097157D01*
X126491766Y-125102819D01*
X126491719Y-125102856D01*
X126496482Y-125108702D01*
X126496528Y-125108664D01*
X126501173Y-125114199D01*
X126556364Y-125166269D01*
X126557658Y-125167526D01*
X127605769Y-126215637D01*
X127617549Y-126229268D01*
X127631889Y-126248530D01*
X127631891Y-126248532D01*
X127671909Y-126282110D01*
X127675899Y-126285766D01*
X127681719Y-126291587D01*
X127706752Y-126311381D01*
X127708149Y-126312519D01*
X127731315Y-126331957D01*
X127766286Y-126361302D01*
X127766294Y-126361306D01*
X127772324Y-126365273D01*
X127772290Y-126365323D01*
X127778637Y-126369366D01*
X127778669Y-126369316D01*
X127784821Y-126373110D01*
X127784822Y-126373110D01*
X127784823Y-126373111D01*
X127853643Y-126405202D01*
X127855192Y-126405952D01*
X127923067Y-126440040D01*
X127923076Y-126440042D01*
X127929855Y-126442510D01*
X127929834Y-126442567D01*
X127936951Y-126445040D01*
X127936970Y-126444984D01*
X127943824Y-126447254D01*
X127943827Y-126447256D01*
X128018215Y-126462615D01*
X128019852Y-126462978D01*
X128093779Y-126480500D01*
X128093785Y-126480500D01*
X128100952Y-126481338D01*
X128100945Y-126481397D01*
X128108446Y-126482163D01*
X128108452Y-126482104D01*
X128115641Y-126482733D01*
X128115643Y-126482732D01*
X128115644Y-126482733D01*
X128137264Y-126482104D01*
X128191512Y-126480526D01*
X128193315Y-126480500D01*
X133175500Y-126480500D01*
X133242539Y-126500185D01*
X133288294Y-126552989D01*
X133299500Y-126604500D01*
X133299499Y-127409298D01*
X133298190Y-127427268D01*
X133294711Y-127451020D01*
X133294710Y-127451027D01*
X133299264Y-127503063D01*
X133299500Y-127508470D01*
X133299500Y-127516712D01*
X133303202Y-127548391D01*
X133303386Y-127550185D01*
X133310000Y-127625792D01*
X133311461Y-127632867D01*
X133311403Y-127632878D01*
X133313034Y-127640237D01*
X133313092Y-127640224D01*
X133314757Y-127647249D01*
X133340708Y-127718551D01*
X133341299Y-127720253D01*
X133365182Y-127792326D01*
X133368236Y-127798874D01*
X133368182Y-127798898D01*
X133371470Y-127805688D01*
X133371521Y-127805663D01*
X133374761Y-127812113D01*
X133374762Y-127812114D01*
X133374763Y-127812117D01*
X133416494Y-127875567D01*
X133417443Y-127877058D01*
X133457289Y-127941657D01*
X133461766Y-127947319D01*
X133461719Y-127947356D01*
X133466482Y-127953202D01*
X133466528Y-127953164D01*
X133471173Y-127958699D01*
X133526364Y-128010769D01*
X133527658Y-128012026D01*
X135831267Y-130315634D01*
X135843048Y-130329266D01*
X135857390Y-130348530D01*
X135897420Y-130382119D01*
X135901392Y-130385759D01*
X135903005Y-130387372D01*
X135907220Y-130391588D01*
X135932252Y-130411381D01*
X135933649Y-130412519D01*
X135956815Y-130431957D01*
X135991786Y-130461302D01*
X135991794Y-130461306D01*
X135997824Y-130465273D01*
X135997790Y-130465323D01*
X136004137Y-130469366D01*
X136004169Y-130469316D01*
X136010321Y-130473110D01*
X136010322Y-130473110D01*
X136010323Y-130473111D01*
X136079143Y-130505202D01*
X136080692Y-130505952D01*
X136148567Y-130540040D01*
X136148576Y-130540042D01*
X136155355Y-130542510D01*
X136155334Y-130542567D01*
X136162451Y-130545040D01*
X136162470Y-130544984D01*
X136169324Y-130547254D01*
X136169327Y-130547256D01*
X136243715Y-130562615D01*
X136245352Y-130562978D01*
X136319279Y-130580500D01*
X136319285Y-130580500D01*
X136326452Y-130581338D01*
X136326445Y-130581397D01*
X136333946Y-130582163D01*
X136333952Y-130582104D01*
X136341141Y-130582733D01*
X136341143Y-130582732D01*
X136341144Y-130582733D01*
X136362764Y-130582104D01*
X136417012Y-130580526D01*
X136418815Y-130580500D01*
X137237518Y-130580500D01*
X137304557Y-130600185D01*
X137335892Y-130629013D01*
X137357835Y-130657608D01*
X137375237Y-130680288D01*
X137396718Y-130708282D01*
X137522159Y-130804536D01*
X137668238Y-130865044D01*
X137785639Y-130880500D01*
X138864360Y-130880499D01*
X138864363Y-130880499D01*
X138981753Y-130865046D01*
X138981757Y-130865044D01*
X138981762Y-130865044D01*
X139127841Y-130804536D01*
X139162570Y-130777887D01*
X139227735Y-130752694D01*
X139281389Y-130760083D01*
X139317619Y-130773596D01*
X139317627Y-130773598D01*
X139377155Y-130779999D01*
X139377172Y-130780000D01*
X139675000Y-130780000D01*
X139675000Y-130080000D01*
X140175000Y-130080000D01*
X140175000Y-130780000D01*
X140472828Y-130780000D01*
X140472844Y-130779999D01*
X140532372Y-130773598D01*
X140532379Y-130773596D01*
X140667086Y-130723354D01*
X140667093Y-130723350D01*
X140782187Y-130637190D01*
X140782190Y-130637187D01*
X140868350Y-130522093D01*
X140868354Y-130522086D01*
X140918596Y-130387379D01*
X140918598Y-130387372D01*
X140924999Y-130327844D01*
X140925000Y-130327827D01*
X140925000Y-130080000D01*
X140175000Y-130080000D01*
X139675000Y-130080000D01*
X139675000Y-128880000D01*
X140175000Y-128880000D01*
X140175000Y-129580000D01*
X140925000Y-129580000D01*
X140925000Y-129332172D01*
X140924999Y-129332155D01*
X140918598Y-129272627D01*
X140918596Y-129272620D01*
X140868354Y-129137913D01*
X140868350Y-129137906D01*
X140782190Y-129022812D01*
X140782187Y-129022809D01*
X140667093Y-128936649D01*
X140667086Y-128936645D01*
X140532379Y-128886403D01*
X140532372Y-128886401D01*
X140472844Y-128880000D01*
X140175000Y-128880000D01*
X139675000Y-128880000D01*
X139377155Y-128880000D01*
X139317627Y-128886401D01*
X139317617Y-128886403D01*
X139281386Y-128899917D01*
X139211695Y-128904901D01*
X139162567Y-128882110D01*
X139127842Y-128855464D01*
X138981762Y-128794956D01*
X138981760Y-128794955D01*
X138864370Y-128779501D01*
X138864367Y-128779500D01*
X138864361Y-128779500D01*
X138864354Y-128779500D01*
X137785636Y-128779500D01*
X137668246Y-128794953D01*
X137668237Y-128794956D01*
X137522160Y-128855463D01*
X137396716Y-128951719D01*
X137335894Y-129030986D01*
X137279466Y-129072189D01*
X137237518Y-129079500D01*
X136769229Y-129079500D01*
X136702190Y-129059815D01*
X136681548Y-129043181D01*
X134836819Y-127198451D01*
X134803334Y-127137128D01*
X134800500Y-127110770D01*
X134800500Y-126604500D01*
X134820185Y-126537461D01*
X134872989Y-126491706D01*
X134924500Y-126480500D01*
X137237518Y-126480500D01*
X137304557Y-126500185D01*
X137335892Y-126529013D01*
X137396718Y-126608282D01*
X137522159Y-126704536D01*
X137668238Y-126765044D01*
X137785639Y-126780500D01*
X138864360Y-126780499D01*
X138864363Y-126780499D01*
X138981753Y-126765046D01*
X138981757Y-126765044D01*
X138981762Y-126765044D01*
X139127841Y-126704536D01*
X139162570Y-126677887D01*
X139227735Y-126652694D01*
X139281389Y-126660083D01*
X139317619Y-126673596D01*
X139317627Y-126673598D01*
X139377155Y-126679999D01*
X139377172Y-126680000D01*
X139675000Y-126680000D01*
X139675000Y-125980000D01*
X140175000Y-125980000D01*
X140175000Y-126680000D01*
X140472828Y-126680000D01*
X140472844Y-126679999D01*
X140532372Y-126673598D01*
X140532379Y-126673596D01*
X140667086Y-126623354D01*
X140667093Y-126623350D01*
X140782187Y-126537190D01*
X140782190Y-126537187D01*
X140868350Y-126422093D01*
X140868354Y-126422086D01*
X140918596Y-126287379D01*
X140918598Y-126287372D01*
X140924999Y-126227844D01*
X140925000Y-126227827D01*
X140925000Y-125980000D01*
X140175000Y-125980000D01*
X139675000Y-125980000D01*
X139675000Y-125704500D01*
X139694685Y-125637461D01*
X139747489Y-125591706D01*
X139799000Y-125580500D01*
X141712770Y-125580500D01*
X141779809Y-125600185D01*
X141800451Y-125616819D01*
X141838181Y-125654549D01*
X141871666Y-125715872D01*
X141874500Y-125742230D01*
X141874500Y-126219363D01*
X141889953Y-126336753D01*
X141889956Y-126336762D01*
X141950464Y-126482841D01*
X142046718Y-126608282D01*
X142172159Y-126704536D01*
X142172160Y-126704536D01*
X142175986Y-126707472D01*
X142217189Y-126763900D01*
X142224500Y-126805848D01*
X142224500Y-128754151D01*
X142204815Y-128821190D01*
X142175987Y-128852527D01*
X142172159Y-128855463D01*
X142172159Y-128855464D01*
X142124501Y-128892033D01*
X142046718Y-128951718D01*
X141950463Y-129077160D01*
X141889956Y-129223237D01*
X141889955Y-129223239D01*
X141874501Y-129340629D01*
X141874500Y-129340645D01*
X141874500Y-130319363D01*
X141889953Y-130436753D01*
X141889956Y-130436762D01*
X141948312Y-130577647D01*
X141950464Y-130582841D01*
X142046718Y-130708282D01*
X142172159Y-130804536D01*
X142318238Y-130865044D01*
X142435639Y-130880500D01*
X143514360Y-130880499D01*
X143514363Y-130880499D01*
X143631753Y-130865046D01*
X143631757Y-130865044D01*
X143631762Y-130865044D01*
X143777841Y-130804536D01*
X143812570Y-130777887D01*
X143877735Y-130752694D01*
X143931389Y-130760083D01*
X143967619Y-130773596D01*
X143967627Y-130773598D01*
X144027155Y-130779999D01*
X144027172Y-130780000D01*
X144325000Y-130780000D01*
X144325000Y-130080000D01*
X144825000Y-130080000D01*
X144825000Y-130780000D01*
X145122828Y-130780000D01*
X145122844Y-130779999D01*
X145182372Y-130773598D01*
X145182379Y-130773596D01*
X145317086Y-130723354D01*
X145317093Y-130723350D01*
X145432187Y-130637190D01*
X145432190Y-130637187D01*
X145518350Y-130522093D01*
X145518354Y-130522086D01*
X145568596Y-130387379D01*
X145568598Y-130387372D01*
X145574999Y-130327844D01*
X145575000Y-130327827D01*
X145575000Y-130080000D01*
X144825000Y-130080000D01*
X144325000Y-130080000D01*
X144325000Y-128880000D01*
X144825000Y-128880000D01*
X144825000Y-129580000D01*
X145575000Y-129580000D01*
X145575000Y-129332172D01*
X145574999Y-129332155D01*
X145568598Y-129272627D01*
X145568596Y-129272620D01*
X145518354Y-129137913D01*
X145518350Y-129137906D01*
X145432190Y-129022812D01*
X145432187Y-129022809D01*
X145317093Y-128936649D01*
X145317086Y-128936645D01*
X145182379Y-128886403D01*
X145182372Y-128886401D01*
X145122844Y-128880000D01*
X144825000Y-128880000D01*
X144325000Y-128880000D01*
X144027155Y-128880000D01*
X143967627Y-128886401D01*
X143967617Y-128886403D01*
X143931386Y-128899917D01*
X143861695Y-128904901D01*
X143812567Y-128882110D01*
X143774013Y-128852526D01*
X143732810Y-128796098D01*
X143725500Y-128754151D01*
X143725500Y-126805848D01*
X143745185Y-126738809D01*
X143774013Y-126707473D01*
X143777841Y-126704536D01*
X143812569Y-126677888D01*
X143877736Y-126652694D01*
X143931389Y-126660083D01*
X143967619Y-126673596D01*
X143967627Y-126673598D01*
X144027155Y-126679999D01*
X144027172Y-126680000D01*
X144325000Y-126680000D01*
X144325000Y-125980000D01*
X144825000Y-125980000D01*
X144825000Y-126680000D01*
X145122828Y-126680000D01*
X145122844Y-126679999D01*
X145182372Y-126673598D01*
X145182379Y-126673596D01*
X145317086Y-126623354D01*
X145317093Y-126623350D01*
X145432187Y-126537190D01*
X145432190Y-126537187D01*
X145518350Y-126422093D01*
X145518354Y-126422086D01*
X145568596Y-126287379D01*
X145568598Y-126287372D01*
X145574999Y-126227844D01*
X145575000Y-126227827D01*
X145575000Y-125980000D01*
X144825000Y-125980000D01*
X144325000Y-125980000D01*
X144325000Y-124780000D01*
X144825000Y-124780000D01*
X144825000Y-125480000D01*
X145575000Y-125480000D01*
X145575000Y-125232172D01*
X145574999Y-125232155D01*
X145568598Y-125172627D01*
X145568596Y-125172620D01*
X145518354Y-125037913D01*
X145518350Y-125037906D01*
X145432190Y-124922812D01*
X145432187Y-124922809D01*
X145317093Y-124836649D01*
X145317086Y-124836645D01*
X145182379Y-124786403D01*
X145182372Y-124786401D01*
X145122844Y-124780000D01*
X144825000Y-124780000D01*
X144325000Y-124780000D01*
X144027155Y-124780000D01*
X143967627Y-124786401D01*
X143967617Y-124786403D01*
X143931386Y-124799917D01*
X143861695Y-124804901D01*
X143812567Y-124782110D01*
X143777842Y-124755464D01*
X143631762Y-124694956D01*
X143631760Y-124694955D01*
X143514370Y-124679501D01*
X143514367Y-124679500D01*
X143514361Y-124679500D01*
X143514354Y-124679500D01*
X143037230Y-124679500D01*
X142970191Y-124659815D01*
X142949549Y-124643181D01*
X142650729Y-124344361D01*
X142638949Y-124330730D01*
X142631388Y-124320575D01*
X142624612Y-124311472D01*
X142608247Y-124297740D01*
X142584587Y-124277886D01*
X142580612Y-124274244D01*
X142577690Y-124271322D01*
X142574779Y-124268410D01*
X142549736Y-124248609D01*
X142548338Y-124247470D01*
X142490214Y-124198698D01*
X142484180Y-124194729D01*
X142484212Y-124194680D01*
X142477853Y-124190628D01*
X142477822Y-124190679D01*
X142471680Y-124186891D01*
X142471678Y-124186890D01*
X142471677Y-124186889D01*
X142402872Y-124154804D01*
X142401252Y-124154019D01*
X142361512Y-124134061D01*
X142333433Y-124119960D01*
X142333431Y-124119959D01*
X142333430Y-124119959D01*
X142326645Y-124117489D01*
X142326665Y-124117433D01*
X142319549Y-124114959D01*
X142319531Y-124115015D01*
X142312674Y-124112743D01*
X142238328Y-124097391D01*
X142236569Y-124097001D01*
X142162718Y-124079499D01*
X142155547Y-124078661D01*
X142155553Y-124078601D01*
X142148055Y-124077835D01*
X142148050Y-124077895D01*
X142140860Y-124077265D01*
X142064968Y-124079474D01*
X142063165Y-124079500D01*
X137438705Y-124079500D01*
X137420735Y-124078191D01*
X137396972Y-124074710D01*
X137352512Y-124078601D01*
X137344931Y-124079264D01*
X137339530Y-124079500D01*
X137331283Y-124079500D01*
X137299606Y-124083202D01*
X137297832Y-124083384D01*
X137267390Y-124086047D01*
X137222198Y-124090001D01*
X137215132Y-124091460D01*
X137215120Y-124091404D01*
X137207763Y-124093035D01*
X137207777Y-124093092D01*
X137200740Y-124094760D01*
X137129385Y-124120729D01*
X137127685Y-124121320D01*
X137055668Y-124145184D01*
X137049126Y-124148235D01*
X137049101Y-124148183D01*
X137042308Y-124151471D01*
X137042334Y-124151522D01*
X137035886Y-124154760D01*
X136972476Y-124196465D01*
X136970957Y-124197432D01*
X136906344Y-124237288D01*
X136900677Y-124241769D01*
X136900641Y-124241723D01*
X136894798Y-124246484D01*
X136894835Y-124246528D01*
X136889310Y-124251164D01*
X136889304Y-124251169D01*
X136889304Y-124251170D01*
X136879477Y-124261586D01*
X136837247Y-124306346D01*
X136835991Y-124307638D01*
X136800450Y-124343180D01*
X136739128Y-124376666D01*
X136712768Y-124379500D01*
X130888552Y-124379500D01*
X130821513Y-124359815D01*
X130775758Y-124307011D01*
X130765814Y-124237853D01*
X130794839Y-124174297D01*
X130802743Y-124165986D01*
X130875118Y-124096621D01*
X130966031Y-123973696D01*
X131021718Y-123931504D01*
X131054918Y-123923905D01*
X131061959Y-123923289D01*
X131114004Y-123918735D01*
X131119406Y-123918500D01*
X131127640Y-123918500D01*
X131127645Y-123918500D01*
X131159394Y-123914788D01*
X131161011Y-123914622D01*
X131236733Y-123907999D01*
X131236741Y-123907996D01*
X131243802Y-123906539D01*
X131243814Y-123906598D01*
X131251179Y-123904965D01*
X131251165Y-123904906D01*
X131258187Y-123903241D01*
X131258191Y-123903241D01*
X131329523Y-123877277D01*
X131331222Y-123876688D01*
X131403270Y-123852814D01*
X131403278Y-123852808D01*
X131409818Y-123849760D01*
X131409844Y-123849816D01*
X131416626Y-123846532D01*
X131416599Y-123846478D01*
X131423045Y-123843239D01*
X131423053Y-123843237D01*
X131486548Y-123801475D01*
X131487913Y-123800605D01*
X131552592Y-123760712D01*
X131552597Y-123760706D01*
X131558261Y-123756229D01*
X131558298Y-123756277D01*
X131564140Y-123751518D01*
X131564100Y-123751471D01*
X131569622Y-123746835D01*
X131569632Y-123746830D01*
X131621736Y-123691601D01*
X131622930Y-123690372D01*
X137210638Y-118102663D01*
X137224267Y-118090886D01*
X137243530Y-118076546D01*
X137243532Y-118076542D01*
X137243534Y-118076542D01*
X137272068Y-118042535D01*
X137277113Y-118036521D01*
X137280767Y-118032535D01*
X137286590Y-118026713D01*
X137306376Y-118001686D01*
X137307494Y-118000314D01*
X137356302Y-117942150D01*
X137356303Y-117942147D01*
X137360272Y-117936115D01*
X137360323Y-117936148D01*
X137364369Y-117929796D01*
X137364317Y-117929764D01*
X137368109Y-117923615D01*
X137368111Y-117923613D01*
X137400195Y-117854805D01*
X137400958Y-117853228D01*
X137435040Y-117785369D01*
X137435043Y-117785353D01*
X137437510Y-117778580D01*
X137437568Y-117778601D01*
X137440043Y-117771482D01*
X137439985Y-117771463D01*
X137442255Y-117764613D01*
X137442256Y-117764609D01*
X137457608Y-117690255D01*
X137457990Y-117688532D01*
X137468538Y-117644032D01*
X137475500Y-117614657D01*
X137475500Y-117614656D01*
X137475501Y-117614652D01*
X137476339Y-117607484D01*
X137476397Y-117607490D01*
X137477164Y-117599992D01*
X137477104Y-117599987D01*
X137477733Y-117592796D01*
X137475526Y-117516924D01*
X137475500Y-117515121D01*
X137475500Y-100162149D01*
X137495185Y-100095110D01*
X137523336Y-100064297D01*
X137683784Y-99939416D01*
X137840979Y-99768656D01*
X137967924Y-99574352D01*
X138061157Y-99361803D01*
X138118134Y-99136808D01*
X138136114Y-98919805D01*
X138161268Y-98854623D01*
X138217670Y-98813384D01*
X138287413Y-98809186D01*
X138348355Y-98843360D01*
X138352769Y-98848117D01*
X138364616Y-98861578D01*
X138437903Y-98944849D01*
X138440154Y-98947406D01*
X138625638Y-99097174D01*
X138625653Y-99097182D01*
X138625660Y-99097189D01*
X138630009Y-99100129D01*
X138629411Y-99101013D01*
X138674579Y-99147062D01*
X138688771Y-99215475D01*
X138663723Y-99280701D01*
X138634615Y-99308171D01*
X138529725Y-99379064D01*
X138529715Y-99379072D01*
X138357599Y-99544030D01*
X138215841Y-99735701D01*
X138215838Y-99735705D01*
X138108514Y-99948571D01*
X138108511Y-99948577D01*
X138038701Y-100176529D01*
X138008420Y-100412997D01*
X138018537Y-100651179D01*
X138018537Y-100651183D01*
X138068763Y-100884231D01*
X138141745Y-101065851D01*
X138157654Y-101105441D01*
X138282649Y-101308446D01*
X138440154Y-101487406D01*
X138625638Y-101637174D01*
X138625653Y-101637182D01*
X138625660Y-101637189D01*
X138630009Y-101640129D01*
X138629411Y-101641013D01*
X138674579Y-101687062D01*
X138688771Y-101755475D01*
X138663723Y-101820701D01*
X138634615Y-101848171D01*
X138529725Y-101919064D01*
X138529715Y-101919072D01*
X138357599Y-102084030D01*
X138215841Y-102275701D01*
X138215838Y-102275705D01*
X138108514Y-102488571D01*
X138108511Y-102488577D01*
X138038701Y-102716529D01*
X138008420Y-102952997D01*
X138018537Y-103191179D01*
X138018537Y-103191183D01*
X138068763Y-103424231D01*
X138157653Y-103645439D01*
X138157654Y-103645441D01*
X138282649Y-103848446D01*
X138440154Y-104027406D01*
X138625638Y-104177174D01*
X138625653Y-104177182D01*
X138625660Y-104177189D01*
X138630009Y-104180129D01*
X138629411Y-104181013D01*
X138674579Y-104227062D01*
X138688771Y-104295475D01*
X138663723Y-104360701D01*
X138634615Y-104388171D01*
X138529725Y-104459064D01*
X138529715Y-104459072D01*
X138357599Y-104624030D01*
X138215841Y-104815701D01*
X138215838Y-104815705D01*
X138108514Y-105028571D01*
X138108511Y-105028577D01*
X138038701Y-105256529D01*
X138008420Y-105492997D01*
X138018537Y-105731179D01*
X138018537Y-105731183D01*
X138068763Y-105964231D01*
X138139714Y-106140796D01*
X138157654Y-106185441D01*
X138282649Y-106388446D01*
X138440154Y-106567406D01*
X138625638Y-106717174D01*
X138625653Y-106717182D01*
X138625660Y-106717189D01*
X138630009Y-106720129D01*
X138629411Y-106721013D01*
X138674579Y-106767062D01*
X138688771Y-106835475D01*
X138663723Y-106900701D01*
X138634615Y-106928171D01*
X138529725Y-106999064D01*
X138529715Y-106999072D01*
X138357599Y-107164030D01*
X138215841Y-107355701D01*
X138215838Y-107355705D01*
X138108514Y-107568571D01*
X138108511Y-107568577D01*
X138038701Y-107796529D01*
X138008420Y-108032997D01*
X138018537Y-108271179D01*
X138018537Y-108271183D01*
X138068763Y-108504231D01*
X138139714Y-108680796D01*
X138157654Y-108725441D01*
X138282649Y-108928446D01*
X138440154Y-109107406D01*
X138625638Y-109257174D01*
X138625653Y-109257182D01*
X138625660Y-109257189D01*
X138630009Y-109260129D01*
X138629411Y-109261013D01*
X138674579Y-109307062D01*
X138688771Y-109375475D01*
X138663723Y-109440701D01*
X138634615Y-109468171D01*
X138529725Y-109539064D01*
X138529715Y-109539072D01*
X138357599Y-109704030D01*
X138215841Y-109895701D01*
X138215838Y-109895705D01*
X138108514Y-110108571D01*
X138108511Y-110108577D01*
X138038701Y-110336529D01*
X138008420Y-110572997D01*
X138018537Y-110811179D01*
X138018537Y-110811183D01*
X138068763Y-111044231D01*
X138136823Y-111213602D01*
X138157654Y-111265441D01*
X138282649Y-111468446D01*
X138440154Y-111647406D01*
X138625638Y-111797174D01*
X138625653Y-111797182D01*
X138625660Y-111797189D01*
X138630009Y-111800129D01*
X138629411Y-111801013D01*
X138674579Y-111847062D01*
X138688771Y-111915475D01*
X138663723Y-111980701D01*
X138634615Y-112008171D01*
X138529725Y-112079064D01*
X138529715Y-112079072D01*
X138357599Y-112244030D01*
X138215841Y-112435701D01*
X138215838Y-112435705D01*
X138108514Y-112648571D01*
X138108511Y-112648577D01*
X138038701Y-112876529D01*
X138008420Y-113112997D01*
X138018537Y-113351179D01*
X138018537Y-113351183D01*
X138068763Y-113584231D01*
X138157653Y-113805439D01*
X138157654Y-113805441D01*
X138282649Y-114008446D01*
X138440154Y-114187406D01*
X138625638Y-114337174D01*
X138833764Y-114453441D01*
X139025815Y-114521297D01*
X139058547Y-114532862D01*
X139293508Y-114573150D01*
X139293516Y-114573150D01*
X139293518Y-114573151D01*
X139293519Y-114573151D01*
X139972214Y-114573151D01*
X139972215Y-114573151D01*
X139972216Y-114573150D01*
X139972233Y-114573150D01*
X140150254Y-114557998D01*
X140150257Y-114557997D01*
X140150259Y-114557997D01*
X140380967Y-114497926D01*
X140574781Y-114410316D01*
X140598198Y-114399731D01*
X140598199Y-114399729D01*
X140598204Y-114399728D01*
X140795721Y-114266230D01*
X140845901Y-114218135D01*
X140907919Y-114185960D01*
X140977489Y-114192422D01*
X141009599Y-114211181D01*
X141165638Y-114337174D01*
X141343662Y-114436625D01*
X141354130Y-114442473D01*
X141373764Y-114453441D01*
X141565815Y-114521297D01*
X141598547Y-114532862D01*
X141833508Y-114573150D01*
X141833516Y-114573150D01*
X141833518Y-114573151D01*
X141833519Y-114573151D01*
X142512214Y-114573151D01*
X142512215Y-114573151D01*
X142512216Y-114573150D01*
X142512233Y-114573150D01*
X142690254Y-114557998D01*
X142690257Y-114557997D01*
X142690259Y-114557997D01*
X142920967Y-114497926D01*
X143114781Y-114410316D01*
X143138198Y-114399731D01*
X143138199Y-114399729D01*
X143138204Y-114399728D01*
X143323485Y-114274500D01*
X143335711Y-114266237D01*
X143335712Y-114266235D01*
X143335721Y-114266230D01*
X143507836Y-114101272D01*
X143649597Y-113909598D01*
X143756925Y-113696725D01*
X143826734Y-113468774D01*
X143857016Y-113232305D01*
X143855071Y-113186528D01*
X143847286Y-113003257D01*
X143846898Y-112994119D01*
X143844819Y-112984474D01*
X143796672Y-112761070D01*
X143714612Y-112556859D01*
X143707782Y-112539861D01*
X143582787Y-112336856D01*
X143425282Y-112157896D01*
X143239798Y-112008128D01*
X143239792Y-112008125D01*
X143239789Y-112008122D01*
X143239775Y-112008114D01*
X143239769Y-112008108D01*
X143235427Y-112005173D01*
X143236024Y-112004289D01*
X143190852Y-111958231D01*
X143176665Y-111889816D01*
X143201717Y-111824593D01*
X143230817Y-111797132D01*
X143335721Y-111726230D01*
X143507836Y-111561272D01*
X143649597Y-111369598D01*
X143756925Y-111156725D01*
X143826734Y-110928774D01*
X143857016Y-110692305D01*
X143856463Y-110679297D01*
X143846898Y-110454122D01*
X143846898Y-110454118D01*
X143796672Y-110221070D01*
X143754485Y-110116084D01*
X143707782Y-109999861D01*
X143582787Y-109796856D01*
X143425282Y-109617896D01*
X143239798Y-109468128D01*
X143239792Y-109468125D01*
X143239789Y-109468122D01*
X143239775Y-109468114D01*
X143239769Y-109468108D01*
X143235427Y-109465173D01*
X143236024Y-109464289D01*
X143190852Y-109418231D01*
X143176665Y-109349816D01*
X143201717Y-109284593D01*
X143230817Y-109257132D01*
X143335721Y-109186230D01*
X143507836Y-109021272D01*
X143649597Y-108829598D01*
X143756925Y-108616725D01*
X143826734Y-108388774D01*
X143857016Y-108152305D01*
X143855071Y-108106528D01*
X143846898Y-107914122D01*
X143846898Y-107914118D01*
X143796672Y-107681070D01*
X143743552Y-107548877D01*
X143707782Y-107459861D01*
X143582787Y-107256856D01*
X143425282Y-107077896D01*
X143239798Y-106928128D01*
X143239792Y-106928125D01*
X143239789Y-106928122D01*
X143239775Y-106928114D01*
X143239769Y-106928108D01*
X143235427Y-106925173D01*
X143236024Y-106924289D01*
X143190852Y-106878231D01*
X143176665Y-106809816D01*
X143201717Y-106744593D01*
X143230817Y-106717132D01*
X143335721Y-106646230D01*
X143507836Y-106481272D01*
X143649597Y-106289598D01*
X143756925Y-106076725D01*
X143826734Y-105848774D01*
X143857016Y-105612305D01*
X143855071Y-105566528D01*
X143847241Y-105382203D01*
X143846898Y-105374119D01*
X143796672Y-105141070D01*
X143707782Y-104919861D01*
X143582787Y-104716856D01*
X143425282Y-104537896D01*
X143239798Y-104388128D01*
X143239792Y-104388125D01*
X143239789Y-104388122D01*
X143239775Y-104388114D01*
X143239769Y-104388108D01*
X143235427Y-104385173D01*
X143236024Y-104384289D01*
X143190852Y-104338231D01*
X143176665Y-104269816D01*
X143201717Y-104204593D01*
X143230817Y-104177132D01*
X143335721Y-104106230D01*
X143507836Y-103941272D01*
X143649597Y-103749598D01*
X143756925Y-103536725D01*
X143826734Y-103308774D01*
X143857016Y-103072305D01*
X143855071Y-103026529D01*
X143849514Y-102895702D01*
X143846898Y-102834119D01*
X143828851Y-102750383D01*
X143796672Y-102601070D01*
X143748739Y-102481786D01*
X143707782Y-102379861D01*
X143582787Y-102176856D01*
X143425282Y-101997896D01*
X143239798Y-101848128D01*
X143239792Y-101848125D01*
X143239789Y-101848122D01*
X143239775Y-101848114D01*
X143239769Y-101848108D01*
X143235427Y-101845173D01*
X143236024Y-101844289D01*
X143190852Y-101798231D01*
X143176665Y-101729816D01*
X143201717Y-101664593D01*
X143230817Y-101637132D01*
X143335721Y-101566230D01*
X143507836Y-101401272D01*
X143649597Y-101209598D01*
X143756925Y-100996725D01*
X143826734Y-100768774D01*
X143857016Y-100532305D01*
X143856741Y-100525842D01*
X143846898Y-100294122D01*
X143846898Y-100294118D01*
X143796672Y-100061070D01*
X143772103Y-99999929D01*
X143707782Y-99839861D01*
X143582787Y-99636856D01*
X143425282Y-99457896D01*
X143239798Y-99308128D01*
X143239792Y-99308125D01*
X143239789Y-99308122D01*
X143239775Y-99308114D01*
X143239769Y-99308108D01*
X143235427Y-99305173D01*
X143236024Y-99304289D01*
X143190852Y-99258231D01*
X143176665Y-99189816D01*
X143201717Y-99124593D01*
X143230817Y-99097132D01*
X143335721Y-99026230D01*
X143507836Y-98861272D01*
X143649597Y-98669598D01*
X143756925Y-98456725D01*
X143826734Y-98228774D01*
X143857016Y-97992305D01*
X143855250Y-97950742D01*
X143846898Y-97754122D01*
X143846898Y-97754118D01*
X143796672Y-97521070D01*
X143776904Y-97471877D01*
X143707782Y-97299861D01*
X143582787Y-97096856D01*
X143425282Y-96917896D01*
X143239798Y-96768128D01*
X143239792Y-96768125D01*
X143239789Y-96768122D01*
X143239775Y-96768114D01*
X143239769Y-96768108D01*
X143235427Y-96765173D01*
X143236024Y-96764289D01*
X143190852Y-96718231D01*
X143176665Y-96649816D01*
X143201717Y-96584593D01*
X143230817Y-96557132D01*
X143335721Y-96486230D01*
X143507836Y-96321272D01*
X143649597Y-96129598D01*
X143756925Y-95916725D01*
X143826734Y-95688774D01*
X143857016Y-95452305D01*
X143856248Y-95434234D01*
X143849590Y-95277489D01*
X143846898Y-95214119D01*
X143796672Y-94981070D01*
X143707782Y-94759861D01*
X143582787Y-94556856D01*
X143425282Y-94377896D01*
X143239798Y-94228128D01*
X143239792Y-94228125D01*
X143239789Y-94228122D01*
X143239775Y-94228114D01*
X143239769Y-94228108D01*
X143235427Y-94225173D01*
X143236024Y-94224289D01*
X143190852Y-94178231D01*
X143176665Y-94109816D01*
X143201717Y-94044593D01*
X143230817Y-94017132D01*
X143335721Y-93946230D01*
X143507836Y-93781272D01*
X143649597Y-93589598D01*
X143756925Y-93376725D01*
X143826734Y-93148774D01*
X143857016Y-92912305D01*
X143855109Y-92867424D01*
X143846898Y-92674122D01*
X143846898Y-92674118D01*
X143796672Y-92441070D01*
X143776904Y-92391877D01*
X143707782Y-92219861D01*
X143582787Y-92016856D01*
X143425282Y-91837896D01*
X143239798Y-91688128D01*
X143239792Y-91688125D01*
X143239789Y-91688122D01*
X143239775Y-91688114D01*
X143239769Y-91688108D01*
X143235427Y-91685173D01*
X143236024Y-91684289D01*
X143190852Y-91638231D01*
X143176665Y-91569816D01*
X143201717Y-91504593D01*
X143230817Y-91477132D01*
X143335721Y-91406230D01*
X143507836Y-91241272D01*
X143649597Y-91049598D01*
X143756925Y-90836725D01*
X143826734Y-90608774D01*
X143857016Y-90372305D01*
X143855071Y-90326528D01*
X143846898Y-90134122D01*
X143846898Y-90134118D01*
X143796672Y-89901070D01*
X143764162Y-89820167D01*
X143757431Y-89750622D01*
X143789367Y-89688478D01*
X143811076Y-89670335D01*
X143811542Y-89670028D01*
X143832674Y-89656129D01*
X143834062Y-89655245D01*
X143898723Y-89615363D01*
X143898728Y-89615357D01*
X143904392Y-89610880D01*
X143904430Y-89610928D01*
X143910267Y-89606173D01*
X143910228Y-89606126D01*
X143915758Y-89601484D01*
X143915763Y-89601481D01*
X143967866Y-89546253D01*
X143969060Y-89545025D01*
X144710642Y-88803442D01*
X144724271Y-88791665D01*
X144743530Y-88777328D01*
X144777101Y-88737319D01*
X144780761Y-88733324D01*
X144786588Y-88727498D01*
X144786588Y-88727497D01*
X144786591Y-88727495D01*
X144806380Y-88702465D01*
X144807509Y-88701080D01*
X144809879Y-88698254D01*
X144856302Y-88642932D01*
X144856305Y-88642925D01*
X144860274Y-88636893D01*
X144860325Y-88636926D01*
X144864372Y-88630574D01*
X144864320Y-88630542D01*
X144868111Y-88624395D01*
X144874447Y-88610807D01*
X144900226Y-88555522D01*
X144900952Y-88554023D01*
X144935040Y-88486151D01*
X144935043Y-88486135D01*
X144937509Y-88479364D01*
X144937567Y-88479385D01*
X144940043Y-88472264D01*
X144939986Y-88472246D01*
X144942256Y-88465395D01*
X144942257Y-88465391D01*
X144957626Y-88390952D01*
X144957976Y-88389373D01*
X144975500Y-88315439D01*
X144975500Y-88315430D01*
X144976338Y-88308266D01*
X144976398Y-88308273D01*
X144977164Y-88300773D01*
X144977105Y-88300768D01*
X144977734Y-88293578D01*
X144975526Y-88217686D01*
X144975500Y-88215883D01*
X144975500Y-77680871D01*
X144976809Y-77662901D01*
X144980289Y-77639140D01*
X144975736Y-77587105D01*
X144975500Y-77581698D01*
X144975500Y-77573462D01*
X144975500Y-77573457D01*
X144971787Y-77541700D01*
X144971620Y-77540064D01*
X144966194Y-77478035D01*
X144964999Y-77464374D01*
X144963538Y-77457301D01*
X144963598Y-77457288D01*
X144961966Y-77449930D01*
X144961908Y-77449944D01*
X144960242Y-77442915D01*
X144959234Y-77440146D01*
X144934272Y-77371563D01*
X144933703Y-77369928D01*
X144909814Y-77297832D01*
X144909811Y-77297828D01*
X144906762Y-77291287D01*
X144906815Y-77291261D01*
X144903531Y-77284477D01*
X144903479Y-77284504D01*
X144900236Y-77278048D01*
X144893178Y-77267317D01*
X144887138Y-77258132D01*
X144858530Y-77214635D01*
X144857561Y-77213115D01*
X144817714Y-77148513D01*
X144813234Y-77142847D01*
X144813280Y-77142809D01*
X144808519Y-77136965D01*
X144808474Y-77137004D01*
X144803831Y-77131471D01*
X144748634Y-77079395D01*
X144747374Y-77078172D01*
X143652514Y-75983312D01*
X143619029Y-75921989D01*
X143624013Y-75852297D01*
X143640500Y-75821896D01*
X143649597Y-75809598D01*
X143756925Y-75596725D01*
X143826734Y-75368774D01*
X143857016Y-75132305D01*
X143854005Y-75061434D01*
X143850780Y-74985494D01*
X143846898Y-74894119D01*
X143834842Y-74838181D01*
X143796672Y-74661070D01*
X143754575Y-74556308D01*
X143707782Y-74439861D01*
X143582787Y-74236856D01*
X143425282Y-74057896D01*
X143239798Y-73908128D01*
X143239792Y-73908125D01*
X143239789Y-73908122D01*
X143239775Y-73908114D01*
X143239769Y-73908108D01*
X143235427Y-73905173D01*
X143236024Y-73904289D01*
X143190852Y-73858231D01*
X143176665Y-73789816D01*
X143201717Y-73724593D01*
X143230817Y-73697132D01*
X143335721Y-73626230D01*
X143507836Y-73461272D01*
X143649597Y-73269598D01*
X143756925Y-73056725D01*
X143826734Y-72828774D01*
X143857016Y-72592305D01*
X143846898Y-72354119D01*
X143842548Y-72333937D01*
X143796672Y-72121070D01*
X143707782Y-71899862D01*
X143707782Y-71899861D01*
X143582787Y-71696856D01*
X143425282Y-71517896D01*
X143239798Y-71368128D01*
X143239792Y-71368125D01*
X143239789Y-71368122D01*
X143239775Y-71368114D01*
X143239769Y-71368108D01*
X143235427Y-71365173D01*
X143236024Y-71364289D01*
X143190852Y-71318231D01*
X143176665Y-71249816D01*
X143201717Y-71184593D01*
X143230817Y-71157132D01*
X143335721Y-71086230D01*
X143507836Y-70921272D01*
X143649597Y-70729598D01*
X143756925Y-70516725D01*
X143826734Y-70288774D01*
X143857016Y-70052305D01*
X143846898Y-69814119D01*
X143841444Y-69788814D01*
X143796672Y-69581070D01*
X143761524Y-69493601D01*
X143707782Y-69359861D01*
X143582787Y-69156856D01*
X143425282Y-68977896D01*
X143239798Y-68828128D01*
X143239792Y-68828125D01*
X143239789Y-68828122D01*
X143239775Y-68828114D01*
X143239769Y-68828108D01*
X143235427Y-68825173D01*
X143236024Y-68824289D01*
X143190852Y-68778231D01*
X143176665Y-68709816D01*
X143201717Y-68644593D01*
X143230817Y-68617132D01*
X143335721Y-68546230D01*
X143507836Y-68381272D01*
X143649597Y-68189598D01*
X143756925Y-67976725D01*
X143768521Y-67938857D01*
X143806972Y-67880523D01*
X143870859Y-67852235D01*
X143939898Y-67862978D01*
G37*
%TD.AperFunction*%
%TA.AperFunction,Conductor*%
G36*
X92376897Y-112405185D02*
G01*
X92422652Y-112457989D01*
X92432596Y-112527147D01*
X92428423Y-112545810D01*
X92402983Y-112628878D01*
X92372702Y-112865346D01*
X92382819Y-113103528D01*
X92382819Y-113103532D01*
X92433045Y-113336580D01*
X92521935Y-113557788D01*
X92521936Y-113557790D01*
X92646931Y-113760795D01*
X92804436Y-113939755D01*
X92989920Y-114089523D01*
X92989935Y-114089531D01*
X92989942Y-114089538D01*
X92994291Y-114092478D01*
X92993693Y-114093362D01*
X93038861Y-114139411D01*
X93053053Y-114207824D01*
X93028005Y-114273050D01*
X92998897Y-114300520D01*
X92894007Y-114371413D01*
X92893997Y-114371421D01*
X92721881Y-114536379D01*
X92580123Y-114728050D01*
X92580120Y-114728054D01*
X92472796Y-114940920D01*
X92472793Y-114940926D01*
X92402983Y-115168878D01*
X92372702Y-115405346D01*
X92382819Y-115643528D01*
X92382819Y-115643532D01*
X92433045Y-115876580D01*
X92507671Y-116062290D01*
X92521936Y-116097790D01*
X92646931Y-116300795D01*
X92684823Y-116343849D01*
X92772703Y-116443700D01*
X92804436Y-116479755D01*
X92989920Y-116629523D01*
X92989935Y-116629531D01*
X92989942Y-116629538D01*
X92994291Y-116632478D01*
X92993693Y-116633362D01*
X93038861Y-116679411D01*
X93053053Y-116747824D01*
X93028005Y-116813050D01*
X92998897Y-116840520D01*
X92894007Y-116911413D01*
X92893997Y-116911421D01*
X92721881Y-117076379D01*
X92580123Y-117268050D01*
X92580120Y-117268054D01*
X92472796Y-117480920D01*
X92472793Y-117480926D01*
X92402983Y-117708878D01*
X92372702Y-117945346D01*
X92382819Y-118183528D01*
X92382819Y-118183532D01*
X92433045Y-118416580D01*
X92514263Y-118618695D01*
X92521936Y-118637790D01*
X92646931Y-118840795D01*
X92804436Y-119019755D01*
X92989920Y-119169523D01*
X93011501Y-119181579D01*
X93087074Y-119223797D01*
X93136001Y-119273677D01*
X93150193Y-119342090D01*
X93125145Y-119407316D01*
X93097724Y-119433625D01*
X92938183Y-119545338D01*
X92777342Y-119706179D01*
X92646865Y-119892517D01*
X92550734Y-120098673D01*
X92550730Y-120098682D01*
X92498127Y-120294999D01*
X92498128Y-120295000D01*
X93593314Y-120295000D01*
X93567507Y-120335156D01*
X93527000Y-120473111D01*
X93527000Y-120616889D01*
X93567507Y-120754844D01*
X93593314Y-120795000D01*
X92498128Y-120795000D01*
X92550730Y-120991317D01*
X92550734Y-120991326D01*
X92646865Y-121197482D01*
X92777342Y-121383820D01*
X92938179Y-121544657D01*
X93124517Y-121675134D01*
X93330673Y-121771265D01*
X93330682Y-121771269D01*
X93550389Y-121830139D01*
X93550400Y-121830141D01*
X93720233Y-121844999D01*
X93720236Y-121845000D01*
X93777000Y-121845000D01*
X93777000Y-120980501D01*
X93884685Y-121029680D01*
X93991237Y-121045000D01*
X94062763Y-121045000D01*
X94169315Y-121029680D01*
X94277000Y-120980501D01*
X94277000Y-121845000D01*
X94333764Y-121845000D01*
X94333766Y-121844999D01*
X94503599Y-121830141D01*
X94503610Y-121830139D01*
X94723317Y-121771269D01*
X94723326Y-121771265D01*
X94929482Y-121675134D01*
X95115820Y-121544657D01*
X95276657Y-121383820D01*
X95407134Y-121197482D01*
X95503265Y-120991326D01*
X95503269Y-120991317D01*
X95555872Y-120795000D01*
X94460686Y-120795000D01*
X94486493Y-120754844D01*
X94527000Y-120616889D01*
X94527000Y-120473111D01*
X94486493Y-120335156D01*
X94460686Y-120295000D01*
X95555872Y-120295000D01*
X95555872Y-120294999D01*
X95503269Y-120098682D01*
X95503265Y-120098673D01*
X95407134Y-119892517D01*
X95276657Y-119706179D01*
X95115820Y-119545342D01*
X94960503Y-119436587D01*
X94916878Y-119382009D01*
X94909686Y-119312511D01*
X94941208Y-119250156D01*
X94962190Y-119232277D01*
X95159993Y-119098586D01*
X95159994Y-119098584D01*
X95160003Y-119098579D01*
X95332118Y-118933621D01*
X95473879Y-118741947D01*
X95581207Y-118529074D01*
X95651016Y-118301123D01*
X95681298Y-118064654D01*
X95680358Y-118042535D01*
X95671180Y-117826471D01*
X95671180Y-117826467D01*
X95620954Y-117593419D01*
X95595609Y-117530346D01*
X95532064Y-117372210D01*
X95407069Y-117169205D01*
X95249564Y-116990245D01*
X95064080Y-116840477D01*
X95064074Y-116840474D01*
X95064071Y-116840471D01*
X95064057Y-116840463D01*
X95064051Y-116840457D01*
X95059709Y-116837522D01*
X95060306Y-116836638D01*
X95015134Y-116790580D01*
X95000947Y-116722165D01*
X95025999Y-116656942D01*
X95055099Y-116629481D01*
X95160003Y-116558579D01*
X95332118Y-116393621D01*
X95473879Y-116201947D01*
X95581207Y-115989074D01*
X95609307Y-115897316D01*
X95647757Y-115838983D01*
X95711644Y-115810695D01*
X95780683Y-115821438D01*
X95832954Y-115867801D01*
X95848075Y-115903188D01*
X95905841Y-116131295D01*
X95905841Y-116131296D01*
X95999075Y-116343848D01*
X96126016Y-116538147D01*
X96126019Y-116538151D01*
X96126021Y-116538153D01*
X96283216Y-116708913D01*
X96283219Y-116708915D01*
X96283222Y-116708918D01*
X96466365Y-116851464D01*
X96466371Y-116851468D01*
X96466374Y-116851470D01*
X96670497Y-116961936D01*
X96765099Y-116994413D01*
X96890015Y-117037297D01*
X96890017Y-117037297D01*
X96890019Y-117037298D01*
X97118951Y-117075500D01*
X97118952Y-117075500D01*
X97351047Y-117075500D01*
X97351049Y-117075500D01*
X97479274Y-117054102D01*
X97548635Y-117062483D01*
X97587362Y-117088730D01*
X100340489Y-119841857D01*
X100352270Y-119855489D01*
X100366607Y-119874747D01*
X100406628Y-119908330D01*
X100410616Y-119911985D01*
X100416436Y-119917805D01*
X100416441Y-119917809D01*
X100416442Y-119917810D01*
X100441482Y-119937609D01*
X100442863Y-119938734D01*
X100501005Y-119987521D01*
X100501006Y-119987521D01*
X100501008Y-119987523D01*
X100507037Y-119991489D01*
X100507004Y-119991538D01*
X100513366Y-119995591D01*
X100513398Y-119995540D01*
X100519538Y-119999327D01*
X100519542Y-119999330D01*
X100557497Y-120017028D01*
X100588356Y-120031419D01*
X100589979Y-120032205D01*
X100657781Y-120066257D01*
X100664576Y-120068730D01*
X100664555Y-120068786D01*
X100671676Y-120071262D01*
X100671695Y-120071205D01*
X100678538Y-120073472D01*
X100678546Y-120073476D01*
X100752967Y-120088842D01*
X100754590Y-120089202D01*
X100828498Y-120106719D01*
X100828499Y-120106719D01*
X100828503Y-120106720D01*
X100835672Y-120107558D01*
X100835665Y-120107617D01*
X100843163Y-120108383D01*
X100843169Y-120108324D01*
X100850358Y-120108953D01*
X100850362Y-120108952D01*
X100850363Y-120108953D01*
X100878448Y-120108135D01*
X100926251Y-120106745D01*
X100928054Y-120106719D01*
X103919015Y-120106719D01*
X103986054Y-120126404D01*
X104031809Y-120179208D01*
X104041753Y-120248366D01*
X104038790Y-120262813D01*
X104011127Y-120366051D01*
X104011127Y-120366052D01*
X105323888Y-120366052D01*
X105284389Y-120390509D01*
X105216798Y-120480014D01*
X105186104Y-120587892D01*
X105196453Y-120699573D01*
X105246447Y-120799974D01*
X105318930Y-120866052D01*
X104011127Y-120866052D01*
X104063729Y-121062369D01*
X104063733Y-121062378D01*
X104159864Y-121268534D01*
X104290341Y-121454872D01*
X104451178Y-121615709D01*
X104606495Y-121724464D01*
X104650120Y-121779041D01*
X104657312Y-121848540D01*
X104625790Y-121910894D01*
X104604808Y-121928774D01*
X104407006Y-122062465D01*
X104406996Y-122062473D01*
X104234880Y-122227431D01*
X104093122Y-122419102D01*
X104093119Y-122419106D01*
X103985795Y-122631972D01*
X103985792Y-122631978D01*
X103915982Y-122859930D01*
X103885701Y-123096398D01*
X103895818Y-123334580D01*
X103895818Y-123334584D01*
X103946044Y-123567632D01*
X104023631Y-123760712D01*
X104034935Y-123788842D01*
X104159930Y-123991847D01*
X104317435Y-124170807D01*
X104502919Y-124320575D01*
X104711045Y-124436842D01*
X104900155Y-124503659D01*
X104935828Y-124516263D01*
X105170789Y-124556551D01*
X105170797Y-124556551D01*
X105170799Y-124556552D01*
X105170800Y-124556552D01*
X105749495Y-124556552D01*
X105749496Y-124556552D01*
X105749497Y-124556551D01*
X105749514Y-124556551D01*
X105927535Y-124541399D01*
X105927538Y-124541398D01*
X105927540Y-124541398D01*
X106158248Y-124481327D01*
X106349047Y-124395080D01*
X106375479Y-124383132D01*
X106375480Y-124383130D01*
X106375485Y-124383129D01*
X106555314Y-124261586D01*
X106572992Y-124249638D01*
X106572993Y-124249636D01*
X106573002Y-124249631D01*
X106745117Y-124084673D01*
X106886878Y-123892999D01*
X106994206Y-123680126D01*
X107064015Y-123452175D01*
X107094297Y-123215706D01*
X107084179Y-122977520D01*
X107033953Y-122744471D01*
X106945063Y-122523262D01*
X106820068Y-122320257D01*
X106662563Y-122141297D01*
X106477079Y-121991529D01*
X106391728Y-121943849D01*
X106379923Y-121937254D01*
X106330996Y-121887374D01*
X106316804Y-121818961D01*
X106341852Y-121753735D01*
X106369274Y-121727425D01*
X106528816Y-121615712D01*
X106689656Y-121454872D01*
X106820133Y-121268534D01*
X106916264Y-121062378D01*
X106916268Y-121062369D01*
X106968871Y-120866052D01*
X105656110Y-120866052D01*
X105695609Y-120841595D01*
X105763200Y-120752090D01*
X105793894Y-120644212D01*
X105783545Y-120532531D01*
X105733551Y-120432130D01*
X105661068Y-120366052D01*
X106968871Y-120366052D01*
X106968870Y-120366051D01*
X106941208Y-120262813D01*
X106942871Y-120192963D01*
X106982033Y-120135100D01*
X107046262Y-120107596D01*
X107060983Y-120106719D01*
X108492217Y-120106719D01*
X108559256Y-120126404D01*
X108605011Y-120179208D01*
X108614955Y-120248366D01*
X108611992Y-120262812D01*
X108581127Y-120377999D01*
X108581128Y-120378000D01*
X109893889Y-120378000D01*
X109854390Y-120402457D01*
X109786799Y-120491962D01*
X109756105Y-120599840D01*
X109766454Y-120711521D01*
X109816448Y-120811922D01*
X109888931Y-120878000D01*
X108581128Y-120878000D01*
X108633730Y-121074317D01*
X108633734Y-121074326D01*
X108729865Y-121280482D01*
X108860342Y-121466820D01*
X109021179Y-121627657D01*
X109176496Y-121736412D01*
X109220121Y-121790989D01*
X109227313Y-121860488D01*
X109195791Y-121922842D01*
X109174809Y-121940722D01*
X108977007Y-122074413D01*
X108976997Y-122074421D01*
X108804881Y-122239379D01*
X108663123Y-122431050D01*
X108663120Y-122431054D01*
X108555796Y-122643920D01*
X108555793Y-122643926D01*
X108485983Y-122871878D01*
X108455702Y-123108346D01*
X108465819Y-123346528D01*
X108465819Y-123346532D01*
X108516045Y-123579580D01*
X108604935Y-123800788D01*
X108604936Y-123800790D01*
X108722574Y-123991847D01*
X108729932Y-124003796D01*
X108876919Y-124170806D01*
X108887436Y-124182755D01*
X109072920Y-124332523D01*
X109281046Y-124448790D01*
X109436340Y-124503659D01*
X109505829Y-124528211D01*
X109740790Y-124568499D01*
X109740798Y-124568499D01*
X109740800Y-124568500D01*
X109740801Y-124568500D01*
X110319496Y-124568500D01*
X110319497Y-124568500D01*
X110319498Y-124568499D01*
X110319515Y-124568499D01*
X110497536Y-124553347D01*
X110497539Y-124553346D01*
X110497541Y-124553346D01*
X110728249Y-124493275D01*
X110935832Y-124399441D01*
X110945480Y-124395080D01*
X110945481Y-124395078D01*
X110945486Y-124395077D01*
X111121440Y-124276153D01*
X111142993Y-124261586D01*
X111142994Y-124261584D01*
X111143003Y-124261579D01*
X111315118Y-124096621D01*
X111456879Y-123904947D01*
X111564207Y-123692074D01*
X111634016Y-123464123D01*
X111664298Y-123227654D01*
X111663790Y-123215706D01*
X111654180Y-122989471D01*
X111654180Y-122989467D01*
X111603954Y-122756419D01*
X111553949Y-122631978D01*
X111515064Y-122535210D01*
X111390069Y-122332205D01*
X111232564Y-122153245D01*
X111047080Y-122003477D01*
X111047069Y-122003471D01*
X110949924Y-121949202D01*
X110900997Y-121899322D01*
X110886805Y-121830909D01*
X110911853Y-121765683D01*
X110939275Y-121739373D01*
X111098817Y-121627660D01*
X111259657Y-121466820D01*
X111390134Y-121280482D01*
X111486265Y-121074326D01*
X111486269Y-121074317D01*
X111538872Y-120878000D01*
X110226111Y-120878000D01*
X110265610Y-120853543D01*
X110333201Y-120764038D01*
X110363895Y-120656160D01*
X110353546Y-120544479D01*
X110303552Y-120444078D01*
X110231069Y-120378000D01*
X111538872Y-120378000D01*
X111538872Y-120377999D01*
X111508008Y-120262812D01*
X111509671Y-120192963D01*
X111548834Y-120135100D01*
X111613062Y-120107596D01*
X111627783Y-120106719D01*
X115158989Y-120106719D01*
X115226028Y-120126404D01*
X115246670Y-120143038D01*
X116648289Y-121544657D01*
X118042930Y-122939297D01*
X118076415Y-123000620D01*
X118075456Y-123057412D01*
X118073866Y-123063691D01*
X118073865Y-123063695D01*
X118054700Y-123294993D01*
X118054700Y-123295006D01*
X118073864Y-123526297D01*
X118073866Y-123526308D01*
X118130842Y-123751300D01*
X118224075Y-123963848D01*
X118351016Y-124158147D01*
X118351019Y-124158151D01*
X118351021Y-124158153D01*
X118508216Y-124328913D01*
X118508219Y-124328915D01*
X118508222Y-124328918D01*
X118691365Y-124471464D01*
X118691371Y-124471468D01*
X118691374Y-124471470D01*
X118820591Y-124541399D01*
X118868592Y-124567376D01*
X118895497Y-124581936D01*
X118997047Y-124616798D01*
X119115015Y-124657297D01*
X119115017Y-124657297D01*
X119115019Y-124657298D01*
X119343951Y-124695500D01*
X119343952Y-124695500D01*
X119576048Y-124695500D01*
X119576049Y-124695500D01*
X119804981Y-124657298D01*
X119913778Y-124619947D01*
X119983575Y-124616798D01*
X120043996Y-124651884D01*
X120075857Y-124714066D01*
X120069042Y-124783603D01*
X120041721Y-124824910D01*
X115728451Y-129138181D01*
X115667128Y-129171666D01*
X115640770Y-129174500D01*
X88517441Y-129174500D01*
X88450402Y-129154815D01*
X88404647Y-129102011D01*
X88394703Y-129032853D01*
X88405059Y-128998096D01*
X88428264Y-128948331D01*
X88428269Y-128948317D01*
X88487139Y-128728610D01*
X88487141Y-128728599D01*
X88506966Y-128502002D01*
X88506966Y-128501997D01*
X88487141Y-128275400D01*
X88487139Y-128275389D01*
X88428269Y-128055682D01*
X88428265Y-128055673D01*
X88332133Y-127849516D01*
X88332131Y-127849512D01*
X88281025Y-127776526D01*
X87497346Y-128560205D01*
X87505895Y-128530160D01*
X87495546Y-128418479D01*
X87445552Y-128318078D01*
X87362666Y-128242516D01*
X87258080Y-128202000D01*
X87174198Y-128202000D01*
X87091750Y-128217412D01*
X86996390Y-128276457D01*
X86928799Y-128365962D01*
X86898105Y-128473840D01*
X86906052Y-128559606D01*
X86122973Y-127776527D01*
X86092546Y-127819981D01*
X86037968Y-127863606D01*
X85968470Y-127870798D01*
X85906115Y-127839276D01*
X85887162Y-127816678D01*
X85770983Y-127638852D01*
X85770980Y-127638849D01*
X85770979Y-127638847D01*
X85613784Y-127468087D01*
X85555821Y-127422973D01*
X86476526Y-127422973D01*
X87202000Y-128148446D01*
X87202001Y-128148446D01*
X87927472Y-127422974D01*
X87927471Y-127422973D01*
X87854483Y-127371866D01*
X87854481Y-127371865D01*
X87648326Y-127275734D01*
X87648317Y-127275730D01*
X87428610Y-127216860D01*
X87428599Y-127216858D01*
X87202002Y-127197034D01*
X87201998Y-127197034D01*
X86975400Y-127216858D01*
X86975389Y-127216860D01*
X86755682Y-127275730D01*
X86755673Y-127275734D01*
X86549513Y-127371868D01*
X86476527Y-127422972D01*
X86476526Y-127422973D01*
X85555821Y-127422973D01*
X85555820Y-127422972D01*
X85460337Y-127348654D01*
X85419524Y-127291944D01*
X85412500Y-127250801D01*
X85412500Y-125435229D01*
X85432185Y-125368190D01*
X85448814Y-125347553D01*
X89262638Y-121533728D01*
X89323959Y-121500245D01*
X89370722Y-121499102D01*
X89498951Y-121520500D01*
X89498953Y-121520500D01*
X89731048Y-121520500D01*
X89731049Y-121520500D01*
X89959981Y-121482298D01*
X90179503Y-121406936D01*
X90383626Y-121296470D01*
X90404168Y-121280482D01*
X90528549Y-121183672D01*
X90566784Y-121153913D01*
X90723979Y-120983153D01*
X90850924Y-120788849D01*
X90944157Y-120576300D01*
X91001134Y-120351305D01*
X91002778Y-120331464D01*
X91020300Y-120120006D01*
X91020300Y-120119993D01*
X91001135Y-119888702D01*
X91001133Y-119888691D01*
X90944157Y-119663699D01*
X90850924Y-119451151D01*
X90723983Y-119256852D01*
X90723980Y-119256849D01*
X90723979Y-119256847D01*
X90566784Y-119086087D01*
X90566779Y-119086083D01*
X90566777Y-119086081D01*
X90383634Y-118943535D01*
X90383628Y-118943531D01*
X90179504Y-118833064D01*
X90179495Y-118833061D01*
X89959984Y-118757702D01*
X89739726Y-118720948D01*
X89731049Y-118719500D01*
X89498951Y-118719500D01*
X89490274Y-118720948D01*
X89270014Y-118757702D01*
X89262817Y-118760173D01*
X89193018Y-118763318D01*
X89132599Y-118728227D01*
X89100744Y-118666042D01*
X89098988Y-118653144D01*
X89096134Y-118618695D01*
X89073439Y-118529074D01*
X89039157Y-118393699D01*
X88945924Y-118181151D01*
X88818983Y-117986852D01*
X88818980Y-117986849D01*
X88818979Y-117986847D01*
X88661784Y-117816087D01*
X88661779Y-117816083D01*
X88661777Y-117816081D01*
X88478634Y-117673535D01*
X88478628Y-117673531D01*
X88274504Y-117563064D01*
X88274495Y-117563061D01*
X88054984Y-117487702D01*
X87860267Y-117455210D01*
X87826049Y-117449500D01*
X87593951Y-117449500D01*
X87559733Y-117455210D01*
X87365015Y-117487702D01*
X87145504Y-117563061D01*
X87145495Y-117563064D01*
X86941371Y-117673531D01*
X86941365Y-117673535D01*
X86758222Y-117816081D01*
X86758219Y-117816084D01*
X86601016Y-117986852D01*
X86474075Y-118181151D01*
X86380842Y-118393699D01*
X86323866Y-118618691D01*
X86323864Y-118618702D01*
X86304700Y-118849993D01*
X86304700Y-118850006D01*
X86323864Y-119081297D01*
X86323866Y-119081308D01*
X86380842Y-119306300D01*
X86474075Y-119518848D01*
X86474605Y-119519659D01*
X86474720Y-119520040D01*
X86476516Y-119523359D01*
X86475833Y-119523728D01*
X86494790Y-119586550D01*
X86475606Y-119653735D01*
X86458474Y-119675157D01*
X82090451Y-124043181D01*
X82029128Y-124076666D01*
X82002770Y-124079500D01*
X81449345Y-124079500D01*
X81433055Y-124077835D01*
X81433050Y-124077895D01*
X81425860Y-124077265D01*
X81349968Y-124079474D01*
X81348165Y-124079500D01*
X72462229Y-124079500D01*
X72395190Y-124059815D01*
X72374548Y-124043181D01*
X70278327Y-121946959D01*
X70244842Y-121885636D01*
X70249826Y-121815944D01*
X70291698Y-121760011D01*
X70357162Y-121735594D01*
X70418414Y-121746896D01*
X70470678Y-121771267D01*
X70470682Y-121771269D01*
X70690389Y-121830139D01*
X70690400Y-121830141D01*
X70860233Y-121844999D01*
X70860236Y-121845000D01*
X70917000Y-121845000D01*
X70917000Y-120980501D01*
X71024685Y-121029680D01*
X71131237Y-121045000D01*
X71202763Y-121045000D01*
X71309315Y-121029680D01*
X71417000Y-120980501D01*
X71417000Y-121845000D01*
X71473764Y-121845000D01*
X71473766Y-121844999D01*
X71643599Y-121830141D01*
X71643610Y-121830139D01*
X71863317Y-121771269D01*
X71863326Y-121771265D01*
X72069482Y-121675134D01*
X72255820Y-121544657D01*
X72416657Y-121383820D01*
X72547134Y-121197482D01*
X72643265Y-120991326D01*
X72643269Y-120991317D01*
X72695872Y-120795000D01*
X71600686Y-120795000D01*
X71626493Y-120754844D01*
X71667000Y-120616889D01*
X71667000Y-120473111D01*
X71626493Y-120335156D01*
X71600686Y-120295000D01*
X72695872Y-120295000D01*
X72695872Y-120294999D01*
X72643269Y-120098682D01*
X72643265Y-120098673D01*
X72547134Y-119892517D01*
X72416657Y-119706179D01*
X72255820Y-119545342D01*
X72100503Y-119436587D01*
X72056878Y-119382009D01*
X72049686Y-119312511D01*
X72081208Y-119250156D01*
X72102190Y-119232277D01*
X72299993Y-119098586D01*
X72299994Y-119098584D01*
X72300003Y-119098579D01*
X72472118Y-118933621D01*
X72613879Y-118741947D01*
X72721207Y-118529074D01*
X72791016Y-118301123D01*
X72813616Y-118124637D01*
X72841657Y-118060642D01*
X72899845Y-118021965D01*
X72969706Y-118020887D01*
X73012774Y-118042535D01*
X73056374Y-118076470D01*
X73243686Y-118177838D01*
X73254199Y-118183528D01*
X73260497Y-118186936D01*
X73374487Y-118226068D01*
X73480015Y-118262297D01*
X73480017Y-118262297D01*
X73480019Y-118262298D01*
X73708951Y-118300500D01*
X73708952Y-118300500D01*
X73941048Y-118300500D01*
X73941049Y-118300500D01*
X74169981Y-118262298D01*
X74389503Y-118186936D01*
X74593626Y-118076470D01*
X74608813Y-118064650D01*
X74670807Y-118016398D01*
X74776784Y-117933913D01*
X74933979Y-117763153D01*
X75060924Y-117568849D01*
X75154157Y-117356300D01*
X75211134Y-117131305D01*
X75214662Y-117088730D01*
X75230300Y-116900006D01*
X75230300Y-116899993D01*
X75211135Y-116668708D01*
X75211134Y-116668695D01*
X75209546Y-116662424D01*
X75212166Y-116592607D01*
X75242066Y-116544300D01*
X79364547Y-112421818D01*
X79425871Y-112388334D01*
X79452229Y-112385500D01*
X92309858Y-112385500D01*
X92376897Y-112405185D01*
G37*
%TD.AperFunction*%
%TA.AperFunction,Conductor*%
G36*
X123695276Y-117583274D02*
G01*
X123741031Y-117636078D01*
X123750975Y-117705236D01*
X123746802Y-117723899D01*
X123725983Y-117791878D01*
X123695702Y-118028346D01*
X123705819Y-118266528D01*
X123705819Y-118266532D01*
X123756045Y-118499580D01*
X123844935Y-118720788D01*
X123844936Y-118720790D01*
X123969931Y-118923795D01*
X124048683Y-119013275D01*
X124108557Y-119081305D01*
X124127436Y-119102755D01*
X124312920Y-119252523D01*
X124312935Y-119252531D01*
X124312942Y-119252538D01*
X124317291Y-119255478D01*
X124316693Y-119256362D01*
X124361861Y-119302411D01*
X124376053Y-119370824D01*
X124351005Y-119436050D01*
X124321897Y-119463520D01*
X124217007Y-119534413D01*
X124216997Y-119534421D01*
X124044881Y-119699379D01*
X123903123Y-119891050D01*
X123903120Y-119891054D01*
X123795796Y-120103920D01*
X123795793Y-120103926D01*
X123725983Y-120331878D01*
X123695702Y-120568346D01*
X123705819Y-120806528D01*
X123705819Y-120806532D01*
X123754403Y-121031959D01*
X123749284Y-121101641D01*
X123720867Y-121145764D01*
X120996987Y-123869644D01*
X120935664Y-123903129D01*
X120865972Y-123898145D01*
X120810039Y-123856273D01*
X120785622Y-123790809D01*
X120789101Y-123751522D01*
X120846131Y-123526317D01*
X120846133Y-123526308D01*
X120846134Y-123526305D01*
X120846135Y-123526297D01*
X120865300Y-123295006D01*
X120865300Y-123294993D01*
X120846135Y-123063702D01*
X120846133Y-123063691D01*
X120789157Y-122838699D01*
X120695924Y-122626151D01*
X120568983Y-122431852D01*
X120568980Y-122431849D01*
X120568979Y-122431847D01*
X120411784Y-122261087D01*
X120411779Y-122261083D01*
X120411777Y-122261081D01*
X120228634Y-122118535D01*
X120228628Y-122118531D01*
X120024504Y-122008064D01*
X120024495Y-122008061D01*
X119804984Y-121932702D01*
X119608607Y-121899933D01*
X119576049Y-121894500D01*
X119343951Y-121894500D01*
X119215725Y-121915896D01*
X119146360Y-121907514D01*
X119107635Y-121881268D01*
X117616876Y-120390509D01*
X116096948Y-118870580D01*
X116085168Y-118856949D01*
X116073142Y-118840796D01*
X116070831Y-118837691D01*
X116065317Y-118833064D01*
X116030806Y-118804105D01*
X116026831Y-118800463D01*
X116023909Y-118797541D01*
X116020998Y-118794629D01*
X115995955Y-118774828D01*
X115994557Y-118773689D01*
X115956728Y-118741947D01*
X115936433Y-118724917D01*
X115930399Y-118720948D01*
X115930431Y-118720899D01*
X115924072Y-118716847D01*
X115924041Y-118716898D01*
X115917899Y-118713110D01*
X115917897Y-118713109D01*
X115917896Y-118713108D01*
X115849091Y-118681023D01*
X115847471Y-118680238D01*
X115807731Y-118660280D01*
X115779652Y-118646179D01*
X115779650Y-118646178D01*
X115779649Y-118646178D01*
X115772864Y-118643708D01*
X115772884Y-118643652D01*
X115765768Y-118641178D01*
X115765750Y-118641234D01*
X115758893Y-118638962D01*
X115684547Y-118623610D01*
X115682788Y-118623220D01*
X115608937Y-118605718D01*
X115601766Y-118604880D01*
X115601772Y-118604820D01*
X115594274Y-118604054D01*
X115594269Y-118604114D01*
X115587079Y-118603484D01*
X115511187Y-118605693D01*
X115509384Y-118605719D01*
X111733812Y-118605719D01*
X111666773Y-118586034D01*
X111621018Y-118533230D01*
X111611074Y-118464072D01*
X111615247Y-118445409D01*
X111634016Y-118384123D01*
X111664298Y-118147654D01*
X111663790Y-118135706D01*
X111655149Y-117932277D01*
X111654180Y-117909468D01*
X111611991Y-117713711D01*
X111617110Y-117644032D01*
X111659089Y-117588179D01*
X111724600Y-117563888D01*
X111733208Y-117563589D01*
X123628237Y-117563589D01*
X123695276Y-117583274D01*
G37*
%TD.AperFunction*%
%TA.AperFunction,Conductor*%
G36*
X68323517Y-113010876D02*
G01*
X68349497Y-113024936D01*
X68439127Y-113055706D01*
X68569015Y-113100297D01*
X68569017Y-113100297D01*
X68569019Y-113100298D01*
X68797951Y-113138500D01*
X68797952Y-113138500D01*
X69030048Y-113138500D01*
X69030049Y-113138500D01*
X69258981Y-113100298D01*
X69371931Y-113061521D01*
X69441729Y-113058372D01*
X69502151Y-113093458D01*
X69533411Y-113152678D01*
X69573046Y-113336581D01*
X69655531Y-113541852D01*
X69661936Y-113557790D01*
X69786931Y-113760795D01*
X69944436Y-113939755D01*
X70129920Y-114089523D01*
X70129935Y-114089531D01*
X70129942Y-114089538D01*
X70134291Y-114092478D01*
X70133693Y-114093362D01*
X70178861Y-114139411D01*
X70193053Y-114207824D01*
X70168005Y-114273050D01*
X70138897Y-114300520D01*
X70034007Y-114371413D01*
X70033997Y-114371421D01*
X69861881Y-114536379D01*
X69720123Y-114728050D01*
X69720120Y-114728054D01*
X69612796Y-114940920D01*
X69612793Y-114940926D01*
X69542983Y-115168878D01*
X69512702Y-115405346D01*
X69522819Y-115643528D01*
X69522819Y-115643532D01*
X69573045Y-115876580D01*
X69647671Y-116062290D01*
X69661936Y-116097790D01*
X69786931Y-116300795D01*
X69824823Y-116343849D01*
X69912703Y-116443700D01*
X69944436Y-116479755D01*
X70129920Y-116629523D01*
X70129935Y-116629531D01*
X70129942Y-116629538D01*
X70134291Y-116632478D01*
X70133693Y-116633362D01*
X70178861Y-116679411D01*
X70193053Y-116747824D01*
X70168005Y-116813050D01*
X70138897Y-116840520D01*
X70034007Y-116911413D01*
X70033997Y-116911421D01*
X69861881Y-117076379D01*
X69720123Y-117268050D01*
X69720120Y-117268054D01*
X69612796Y-117480920D01*
X69612793Y-117480926D01*
X69542983Y-117708878D01*
X69512702Y-117945346D01*
X69522819Y-118183528D01*
X69522819Y-118183532D01*
X69573045Y-118416580D01*
X69654263Y-118618695D01*
X69661936Y-118637790D01*
X69786931Y-118840795D01*
X69944436Y-119019755D01*
X70129920Y-119169523D01*
X70151501Y-119181579D01*
X70227074Y-119223797D01*
X70276001Y-119273677D01*
X70290193Y-119342090D01*
X70265145Y-119407316D01*
X70237724Y-119433625D01*
X70078183Y-119545338D01*
X69917342Y-119706179D01*
X69786865Y-119892517D01*
X69690734Y-120098673D01*
X69690730Y-120098682D01*
X69638127Y-120294999D01*
X69638128Y-120295000D01*
X70733314Y-120295000D01*
X70707507Y-120335156D01*
X70667000Y-120473111D01*
X70667000Y-120616889D01*
X70707507Y-120754844D01*
X70733314Y-120795000D01*
X69638128Y-120795000D01*
X69690730Y-120991317D01*
X69690734Y-120991326D01*
X69715103Y-121043586D01*
X69725595Y-121112664D01*
X69697075Y-121176448D01*
X69638599Y-121214687D01*
X69568731Y-121215242D01*
X69515040Y-121183672D01*
X68176819Y-119845451D01*
X68143334Y-119784128D01*
X68140500Y-119757770D01*
X68140500Y-113119931D01*
X68160185Y-113052892D01*
X68212989Y-113007137D01*
X68282147Y-112997193D01*
X68323517Y-113010876D01*
G37*
%TD.AperFunction*%
%TA.AperFunction,Conductor*%
G36*
X132925997Y-112496102D02*
G01*
X132962766Y-112532594D01*
X133015398Y-112613153D01*
X133172593Y-112783913D01*
X133172596Y-112783915D01*
X133172599Y-112783918D01*
X133355742Y-112926464D01*
X133355748Y-112926468D01*
X133355751Y-112926470D01*
X133559874Y-113036936D01*
X133673864Y-113076068D01*
X133779392Y-113112297D01*
X133779394Y-113112297D01*
X133779396Y-113112298D01*
X134008328Y-113150500D01*
X134008329Y-113150500D01*
X134240425Y-113150500D01*
X134240426Y-113150500D01*
X134469358Y-113112298D01*
X134485236Y-113106846D01*
X134555034Y-113103696D01*
X134615456Y-113138782D01*
X134647317Y-113200964D01*
X134649500Y-113224128D01*
X134649500Y-115949705D01*
X134629815Y-116016744D01*
X134613181Y-116037386D01*
X131000589Y-119649977D01*
X130939266Y-119683462D01*
X130869574Y-119678478D01*
X130819824Y-119644219D01*
X130792564Y-119613245D01*
X130759503Y-119586550D01*
X130607080Y-119463477D01*
X130607074Y-119463474D01*
X130607071Y-119463471D01*
X130607057Y-119463463D01*
X130607051Y-119463457D01*
X130602709Y-119460522D01*
X130603306Y-119459638D01*
X130558134Y-119413580D01*
X130543947Y-119345165D01*
X130568999Y-119279942D01*
X130598099Y-119252481D01*
X130703003Y-119181579D01*
X130875118Y-119016621D01*
X131016879Y-118824947D01*
X131124207Y-118612074D01*
X131194016Y-118384123D01*
X131224298Y-118147654D01*
X131223790Y-118135706D01*
X131215149Y-117932277D01*
X131214180Y-117909468D01*
X131211605Y-117897522D01*
X131163954Y-117676419D01*
X131131567Y-117595821D01*
X131075064Y-117455210D01*
X130950069Y-117252205D01*
X130792564Y-117073245D01*
X130607080Y-116923477D01*
X130509924Y-116869202D01*
X130460997Y-116819322D01*
X130446805Y-116750909D01*
X130471853Y-116685683D01*
X130499275Y-116659373D01*
X130658817Y-116547660D01*
X130819657Y-116386820D01*
X130950134Y-116200482D01*
X131046265Y-115994326D01*
X131046269Y-115994317D01*
X131098872Y-115798000D01*
X129786111Y-115798000D01*
X129825610Y-115773543D01*
X129893201Y-115684038D01*
X129923895Y-115576160D01*
X129913546Y-115464479D01*
X129863552Y-115364078D01*
X129791069Y-115298000D01*
X131098872Y-115298000D01*
X131098872Y-115297999D01*
X131046269Y-115101682D01*
X131046265Y-115101673D01*
X130950134Y-114895517D01*
X130819657Y-114709179D01*
X130658820Y-114548342D01*
X130503503Y-114439587D01*
X130459878Y-114385009D01*
X130452686Y-114315511D01*
X130484208Y-114253156D01*
X130505190Y-114235277D01*
X130702993Y-114101586D01*
X130702994Y-114101584D01*
X130703003Y-114101579D01*
X130875118Y-113936621D01*
X131016879Y-113744947D01*
X131124207Y-113532074D01*
X131194016Y-113304123D01*
X131224298Y-113067654D01*
X131223790Y-113055706D01*
X131218301Y-112926470D01*
X131214180Y-112829468D01*
X131188837Y-112711878D01*
X131170446Y-112626541D01*
X131175565Y-112556859D01*
X131217544Y-112501007D01*
X131283056Y-112476716D01*
X131291663Y-112476417D01*
X132858958Y-112476417D01*
X132925997Y-112496102D01*
G37*
%TD.AperFunction*%
%TA.AperFunction,Conductor*%
G36*
X128017473Y-112496102D02*
G01*
X128063228Y-112548906D01*
X128073172Y-112618064D01*
X128069000Y-112636719D01*
X128057953Y-112672791D01*
X128045983Y-112711878D01*
X128015702Y-112948346D01*
X128025819Y-113186528D01*
X128025819Y-113186532D01*
X128076045Y-113419580D01*
X128144735Y-113590519D01*
X128164936Y-113640790D01*
X128282574Y-113831847D01*
X128289932Y-113843796D01*
X128436919Y-114010806D01*
X128447436Y-114022755D01*
X128632920Y-114172523D01*
X128676616Y-114196933D01*
X128730074Y-114226797D01*
X128779001Y-114276677D01*
X128793193Y-114345090D01*
X128768145Y-114410316D01*
X128740724Y-114436625D01*
X128581183Y-114548338D01*
X128420342Y-114709179D01*
X128289865Y-114895517D01*
X128193734Y-115101673D01*
X128193730Y-115101682D01*
X128141127Y-115297999D01*
X128141128Y-115298000D01*
X129453889Y-115298000D01*
X129414390Y-115322457D01*
X129346799Y-115411962D01*
X129316105Y-115519840D01*
X129326454Y-115631521D01*
X129376448Y-115731922D01*
X129448931Y-115798000D01*
X128141128Y-115798000D01*
X128193730Y-115994317D01*
X128193734Y-115994326D01*
X128289865Y-116200482D01*
X128420342Y-116386820D01*
X128581179Y-116547657D01*
X128736496Y-116656412D01*
X128780121Y-116710989D01*
X128787313Y-116780488D01*
X128755791Y-116842842D01*
X128734809Y-116860722D01*
X128537007Y-116994413D01*
X128536997Y-116994421D01*
X128364881Y-117159379D01*
X128237494Y-117331619D01*
X128223121Y-117351053D01*
X128211209Y-117374680D01*
X128129120Y-117537493D01*
X128081361Y-117588492D01*
X128013612Y-117605575D01*
X127947382Y-117583318D01*
X127930716Y-117569348D01*
X126688818Y-116327450D01*
X126677038Y-116313819D01*
X126662699Y-116294559D01*
X126659900Y-116290799D01*
X126635658Y-116225269D01*
X126646983Y-116164348D01*
X126726266Y-115994326D01*
X126726269Y-115994317D01*
X126778872Y-115798000D01*
X125466111Y-115798000D01*
X125505610Y-115773543D01*
X125573201Y-115684038D01*
X125603895Y-115576160D01*
X125593546Y-115464479D01*
X125543552Y-115364078D01*
X125471069Y-115298000D01*
X126778872Y-115298000D01*
X126778872Y-115297999D01*
X126726269Y-115101682D01*
X126726265Y-115101673D01*
X126630134Y-114895517D01*
X126499657Y-114709179D01*
X126338820Y-114548342D01*
X126183503Y-114439587D01*
X126139878Y-114385009D01*
X126132686Y-114315511D01*
X126164208Y-114253156D01*
X126185190Y-114235277D01*
X126382993Y-114101586D01*
X126382994Y-114101584D01*
X126383003Y-114101579D01*
X126555118Y-113936621D01*
X126696879Y-113744947D01*
X126804207Y-113532074D01*
X126874016Y-113304123D01*
X126904298Y-113067654D01*
X126903790Y-113055706D01*
X126898301Y-112926470D01*
X126894180Y-112829468D01*
X126868837Y-112711878D01*
X126850446Y-112626541D01*
X126855565Y-112556859D01*
X126897544Y-112501007D01*
X126963056Y-112476716D01*
X126971663Y-112476417D01*
X127950434Y-112476417D01*
X128017473Y-112496102D01*
G37*
%TD.AperFunction*%
%TA.AperFunction,Conductor*%
G36*
X123697473Y-112496102D02*
G01*
X123743228Y-112548906D01*
X123753172Y-112618064D01*
X123749000Y-112636719D01*
X123737953Y-112672791D01*
X123725983Y-112711878D01*
X123695702Y-112948346D01*
X123705819Y-113186528D01*
X123705819Y-113186532D01*
X123756045Y-113419580D01*
X123824735Y-113590519D01*
X123844936Y-113640790D01*
X123962574Y-113831847D01*
X123969932Y-113843796D01*
X124116919Y-114010806D01*
X124127436Y-114022755D01*
X124312920Y-114172523D01*
X124356616Y-114196933D01*
X124410074Y-114226797D01*
X124459001Y-114276677D01*
X124473193Y-114345090D01*
X124448145Y-114410316D01*
X124420724Y-114436625D01*
X124261183Y-114548338D01*
X124100342Y-114709179D01*
X123969865Y-114895517D01*
X123873734Y-115101673D01*
X123873730Y-115101682D01*
X123821127Y-115297999D01*
X123821128Y-115298000D01*
X125133889Y-115298000D01*
X125094390Y-115322457D01*
X125026799Y-115411962D01*
X124996105Y-115519840D01*
X125006454Y-115631521D01*
X125056448Y-115731922D01*
X125128931Y-115798000D01*
X123821128Y-115798000D01*
X123850199Y-115906496D01*
X123848536Y-115976345D01*
X123809374Y-116034208D01*
X123745145Y-116061712D01*
X123730424Y-116062589D01*
X111734771Y-116062589D01*
X111667732Y-116042904D01*
X111621977Y-115990100D01*
X111612033Y-115920942D01*
X111616206Y-115902280D01*
X111624076Y-115876580D01*
X111634016Y-115844123D01*
X111664298Y-115607654D01*
X111663790Y-115595706D01*
X111654180Y-115369471D01*
X111654180Y-115369467D01*
X111603954Y-115136419D01*
X111578811Y-115073848D01*
X111515064Y-114915210D01*
X111390069Y-114712205D01*
X111232564Y-114533245D01*
X111047080Y-114383477D01*
X111047074Y-114383474D01*
X111047071Y-114383471D01*
X111047057Y-114383463D01*
X111047051Y-114383457D01*
X111042709Y-114380522D01*
X111043306Y-114379638D01*
X110998134Y-114333580D01*
X110983947Y-114265165D01*
X111008999Y-114199942D01*
X111038099Y-114172481D01*
X111143003Y-114101579D01*
X111315118Y-113936621D01*
X111456879Y-113744947D01*
X111564207Y-113532074D01*
X111634016Y-113304123D01*
X111664298Y-113067654D01*
X111663790Y-113055706D01*
X111658301Y-112926470D01*
X111654180Y-112829468D01*
X111628837Y-112711878D01*
X111610446Y-112626541D01*
X111615565Y-112556859D01*
X111657544Y-112501007D01*
X111723056Y-112476716D01*
X111731663Y-112476417D01*
X123630434Y-112476417D01*
X123697473Y-112496102D01*
G37*
%TD.AperFunction*%
%TA.AperFunction,Conductor*%
G36*
X116577650Y-61375185D02*
G01*
X116623405Y-61427989D01*
X116633349Y-61497147D01*
X116610635Y-61549991D01*
X116611475Y-61550509D01*
X116607970Y-61556190D01*
X116607875Y-61556413D01*
X116607685Y-61556652D01*
X116515643Y-61705875D01*
X116515641Y-61705880D01*
X116460494Y-61872302D01*
X116460493Y-61872309D01*
X116450000Y-61975013D01*
X116450000Y-62025000D01*
X117801000Y-62025000D01*
X117868039Y-62044685D01*
X117913794Y-62097489D01*
X117925000Y-62149000D01*
X117925000Y-62401000D01*
X117905315Y-62468039D01*
X117852511Y-62513794D01*
X117801000Y-62525000D01*
X116450001Y-62525000D01*
X116450001Y-62574986D01*
X116460494Y-62677697D01*
X116515641Y-62844119D01*
X116515643Y-62844124D01*
X116607684Y-62993345D01*
X116685447Y-63071108D01*
X116718932Y-63132431D01*
X116713948Y-63202123D01*
X116675454Y-63255435D01*
X116595062Y-63320056D01*
X116479156Y-63464249D01*
X116396964Y-63629976D01*
X116396963Y-63629978D01*
X116352317Y-63809500D01*
X116351324Y-63824144D01*
X116349500Y-63851046D01*
X116349500Y-64498954D01*
X116350647Y-64515875D01*
X116352317Y-64540499D01*
X116396963Y-64720021D01*
X116396964Y-64720023D01*
X116479156Y-64885750D01*
X116479157Y-64885751D01*
X116479158Y-64885753D01*
X116512945Y-64927785D01*
X116595059Y-65029940D01*
X116671249Y-65091183D01*
X116739247Y-65145842D01*
X116904979Y-65228037D01*
X117084501Y-65272682D01*
X117084502Y-65272682D01*
X117084505Y-65272683D01*
X117095336Y-65273417D01*
X117160889Y-65297593D01*
X117202966Y-65353372D01*
X117208206Y-65423045D01*
X117174947Y-65484491D01*
X117127207Y-65514414D01*
X116985504Y-65563061D01*
X116985495Y-65563064D01*
X116781371Y-65673531D01*
X116781365Y-65673535D01*
X116598222Y-65816081D01*
X116598219Y-65816084D01*
X116441016Y-65986852D01*
X116314075Y-66181151D01*
X116220842Y-66393699D01*
X116163866Y-66618691D01*
X116163864Y-66618702D01*
X116144700Y-66849993D01*
X116144700Y-66850006D01*
X116163864Y-67081297D01*
X116163866Y-67081308D01*
X116220842Y-67306300D01*
X116314075Y-67518848D01*
X116441016Y-67713147D01*
X116441019Y-67713151D01*
X116441021Y-67713153D01*
X116598216Y-67883913D01*
X116598219Y-67883915D01*
X116598222Y-67883918D01*
X116781365Y-68026464D01*
X116781371Y-68026468D01*
X116781374Y-68026470D01*
X116985497Y-68136936D01*
X117099487Y-68176068D01*
X117205015Y-68212297D01*
X117205017Y-68212297D01*
X117205019Y-68212298D01*
X117433951Y-68250500D01*
X117433952Y-68250500D01*
X117666048Y-68250500D01*
X117666049Y-68250500D01*
X117894981Y-68212298D01*
X118114503Y-68136936D01*
X118318626Y-68026470D01*
X118501784Y-67883913D01*
X118658979Y-67713153D01*
X118785924Y-67518849D01*
X118879157Y-67306300D01*
X118936134Y-67081305D01*
X118948363Y-66933721D01*
X118955300Y-66850006D01*
X118955300Y-66849993D01*
X118936135Y-66618702D01*
X118936133Y-66618691D01*
X118877898Y-66388728D01*
X118879327Y-66388365D01*
X118876481Y-66325282D01*
X118909229Y-66267137D01*
X119991792Y-65184573D01*
X120053113Y-65151090D01*
X120122805Y-65156074D01*
X120178738Y-65197946D01*
X120184041Y-65205986D01*
X120185463Y-65207839D01*
X120185464Y-65207841D01*
X120281718Y-65333282D01*
X120407159Y-65429536D01*
X120407160Y-65429536D01*
X120411184Y-65432624D01*
X120452386Y-65489052D01*
X120456541Y-65558798D01*
X120422329Y-65619719D01*
X120360611Y-65652471D01*
X120335697Y-65655000D01*
X120210000Y-65655000D01*
X120210000Y-65752844D01*
X120216401Y-65812372D01*
X120216403Y-65812379D01*
X120266645Y-65947086D01*
X120266649Y-65947093D01*
X120352809Y-66062187D01*
X120352812Y-66062190D01*
X120467906Y-66148350D01*
X120467913Y-66148354D01*
X120602620Y-66198596D01*
X120602627Y-66198598D01*
X120662155Y-66204999D01*
X120662172Y-66205000D01*
X121460000Y-66205000D01*
X121460000Y-65629499D01*
X121479685Y-65562460D01*
X121532489Y-65516705D01*
X121583997Y-65505499D01*
X121836000Y-65505499D01*
X121903038Y-65525184D01*
X121948793Y-65577988D01*
X121959999Y-65629499D01*
X121959999Y-66204999D01*
X121960000Y-66205000D01*
X122375499Y-66205000D01*
X122442538Y-66224685D01*
X122488293Y-66277489D01*
X122499499Y-66329000D01*
X122499499Y-68380500D01*
X122479814Y-68447539D01*
X122427010Y-68493294D01*
X122375499Y-68504500D01*
X120670636Y-68504500D01*
X120553246Y-68519953D01*
X120553237Y-68519956D01*
X120407160Y-68580463D01*
X120281718Y-68676718D01*
X120185463Y-68802160D01*
X120124956Y-68948237D01*
X120124955Y-68948239D01*
X120109500Y-69065638D01*
X120109500Y-69744355D01*
X120115353Y-69788814D01*
X120115352Y-69821179D01*
X120109500Y-69865635D01*
X120109500Y-70544355D01*
X120115353Y-70588814D01*
X120115352Y-70621179D01*
X120109500Y-70665635D01*
X120109500Y-71344355D01*
X120115353Y-71388814D01*
X120115352Y-71421179D01*
X120109500Y-71465635D01*
X120109500Y-72144355D01*
X120115353Y-72188814D01*
X120115352Y-72221179D01*
X120109499Y-72265639D01*
X120109234Y-72269690D01*
X120107990Y-72269608D01*
X120089815Y-72331508D01*
X120037011Y-72377263D01*
X119967853Y-72387207D01*
X119933094Y-72376851D01*
X119912875Y-72367422D01*
X119911252Y-72366636D01*
X119871512Y-72346678D01*
X119843433Y-72332577D01*
X119843431Y-72332576D01*
X119843430Y-72332576D01*
X119836645Y-72330106D01*
X119836665Y-72330050D01*
X119829549Y-72327576D01*
X119829531Y-72327632D01*
X119822674Y-72325360D01*
X119748328Y-72310008D01*
X119746569Y-72309618D01*
X119672718Y-72292116D01*
X119665547Y-72291278D01*
X119665553Y-72291218D01*
X119658055Y-72290452D01*
X119658050Y-72290512D01*
X119650860Y-72289882D01*
X119574968Y-72292091D01*
X119573165Y-72292117D01*
X117704088Y-72292117D01*
X117686118Y-72290808D01*
X117662355Y-72287327D01*
X117617895Y-72291218D01*
X117610314Y-72291881D01*
X117604913Y-72292117D01*
X117596666Y-72292117D01*
X117564989Y-72295819D01*
X117563215Y-72296001D01*
X117532773Y-72298664D01*
X117487581Y-72302618D01*
X117480515Y-72304077D01*
X117480503Y-72304021D01*
X117473146Y-72305652D01*
X117473160Y-72305709D01*
X117466123Y-72307377D01*
X117394768Y-72333346D01*
X117393068Y-72333937D01*
X117321051Y-72357802D01*
X117314509Y-72360853D01*
X117314484Y-72360800D01*
X117307691Y-72364088D01*
X117307717Y-72364140D01*
X117301263Y-72367381D01*
X117237851Y-72409087D01*
X117236331Y-72410056D01*
X117171731Y-72449902D01*
X117166066Y-72454382D01*
X117166030Y-72454336D01*
X117160181Y-72459101D01*
X117160218Y-72459145D01*
X117154692Y-72463781D01*
X117102596Y-72518998D01*
X117101341Y-72520291D01*
X113132358Y-76489272D01*
X113118729Y-76501051D01*
X113099468Y-76515390D01*
X113065898Y-76555397D01*
X113062253Y-76559376D01*
X113056407Y-76565223D01*
X113036618Y-76590251D01*
X113035481Y-76591647D01*
X112986694Y-76649790D01*
X112982729Y-76655819D01*
X112982682Y-76655788D01*
X112978630Y-76662147D01*
X112978679Y-76662177D01*
X112974889Y-76668321D01*
X112942812Y-76737110D01*
X112942027Y-76738731D01*
X112907957Y-76806572D01*
X112905488Y-76813357D01*
X112905432Y-76813336D01*
X112902960Y-76820450D01*
X112903015Y-76820469D01*
X112900743Y-76827325D01*
X112885391Y-76901670D01*
X112885001Y-76903428D01*
X112867499Y-76977279D01*
X112866661Y-76984454D01*
X112866601Y-76984447D01*
X112865835Y-76991945D01*
X112865895Y-76991951D01*
X112865265Y-76999140D01*
X112867474Y-77075030D01*
X112867500Y-77076833D01*
X112867500Y-96882265D01*
X112847815Y-96949304D01*
X112798595Y-96993353D01*
X112707247Y-97038657D01*
X112563059Y-97154559D01*
X112447156Y-97298749D01*
X112364964Y-97464476D01*
X112364963Y-97464478D01*
X112320317Y-97644000D01*
X112317500Y-97685548D01*
X112317500Y-98358451D01*
X112320317Y-98399999D01*
X112364963Y-98579521D01*
X112364964Y-98579523D01*
X112447157Y-98745253D01*
X112536832Y-98856813D01*
X112563491Y-98921397D01*
X112551001Y-98990141D01*
X112536832Y-99012187D01*
X112447157Y-99123746D01*
X112364964Y-99289476D01*
X112364963Y-99289478D01*
X112321704Y-99463426D01*
X112286421Y-99523734D01*
X112224136Y-99555392D01*
X112201369Y-99557500D01*
X111511858Y-99557500D01*
X111444819Y-99537815D01*
X111406269Y-99498515D01*
X111390069Y-99472205D01*
X111390068Y-99472203D01*
X111232564Y-99293245D01*
X111217767Y-99281297D01*
X111047080Y-99143477D01*
X111047074Y-99143474D01*
X111047071Y-99143471D01*
X111047057Y-99143463D01*
X111047051Y-99143457D01*
X111042709Y-99140522D01*
X111043306Y-99139638D01*
X110998134Y-99093580D01*
X110983947Y-99025165D01*
X111008999Y-98959942D01*
X111038099Y-98932481D01*
X111143003Y-98861579D01*
X111315118Y-98696621D01*
X111456879Y-98504947D01*
X111564207Y-98292074D01*
X111634016Y-98064123D01*
X111664298Y-97827654D01*
X111660799Y-97745296D01*
X111654922Y-97606943D01*
X111654180Y-97589468D01*
X111637915Y-97514000D01*
X111603954Y-97356419D01*
X111586172Y-97312168D01*
X111515064Y-97135210D01*
X111390069Y-96932205D01*
X111232564Y-96753245D01*
X111047080Y-96603477D01*
X111047074Y-96603474D01*
X111047071Y-96603471D01*
X111047057Y-96603463D01*
X111047051Y-96603457D01*
X111042709Y-96600522D01*
X111043306Y-96599638D01*
X110998134Y-96553580D01*
X110983947Y-96485165D01*
X111008999Y-96419942D01*
X111038099Y-96392481D01*
X111143003Y-96321579D01*
X111315118Y-96156621D01*
X111456879Y-95964947D01*
X111564207Y-95752074D01*
X111634016Y-95524123D01*
X111664298Y-95287654D01*
X111664016Y-95281025D01*
X111654180Y-95049471D01*
X111654180Y-95049467D01*
X111603954Y-94816419D01*
X111589698Y-94780942D01*
X111515064Y-94595210D01*
X111390069Y-94392205D01*
X111232564Y-94213245D01*
X111047080Y-94063477D01*
X111047074Y-94063474D01*
X111047071Y-94063471D01*
X111047057Y-94063463D01*
X111047051Y-94063457D01*
X111042709Y-94060522D01*
X111043306Y-94059638D01*
X110998134Y-94013580D01*
X110983947Y-93945165D01*
X111008999Y-93879942D01*
X111038099Y-93852481D01*
X111143003Y-93781579D01*
X111315118Y-93616621D01*
X111456879Y-93424947D01*
X111564207Y-93212074D01*
X111634016Y-92984123D01*
X111664298Y-92747654D01*
X111660712Y-92663248D01*
X111654180Y-92509471D01*
X111654180Y-92509467D01*
X111603954Y-92276419D01*
X111589717Y-92240989D01*
X111515064Y-92055210D01*
X111390069Y-91852205D01*
X111232564Y-91673245D01*
X111047080Y-91523477D01*
X111047074Y-91523474D01*
X111047071Y-91523471D01*
X111047057Y-91523463D01*
X111047051Y-91523457D01*
X111042709Y-91520522D01*
X111043306Y-91519638D01*
X110998134Y-91473580D01*
X110983947Y-91405165D01*
X111008999Y-91339942D01*
X111038099Y-91312481D01*
X111143003Y-91241579D01*
X111315118Y-91076621D01*
X111456879Y-90884947D01*
X111564207Y-90672074D01*
X111634016Y-90444123D01*
X111664298Y-90207654D01*
X111654180Y-89969468D01*
X111603954Y-89736419D01*
X111515064Y-89515210D01*
X111390069Y-89312205D01*
X111232564Y-89133245D01*
X111047080Y-88983477D01*
X111047074Y-88983474D01*
X111047071Y-88983471D01*
X111047057Y-88983463D01*
X111047051Y-88983457D01*
X111042709Y-88980522D01*
X111043306Y-88979638D01*
X110998134Y-88933580D01*
X110983947Y-88865165D01*
X111008999Y-88799942D01*
X111038099Y-88772481D01*
X111143003Y-88701579D01*
X111315118Y-88536621D01*
X111456879Y-88344947D01*
X111564207Y-88132074D01*
X111634016Y-87904123D01*
X111664298Y-87667654D01*
X111663790Y-87655706D01*
X111654180Y-87429471D01*
X111654180Y-87429467D01*
X111603954Y-87196419D01*
X111553949Y-87071978D01*
X111515064Y-86975210D01*
X111390069Y-86772205D01*
X111232564Y-86593245D01*
X111047080Y-86443477D01*
X110913709Y-86368971D01*
X110838955Y-86327210D01*
X110614170Y-86247788D01*
X110379209Y-86207500D01*
X110379200Y-86207500D01*
X109800503Y-86207500D01*
X109800484Y-86207500D01*
X109622463Y-86222652D01*
X109391751Y-86282724D01*
X109174519Y-86380919D01*
X109174511Y-86380924D01*
X108977006Y-86514413D01*
X108976997Y-86514421D01*
X108804881Y-86679379D01*
X108663123Y-86871050D01*
X108663120Y-86871054D01*
X108555796Y-87083920D01*
X108555793Y-87083926D01*
X108485983Y-87311878D01*
X108455702Y-87548346D01*
X108465819Y-87786528D01*
X108465819Y-87786532D01*
X108516045Y-88019580D01*
X108575532Y-88167616D01*
X108604936Y-88240790D01*
X108729931Y-88443795D01*
X108754971Y-88472246D01*
X108876919Y-88610806D01*
X108887436Y-88622755D01*
X109072920Y-88772523D01*
X109072935Y-88772531D01*
X109072942Y-88772538D01*
X109077291Y-88775478D01*
X109076693Y-88776362D01*
X109121861Y-88822411D01*
X109136053Y-88890824D01*
X109111005Y-88956050D01*
X109081897Y-88983520D01*
X108977007Y-89054413D01*
X108976997Y-89054421D01*
X108804881Y-89219379D01*
X108663123Y-89411050D01*
X108663117Y-89411059D01*
X108624626Y-89487401D01*
X108576868Y-89538400D01*
X108509118Y-89555483D01*
X108442889Y-89533225D01*
X108410305Y-89499716D01*
X108372992Y-89442984D01*
X108372045Y-89441498D01*
X108332179Y-89376865D01*
X108327699Y-89371199D01*
X108327745Y-89371161D01*
X108322984Y-89365317D01*
X108322939Y-89365356D01*
X108318296Y-89359823D01*
X108263099Y-89307747D01*
X108261839Y-89306524D01*
X107065962Y-88110648D01*
X107032478Y-88049325D01*
X107035080Y-87986656D01*
X107043593Y-87958861D01*
X107064015Y-87892175D01*
X107094297Y-87655706D01*
X107084179Y-87417520D01*
X107033953Y-87184471D01*
X106945063Y-86963262D01*
X106820068Y-86760257D01*
X106662563Y-86581297D01*
X106477079Y-86431529D01*
X106363129Y-86367872D01*
X106268954Y-86315262D01*
X106044169Y-86235840D01*
X105809208Y-86195552D01*
X105809199Y-86195552D01*
X105230502Y-86195552D01*
X105230483Y-86195552D01*
X105052462Y-86210704D01*
X104821750Y-86270776D01*
X104604518Y-86368971D01*
X104604510Y-86368976D01*
X104407005Y-86502465D01*
X104406996Y-86502473D01*
X104234880Y-86667431D01*
X104093122Y-86859102D01*
X104093119Y-86859106D01*
X103985795Y-87071972D01*
X103985792Y-87071978D01*
X103915982Y-87299930D01*
X103885701Y-87536398D01*
X103895818Y-87774580D01*
X103895818Y-87774584D01*
X103946044Y-88007632D01*
X104030096Y-88216801D01*
X104034935Y-88228842D01*
X104159930Y-88431847D01*
X104189453Y-88465391D01*
X104268120Y-88554775D01*
X104317435Y-88610807D01*
X104502919Y-88760575D01*
X104502934Y-88760583D01*
X104502941Y-88760590D01*
X104507290Y-88763530D01*
X104506692Y-88764414D01*
X104551860Y-88810463D01*
X104566052Y-88878876D01*
X104541004Y-88944102D01*
X104511896Y-88971572D01*
X104407006Y-89042465D01*
X104406996Y-89042473D01*
X104234880Y-89207431D01*
X104093122Y-89399102D01*
X104093119Y-89399106D01*
X103985795Y-89611972D01*
X103985792Y-89611978D01*
X103915982Y-89839930D01*
X103885701Y-90076398D01*
X103895818Y-90314580D01*
X103895818Y-90314584D01*
X103946044Y-90547632D01*
X103996050Y-90672074D01*
X104034935Y-90768842D01*
X104159930Y-90971847D01*
X104317435Y-91150807D01*
X104502919Y-91300575D01*
X104502934Y-91300583D01*
X104502941Y-91300590D01*
X104507290Y-91303530D01*
X104506692Y-91304414D01*
X104551860Y-91350463D01*
X104566052Y-91418876D01*
X104541004Y-91484102D01*
X104511896Y-91511572D01*
X104407006Y-91582465D01*
X104406996Y-91582473D01*
X104234880Y-91747431D01*
X104093122Y-91939102D01*
X104093119Y-91939106D01*
X103985795Y-92151972D01*
X103985792Y-92151978D01*
X103915982Y-92379930D01*
X103885701Y-92616398D01*
X103895818Y-92854580D01*
X103895818Y-92854584D01*
X103946044Y-93087632D01*
X104017009Y-93264232D01*
X104034935Y-93308842D01*
X104159930Y-93511847D01*
X104317435Y-93690807D01*
X104502919Y-93840575D01*
X104502934Y-93840583D01*
X104502941Y-93840590D01*
X104507290Y-93843530D01*
X104506692Y-93844414D01*
X104551860Y-93890463D01*
X104566052Y-93958876D01*
X104541004Y-94024102D01*
X104511896Y-94051572D01*
X104407006Y-94122465D01*
X104406996Y-94122473D01*
X104234880Y-94287431D01*
X104093122Y-94479102D01*
X104093119Y-94479106D01*
X103985795Y-94691972D01*
X103985792Y-94691978D01*
X103915982Y-94919930D01*
X103885701Y-95156398D01*
X103895818Y-95394580D01*
X103895818Y-95394584D01*
X103946044Y-95627632D01*
X104034934Y-95848840D01*
X104034935Y-95848842D01*
X104159930Y-96051847D01*
X104317435Y-96230807D01*
X104502919Y-96380575D01*
X104502934Y-96380583D01*
X104502941Y-96380590D01*
X104507290Y-96383530D01*
X104506692Y-96384414D01*
X104551860Y-96430463D01*
X104566052Y-96498876D01*
X104541004Y-96564102D01*
X104511896Y-96591572D01*
X104406997Y-96662471D01*
X104337286Y-96729282D01*
X104275265Y-96761457D01*
X104205695Y-96754993D01*
X104163806Y-96727439D01*
X103581040Y-96144673D01*
X102940729Y-95504361D01*
X102928949Y-95490730D01*
X102921482Y-95480701D01*
X102914612Y-95471472D01*
X102910086Y-95467674D01*
X102874587Y-95437886D01*
X102870612Y-95434244D01*
X102867690Y-95431322D01*
X102864779Y-95428410D01*
X102839736Y-95408609D01*
X102838338Y-95407470D01*
X102780214Y-95358698D01*
X102774180Y-95354729D01*
X102774212Y-95354680D01*
X102767853Y-95350628D01*
X102767822Y-95350679D01*
X102761680Y-95346891D01*
X102761678Y-95346890D01*
X102761677Y-95346889D01*
X102692872Y-95314804D01*
X102691252Y-95314019D01*
X102638745Y-95287650D01*
X102623433Y-95279960D01*
X102623431Y-95279959D01*
X102623430Y-95279959D01*
X102616645Y-95277489D01*
X102616665Y-95277433D01*
X102609549Y-95274959D01*
X102609531Y-95275015D01*
X102602674Y-95272743D01*
X102528328Y-95257391D01*
X102526569Y-95257001D01*
X102452718Y-95239499D01*
X102445547Y-95238661D01*
X102445553Y-95238601D01*
X102438055Y-95237835D01*
X102438050Y-95237895D01*
X102430860Y-95237265D01*
X102354968Y-95239474D01*
X102353165Y-95239500D01*
X75073705Y-95239500D01*
X75055735Y-95238191D01*
X75031972Y-95234710D01*
X74987512Y-95238601D01*
X74979931Y-95239264D01*
X74974530Y-95239500D01*
X74966283Y-95239500D01*
X74934606Y-95243202D01*
X74932832Y-95243384D01*
X74902390Y-95246047D01*
X74857198Y-95250001D01*
X74850132Y-95251460D01*
X74850120Y-95251404D01*
X74842763Y-95253035D01*
X74842777Y-95253092D01*
X74835740Y-95254760D01*
X74764385Y-95280729D01*
X74762685Y-95281320D01*
X74690668Y-95305185D01*
X74684126Y-95308236D01*
X74684101Y-95308183D01*
X74677308Y-95311471D01*
X74677334Y-95311523D01*
X74670880Y-95314764D01*
X74607468Y-95356470D01*
X74605948Y-95357439D01*
X74541348Y-95397285D01*
X74535683Y-95401765D01*
X74535647Y-95401719D01*
X74529798Y-95406484D01*
X74529835Y-95406528D01*
X74524309Y-95411164D01*
X74472213Y-95466381D01*
X74470958Y-95467674D01*
X68428358Y-101510272D01*
X68414729Y-101522051D01*
X68395468Y-101536390D01*
X68361898Y-101576397D01*
X68358253Y-101580375D01*
X68352202Y-101586429D01*
X68290887Y-101619929D01*
X68221194Y-101614961D01*
X68165251Y-101573103D01*
X68140818Y-101507645D01*
X68140500Y-101498769D01*
X68140500Y-75889812D01*
X70634992Y-75889812D01*
X70645000Y-76176393D01*
X70645001Y-76176400D01*
X70694797Y-76458807D01*
X70694798Y-76458811D01*
X70783416Y-76731548D01*
X70909122Y-76989283D01*
X70909125Y-76989287D01*
X70909127Y-76989291D01*
X71069486Y-77227034D01*
X71069489Y-77227037D01*
X71261368Y-77440141D01*
X71261375Y-77440148D01*
X71481045Y-77624474D01*
X71481049Y-77624477D01*
X71481051Y-77624478D01*
X71724246Y-77776443D01*
X71844071Y-77829793D01*
X71986210Y-77893078D01*
X71986215Y-77893079D01*
X71986223Y-77893083D01*
X72261884Y-77972127D01*
X72261889Y-77972127D01*
X72261894Y-77972129D01*
X72451203Y-77998734D01*
X72545858Y-78012037D01*
X72545860Y-78012038D01*
X72545863Y-78012038D01*
X72760840Y-78012038D01*
X72760852Y-78012038D01*
X72975319Y-77997041D01*
X72975324Y-77997040D01*
X72975326Y-77997040D01*
X73096911Y-77971195D01*
X73255823Y-77937418D01*
X73525298Y-77839337D01*
X73778501Y-77704707D01*
X74002752Y-77541779D01*
X74010494Y-77536154D01*
X74010495Y-77536152D01*
X74010502Y-77536148D01*
X74216787Y-77336941D01*
X74393341Y-77110963D01*
X74536725Y-76862613D01*
X74644151Y-76596725D01*
X74713527Y-76318473D01*
X74743503Y-76033274D01*
X74743126Y-76022489D01*
X74733495Y-75746682D01*
X74733494Y-75746675D01*
X74683698Y-75464266D01*
X74595081Y-75191532D01*
X74593430Y-75188147D01*
X74469373Y-74933792D01*
X74469371Y-74933789D01*
X74469369Y-74933785D01*
X74309010Y-74696042D01*
X74176232Y-74548577D01*
X74117127Y-74482934D01*
X74117120Y-74482927D01*
X73897450Y-74298601D01*
X73654254Y-74146635D01*
X73654252Y-74146634D01*
X73649133Y-74144355D01*
X73589010Y-74117586D01*
X73392285Y-74029997D01*
X73392275Y-74029994D01*
X73392273Y-74029993D01*
X73116612Y-73950949D01*
X73116610Y-73950948D01*
X73116601Y-73950946D01*
X72832637Y-73911038D01*
X72832633Y-73911038D01*
X72617644Y-73911038D01*
X72617631Y-73911038D01*
X72403173Y-73926035D01*
X72403169Y-73926035D01*
X72122675Y-73985657D01*
X71853202Y-74083737D01*
X71600000Y-74218365D01*
X71599993Y-74218370D01*
X71368001Y-74386921D01*
X71367994Y-74386927D01*
X71161707Y-74586137D01*
X70985155Y-74812112D01*
X70841773Y-75060458D01*
X70841767Y-75060470D01*
X70734345Y-75326349D01*
X70684729Y-75525349D01*
X70664969Y-75604603D01*
X70639769Y-75844367D01*
X70634992Y-75889812D01*
X68140500Y-75889812D01*
X68140500Y-72243728D01*
X68160185Y-72176689D01*
X68176814Y-72156052D01*
X77579137Y-62753728D01*
X77640458Y-62720245D01*
X77687221Y-62719102D01*
X77815451Y-62740500D01*
X77815452Y-62740500D01*
X78047548Y-62740500D01*
X78047549Y-62740500D01*
X78276481Y-62702298D01*
X78496003Y-62626936D01*
X78700126Y-62516470D01*
X78701933Y-62515064D01*
X78829791Y-62415548D01*
X78883284Y-62373913D01*
X79040479Y-62203153D01*
X79118536Y-62083677D01*
X79171683Y-62038322D01*
X79222345Y-62027500D01*
X91752815Y-62027500D01*
X91819854Y-62047185D01*
X91856623Y-62083678D01*
X91893515Y-62140145D01*
X91893517Y-62140147D01*
X91893521Y-62140153D01*
X92050716Y-62310913D01*
X92050719Y-62310915D01*
X92050722Y-62310918D01*
X92233865Y-62453464D01*
X92233871Y-62453468D01*
X92233874Y-62453470D01*
X92437997Y-62563936D01*
X92523919Y-62593433D01*
X92657515Y-62639297D01*
X92657517Y-62639297D01*
X92657519Y-62639298D01*
X92886451Y-62677500D01*
X92886452Y-62677500D01*
X93118548Y-62677500D01*
X93118549Y-62677500D01*
X93347481Y-62639298D01*
X93567003Y-62563936D01*
X93771126Y-62453470D01*
X93810633Y-62422721D01*
X93852584Y-62390069D01*
X93954284Y-62310913D01*
X94111479Y-62140153D01*
X94125063Y-62119361D01*
X94148377Y-62083678D01*
X94201523Y-62038322D01*
X94252185Y-62027500D01*
X106700315Y-62027500D01*
X106767354Y-62047185D01*
X106804123Y-62083678D01*
X106841015Y-62140145D01*
X106841017Y-62140147D01*
X106841021Y-62140153D01*
X106998216Y-62310913D01*
X106998219Y-62310915D01*
X106998222Y-62310918D01*
X107181365Y-62453464D01*
X107181371Y-62453468D01*
X107181374Y-62453470D01*
X107385497Y-62563936D01*
X107471419Y-62593433D01*
X107605015Y-62639297D01*
X107605017Y-62639297D01*
X107605019Y-62639298D01*
X107833951Y-62677500D01*
X107833952Y-62677500D01*
X108066048Y-62677500D01*
X108066049Y-62677500D01*
X108294981Y-62639298D01*
X108514503Y-62563936D01*
X108718626Y-62453470D01*
X108758133Y-62422721D01*
X108800084Y-62390069D01*
X108901784Y-62310913D01*
X109058979Y-62140153D01*
X109185924Y-61945849D01*
X109279157Y-61733300D01*
X109336134Y-61508305D01*
X109338521Y-61479500D01*
X109339370Y-61469260D01*
X109364523Y-61404075D01*
X109420925Y-61362837D01*
X109462946Y-61355500D01*
X116510611Y-61355500D01*
X116577650Y-61375185D01*
G37*
%TD.AperFunction*%
%TA.AperFunction,Conductor*%
G36*
X120400782Y-75825185D02*
G01*
X120406099Y-75828924D01*
X120407157Y-75829534D01*
X120407159Y-75829536D01*
X120407160Y-75829536D01*
X120407163Y-75829538D01*
X120442964Y-75844367D01*
X120553238Y-75890044D01*
X120670639Y-75905500D01*
X122749360Y-75905499D01*
X122749363Y-75905499D01*
X122866753Y-75890046D01*
X122866757Y-75890044D01*
X122866762Y-75890044D01*
X123003046Y-75833592D01*
X123072516Y-75826124D01*
X123134995Y-75857399D01*
X123170647Y-75917488D01*
X123174499Y-75948154D01*
X123174500Y-86082769D01*
X123154815Y-86149808D01*
X123138181Y-86170450D01*
X115418358Y-93890272D01*
X115404729Y-93902051D01*
X115385468Y-93916390D01*
X115351898Y-93956397D01*
X115348253Y-93960376D01*
X115342407Y-93966223D01*
X115322618Y-93991251D01*
X115321481Y-93992647D01*
X115272694Y-94050790D01*
X115268729Y-94056819D01*
X115268682Y-94056788D01*
X115264630Y-94063147D01*
X115264679Y-94063177D01*
X115260889Y-94069321D01*
X115228812Y-94138110D01*
X115228027Y-94139731D01*
X115193957Y-94207572D01*
X115191488Y-94214357D01*
X115191432Y-94214336D01*
X115188960Y-94221450D01*
X115189015Y-94221469D01*
X115186743Y-94228325D01*
X115171391Y-94302670D01*
X115171001Y-94304428D01*
X115153499Y-94378279D01*
X115152661Y-94385454D01*
X115152601Y-94385447D01*
X115151835Y-94392945D01*
X115151895Y-94392951D01*
X115151265Y-94400141D01*
X115153473Y-94476031D01*
X115153499Y-94477834D01*
X115153500Y-97024801D01*
X115133815Y-97091840D01*
X115105663Y-97122654D01*
X114952218Y-97242085D01*
X114952210Y-97242093D01*
X114938278Y-97257227D01*
X114878390Y-97293215D01*
X114808552Y-97291113D01*
X114750937Y-97251587D01*
X114750404Y-97250928D01*
X114672942Y-97154561D01*
X114528752Y-97038657D01*
X114437405Y-96993353D01*
X114386092Y-96945932D01*
X114368500Y-96882265D01*
X114368500Y-77427228D01*
X114388185Y-77360189D01*
X114404814Y-77339552D01*
X115294366Y-76450000D01*
X115840001Y-76450000D01*
X115840001Y-76724986D01*
X115850494Y-76827697D01*
X115905641Y-76994119D01*
X115905643Y-76994124D01*
X115997684Y-77143345D01*
X116121654Y-77267315D01*
X116270875Y-77359356D01*
X116270880Y-77359358D01*
X116437302Y-77414505D01*
X116437309Y-77414506D01*
X116540019Y-77424999D01*
X116589999Y-77424998D01*
X116590000Y-77424998D01*
X116590000Y-76450000D01*
X115840001Y-76450000D01*
X115294366Y-76450000D01*
X115758049Y-75986317D01*
X115819370Y-75952834D01*
X115845728Y-75950000D01*
X116966000Y-75950000D01*
X117033039Y-75969685D01*
X117078794Y-76022489D01*
X117090000Y-76074000D01*
X117089999Y-77424998D01*
X117090000Y-77424999D01*
X117139972Y-77424999D01*
X117139986Y-77424998D01*
X117242697Y-77414505D01*
X117409119Y-77359358D01*
X117409124Y-77359356D01*
X117558342Y-77267317D01*
X117636107Y-77189552D01*
X117697430Y-77156067D01*
X117767122Y-77161051D01*
X117820436Y-77199545D01*
X117885059Y-77279940D01*
X117930577Y-77316528D01*
X118029247Y-77395842D01*
X118194979Y-77478037D01*
X118374501Y-77522682D01*
X118374502Y-77522682D01*
X118374505Y-77522683D01*
X118416046Y-77525500D01*
X118416048Y-77525500D01*
X119063952Y-77525500D01*
X119063954Y-77525500D01*
X119105495Y-77522683D01*
X119285021Y-77478037D01*
X119450753Y-77395842D01*
X119594940Y-77279940D01*
X119710842Y-77135753D01*
X119793037Y-76970021D01*
X119837683Y-76790495D01*
X119840500Y-76748954D01*
X119840500Y-76212227D01*
X119860185Y-76145189D01*
X119876814Y-76124552D01*
X120159548Y-75841818D01*
X120220871Y-75808334D01*
X120247229Y-75805500D01*
X120333743Y-75805500D01*
X120400782Y-75825185D01*
G37*
%TD.AperFunction*%
%TA.AperFunction,Conductor*%
G36*
X138268736Y-64055185D02*
G01*
X138314491Y-64107989D01*
X138324435Y-64177147D01*
X138303271Y-64230625D01*
X138282584Y-64260167D01*
X138186452Y-64466324D01*
X138186448Y-64466333D01*
X138133845Y-64662650D01*
X138133846Y-64662651D01*
X139229032Y-64662651D01*
X139203225Y-64702807D01*
X139162718Y-64840762D01*
X139162718Y-64984540D01*
X139203225Y-65122495D01*
X139229032Y-65162651D01*
X138133846Y-65162651D01*
X138186448Y-65358968D01*
X138186452Y-65358977D01*
X138282583Y-65565133D01*
X138413060Y-65751471D01*
X138573897Y-65912308D01*
X138729214Y-66021063D01*
X138772839Y-66075640D01*
X138780031Y-66145139D01*
X138748509Y-66207493D01*
X138727527Y-66225373D01*
X138529725Y-66359064D01*
X138529715Y-66359072D01*
X138357599Y-66524030D01*
X138215841Y-66715701D01*
X138215838Y-66715705D01*
X138108514Y-66928571D01*
X138108511Y-66928577D01*
X138038701Y-67156529D01*
X138008420Y-67392997D01*
X138018537Y-67631179D01*
X138018537Y-67631183D01*
X138068763Y-67864231D01*
X138133955Y-68026464D01*
X138157654Y-68085441D01*
X138282649Y-68288446D01*
X138440154Y-68467406D01*
X138625638Y-68617174D01*
X138625653Y-68617182D01*
X138625660Y-68617189D01*
X138630009Y-68620129D01*
X138629411Y-68621013D01*
X138674579Y-68667062D01*
X138688771Y-68735475D01*
X138663723Y-68800701D01*
X138634615Y-68828171D01*
X138529725Y-68899064D01*
X138529715Y-68899072D01*
X138357599Y-69064030D01*
X138215841Y-69255701D01*
X138215838Y-69255705D01*
X138108514Y-69468571D01*
X138108511Y-69468577D01*
X138038701Y-69696529D01*
X138008420Y-69932997D01*
X138018537Y-70171179D01*
X138018537Y-70171183D01*
X138068763Y-70404231D01*
X138142936Y-70588814D01*
X138157654Y-70625441D01*
X138282649Y-70828446D01*
X138440154Y-71007406D01*
X138625638Y-71157174D01*
X138625653Y-71157182D01*
X138625660Y-71157189D01*
X138630009Y-71160129D01*
X138629411Y-71161013D01*
X138674579Y-71207062D01*
X138688771Y-71275475D01*
X138663723Y-71340701D01*
X138634615Y-71368171D01*
X138529725Y-71439064D01*
X138529715Y-71439072D01*
X138357599Y-71604030D01*
X138215841Y-71795701D01*
X138215838Y-71795705D01*
X138108514Y-72008571D01*
X138108511Y-72008577D01*
X138038701Y-72236529D01*
X138008420Y-72472997D01*
X138018537Y-72711179D01*
X138018537Y-72711183D01*
X138068763Y-72944231D01*
X138157653Y-73165439D01*
X138157654Y-73165441D01*
X138282649Y-73368446D01*
X138440154Y-73547406D01*
X138625638Y-73697174D01*
X138625653Y-73697182D01*
X138625660Y-73697189D01*
X138630009Y-73700129D01*
X138629411Y-73701013D01*
X138674579Y-73747062D01*
X138688771Y-73815475D01*
X138663723Y-73880701D01*
X138634615Y-73908171D01*
X138529725Y-73979064D01*
X138529715Y-73979072D01*
X138357599Y-74144030D01*
X138215841Y-74335701D01*
X138215838Y-74335705D01*
X138108514Y-74548571D01*
X138108511Y-74548577D01*
X138038701Y-74776529D01*
X138008420Y-75012997D01*
X138018537Y-75251179D01*
X138018537Y-75251183D01*
X138068763Y-75484231D01*
X138157653Y-75705439D01*
X138157654Y-75705441D01*
X138282649Y-75908446D01*
X138440154Y-76087406D01*
X138625638Y-76237174D01*
X138625653Y-76237182D01*
X138625660Y-76237189D01*
X138630009Y-76240129D01*
X138629411Y-76241013D01*
X138674579Y-76287062D01*
X138688771Y-76355475D01*
X138663723Y-76420701D01*
X138634615Y-76448171D01*
X138529725Y-76519064D01*
X138529715Y-76519072D01*
X138357599Y-76684030D01*
X138215841Y-76875701D01*
X138215838Y-76875705D01*
X138108514Y-77088571D01*
X138108511Y-77088577D01*
X138038701Y-77316529D01*
X138008420Y-77552997D01*
X138018537Y-77791179D01*
X138018537Y-77791183D01*
X138068764Y-78024233D01*
X138072911Y-78034553D01*
X138079641Y-78104097D01*
X138047704Y-78166241D01*
X138045533Y-78168466D01*
X135609358Y-80604641D01*
X135595729Y-80616420D01*
X135576468Y-80630759D01*
X135542898Y-80670766D01*
X135539253Y-80674745D01*
X135533407Y-80680592D01*
X135513618Y-80705620D01*
X135512481Y-80707016D01*
X135463694Y-80765159D01*
X135459729Y-80771188D01*
X135459682Y-80771157D01*
X135455630Y-80777516D01*
X135455679Y-80777546D01*
X135451889Y-80783690D01*
X135419812Y-80852479D01*
X135419026Y-80854101D01*
X135384126Y-80923595D01*
X135336449Y-80974670D01*
X135268727Y-80991860D01*
X135202461Y-80969708D01*
X135176668Y-80945632D01*
X135119942Y-80875061D01*
X135008450Y-80785441D01*
X134975753Y-80759158D01*
X134975751Y-80759157D01*
X134975750Y-80759156D01*
X134810023Y-80676964D01*
X134810021Y-80676963D01*
X134630497Y-80632317D01*
X134630501Y-80632317D01*
X134599339Y-80630204D01*
X134588954Y-80629500D01*
X134588952Y-80629500D01*
X134064730Y-80629500D01*
X133997691Y-80609815D01*
X133977049Y-80593181D01*
X132911819Y-79527951D01*
X132878334Y-79466628D01*
X132875500Y-79440270D01*
X132875500Y-78804593D01*
X132875500Y-78156188D01*
X132895184Y-78089153D01*
X132947987Y-78043398D01*
X133017146Y-78033454D01*
X133051904Y-78043810D01*
X133153673Y-78091265D01*
X133153682Y-78091269D01*
X133373389Y-78150139D01*
X133373400Y-78150141D01*
X133599998Y-78169966D01*
X133600002Y-78169966D01*
X133826599Y-78150141D01*
X133826610Y-78150139D01*
X134046317Y-78091269D01*
X134046331Y-78091264D01*
X134252478Y-77995136D01*
X134325472Y-77944025D01*
X133546447Y-77165000D01*
X133627802Y-77165000D01*
X133710250Y-77149588D01*
X133805610Y-77090543D01*
X133873201Y-77001038D01*
X133903895Y-76893160D01*
X133901286Y-76865000D01*
X133953553Y-76865000D01*
X134679025Y-77590472D01*
X134730136Y-77517478D01*
X134826264Y-77311331D01*
X134826269Y-77311317D01*
X134885139Y-77091610D01*
X134885141Y-77091599D01*
X134904966Y-76865002D01*
X134904966Y-76864997D01*
X134885141Y-76638400D01*
X134885139Y-76638389D01*
X134826269Y-76418682D01*
X134826265Y-76418673D01*
X134730133Y-76212516D01*
X134730131Y-76212512D01*
X134679026Y-76139526D01*
X134679025Y-76139526D01*
X133953553Y-76864999D01*
X133953553Y-76865000D01*
X133901286Y-76865000D01*
X133893546Y-76781479D01*
X133843552Y-76681078D01*
X133760666Y-76605516D01*
X133656080Y-76565000D01*
X133572198Y-76565000D01*
X133540526Y-76570920D01*
X133600000Y-76511447D01*
X134325472Y-75785974D01*
X134325471Y-75785972D01*
X134279498Y-75753782D01*
X134235873Y-75699206D01*
X134228679Y-75629707D01*
X134260202Y-75567352D01*
X134291602Y-75543152D01*
X134368626Y-75501470D01*
X134390774Y-75484232D01*
X134490984Y-75406235D01*
X134551784Y-75358913D01*
X134708979Y-75188153D01*
X134835924Y-74993849D01*
X134929157Y-74781300D01*
X134986134Y-74556305D01*
X134986135Y-74556297D01*
X135005300Y-74325006D01*
X135005300Y-74324993D01*
X134986135Y-74093702D01*
X134986133Y-74093691D01*
X134929157Y-73868699D01*
X134835924Y-73656151D01*
X134708983Y-73461852D01*
X134708980Y-73461849D01*
X134708979Y-73461847D01*
X134551784Y-73291087D01*
X134551779Y-73291083D01*
X134551777Y-73291081D01*
X134368634Y-73148535D01*
X134368628Y-73148531D01*
X134164504Y-73038064D01*
X134164495Y-73038061D01*
X133944984Y-72962702D01*
X133773281Y-72934050D01*
X133716049Y-72924500D01*
X133716048Y-72924500D01*
X133684500Y-72924500D01*
X133617461Y-72904815D01*
X133571706Y-72852011D01*
X133560500Y-72800500D01*
X133560500Y-66208999D01*
X133580185Y-66141960D01*
X133632989Y-66096205D01*
X133684500Y-66084999D01*
X133735000Y-66084999D01*
X133735000Y-65335000D01*
X134235000Y-65335000D01*
X134235000Y-66084999D01*
X134509972Y-66084999D01*
X134509986Y-66084998D01*
X134612697Y-66074505D01*
X134779119Y-66019358D01*
X134779124Y-66019356D01*
X134928345Y-65927315D01*
X135052315Y-65803345D01*
X135144356Y-65654124D01*
X135144358Y-65654119D01*
X135199505Y-65487697D01*
X135199506Y-65487690D01*
X135209999Y-65384986D01*
X135210000Y-65384973D01*
X135210000Y-65335000D01*
X134235000Y-65335000D01*
X133735000Y-65335000D01*
X133735000Y-64959000D01*
X133754685Y-64891961D01*
X133807489Y-64846206D01*
X133859000Y-64835000D01*
X135209999Y-64835000D01*
X135209999Y-64785028D01*
X135209998Y-64785013D01*
X135199505Y-64682302D01*
X135144358Y-64515880D01*
X135144356Y-64515875D01*
X135052315Y-64366654D01*
X134974552Y-64288891D01*
X134941067Y-64227568D01*
X134946051Y-64157876D01*
X134984543Y-64104564D01*
X135036437Y-64062851D01*
X135101020Y-64036194D01*
X135114123Y-64035500D01*
X138201697Y-64035500D01*
X138268736Y-64055185D01*
G37*
%TD.AperFunction*%
%TA.AperFunction,Conductor*%
G36*
X133301261Y-76892491D02*
G01*
X133300643Y-76891358D01*
X133300866Y-76888227D01*
X133301261Y-76892491D01*
G37*
%TD.AperFunction*%
%TA.AperFunction,Conductor*%
G36*
X128250963Y-65952654D02*
G01*
X128297507Y-66004764D01*
X128309500Y-66057965D01*
X128309500Y-66144362D01*
X128324953Y-66261753D01*
X128324956Y-66261762D01*
X128379606Y-66393700D01*
X128385464Y-66407841D01*
X128481718Y-66533282D01*
X128607159Y-66629536D01*
X128753238Y-66690044D01*
X128870639Y-66705500D01*
X130949360Y-66705499D01*
X130949363Y-66705499D01*
X131066753Y-66690046D01*
X131066756Y-66690044D01*
X131066762Y-66690044D01*
X131203049Y-66633591D01*
X131272516Y-66626123D01*
X131334996Y-66657398D01*
X131370648Y-66717487D01*
X131374500Y-66748153D01*
X131374500Y-68980421D01*
X131354815Y-69047460D01*
X131302011Y-69093215D01*
X131232853Y-69103159D01*
X131176190Y-69079688D01*
X131152092Y-69061649D01*
X131152086Y-69061645D01*
X131017379Y-69011403D01*
X131017372Y-69011401D01*
X130957844Y-69005000D01*
X130160000Y-69005000D01*
X130160000Y-69580500D01*
X130140315Y-69647539D01*
X130087511Y-69693294D01*
X130036000Y-69704500D01*
X129784000Y-69704500D01*
X129716961Y-69684815D01*
X129671206Y-69632011D01*
X129660000Y-69580500D01*
X129660000Y-69005000D01*
X128862155Y-69005000D01*
X128802627Y-69011401D01*
X128802620Y-69011403D01*
X128667913Y-69061645D01*
X128667906Y-69061649D01*
X128552812Y-69147809D01*
X128552809Y-69147812D01*
X128466649Y-69262906D01*
X128466645Y-69262913D01*
X128416403Y-69397620D01*
X128416401Y-69397627D01*
X128410000Y-69457155D01*
X128410000Y-69555000D01*
X128535697Y-69555000D01*
X128602736Y-69574685D01*
X128648491Y-69627489D01*
X128658435Y-69696647D01*
X128629410Y-69760203D01*
X128611184Y-69777376D01*
X128607160Y-69780463D01*
X128607159Y-69780464D01*
X128481718Y-69876717D01*
X128481718Y-69876718D01*
X128385463Y-70002160D01*
X128324956Y-70148237D01*
X128324955Y-70148239D01*
X128309500Y-70265638D01*
X128309500Y-70944355D01*
X128315353Y-70988814D01*
X128315352Y-71021179D01*
X128309500Y-71065635D01*
X128309500Y-71744363D01*
X128324953Y-71861753D01*
X128324956Y-71861762D01*
X128385464Y-72007842D01*
X128478826Y-72129514D01*
X128504020Y-72194683D01*
X128489981Y-72263128D01*
X128478826Y-72280486D01*
X128385464Y-72402157D01*
X128324956Y-72548237D01*
X128324955Y-72548239D01*
X128309500Y-72665638D01*
X128309500Y-73344355D01*
X128315353Y-73388814D01*
X128315352Y-73421179D01*
X128309500Y-73465635D01*
X128309500Y-74144355D01*
X128315353Y-74188814D01*
X128315352Y-74221179D01*
X128309500Y-74265635D01*
X128309500Y-74944355D01*
X128315353Y-74988814D01*
X128315352Y-75021179D01*
X128309500Y-75065635D01*
X128309500Y-75744363D01*
X128324953Y-75861753D01*
X128324956Y-75861762D01*
X128348038Y-75917488D01*
X128385464Y-76007841D01*
X128481718Y-76133282D01*
X128607159Y-76229536D01*
X128695044Y-76265939D01*
X128749447Y-76309780D01*
X128771512Y-76376074D01*
X128754233Y-76443773D01*
X128703096Y-76491384D01*
X128647591Y-76504500D01*
X128079500Y-76504500D01*
X128012461Y-76484815D01*
X127966706Y-76432011D01*
X127955500Y-76380500D01*
X127955500Y-66267893D01*
X127975185Y-66200854D01*
X127975623Y-66200176D01*
X128012424Y-66143849D01*
X128019788Y-66127062D01*
X128038238Y-66084999D01*
X128071945Y-66008154D01*
X128116900Y-65954670D01*
X128183636Y-65933980D01*
X128250963Y-65952654D01*
G37*
%TD.AperFunction*%
%TA.AperFunction,Conductor*%
G36*
X128253357Y-57229211D02*
G01*
X128298696Y-57282373D01*
X128309500Y-57332988D01*
X128309500Y-57344361D01*
X128324953Y-57461753D01*
X128324956Y-57461762D01*
X128370331Y-57571308D01*
X128385464Y-57607841D01*
X128481718Y-57733282D01*
X128607159Y-57829536D01*
X128607160Y-57829536D01*
X128611184Y-57832624D01*
X128652386Y-57889052D01*
X128656541Y-57958798D01*
X128622329Y-58019719D01*
X128560611Y-58052471D01*
X128535697Y-58055000D01*
X128410000Y-58055000D01*
X128410000Y-58152835D01*
X128414183Y-58191748D01*
X128414183Y-58218252D01*
X128410000Y-58257164D01*
X128410000Y-58355000D01*
X128535697Y-58355000D01*
X128602736Y-58374685D01*
X128648491Y-58427489D01*
X128658435Y-58496647D01*
X128629410Y-58560203D01*
X128611184Y-58577376D01*
X128607160Y-58580463D01*
X128607159Y-58580464D01*
X128541263Y-58631028D01*
X128481718Y-58676718D01*
X128385463Y-58802160D01*
X128324956Y-58948237D01*
X128324955Y-58948239D01*
X128309500Y-59065638D01*
X128309500Y-59744355D01*
X128315353Y-59788814D01*
X128315352Y-59821179D01*
X128309500Y-59865635D01*
X128309500Y-60544363D01*
X128324953Y-60661753D01*
X128324956Y-60661762D01*
X128385464Y-60807841D01*
X128481718Y-60933282D01*
X128607159Y-61029536D01*
X128607160Y-61029536D01*
X128611184Y-61032624D01*
X128652386Y-61089052D01*
X128656541Y-61158798D01*
X128622329Y-61219719D01*
X128560611Y-61252471D01*
X128535697Y-61255000D01*
X128410000Y-61255000D01*
X128410000Y-61352835D01*
X128414183Y-61391748D01*
X128414183Y-61418252D01*
X128410000Y-61457164D01*
X128410000Y-61555000D01*
X128535697Y-61555000D01*
X128602736Y-61574685D01*
X128648491Y-61627489D01*
X128658435Y-61696647D01*
X128629410Y-61760203D01*
X128611184Y-61777376D01*
X128607160Y-61780463D01*
X128607159Y-61780464D01*
X128510673Y-61854500D01*
X128481718Y-61876718D01*
X128385463Y-62002160D01*
X128324956Y-62148237D01*
X128324955Y-62148239D01*
X128309500Y-62265638D01*
X128309500Y-62944355D01*
X128315353Y-62988814D01*
X128315352Y-63021179D01*
X128309500Y-63065635D01*
X128309500Y-63744363D01*
X128324953Y-63861753D01*
X128324956Y-63861762D01*
X128385464Y-64007842D01*
X128478826Y-64129514D01*
X128504020Y-64194683D01*
X128489981Y-64263128D01*
X128478826Y-64280486D01*
X128385464Y-64402157D01*
X128324956Y-64548237D01*
X128324955Y-64548239D01*
X128309500Y-64665638D01*
X128309500Y-64892032D01*
X128289815Y-64959071D01*
X128237011Y-65004826D01*
X128167853Y-65014770D01*
X128104297Y-64985745D01*
X128071944Y-64941842D01*
X128012424Y-64806151D01*
X127885483Y-64611852D01*
X127885480Y-64611849D01*
X127885479Y-64611847D01*
X127728284Y-64441087D01*
X127728279Y-64441083D01*
X127728277Y-64441081D01*
X127545134Y-64298535D01*
X127545128Y-64298531D01*
X127341004Y-64188064D01*
X127340995Y-64188061D01*
X127121484Y-64112702D01*
X126949782Y-64084050D01*
X126892549Y-64074500D01*
X126660451Y-64074500D01*
X126614664Y-64082140D01*
X126431515Y-64112702D01*
X126212004Y-64188061D01*
X126211995Y-64188064D01*
X126007871Y-64298531D01*
X126007865Y-64298535D01*
X125824722Y-64441081D01*
X125824719Y-64441084D01*
X125667516Y-64611852D01*
X125540575Y-64806151D01*
X125447342Y-65018699D01*
X125390366Y-65243691D01*
X125390364Y-65243702D01*
X125371200Y-65474993D01*
X125371200Y-65475006D01*
X125390364Y-65706297D01*
X125390366Y-65706308D01*
X125447342Y-65931300D01*
X125540575Y-66143848D01*
X125667516Y-66338147D01*
X125667519Y-66338151D01*
X125667521Y-66338153D01*
X125824716Y-66508913D01*
X125824719Y-66508915D01*
X125824722Y-66508918D01*
X126007865Y-66651464D01*
X126007871Y-66651468D01*
X126007874Y-66651470D01*
X126211997Y-66761936D01*
X126370764Y-66816441D01*
X126427778Y-66856825D01*
X126453909Y-66921624D01*
X126454500Y-66933721D01*
X126454500Y-74994395D01*
X126434815Y-75061434D01*
X126382011Y-75107189D01*
X126312853Y-75117133D01*
X126284414Y-75109513D01*
X126121455Y-75044274D01*
X125915086Y-75004500D01*
X125915085Y-75004500D01*
X125757575Y-75004500D01*
X125600782Y-75019472D01*
X125600778Y-75019473D01*
X125399127Y-75078683D01*
X125212313Y-75174991D01*
X125047116Y-75304905D01*
X125047112Y-75304909D01*
X124909477Y-75463748D01*
X124906885Y-75468238D01*
X124856317Y-75516452D01*
X124787709Y-75529673D01*
X124722845Y-75503703D01*
X124682319Y-75446788D01*
X124675500Y-75406235D01*
X124675500Y-60625993D01*
X124695185Y-60558954D01*
X124747989Y-60513199D01*
X124817147Y-60503255D01*
X124829944Y-60505788D01*
X124830013Y-60505805D01*
X124830019Y-60505807D01*
X125058951Y-60544009D01*
X125058952Y-60544009D01*
X125291048Y-60544009D01*
X125291049Y-60544009D01*
X125519981Y-60505807D01*
X125739503Y-60430445D01*
X125943626Y-60319979D01*
X126126784Y-60177422D01*
X126283979Y-60006662D01*
X126410924Y-59812358D01*
X126504157Y-59599809D01*
X126561134Y-59374814D01*
X126563939Y-59340965D01*
X126580300Y-59143515D01*
X126580300Y-59143502D01*
X126561135Y-58912217D01*
X126561134Y-58912204D01*
X126559546Y-58905933D01*
X126562166Y-58836116D01*
X126592066Y-58787809D01*
X127911642Y-57468233D01*
X127925271Y-57456456D01*
X127944530Y-57442119D01*
X127959671Y-57424074D01*
X127978101Y-57402110D01*
X127981761Y-57398115D01*
X127987588Y-57392289D01*
X127987588Y-57392288D01*
X127987591Y-57392286D01*
X128007380Y-57367256D01*
X128008509Y-57365871D01*
X128017199Y-57355515D01*
X128057302Y-57307723D01*
X128057305Y-57307716D01*
X128061274Y-57301684D01*
X128061325Y-57301717D01*
X128065372Y-57295365D01*
X128065320Y-57295333D01*
X128069109Y-57289190D01*
X128069111Y-57289186D01*
X128073115Y-57280598D01*
X128119282Y-57228157D01*
X128186475Y-57209000D01*
X128253357Y-57229211D01*
G37*
%TD.AperFunction*%
%TA.AperFunction,Conductor*%
G36*
X119289809Y-73812802D02*
G01*
X119310451Y-73829436D01*
X119371653Y-73890638D01*
X119383434Y-73904270D01*
X119397771Y-73923528D01*
X119397772Y-73923529D01*
X119397773Y-73923530D01*
X119406855Y-73931150D01*
X119437792Y-73957111D01*
X119441780Y-73960766D01*
X119447600Y-73966586D01*
X119447605Y-73966590D01*
X119447606Y-73966591D01*
X119472646Y-73986390D01*
X119474027Y-73987515D01*
X119532169Y-74036302D01*
X119532170Y-74036302D01*
X119532172Y-74036304D01*
X119538201Y-74040270D01*
X119538168Y-74040319D01*
X119544530Y-74044372D01*
X119544562Y-74044321D01*
X119550702Y-74048108D01*
X119550706Y-74048111D01*
X119560927Y-74052877D01*
X119619520Y-74080200D01*
X119621124Y-74080976D01*
X119677565Y-74109322D01*
X119728638Y-74156997D01*
X119745828Y-74224719D01*
X119723676Y-74290984D01*
X119669216Y-74334754D01*
X119664322Y-74336653D01*
X119639387Y-74345729D01*
X119637685Y-74346320D01*
X119565668Y-74370185D01*
X119559126Y-74373236D01*
X119559101Y-74373183D01*
X119552308Y-74376471D01*
X119552334Y-74376523D01*
X119545880Y-74379764D01*
X119482468Y-74421470D01*
X119480948Y-74422439D01*
X119416348Y-74462285D01*
X119410683Y-74466765D01*
X119410647Y-74466719D01*
X119404798Y-74471484D01*
X119404835Y-74471528D01*
X119399309Y-74476164D01*
X119347213Y-74531381D01*
X119345957Y-74532674D01*
X119040450Y-74838182D01*
X118979129Y-74871666D01*
X118952771Y-74874500D01*
X118416046Y-74874500D01*
X118404177Y-74875304D01*
X118374500Y-74877317D01*
X118194978Y-74921963D01*
X118194976Y-74921964D01*
X118029249Y-75004156D01*
X117885056Y-75120062D01*
X117820435Y-75200454D01*
X117763092Y-75240373D01*
X117693270Y-75242952D01*
X117636108Y-75210447D01*
X117558345Y-75132684D01*
X117409124Y-75040643D01*
X117409119Y-75040641D01*
X117242697Y-74985494D01*
X117242690Y-74985493D01*
X117139986Y-74975000D01*
X117068728Y-74975000D01*
X117001689Y-74955315D01*
X116955934Y-74902511D01*
X116945990Y-74833353D01*
X116975015Y-74769797D01*
X116981033Y-74763333D01*
X117914931Y-73829436D01*
X117976254Y-73795951D01*
X118002612Y-73793117D01*
X119222770Y-73793117D01*
X119289809Y-73812802D01*
G37*
%TD.AperFunction*%
%TA.AperFunction,Conductor*%
G36*
X133077539Y-57775185D02*
G01*
X133123294Y-57827989D01*
X133134500Y-57879500D01*
X133134500Y-62094961D01*
X133114815Y-62162000D01*
X133065599Y-62206047D01*
X133049248Y-62214156D01*
X132905059Y-62330059D01*
X132789156Y-62474249D01*
X132706964Y-62639976D01*
X132706962Y-62639981D01*
X132700022Y-62667887D01*
X132664739Y-62728193D01*
X132602452Y-62759851D01*
X132532938Y-62752808D01*
X132492007Y-62725639D01*
X131885729Y-62119361D01*
X131873949Y-62105730D01*
X131865931Y-62094961D01*
X131859612Y-62086472D01*
X131859610Y-62086470D01*
X131819587Y-62052886D01*
X131815612Y-62049244D01*
X131812690Y-62046322D01*
X131809779Y-62043410D01*
X131784736Y-62023609D01*
X131783338Y-62022470D01*
X131783036Y-62022217D01*
X131725214Y-61973698D01*
X131719180Y-61969729D01*
X131719212Y-61969680D01*
X131712853Y-61965628D01*
X131712822Y-61965679D01*
X131706680Y-61961891D01*
X131706678Y-61961890D01*
X131706677Y-61961889D01*
X131637872Y-61929804D01*
X131636252Y-61929019D01*
X131583900Y-61902728D01*
X131568433Y-61894960D01*
X131568431Y-61894959D01*
X131568430Y-61894959D01*
X131561645Y-61892489D01*
X131561665Y-61892433D01*
X131554549Y-61889959D01*
X131554531Y-61890015D01*
X131547674Y-61887743D01*
X131473328Y-61872391D01*
X131471569Y-61872001D01*
X131397718Y-61854499D01*
X131390547Y-61853661D01*
X131390553Y-61853601D01*
X131383056Y-61852835D01*
X131383051Y-61852895D01*
X131375858Y-61852265D01*
X131353043Y-61852929D01*
X131285460Y-61835200D01*
X131273954Y-61827357D01*
X131208817Y-61777376D01*
X131167614Y-61720948D01*
X131163459Y-61651202D01*
X131197671Y-61590282D01*
X131259388Y-61557529D01*
X131284303Y-61555000D01*
X131410000Y-61555000D01*
X131410000Y-61457178D01*
X131409999Y-61457168D01*
X131405815Y-61418258D01*
X131405815Y-61391742D01*
X131409999Y-61352831D01*
X131410000Y-61352821D01*
X131410000Y-61255000D01*
X131284303Y-61255000D01*
X131217264Y-61235315D01*
X131171509Y-61182511D01*
X131161565Y-61113353D01*
X131190590Y-61049797D01*
X131208816Y-61032624D01*
X131212839Y-61029536D01*
X131212841Y-61029536D01*
X131338282Y-60933282D01*
X131434536Y-60807841D01*
X131495044Y-60661762D01*
X131510500Y-60544361D01*
X131510499Y-59865640D01*
X131510498Y-59865635D01*
X131504647Y-59821187D01*
X131504647Y-59788816D01*
X131510499Y-59744368D01*
X131510500Y-59744361D01*
X131510499Y-59065640D01*
X131510499Y-59065638D01*
X131510499Y-59065636D01*
X131495046Y-58948246D01*
X131495044Y-58948239D01*
X131495044Y-58948238D01*
X131434536Y-58802159D01*
X131338282Y-58676718D01*
X131212841Y-58580464D01*
X131212839Y-58580463D01*
X131208816Y-58577376D01*
X131167614Y-58520948D01*
X131163459Y-58451202D01*
X131197671Y-58390281D01*
X131259389Y-58357529D01*
X131284303Y-58355000D01*
X131410000Y-58355000D01*
X131410000Y-58257178D01*
X131409999Y-58257168D01*
X131405815Y-58218258D01*
X131405815Y-58191742D01*
X131409999Y-58152831D01*
X131410000Y-58152821D01*
X131410000Y-58055000D01*
X131284303Y-58055000D01*
X131217264Y-58035315D01*
X131171509Y-57982511D01*
X131161565Y-57913353D01*
X131190590Y-57849797D01*
X131208817Y-57832624D01*
X131275933Y-57781124D01*
X131341102Y-57755930D01*
X131351419Y-57755500D01*
X133010500Y-57755500D01*
X133077539Y-57775185D01*
G37*
%TD.AperFunction*%
%TA.AperFunction,Conductor*%
G36*
X120052539Y-61375185D02*
G01*
X120098294Y-61427989D01*
X120109500Y-61479500D01*
X120109500Y-61744363D01*
X120124953Y-61861753D01*
X120124956Y-61861762D01*
X120185352Y-62007572D01*
X120185464Y-62007841D01*
X120221661Y-62055014D01*
X120246855Y-62120183D01*
X120232817Y-62188627D01*
X120184003Y-62238617D01*
X120123285Y-62254500D01*
X119023999Y-62254500D01*
X118956960Y-62234815D01*
X118911205Y-62182011D01*
X118899999Y-62130500D01*
X118899999Y-61975028D01*
X118899998Y-61975013D01*
X118889505Y-61872302D01*
X118834358Y-61705880D01*
X118834356Y-61705875D01*
X118742314Y-61556652D01*
X118742125Y-61556413D01*
X118742046Y-61556217D01*
X118738525Y-61550509D01*
X118739500Y-61549907D01*
X118715983Y-61491618D01*
X118729021Y-61422976D01*
X118777101Y-61372280D01*
X118839389Y-61355500D01*
X119985500Y-61355500D01*
X120052539Y-61375185D01*
G37*
%TD.AperFunction*%
%TA.AperFunction,Conductor*%
G36*
X130103039Y-61125184D02*
G01*
X130148794Y-61177988D01*
X130160000Y-61229499D01*
X130160000Y-61580500D01*
X130140315Y-61647539D01*
X130087511Y-61693294D01*
X130036000Y-61704500D01*
X129784000Y-61704500D01*
X129716961Y-61684815D01*
X129671206Y-61632011D01*
X129660000Y-61580500D01*
X129660000Y-61229499D01*
X129679685Y-61162460D01*
X129732489Y-61116705D01*
X129783997Y-61105499D01*
X130036001Y-61105499D01*
X130103039Y-61125184D01*
G37*
%TD.AperFunction*%
%TA.AperFunction,Conductor*%
G36*
X120151958Y-52625185D02*
G01*
X120197713Y-52677989D01*
X120207657Y-52747147D01*
X120187856Y-52794159D01*
X120189526Y-52795123D01*
X120185465Y-52802156D01*
X120124956Y-52948237D01*
X120124955Y-52948239D01*
X120109500Y-53065638D01*
X120109500Y-53744355D01*
X120115353Y-53788814D01*
X120115352Y-53821179D01*
X120109500Y-53865635D01*
X120109500Y-54544355D01*
X120115353Y-54588814D01*
X120115352Y-54621179D01*
X120109500Y-54665635D01*
X120109500Y-55344355D01*
X120115353Y-55388814D01*
X120115352Y-55421179D01*
X120109500Y-55465635D01*
X120109500Y-56144363D01*
X120124953Y-56261753D01*
X120124956Y-56261762D01*
X120185464Y-56407842D01*
X120278826Y-56529514D01*
X120304020Y-56594683D01*
X120289981Y-56663128D01*
X120278826Y-56680486D01*
X120185464Y-56802157D01*
X120124956Y-56948237D01*
X120124955Y-56948239D01*
X120109500Y-57065638D01*
X120109500Y-57744355D01*
X120109501Y-57744360D01*
X120114340Y-57781124D01*
X120115353Y-57788814D01*
X120115352Y-57821179D01*
X120109500Y-57865635D01*
X120109500Y-58544363D01*
X120124953Y-58661753D01*
X120124956Y-58661762D01*
X120177165Y-58787807D01*
X120185464Y-58807841D01*
X120221661Y-58855014D01*
X120246855Y-58920183D01*
X120232817Y-58988627D01*
X120184003Y-59038617D01*
X120123285Y-59054500D01*
X109434877Y-59054500D01*
X109367838Y-59034815D01*
X109322083Y-58982011D01*
X109314671Y-58960940D01*
X109279157Y-58820699D01*
X109185924Y-58608151D01*
X109058981Y-58413849D01*
X109034697Y-58387470D01*
X109010312Y-58360981D01*
X108979391Y-58298330D01*
X108987251Y-58228903D01*
X109010313Y-58193018D01*
X109058979Y-58140153D01*
X109185924Y-57945849D01*
X109279157Y-57733300D01*
X109336134Y-57508305D01*
X109336135Y-57508297D01*
X109337713Y-57489258D01*
X109362867Y-57424074D01*
X109419270Y-57382836D01*
X109461289Y-57375500D01*
X117532913Y-57375500D01*
X117537948Y-57375705D01*
X117557562Y-57377301D01*
X117593167Y-57380201D01*
X117657520Y-57371432D01*
X117672580Y-57369381D01*
X117674248Y-57369177D01*
X117753911Y-57360514D01*
X117755036Y-57360266D01*
X117775307Y-57355515D01*
X117776463Y-57355227D01*
X117776468Y-57355227D01*
X117813387Y-57341663D01*
X117851711Y-57327584D01*
X117853267Y-57327035D01*
X117929221Y-57301444D01*
X117929230Y-57301438D01*
X117930351Y-57300920D01*
X117949123Y-57291923D01*
X117950111Y-57291433D01*
X117950116Y-57291432D01*
X118017702Y-57248230D01*
X118019032Y-57247406D01*
X118087736Y-57206070D01*
X118087743Y-57206062D01*
X118088669Y-57205360D01*
X118105076Y-57192533D01*
X118105990Y-57191799D01*
X118105990Y-57191798D01*
X118162719Y-57135068D01*
X118163818Y-57133999D01*
X118222041Y-57078849D01*
X118222045Y-57078841D01*
X118222751Y-57078012D01*
X118236905Y-57060882D01*
X119320185Y-55977601D01*
X119323854Y-55974219D01*
X119366100Y-55938337D01*
X119414600Y-55874534D01*
X119415622Y-55873228D01*
X119465842Y-55810754D01*
X119465842Y-55810752D01*
X119466424Y-55809843D01*
X119477449Y-55792069D01*
X119478050Y-55791071D01*
X119478052Y-55791066D01*
X119478054Y-55791064D01*
X119511715Y-55718306D01*
X119512441Y-55716792D01*
X119535747Y-55669799D01*
X119548036Y-55645021D01*
X119548036Y-55645017D01*
X119548434Y-55643935D01*
X119555389Y-55624183D01*
X119555729Y-55623172D01*
X119555732Y-55623167D01*
X119572972Y-55544837D01*
X119573343Y-55543259D01*
X119592684Y-55465495D01*
X119592684Y-55465491D01*
X119592685Y-55465488D01*
X119592830Y-55464426D01*
X119595371Y-55443677D01*
X119595500Y-55442497D01*
X119595500Y-55362387D01*
X119595523Y-55360708D01*
X119597693Y-55280564D01*
X119597608Y-55279520D01*
X119595500Y-55257352D01*
X119595500Y-52729500D01*
X119615185Y-52662461D01*
X119667989Y-52616706D01*
X119719500Y-52605500D01*
X120084919Y-52605500D01*
X120151958Y-52625185D01*
G37*
%TD.AperFunction*%
%TA.AperFunction,Conductor*%
G36*
X130103039Y-57925184D02*
G01*
X130148794Y-57977988D01*
X130160000Y-58029499D01*
X130160000Y-58380500D01*
X130140315Y-58447539D01*
X130087511Y-58493294D01*
X130036000Y-58504500D01*
X129784000Y-58504500D01*
X129716961Y-58484815D01*
X129671206Y-58432011D01*
X129660000Y-58380500D01*
X129660000Y-58029499D01*
X129679685Y-57962460D01*
X129732489Y-57916705D01*
X129783997Y-57905499D01*
X130036001Y-57905499D01*
X130103039Y-57925184D01*
G37*
%TD.AperFunction*%
%TD*%
M02*
