M48
; DRILL file {KiCad 7.0.5-7.0.5~ubuntu22.04.1} date lun. 12 juin 2023 13:20:34
; FORMAT={-:-/ absolute / metric / decimal}
; #@! TF.CreationDate,2023-06-12T13:20:34+02:00
; #@! TF.GenerationSoftware,Kicad,Pcbnew,7.0.5-7.0.5~ubuntu22.04.1
; #@! TF.FileFunction,MixedPlating,1,2
FMAT,2
METRIC
; #@! TA.AperFunction,Plated,PTH,ViaDrill
T1C0.300
; #@! TA.AperFunction,Plated,PTH,ViaDrill
T2C0.400
; #@! TA.AperFunction,Plated,PTH,ComponentDrill
T3C1.000
; #@! TA.AperFunction,Plated,PTH,ComponentDrill
T4C1.100
%
G90
G05
T1
X160.989Y-87.581
X161.925Y-92.71
X162.56Y-88.9
X163.66Y-84.918
X165.1Y-66.04
X166.454Y-113.874
X167.216Y-113.874
X167.978Y-113.874
X170.815Y-91.44
X174.074Y-88.22
X177.355Y-71.71
X178.054Y-81.534
X178.138Y-115.398
X178.9Y-115.398
X179.176Y-73.766
X179.662Y-115.398
X180.34Y-86.36
X182.88Y-91.44
X184.488Y-94.57
X185.504Y-76.79
X190.414Y-100.496
X190.5Y-55.245
X190.584Y-78.856
X191.092Y-99.651
X191.854Y-77.298
X191.854Y-100.92
X203.03Y-72.472
X204.046Y-72.472
X205.105Y-72.472
X205.824Y-64.852
X206.078Y-72.472
X206.586Y-63.836
X207.095Y-72.472
X207.602Y-63.074
X207.645Y-107.95
X208.11Y-72.472
X208.364Y-107.271
T2
X153.5Y-94.316
X153.5Y-95.332
X154.516Y-94.316
X154.516Y-95.332
X155.532Y-94.316
X155.532Y-95.332
T3
X158.834Y-56.893
X158.834Y-59.433
X158.834Y-117.853
X158.834Y-120.393
X161.374Y-56.893
X161.374Y-59.433
X161.374Y-117.853
X161.374Y-120.393
X163.914Y-56.893
X163.914Y-59.433
X163.914Y-117.853
X163.914Y-120.393
X166.454Y-56.893
X166.454Y-59.433
X166.454Y-117.853
X166.454Y-120.393
X168.994Y-56.893
X168.994Y-59.433
X168.994Y-117.853
X168.994Y-120.393
X171.534Y-56.893
X171.534Y-59.433
X171.534Y-117.853
X171.534Y-120.393
X174.074Y-56.893
X174.074Y-59.433
X174.074Y-117.853
X174.074Y-120.393
X176.614Y-56.893
X176.614Y-59.433
X176.614Y-117.853
X176.614Y-120.393
X179.154Y-56.893
X179.154Y-59.433
X179.154Y-117.853
X179.154Y-120.393
X181.694Y-56.893
X181.694Y-59.433
X181.694Y-117.853
X181.694Y-120.393
X184.234Y-56.893
X184.234Y-59.433
X184.234Y-117.853
X184.234Y-120.393
X186.774Y-56.893
X186.774Y-59.433
X186.774Y-117.853
X186.774Y-120.393
X189.314Y-56.893
X189.314Y-59.433
X189.314Y-117.853
X189.314Y-120.393
X191.854Y-56.893
X191.854Y-59.433
X191.854Y-117.853
X191.854Y-120.393
X194.394Y-56.893
X194.394Y-59.433
X194.394Y-117.853
X194.394Y-120.393
X196.934Y-56.893
X196.934Y-59.433
X196.934Y-117.853
X196.934Y-120.393
X199.474Y-56.893
X199.474Y-59.433
X199.474Y-117.853
X199.474Y-120.393
X202.014Y-56.893
X202.014Y-59.433
X202.014Y-117.853
X202.014Y-120.393
X204.554Y-56.893
X204.554Y-59.433
X204.554Y-117.853
X204.554Y-120.393
T4
X217.031Y-64.567
X217.031Y-67.107
X217.031Y-69.647
X217.031Y-72.187
X217.031Y-74.727
X217.031Y-77.267
X217.031Y-79.807
X217.031Y-82.347
X217.031Y-84.887
X217.031Y-87.427
X217.031Y-89.967
X217.031Y-92.507
X217.031Y-95.047
X217.031Y-97.587
X217.031Y-100.127
X217.031Y-102.667
X217.031Y-105.207
X217.031Y-107.747
X217.031Y-110.287
X217.031Y-112.827
X219.571Y-64.567
X219.571Y-67.107
X219.571Y-69.647
X219.571Y-72.187
X219.571Y-74.727
X219.571Y-77.267
X219.571Y-79.807
X219.571Y-82.347
X219.571Y-84.887
X219.571Y-87.427
X219.571Y-89.967
X219.571Y-92.507
X219.571Y-95.047
X219.571Y-97.587
X219.571Y-100.127
X219.571Y-102.667
X219.571Y-105.207
X219.571Y-107.747
X219.571Y-110.287
X219.571Y-112.827
T0
M30
