%TF.GenerationSoftware,KiCad,Pcbnew,7.0.5-7.0.5~ubuntu22.04.1*%
%TF.CreationDate,2023-06-12T13:20:56+02:00*%
%TF.ProjectId,OBC_L476RG,4f42435f-4c34-4373-9652-472e6b696361,rev?*%
%TF.SameCoordinates,Original*%
%TF.FileFunction,Legend,Bot*%
%TF.FilePolarity,Positive*%
%FSLAX46Y46*%
G04 Gerber Fmt 4.6, Leading zero omitted, Abs format (unit mm)*
G04 Created by KiCad (PCBNEW 7.0.5-7.0.5~ubuntu22.04.1) date 2023-06-12 13:20:56*
%MOMM*%
%LPD*%
G01*
G04 APERTURE LIST*
%ADD10C,0.150000*%
G04 APERTURE END LIST*
D10*
%TO.C,J1*%
X221429765Y-97187480D02*
X221429765Y-98187480D01*
X221429765Y-98187480D02*
X221810717Y-98187480D01*
X221810717Y-98187480D02*
X221905955Y-98139861D01*
X221905955Y-98139861D02*
X221953574Y-98092242D01*
X221953574Y-98092242D02*
X222001193Y-97997004D01*
X222001193Y-97997004D02*
X222001193Y-97854147D01*
X222001193Y-97854147D02*
X221953574Y-97758909D01*
X221953574Y-97758909D02*
X221905955Y-97711290D01*
X221905955Y-97711290D02*
X221810717Y-97663671D01*
X221810717Y-97663671D02*
X221429765Y-97663671D01*
X222382146Y-98092242D02*
X222429765Y-98139861D01*
X222429765Y-98139861D02*
X222525003Y-98187480D01*
X222525003Y-98187480D02*
X222763098Y-98187480D01*
X222763098Y-98187480D02*
X222858336Y-98139861D01*
X222858336Y-98139861D02*
X222905955Y-98092242D01*
X222905955Y-98092242D02*
X222953574Y-97997004D01*
X222953574Y-97997004D02*
X222953574Y-97901766D01*
X222953574Y-97901766D02*
X222905955Y-97758909D01*
X222905955Y-97758909D02*
X222334527Y-97187480D01*
X222334527Y-97187480D02*
X222953574Y-97187480D01*
X223286908Y-98187480D02*
X223953574Y-98187480D01*
X223953574Y-98187480D02*
X223525003Y-97187480D01*
X221429766Y-72273703D02*
X222191671Y-72273703D01*
X214013100Y-82385284D02*
X214775005Y-82385284D01*
X212346432Y-92164331D02*
X212346432Y-93164331D01*
X212346432Y-93164331D02*
X212727384Y-93164331D01*
X212727384Y-93164331D02*
X212822622Y-93116712D01*
X212822622Y-93116712D02*
X212870241Y-93069093D01*
X212870241Y-93069093D02*
X212917860Y-92973855D01*
X212917860Y-92973855D02*
X212917860Y-92830998D01*
X212917860Y-92830998D02*
X212870241Y-92735760D01*
X212870241Y-92735760D02*
X212822622Y-92688141D01*
X212822622Y-92688141D02*
X212727384Y-92640522D01*
X212727384Y-92640522D02*
X212346432Y-92640522D01*
X213870241Y-92164331D02*
X213298813Y-92164331D01*
X213584527Y-92164331D02*
X213584527Y-93164331D01*
X213584527Y-93164331D02*
X213489289Y-93021474D01*
X213489289Y-93021474D02*
X213394051Y-92926236D01*
X213394051Y-92926236D02*
X213298813Y-92878617D01*
X214251194Y-93069093D02*
X214298813Y-93116712D01*
X214298813Y-93116712D02*
X214394051Y-93164331D01*
X214394051Y-93164331D02*
X214632146Y-93164331D01*
X214632146Y-93164331D02*
X214727384Y-93116712D01*
X214727384Y-93116712D02*
X214775003Y-93069093D01*
X214775003Y-93069093D02*
X214822622Y-92973855D01*
X214822622Y-92973855D02*
X214822622Y-92878617D01*
X214822622Y-92878617D02*
X214775003Y-92735760D01*
X214775003Y-92735760D02*
X214203575Y-92164331D01*
X214203575Y-92164331D02*
X214822622Y-92164331D01*
X212346432Y-107404331D02*
X212346432Y-108404331D01*
X212346432Y-108404331D02*
X212727384Y-108404331D01*
X212727384Y-108404331D02*
X212822622Y-108356712D01*
X212822622Y-108356712D02*
X212870241Y-108309093D01*
X212870241Y-108309093D02*
X212917860Y-108213855D01*
X212917860Y-108213855D02*
X212917860Y-108070998D01*
X212917860Y-108070998D02*
X212870241Y-107975760D01*
X212870241Y-107975760D02*
X212822622Y-107928141D01*
X212822622Y-107928141D02*
X212727384Y-107880522D01*
X212727384Y-107880522D02*
X212346432Y-107880522D01*
X213870241Y-107404331D02*
X213298813Y-107404331D01*
X213584527Y-107404331D02*
X213584527Y-108404331D01*
X213584527Y-108404331D02*
X213489289Y-108261474D01*
X213489289Y-108261474D02*
X213394051Y-108166236D01*
X213394051Y-108166236D02*
X213298813Y-108118617D01*
X214441670Y-107975760D02*
X214346432Y-108023379D01*
X214346432Y-108023379D02*
X214298813Y-108070998D01*
X214298813Y-108070998D02*
X214251194Y-108166236D01*
X214251194Y-108166236D02*
X214251194Y-108213855D01*
X214251194Y-108213855D02*
X214298813Y-108309093D01*
X214298813Y-108309093D02*
X214346432Y-108356712D01*
X214346432Y-108356712D02*
X214441670Y-108404331D01*
X214441670Y-108404331D02*
X214632146Y-108404331D01*
X214632146Y-108404331D02*
X214727384Y-108356712D01*
X214727384Y-108356712D02*
X214775003Y-108309093D01*
X214775003Y-108309093D02*
X214822622Y-108213855D01*
X214822622Y-108213855D02*
X214822622Y-108166236D01*
X214822622Y-108166236D02*
X214775003Y-108070998D01*
X214775003Y-108070998D02*
X214727384Y-108023379D01*
X214727384Y-108023379D02*
X214632146Y-107975760D01*
X214632146Y-107975760D02*
X214441670Y-107975760D01*
X214441670Y-107975760D02*
X214346432Y-107928141D01*
X214346432Y-107928141D02*
X214298813Y-107880522D01*
X214298813Y-107880522D02*
X214251194Y-107785284D01*
X214251194Y-107785284D02*
X214251194Y-107594808D01*
X214251194Y-107594808D02*
X214298813Y-107499570D01*
X214298813Y-107499570D02*
X214346432Y-107451951D01*
X214346432Y-107451951D02*
X214441670Y-107404331D01*
X214441670Y-107404331D02*
X214632146Y-107404331D01*
X214632146Y-107404331D02*
X214727384Y-107451951D01*
X214727384Y-107451951D02*
X214775003Y-107499570D01*
X214775003Y-107499570D02*
X214822622Y-107594808D01*
X214822622Y-107594808D02*
X214822622Y-107785284D01*
X214822622Y-107785284D02*
X214775003Y-107880522D01*
X214775003Y-107880522D02*
X214727384Y-107928141D01*
X214727384Y-107928141D02*
X214632146Y-107975760D01*
X222001194Y-74422223D02*
X221667861Y-74898414D01*
X221429766Y-74422223D02*
X221429766Y-75422223D01*
X221429766Y-75422223D02*
X221810718Y-75422223D01*
X221810718Y-75422223D02*
X221905956Y-75374604D01*
X221905956Y-75374604D02*
X221953575Y-75326985D01*
X221953575Y-75326985D02*
X222001194Y-75231747D01*
X222001194Y-75231747D02*
X222001194Y-75088890D01*
X222001194Y-75088890D02*
X221953575Y-74993652D01*
X221953575Y-74993652D02*
X221905956Y-74946033D01*
X221905956Y-74946033D02*
X221810718Y-74898414D01*
X221810718Y-74898414D02*
X221429766Y-74898414D01*
X222429766Y-74422223D02*
X222429766Y-75422223D01*
X222429766Y-75422223D02*
X222667861Y-75422223D01*
X222667861Y-75422223D02*
X222810718Y-75374604D01*
X222810718Y-75374604D02*
X222905956Y-75279366D01*
X222905956Y-75279366D02*
X222953575Y-75184128D01*
X222953575Y-75184128D02*
X223001194Y-74993652D01*
X223001194Y-74993652D02*
X223001194Y-74850795D01*
X223001194Y-74850795D02*
X222953575Y-74660319D01*
X222953575Y-74660319D02*
X222905956Y-74565081D01*
X222905956Y-74565081D02*
X222810718Y-74469843D01*
X222810718Y-74469843D02*
X222667861Y-74422223D01*
X222667861Y-74422223D02*
X222429766Y-74422223D01*
X223429766Y-74803176D02*
X224191671Y-74803176D01*
X221429765Y-94658007D02*
X221429765Y-95658007D01*
X221429765Y-95658007D02*
X221810717Y-95658007D01*
X221810717Y-95658007D02*
X221905955Y-95610388D01*
X221905955Y-95610388D02*
X221953574Y-95562769D01*
X221953574Y-95562769D02*
X222001193Y-95467531D01*
X222001193Y-95467531D02*
X222001193Y-95324674D01*
X222001193Y-95324674D02*
X221953574Y-95229436D01*
X221953574Y-95229436D02*
X221905955Y-95181817D01*
X221905955Y-95181817D02*
X221810717Y-95134198D01*
X221810717Y-95134198D02*
X221429765Y-95134198D01*
X222382146Y-95562769D02*
X222429765Y-95610388D01*
X222429765Y-95610388D02*
X222525003Y-95658007D01*
X222525003Y-95658007D02*
X222763098Y-95658007D01*
X222763098Y-95658007D02*
X222858336Y-95610388D01*
X222858336Y-95610388D02*
X222905955Y-95562769D01*
X222905955Y-95562769D02*
X222953574Y-95467531D01*
X222953574Y-95467531D02*
X222953574Y-95372293D01*
X222953574Y-95372293D02*
X222905955Y-95229436D01*
X222905955Y-95229436D02*
X222334527Y-94658007D01*
X222334527Y-94658007D02*
X222953574Y-94658007D01*
X223525003Y-95229436D02*
X223429765Y-95277055D01*
X223429765Y-95277055D02*
X223382146Y-95324674D01*
X223382146Y-95324674D02*
X223334527Y-95419912D01*
X223334527Y-95419912D02*
X223334527Y-95467531D01*
X223334527Y-95467531D02*
X223382146Y-95562769D01*
X223382146Y-95562769D02*
X223429765Y-95610388D01*
X223429765Y-95610388D02*
X223525003Y-95658007D01*
X223525003Y-95658007D02*
X223715479Y-95658007D01*
X223715479Y-95658007D02*
X223810717Y-95610388D01*
X223810717Y-95610388D02*
X223858336Y-95562769D01*
X223858336Y-95562769D02*
X223905955Y-95467531D01*
X223905955Y-95467531D02*
X223905955Y-95419912D01*
X223905955Y-95419912D02*
X223858336Y-95324674D01*
X223858336Y-95324674D02*
X223810717Y-95277055D01*
X223810717Y-95277055D02*
X223715479Y-95229436D01*
X223715479Y-95229436D02*
X223525003Y-95229436D01*
X223525003Y-95229436D02*
X223429765Y-95181817D01*
X223429765Y-95181817D02*
X223382146Y-95134198D01*
X223382146Y-95134198D02*
X223334527Y-95038960D01*
X223334527Y-95038960D02*
X223334527Y-94848484D01*
X223334527Y-94848484D02*
X223382146Y-94753246D01*
X223382146Y-94753246D02*
X223429765Y-94705627D01*
X223429765Y-94705627D02*
X223525003Y-94658007D01*
X223525003Y-94658007D02*
X223715479Y-94658007D01*
X223715479Y-94658007D02*
X223810717Y-94705627D01*
X223810717Y-94705627D02*
X223858336Y-94753246D01*
X223858336Y-94753246D02*
X223905955Y-94848484D01*
X223905955Y-94848484D02*
X223905955Y-95038960D01*
X223905955Y-95038960D02*
X223858336Y-95134198D01*
X223858336Y-95134198D02*
X223810717Y-95181817D01*
X223810717Y-95181817D02*
X223715479Y-95229436D01*
X212346432Y-109944331D02*
X212346432Y-110944331D01*
X212346432Y-110944331D02*
X212727384Y-110944331D01*
X212727384Y-110944331D02*
X212822622Y-110896712D01*
X212822622Y-110896712D02*
X212870241Y-110849093D01*
X212870241Y-110849093D02*
X212917860Y-110753855D01*
X212917860Y-110753855D02*
X212917860Y-110610998D01*
X212917860Y-110610998D02*
X212870241Y-110515760D01*
X212870241Y-110515760D02*
X212822622Y-110468141D01*
X212822622Y-110468141D02*
X212727384Y-110420522D01*
X212727384Y-110420522D02*
X212346432Y-110420522D01*
X213870241Y-109944331D02*
X213298813Y-109944331D01*
X213584527Y-109944331D02*
X213584527Y-110944331D01*
X213584527Y-110944331D02*
X213489289Y-110801474D01*
X213489289Y-110801474D02*
X213394051Y-110706236D01*
X213394051Y-110706236D02*
X213298813Y-110658617D01*
X214346432Y-109944331D02*
X214536908Y-109944331D01*
X214536908Y-109944331D02*
X214632146Y-109991951D01*
X214632146Y-109991951D02*
X214679765Y-110039570D01*
X214679765Y-110039570D02*
X214775003Y-110182427D01*
X214775003Y-110182427D02*
X214822622Y-110372903D01*
X214822622Y-110372903D02*
X214822622Y-110753855D01*
X214822622Y-110753855D02*
X214775003Y-110849093D01*
X214775003Y-110849093D02*
X214727384Y-110896712D01*
X214727384Y-110896712D02*
X214632146Y-110944331D01*
X214632146Y-110944331D02*
X214441670Y-110944331D01*
X214441670Y-110944331D02*
X214346432Y-110896712D01*
X214346432Y-110896712D02*
X214298813Y-110849093D01*
X214298813Y-110849093D02*
X214251194Y-110753855D01*
X214251194Y-110753855D02*
X214251194Y-110515760D01*
X214251194Y-110515760D02*
X214298813Y-110420522D01*
X214298813Y-110420522D02*
X214346432Y-110372903D01*
X214346432Y-110372903D02*
X214441670Y-110325284D01*
X214441670Y-110325284D02*
X214632146Y-110325284D01*
X214632146Y-110325284D02*
X214727384Y-110372903D01*
X214727384Y-110372903D02*
X214775003Y-110420522D01*
X214775003Y-110420522D02*
X214822622Y-110515760D01*
X212870243Y-67764331D02*
X213203576Y-66764331D01*
X213203576Y-66764331D02*
X213536909Y-67764331D01*
X213870243Y-66764331D02*
X213870243Y-67430998D01*
X213870243Y-67764331D02*
X213822624Y-67716712D01*
X213822624Y-67716712D02*
X213870243Y-67669093D01*
X213870243Y-67669093D02*
X213917862Y-67716712D01*
X213917862Y-67716712D02*
X213870243Y-67764331D01*
X213870243Y-67764331D02*
X213870243Y-67669093D01*
X214346433Y-67430998D02*
X214346433Y-66764331D01*
X214346433Y-67335760D02*
X214394052Y-67383379D01*
X214394052Y-67383379D02*
X214489290Y-67430998D01*
X214489290Y-67430998D02*
X214632147Y-67430998D01*
X214632147Y-67430998D02*
X214727385Y-67383379D01*
X214727385Y-67383379D02*
X214775004Y-67288141D01*
X214775004Y-67288141D02*
X214775004Y-66764331D01*
X221905955Y-67833804D02*
X221429765Y-67833804D01*
X221429765Y-67833804D02*
X221382146Y-67357614D01*
X221382146Y-67357614D02*
X221429765Y-67405233D01*
X221429765Y-67405233D02*
X221525003Y-67452852D01*
X221525003Y-67452852D02*
X221763098Y-67452852D01*
X221763098Y-67452852D02*
X221858336Y-67405233D01*
X221858336Y-67405233D02*
X221905955Y-67357614D01*
X221905955Y-67357614D02*
X221953574Y-67262376D01*
X221953574Y-67262376D02*
X221953574Y-67024281D01*
X221953574Y-67024281D02*
X221905955Y-66929043D01*
X221905955Y-66929043D02*
X221858336Y-66881424D01*
X221858336Y-66881424D02*
X221763098Y-66833804D01*
X221763098Y-66833804D02*
X221525003Y-66833804D01*
X221525003Y-66833804D02*
X221429765Y-66881424D01*
X221429765Y-66881424D02*
X221382146Y-66929043D01*
X222239289Y-67833804D02*
X222572622Y-66833804D01*
X222572622Y-66833804D02*
X222905955Y-67833804D01*
X221429765Y-107305372D02*
X221429765Y-108305372D01*
X221429765Y-108305372D02*
X221810717Y-108305372D01*
X221810717Y-108305372D02*
X221905955Y-108257753D01*
X221905955Y-108257753D02*
X221953574Y-108210134D01*
X221953574Y-108210134D02*
X222001193Y-108114896D01*
X222001193Y-108114896D02*
X222001193Y-107972039D01*
X222001193Y-107972039D02*
X221953574Y-107876801D01*
X221953574Y-107876801D02*
X221905955Y-107829182D01*
X221905955Y-107829182D02*
X221810717Y-107781563D01*
X221810717Y-107781563D02*
X221429765Y-107781563D01*
X222382146Y-108210134D02*
X222429765Y-108257753D01*
X222429765Y-108257753D02*
X222525003Y-108305372D01*
X222525003Y-108305372D02*
X222763098Y-108305372D01*
X222763098Y-108305372D02*
X222858336Y-108257753D01*
X222858336Y-108257753D02*
X222905955Y-108210134D01*
X222905955Y-108210134D02*
X222953574Y-108114896D01*
X222953574Y-108114896D02*
X222953574Y-108019658D01*
X222953574Y-108019658D02*
X222905955Y-107876801D01*
X222905955Y-107876801D02*
X222334527Y-107305372D01*
X222334527Y-107305372D02*
X222953574Y-107305372D01*
X223286908Y-108305372D02*
X223905955Y-108305372D01*
X223905955Y-108305372D02*
X223572622Y-107924420D01*
X223572622Y-107924420D02*
X223715479Y-107924420D01*
X223715479Y-107924420D02*
X223810717Y-107876801D01*
X223810717Y-107876801D02*
X223858336Y-107829182D01*
X223858336Y-107829182D02*
X223905955Y-107733944D01*
X223905955Y-107733944D02*
X223905955Y-107495849D01*
X223905955Y-107495849D02*
X223858336Y-107400611D01*
X223858336Y-107400611D02*
X223810717Y-107352992D01*
X223810717Y-107352992D02*
X223715479Y-107305372D01*
X223715479Y-107305372D02*
X223429765Y-107305372D01*
X223429765Y-107305372D02*
X223334527Y-107352992D01*
X223334527Y-107352992D02*
X223286908Y-107400611D01*
X212346432Y-89624331D02*
X212346432Y-90624331D01*
X212346432Y-90624331D02*
X212727384Y-90624331D01*
X212727384Y-90624331D02*
X212822622Y-90576712D01*
X212822622Y-90576712D02*
X212870241Y-90529093D01*
X212870241Y-90529093D02*
X212917860Y-90433855D01*
X212917860Y-90433855D02*
X212917860Y-90290998D01*
X212917860Y-90290998D02*
X212870241Y-90195760D01*
X212870241Y-90195760D02*
X212822622Y-90148141D01*
X212822622Y-90148141D02*
X212727384Y-90100522D01*
X212727384Y-90100522D02*
X212346432Y-90100522D01*
X213870241Y-89624331D02*
X213298813Y-89624331D01*
X213584527Y-89624331D02*
X213584527Y-90624331D01*
X213584527Y-90624331D02*
X213489289Y-90481474D01*
X213489289Y-90481474D02*
X213394051Y-90386236D01*
X213394051Y-90386236D02*
X213298813Y-90338617D01*
X214822622Y-89624331D02*
X214251194Y-89624331D01*
X214536908Y-89624331D02*
X214536908Y-90624331D01*
X214536908Y-90624331D02*
X214441670Y-90481474D01*
X214441670Y-90481474D02*
X214346432Y-90386236D01*
X214346432Y-90386236D02*
X214251194Y-90338617D01*
X214013100Y-72225284D02*
X214775005Y-72225284D01*
X222001194Y-76951696D02*
X221667861Y-77427887D01*
X221429766Y-76951696D02*
X221429766Y-77951696D01*
X221429766Y-77951696D02*
X221810718Y-77951696D01*
X221810718Y-77951696D02*
X221905956Y-77904077D01*
X221905956Y-77904077D02*
X221953575Y-77856458D01*
X221953575Y-77856458D02*
X222001194Y-77761220D01*
X222001194Y-77761220D02*
X222001194Y-77618363D01*
X222001194Y-77618363D02*
X221953575Y-77523125D01*
X221953575Y-77523125D02*
X221905956Y-77475506D01*
X221905956Y-77475506D02*
X221810718Y-77427887D01*
X221810718Y-77427887D02*
X221429766Y-77427887D01*
X222429766Y-76951696D02*
X222429766Y-77951696D01*
X222429766Y-77951696D02*
X222667861Y-77951696D01*
X222667861Y-77951696D02*
X222810718Y-77904077D01*
X222810718Y-77904077D02*
X222905956Y-77808839D01*
X222905956Y-77808839D02*
X222953575Y-77713601D01*
X222953575Y-77713601D02*
X223001194Y-77523125D01*
X223001194Y-77523125D02*
X223001194Y-77380268D01*
X223001194Y-77380268D02*
X222953575Y-77189792D01*
X222953575Y-77189792D02*
X222905956Y-77094554D01*
X222905956Y-77094554D02*
X222810718Y-76999316D01*
X222810718Y-76999316D02*
X222667861Y-76951696D01*
X222667861Y-76951696D02*
X222429766Y-76951696D01*
X223429766Y-77332649D02*
X224191671Y-77332649D01*
X223810718Y-76951696D02*
X223810718Y-77713601D01*
X212346432Y-99784331D02*
X212346432Y-100784331D01*
X212346432Y-100784331D02*
X212727384Y-100784331D01*
X212727384Y-100784331D02*
X212822622Y-100736712D01*
X212822622Y-100736712D02*
X212870241Y-100689093D01*
X212870241Y-100689093D02*
X212917860Y-100593855D01*
X212917860Y-100593855D02*
X212917860Y-100450998D01*
X212917860Y-100450998D02*
X212870241Y-100355760D01*
X212870241Y-100355760D02*
X212822622Y-100308141D01*
X212822622Y-100308141D02*
X212727384Y-100260522D01*
X212727384Y-100260522D02*
X212346432Y-100260522D01*
X213870241Y-99784331D02*
X213298813Y-99784331D01*
X213584527Y-99784331D02*
X213584527Y-100784331D01*
X213584527Y-100784331D02*
X213489289Y-100641474D01*
X213489289Y-100641474D02*
X213394051Y-100546236D01*
X213394051Y-100546236D02*
X213298813Y-100498617D01*
X214775003Y-100784331D02*
X214298813Y-100784331D01*
X214298813Y-100784331D02*
X214251194Y-100308141D01*
X214251194Y-100308141D02*
X214298813Y-100355760D01*
X214298813Y-100355760D02*
X214394051Y-100403379D01*
X214394051Y-100403379D02*
X214632146Y-100403379D01*
X214632146Y-100403379D02*
X214727384Y-100355760D01*
X214727384Y-100355760D02*
X214775003Y-100308141D01*
X214775003Y-100308141D02*
X214822622Y-100212903D01*
X214822622Y-100212903D02*
X214822622Y-99974808D01*
X214822622Y-99974808D02*
X214775003Y-99879570D01*
X214775003Y-99879570D02*
X214727384Y-99831951D01*
X214727384Y-99831951D02*
X214632146Y-99784331D01*
X214632146Y-99784331D02*
X214394051Y-99784331D01*
X214394051Y-99784331D02*
X214298813Y-99831951D01*
X214298813Y-99831951D02*
X214251194Y-99879570D01*
X221429765Y-89599061D02*
X221429765Y-90265728D01*
X221429765Y-90075252D02*
X221477384Y-90170490D01*
X221477384Y-90170490D02*
X221525003Y-90218109D01*
X221525003Y-90218109D02*
X221620241Y-90265728D01*
X221620241Y-90265728D02*
X221715479Y-90265728D01*
X222477384Y-89599061D02*
X222477384Y-90599061D01*
X222477384Y-89646681D02*
X222382146Y-89599061D01*
X222382146Y-89599061D02*
X222191670Y-89599061D01*
X222191670Y-89599061D02*
X222096432Y-89646681D01*
X222096432Y-89646681D02*
X222048813Y-89694300D01*
X222048813Y-89694300D02*
X222001194Y-89789538D01*
X222001194Y-89789538D02*
X222001194Y-90075252D01*
X222001194Y-90075252D02*
X222048813Y-90170490D01*
X222048813Y-90170490D02*
X222096432Y-90218109D01*
X222096432Y-90218109D02*
X222191670Y-90265728D01*
X222191670Y-90265728D02*
X222382146Y-90265728D01*
X222382146Y-90265728D02*
X222477384Y-90218109D01*
X221286908Y-83010642D02*
X221858336Y-83010642D01*
X221572622Y-82010642D02*
X221572622Y-83010642D01*
X222191670Y-82010642D02*
X222191670Y-83010642D01*
X222191670Y-83010642D02*
X222429765Y-83010642D01*
X222429765Y-83010642D02*
X222572622Y-82963023D01*
X222572622Y-82963023D02*
X222667860Y-82867785D01*
X222667860Y-82867785D02*
X222715479Y-82772547D01*
X222715479Y-82772547D02*
X222763098Y-82582071D01*
X222763098Y-82582071D02*
X222763098Y-82439214D01*
X222763098Y-82439214D02*
X222715479Y-82248738D01*
X222715479Y-82248738D02*
X222667860Y-82153500D01*
X222667860Y-82153500D02*
X222572622Y-82058262D01*
X222572622Y-82058262D02*
X222429765Y-82010642D01*
X222429765Y-82010642D02*
X222191670Y-82010642D01*
X223191670Y-82391595D02*
X223953575Y-82391595D01*
X223572622Y-82010642D02*
X223572622Y-82772547D01*
X221429766Y-69744230D02*
X222191671Y-69744230D01*
X221429765Y-109834845D02*
X221429765Y-110834845D01*
X221429765Y-110834845D02*
X221810717Y-110834845D01*
X221810717Y-110834845D02*
X221905955Y-110787226D01*
X221905955Y-110787226D02*
X221953574Y-110739607D01*
X221953574Y-110739607D02*
X222001193Y-110644369D01*
X222001193Y-110644369D02*
X222001193Y-110501512D01*
X222001193Y-110501512D02*
X221953574Y-110406274D01*
X221953574Y-110406274D02*
X221905955Y-110358655D01*
X221905955Y-110358655D02*
X221810717Y-110311036D01*
X221810717Y-110311036D02*
X221429765Y-110311036D01*
X222382146Y-110739607D02*
X222429765Y-110787226D01*
X222429765Y-110787226D02*
X222525003Y-110834845D01*
X222525003Y-110834845D02*
X222763098Y-110834845D01*
X222763098Y-110834845D02*
X222858336Y-110787226D01*
X222858336Y-110787226D02*
X222905955Y-110739607D01*
X222905955Y-110739607D02*
X222953574Y-110644369D01*
X222953574Y-110644369D02*
X222953574Y-110549131D01*
X222953574Y-110549131D02*
X222905955Y-110406274D01*
X222905955Y-110406274D02*
X222334527Y-109834845D01*
X222334527Y-109834845D02*
X222953574Y-109834845D01*
X223334527Y-110739607D02*
X223382146Y-110787226D01*
X223382146Y-110787226D02*
X223477384Y-110834845D01*
X223477384Y-110834845D02*
X223715479Y-110834845D01*
X223715479Y-110834845D02*
X223810717Y-110787226D01*
X223810717Y-110787226D02*
X223858336Y-110739607D01*
X223858336Y-110739607D02*
X223905955Y-110644369D01*
X223905955Y-110644369D02*
X223905955Y-110549131D01*
X223905955Y-110549131D02*
X223858336Y-110406274D01*
X223858336Y-110406274D02*
X223286908Y-109834845D01*
X223286908Y-109834845D02*
X223905955Y-109834845D01*
X221334528Y-65304331D02*
X221953575Y-65304331D01*
X221953575Y-65304331D02*
X221620242Y-64923379D01*
X221620242Y-64923379D02*
X221763099Y-64923379D01*
X221763099Y-64923379D02*
X221858337Y-64875760D01*
X221858337Y-64875760D02*
X221905956Y-64828141D01*
X221905956Y-64828141D02*
X221953575Y-64732903D01*
X221953575Y-64732903D02*
X221953575Y-64494808D01*
X221953575Y-64494808D02*
X221905956Y-64399570D01*
X221905956Y-64399570D02*
X221858337Y-64351951D01*
X221858337Y-64351951D02*
X221763099Y-64304331D01*
X221763099Y-64304331D02*
X221477385Y-64304331D01*
X221477385Y-64304331D02*
X221382147Y-64351951D01*
X221382147Y-64351951D02*
X221334528Y-64399570D01*
X222382147Y-64399570D02*
X222429766Y-64351951D01*
X222429766Y-64351951D02*
X222382147Y-64304331D01*
X222382147Y-64304331D02*
X222334528Y-64351951D01*
X222334528Y-64351951D02*
X222382147Y-64399570D01*
X222382147Y-64399570D02*
X222382147Y-64304331D01*
X222763099Y-65304331D02*
X223382146Y-65304331D01*
X223382146Y-65304331D02*
X223048813Y-64923379D01*
X223048813Y-64923379D02*
X223191670Y-64923379D01*
X223191670Y-64923379D02*
X223286908Y-64875760D01*
X223286908Y-64875760D02*
X223334527Y-64828141D01*
X223334527Y-64828141D02*
X223382146Y-64732903D01*
X223382146Y-64732903D02*
X223382146Y-64494808D01*
X223382146Y-64494808D02*
X223334527Y-64399570D01*
X223334527Y-64399570D02*
X223286908Y-64351951D01*
X223286908Y-64351951D02*
X223191670Y-64304331D01*
X223191670Y-64304331D02*
X222905956Y-64304331D01*
X222905956Y-64304331D02*
X222810718Y-64351951D01*
X222810718Y-64351951D02*
X222763099Y-64399570D01*
X223667861Y-65304331D02*
X224001194Y-64304331D01*
X224001194Y-64304331D02*
X224334527Y-65304331D01*
X212346432Y-94704331D02*
X212346432Y-95704331D01*
X212346432Y-95704331D02*
X212727384Y-95704331D01*
X212727384Y-95704331D02*
X212822622Y-95656712D01*
X212822622Y-95656712D02*
X212870241Y-95609093D01*
X212870241Y-95609093D02*
X212917860Y-95513855D01*
X212917860Y-95513855D02*
X212917860Y-95370998D01*
X212917860Y-95370998D02*
X212870241Y-95275760D01*
X212870241Y-95275760D02*
X212822622Y-95228141D01*
X212822622Y-95228141D02*
X212727384Y-95180522D01*
X212727384Y-95180522D02*
X212346432Y-95180522D01*
X213870241Y-94704331D02*
X213298813Y-94704331D01*
X213584527Y-94704331D02*
X213584527Y-95704331D01*
X213584527Y-95704331D02*
X213489289Y-95561474D01*
X213489289Y-95561474D02*
X213394051Y-95466236D01*
X213394051Y-95466236D02*
X213298813Y-95418617D01*
X214203575Y-95704331D02*
X214822622Y-95704331D01*
X214822622Y-95704331D02*
X214489289Y-95323379D01*
X214489289Y-95323379D02*
X214632146Y-95323379D01*
X214632146Y-95323379D02*
X214727384Y-95275760D01*
X214727384Y-95275760D02*
X214775003Y-95228141D01*
X214775003Y-95228141D02*
X214822622Y-95132903D01*
X214822622Y-95132903D02*
X214822622Y-94894808D01*
X214822622Y-94894808D02*
X214775003Y-94799570D01*
X214775003Y-94799570D02*
X214727384Y-94751951D01*
X214727384Y-94751951D02*
X214632146Y-94704331D01*
X214632146Y-94704331D02*
X214346432Y-94704331D01*
X214346432Y-94704331D02*
X214251194Y-94751951D01*
X214251194Y-94751951D02*
X214203575Y-94799570D01*
X221286908Y-92795201D02*
X221667860Y-92795201D01*
X221429765Y-93128534D02*
X221429765Y-92271392D01*
X221429765Y-92271392D02*
X221477384Y-92176154D01*
X221477384Y-92176154D02*
X221572622Y-92128534D01*
X221572622Y-92128534D02*
X221667860Y-92128534D01*
X222429765Y-92128534D02*
X222429765Y-93128534D01*
X222429765Y-92176154D02*
X222334527Y-92128534D01*
X222334527Y-92128534D02*
X222144051Y-92128534D01*
X222144051Y-92128534D02*
X222048813Y-92176154D01*
X222048813Y-92176154D02*
X222001194Y-92223773D01*
X222001194Y-92223773D02*
X221953575Y-92319011D01*
X221953575Y-92319011D02*
X221953575Y-92604725D01*
X221953575Y-92604725D02*
X222001194Y-92699963D01*
X222001194Y-92699963D02*
X222048813Y-92747582D01*
X222048813Y-92747582D02*
X222144051Y-92795201D01*
X222144051Y-92795201D02*
X222334527Y-92795201D01*
X222334527Y-92795201D02*
X222429765Y-92747582D01*
X221429765Y-102246426D02*
X221429765Y-103246426D01*
X221429765Y-103246426D02*
X221810717Y-103246426D01*
X221810717Y-103246426D02*
X221905955Y-103198807D01*
X221905955Y-103198807D02*
X221953574Y-103151188D01*
X221953574Y-103151188D02*
X222001193Y-103055950D01*
X222001193Y-103055950D02*
X222001193Y-102913093D01*
X222001193Y-102913093D02*
X221953574Y-102817855D01*
X221953574Y-102817855D02*
X221905955Y-102770236D01*
X221905955Y-102770236D02*
X221810717Y-102722617D01*
X221810717Y-102722617D02*
X221429765Y-102722617D01*
X222382146Y-103151188D02*
X222429765Y-103198807D01*
X222429765Y-103198807D02*
X222525003Y-103246426D01*
X222525003Y-103246426D02*
X222763098Y-103246426D01*
X222763098Y-103246426D02*
X222858336Y-103198807D01*
X222858336Y-103198807D02*
X222905955Y-103151188D01*
X222905955Y-103151188D02*
X222953574Y-103055950D01*
X222953574Y-103055950D02*
X222953574Y-102960712D01*
X222953574Y-102960712D02*
X222905955Y-102817855D01*
X222905955Y-102817855D02*
X222334527Y-102246426D01*
X222334527Y-102246426D02*
X222953574Y-102246426D01*
X223858336Y-103246426D02*
X223382146Y-103246426D01*
X223382146Y-103246426D02*
X223334527Y-102770236D01*
X223334527Y-102770236D02*
X223382146Y-102817855D01*
X223382146Y-102817855D02*
X223477384Y-102865474D01*
X223477384Y-102865474D02*
X223715479Y-102865474D01*
X223715479Y-102865474D02*
X223810717Y-102817855D01*
X223810717Y-102817855D02*
X223858336Y-102770236D01*
X223858336Y-102770236D02*
X223905955Y-102674998D01*
X223905955Y-102674998D02*
X223905955Y-102436903D01*
X223905955Y-102436903D02*
X223858336Y-102341665D01*
X223858336Y-102341665D02*
X223810717Y-102294046D01*
X223810717Y-102294046D02*
X223715479Y-102246426D01*
X223715479Y-102246426D02*
X223477384Y-102246426D01*
X223477384Y-102246426D02*
X223382146Y-102294046D01*
X223382146Y-102294046D02*
X223334527Y-102341665D01*
X213346433Y-70304331D02*
X213679766Y-69304331D01*
X213679766Y-69304331D02*
X214013099Y-70304331D01*
X214346433Y-69304331D02*
X214346433Y-70304331D01*
X214346433Y-69923379D02*
X214441671Y-69970998D01*
X214441671Y-69970998D02*
X214632147Y-69970998D01*
X214632147Y-69970998D02*
X214727385Y-69923379D01*
X214727385Y-69923379D02*
X214775004Y-69875760D01*
X214775004Y-69875760D02*
X214822623Y-69780522D01*
X214822623Y-69780522D02*
X214822623Y-69494808D01*
X214822623Y-69494808D02*
X214775004Y-69399570D01*
X214775004Y-69399570D02*
X214727385Y-69351951D01*
X214727385Y-69351951D02*
X214632147Y-69304331D01*
X214632147Y-69304331D02*
X214441671Y-69304331D01*
X214441671Y-69304331D02*
X214346433Y-69351951D01*
X214013100Y-77305284D02*
X214775005Y-77305284D01*
X212346432Y-87084331D02*
X212346432Y-88084331D01*
X212346432Y-88084331D02*
X212727384Y-88084331D01*
X212727384Y-88084331D02*
X212822622Y-88036712D01*
X212822622Y-88036712D02*
X212870241Y-87989093D01*
X212870241Y-87989093D02*
X212917860Y-87893855D01*
X212917860Y-87893855D02*
X212917860Y-87750998D01*
X212917860Y-87750998D02*
X212870241Y-87655760D01*
X212870241Y-87655760D02*
X212822622Y-87608141D01*
X212822622Y-87608141D02*
X212727384Y-87560522D01*
X212727384Y-87560522D02*
X212346432Y-87560522D01*
X213870241Y-87084331D02*
X213298813Y-87084331D01*
X213584527Y-87084331D02*
X213584527Y-88084331D01*
X213584527Y-88084331D02*
X213489289Y-87941474D01*
X213489289Y-87941474D02*
X213394051Y-87846236D01*
X213394051Y-87846236D02*
X213298813Y-87798617D01*
X214489289Y-88084331D02*
X214584527Y-88084331D01*
X214584527Y-88084331D02*
X214679765Y-88036712D01*
X214679765Y-88036712D02*
X214727384Y-87989093D01*
X214727384Y-87989093D02*
X214775003Y-87893855D01*
X214775003Y-87893855D02*
X214822622Y-87703379D01*
X214822622Y-87703379D02*
X214822622Y-87465284D01*
X214822622Y-87465284D02*
X214775003Y-87274808D01*
X214775003Y-87274808D02*
X214727384Y-87179570D01*
X214727384Y-87179570D02*
X214679765Y-87131951D01*
X214679765Y-87131951D02*
X214584527Y-87084331D01*
X214584527Y-87084331D02*
X214489289Y-87084331D01*
X214489289Y-87084331D02*
X214394051Y-87131951D01*
X214394051Y-87131951D02*
X214346432Y-87179570D01*
X214346432Y-87179570D02*
X214298813Y-87274808D01*
X214298813Y-87274808D02*
X214251194Y-87465284D01*
X214251194Y-87465284D02*
X214251194Y-87703379D01*
X214251194Y-87703379D02*
X214298813Y-87893855D01*
X214298813Y-87893855D02*
X214346432Y-87989093D01*
X214346432Y-87989093D02*
X214394051Y-88036712D01*
X214394051Y-88036712D02*
X214489289Y-88084331D01*
X221429765Y-112364331D02*
X221429765Y-113364331D01*
X221429765Y-113364331D02*
X221810717Y-113364331D01*
X221810717Y-113364331D02*
X221905955Y-113316712D01*
X221905955Y-113316712D02*
X221953574Y-113269093D01*
X221953574Y-113269093D02*
X222001193Y-113173855D01*
X222001193Y-113173855D02*
X222001193Y-113030998D01*
X222001193Y-113030998D02*
X221953574Y-112935760D01*
X221953574Y-112935760D02*
X221905955Y-112888141D01*
X221905955Y-112888141D02*
X221810717Y-112840522D01*
X221810717Y-112840522D02*
X221429765Y-112840522D01*
X222382146Y-113269093D02*
X222429765Y-113316712D01*
X222429765Y-113316712D02*
X222525003Y-113364331D01*
X222525003Y-113364331D02*
X222763098Y-113364331D01*
X222763098Y-113364331D02*
X222858336Y-113316712D01*
X222858336Y-113316712D02*
X222905955Y-113269093D01*
X222905955Y-113269093D02*
X222953574Y-113173855D01*
X222953574Y-113173855D02*
X222953574Y-113078617D01*
X222953574Y-113078617D02*
X222905955Y-112935760D01*
X222905955Y-112935760D02*
X222334527Y-112364331D01*
X222334527Y-112364331D02*
X222953574Y-112364331D01*
X223905955Y-112364331D02*
X223334527Y-112364331D01*
X223620241Y-112364331D02*
X223620241Y-113364331D01*
X223620241Y-113364331D02*
X223525003Y-113221474D01*
X223525003Y-113221474D02*
X223429765Y-113126236D01*
X223429765Y-113126236D02*
X223334527Y-113078617D01*
X221429765Y-104775899D02*
X221429765Y-105775899D01*
X221429765Y-105775899D02*
X221810717Y-105775899D01*
X221810717Y-105775899D02*
X221905955Y-105728280D01*
X221905955Y-105728280D02*
X221953574Y-105680661D01*
X221953574Y-105680661D02*
X222001193Y-105585423D01*
X222001193Y-105585423D02*
X222001193Y-105442566D01*
X222001193Y-105442566D02*
X221953574Y-105347328D01*
X221953574Y-105347328D02*
X221905955Y-105299709D01*
X221905955Y-105299709D02*
X221810717Y-105252090D01*
X221810717Y-105252090D02*
X221429765Y-105252090D01*
X222382146Y-105680661D02*
X222429765Y-105728280D01*
X222429765Y-105728280D02*
X222525003Y-105775899D01*
X222525003Y-105775899D02*
X222763098Y-105775899D01*
X222763098Y-105775899D02*
X222858336Y-105728280D01*
X222858336Y-105728280D02*
X222905955Y-105680661D01*
X222905955Y-105680661D02*
X222953574Y-105585423D01*
X222953574Y-105585423D02*
X222953574Y-105490185D01*
X222953574Y-105490185D02*
X222905955Y-105347328D01*
X222905955Y-105347328D02*
X222334527Y-104775899D01*
X222334527Y-104775899D02*
X222953574Y-104775899D01*
X223810717Y-105442566D02*
X223810717Y-104775899D01*
X223572622Y-105823519D02*
X223334527Y-105109233D01*
X223334527Y-105109233D02*
X223953574Y-105109233D01*
X221286908Y-80481169D02*
X221858336Y-80481169D01*
X221572622Y-79481169D02*
X221572622Y-80481169D01*
X222191670Y-79481169D02*
X222191670Y-80481169D01*
X222191670Y-80481169D02*
X222429765Y-80481169D01*
X222429765Y-80481169D02*
X222572622Y-80433550D01*
X222572622Y-80433550D02*
X222667860Y-80338312D01*
X222667860Y-80338312D02*
X222715479Y-80243074D01*
X222715479Y-80243074D02*
X222763098Y-80052598D01*
X222763098Y-80052598D02*
X222763098Y-79909741D01*
X222763098Y-79909741D02*
X222715479Y-79719265D01*
X222715479Y-79719265D02*
X222667860Y-79624027D01*
X222667860Y-79624027D02*
X222572622Y-79528789D01*
X222572622Y-79528789D02*
X222429765Y-79481169D01*
X222429765Y-79481169D02*
X222191670Y-79481169D01*
X223191670Y-79862122D02*
X223953575Y-79862122D01*
X212346432Y-102324331D02*
X212346432Y-103324331D01*
X212346432Y-103324331D02*
X212727384Y-103324331D01*
X212727384Y-103324331D02*
X212822622Y-103276712D01*
X212822622Y-103276712D02*
X212870241Y-103229093D01*
X212870241Y-103229093D02*
X212917860Y-103133855D01*
X212917860Y-103133855D02*
X212917860Y-102990998D01*
X212917860Y-102990998D02*
X212870241Y-102895760D01*
X212870241Y-102895760D02*
X212822622Y-102848141D01*
X212822622Y-102848141D02*
X212727384Y-102800522D01*
X212727384Y-102800522D02*
X212346432Y-102800522D01*
X213870241Y-102324331D02*
X213298813Y-102324331D01*
X213584527Y-102324331D02*
X213584527Y-103324331D01*
X213584527Y-103324331D02*
X213489289Y-103181474D01*
X213489289Y-103181474D02*
X213394051Y-103086236D01*
X213394051Y-103086236D02*
X213298813Y-103038617D01*
X214727384Y-103324331D02*
X214536908Y-103324331D01*
X214536908Y-103324331D02*
X214441670Y-103276712D01*
X214441670Y-103276712D02*
X214394051Y-103229093D01*
X214394051Y-103229093D02*
X214298813Y-103086236D01*
X214298813Y-103086236D02*
X214251194Y-102895760D01*
X214251194Y-102895760D02*
X214251194Y-102514808D01*
X214251194Y-102514808D02*
X214298813Y-102419570D01*
X214298813Y-102419570D02*
X214346432Y-102371951D01*
X214346432Y-102371951D02*
X214441670Y-102324331D01*
X214441670Y-102324331D02*
X214632146Y-102324331D01*
X214632146Y-102324331D02*
X214727384Y-102371951D01*
X214727384Y-102371951D02*
X214775003Y-102419570D01*
X214775003Y-102419570D02*
X214822622Y-102514808D01*
X214822622Y-102514808D02*
X214822622Y-102752903D01*
X214822622Y-102752903D02*
X214775003Y-102848141D01*
X214775003Y-102848141D02*
X214727384Y-102895760D01*
X214727384Y-102895760D02*
X214632146Y-102943379D01*
X214632146Y-102943379D02*
X214441670Y-102943379D01*
X214441670Y-102943379D02*
X214346432Y-102895760D01*
X214346432Y-102895760D02*
X214298813Y-102848141D01*
X214298813Y-102848141D02*
X214251194Y-102752903D01*
X221429766Y-84540115D02*
X221429766Y-85540115D01*
X221429766Y-85540115D02*
X221667861Y-85540115D01*
X221667861Y-85540115D02*
X221810718Y-85492496D01*
X221810718Y-85492496D02*
X221905956Y-85397258D01*
X221905956Y-85397258D02*
X221953575Y-85302020D01*
X221953575Y-85302020D02*
X222001194Y-85111544D01*
X222001194Y-85111544D02*
X222001194Y-84968687D01*
X222001194Y-84968687D02*
X221953575Y-84778211D01*
X221953575Y-84778211D02*
X221905956Y-84682973D01*
X221905956Y-84682973D02*
X221810718Y-84587735D01*
X221810718Y-84587735D02*
X221667861Y-84540115D01*
X221667861Y-84540115D02*
X221429766Y-84540115D01*
X222429766Y-84921068D02*
X223191671Y-84921068D01*
X221429765Y-99716953D02*
X221429765Y-100716953D01*
X221429765Y-100716953D02*
X221810717Y-100716953D01*
X221810717Y-100716953D02*
X221905955Y-100669334D01*
X221905955Y-100669334D02*
X221953574Y-100621715D01*
X221953574Y-100621715D02*
X222001193Y-100526477D01*
X222001193Y-100526477D02*
X222001193Y-100383620D01*
X222001193Y-100383620D02*
X221953574Y-100288382D01*
X221953574Y-100288382D02*
X221905955Y-100240763D01*
X221905955Y-100240763D02*
X221810717Y-100193144D01*
X221810717Y-100193144D02*
X221429765Y-100193144D01*
X222382146Y-100621715D02*
X222429765Y-100669334D01*
X222429765Y-100669334D02*
X222525003Y-100716953D01*
X222525003Y-100716953D02*
X222763098Y-100716953D01*
X222763098Y-100716953D02*
X222858336Y-100669334D01*
X222858336Y-100669334D02*
X222905955Y-100621715D01*
X222905955Y-100621715D02*
X222953574Y-100526477D01*
X222953574Y-100526477D02*
X222953574Y-100431239D01*
X222953574Y-100431239D02*
X222905955Y-100288382D01*
X222905955Y-100288382D02*
X222334527Y-99716953D01*
X222334527Y-99716953D02*
X222953574Y-99716953D01*
X223810717Y-100716953D02*
X223620241Y-100716953D01*
X223620241Y-100716953D02*
X223525003Y-100669334D01*
X223525003Y-100669334D02*
X223477384Y-100621715D01*
X223477384Y-100621715D02*
X223382146Y-100478858D01*
X223382146Y-100478858D02*
X223334527Y-100288382D01*
X223334527Y-100288382D02*
X223334527Y-99907430D01*
X223334527Y-99907430D02*
X223382146Y-99812192D01*
X223382146Y-99812192D02*
X223429765Y-99764573D01*
X223429765Y-99764573D02*
X223525003Y-99716953D01*
X223525003Y-99716953D02*
X223715479Y-99716953D01*
X223715479Y-99716953D02*
X223810717Y-99764573D01*
X223810717Y-99764573D02*
X223858336Y-99812192D01*
X223858336Y-99812192D02*
X223905955Y-99907430D01*
X223905955Y-99907430D02*
X223905955Y-100145525D01*
X223905955Y-100145525D02*
X223858336Y-100240763D01*
X223858336Y-100240763D02*
X223810717Y-100288382D01*
X223810717Y-100288382D02*
X223715479Y-100336001D01*
X223715479Y-100336001D02*
X223525003Y-100336001D01*
X223525003Y-100336001D02*
X223429765Y-100288382D01*
X223429765Y-100288382D02*
X223382146Y-100240763D01*
X223382146Y-100240763D02*
X223334527Y-100145525D01*
X213298814Y-84544331D02*
X213298814Y-85544331D01*
X213298814Y-85544331D02*
X213679766Y-85544331D01*
X213679766Y-85544331D02*
X213775004Y-85496712D01*
X213775004Y-85496712D02*
X213822623Y-85449093D01*
X213822623Y-85449093D02*
X213870242Y-85353855D01*
X213870242Y-85353855D02*
X213870242Y-85210998D01*
X213870242Y-85210998D02*
X213822623Y-85115760D01*
X213822623Y-85115760D02*
X213775004Y-85068141D01*
X213775004Y-85068141D02*
X213679766Y-85020522D01*
X213679766Y-85020522D02*
X213298814Y-85020522D01*
X214346433Y-84544331D02*
X214536909Y-84544331D01*
X214536909Y-84544331D02*
X214632147Y-84591951D01*
X214632147Y-84591951D02*
X214679766Y-84639570D01*
X214679766Y-84639570D02*
X214775004Y-84782427D01*
X214775004Y-84782427D02*
X214822623Y-84972903D01*
X214822623Y-84972903D02*
X214822623Y-85353855D01*
X214822623Y-85353855D02*
X214775004Y-85449093D01*
X214775004Y-85449093D02*
X214727385Y-85496712D01*
X214727385Y-85496712D02*
X214632147Y-85544331D01*
X214632147Y-85544331D02*
X214441671Y-85544331D01*
X214441671Y-85544331D02*
X214346433Y-85496712D01*
X214346433Y-85496712D02*
X214298814Y-85449093D01*
X214298814Y-85449093D02*
X214251195Y-85353855D01*
X214251195Y-85353855D02*
X214251195Y-85115760D01*
X214251195Y-85115760D02*
X214298814Y-85020522D01*
X214298814Y-85020522D02*
X214346433Y-84972903D01*
X214346433Y-84972903D02*
X214441671Y-84925284D01*
X214441671Y-84925284D02*
X214632147Y-84925284D01*
X214632147Y-84925284D02*
X214727385Y-84972903D01*
X214727385Y-84972903D02*
X214775004Y-85020522D01*
X214775004Y-85020522D02*
X214822623Y-85115760D01*
X212346432Y-112484331D02*
X212346432Y-113484331D01*
X212346432Y-113484331D02*
X212727384Y-113484331D01*
X212727384Y-113484331D02*
X212822622Y-113436712D01*
X212822622Y-113436712D02*
X212870241Y-113389093D01*
X212870241Y-113389093D02*
X212917860Y-113293855D01*
X212917860Y-113293855D02*
X212917860Y-113150998D01*
X212917860Y-113150998D02*
X212870241Y-113055760D01*
X212870241Y-113055760D02*
X212822622Y-113008141D01*
X212822622Y-113008141D02*
X212727384Y-112960522D01*
X212727384Y-112960522D02*
X212346432Y-112960522D01*
X213298813Y-113389093D02*
X213346432Y-113436712D01*
X213346432Y-113436712D02*
X213441670Y-113484331D01*
X213441670Y-113484331D02*
X213679765Y-113484331D01*
X213679765Y-113484331D02*
X213775003Y-113436712D01*
X213775003Y-113436712D02*
X213822622Y-113389093D01*
X213822622Y-113389093D02*
X213870241Y-113293855D01*
X213870241Y-113293855D02*
X213870241Y-113198617D01*
X213870241Y-113198617D02*
X213822622Y-113055760D01*
X213822622Y-113055760D02*
X213251194Y-112484331D01*
X213251194Y-112484331D02*
X213870241Y-112484331D01*
X214489289Y-113484331D02*
X214584527Y-113484331D01*
X214584527Y-113484331D02*
X214679765Y-113436712D01*
X214679765Y-113436712D02*
X214727384Y-113389093D01*
X214727384Y-113389093D02*
X214775003Y-113293855D01*
X214775003Y-113293855D02*
X214822622Y-113103379D01*
X214822622Y-113103379D02*
X214822622Y-112865284D01*
X214822622Y-112865284D02*
X214775003Y-112674808D01*
X214775003Y-112674808D02*
X214727384Y-112579570D01*
X214727384Y-112579570D02*
X214679765Y-112531951D01*
X214679765Y-112531951D02*
X214584527Y-112484331D01*
X214584527Y-112484331D02*
X214489289Y-112484331D01*
X214489289Y-112484331D02*
X214394051Y-112531951D01*
X214394051Y-112531951D02*
X214346432Y-112579570D01*
X214346432Y-112579570D02*
X214298813Y-112674808D01*
X214298813Y-112674808D02*
X214251194Y-112865284D01*
X214251194Y-112865284D02*
X214251194Y-113103379D01*
X214251194Y-113103379D02*
X214298813Y-113293855D01*
X214298813Y-113293855D02*
X214346432Y-113389093D01*
X214346432Y-113389093D02*
X214394051Y-113436712D01*
X214394051Y-113436712D02*
X214489289Y-113484331D01*
X214013100Y-74765284D02*
X214775005Y-74765284D01*
X221429766Y-87069588D02*
X221429766Y-88069588D01*
X221429766Y-88069588D02*
X221667861Y-88069588D01*
X221667861Y-88069588D02*
X221810718Y-88021969D01*
X221810718Y-88021969D02*
X221905956Y-87926731D01*
X221905956Y-87926731D02*
X221953575Y-87831493D01*
X221953575Y-87831493D02*
X222001194Y-87641017D01*
X222001194Y-87641017D02*
X222001194Y-87498160D01*
X222001194Y-87498160D02*
X221953575Y-87307684D01*
X221953575Y-87307684D02*
X221905956Y-87212446D01*
X221905956Y-87212446D02*
X221810718Y-87117208D01*
X221810718Y-87117208D02*
X221667861Y-87069588D01*
X221667861Y-87069588D02*
X221429766Y-87069588D01*
X222429766Y-87450541D02*
X223191671Y-87450541D01*
X222810718Y-87069588D02*
X222810718Y-87831493D01*
X212346432Y-97244331D02*
X212346432Y-98244331D01*
X212346432Y-98244331D02*
X212727384Y-98244331D01*
X212727384Y-98244331D02*
X212822622Y-98196712D01*
X212822622Y-98196712D02*
X212870241Y-98149093D01*
X212870241Y-98149093D02*
X212917860Y-98053855D01*
X212917860Y-98053855D02*
X212917860Y-97910998D01*
X212917860Y-97910998D02*
X212870241Y-97815760D01*
X212870241Y-97815760D02*
X212822622Y-97768141D01*
X212822622Y-97768141D02*
X212727384Y-97720522D01*
X212727384Y-97720522D02*
X212346432Y-97720522D01*
X213870241Y-97244331D02*
X213298813Y-97244331D01*
X213584527Y-97244331D02*
X213584527Y-98244331D01*
X213584527Y-98244331D02*
X213489289Y-98101474D01*
X213489289Y-98101474D02*
X213394051Y-98006236D01*
X213394051Y-98006236D02*
X213298813Y-97958617D01*
X214727384Y-97910998D02*
X214727384Y-97244331D01*
X214489289Y-98291951D02*
X214251194Y-97577665D01*
X214251194Y-97577665D02*
X214870241Y-97577665D01*
X212727385Y-65176712D02*
X212632147Y-65224331D01*
X212632147Y-65224331D02*
X212489290Y-65224331D01*
X212489290Y-65224331D02*
X212346433Y-65176712D01*
X212346433Y-65176712D02*
X212251195Y-65081474D01*
X212251195Y-65081474D02*
X212203576Y-64986236D01*
X212203576Y-64986236D02*
X212155957Y-64795760D01*
X212155957Y-64795760D02*
X212155957Y-64652903D01*
X212155957Y-64652903D02*
X212203576Y-64462427D01*
X212203576Y-64462427D02*
X212251195Y-64367189D01*
X212251195Y-64367189D02*
X212346433Y-64271951D01*
X212346433Y-64271951D02*
X212489290Y-64224331D01*
X212489290Y-64224331D02*
X212584528Y-64224331D01*
X212584528Y-64224331D02*
X212727385Y-64271951D01*
X212727385Y-64271951D02*
X212775004Y-64319570D01*
X212775004Y-64319570D02*
X212775004Y-64652903D01*
X212775004Y-64652903D02*
X212584528Y-64652903D01*
X213203576Y-64224331D02*
X213203576Y-65224331D01*
X213203576Y-65224331D02*
X213775004Y-64224331D01*
X213775004Y-64224331D02*
X213775004Y-65224331D01*
X214251195Y-64224331D02*
X214251195Y-65224331D01*
X214251195Y-65224331D02*
X214489290Y-65224331D01*
X214489290Y-65224331D02*
X214632147Y-65176712D01*
X214632147Y-65176712D02*
X214727385Y-65081474D01*
X214727385Y-65081474D02*
X214775004Y-64986236D01*
X214775004Y-64986236D02*
X214822623Y-64795760D01*
X214822623Y-64795760D02*
X214822623Y-64652903D01*
X214822623Y-64652903D02*
X214775004Y-64462427D01*
X214775004Y-64462427D02*
X214727385Y-64367189D01*
X214727385Y-64367189D02*
X214632147Y-64271951D01*
X214632147Y-64271951D02*
X214489290Y-64224331D01*
X214489290Y-64224331D02*
X214251195Y-64224331D01*
X214013100Y-79845284D02*
X214775005Y-79845284D01*
X212346432Y-104864331D02*
X212346432Y-105864331D01*
X212346432Y-105864331D02*
X212727384Y-105864331D01*
X212727384Y-105864331D02*
X212822622Y-105816712D01*
X212822622Y-105816712D02*
X212870241Y-105769093D01*
X212870241Y-105769093D02*
X212917860Y-105673855D01*
X212917860Y-105673855D02*
X212917860Y-105530998D01*
X212917860Y-105530998D02*
X212870241Y-105435760D01*
X212870241Y-105435760D02*
X212822622Y-105388141D01*
X212822622Y-105388141D02*
X212727384Y-105340522D01*
X212727384Y-105340522D02*
X212346432Y-105340522D01*
X213870241Y-104864331D02*
X213298813Y-104864331D01*
X213584527Y-104864331D02*
X213584527Y-105864331D01*
X213584527Y-105864331D02*
X213489289Y-105721474D01*
X213489289Y-105721474D02*
X213394051Y-105626236D01*
X213394051Y-105626236D02*
X213298813Y-105578617D01*
X214203575Y-105864331D02*
X214870241Y-105864331D01*
X214870241Y-105864331D02*
X214441670Y-104864331D01*
%TD*%
M02*
