%TF.GenerationSoftware,KiCad,Pcbnew,7.0.5-7.0.5~ubuntu22.04.1*%
%TF.CreationDate,2023-06-12T13:20:55+02:00*%
%TF.ProjectId,OBC_L476RG,4f42435f-4c34-4373-9652-472e6b696361,rev?*%
%TF.SameCoordinates,Original*%
%TF.FileFunction,Copper,L1,Top*%
%TF.FilePolarity,Positive*%
%FSLAX46Y46*%
G04 Gerber Fmt 4.6, Leading zero omitted, Abs format (unit mm)*
G04 Created by KiCad (PCBNEW 7.0.5-7.0.5~ubuntu22.04.1) date 2023-06-12 13:20:55*
%MOMM*%
%LPD*%
G01*
G04 APERTURE LIST*
G04 Aperture macros list*
%AMRoundRect*
0 Rectangle with rounded corners*
0 $1 Rounding radius*
0 $2 $3 $4 $5 $6 $7 $8 $9 X,Y pos of 4 corners*
0 Add a 4 corners polygon primitive as box body*
4,1,4,$2,$3,$4,$5,$6,$7,$8,$9,$2,$3,0*
0 Add four circle primitives for the rounded corners*
1,1,$1+$1,$2,$3*
1,1,$1+$1,$4,$5*
1,1,$1+$1,$6,$7*
1,1,$1+$1,$8,$9*
0 Add four rect primitives between the rounded corners*
20,1,$1+$1,$2,$3,$4,$5,0*
20,1,$1+$1,$4,$5,$6,$7,0*
20,1,$1+$1,$6,$7,$8,$9,0*
20,1,$1+$1,$8,$9,$2,$3,0*%
G04 Aperture macros list end*
%TA.AperFunction,SMDPad,CuDef*%
%ADD10RoundRect,0.250000X-0.787500X-1.025000X0.787500X-1.025000X0.787500X1.025000X-0.787500X1.025000X0*%
%TD*%
%TA.AperFunction,ComponentPad*%
%ADD11R,1.650000X1.650000*%
%TD*%
%TA.AperFunction,ComponentPad*%
%ADD12C,1.650000*%
%TD*%
%TA.AperFunction,SMDPad,CuDef*%
%ADD13R,0.700000X0.510000*%
%TD*%
%TA.AperFunction,SMDPad,CuDef*%
%ADD14RoundRect,0.225000X-0.225000X-0.250000X0.225000X-0.250000X0.225000X0.250000X-0.225000X0.250000X0*%
%TD*%
%TA.AperFunction,SMDPad,CuDef*%
%ADD15RoundRect,0.250000X-0.262500X-0.450000X0.262500X-0.450000X0.262500X0.450000X-0.262500X0.450000X0*%
%TD*%
%TA.AperFunction,SMDPad,CuDef*%
%ADD16R,1.200000X0.700000*%
%TD*%
%TA.AperFunction,SMDPad,CuDef*%
%ADD17R,0.800000X1.000000*%
%TD*%
%TA.AperFunction,SMDPad,CuDef*%
%ADD18R,1.200000X1.000000*%
%TD*%
%TA.AperFunction,SMDPad,CuDef*%
%ADD19R,2.800000X1.000000*%
%TD*%
%TA.AperFunction,SMDPad,CuDef*%
%ADD20R,1.900000X1.300000*%
%TD*%
%TA.AperFunction,ComponentPad*%
%ADD21RoundRect,0.375000X-0.375000X-0.375000X0.375000X-0.375000X0.375000X0.375000X-0.375000X0.375000X0*%
%TD*%
%TA.AperFunction,ComponentPad*%
%ADD22C,1.500000*%
%TD*%
%TA.AperFunction,ViaPad*%
%ADD23C,0.700000*%
%TD*%
%TA.AperFunction,ViaPad*%
%ADD24C,0.800000*%
%TD*%
%TA.AperFunction,Conductor*%
%ADD25C,0.300000*%
%TD*%
%TA.AperFunction,Conductor*%
%ADD26C,0.500000*%
%TD*%
G04 APERTURE END LIST*
D10*
%TO.P,C2,1*%
%TO.N,+3.3V*%
X163595500Y-95586000D03*
%TO.P,C2,2*%
%TO.N,GND*%
X169820500Y-95586000D03*
%TD*%
D11*
%TO.P,J1,1,GND*%
%TO.N,GND*%
X217030718Y-64566651D03*
D12*
%TO.P,J1,2,3V3*%
%TO.N,unconnected-(J1-3V3-Pad2)*%
X219570718Y-64566651D03*
%TO.P,J1,3,V_IN*%
%TO.N,/Vin*%
X217030718Y-67106651D03*
%TO.P,J1,4,5V*%
%TO.N,unconnected-(J1-5V-Pad4)*%
X219570718Y-67106651D03*
%TO.P,J1,5,V_B*%
%TO.N,unconnected-(J1-V_B-Pad5)*%
X217030718Y-69646651D03*
%TO.P,J1,6,NC1*%
%TO.N,unconnected-(J1-NC1-Pad6)*%
X219570718Y-69646651D03*
%TO.P,J1,7,NC2*%
%TO.N,unconnected-(J1-NC2-Pad7)*%
X217030718Y-72186651D03*
%TO.P,J1,8,NC3*%
%TO.N,unconnected-(J1-NC3-Pad8)*%
X219570718Y-72186651D03*
%TO.P,J1,9,NC4*%
%TO.N,unconnected-(J1-NC4-Pad9)*%
X217030718Y-74726651D03*
%TO.P,J1,10,RD-*%
%TO.N,unconnected-(J1-RD--Pad10)*%
X219570718Y-74726651D03*
%TO.P,J1,11,NC*%
%TO.N,unconnected-(J1-NC-Pad11)*%
X217030718Y-77266651D03*
%TO.P,J1,12,RD+*%
%TO.N,unconnected-(J1-RD+-Pad12)*%
X219570718Y-77266651D03*
%TO.P,J1,13,NC*%
%TO.N,unconnected-(J1-NC-Pad13)*%
X217030718Y-79806651D03*
%TO.P,J1,14,TD-*%
%TO.N,unconnected-(J1-TD--Pad14)*%
X219570718Y-79806651D03*
%TO.P,J1,15,NC*%
%TO.N,unconnected-(J1-NC-Pad15)*%
X217030718Y-82346651D03*
%TO.P,J1,16,TD+*%
%TO.N,unconnected-(J1-TD+-Pad16)*%
X219570718Y-82346651D03*
%TO.P,J1,17,RX/SDA*%
%TO.N,/SDA{slash}RX_1*%
X217030718Y-84886651D03*
%TO.P,J1,18,D-*%
%TO.N,/USB_D-*%
X219570718Y-84886651D03*
%TO.P,J1,19,TX/SCL*%
%TO.N,/SCL{slash}TX_1*%
X217030718Y-87426651D03*
%TO.P,J1,20,D+*%
%TO.N,/USB_D+*%
X219570718Y-87426651D03*
%TO.P,J1,21,SCK*%
%TO.N,/SCK*%
X217030718Y-89966651D03*
%TO.P,J1,22,RD*%
%TO.N,/CAN_rd*%
X219570718Y-89966651D03*
%TO.P,J1,23,MOSI*%
%TO.N,/MOSI*%
X217030718Y-92506651D03*
%TO.P,J1,24,TD*%
%TO.N,/CAN_td*%
X219570718Y-92506651D03*
%TO.P,J1,25,MISO*%
%TO.N,/MISO*%
X217030718Y-95046651D03*
%TO.P,J1,26,SDA/RX*%
%TO.N,/SDA{slash}RX_2*%
X219570718Y-95046651D03*
%TO.P,J1,27,SSEL*%
%TO.N,/SSEL*%
X217030718Y-97586651D03*
%TO.P,J1,28,SCL/TX*%
%TO.N,/SCL{slash}TX_2*%
X219570718Y-97586651D03*
%TO.P,J1,29,AI_1*%
%TO.N,/P15*%
X217030718Y-100126651D03*
%TO.P,J1,30,PWM_O_1*%
%TO.N,/P26*%
X219570718Y-100126651D03*
%TO.P,J1,31,AI_2*%
%TO.N,/P16*%
X217030718Y-102666651D03*
%TO.P,J1,32,PWM_O_2*%
%TO.N,/P25*%
X219570718Y-102666651D03*
%TO.P,J1,33,AI_3*%
%TO.N,/P17*%
X217030718Y-105206651D03*
%TO.P,J1,34,PWM_O_3*%
%TO.N,/P24*%
X219570718Y-105206651D03*
%TO.P,J1,35,AI_4*%
%TO.N,/P18*%
X217030718Y-107746651D03*
%TO.P,J1,36,PWM_O_4*%
%TO.N,/P23*%
X219570718Y-107746651D03*
%TO.P,J1,37,AI_5*%
%TO.N,/P19*%
X217030718Y-110286651D03*
%TO.P,J1,38,PWM_O_5*%
%TO.N,/P22*%
X219570718Y-110286651D03*
%TO.P,J1,39,AI_6*%
%TO.N,/P20*%
X217030718Y-112826651D03*
%TO.P,J1,40,PWM_O_6*%
%TO.N,/P21*%
X219570718Y-112826651D03*
%TD*%
D13*
%TO.P,B1,1,OE*%
%TO.N,/CS*%
X172313000Y-89551000D03*
%TO.P,B1,2,A*%
%TO.N,/DAT0*%
X172313000Y-88601000D03*
%TO.P,B1,3,GND*%
%TO.N,GND*%
X172313000Y-87651000D03*
%TO.P,B1,4,Y*%
%TO.N,/SD_MISO*%
X169993000Y-87651000D03*
%TO.P,B1,5,VCC*%
%TO.N,+3.3V*%
X169993000Y-89551000D03*
%TD*%
D14*
%TO.P,C1,1*%
%TO.N,+3.3V*%
X163888000Y-91776000D03*
%TO.P,C1,2*%
%TO.N,GND*%
X165438000Y-91776000D03*
%TD*%
D15*
%TO.P,R1,1*%
%TO.N,/CS*%
X163890500Y-88601000D03*
%TO.P,R1,2*%
%TO.N,+3.3V*%
X165715500Y-88601000D03*
%TD*%
D16*
%TO.P,J2,1,DAT2*%
%TO.N,unconnected-(J2-DAT2-Pad1)*%
X159118000Y-91981000D03*
%TO.P,J2,2,DAT3/CD*%
%TO.N,/CS*%
X159118000Y-90881000D03*
%TO.P,J2,3,CMD*%
%TO.N,/SD_MOSI*%
X159118000Y-89781000D03*
%TO.P,J2,4,VDD*%
%TO.N,+3.3V*%
X159118000Y-88681000D03*
%TO.P,J2,5,CLK*%
%TO.N,/SD_SCK*%
X159118000Y-87581000D03*
%TO.P,J2,6,VSS*%
%TO.N,GND*%
X159118000Y-86481000D03*
%TO.P,J2,7,DAT0*%
%TO.N,/DAT0*%
X159118000Y-85381000D03*
%TO.P,J2,8,DAT1*%
%TO.N,unconnected-(J2-DAT1-Pad8)*%
X159118000Y-84281000D03*
%TO.P,J2,9,DET_B*%
%TO.N,unconnected-(J2-DET_B-Pad9)*%
X159118000Y-83331000D03*
D17*
%TO.P,J2,10,DET_A*%
%TO.N,unconnected-(J2-DET_A-Pad10)*%
X148618000Y-82381000D03*
D18*
%TO.P,J2,11,SHIELD*%
%TO.N,GND*%
X154818000Y-82381000D03*
D19*
X144468000Y-82381000D03*
D18*
X159118000Y-93531000D03*
D20*
X144018000Y-95881000D03*
%TD*%
D21*
%TO.P,U1,1,PC10*%
%TO.N,/SCK*%
X158834000Y-120393268D03*
D22*
%TO.P,U1,2,PC11*%
%TO.N,/MISO*%
X158834000Y-117853268D03*
%TO.P,U1,3,PC12*%
%TO.N,/MOSI*%
X161374000Y-120393268D03*
%TO.P,U1,4,PD2*%
%TO.N,unconnected-(U1-PD2-Pad4)*%
X161374000Y-117853268D03*
%TO.P,U1,5,VDD*%
%TO.N,unconnected-(U1-VDD-Pad5)*%
X163914000Y-120393268D03*
%TO.P,U1,6,E5V*%
%TO.N,unconnected-(U1-E5V-Pad6)*%
X163914000Y-117853268D03*
%TO.P,U1,7,BOOT0*%
%TO.N,unconnected-(U1-BOOT0-Pad7)*%
X166454000Y-120393268D03*
%TO.P,U1,8,GND*%
%TO.N,GND*%
X166454000Y-117853268D03*
%TO.P,U1,9,-*%
%TO.N,unconnected-(U1---Pad9)*%
X168994000Y-120393268D03*
%TO.P,U1,10,-*%
%TO.N,unconnected-(U1---Pad10)*%
X168994000Y-117853268D03*
%TO.P,U1,11,-*%
%TO.N,unconnected-(U1---Pad11)*%
X171534000Y-120393268D03*
%TO.P,U1,12,IOREF*%
%TO.N,unconnected-(U1-IOREF-Pad12)*%
X171534000Y-117853268D03*
%TO.P,U1,13,PA13*%
%TO.N,unconnected-(U1-PA13-Pad13)*%
X174074000Y-120393268D03*
%TO.P,U1,14,RESET*%
%TO.N,unconnected-(U1-RESET-Pad14)*%
X174074000Y-117853268D03*
%TO.P,U1,15,PA14*%
%TO.N,unconnected-(U1-PA14-Pad15)*%
X176614000Y-120393268D03*
%TO.P,U1,16,+3V3*%
%TO.N,+3.3V*%
X176614000Y-117853268D03*
%TO.P,U1,17,PA15*%
%TO.N,unconnected-(U1-PA15-Pad17)*%
X179154000Y-120393268D03*
%TO.P,U1,18,+5V*%
%TO.N,unconnected-(U1-+5V-Pad18)*%
X179154000Y-117853268D03*
%TO.P,U1,19,GND*%
%TO.N,GND*%
X181694000Y-120393268D03*
%TO.P,U1,20,GND*%
X181694000Y-117853268D03*
%TO.P,U1,21,PB7*%
%TO.N,/SDA{slash}RX_1*%
X184234000Y-120393268D03*
%TO.P,U1,22,GND*%
%TO.N,GND*%
X184234000Y-117853268D03*
%TO.P,U1,23,PC13*%
%TO.N,unconnected-(U1-PC13-Pad23)*%
X186774000Y-120393268D03*
%TO.P,U1,24,VIN*%
%TO.N,/Vin*%
X186774000Y-117853268D03*
%TO.P,U1,25,PC14*%
%TO.N,unconnected-(U1-PC14-Pad25)*%
X189314000Y-120393268D03*
%TO.P,U1,26,-*%
%TO.N,unconnected-(U1---Pad26)*%
X189314000Y-117853268D03*
%TO.P,U1,27,PC15*%
%TO.N,unconnected-(U1-PC15-Pad27)*%
X191854000Y-120393268D03*
%TO.P,U1,28,PA0*%
%TO.N,/P25*%
X191854000Y-117853268D03*
%TO.P,U1,29,PH0*%
%TO.N,/CS*%
X194394000Y-120393268D03*
%TO.P,U1,30,PA1*%
%TO.N,/P23*%
X194394000Y-117853268D03*
%TO.P,U1,31,PH1*%
%TO.N,unconnected-(U1-PH1-Pad31)*%
X196934000Y-120393268D03*
%TO.P,U1,32,PA4*%
%TO.N,/P21*%
X196934000Y-117853268D03*
%TO.P,U1,33,VBAT*%
%TO.N,unconnected-(U1-VBAT-Pad33)*%
X199474000Y-120393268D03*
%TO.P,U1,34,PB0*%
%TO.N,unconnected-(U1-PB0-Pad34)*%
X199474000Y-117853268D03*
%TO.P,U1,35,PC2*%
%TO.N,/SD_MISO*%
X202014000Y-120393268D03*
%TO.P,U1,36,PC1/PB9*%
%TO.N,unconnected-(U1-PC1{slash}PB9-Pad36)*%
X202014000Y-117853268D03*
%TO.P,U1,37,PC3*%
%TO.N,/SD_MOSI*%
X204554000Y-120393268D03*
%TO.P,U1,38,PC0/PB8*%
%TO.N,unconnected-(U1-PC0{slash}PB8-Pad38)*%
X204554000Y-117853268D03*
D21*
%TO.P,U1,39,PC9*%
%TO.N,/SSEL*%
X158834000Y-59433268D03*
D22*
%TO.P,U1,40,PC8*%
%TO.N,unconnected-(U1-PC8-Pad40)*%
X158834000Y-56893268D03*
%TO.P,U1,41,PB8*%
%TO.N,/CAN_rd*%
X161374000Y-59433268D03*
%TO.P,U1,42,PC6*%
%TO.N,unconnected-(U1-PC6-Pad42)*%
X161374000Y-56893268D03*
%TO.P,U1,43,PB9*%
%TO.N,/CAN_td*%
X163914000Y-59433268D03*
%TO.P,U1,44,PC5*%
%TO.N,unconnected-(U1-PC5-Pad44)*%
X163914000Y-56893268D03*
%TO.P,U1,45,AVDD*%
%TO.N,unconnected-(U1-AVDD-Pad45)*%
X166454000Y-59433268D03*
%TO.P,U1,46,U5V*%
%TO.N,unconnected-(U1-U5V-Pad46)*%
X166454000Y-56893268D03*
%TO.P,U1,47,GND*%
%TO.N,GND*%
X168994000Y-59433268D03*
%TO.P,U1,48,-*%
%TO.N,unconnected-(U1---Pad48)*%
X168994000Y-56893268D03*
%TO.P,U1,49,PA5*%
%TO.N,unconnected-(U1-PA5-Pad49)*%
X171534000Y-59433268D03*
%TO.P,U1,50,PA12*%
%TO.N,/USB_D+*%
X171534000Y-56893268D03*
%TO.P,U1,51,PA6*%
%TO.N,unconnected-(U1-PA6-Pad51)*%
X174074000Y-59433268D03*
%TO.P,U1,52,PA11*%
%TO.N,/USB_D-*%
X174074000Y-56893268D03*
%TO.P,U1,53,PA7*%
%TO.N,unconnected-(U1-PA7-Pad53)*%
X176614000Y-59433268D03*
%TO.P,U1,54,PB12*%
%TO.N,unconnected-(U1-PB12-Pad54)*%
X176614000Y-56893268D03*
%TO.P,U1,55,PB6*%
%TO.N,/SCL{slash}TX_1*%
X179154000Y-59433268D03*
%TO.P,U1,56,PB11*%
%TO.N,/SDA{slash}RX_2*%
X179154000Y-56893268D03*
%TO.P,U1,57,PC7*%
%TO.N,unconnected-(U1-PC7-Pad57)*%
X181694000Y-59433268D03*
%TO.P,U1,58,GND*%
%TO.N,GND*%
X181694000Y-56893268D03*
%TO.P,U1,59,PA9*%
%TO.N,unconnected-(U1-PA9-Pad59)*%
X184234000Y-59433268D03*
%TO.P,U1,60,PB2*%
%TO.N,unconnected-(U1-PB2-Pad60)*%
X184234000Y-56893268D03*
%TO.P,U1,61,PA8*%
%TO.N,unconnected-(U1-PA8-Pad61)*%
X186774000Y-59433268D03*
%TO.P,U1,62,PB1*%
%TO.N,unconnected-(U1-PB1-Pad62)*%
X186774000Y-56893268D03*
%TO.P,U1,63,PB10*%
%TO.N,/SD_SCK*%
X189314000Y-59433268D03*
%TO.P,U1,64,PB15*%
%TO.N,/P15*%
X189314000Y-56893268D03*
%TO.P,U1,65,PB4*%
%TO.N,/P16*%
X191854000Y-59433268D03*
%TO.P,U1,66,PB14*%
%TO.N,/P17*%
X191854000Y-56893268D03*
%TO.P,U1,67,PB5*%
%TO.N,/P18*%
X194394000Y-59433268D03*
%TO.P,U1,68,PB13*%
%TO.N,/SCL{slash}TX_2*%
X194394000Y-56893268D03*
%TO.P,U1,69,PB3*%
%TO.N,/P26*%
X196934000Y-59433268D03*
%TO.P,U1,70,AGND*%
%TO.N,unconnected-(U1-AGND-Pad70)*%
X196934000Y-56893268D03*
%TO.P,U1,71,PA10*%
%TO.N,/P19*%
X199474000Y-59433268D03*
%TO.P,U1,72,PC4*%
%TO.N,/P20*%
X199474000Y-56893268D03*
%TO.P,U1,73,PA2*%
%TO.N,/P24*%
X202014000Y-59433268D03*
%TO.P,U1,74,-*%
%TO.N,unconnected-(U1---Pad74)*%
X202014000Y-56893268D03*
%TO.P,U1,75,PA3*%
%TO.N,/P22*%
X204554000Y-59433268D03*
%TO.P,U1,76,-*%
%TO.N,unconnected-(U1---Pad76)*%
X204554000Y-56893268D03*
%TD*%
D23*
%TO.N,/CS*%
X162560000Y-88900000D03*
X161925000Y-92710000D03*
X170815000Y-91440000D03*
D24*
%TO.N,GND*%
X153500000Y-94316000D03*
X155532000Y-95332000D03*
D23*
X179662000Y-115398000D03*
X174074000Y-88220000D03*
X178900000Y-115398000D03*
X166454000Y-113874000D03*
X167978000Y-113874000D03*
X178138000Y-115398000D03*
D24*
X154516000Y-94316000D03*
X153500000Y-95332000D03*
X154516000Y-95332000D03*
X155532000Y-94316000D03*
D23*
X167216000Y-113874000D03*
%TO.N,/SD_MISO*%
X184488000Y-94570000D03*
X190414000Y-100496000D03*
%TO.N,/SDA{slash}RX_1*%
X185504000Y-76790000D03*
%TO.N,/SCL{slash}TX_1*%
X179175863Y-73765863D03*
%TO.N,/CAN_td*%
X165100000Y-66040000D03*
%TO.N,/SDA{slash}RX_2*%
X178054000Y-81534000D03*
%TO.N,/SCL{slash}TX_2*%
X180340000Y-86360000D03*
%TO.N,/P15*%
X190584000Y-78855893D03*
X191092000Y-99651151D03*
%TO.N,/P26*%
X190500000Y-55245000D03*
X182880000Y-91440000D03*
%TO.N,/P16*%
X191854000Y-77298000D03*
X191854000Y-100920000D03*
%TO.N,/P17*%
X206586000Y-63836000D03*
X207094769Y-72472000D03*
%TO.N,/P24*%
X207602000Y-63074000D03*
X208110000Y-72472000D03*
%TO.N,/P18*%
X205824000Y-64852000D03*
X206078000Y-72472000D03*
X208364000Y-107271151D03*
%TO.N,/P19*%
X204046000Y-72472000D03*
%TO.N,/P22*%
X205105000Y-72472000D03*
X207645000Y-107950000D03*
%TO.N,/P20*%
X203030000Y-72472000D03*
%TO.N,/SD_SCK*%
X177354500Y-71710000D03*
X160989000Y-87581000D03*
X163660000Y-84918000D03*
%TD*%
D25*
%TO.N,/CS*%
X162859000Y-88601000D02*
X162560000Y-88900000D01*
X159118000Y-90881000D02*
X160096000Y-90881000D01*
X163890500Y-88601000D02*
X162859000Y-88601000D01*
X160096000Y-90881000D02*
X161925000Y-92710000D01*
X172313000Y-89942000D02*
X172313000Y-89551000D01*
X170815000Y-91440000D02*
X172313000Y-89942000D01*
%TO.N,/DAT0*%
X159515000Y-85381000D02*
X159118000Y-85381000D01*
X160068000Y-85934000D02*
X159515000Y-85381000D01*
X160068000Y-85934000D02*
X165309000Y-85934000D01*
X165309000Y-85934000D02*
X167976000Y-88601000D01*
X167976000Y-88601000D02*
X172313000Y-88601000D01*
%TO.N,GND*%
X173505000Y-87651000D02*
X174074000Y-88220000D01*
X172313000Y-87651000D02*
X173505000Y-87651000D01*
%TO.N,/SD_MISO*%
X200914000Y-119293268D02*
X200914000Y-110996000D01*
X202014000Y-120393268D02*
X200914000Y-119293268D01*
X184488000Y-94570000D02*
X176964000Y-87046000D01*
X200914000Y-110996000D02*
X190414000Y-100496000D01*
X176964000Y-87046000D02*
X170598000Y-87046000D01*
X170598000Y-87046000D02*
X169993000Y-87651000D01*
D26*
%TO.N,+3.3V*%
X167656000Y-89551000D02*
X169993000Y-89551000D01*
X163595500Y-92068500D02*
X163888000Y-91776000D01*
X165715500Y-88601000D02*
X165715500Y-89948500D01*
X163595500Y-95586000D02*
X163595500Y-92068500D01*
X165715500Y-88601000D02*
X166706000Y-88601000D01*
X160793000Y-88681000D02*
X163888000Y-91776000D01*
X159118000Y-88681000D02*
X160793000Y-88681000D01*
X166706000Y-88601000D02*
X167656000Y-89551000D01*
X176614000Y-117853268D02*
X163595500Y-104834768D01*
X165715500Y-89948500D02*
X163888000Y-91776000D01*
X163595500Y-104834768D02*
X163595500Y-95586000D01*
%TO.N,/Vin*%
X186690000Y-80645000D02*
X186690000Y-117769268D01*
X217030718Y-67106651D02*
X200228349Y-67106651D01*
X200228349Y-67106651D02*
X186690000Y-80645000D01*
X186690000Y-117769268D02*
X186774000Y-117853268D01*
D25*
%TO.N,/SDA{slash}RX_1*%
X185504000Y-119123268D02*
X184234000Y-120393268D01*
X185504000Y-76790000D02*
X185504000Y-119123268D01*
%TO.N,/SCL{slash}TX_1*%
X179154000Y-73744000D02*
X179154000Y-59433268D01*
X179175863Y-73765863D02*
X179154000Y-73744000D01*
%TO.N,/CAN_td*%
X165100000Y-66040000D02*
X163914000Y-64854000D01*
X163914000Y-64854000D02*
X163914000Y-59433268D01*
%TO.N,/SDA{slash}RX_2*%
X178054000Y-81534000D02*
X178054000Y-57993268D01*
X178054000Y-57993268D02*
X179154000Y-56893268D01*
%TO.N,/SCL{slash}TX_2*%
X183056633Y-53975000D02*
X191475732Y-53975000D01*
X180254000Y-86274000D02*
X180254000Y-56777633D01*
X180340000Y-86360000D02*
X180254000Y-86274000D01*
X180254000Y-56777633D02*
X183056633Y-53975000D01*
X191475732Y-53975000D02*
X194394000Y-56893268D01*
%TO.N,/P15*%
X191092000Y-99651151D02*
X190584000Y-99143151D01*
X190584000Y-99143151D02*
X190584000Y-78855893D01*
%TO.N,/P26*%
X182880000Y-56691633D02*
X184326633Y-55245000D01*
X184326633Y-55245000D02*
X190500000Y-55245000D01*
X182880000Y-91440000D02*
X182880000Y-56691633D01*
%TO.N,/P16*%
X191854000Y-100920000D02*
X191854000Y-77298000D01*
%TO.N,/P17*%
X206586000Y-63836000D02*
X197188000Y-63836000D01*
X207094769Y-72472000D02*
X207094000Y-72472769D01*
X195494000Y-58977633D02*
X194849635Y-58333268D01*
X208078651Y-105206651D02*
X217030718Y-105206651D01*
X193294000Y-58333268D02*
X191854000Y-56893268D01*
X197188000Y-63836000D02*
X195494000Y-62142000D01*
X207094000Y-72472769D02*
X207094000Y-104222000D01*
X195494000Y-62142000D02*
X195494000Y-58977633D01*
X194849635Y-58333268D02*
X193294000Y-58333268D01*
X207094000Y-104222000D02*
X208078651Y-105206651D01*
%TO.N,/P24*%
X218395718Y-104031651D02*
X219570718Y-105206651D01*
X203030000Y-63074000D02*
X202014000Y-62058000D01*
X207602000Y-63074000D02*
X203030000Y-63074000D01*
X208110000Y-103714000D02*
X208427651Y-104031651D01*
X208110000Y-72472000D02*
X208110000Y-103714000D01*
X208427651Y-104031651D02*
X218395718Y-104031651D01*
X202014000Y-62058000D02*
X202014000Y-59433268D01*
%TO.N,/P18*%
X205824000Y-64852000D02*
X196680000Y-64852000D01*
X196680000Y-64852000D02*
X194394000Y-62566000D01*
X194394000Y-62566000D02*
X194394000Y-59433268D01*
X206078000Y-104985151D02*
X208364000Y-107271151D01*
X206078000Y-72472000D02*
X206078000Y-104985151D01*
%TO.N,/P19*%
X217030718Y-110286651D02*
X208332651Y-110286651D01*
X208332651Y-110286651D02*
X204554000Y-106508000D01*
X204046000Y-104222000D02*
X204046000Y-72472000D01*
X204554000Y-106508000D02*
X204046000Y-106000000D01*
X204046000Y-106000000D02*
X204046000Y-104222000D01*
%TO.N,/P22*%
X205105000Y-72472000D02*
X205105000Y-105410000D01*
X205105000Y-105410000D02*
X207645000Y-107950000D01*
%TO.N,/P20*%
X203030000Y-72472000D02*
X203030000Y-108032000D01*
X207824651Y-112826651D02*
X206586000Y-111588000D01*
X206586000Y-111588000D02*
X203030000Y-108032000D01*
X217030718Y-112826651D02*
X207824651Y-112826651D01*
%TO.N,/SD_MOSI*%
X201675268Y-123272000D02*
X167724000Y-123272000D01*
X157564000Y-108794000D02*
X157564000Y-90506000D01*
X165184000Y-116414000D02*
X157564000Y-108794000D01*
X165184000Y-120732000D02*
X165184000Y-116414000D01*
X167724000Y-123272000D02*
X165184000Y-120732000D01*
X157564000Y-90506000D02*
X158289000Y-89781000D01*
X158289000Y-89781000D02*
X159118000Y-89781000D01*
X204554000Y-120393268D02*
X201675268Y-123272000D01*
%TO.N,/SD_SCK*%
X176868000Y-71710000D02*
X177354500Y-71710000D01*
X163660000Y-84918000D02*
X176868000Y-71710000D01*
X160989000Y-87581000D02*
X159118000Y-87581000D01*
%TD*%
%TA.AperFunction,Conductor*%
%TO.N,GND*%
G36*
X181234507Y-120603112D02*
G01*
X181312239Y-120724066D01*
X181420900Y-120818220D01*
X181551685Y-120877948D01*
X181561466Y-120879354D01*
X181004426Y-121436392D01*
X181066611Y-121479934D01*
X181066613Y-121479935D01*
X181264840Y-121572369D01*
X181264849Y-121572373D01*
X181476105Y-121628978D01*
X181476115Y-121628980D01*
X181693999Y-121648043D01*
X181694001Y-121648043D01*
X181911884Y-121628980D01*
X181911894Y-121628978D01*
X182123150Y-121572373D01*
X182123159Y-121572369D01*
X182321387Y-121479934D01*
X182383572Y-121436392D01*
X181826534Y-120879354D01*
X181836315Y-120877948D01*
X181967100Y-120818220D01*
X182075761Y-120724066D01*
X182153493Y-120603112D01*
X182177076Y-120522792D01*
X182737124Y-121082840D01*
X182780667Y-121020654D01*
X182780668Y-121020652D01*
X182851341Y-120869093D01*
X182897513Y-120816653D01*
X182964706Y-120797501D01*
X183031587Y-120817716D01*
X183076105Y-120869092D01*
X183146897Y-121020906D01*
X183171998Y-121056754D01*
X183272402Y-121200145D01*
X183427123Y-121354866D01*
X183606361Y-121480370D01*
X183804670Y-121572843D01*
X184016023Y-121629475D01*
X184198926Y-121645476D01*
X184233998Y-121648545D01*
X184234000Y-121648545D01*
X184234002Y-121648545D01*
X184262254Y-121646073D01*
X184451977Y-121629475D01*
X184663330Y-121572843D01*
X184861639Y-121480370D01*
X185040877Y-121354866D01*
X185195598Y-121200145D01*
X185321102Y-121020907D01*
X185391618Y-120869682D01*
X185437790Y-120817245D01*
X185504984Y-120798093D01*
X185571865Y-120818309D01*
X185616381Y-120869682D01*
X185686898Y-121020907D01*
X185812402Y-121200145D01*
X185967123Y-121354866D01*
X186146361Y-121480370D01*
X186344670Y-121572843D01*
X186556023Y-121629475D01*
X186738926Y-121645476D01*
X186773998Y-121648545D01*
X186774000Y-121648545D01*
X186774002Y-121648545D01*
X186802254Y-121646073D01*
X186991977Y-121629475D01*
X187203330Y-121572843D01*
X187401639Y-121480370D01*
X187580877Y-121354866D01*
X187735598Y-121200145D01*
X187861102Y-121020907D01*
X187931618Y-120869682D01*
X187977790Y-120817245D01*
X188044984Y-120798093D01*
X188111865Y-120818309D01*
X188156381Y-120869682D01*
X188226898Y-121020907D01*
X188352402Y-121200145D01*
X188507123Y-121354866D01*
X188686361Y-121480370D01*
X188884670Y-121572843D01*
X189096023Y-121629475D01*
X189278926Y-121645476D01*
X189313998Y-121648545D01*
X189314000Y-121648545D01*
X189314002Y-121648545D01*
X189342254Y-121646073D01*
X189531977Y-121629475D01*
X189743330Y-121572843D01*
X189941639Y-121480370D01*
X190120877Y-121354866D01*
X190275598Y-121200145D01*
X190401102Y-121020907D01*
X190471618Y-120869682D01*
X190517790Y-120817245D01*
X190584984Y-120798093D01*
X190651865Y-120818309D01*
X190696381Y-120869682D01*
X190766898Y-121020907D01*
X190892402Y-121200145D01*
X191047123Y-121354866D01*
X191226361Y-121480370D01*
X191424670Y-121572843D01*
X191636023Y-121629475D01*
X191818926Y-121645476D01*
X191853998Y-121648545D01*
X191854000Y-121648545D01*
X191854002Y-121648545D01*
X191882254Y-121646073D01*
X192071977Y-121629475D01*
X192283330Y-121572843D01*
X192481639Y-121480370D01*
X192660877Y-121354866D01*
X192815598Y-121200145D01*
X192941102Y-121020907D01*
X193011618Y-120869682D01*
X193057790Y-120817245D01*
X193124984Y-120798093D01*
X193191865Y-120818309D01*
X193236381Y-120869682D01*
X193306898Y-121020907D01*
X193432402Y-121200145D01*
X193587123Y-121354866D01*
X193766361Y-121480370D01*
X193964670Y-121572843D01*
X194176023Y-121629475D01*
X194358926Y-121645476D01*
X194393998Y-121648545D01*
X194394000Y-121648545D01*
X194394002Y-121648545D01*
X194422254Y-121646073D01*
X194611977Y-121629475D01*
X194823330Y-121572843D01*
X195021639Y-121480370D01*
X195200877Y-121354866D01*
X195355598Y-121200145D01*
X195481102Y-121020907D01*
X195551618Y-120869682D01*
X195597790Y-120817245D01*
X195664984Y-120798093D01*
X195731865Y-120818309D01*
X195776381Y-120869682D01*
X195846898Y-121020907D01*
X195972402Y-121200145D01*
X196127123Y-121354866D01*
X196306361Y-121480370D01*
X196504670Y-121572843D01*
X196716023Y-121629475D01*
X196898926Y-121645476D01*
X196933998Y-121648545D01*
X196934000Y-121648545D01*
X196934002Y-121648545D01*
X196962254Y-121646073D01*
X197151977Y-121629475D01*
X197363330Y-121572843D01*
X197561639Y-121480370D01*
X197740877Y-121354866D01*
X197895598Y-121200145D01*
X198021102Y-121020907D01*
X198091618Y-120869682D01*
X198137790Y-120817245D01*
X198204984Y-120798093D01*
X198271865Y-120818309D01*
X198316381Y-120869682D01*
X198386898Y-121020907D01*
X198512402Y-121200145D01*
X198667123Y-121354866D01*
X198846361Y-121480370D01*
X199044670Y-121572843D01*
X199256023Y-121629475D01*
X199438926Y-121645476D01*
X199473998Y-121648545D01*
X199474000Y-121648545D01*
X199474002Y-121648545D01*
X199502254Y-121646073D01*
X199691977Y-121629475D01*
X199903330Y-121572843D01*
X200101639Y-121480370D01*
X200280877Y-121354866D01*
X200435598Y-121200145D01*
X200561102Y-121020907D01*
X200631618Y-120869682D01*
X200677790Y-120817245D01*
X200744984Y-120798093D01*
X200811865Y-120818309D01*
X200856381Y-120869682D01*
X200926898Y-121020907D01*
X201052402Y-121200145D01*
X201207123Y-121354866D01*
X201386361Y-121480370D01*
X201584670Y-121572843D01*
X201796023Y-121629475D01*
X201978926Y-121645476D01*
X202013998Y-121648545D01*
X202014000Y-121648545D01*
X202014001Y-121648545D01*
X202022954Y-121647761D01*
X202074359Y-121643264D01*
X202142858Y-121657030D01*
X202193041Y-121705645D01*
X202208975Y-121773674D01*
X202185600Y-121839517D01*
X202172847Y-121854473D01*
X201442141Y-122585181D01*
X201380818Y-122618666D01*
X201354460Y-122621500D01*
X168044808Y-122621500D01*
X167977769Y-122601815D01*
X167957127Y-122585181D01*
X167050465Y-121678519D01*
X167016980Y-121617196D01*
X167021964Y-121547504D01*
X167063836Y-121491571D01*
X167077232Y-121483558D01*
X167076953Y-121483075D01*
X167081628Y-121480374D01*
X167081639Y-121480370D01*
X167260877Y-121354866D01*
X167415598Y-121200145D01*
X167541102Y-121020907D01*
X167611618Y-120869682D01*
X167657790Y-120817245D01*
X167724984Y-120798093D01*
X167791865Y-120818309D01*
X167836381Y-120869682D01*
X167906898Y-121020907D01*
X168032402Y-121200145D01*
X168187123Y-121354866D01*
X168366361Y-121480370D01*
X168564670Y-121572843D01*
X168776023Y-121629475D01*
X168958926Y-121645476D01*
X168993998Y-121648545D01*
X168994000Y-121648545D01*
X168994002Y-121648545D01*
X169022254Y-121646073D01*
X169211977Y-121629475D01*
X169423330Y-121572843D01*
X169621639Y-121480370D01*
X169800877Y-121354866D01*
X169955598Y-121200145D01*
X170081102Y-121020907D01*
X170151618Y-120869682D01*
X170197790Y-120817245D01*
X170264984Y-120798093D01*
X170331865Y-120818309D01*
X170376381Y-120869682D01*
X170446898Y-121020907D01*
X170572402Y-121200145D01*
X170727123Y-121354866D01*
X170906361Y-121480370D01*
X171104670Y-121572843D01*
X171316023Y-121629475D01*
X171498926Y-121645476D01*
X171533998Y-121648545D01*
X171534000Y-121648545D01*
X171534002Y-121648545D01*
X171562254Y-121646073D01*
X171751977Y-121629475D01*
X171963330Y-121572843D01*
X172161639Y-121480370D01*
X172340877Y-121354866D01*
X172495598Y-121200145D01*
X172621102Y-121020907D01*
X172691618Y-120869682D01*
X172737790Y-120817245D01*
X172804984Y-120798093D01*
X172871865Y-120818309D01*
X172916381Y-120869682D01*
X172986898Y-121020907D01*
X173112402Y-121200145D01*
X173267123Y-121354866D01*
X173446361Y-121480370D01*
X173644670Y-121572843D01*
X173856023Y-121629475D01*
X174038926Y-121645476D01*
X174073998Y-121648545D01*
X174074000Y-121648545D01*
X174074002Y-121648545D01*
X174102254Y-121646073D01*
X174291977Y-121629475D01*
X174503330Y-121572843D01*
X174701639Y-121480370D01*
X174880877Y-121354866D01*
X175035598Y-121200145D01*
X175161102Y-121020907D01*
X175231618Y-120869682D01*
X175277790Y-120817245D01*
X175344984Y-120798093D01*
X175411865Y-120818309D01*
X175456381Y-120869682D01*
X175526898Y-121020907D01*
X175652402Y-121200145D01*
X175807123Y-121354866D01*
X175986361Y-121480370D01*
X176184670Y-121572843D01*
X176396023Y-121629475D01*
X176578926Y-121645476D01*
X176613998Y-121648545D01*
X176614000Y-121648545D01*
X176614002Y-121648545D01*
X176642254Y-121646073D01*
X176831977Y-121629475D01*
X177043330Y-121572843D01*
X177241639Y-121480370D01*
X177420877Y-121354866D01*
X177575598Y-121200145D01*
X177701102Y-121020907D01*
X177771618Y-120869682D01*
X177817790Y-120817245D01*
X177884984Y-120798093D01*
X177951865Y-120818309D01*
X177996381Y-120869682D01*
X178066898Y-121020907D01*
X178192402Y-121200145D01*
X178347123Y-121354866D01*
X178526361Y-121480370D01*
X178724670Y-121572843D01*
X178936023Y-121629475D01*
X179118926Y-121645476D01*
X179153998Y-121648545D01*
X179154000Y-121648545D01*
X179154002Y-121648545D01*
X179182254Y-121646073D01*
X179371977Y-121629475D01*
X179583330Y-121572843D01*
X179781639Y-121480370D01*
X179960877Y-121354866D01*
X180115598Y-121200145D01*
X180241102Y-121020907D01*
X180311895Y-120869090D01*
X180358066Y-120816653D01*
X180425260Y-120797501D01*
X180492141Y-120817717D01*
X180536658Y-120869092D01*
X180607335Y-121020659D01*
X180650873Y-121082839D01*
X180650875Y-121082840D01*
X181210923Y-120522791D01*
X181234507Y-120603112D01*
G37*
%TD.AperFunction*%
%TA.AperFunction,Conductor*%
G36*
X181234507Y-118063112D02*
G01*
X181312239Y-118184066D01*
X181420900Y-118278220D01*
X181551685Y-118337948D01*
X181561466Y-118339354D01*
X181004426Y-118896392D01*
X181066611Y-118939934D01*
X181066613Y-118939935D01*
X181218767Y-119010886D01*
X181271206Y-119057058D01*
X181290358Y-119124252D01*
X181270142Y-119191133D01*
X181218767Y-119235650D01*
X181066614Y-119306600D01*
X181066612Y-119306601D01*
X181004428Y-119350143D01*
X181004427Y-119350143D01*
X181561466Y-119907181D01*
X181551685Y-119908588D01*
X181420900Y-119968316D01*
X181312239Y-120062470D01*
X181234507Y-120183424D01*
X181210923Y-120263743D01*
X180650875Y-119703695D01*
X180650875Y-119703696D01*
X180607333Y-119765880D01*
X180607332Y-119765882D01*
X180536658Y-119917443D01*
X180490485Y-119969882D01*
X180423292Y-119989034D01*
X180356411Y-119968818D01*
X180311894Y-119917443D01*
X180272515Y-119832995D01*
X180241102Y-119765630D01*
X180241099Y-119765626D01*
X180241099Y-119765625D01*
X180115599Y-119586392D01*
X180073179Y-119543972D01*
X179960877Y-119431670D01*
X179781639Y-119306166D01*
X179630414Y-119235649D01*
X179577977Y-119189478D01*
X179558825Y-119122284D01*
X179579041Y-119055403D01*
X179630414Y-119010886D01*
X179781639Y-118940370D01*
X179960877Y-118814866D01*
X180115598Y-118660145D01*
X180241102Y-118480907D01*
X180311895Y-118329090D01*
X180358066Y-118276653D01*
X180425260Y-118257501D01*
X180492141Y-118277717D01*
X180536658Y-118329092D01*
X180607335Y-118480659D01*
X180650873Y-118542839D01*
X180650875Y-118542840D01*
X181210923Y-117982791D01*
X181234507Y-118063112D01*
G37*
%TD.AperFunction*%
%TA.AperFunction,Conductor*%
G36*
X183774507Y-118063112D02*
G01*
X183852239Y-118184066D01*
X183960900Y-118278220D01*
X184091685Y-118337948D01*
X184101464Y-118339354D01*
X183544426Y-118896392D01*
X183606611Y-118939934D01*
X183606617Y-118939937D01*
X183758174Y-119010609D01*
X183810614Y-119056781D01*
X183829766Y-119123974D01*
X183809551Y-119190856D01*
X183758176Y-119235373D01*
X183670542Y-119276238D01*
X183612142Y-119303471D01*
X183606358Y-119306168D01*
X183606357Y-119306168D01*
X183427121Y-119431670D01*
X183272402Y-119586389D01*
X183146900Y-119765625D01*
X183146900Y-119765626D01*
X183146898Y-119765629D01*
X183146898Y-119765630D01*
X183146779Y-119765885D01*
X183076105Y-119917444D01*
X183029932Y-119969883D01*
X182962738Y-119989034D01*
X182895857Y-119968818D01*
X182851341Y-119917442D01*
X182780669Y-119765885D01*
X182737123Y-119703696D01*
X182177076Y-120263743D01*
X182153493Y-120183424D01*
X182075761Y-120062470D01*
X181967100Y-119968316D01*
X181836315Y-119908588D01*
X181826534Y-119907181D01*
X182383572Y-119350143D01*
X182383571Y-119350141D01*
X182321391Y-119306602D01*
X182169232Y-119235649D01*
X182116793Y-119189476D01*
X182097641Y-119122283D01*
X182117857Y-119055402D01*
X182169233Y-119010885D01*
X182321384Y-118939936D01*
X182321386Y-118939935D01*
X182383572Y-118896392D01*
X181826534Y-118339354D01*
X181836315Y-118337948D01*
X181967100Y-118278220D01*
X182075761Y-118184066D01*
X182153493Y-118063112D01*
X182177076Y-117982792D01*
X182737124Y-118542840D01*
X182780666Y-118480655D01*
X182851618Y-118328500D01*
X182897790Y-118276061D01*
X182964984Y-118256909D01*
X183031865Y-118277125D01*
X183076382Y-118328500D01*
X183147335Y-118480659D01*
X183190873Y-118542839D01*
X183190875Y-118542840D01*
X183750923Y-117982791D01*
X183774507Y-118063112D01*
G37*
%TD.AperFunction*%
%TA.AperFunction,Conductor*%
G36*
X167497124Y-118542840D02*
G01*
X167540667Y-118480654D01*
X167540668Y-118480652D01*
X167611341Y-118329093D01*
X167657513Y-118276653D01*
X167724706Y-118257501D01*
X167791587Y-118277716D01*
X167836105Y-118329092D01*
X167906897Y-118480906D01*
X167906898Y-118480907D01*
X168032402Y-118660145D01*
X168187123Y-118814866D01*
X168361061Y-118936659D01*
X168366361Y-118940370D01*
X168517583Y-119010886D01*
X168570022Y-119057058D01*
X168589174Y-119124252D01*
X168568958Y-119191133D01*
X168517583Y-119235650D01*
X168366361Y-119306166D01*
X168366357Y-119306168D01*
X168187121Y-119431670D01*
X168032402Y-119586389D01*
X167906900Y-119765625D01*
X167906898Y-119765629D01*
X167836382Y-119916851D01*
X167790209Y-119969290D01*
X167723016Y-119988442D01*
X167656135Y-119968226D01*
X167611618Y-119916851D01*
X167572515Y-119832995D01*
X167541102Y-119765630D01*
X167541099Y-119765626D01*
X167541099Y-119765625D01*
X167415599Y-119586392D01*
X167373179Y-119543972D01*
X167260877Y-119431670D01*
X167099881Y-119318939D01*
X167081638Y-119306165D01*
X166929824Y-119235373D01*
X166877385Y-119189200D01*
X166858233Y-119122007D01*
X166878449Y-119055126D01*
X166929825Y-119010609D01*
X167081384Y-118939936D01*
X167081386Y-118939935D01*
X167143572Y-118896392D01*
X166586534Y-118339354D01*
X166596315Y-118337948D01*
X166727100Y-118278220D01*
X166835761Y-118184066D01*
X166913493Y-118063112D01*
X166937076Y-117982792D01*
X167497124Y-118542840D01*
G37*
%TD.AperFunction*%
%TA.AperFunction,Conductor*%
G36*
X160423701Y-92129094D02*
G01*
X160430180Y-92135126D01*
X161046371Y-92751317D01*
X161079856Y-92812640D01*
X161082010Y-92826031D01*
X161088503Y-92887803D01*
X161088504Y-92887805D01*
X161088504Y-92887807D01*
X161143747Y-93057829D01*
X161143750Y-93057835D01*
X161233141Y-93212665D01*
X161274812Y-93258946D01*
X161352764Y-93345521D01*
X161352767Y-93345523D01*
X161352770Y-93345526D01*
X161497407Y-93450612D01*
X161660733Y-93523329D01*
X161835609Y-93560500D01*
X161835610Y-93560500D01*
X162014389Y-93560500D01*
X162014391Y-93560500D01*
X162189267Y-93523329D01*
X162352593Y-93450612D01*
X162497230Y-93345526D01*
X162616859Y-93212665D01*
X162616860Y-93212661D01*
X162620681Y-93207405D01*
X162624035Y-93209842D01*
X162657678Y-93173674D01*
X162725370Y-93156364D01*
X162791674Y-93178399D01*
X162835540Y-93232783D01*
X162845000Y-93280287D01*
X162845000Y-93689634D01*
X162825315Y-93756673D01*
X162772511Y-93802428D01*
X162733602Y-93812992D01*
X162655202Y-93821001D01*
X162655200Y-93821001D01*
X162488668Y-93876185D01*
X162488663Y-93876187D01*
X162339342Y-93968289D01*
X162215289Y-94092342D01*
X162123187Y-94241663D01*
X162123185Y-94241668D01*
X162123115Y-94241880D01*
X162068001Y-94408203D01*
X162068001Y-94408204D01*
X162068000Y-94408204D01*
X162057500Y-94510983D01*
X162057500Y-96661001D01*
X162057501Y-96661018D01*
X162068000Y-96763796D01*
X162068001Y-96763799D01*
X162071081Y-96773093D01*
X162123186Y-96930334D01*
X162215288Y-97079656D01*
X162339344Y-97203712D01*
X162488666Y-97295814D01*
X162655203Y-97350999D01*
X162733603Y-97359008D01*
X162798294Y-97385404D01*
X162838445Y-97442584D01*
X162845000Y-97482366D01*
X162845000Y-104771062D01*
X162843691Y-104789031D01*
X162840210Y-104812793D01*
X162844764Y-104864832D01*
X162845000Y-104870238D01*
X162845000Y-104878480D01*
X162848702Y-104910159D01*
X162848886Y-104911953D01*
X162855500Y-104987560D01*
X162856961Y-104994635D01*
X162856903Y-104994646D01*
X162858534Y-105002005D01*
X162858592Y-105001992D01*
X162860257Y-105009017D01*
X162886208Y-105080319D01*
X162886799Y-105082021D01*
X162910682Y-105154094D01*
X162913736Y-105160642D01*
X162913682Y-105160666D01*
X162916970Y-105167456D01*
X162917021Y-105167431D01*
X162920261Y-105173881D01*
X162920262Y-105173882D01*
X162920263Y-105173885D01*
X162961994Y-105237335D01*
X162962943Y-105238826D01*
X163002789Y-105303425D01*
X163007266Y-105309087D01*
X163007219Y-105309124D01*
X163011982Y-105314970D01*
X163012028Y-105314932D01*
X163016673Y-105320467D01*
X163071864Y-105372537D01*
X163073158Y-105373794D01*
X168689391Y-110990027D01*
X174091354Y-116391989D01*
X174124839Y-116453312D01*
X174119855Y-116523004D01*
X174077983Y-116578937D01*
X174014480Y-116603198D01*
X173907040Y-116612597D01*
X173856023Y-116617061D01*
X173856020Y-116617061D01*
X173644677Y-116673690D01*
X173644668Y-116673694D01*
X173446361Y-116766166D01*
X173446357Y-116766168D01*
X173267121Y-116891670D01*
X173112402Y-117046389D01*
X172986900Y-117225625D01*
X172986898Y-117225629D01*
X172916382Y-117376851D01*
X172870209Y-117429290D01*
X172803016Y-117448442D01*
X172736135Y-117428226D01*
X172691618Y-117376851D01*
X172677118Y-117345756D01*
X172621102Y-117225630D01*
X172621099Y-117225626D01*
X172621099Y-117225625D01*
X172495599Y-117046392D01*
X172495596Y-117046389D01*
X172340877Y-116891670D01*
X172175429Y-116775822D01*
X172161638Y-116766165D01*
X172062484Y-116719929D01*
X171963330Y-116673693D01*
X171963326Y-116673692D01*
X171963322Y-116673690D01*
X171751977Y-116617061D01*
X171534002Y-116597991D01*
X171533998Y-116597991D01*
X171388681Y-116610704D01*
X171316023Y-116617061D01*
X171316020Y-116617061D01*
X171104677Y-116673690D01*
X171104668Y-116673694D01*
X170906361Y-116766166D01*
X170906357Y-116766168D01*
X170727121Y-116891670D01*
X170572402Y-117046389D01*
X170446900Y-117225625D01*
X170446898Y-117225629D01*
X170376382Y-117376851D01*
X170330209Y-117429290D01*
X170263016Y-117448442D01*
X170196135Y-117428226D01*
X170151618Y-117376851D01*
X170137118Y-117345756D01*
X170081102Y-117225630D01*
X170081099Y-117225626D01*
X170081099Y-117225625D01*
X169955599Y-117046392D01*
X169955596Y-117046389D01*
X169800877Y-116891670D01*
X169635429Y-116775822D01*
X169621638Y-116766165D01*
X169522484Y-116719929D01*
X169423330Y-116673693D01*
X169423326Y-116673692D01*
X169423322Y-116673690D01*
X169211977Y-116617061D01*
X168994002Y-116597991D01*
X168993998Y-116597991D01*
X168848681Y-116610704D01*
X168776023Y-116617061D01*
X168776020Y-116617061D01*
X168564677Y-116673690D01*
X168564668Y-116673694D01*
X168366361Y-116766166D01*
X168366357Y-116766168D01*
X168187121Y-116891670D01*
X168032402Y-117046389D01*
X167906900Y-117225625D01*
X167906900Y-117225626D01*
X167906898Y-117225629D01*
X167906898Y-117225630D01*
X167906780Y-117225883D01*
X167836105Y-117377444D01*
X167789932Y-117429883D01*
X167722738Y-117449034D01*
X167655857Y-117428818D01*
X167611341Y-117377442D01*
X167540669Y-117225885D01*
X167497123Y-117163696D01*
X166937076Y-117723743D01*
X166913493Y-117643424D01*
X166835761Y-117522470D01*
X166727100Y-117428316D01*
X166596315Y-117368588D01*
X166586533Y-117367181D01*
X167143572Y-116810142D01*
X167143571Y-116810141D01*
X167081391Y-116766603D01*
X166883159Y-116674166D01*
X166883150Y-116674162D01*
X166671894Y-116617557D01*
X166671884Y-116617555D01*
X166454001Y-116598493D01*
X166453999Y-116598493D01*
X166236115Y-116617555D01*
X166236105Y-116617557D01*
X166024849Y-116674162D01*
X166024835Y-116674167D01*
X166010904Y-116680664D01*
X165941827Y-116691156D01*
X165878043Y-116662636D01*
X165839804Y-116604159D01*
X165834500Y-116568282D01*
X165834500Y-116499501D01*
X165836268Y-116483488D01*
X165836026Y-116483466D01*
X165836760Y-116475704D01*
X165834531Y-116404762D01*
X165834500Y-116402814D01*
X165834500Y-116373077D01*
X165834500Y-116373075D01*
X165833579Y-116365788D01*
X165833122Y-116359979D01*
X165831597Y-116311430D01*
X165825676Y-116291052D01*
X165821731Y-116272003D01*
X165819071Y-116250942D01*
X165801186Y-116205772D01*
X165799297Y-116200252D01*
X165785743Y-116153599D01*
X165774941Y-116135335D01*
X165766379Y-116117858D01*
X165765351Y-116115262D01*
X165758568Y-116098129D01*
X165730014Y-116058828D01*
X165726810Y-116053950D01*
X165702082Y-116012137D01*
X165702081Y-116012135D01*
X165687074Y-115997128D01*
X165674435Y-115982330D01*
X165661961Y-115965160D01*
X165624528Y-115934194D01*
X165620206Y-115930260D01*
X158250819Y-108560873D01*
X158217334Y-108499550D01*
X158214500Y-108473192D01*
X158214500Y-94630041D01*
X158234185Y-94563002D01*
X158286989Y-94517247D01*
X158356147Y-94507303D01*
X158381836Y-94513860D01*
X158410622Y-94524597D01*
X158410627Y-94524598D01*
X158470155Y-94530999D01*
X158470172Y-94531000D01*
X158868000Y-94531000D01*
X158868000Y-93781000D01*
X159368000Y-93781000D01*
X159368000Y-94531000D01*
X159765828Y-94531000D01*
X159765844Y-94530999D01*
X159825372Y-94524598D01*
X159825379Y-94524596D01*
X159960086Y-94474354D01*
X159960093Y-94474350D01*
X160075187Y-94388190D01*
X160075190Y-94388187D01*
X160161350Y-94273093D01*
X160161354Y-94273086D01*
X160211596Y-94138379D01*
X160211598Y-94138372D01*
X160217999Y-94078844D01*
X160218000Y-94078827D01*
X160218000Y-93781000D01*
X159368000Y-93781000D01*
X158868000Y-93781000D01*
X158868000Y-93405000D01*
X158887685Y-93337961D01*
X158940489Y-93292206D01*
X158992000Y-93281000D01*
X160218000Y-93281000D01*
X160218000Y-92983172D01*
X160217999Y-92983155D01*
X160211598Y-92923627D01*
X160211596Y-92923620D01*
X160161354Y-92788913D01*
X160161352Y-92788910D01*
X160136512Y-92755728D01*
X160112094Y-92690264D01*
X160126945Y-92621990D01*
X160136505Y-92607114D01*
X160161796Y-92573331D01*
X160212091Y-92438483D01*
X160218500Y-92378873D01*
X160218499Y-92222805D01*
X160238183Y-92155768D01*
X160290987Y-92110013D01*
X160360145Y-92100069D01*
X160423701Y-92129094D01*
G37*
%TD.AperFunction*%
%TA.AperFunction,Conductor*%
G36*
X176710231Y-87716185D02*
G01*
X176730873Y-87732819D01*
X183609371Y-94611317D01*
X183642856Y-94672640D01*
X183645010Y-94686031D01*
X183651503Y-94747803D01*
X183651504Y-94747805D01*
X183651504Y-94747807D01*
X183706747Y-94917829D01*
X183706750Y-94917835D01*
X183796141Y-95072665D01*
X183837812Y-95118946D01*
X183915764Y-95205521D01*
X183915767Y-95205523D01*
X183915770Y-95205526D01*
X184060407Y-95310612D01*
X184223733Y-95383329D01*
X184398609Y-95420500D01*
X184398610Y-95420500D01*
X184577389Y-95420500D01*
X184577391Y-95420500D01*
X184703719Y-95393648D01*
X184773386Y-95398964D01*
X184829120Y-95441101D01*
X184853225Y-95506681D01*
X184853500Y-95514938D01*
X184853500Y-116568282D01*
X184833815Y-116635321D01*
X184781011Y-116681076D01*
X184711853Y-116691020D01*
X184677096Y-116680664D01*
X184663164Y-116674167D01*
X184663150Y-116674162D01*
X184451894Y-116617557D01*
X184451884Y-116617555D01*
X184234001Y-116598493D01*
X184233999Y-116598493D01*
X184016115Y-116617555D01*
X184016105Y-116617557D01*
X183804849Y-116674162D01*
X183804840Y-116674166D01*
X183606614Y-116766600D01*
X183606612Y-116766601D01*
X183544428Y-116810143D01*
X183544427Y-116810143D01*
X184101466Y-117367181D01*
X184091685Y-117368588D01*
X183960900Y-117428316D01*
X183852239Y-117522470D01*
X183774507Y-117643424D01*
X183750923Y-117723743D01*
X183190875Y-117163695D01*
X183190875Y-117163696D01*
X183147333Y-117225880D01*
X183147332Y-117225882D01*
X183076382Y-117378035D01*
X183030209Y-117430474D01*
X182963016Y-117449626D01*
X182896135Y-117429410D01*
X182851618Y-117378035D01*
X182780668Y-117225883D01*
X182737123Y-117163696D01*
X182177076Y-117723743D01*
X182153493Y-117643424D01*
X182075761Y-117522470D01*
X181967100Y-117428316D01*
X181836315Y-117368588D01*
X181826534Y-117367181D01*
X182383572Y-116810143D01*
X182383571Y-116810141D01*
X182321391Y-116766603D01*
X182123159Y-116674166D01*
X182123150Y-116674162D01*
X181911894Y-116617557D01*
X181911884Y-116617555D01*
X181694001Y-116598493D01*
X181693999Y-116598493D01*
X181476115Y-116617555D01*
X181476105Y-116617557D01*
X181264849Y-116674162D01*
X181264840Y-116674166D01*
X181066614Y-116766600D01*
X181066612Y-116766601D01*
X181004428Y-116810143D01*
X181004427Y-116810143D01*
X181561466Y-117367181D01*
X181551685Y-117368588D01*
X181420900Y-117428316D01*
X181312239Y-117522470D01*
X181234507Y-117643424D01*
X181210923Y-117723743D01*
X180650875Y-117163695D01*
X180650875Y-117163696D01*
X180607333Y-117225880D01*
X180607332Y-117225882D01*
X180536658Y-117377443D01*
X180490485Y-117429882D01*
X180423292Y-117449034D01*
X180356411Y-117428818D01*
X180311894Y-117377443D01*
X180300621Y-117353268D01*
X180241102Y-117225630D01*
X180241099Y-117225626D01*
X180241099Y-117225625D01*
X180115599Y-117046392D01*
X180115596Y-117046389D01*
X179960877Y-116891670D01*
X179795429Y-116775822D01*
X179781638Y-116766165D01*
X179682484Y-116719929D01*
X179583330Y-116673693D01*
X179583326Y-116673692D01*
X179583322Y-116673690D01*
X179371977Y-116617061D01*
X179154002Y-116597991D01*
X179153998Y-116597991D01*
X179008682Y-116610704D01*
X178936023Y-116617061D01*
X178936020Y-116617061D01*
X178724677Y-116673690D01*
X178724668Y-116673694D01*
X178526361Y-116766166D01*
X178526357Y-116766168D01*
X178347121Y-116891670D01*
X178192402Y-117046389D01*
X178066900Y-117225625D01*
X178066900Y-117225626D01*
X178066898Y-117225629D01*
X178066898Y-117225630D01*
X178066780Y-117225883D01*
X177996381Y-117376852D01*
X177950208Y-117429291D01*
X177883014Y-117448442D01*
X177816133Y-117428226D01*
X177771618Y-117376852D01*
X177701102Y-117225630D01*
X177701099Y-117225626D01*
X177701099Y-117225625D01*
X177575599Y-117046392D01*
X177575596Y-117046389D01*
X177420877Y-116891670D01*
X177255429Y-116775822D01*
X177241638Y-116766165D01*
X177142484Y-116719929D01*
X177043330Y-116673693D01*
X177043326Y-116673692D01*
X177043322Y-116673690D01*
X176831977Y-116617061D01*
X176614002Y-116597991D01*
X176613997Y-116597991D01*
X176493290Y-116608550D01*
X176424790Y-116594783D01*
X176394803Y-116572703D01*
X164382319Y-104560219D01*
X164348834Y-104498896D01*
X164346000Y-104472538D01*
X164346000Y-97482365D01*
X164365685Y-97415326D01*
X164418489Y-97369571D01*
X164457396Y-97359007D01*
X164535797Y-97350999D01*
X164702334Y-97295814D01*
X164851656Y-97203712D01*
X164975712Y-97079656D01*
X165067814Y-96930334D01*
X165122999Y-96763797D01*
X165133500Y-96661009D01*
X165133499Y-95836000D01*
X168283001Y-95836000D01*
X168283001Y-96660986D01*
X168293494Y-96763697D01*
X168348641Y-96930119D01*
X168348643Y-96930124D01*
X168440684Y-97079345D01*
X168564654Y-97203315D01*
X168713875Y-97295356D01*
X168713880Y-97295358D01*
X168880302Y-97350505D01*
X168880309Y-97350506D01*
X168983019Y-97360999D01*
X169570499Y-97360999D01*
X169570500Y-97360998D01*
X169570500Y-95836000D01*
X170070500Y-95836000D01*
X170070500Y-97360999D01*
X170657972Y-97360999D01*
X170657986Y-97360998D01*
X170760697Y-97350505D01*
X170927119Y-97295358D01*
X170927124Y-97295356D01*
X171076345Y-97203315D01*
X171200315Y-97079345D01*
X171292356Y-96930124D01*
X171292358Y-96930119D01*
X171347505Y-96763697D01*
X171347506Y-96763690D01*
X171357999Y-96660986D01*
X171358000Y-96660973D01*
X171358000Y-95836000D01*
X170070500Y-95836000D01*
X169570500Y-95836000D01*
X168283001Y-95836000D01*
X165133499Y-95836000D01*
X165133499Y-95336000D01*
X168283000Y-95336000D01*
X169570500Y-95336000D01*
X169570500Y-93811000D01*
X170070500Y-93811000D01*
X170070500Y-95336000D01*
X171357999Y-95336000D01*
X171357999Y-94511028D01*
X171357998Y-94511013D01*
X171347505Y-94408302D01*
X171292358Y-94241880D01*
X171292356Y-94241875D01*
X171200315Y-94092654D01*
X171076345Y-93968684D01*
X170927124Y-93876643D01*
X170927119Y-93876641D01*
X170760697Y-93821494D01*
X170760690Y-93821493D01*
X170657986Y-93811000D01*
X170070500Y-93811000D01*
X169570500Y-93811000D01*
X168983028Y-93811000D01*
X168983012Y-93811001D01*
X168880302Y-93821494D01*
X168713880Y-93876641D01*
X168713875Y-93876643D01*
X168564654Y-93968684D01*
X168440684Y-94092654D01*
X168348643Y-94241875D01*
X168348641Y-94241880D01*
X168293494Y-94408302D01*
X168293493Y-94408309D01*
X168283000Y-94511013D01*
X168283000Y-95336000D01*
X165133499Y-95336000D01*
X165133499Y-94510992D01*
X165122999Y-94408203D01*
X165067814Y-94241666D01*
X164975712Y-94092344D01*
X164851656Y-93968288D01*
X164731781Y-93894349D01*
X164702336Y-93876187D01*
X164702331Y-93876185D01*
X164700862Y-93875698D01*
X164535797Y-93821001D01*
X164535794Y-93821000D01*
X164457397Y-93812991D01*
X164392705Y-93786594D01*
X164352554Y-93729413D01*
X164346000Y-93689633D01*
X164346000Y-93280287D01*
X164346000Y-92802293D01*
X164365683Y-92735258D01*
X164417605Y-92689910D01*
X164421684Y-92688007D01*
X164421697Y-92688003D01*
X164566044Y-92598968D01*
X164575668Y-92589343D01*
X164636987Y-92555856D01*
X164706679Y-92560835D01*
X164751034Y-92589339D01*
X164760267Y-92598572D01*
X164760271Y-92598575D01*
X164904507Y-92687542D01*
X164904518Y-92687547D01*
X165065393Y-92740855D01*
X165164683Y-92750999D01*
X165188000Y-92750998D01*
X165687999Y-92750998D01*
X165688000Y-92750999D01*
X165711308Y-92750999D01*
X165711322Y-92750998D01*
X165810607Y-92740855D01*
X165971481Y-92687547D01*
X165971492Y-92687542D01*
X166115728Y-92598575D01*
X166115732Y-92598572D01*
X166235572Y-92478732D01*
X166235575Y-92478728D01*
X166324542Y-92334492D01*
X166324547Y-92334481D01*
X166377855Y-92173606D01*
X166387999Y-92074322D01*
X166388000Y-92074309D01*
X166388000Y-92026000D01*
X165688000Y-92026000D01*
X165687999Y-92750998D01*
X165188000Y-92750998D01*
X165188000Y-91650000D01*
X165207685Y-91582961D01*
X165260489Y-91537206D01*
X165312000Y-91526000D01*
X166387999Y-91526000D01*
X166387999Y-91477692D01*
X166387998Y-91477677D01*
X166377855Y-91378392D01*
X166324547Y-91217518D01*
X166324542Y-91217507D01*
X166235575Y-91073271D01*
X166235572Y-91073267D01*
X166115731Y-90953426D01*
X166036569Y-90904598D01*
X165989845Y-90852650D01*
X165978624Y-90783687D01*
X166006467Y-90719605D01*
X166013973Y-90711392D01*
X166201138Y-90524227D01*
X166214767Y-90512450D01*
X166234030Y-90498110D01*
X166234032Y-90498106D01*
X166234034Y-90498106D01*
X166258528Y-90468914D01*
X166267613Y-90458085D01*
X166271267Y-90454099D01*
X166273188Y-90452178D01*
X166277090Y-90448277D01*
X166296876Y-90423250D01*
X166297994Y-90421878D01*
X166346802Y-90363714D01*
X166346803Y-90363711D01*
X166350772Y-90357679D01*
X166350823Y-90357712D01*
X166354869Y-90351360D01*
X166354817Y-90351328D01*
X166358609Y-90345179D01*
X166358611Y-90345177D01*
X166390695Y-90276369D01*
X166391458Y-90274792D01*
X166425540Y-90206933D01*
X166425543Y-90206917D01*
X166428010Y-90200144D01*
X166428068Y-90200165D01*
X166430543Y-90193046D01*
X166430485Y-90193027D01*
X166432755Y-90186177D01*
X166435633Y-90172238D01*
X166448108Y-90111819D01*
X166448490Y-90110096D01*
X166449280Y-90106766D01*
X166466000Y-90036221D01*
X166466000Y-90036220D01*
X166466001Y-90036216D01*
X166466839Y-90029048D01*
X166466897Y-90029054D01*
X166467664Y-90021556D01*
X166467604Y-90021551D01*
X166468233Y-90014360D01*
X166466026Y-89938488D01*
X166466000Y-89936685D01*
X166466000Y-89721730D01*
X166485685Y-89654691D01*
X166538489Y-89608936D01*
X166607647Y-89598992D01*
X166671203Y-89628017D01*
X166677669Y-89634038D01*
X166826856Y-89783224D01*
X167080270Y-90036638D01*
X167092051Y-90050270D01*
X167106388Y-90069528D01*
X167106389Y-90069529D01*
X167106390Y-90069530D01*
X167115472Y-90077150D01*
X167146409Y-90103111D01*
X167150397Y-90106766D01*
X167156217Y-90112586D01*
X167156222Y-90112590D01*
X167156223Y-90112591D01*
X167181263Y-90132390D01*
X167182644Y-90133515D01*
X167240786Y-90182302D01*
X167240787Y-90182302D01*
X167240789Y-90182304D01*
X167246818Y-90186270D01*
X167246785Y-90186319D01*
X167253147Y-90190372D01*
X167253179Y-90190321D01*
X167259319Y-90194108D01*
X167259323Y-90194111D01*
X167272261Y-90200144D01*
X167328137Y-90226200D01*
X167329760Y-90226986D01*
X167397562Y-90261038D01*
X167404357Y-90263511D01*
X167404336Y-90263567D01*
X167411457Y-90266043D01*
X167411476Y-90265986D01*
X167418319Y-90268253D01*
X167418327Y-90268257D01*
X167492748Y-90283623D01*
X167494371Y-90283983D01*
X167568279Y-90301500D01*
X167568280Y-90301500D01*
X167568284Y-90301501D01*
X167575453Y-90302339D01*
X167575446Y-90302398D01*
X167582944Y-90303164D01*
X167582950Y-90303105D01*
X167590139Y-90303734D01*
X167590143Y-90303733D01*
X167590144Y-90303734D01*
X167618229Y-90302916D01*
X167666032Y-90301526D01*
X167667835Y-90301500D01*
X169545300Y-90301500D01*
X169551932Y-90301856D01*
X169554637Y-90302146D01*
X169595127Y-90306500D01*
X170390872Y-90306499D01*
X170450483Y-90300091D01*
X170585331Y-90249796D01*
X170700546Y-90163546D01*
X170786796Y-90048331D01*
X170837091Y-89913483D01*
X170843500Y-89853873D01*
X170843499Y-89375499D01*
X170863183Y-89308461D01*
X170915987Y-89262706D01*
X170967499Y-89251500D01*
X171338500Y-89251500D01*
X171405539Y-89271185D01*
X171451294Y-89323989D01*
X171462500Y-89375500D01*
X171462500Y-89821190D01*
X171442815Y-89888229D01*
X171426181Y-89908871D01*
X170776909Y-90558144D01*
X170715586Y-90591629D01*
X170715009Y-90591753D01*
X170550733Y-90626670D01*
X170550728Y-90626672D01*
X170387408Y-90699387D01*
X170242768Y-90804475D01*
X170123140Y-90937336D01*
X170033750Y-91092164D01*
X170033747Y-91092170D01*
X169978504Y-91262192D01*
X169978503Y-91262194D01*
X169959815Y-91440000D01*
X169978503Y-91617805D01*
X169978504Y-91617807D01*
X170033747Y-91787829D01*
X170033750Y-91787835D01*
X170123141Y-91942665D01*
X170157459Y-91980779D01*
X170242764Y-92075521D01*
X170242767Y-92075523D01*
X170242770Y-92075526D01*
X170387407Y-92180612D01*
X170550733Y-92253329D01*
X170725609Y-92290500D01*
X170725610Y-92290500D01*
X170904389Y-92290500D01*
X170904391Y-92290500D01*
X171079267Y-92253329D01*
X171242593Y-92180612D01*
X171387230Y-92075526D01*
X171388176Y-92074476D01*
X171413148Y-92046741D01*
X171506859Y-91942665D01*
X171596250Y-91787835D01*
X171651497Y-91617803D01*
X171657988Y-91556036D01*
X171684571Y-91491423D01*
X171693619Y-91481325D01*
X172712513Y-90462431D01*
X172725079Y-90452365D01*
X172724925Y-90452178D01*
X172730933Y-90447205D01*
X172730940Y-90447202D01*
X172779532Y-90395456D01*
X172780856Y-90394088D01*
X172801911Y-90373035D01*
X172806401Y-90367245D01*
X172810183Y-90362815D01*
X172843448Y-90327393D01*
X172853674Y-90308790D01*
X172864346Y-90292542D01*
X172876413Y-90276986D01*
X172900074Y-90253730D01*
X172905327Y-90249797D01*
X172905331Y-90249796D01*
X173020546Y-90163546D01*
X173106796Y-90048331D01*
X173157091Y-89913483D01*
X173163500Y-89853873D01*
X173163499Y-89248128D01*
X173157091Y-89188517D01*
X173131285Y-89119331D01*
X173126302Y-89049642D01*
X173131287Y-89032665D01*
X173157091Y-88963483D01*
X173163500Y-88903873D01*
X173163499Y-88298128D01*
X173157091Y-88238517D01*
X173131019Y-88168616D01*
X173126036Y-88098927D01*
X173131021Y-88081950D01*
X173156597Y-88013379D01*
X173156597Y-88013377D01*
X173162999Y-87953844D01*
X173163000Y-87953827D01*
X173163000Y-87820500D01*
X173182685Y-87753461D01*
X173235489Y-87707706D01*
X173287000Y-87696500D01*
X176643192Y-87696500D01*
X176710231Y-87716185D01*
G37*
%TD.AperFunction*%
%TA.AperFunction,Conductor*%
G36*
X167791865Y-57318309D02*
G01*
X167836381Y-57369682D01*
X167906898Y-57520907D01*
X168032402Y-57700145D01*
X168187123Y-57854866D01*
X168355369Y-57972673D01*
X168366361Y-57980370D01*
X168518175Y-58051162D01*
X168570614Y-58097334D01*
X168589766Y-58164528D01*
X168569550Y-58231409D01*
X168518175Y-58275926D01*
X168366614Y-58346600D01*
X168366612Y-58346601D01*
X168304428Y-58390143D01*
X168304427Y-58390143D01*
X168861466Y-58947181D01*
X168851685Y-58948588D01*
X168720900Y-59008316D01*
X168612239Y-59102470D01*
X168534507Y-59223424D01*
X168510923Y-59303743D01*
X167950875Y-58743695D01*
X167950875Y-58743696D01*
X167907333Y-58805880D01*
X167907332Y-58805882D01*
X167836658Y-58957443D01*
X167790485Y-59009882D01*
X167723292Y-59029034D01*
X167656411Y-59008818D01*
X167611894Y-58957443D01*
X167572515Y-58872995D01*
X167541102Y-58805630D01*
X167541099Y-58805626D01*
X167541099Y-58805625D01*
X167415599Y-58626392D01*
X167343066Y-58553859D01*
X167260877Y-58471670D01*
X167081639Y-58346166D01*
X166930414Y-58275649D01*
X166877977Y-58229478D01*
X166858825Y-58162284D01*
X166879041Y-58095403D01*
X166930414Y-58050886D01*
X167081639Y-57980370D01*
X167260877Y-57854866D01*
X167415598Y-57700145D01*
X167541102Y-57520907D01*
X167611618Y-57369682D01*
X167657790Y-57317245D01*
X167724984Y-57298093D01*
X167791865Y-57318309D01*
G37*
%TD.AperFunction*%
%TA.AperFunction,Conductor*%
G36*
X170331865Y-57318309D02*
G01*
X170376381Y-57369682D01*
X170446898Y-57520907D01*
X170572402Y-57700145D01*
X170727123Y-57854866D01*
X170895369Y-57972673D01*
X170906361Y-57980370D01*
X171057583Y-58050886D01*
X171110022Y-58097058D01*
X171129174Y-58164252D01*
X171108958Y-58231133D01*
X171057583Y-58275650D01*
X170906361Y-58346166D01*
X170906357Y-58346168D01*
X170727121Y-58471670D01*
X170572402Y-58626389D01*
X170446900Y-58805625D01*
X170446900Y-58805626D01*
X170446898Y-58805629D01*
X170446898Y-58805630D01*
X170446779Y-58805885D01*
X170376105Y-58957444D01*
X170329932Y-59009883D01*
X170262738Y-59029034D01*
X170195857Y-59008818D01*
X170151341Y-58957442D01*
X170080669Y-58805885D01*
X170037123Y-58743696D01*
X169477076Y-59303743D01*
X169453493Y-59223424D01*
X169375761Y-59102470D01*
X169267100Y-59008316D01*
X169136315Y-58948588D01*
X169126534Y-58947181D01*
X169683572Y-58390143D01*
X169683571Y-58390141D01*
X169621391Y-58346603D01*
X169469824Y-58275926D01*
X169417385Y-58229754D01*
X169398233Y-58162560D01*
X169418449Y-58095679D01*
X169469822Y-58051163D01*
X169621639Y-57980370D01*
X169800877Y-57854866D01*
X169955598Y-57700145D01*
X170081102Y-57520907D01*
X170151618Y-57369682D01*
X170197790Y-57317245D01*
X170264984Y-57298093D01*
X170331865Y-57318309D01*
G37*
%TD.AperFunction*%
%TA.AperFunction,Conductor*%
G36*
X183793863Y-54645185D02*
G01*
X183839618Y-54697989D01*
X183849562Y-54767147D01*
X183820537Y-54830703D01*
X183814505Y-54837181D01*
X182480483Y-56171202D01*
X182467910Y-56181276D01*
X182468065Y-56181463D01*
X182462058Y-56186431D01*
X182413468Y-56238175D01*
X182412114Y-56239571D01*
X182391090Y-56260596D01*
X182391078Y-56260610D01*
X182386587Y-56266398D01*
X182382801Y-56270830D01*
X182349552Y-56306239D01*
X182339322Y-56324846D01*
X182328646Y-56341097D01*
X182315640Y-56357865D01*
X182315636Y-56357871D01*
X182296348Y-56402444D01*
X182293777Y-56407691D01*
X182270372Y-56450263D01*
X182270372Y-56450264D01*
X182265091Y-56470832D01*
X182258791Y-56489234D01*
X182250364Y-56508706D01*
X182242766Y-56556680D01*
X182241581Y-56562403D01*
X182229500Y-56609451D01*
X182229500Y-56630677D01*
X182227973Y-56650077D01*
X182223432Y-56678745D01*
X182221492Y-56678437D01*
X182202939Y-56734964D01*
X182188472Y-56752347D01*
X182177076Y-56763742D01*
X182153493Y-56683424D01*
X182075761Y-56562470D01*
X181967100Y-56468316D01*
X181836315Y-56408588D01*
X181826533Y-56407181D01*
X182383572Y-55850142D01*
X182383571Y-55850141D01*
X182338681Y-55818709D01*
X182295056Y-55764132D01*
X182287862Y-55694634D01*
X182319385Y-55632279D01*
X182322042Y-55629536D01*
X183289759Y-54661819D01*
X183351083Y-54628334D01*
X183377441Y-54625500D01*
X183726824Y-54625500D01*
X183793863Y-54645185D01*
G37*
%TD.AperFunction*%
%TA.AperFunction,Conductor*%
G36*
X231420539Y-46329685D02*
G01*
X231466294Y-46382489D01*
X231477500Y-46434000D01*
X231477500Y-131021500D01*
X231457815Y-131088539D01*
X231405011Y-131134294D01*
X231353500Y-131145500D01*
X151502760Y-131145500D01*
X151502554Y-131145459D01*
X151454753Y-131145459D01*
X151452033Y-131146000D01*
X141686000Y-131146000D01*
X141618961Y-131126315D01*
X141573206Y-131073511D01*
X141562000Y-131022000D01*
X141562000Y-96131000D01*
X142568000Y-96131000D01*
X142568000Y-96578844D01*
X142574401Y-96638372D01*
X142574403Y-96638379D01*
X142624645Y-96773086D01*
X142624649Y-96773093D01*
X142710809Y-96888187D01*
X142710812Y-96888190D01*
X142825906Y-96974350D01*
X142825913Y-96974354D01*
X142960620Y-97024596D01*
X142960627Y-97024598D01*
X143020155Y-97030999D01*
X143020172Y-97031000D01*
X143768000Y-97031000D01*
X143768000Y-96131000D01*
X144268000Y-96131000D01*
X144268000Y-97031000D01*
X145015828Y-97031000D01*
X145015844Y-97030999D01*
X145075372Y-97024598D01*
X145075379Y-97024596D01*
X145210086Y-96974354D01*
X145210093Y-96974350D01*
X145325187Y-96888190D01*
X145325190Y-96888187D01*
X145411350Y-96773093D01*
X145411354Y-96773086D01*
X145461596Y-96638379D01*
X145461598Y-96638372D01*
X145467999Y-96578844D01*
X145468000Y-96578827D01*
X145468000Y-96131000D01*
X144268000Y-96131000D01*
X143768000Y-96131000D01*
X142568000Y-96131000D01*
X141562000Y-96131000D01*
X141562000Y-95631000D01*
X142568000Y-95631000D01*
X145468000Y-95631000D01*
X145468000Y-95183172D01*
X145467999Y-95183155D01*
X145461598Y-95123627D01*
X145461596Y-95123620D01*
X145411354Y-94988913D01*
X145411350Y-94988906D01*
X145325190Y-94873812D01*
X145325187Y-94873809D01*
X145210093Y-94787649D01*
X145210086Y-94787645D01*
X145075379Y-94737403D01*
X145075372Y-94737401D01*
X145015844Y-94731000D01*
X144542000Y-94731000D01*
X144474961Y-94711315D01*
X144429206Y-94658511D01*
X144418000Y-94607000D01*
X144418000Y-92131000D01*
X143068000Y-92131000D01*
X143068000Y-94614475D01*
X143048315Y-94681514D01*
X142995511Y-94727269D01*
X142967979Y-94734822D01*
X142968168Y-94735620D01*
X142960620Y-94737403D01*
X142825913Y-94787645D01*
X142825906Y-94787649D01*
X142710812Y-94873809D01*
X142710809Y-94873812D01*
X142624649Y-94988906D01*
X142624645Y-94988913D01*
X142574403Y-95123620D01*
X142574401Y-95123627D01*
X142568000Y-95183155D01*
X142568000Y-95631000D01*
X141562000Y-95631000D01*
X141562000Y-82631000D01*
X142568000Y-82631000D01*
X142568000Y-82928844D01*
X142574401Y-82988372D01*
X142574403Y-82988379D01*
X142624645Y-83123086D01*
X142624649Y-83123093D01*
X142710809Y-83238187D01*
X142710812Y-83238190D01*
X142825906Y-83324350D01*
X142825913Y-83324354D01*
X142960620Y-83374596D01*
X142960627Y-83374598D01*
X143020155Y-83380999D01*
X143020172Y-83381000D01*
X144218000Y-83381000D01*
X144718000Y-83381000D01*
X145094000Y-83381000D01*
X145161039Y-83400685D01*
X145206794Y-83453489D01*
X145218000Y-83504999D01*
X145218000Y-83781000D01*
X152394000Y-83781000D01*
X152461039Y-83800685D01*
X152506794Y-83853489D01*
X152518000Y-83904999D01*
X152518000Y-92481000D01*
X154118000Y-92481000D01*
X154118000Y-83781000D01*
X152942000Y-83781000D01*
X152874961Y-83761315D01*
X152829206Y-83708511D01*
X152818000Y-83657000D01*
X152818000Y-83081000D01*
X149640190Y-83081000D01*
X149573151Y-83061315D01*
X149527396Y-83008511D01*
X149516901Y-82943744D01*
X149518042Y-82933129D01*
X149518500Y-82928873D01*
X149518500Y-82731000D01*
X150618000Y-82731000D01*
X153594000Y-82731000D01*
X153661039Y-82750685D01*
X153706794Y-82803489D01*
X153718000Y-82855000D01*
X153718000Y-82928844D01*
X153724401Y-82988372D01*
X153724403Y-82988379D01*
X153774645Y-83123086D01*
X153774649Y-83123093D01*
X153860809Y-83238187D01*
X153860812Y-83238190D01*
X153975906Y-83324350D01*
X153975913Y-83324354D01*
X154110620Y-83374596D01*
X154110627Y-83374598D01*
X154170155Y-83380999D01*
X154170172Y-83381000D01*
X154568000Y-83381000D01*
X155068000Y-83381000D01*
X155465828Y-83381000D01*
X155465844Y-83380999D01*
X155525372Y-83374598D01*
X155525379Y-83374596D01*
X155660086Y-83324354D01*
X155660093Y-83324350D01*
X155775187Y-83238190D01*
X155775190Y-83238187D01*
X155861350Y-83123093D01*
X155861354Y-83123086D01*
X155911596Y-82988379D01*
X155911598Y-82988372D01*
X155917999Y-82928844D01*
X155918000Y-82928827D01*
X155918000Y-82855000D01*
X155937685Y-82787961D01*
X155990489Y-82742206D01*
X156042000Y-82731000D01*
X157901185Y-82731000D01*
X157968224Y-82750685D01*
X158013979Y-82803489D01*
X158024475Y-82868254D01*
X158023909Y-82873516D01*
X158023909Y-82873517D01*
X158017500Y-82933127D01*
X158017500Y-82933128D01*
X158017500Y-82933132D01*
X158017500Y-83728870D01*
X158017501Y-83728879D01*
X158024367Y-83792751D01*
X158024367Y-83819257D01*
X158023909Y-83823516D01*
X158023909Y-83823517D01*
X158017500Y-83883127D01*
X158017500Y-83883128D01*
X158017500Y-83883132D01*
X158017500Y-84678870D01*
X158017501Y-84678876D01*
X158023908Y-84738482D01*
X158024546Y-84740192D01*
X158042252Y-84787665D01*
X158042253Y-84787666D01*
X158047237Y-84857358D01*
X158042253Y-84874331D01*
X158023909Y-84923514D01*
X158023908Y-84923516D01*
X158018973Y-84969423D01*
X158017501Y-84983123D01*
X158017500Y-84983135D01*
X158017500Y-85778870D01*
X158017501Y-85778876D01*
X158023909Y-85838484D01*
X158042519Y-85888382D01*
X158047503Y-85958074D01*
X158042520Y-85975046D01*
X158024402Y-86023623D01*
X158024401Y-86023627D01*
X158018000Y-86083155D01*
X158018000Y-86231000D01*
X158462155Y-86231000D01*
X158468786Y-86231355D01*
X158470127Y-86231500D01*
X159244000Y-86231499D01*
X159311039Y-86251183D01*
X159356794Y-86303987D01*
X159368000Y-86355499D01*
X159368000Y-86606500D01*
X159348315Y-86673539D01*
X159295511Y-86719294D01*
X159244000Y-86730500D01*
X158470129Y-86730500D01*
X158470116Y-86730501D01*
X158468793Y-86730644D01*
X158462159Y-86731000D01*
X158018000Y-86731000D01*
X158018000Y-86878844D01*
X158024401Y-86938372D01*
X158024403Y-86938383D01*
X158042519Y-86986953D01*
X158047503Y-87056644D01*
X158042520Y-87073616D01*
X158023908Y-87123517D01*
X158017501Y-87183116D01*
X158017500Y-87183135D01*
X158017500Y-87978870D01*
X158017501Y-87978876D01*
X158023908Y-88038482D01*
X158028018Y-88049500D01*
X158041881Y-88086670D01*
X158042253Y-88087666D01*
X158047237Y-88157358D01*
X158042253Y-88174331D01*
X158023909Y-88223514D01*
X158023908Y-88223516D01*
X158017501Y-88283116D01*
X158017500Y-88283135D01*
X158017500Y-89078870D01*
X158017501Y-89078884D01*
X158019332Y-89095915D01*
X158006924Y-89164674D01*
X157968927Y-89209483D01*
X157933832Y-89234981D01*
X157928948Y-89238189D01*
X157887132Y-89262920D01*
X157872126Y-89277926D01*
X157857336Y-89290558D01*
X157840167Y-89303032D01*
X157840165Y-89303034D01*
X157809194Y-89340470D01*
X157805262Y-89344791D01*
X157164483Y-89985569D01*
X157151910Y-89995643D01*
X157152065Y-89995830D01*
X157146058Y-90000798D01*
X157097468Y-90052542D01*
X157096114Y-90053938D01*
X157075090Y-90074963D01*
X157075078Y-90074977D01*
X157070587Y-90080765D01*
X157066801Y-90085197D01*
X157033552Y-90120606D01*
X157023322Y-90139213D01*
X157012646Y-90155464D01*
X156999640Y-90172232D01*
X156999636Y-90172238D01*
X156980348Y-90216811D01*
X156977777Y-90222058D01*
X156954372Y-90264630D01*
X156954372Y-90264631D01*
X156949091Y-90285199D01*
X156942791Y-90303601D01*
X156934364Y-90323073D01*
X156926766Y-90371047D01*
X156925581Y-90376770D01*
X156913500Y-90423818D01*
X156913500Y-90445044D01*
X156911973Y-90464444D01*
X156908653Y-90485403D01*
X156913225Y-90533767D01*
X156913500Y-90539606D01*
X156913500Y-108708494D01*
X156911732Y-108724505D01*
X156911974Y-108724528D01*
X156911239Y-108732294D01*
X156913469Y-108803235D01*
X156913500Y-108805183D01*
X156913500Y-108834920D01*
X156913501Y-108834940D01*
X156914418Y-108842206D01*
X156914876Y-108848024D01*
X156916402Y-108896567D01*
X156916403Y-108896570D01*
X156922323Y-108916948D01*
X156926268Y-108935996D01*
X156928928Y-108957054D01*
X156928931Y-108957064D01*
X156946813Y-109002230D01*
X156948705Y-109007758D01*
X156962254Y-109054395D01*
X156962255Y-109054397D01*
X156973060Y-109072666D01*
X156981617Y-109090134D01*
X156987226Y-109104300D01*
X156989432Y-109109872D01*
X157017983Y-109149170D01*
X157021188Y-109154049D01*
X157045919Y-109195865D01*
X157045923Y-109195869D01*
X157060925Y-109210871D01*
X157073563Y-109225669D01*
X157086033Y-109242833D01*
X157086036Y-109242836D01*
X157086037Y-109242837D01*
X157123476Y-109273809D01*
X157127776Y-109277722D01*
X160907749Y-113057695D01*
X164262553Y-116412499D01*
X164296038Y-116473822D01*
X164291054Y-116543514D01*
X164249182Y-116599447D01*
X164183718Y-116623864D01*
X164142782Y-116619956D01*
X164131977Y-116617061D01*
X163914002Y-116597991D01*
X163913998Y-116597991D01*
X163768682Y-116610704D01*
X163696023Y-116617061D01*
X163696020Y-116617061D01*
X163484677Y-116673690D01*
X163484668Y-116673694D01*
X163286361Y-116766166D01*
X163286357Y-116766168D01*
X163107121Y-116891670D01*
X162952402Y-117046389D01*
X162826900Y-117225625D01*
X162826898Y-117225629D01*
X162756382Y-117376851D01*
X162710209Y-117429290D01*
X162643016Y-117448442D01*
X162576135Y-117428226D01*
X162531618Y-117376851D01*
X162517118Y-117345756D01*
X162461102Y-117225630D01*
X162461099Y-117225626D01*
X162461099Y-117225625D01*
X162335599Y-117046392D01*
X162335596Y-117046389D01*
X162180877Y-116891670D01*
X162015429Y-116775822D01*
X162001638Y-116766165D01*
X161902484Y-116719929D01*
X161803330Y-116673693D01*
X161803326Y-116673692D01*
X161803322Y-116673690D01*
X161591977Y-116617061D01*
X161374002Y-116597991D01*
X161373998Y-116597991D01*
X161228681Y-116610704D01*
X161156023Y-116617061D01*
X161156020Y-116617061D01*
X160944677Y-116673690D01*
X160944668Y-116673694D01*
X160746361Y-116766166D01*
X160746357Y-116766168D01*
X160567121Y-116891670D01*
X160412402Y-117046389D01*
X160286900Y-117225625D01*
X160286898Y-117225629D01*
X160216382Y-117376851D01*
X160170209Y-117429290D01*
X160103016Y-117448442D01*
X160036135Y-117428226D01*
X159991618Y-117376851D01*
X159977118Y-117345756D01*
X159921102Y-117225630D01*
X159921099Y-117225626D01*
X159921099Y-117225625D01*
X159795599Y-117046392D01*
X159795596Y-117046389D01*
X159640877Y-116891670D01*
X159475429Y-116775822D01*
X159461638Y-116766165D01*
X159362484Y-116719929D01*
X159263330Y-116673693D01*
X159263326Y-116673692D01*
X159263322Y-116673690D01*
X159051977Y-116617061D01*
X158834002Y-116597991D01*
X158833998Y-116597991D01*
X158688681Y-116610704D01*
X158616023Y-116617061D01*
X158616020Y-116617061D01*
X158404677Y-116673690D01*
X158404668Y-116673694D01*
X158206361Y-116766166D01*
X158206357Y-116766168D01*
X158027121Y-116891670D01*
X157872402Y-117046389D01*
X157746900Y-117225625D01*
X157746898Y-117225629D01*
X157654426Y-117423936D01*
X157654422Y-117423945D01*
X157597793Y-117635288D01*
X157597793Y-117635291D01*
X157578723Y-117853268D01*
X157597081Y-118063112D01*
X157597793Y-118071243D01*
X157597793Y-118071247D01*
X157654422Y-118282590D01*
X157654424Y-118282594D01*
X157654425Y-118282598D01*
X157676106Y-118329092D01*
X157746897Y-118480906D01*
X157746898Y-118480907D01*
X157872402Y-118660145D01*
X158027123Y-118814866D01*
X158206361Y-118940370D01*
X158222352Y-118947826D01*
X158274790Y-118993995D01*
X158293944Y-119061187D01*
X158273731Y-119128069D01*
X158220567Y-119173406D01*
X158199877Y-119180542D01*
X158155306Y-119191627D01*
X158155303Y-119191628D01*
X157984707Y-119276235D01*
X157984704Y-119276237D01*
X157836278Y-119395545D01*
X157836277Y-119395546D01*
X157716969Y-119543972D01*
X157716967Y-119543975D01*
X157632360Y-119714570D01*
X157586400Y-119899375D01*
X157583500Y-119942147D01*
X157583500Y-120844390D01*
X157583501Y-120844393D01*
X157586399Y-120887154D01*
X157586399Y-120887155D01*
X157632360Y-121071964D01*
X157716967Y-121242560D01*
X157716969Y-121242563D01*
X157836277Y-121390989D01*
X157836278Y-121390990D01*
X157984704Y-121510298D01*
X157984707Y-121510300D01*
X158155302Y-121594907D01*
X158155303Y-121594907D01*
X158155307Y-121594909D01*
X158340111Y-121640868D01*
X158382877Y-121643768D01*
X159285122Y-121643767D01*
X159327889Y-121640868D01*
X159512693Y-121594909D01*
X159683296Y-121510298D01*
X159831722Y-121390990D01*
X159951030Y-121242564D01*
X160035641Y-121071961D01*
X160046725Y-121027391D01*
X160082006Y-120967086D01*
X160144292Y-120935427D01*
X160213806Y-120942468D01*
X160268478Y-120985973D01*
X160279438Y-121004909D01*
X160286898Y-121020907D01*
X160412402Y-121200145D01*
X160567123Y-121354866D01*
X160746361Y-121480370D01*
X160944670Y-121572843D01*
X161156023Y-121629475D01*
X161338926Y-121645476D01*
X161373998Y-121648545D01*
X161374000Y-121648545D01*
X161374002Y-121648545D01*
X161402254Y-121646073D01*
X161591977Y-121629475D01*
X161803330Y-121572843D01*
X162001639Y-121480370D01*
X162180877Y-121354866D01*
X162335598Y-121200145D01*
X162461102Y-121020907D01*
X162531619Y-120869682D01*
X162577789Y-120817245D01*
X162644982Y-120798093D01*
X162711863Y-120818308D01*
X162756381Y-120869684D01*
X162826897Y-121020906D01*
X162851998Y-121056754D01*
X162952402Y-121200145D01*
X163107123Y-121354866D01*
X163286361Y-121480370D01*
X163484670Y-121572843D01*
X163696023Y-121629475D01*
X163878926Y-121645476D01*
X163913998Y-121648545D01*
X163914000Y-121648545D01*
X163914002Y-121648545D01*
X163942254Y-121646073D01*
X164131977Y-121629475D01*
X164343330Y-121572843D01*
X164541639Y-121480370D01*
X164720877Y-121354866D01*
X164720893Y-121354849D01*
X164724105Y-121352155D01*
X164788109Y-121324133D01*
X164857103Y-121335162D01*
X164891506Y-121359452D01*
X167203564Y-123671510D01*
X167213635Y-123684080D01*
X167213822Y-123683926D01*
X167218795Y-123689937D01*
X167270542Y-123738531D01*
X167271909Y-123739855D01*
X167292965Y-123760911D01*
X167292968Y-123760913D01*
X167298757Y-123765405D01*
X167303197Y-123769197D01*
X167332498Y-123796711D01*
X167338607Y-123802448D01*
X167338609Y-123802449D01*
X167357205Y-123812672D01*
X167373470Y-123823357D01*
X167390232Y-123836360D01*
X167390235Y-123836361D01*
X167390236Y-123836362D01*
X167434823Y-123855656D01*
X167440059Y-123858221D01*
X167482632Y-123881627D01*
X167498340Y-123885659D01*
X167503186Y-123886904D01*
X167521598Y-123893207D01*
X167541073Y-123901635D01*
X167580033Y-123907805D01*
X167589046Y-123909233D01*
X167594756Y-123910415D01*
X167641823Y-123922500D01*
X167663050Y-123922500D01*
X167682447Y-123924026D01*
X167703404Y-123927346D01*
X167751761Y-123922774D01*
X167757598Y-123922500D01*
X201589763Y-123922500D01*
X201605773Y-123924267D01*
X201605796Y-123924026D01*
X201613562Y-123924760D01*
X201613563Y-123924759D01*
X201613564Y-123924760D01*
X201620539Y-123924540D01*
X201684503Y-123922531D01*
X201686451Y-123922500D01*
X201716193Y-123922500D01*
X201723458Y-123921581D01*
X201729284Y-123921122D01*
X201777837Y-123919597D01*
X201798224Y-123913673D01*
X201817264Y-123909731D01*
X201838326Y-123907071D01*
X201883503Y-123889183D01*
X201889003Y-123887300D01*
X201935666Y-123873744D01*
X201953933Y-123862939D01*
X201971404Y-123854380D01*
X201991139Y-123846568D01*
X202030445Y-123818010D01*
X202035311Y-123814813D01*
X202077133Y-123790081D01*
X202092138Y-123775075D01*
X202106936Y-123762436D01*
X202124105Y-123749963D01*
X202155077Y-123712522D01*
X202158991Y-123708221D01*
X204207887Y-121659325D01*
X204269208Y-121625842D01*
X204327662Y-121627234D01*
X204336023Y-121629475D01*
X204521537Y-121645705D01*
X204553998Y-121648545D01*
X204554000Y-121648545D01*
X204554002Y-121648545D01*
X204582254Y-121646073D01*
X204771977Y-121629475D01*
X204983330Y-121572843D01*
X205181639Y-121480370D01*
X205360877Y-121354866D01*
X205515598Y-121200145D01*
X205641102Y-121020907D01*
X205733575Y-120822598D01*
X205790207Y-120611245D01*
X205809277Y-120393268D01*
X205790207Y-120175291D01*
X205753879Y-120039715D01*
X205733577Y-119963945D01*
X205733576Y-119963944D01*
X205733575Y-119963938D01*
X205641102Y-119765630D01*
X205641099Y-119765626D01*
X205641099Y-119765625D01*
X205515599Y-119586392D01*
X205473179Y-119543972D01*
X205360877Y-119431670D01*
X205181639Y-119306166D01*
X205030414Y-119235649D01*
X204977977Y-119189478D01*
X204958825Y-119122284D01*
X204979041Y-119055403D01*
X205030414Y-119010886D01*
X205181639Y-118940370D01*
X205360877Y-118814866D01*
X205515598Y-118660145D01*
X205641102Y-118480907D01*
X205733575Y-118282598D01*
X205790207Y-118071245D01*
X205809277Y-117853268D01*
X205790207Y-117635291D01*
X205740458Y-117449626D01*
X205733577Y-117423945D01*
X205733576Y-117423944D01*
X205733575Y-117423938D01*
X205641102Y-117225630D01*
X205641099Y-117225626D01*
X205641099Y-117225625D01*
X205515599Y-117046392D01*
X205515596Y-117046389D01*
X205360877Y-116891670D01*
X205195429Y-116775822D01*
X205181638Y-116766165D01*
X205082484Y-116719929D01*
X204983330Y-116673693D01*
X204983326Y-116673692D01*
X204983322Y-116673690D01*
X204771977Y-116617061D01*
X204554002Y-116597991D01*
X204553998Y-116597991D01*
X204408682Y-116610704D01*
X204336023Y-116617061D01*
X204336020Y-116617061D01*
X204124677Y-116673690D01*
X204124668Y-116673694D01*
X203926361Y-116766166D01*
X203926357Y-116766168D01*
X203747121Y-116891670D01*
X203592402Y-117046389D01*
X203466900Y-117225625D01*
X203466898Y-117225629D01*
X203396382Y-117376851D01*
X203350209Y-117429290D01*
X203283016Y-117448442D01*
X203216135Y-117428226D01*
X203171618Y-117376851D01*
X203157118Y-117345756D01*
X203101102Y-117225630D01*
X203101099Y-117225626D01*
X203101099Y-117225625D01*
X202975599Y-117046392D01*
X202975596Y-117046389D01*
X202820877Y-116891670D01*
X202655429Y-116775822D01*
X202641638Y-116766165D01*
X202542484Y-116719929D01*
X202443330Y-116673693D01*
X202443326Y-116673692D01*
X202443322Y-116673690D01*
X202231977Y-116617061D01*
X202014002Y-116597991D01*
X202013998Y-116597991D01*
X201868681Y-116610704D01*
X201796023Y-116617061D01*
X201796020Y-116617061D01*
X201720593Y-116637272D01*
X201650743Y-116635609D01*
X201592881Y-116596446D01*
X201565377Y-116532217D01*
X201564500Y-116517497D01*
X201564500Y-111081501D01*
X201566268Y-111065488D01*
X201566026Y-111065466D01*
X201566760Y-111057704D01*
X201564531Y-110986762D01*
X201564500Y-110984814D01*
X201564500Y-110955077D01*
X201564500Y-110955075D01*
X201563579Y-110947788D01*
X201563122Y-110941979D01*
X201561597Y-110893430D01*
X201555676Y-110873052D01*
X201551731Y-110854003D01*
X201549071Y-110832942D01*
X201531186Y-110787772D01*
X201529297Y-110782252D01*
X201521043Y-110753841D01*
X201515744Y-110735601D01*
X201504939Y-110717332D01*
X201496379Y-110699858D01*
X201490956Y-110686161D01*
X201488568Y-110680129D01*
X201460014Y-110640828D01*
X201456810Y-110635950D01*
X201432082Y-110594137D01*
X201432081Y-110594135D01*
X201417074Y-110579128D01*
X201404435Y-110564330D01*
X201391961Y-110547160D01*
X201354528Y-110516194D01*
X201350206Y-110512260D01*
X192493915Y-101655969D01*
X192460430Y-101594646D01*
X192465414Y-101524954D01*
X192489442Y-101485322D01*
X192545859Y-101422665D01*
X192635250Y-101267835D01*
X192690497Y-101097803D01*
X192709185Y-100920000D01*
X192690497Y-100742197D01*
X192662873Y-100657180D01*
X192635252Y-100572170D01*
X192635249Y-100572164D01*
X192545859Y-100417335D01*
X192536349Y-100406773D01*
X192506120Y-100343782D01*
X192504500Y-100323802D01*
X192504500Y-77894197D01*
X192524185Y-77827158D01*
X192536352Y-77811223D01*
X192545859Y-77800665D01*
X192635250Y-77645835D01*
X192690497Y-77475803D01*
X192709185Y-77298000D01*
X192690497Y-77120197D01*
X192662873Y-77035180D01*
X192635252Y-76950170D01*
X192635249Y-76950164D01*
X192555231Y-76811568D01*
X192545859Y-76795335D01*
X192499003Y-76743296D01*
X192426235Y-76662478D01*
X192426232Y-76662476D01*
X192426231Y-76662475D01*
X192426230Y-76662474D01*
X192281593Y-76557388D01*
X192140154Y-76494416D01*
X192086919Y-76449167D01*
X192066597Y-76382318D01*
X192085642Y-76315094D01*
X192102905Y-76293461D01*
X200502897Y-67893470D01*
X200564221Y-67859985D01*
X200590579Y-67857151D01*
X215873538Y-67857151D01*
X215940577Y-67876836D01*
X215975112Y-67910027D01*
X216011448Y-67961920D01*
X216175449Y-68125921D01*
X216365436Y-68258952D01*
X216376839Y-68264269D01*
X216429278Y-68310441D01*
X216448430Y-68377635D01*
X216428214Y-68444516D01*
X216376841Y-68489032D01*
X216365438Y-68494349D01*
X216365432Y-68494352D01*
X216175453Y-68627377D01*
X216175447Y-68627382D01*
X216011449Y-68791380D01*
X216011444Y-68791386D01*
X215878419Y-68981365D01*
X215878417Y-68981369D01*
X215780399Y-69191568D01*
X215720369Y-69415599D01*
X215720368Y-69415606D01*
X215700155Y-69646649D01*
X215700155Y-69646652D01*
X215720368Y-69877695D01*
X215720369Y-69877702D01*
X215780396Y-70101725D01*
X215780397Y-70101727D01*
X215780398Y-70101730D01*
X215878417Y-70311933D01*
X216011448Y-70501920D01*
X216175449Y-70665921D01*
X216365436Y-70798952D01*
X216376839Y-70804269D01*
X216429278Y-70850441D01*
X216448430Y-70917635D01*
X216428214Y-70984516D01*
X216376841Y-71029032D01*
X216365438Y-71034349D01*
X216365432Y-71034352D01*
X216175453Y-71167377D01*
X216175447Y-71167382D01*
X216011449Y-71331380D01*
X216011444Y-71331386D01*
X215878419Y-71521365D01*
X215878417Y-71521369D01*
X215780399Y-71731568D01*
X215720369Y-71955599D01*
X215720368Y-71955606D01*
X215700155Y-72186649D01*
X215700155Y-72186652D01*
X215720368Y-72417695D01*
X215720369Y-72417702D01*
X215780396Y-72641725D01*
X215780397Y-72641727D01*
X215780398Y-72641730D01*
X215878417Y-72851933D01*
X216011448Y-73041920D01*
X216175449Y-73205921D01*
X216365436Y-73338952D01*
X216376839Y-73344269D01*
X216429278Y-73390441D01*
X216448430Y-73457635D01*
X216428214Y-73524516D01*
X216376841Y-73569032D01*
X216365438Y-73574349D01*
X216365432Y-73574352D01*
X216175453Y-73707377D01*
X216175447Y-73707382D01*
X216011449Y-73871380D01*
X216011444Y-73871386D01*
X215878419Y-74061365D01*
X215878417Y-74061369D01*
X215780399Y-74271568D01*
X215720369Y-74495599D01*
X215720368Y-74495606D01*
X215700155Y-74726649D01*
X215700155Y-74726652D01*
X215720368Y-74957695D01*
X215720369Y-74957702D01*
X215780396Y-75181725D01*
X215780397Y-75181727D01*
X215780398Y-75181730D01*
X215878417Y-75391933D01*
X216011448Y-75581920D01*
X216175449Y-75745921D01*
X216365436Y-75878952D01*
X216376839Y-75884269D01*
X216429278Y-75930441D01*
X216448430Y-75997635D01*
X216428214Y-76064516D01*
X216376841Y-76109032D01*
X216365438Y-76114349D01*
X216365432Y-76114352D01*
X216175453Y-76247377D01*
X216175447Y-76247382D01*
X216011449Y-76411380D01*
X216011444Y-76411386D01*
X215878419Y-76601365D01*
X215878417Y-76601369D01*
X215780399Y-76811568D01*
X215720369Y-77035599D01*
X215720368Y-77035606D01*
X215700155Y-77266649D01*
X215700155Y-77266652D01*
X215720368Y-77497695D01*
X215720369Y-77497702D01*
X215780396Y-77721725D01*
X215780397Y-77721727D01*
X215780398Y-77721730D01*
X215878417Y-77931933D01*
X216011448Y-78121920D01*
X216175449Y-78285921D01*
X216365436Y-78418952D01*
X216376839Y-78424269D01*
X216429278Y-78470441D01*
X216448430Y-78537635D01*
X216428214Y-78604516D01*
X216376841Y-78649032D01*
X216365438Y-78654349D01*
X216365432Y-78654352D01*
X216175453Y-78787377D01*
X216175447Y-78787382D01*
X216011449Y-78951380D01*
X216011444Y-78951386D01*
X215878419Y-79141365D01*
X215878417Y-79141369D01*
X215780399Y-79351568D01*
X215720369Y-79575599D01*
X215720368Y-79575606D01*
X215700155Y-79806649D01*
X215700155Y-79806652D01*
X215720368Y-80037695D01*
X215720369Y-80037702D01*
X215780396Y-80261725D01*
X215780397Y-80261727D01*
X215780398Y-80261730D01*
X215878417Y-80471933D01*
X216011448Y-80661920D01*
X216175449Y-80825921D01*
X216365436Y-80958952D01*
X216376839Y-80964269D01*
X216429278Y-81010441D01*
X216448430Y-81077635D01*
X216428214Y-81144516D01*
X216376841Y-81189032D01*
X216365438Y-81194349D01*
X216365432Y-81194352D01*
X216175453Y-81327377D01*
X216175447Y-81327382D01*
X216011449Y-81491380D01*
X216011444Y-81491386D01*
X215878419Y-81681365D01*
X215878417Y-81681369D01*
X215780399Y-81891568D01*
X215720369Y-82115599D01*
X215720368Y-82115606D01*
X215700155Y-82346649D01*
X215700155Y-82346652D01*
X215720368Y-82577695D01*
X215720369Y-82577702D01*
X215780396Y-82801725D01*
X215780397Y-82801727D01*
X215780398Y-82801730D01*
X215878417Y-83011933D01*
X216011448Y-83201920D01*
X216175449Y-83365921D01*
X216365436Y-83498952D01*
X216376839Y-83504269D01*
X216429278Y-83550441D01*
X216448430Y-83617635D01*
X216428214Y-83684516D01*
X216376841Y-83729032D01*
X216365438Y-83734349D01*
X216365432Y-83734352D01*
X216175453Y-83867377D01*
X216175447Y-83867382D01*
X216011449Y-84031380D01*
X216011444Y-84031386D01*
X215878419Y-84221365D01*
X215878417Y-84221369D01*
X215780399Y-84431568D01*
X215720369Y-84655599D01*
X215720368Y-84655606D01*
X215700155Y-84886649D01*
X215700155Y-84886652D01*
X215720368Y-85117695D01*
X215720369Y-85117702D01*
X215780396Y-85341725D01*
X215780397Y-85341727D01*
X215780398Y-85341730D01*
X215878417Y-85551933D01*
X216011448Y-85741920D01*
X216175449Y-85905921D01*
X216365436Y-86038952D01*
X216376839Y-86044269D01*
X216429278Y-86090441D01*
X216448430Y-86157635D01*
X216428214Y-86224516D01*
X216376841Y-86269032D01*
X216365438Y-86274349D01*
X216365432Y-86274352D01*
X216175453Y-86407377D01*
X216175447Y-86407382D01*
X216011449Y-86571380D01*
X216011444Y-86571386D01*
X215878419Y-86761365D01*
X215878417Y-86761369D01*
X215780399Y-86971568D01*
X215720369Y-87195599D01*
X215720368Y-87195606D01*
X215700155Y-87426649D01*
X215700155Y-87426652D01*
X215720368Y-87657695D01*
X215720369Y-87657702D01*
X215780396Y-87881725D01*
X215780397Y-87881727D01*
X215780398Y-87881730D01*
X215878417Y-88091933D01*
X216011448Y-88281920D01*
X216175449Y-88445921D01*
X216365436Y-88578952D01*
X216376839Y-88584269D01*
X216429278Y-88630441D01*
X216448430Y-88697635D01*
X216428214Y-88764516D01*
X216376841Y-88809032D01*
X216365438Y-88814349D01*
X216365432Y-88814352D01*
X216175453Y-88947377D01*
X216175447Y-88947382D01*
X216011449Y-89111380D01*
X216011444Y-89111386D01*
X215878419Y-89301365D01*
X215878417Y-89301369D01*
X215780399Y-89511568D01*
X215720369Y-89735599D01*
X215720368Y-89735606D01*
X215700155Y-89966649D01*
X215700155Y-89966652D01*
X215720368Y-90197695D01*
X215720369Y-90197702D01*
X215780396Y-90421725D01*
X215780397Y-90421727D01*
X215780398Y-90421730D01*
X215878417Y-90631933D01*
X216011448Y-90821920D01*
X216175449Y-90985921D01*
X216365436Y-91118952D01*
X216376839Y-91124269D01*
X216429278Y-91170441D01*
X216448430Y-91237635D01*
X216428214Y-91304516D01*
X216376841Y-91349032D01*
X216365438Y-91354349D01*
X216365432Y-91354352D01*
X216175453Y-91487377D01*
X216175447Y-91487382D01*
X216011449Y-91651380D01*
X216011444Y-91651386D01*
X215878419Y-91841365D01*
X215878417Y-91841369D01*
X215780399Y-92051568D01*
X215720369Y-92275599D01*
X215720368Y-92275606D01*
X215700155Y-92506649D01*
X215700155Y-92506652D01*
X215720368Y-92737695D01*
X215720369Y-92737702D01*
X215780396Y-92961725D01*
X215780397Y-92961727D01*
X215780398Y-92961730D01*
X215878417Y-93171933D01*
X216011448Y-93361920D01*
X216175449Y-93525921D01*
X216365436Y-93658952D01*
X216376839Y-93664269D01*
X216429278Y-93710441D01*
X216448430Y-93777635D01*
X216428214Y-93844516D01*
X216376841Y-93889032D01*
X216365438Y-93894349D01*
X216365432Y-93894352D01*
X216175453Y-94027377D01*
X216175447Y-94027382D01*
X216011449Y-94191380D01*
X216011444Y-94191386D01*
X215878419Y-94381365D01*
X215878417Y-94381369D01*
X215780399Y-94591568D01*
X215720369Y-94815599D01*
X215720368Y-94815606D01*
X215700155Y-95046649D01*
X215700155Y-95046652D01*
X215720368Y-95277695D01*
X215720369Y-95277702D01*
X215780396Y-95501725D01*
X215780397Y-95501727D01*
X215780398Y-95501730D01*
X215878417Y-95711933D01*
X216011448Y-95901920D01*
X216175449Y-96065921D01*
X216365436Y-96198952D01*
X216376839Y-96204269D01*
X216429278Y-96250441D01*
X216448430Y-96317635D01*
X216428214Y-96384516D01*
X216376841Y-96429032D01*
X216365438Y-96434349D01*
X216365432Y-96434352D01*
X216175453Y-96567377D01*
X216175447Y-96567382D01*
X216011449Y-96731380D01*
X216011444Y-96731386D01*
X215878419Y-96921365D01*
X215878417Y-96921369D01*
X215780399Y-97131568D01*
X215720369Y-97355599D01*
X215720368Y-97355606D01*
X215700155Y-97586649D01*
X215700155Y-97586652D01*
X215720368Y-97817695D01*
X215720369Y-97817702D01*
X215780396Y-98041725D01*
X215780397Y-98041727D01*
X215780398Y-98041730D01*
X215878417Y-98251933D01*
X216011448Y-98441920D01*
X216175449Y-98605921D01*
X216365436Y-98738952D01*
X216376839Y-98744269D01*
X216429278Y-98790441D01*
X216448430Y-98857635D01*
X216428214Y-98924516D01*
X216376841Y-98969032D01*
X216365438Y-98974349D01*
X216365432Y-98974352D01*
X216175453Y-99107377D01*
X216175447Y-99107382D01*
X216011449Y-99271380D01*
X216011444Y-99271386D01*
X215878419Y-99461365D01*
X215878417Y-99461369D01*
X215780399Y-99671568D01*
X215720369Y-99895599D01*
X215720368Y-99895606D01*
X215700155Y-100126649D01*
X215700155Y-100126652D01*
X215720368Y-100357695D01*
X215720369Y-100357702D01*
X215780396Y-100581725D01*
X215780397Y-100581727D01*
X215780398Y-100581730D01*
X215878417Y-100791933D01*
X216011448Y-100981920D01*
X216175449Y-101145921D01*
X216365436Y-101278952D01*
X216376839Y-101284269D01*
X216429278Y-101330441D01*
X216448430Y-101397635D01*
X216428214Y-101464516D01*
X216376841Y-101509032D01*
X216365438Y-101514349D01*
X216365432Y-101514352D01*
X216175453Y-101647377D01*
X216175447Y-101647382D01*
X216011449Y-101811380D01*
X216011444Y-101811386D01*
X215878419Y-102001365D01*
X215878417Y-102001369D01*
X215780399Y-102211568D01*
X215720369Y-102435599D01*
X215720368Y-102435606D01*
X215700155Y-102666649D01*
X215700155Y-102666652D01*
X215720368Y-102897695D01*
X215720369Y-102897702D01*
X215780396Y-103121725D01*
X215780400Y-103121736D01*
X215819109Y-103204747D01*
X215829601Y-103273824D01*
X215801081Y-103337608D01*
X215742604Y-103375847D01*
X215706727Y-103381151D01*
X208884500Y-103381151D01*
X208817461Y-103361466D01*
X208771706Y-103308662D01*
X208760500Y-103257151D01*
X208760500Y-73068197D01*
X208780185Y-73001158D01*
X208792352Y-72985223D01*
X208801859Y-72974665D01*
X208891250Y-72819835D01*
X208946497Y-72649803D01*
X208965185Y-72472000D01*
X208946497Y-72294197D01*
X208891250Y-72124165D01*
X208801859Y-71969335D01*
X208755003Y-71917296D01*
X208682235Y-71836478D01*
X208682232Y-71836476D01*
X208682231Y-71836475D01*
X208682230Y-71836474D01*
X208537593Y-71731388D01*
X208374267Y-71658671D01*
X208374265Y-71658670D01*
X208246594Y-71631533D01*
X208199391Y-71621500D01*
X208020609Y-71621500D01*
X207989954Y-71628015D01*
X207845733Y-71658670D01*
X207682410Y-71731386D01*
X207675264Y-71736578D01*
X207609456Y-71760053D01*
X207541403Y-71744224D01*
X207529502Y-71736575D01*
X207522365Y-71731390D01*
X207522364Y-71731389D01*
X207522362Y-71731388D01*
X207359036Y-71658671D01*
X207359034Y-71658670D01*
X207231363Y-71631533D01*
X207184160Y-71621500D01*
X207005378Y-71621500D01*
X206974723Y-71628015D01*
X206830502Y-71658670D01*
X206830497Y-71658672D01*
X206667177Y-71731388D01*
X206667170Y-71731391D01*
X206659265Y-71737135D01*
X206593457Y-71760612D01*
X206525404Y-71744784D01*
X206513496Y-71737130D01*
X206505596Y-71731390D01*
X206505595Y-71731389D01*
X206505593Y-71731388D01*
X206342267Y-71658671D01*
X206342265Y-71658670D01*
X206214594Y-71631533D01*
X206167391Y-71621500D01*
X205988609Y-71621500D01*
X205957954Y-71628015D01*
X205813733Y-71658670D01*
X205813728Y-71658672D01*
X205659744Y-71727230D01*
X205650413Y-71731386D01*
X205644472Y-71734031D01*
X205643575Y-71732018D01*
X205585557Y-71746073D01*
X205539227Y-71732464D01*
X205538530Y-71734032D01*
X205532595Y-71731389D01*
X205532593Y-71731388D01*
X205369267Y-71658671D01*
X205369265Y-71658670D01*
X205241594Y-71631533D01*
X205194391Y-71621500D01*
X205015609Y-71621500D01*
X204984954Y-71628015D01*
X204840733Y-71658670D01*
X204840728Y-71658672D01*
X204677408Y-71731388D01*
X204677404Y-71731390D01*
X204648384Y-71752474D01*
X204582577Y-71775953D01*
X204514523Y-71760126D01*
X204502615Y-71752473D01*
X204473594Y-71731388D01*
X204473593Y-71731387D01*
X204351311Y-71676945D01*
X204310267Y-71658671D01*
X204310265Y-71658670D01*
X204182594Y-71631533D01*
X204135391Y-71621500D01*
X203956609Y-71621500D01*
X203925954Y-71628015D01*
X203781733Y-71658670D01*
X203618412Y-71731385D01*
X203618405Y-71731390D01*
X203610879Y-71736857D01*
X203545073Y-71760333D01*
X203477020Y-71744505D01*
X203465112Y-71736851D01*
X203457592Y-71731387D01*
X203355834Y-71686082D01*
X203294267Y-71658671D01*
X203294265Y-71658670D01*
X203166594Y-71631533D01*
X203119391Y-71621500D01*
X202940609Y-71621500D01*
X202909954Y-71628015D01*
X202765733Y-71658670D01*
X202765728Y-71658672D01*
X202602408Y-71731387D01*
X202457768Y-71836475D01*
X202338140Y-71969336D01*
X202248750Y-72124164D01*
X202248747Y-72124170D01*
X202193504Y-72294192D01*
X202193503Y-72294194D01*
X202174815Y-72471999D01*
X202193503Y-72649805D01*
X202193504Y-72649807D01*
X202248747Y-72819829D01*
X202248750Y-72819835D01*
X202338141Y-72974665D01*
X202347648Y-72985223D01*
X202377879Y-73048213D01*
X202379500Y-73068197D01*
X202379500Y-107946494D01*
X202377732Y-107962505D01*
X202377974Y-107962528D01*
X202377239Y-107970294D01*
X202379469Y-108041235D01*
X202379500Y-108043183D01*
X202379500Y-108072920D01*
X202379501Y-108072940D01*
X202380418Y-108080206D01*
X202380876Y-108086024D01*
X202382402Y-108134567D01*
X202382403Y-108134570D01*
X202388323Y-108154948D01*
X202392268Y-108173996D01*
X202394928Y-108195054D01*
X202394931Y-108195064D01*
X202412813Y-108240230D01*
X202414705Y-108245758D01*
X202428254Y-108292395D01*
X202428255Y-108292397D01*
X202439060Y-108310666D01*
X202447617Y-108328134D01*
X202453226Y-108342300D01*
X202455432Y-108347872D01*
X202483983Y-108387170D01*
X202487191Y-108392053D01*
X202498947Y-108411932D01*
X202511919Y-108433865D01*
X202511923Y-108433869D01*
X202526925Y-108448871D01*
X202539563Y-108463669D01*
X202552033Y-108480833D01*
X202552036Y-108480836D01*
X202552037Y-108480837D01*
X202589476Y-108511809D01*
X202593776Y-108515722D01*
X204949518Y-110871464D01*
X207304215Y-113226161D01*
X207314286Y-113238731D01*
X207314473Y-113238577D01*
X207319446Y-113244588D01*
X207371193Y-113293182D01*
X207372560Y-113294506D01*
X207393616Y-113315562D01*
X207393619Y-113315564D01*
X207399408Y-113320056D01*
X207403848Y-113323848D01*
X207433149Y-113351362D01*
X207439258Y-113357099D01*
X207439261Y-113357101D01*
X207439263Y-113357102D01*
X207457858Y-113367325D01*
X207474119Y-113378007D01*
X207490883Y-113391010D01*
X207490887Y-113391013D01*
X207532312Y-113408939D01*
X207535462Y-113410302D01*
X207540701Y-113412868D01*
X207583283Y-113436278D01*
X207603855Y-113441559D01*
X207622245Y-113447856D01*
X207641725Y-113456286D01*
X207685872Y-113463277D01*
X207689699Y-113463884D01*
X207695408Y-113465066D01*
X207742474Y-113477151D01*
X207763696Y-113477151D01*
X207783095Y-113478677D01*
X207804056Y-113481998D01*
X207848755Y-113477772D01*
X207852421Y-113477426D01*
X207858259Y-113477151D01*
X215803516Y-113477151D01*
X215870555Y-113496836D01*
X215905090Y-113530026D01*
X216011448Y-113681920D01*
X216175449Y-113845921D01*
X216365436Y-113978952D01*
X216575639Y-114076971D01*
X216799668Y-114137000D01*
X216964703Y-114151438D01*
X217030716Y-114157214D01*
X217030718Y-114157214D01*
X217030720Y-114157214D01*
X217088480Y-114152160D01*
X217261768Y-114137000D01*
X217485797Y-114076971D01*
X217696000Y-113978952D01*
X217885987Y-113845921D01*
X218049988Y-113681920D01*
X218183019Y-113491933D01*
X218188336Y-113480529D01*
X218234508Y-113428091D01*
X218301702Y-113408939D01*
X218368583Y-113429155D01*
X218413099Y-113480529D01*
X218418417Y-113491933D01*
X218551448Y-113681920D01*
X218715449Y-113845921D01*
X218905436Y-113978952D01*
X219115639Y-114076971D01*
X219339668Y-114137000D01*
X219504703Y-114151438D01*
X219570716Y-114157214D01*
X219570718Y-114157214D01*
X219570720Y-114157214D01*
X219628480Y-114152160D01*
X219801768Y-114137000D01*
X220025797Y-114076971D01*
X220236000Y-113978952D01*
X220425987Y-113845921D01*
X220589988Y-113681920D01*
X220723019Y-113491933D01*
X220821038Y-113281730D01*
X220881067Y-113057701D01*
X220901281Y-112826651D01*
X220881067Y-112595601D01*
X220821038Y-112371572D01*
X220723019Y-112161370D01*
X220723017Y-112161367D01*
X220723016Y-112161365D01*
X220589991Y-111971386D01*
X220589986Y-111971380D01*
X220425987Y-111807381D01*
X220425981Y-111807377D01*
X220236000Y-111674350D01*
X220224596Y-111669032D01*
X220172158Y-111622861D01*
X220153006Y-111555667D01*
X220173222Y-111488786D01*
X220224596Y-111444269D01*
X220236000Y-111438952D01*
X220425987Y-111305921D01*
X220589988Y-111141920D01*
X220723019Y-110951933D01*
X220821038Y-110741730D01*
X220881067Y-110517701D01*
X220901281Y-110286651D01*
X220881067Y-110055601D01*
X220821038Y-109831572D01*
X220723019Y-109621370D01*
X220723017Y-109621367D01*
X220723016Y-109621365D01*
X220589991Y-109431386D01*
X220589986Y-109431380D01*
X220425987Y-109267381D01*
X220366416Y-109225669D01*
X220236000Y-109134350D01*
X220224598Y-109129033D01*
X220224592Y-109129030D01*
X220172155Y-109082855D01*
X220153006Y-109015660D01*
X220173225Y-108948780D01*
X220224599Y-108904268D01*
X220236000Y-108898952D01*
X220425987Y-108765921D01*
X220589988Y-108601920D01*
X220723019Y-108411933D01*
X220821038Y-108201730D01*
X220881067Y-107977701D01*
X220901281Y-107746651D01*
X220881067Y-107515601D01*
X220821038Y-107291572D01*
X220723019Y-107081370D01*
X220723017Y-107081367D01*
X220723016Y-107081365D01*
X220589991Y-106891386D01*
X220589986Y-106891380D01*
X220425987Y-106727381D01*
X220294949Y-106635627D01*
X220236000Y-106594350D01*
X220224596Y-106589032D01*
X220172158Y-106542861D01*
X220153006Y-106475667D01*
X220173222Y-106408786D01*
X220224596Y-106364269D01*
X220236000Y-106358952D01*
X220425987Y-106225921D01*
X220589988Y-106061920D01*
X220723019Y-105871933D01*
X220821038Y-105661730D01*
X220881067Y-105437701D01*
X220901281Y-105206651D01*
X220881067Y-104975601D01*
X220821038Y-104751572D01*
X220723019Y-104541370D01*
X220723017Y-104541367D01*
X220723016Y-104541365D01*
X220589991Y-104351386D01*
X220589986Y-104351380D01*
X220425987Y-104187381D01*
X220236000Y-104054350D01*
X220229690Y-104051407D01*
X220224592Y-104049030D01*
X220172155Y-104002855D01*
X220153006Y-103935660D01*
X220173225Y-103868780D01*
X220224599Y-103824268D01*
X220236000Y-103818952D01*
X220425987Y-103685921D01*
X220589988Y-103521920D01*
X220723019Y-103331933D01*
X220821038Y-103121730D01*
X220881067Y-102897701D01*
X220901281Y-102666651D01*
X220881067Y-102435601D01*
X220821038Y-102211572D01*
X220723019Y-102001370D01*
X220723017Y-102001367D01*
X220723016Y-102001365D01*
X220589991Y-101811386D01*
X220589986Y-101811380D01*
X220425987Y-101647381D01*
X220350674Y-101594646D01*
X220236000Y-101514350D01*
X220224596Y-101509032D01*
X220172158Y-101462861D01*
X220153006Y-101395667D01*
X220173222Y-101328786D01*
X220224596Y-101284269D01*
X220236000Y-101278952D01*
X220425987Y-101145921D01*
X220589988Y-100981920D01*
X220723019Y-100791933D01*
X220821038Y-100581730D01*
X220881067Y-100357701D01*
X220901281Y-100126651D01*
X220881067Y-99895601D01*
X220821038Y-99671572D01*
X220723019Y-99461370D01*
X220723017Y-99461367D01*
X220723016Y-99461365D01*
X220589991Y-99271386D01*
X220589986Y-99271380D01*
X220425987Y-99107381D01*
X220425981Y-99107377D01*
X220236000Y-98974350D01*
X220224596Y-98969032D01*
X220172158Y-98922861D01*
X220153006Y-98855667D01*
X220173222Y-98788786D01*
X220224596Y-98744269D01*
X220236000Y-98738952D01*
X220425987Y-98605921D01*
X220589988Y-98441920D01*
X220723019Y-98251933D01*
X220821038Y-98041730D01*
X220881067Y-97817701D01*
X220901281Y-97586651D01*
X220881067Y-97355601D01*
X220821038Y-97131572D01*
X220723019Y-96921370D01*
X220723017Y-96921367D01*
X220723016Y-96921365D01*
X220589991Y-96731386D01*
X220589986Y-96731380D01*
X220425987Y-96567381D01*
X220425981Y-96567377D01*
X220236000Y-96434350D01*
X220224596Y-96429032D01*
X220172158Y-96382861D01*
X220153006Y-96315667D01*
X220173222Y-96248786D01*
X220224596Y-96204269D01*
X220236000Y-96198952D01*
X220425987Y-96065921D01*
X220589988Y-95901920D01*
X220723019Y-95711933D01*
X220821038Y-95501730D01*
X220881067Y-95277701D01*
X220901281Y-95046651D01*
X220881067Y-94815601D01*
X220821038Y-94591572D01*
X220723019Y-94381370D01*
X220723017Y-94381367D01*
X220723016Y-94381365D01*
X220589991Y-94191386D01*
X220589986Y-94191380D01*
X220425987Y-94027381D01*
X220341595Y-93968289D01*
X220236000Y-93894350D01*
X220224596Y-93889032D01*
X220172158Y-93842861D01*
X220153006Y-93775667D01*
X220173222Y-93708786D01*
X220224596Y-93664269D01*
X220236000Y-93658952D01*
X220425987Y-93525921D01*
X220589988Y-93361920D01*
X220723019Y-93171933D01*
X220821038Y-92961730D01*
X220881067Y-92737701D01*
X220901281Y-92506651D01*
X220898838Y-92478732D01*
X220881067Y-92275606D01*
X220881067Y-92275601D01*
X220821038Y-92051572D01*
X220723019Y-91841370D01*
X220723017Y-91841367D01*
X220723016Y-91841365D01*
X220589991Y-91651386D01*
X220589986Y-91651380D01*
X220425987Y-91487381D01*
X220358320Y-91440000D01*
X220236000Y-91354350D01*
X220224596Y-91349032D01*
X220172158Y-91302861D01*
X220153006Y-91235667D01*
X220173222Y-91168786D01*
X220224596Y-91124269D01*
X220236000Y-91118952D01*
X220425987Y-90985921D01*
X220589988Y-90821920D01*
X220723019Y-90631933D01*
X220821038Y-90421730D01*
X220881067Y-90197701D01*
X220901281Y-89966651D01*
X220881067Y-89735601D01*
X220821038Y-89511572D01*
X220723019Y-89301370D01*
X220723017Y-89301367D01*
X220723016Y-89301365D01*
X220589991Y-89111386D01*
X220589986Y-89111380D01*
X220425987Y-88947381D01*
X220363851Y-88903873D01*
X220236000Y-88814350D01*
X220224596Y-88809032D01*
X220172158Y-88762861D01*
X220153006Y-88695667D01*
X220173222Y-88628786D01*
X220224596Y-88584269D01*
X220236000Y-88578952D01*
X220425987Y-88445921D01*
X220589988Y-88281920D01*
X220723019Y-88091933D01*
X220821038Y-87881730D01*
X220881067Y-87657701D01*
X220901281Y-87426651D01*
X220898965Y-87400184D01*
X220889196Y-87288517D01*
X220881067Y-87195601D01*
X220821038Y-86971572D01*
X220723019Y-86761370D01*
X220723017Y-86761367D01*
X220723016Y-86761365D01*
X220589991Y-86571386D01*
X220589986Y-86571380D01*
X220425987Y-86407381D01*
X220408975Y-86395469D01*
X220236000Y-86274350D01*
X220224596Y-86269032D01*
X220172158Y-86222861D01*
X220153006Y-86155667D01*
X220173222Y-86088786D01*
X220224596Y-86044269D01*
X220236000Y-86038952D01*
X220425987Y-85905921D01*
X220589988Y-85741920D01*
X220723019Y-85551933D01*
X220821038Y-85341730D01*
X220881067Y-85117701D01*
X220901281Y-84886651D01*
X220900203Y-84874334D01*
X220888468Y-84740194D01*
X220881067Y-84655601D01*
X220821038Y-84431572D01*
X220723019Y-84221370D01*
X220723017Y-84221367D01*
X220723016Y-84221365D01*
X220589991Y-84031386D01*
X220589986Y-84031380D01*
X220425987Y-83867381D01*
X220338326Y-83806000D01*
X220236000Y-83734350D01*
X220224596Y-83729032D01*
X220172158Y-83682861D01*
X220153006Y-83615667D01*
X220173222Y-83548786D01*
X220224596Y-83504269D01*
X220236000Y-83498952D01*
X220425987Y-83365921D01*
X220589988Y-83201920D01*
X220723019Y-83011933D01*
X220821038Y-82801730D01*
X220881067Y-82577701D01*
X220901281Y-82346651D01*
X220881067Y-82115601D01*
X220821038Y-81891572D01*
X220723019Y-81681370D01*
X220723017Y-81681367D01*
X220723016Y-81681365D01*
X220589991Y-81491386D01*
X220589986Y-81491380D01*
X220425987Y-81327381D01*
X220425981Y-81327377D01*
X220236000Y-81194350D01*
X220224596Y-81189032D01*
X220172158Y-81142861D01*
X220153006Y-81075667D01*
X220173222Y-81008786D01*
X220224596Y-80964269D01*
X220236000Y-80958952D01*
X220425987Y-80825921D01*
X220589988Y-80661920D01*
X220723019Y-80471933D01*
X220821038Y-80261730D01*
X220881067Y-80037701D01*
X220901281Y-79806651D01*
X220881067Y-79575601D01*
X220821038Y-79351572D01*
X220723019Y-79141370D01*
X220723017Y-79141367D01*
X220723016Y-79141365D01*
X220589991Y-78951386D01*
X220589986Y-78951380D01*
X220425987Y-78787381D01*
X220425981Y-78787377D01*
X220236000Y-78654350D01*
X220224596Y-78649032D01*
X220172158Y-78602861D01*
X220153006Y-78535667D01*
X220173222Y-78468786D01*
X220224596Y-78424269D01*
X220236000Y-78418952D01*
X220425987Y-78285921D01*
X220589988Y-78121920D01*
X220723019Y-77931933D01*
X220821038Y-77721730D01*
X220881067Y-77497701D01*
X220901281Y-77266651D01*
X220881067Y-77035601D01*
X220821038Y-76811572D01*
X220723019Y-76601370D01*
X220723017Y-76601367D01*
X220723016Y-76601365D01*
X220589991Y-76411386D01*
X220589986Y-76411380D01*
X220425987Y-76247381D01*
X220293308Y-76154478D01*
X220236000Y-76114350D01*
X220224596Y-76109032D01*
X220172158Y-76062861D01*
X220153006Y-75995667D01*
X220173222Y-75928786D01*
X220224596Y-75884269D01*
X220236000Y-75878952D01*
X220425987Y-75745921D01*
X220589988Y-75581920D01*
X220723019Y-75391933D01*
X220821038Y-75181730D01*
X220881067Y-74957701D01*
X220901281Y-74726651D01*
X220881067Y-74495601D01*
X220821038Y-74271572D01*
X220723019Y-74061370D01*
X220723017Y-74061367D01*
X220723016Y-74061365D01*
X220589991Y-73871386D01*
X220589986Y-73871380D01*
X220425987Y-73707381D01*
X220425981Y-73707377D01*
X220236000Y-73574350D01*
X220224596Y-73569032D01*
X220172158Y-73522861D01*
X220153006Y-73455667D01*
X220173222Y-73388786D01*
X220224596Y-73344269D01*
X220236000Y-73338952D01*
X220425987Y-73205921D01*
X220589988Y-73041920D01*
X220723019Y-72851933D01*
X220821038Y-72641730D01*
X220881067Y-72417701D01*
X220901281Y-72186651D01*
X220881067Y-71955601D01*
X220821038Y-71731572D01*
X220723019Y-71521370D01*
X220723017Y-71521367D01*
X220723016Y-71521365D01*
X220589991Y-71331386D01*
X220589986Y-71331380D01*
X220425987Y-71167381D01*
X220369201Y-71127619D01*
X220236000Y-71034350D01*
X220224596Y-71029032D01*
X220172158Y-70982861D01*
X220153006Y-70915667D01*
X220173222Y-70848786D01*
X220224596Y-70804269D01*
X220236000Y-70798952D01*
X220425987Y-70665921D01*
X220589988Y-70501920D01*
X220723019Y-70311933D01*
X220821038Y-70101730D01*
X220881067Y-69877701D01*
X220901281Y-69646651D01*
X220881067Y-69415601D01*
X220821038Y-69191572D01*
X220723019Y-68981370D01*
X220723017Y-68981367D01*
X220723016Y-68981365D01*
X220589991Y-68791386D01*
X220589986Y-68791380D01*
X220425987Y-68627381D01*
X220425981Y-68627377D01*
X220236000Y-68494350D01*
X220224596Y-68489032D01*
X220172158Y-68442861D01*
X220153006Y-68375667D01*
X220173222Y-68308786D01*
X220224596Y-68264269D01*
X220236000Y-68258952D01*
X220425987Y-68125921D01*
X220589988Y-67961920D01*
X220723019Y-67771933D01*
X220821038Y-67561730D01*
X220881067Y-67337701D01*
X220901281Y-67106651D01*
X220881067Y-66875601D01*
X220821038Y-66651572D01*
X220723019Y-66441370D01*
X220723017Y-66441367D01*
X220723016Y-66441365D01*
X220589991Y-66251386D01*
X220589986Y-66251380D01*
X220425987Y-66087381D01*
X220358320Y-66040000D01*
X220236000Y-65954350D01*
X220224596Y-65949032D01*
X220172158Y-65902861D01*
X220153006Y-65835667D01*
X220173222Y-65768786D01*
X220224596Y-65724269D01*
X220236000Y-65718952D01*
X220425987Y-65585921D01*
X220589988Y-65421920D01*
X220723019Y-65231933D01*
X220821038Y-65021730D01*
X220881067Y-64797701D01*
X220901281Y-64566651D01*
X220897966Y-64528765D01*
X220891399Y-64453698D01*
X220881067Y-64335601D01*
X220821038Y-64111572D01*
X220723019Y-63901370D01*
X220723017Y-63901367D01*
X220723016Y-63901365D01*
X220589991Y-63711386D01*
X220589986Y-63711380D01*
X220425987Y-63547381D01*
X220425981Y-63547377D01*
X220236000Y-63414350D01*
X220025797Y-63316331D01*
X220025794Y-63316330D01*
X220025792Y-63316329D01*
X219801769Y-63256302D01*
X219801762Y-63256301D01*
X219570720Y-63236088D01*
X219570716Y-63236088D01*
X219339673Y-63256301D01*
X219339666Y-63256302D01*
X219115635Y-63316332D01*
X218905436Y-63414350D01*
X218905432Y-63414352D01*
X218715453Y-63547377D01*
X218559688Y-63703142D01*
X218498365Y-63736626D01*
X218428673Y-63731642D01*
X218372740Y-63689770D01*
X218353641Y-63641218D01*
X218351098Y-63641819D01*
X218349314Y-63634271D01*
X218299072Y-63499564D01*
X218299068Y-63499557D01*
X218212908Y-63384463D01*
X218212905Y-63384460D01*
X218097811Y-63298300D01*
X218097804Y-63298296D01*
X217963097Y-63248054D01*
X217963090Y-63248052D01*
X217903562Y-63241651D01*
X217280718Y-63241651D01*
X217280718Y-64074967D01*
X217251899Y-64057442D01*
X217106314Y-64016651D01*
X216993096Y-64016651D01*
X216880935Y-64032067D01*
X216780718Y-64075597D01*
X216780718Y-63241651D01*
X216157873Y-63241651D01*
X216098345Y-63248052D01*
X216098338Y-63248054D01*
X215963631Y-63298296D01*
X215963624Y-63298300D01*
X215848530Y-63384460D01*
X215848527Y-63384463D01*
X215762367Y-63499557D01*
X215762363Y-63499564D01*
X215712121Y-63634271D01*
X215712119Y-63634278D01*
X215705718Y-63693806D01*
X215705718Y-64316651D01*
X216535866Y-64316651D01*
X216487159Y-64453698D01*
X216476841Y-64604537D01*
X216507602Y-64752566D01*
X216540808Y-64816651D01*
X215705718Y-64816651D01*
X215705718Y-65439495D01*
X215712119Y-65499023D01*
X215712121Y-65499030D01*
X215762363Y-65633737D01*
X215762367Y-65633744D01*
X215848527Y-65748838D01*
X215848530Y-65748841D01*
X215963624Y-65835001D01*
X215963631Y-65835005D01*
X216098338Y-65885247D01*
X216105886Y-65887031D01*
X216105229Y-65889810D01*
X216157317Y-65911375D01*
X216197175Y-65968761D01*
X216199680Y-66038586D01*
X216167209Y-66095621D01*
X216011444Y-66251386D01*
X215975113Y-66303274D01*
X215920537Y-66346899D01*
X215873538Y-66356151D01*
X200292054Y-66356151D01*
X200274084Y-66354842D01*
X200250321Y-66351361D01*
X200204882Y-66355337D01*
X200198280Y-66355915D01*
X200192879Y-66356151D01*
X200184632Y-66356151D01*
X200152955Y-66359853D01*
X200151181Y-66360035D01*
X200120739Y-66362698D01*
X200075547Y-66366652D01*
X200068481Y-66368111D01*
X200068469Y-66368055D01*
X200061112Y-66369686D01*
X200061126Y-66369743D01*
X200054089Y-66371411D01*
X199982734Y-66397380D01*
X199981034Y-66397971D01*
X199909017Y-66421836D01*
X199902475Y-66424887D01*
X199902450Y-66424834D01*
X199895657Y-66428122D01*
X199895683Y-66428174D01*
X199889229Y-66431415D01*
X199825817Y-66473121D01*
X199824297Y-66474090D01*
X199759697Y-66513936D01*
X199754032Y-66518416D01*
X199753996Y-66518370D01*
X199748147Y-66523135D01*
X199748184Y-66523179D01*
X199742658Y-66527815D01*
X199690561Y-66583033D01*
X199689305Y-66584326D01*
X186366181Y-79907450D01*
X186304858Y-79940935D01*
X186235166Y-79935951D01*
X186179233Y-79894079D01*
X186154816Y-79828615D01*
X186154500Y-79819769D01*
X186154500Y-78604516D01*
X186154500Y-77386193D01*
X186174184Y-77319158D01*
X186186343Y-77303233D01*
X186195859Y-77292665D01*
X186285250Y-77137835D01*
X186340497Y-76967803D01*
X186359185Y-76790000D01*
X186340497Y-76612197D01*
X186287525Y-76449167D01*
X186285252Y-76442170D01*
X186285249Y-76442164D01*
X186195859Y-76287335D01*
X186149003Y-76235296D01*
X186076235Y-76154478D01*
X186076232Y-76154476D01*
X186076231Y-76154475D01*
X186076230Y-76154474D01*
X185931593Y-76049388D01*
X185768267Y-75976671D01*
X185768265Y-75976670D01*
X185640594Y-75949533D01*
X185593391Y-75939500D01*
X185414609Y-75939500D01*
X185383954Y-75946015D01*
X185239733Y-75976670D01*
X185239728Y-75976672D01*
X185076408Y-76049387D01*
X184931768Y-76154475D01*
X184812140Y-76287336D01*
X184722750Y-76442164D01*
X184722747Y-76442170D01*
X184667504Y-76612192D01*
X184667503Y-76612194D01*
X184648815Y-76789999D01*
X184667503Y-76967805D01*
X184667504Y-76967807D01*
X184722747Y-77137829D01*
X184722750Y-77137835D01*
X184812141Y-77292665D01*
X184816944Y-77297999D01*
X184821648Y-77303223D01*
X184851879Y-77366213D01*
X184853500Y-77386197D01*
X184853500Y-93625061D01*
X184833815Y-93692100D01*
X184781011Y-93737855D01*
X184711853Y-93747799D01*
X184703720Y-93746352D01*
X184700232Y-93745610D01*
X184587988Y-93721752D01*
X184526509Y-93688561D01*
X184526090Y-93688144D01*
X183235177Y-92397231D01*
X183201692Y-92335908D01*
X183206676Y-92266216D01*
X183248548Y-92210283D01*
X183272418Y-92196272D01*
X183307593Y-92180612D01*
X183452230Y-92075526D01*
X183453176Y-92074476D01*
X183478148Y-92046741D01*
X183571859Y-91942665D01*
X183661250Y-91787835D01*
X183716497Y-91617803D01*
X183735185Y-91440000D01*
X183716497Y-91262197D01*
X183686146Y-91168786D01*
X183661252Y-91092170D01*
X183661249Y-91092164D01*
X183657003Y-91084809D01*
X183571859Y-90937335D01*
X183562349Y-90926773D01*
X183532120Y-90863782D01*
X183530500Y-90843802D01*
X183530500Y-60679636D01*
X183550185Y-60612597D01*
X183602989Y-60566842D01*
X183672147Y-60556898D01*
X183706902Y-60567253D01*
X183804670Y-60612843D01*
X184016023Y-60669475D01*
X184198926Y-60685476D01*
X184233998Y-60688545D01*
X184234000Y-60688545D01*
X184234002Y-60688545D01*
X184262254Y-60686073D01*
X184451977Y-60669475D01*
X184663330Y-60612843D01*
X184861639Y-60520370D01*
X185040877Y-60394866D01*
X185195598Y-60240145D01*
X185321102Y-60060907D01*
X185391618Y-59909682D01*
X185437790Y-59857245D01*
X185504984Y-59838093D01*
X185571865Y-59858309D01*
X185616381Y-59909682D01*
X185686898Y-60060907D01*
X185812402Y-60240145D01*
X185967123Y-60394866D01*
X186146361Y-60520370D01*
X186344670Y-60612843D01*
X186556023Y-60669475D01*
X186738926Y-60685476D01*
X186773998Y-60688545D01*
X186774000Y-60688545D01*
X186774002Y-60688545D01*
X186802254Y-60686073D01*
X186991977Y-60669475D01*
X187203330Y-60612843D01*
X187401639Y-60520370D01*
X187580877Y-60394866D01*
X187735598Y-60240145D01*
X187861102Y-60060907D01*
X187931618Y-59909682D01*
X187977790Y-59857245D01*
X188044984Y-59838093D01*
X188111865Y-59858309D01*
X188156381Y-59909682D01*
X188226898Y-60060907D01*
X188352402Y-60240145D01*
X188507123Y-60394866D01*
X188686361Y-60520370D01*
X188884670Y-60612843D01*
X189096023Y-60669475D01*
X189278926Y-60685476D01*
X189313998Y-60688545D01*
X189314000Y-60688545D01*
X189314002Y-60688545D01*
X189342254Y-60686073D01*
X189531977Y-60669475D01*
X189743330Y-60612843D01*
X189941639Y-60520370D01*
X190120877Y-60394866D01*
X190275598Y-60240145D01*
X190401102Y-60060907D01*
X190471618Y-59909682D01*
X190517790Y-59857245D01*
X190584984Y-59838093D01*
X190651865Y-59858309D01*
X190696381Y-59909682D01*
X190766898Y-60060907D01*
X190892402Y-60240145D01*
X191047123Y-60394866D01*
X191226361Y-60520370D01*
X191424670Y-60612843D01*
X191636023Y-60669475D01*
X191818926Y-60685476D01*
X191853998Y-60688545D01*
X191854000Y-60688545D01*
X191854002Y-60688545D01*
X191882254Y-60686073D01*
X192071977Y-60669475D01*
X192283330Y-60612843D01*
X192481639Y-60520370D01*
X192660877Y-60394866D01*
X192815598Y-60240145D01*
X192941102Y-60060907D01*
X193011618Y-59909682D01*
X193057790Y-59857245D01*
X193124984Y-59838093D01*
X193191865Y-59858309D01*
X193236381Y-59909682D01*
X193306898Y-60060907D01*
X193432402Y-60240145D01*
X193587118Y-60394861D01*
X193587124Y-60394867D01*
X193690623Y-60467337D01*
X193734248Y-60521913D01*
X193743500Y-60568912D01*
X193743500Y-62480494D01*
X193741732Y-62496505D01*
X193741974Y-62496528D01*
X193741239Y-62504294D01*
X193743469Y-62575235D01*
X193743500Y-62577183D01*
X193743500Y-62606920D01*
X193743501Y-62606940D01*
X193744418Y-62614206D01*
X193744876Y-62620024D01*
X193746402Y-62668567D01*
X193746403Y-62668570D01*
X193752323Y-62688948D01*
X193756268Y-62707996D01*
X193758928Y-62729054D01*
X193758931Y-62729064D01*
X193776813Y-62774230D01*
X193778705Y-62779758D01*
X193792254Y-62826395D01*
X193792255Y-62826397D01*
X193803060Y-62844666D01*
X193811617Y-62862134D01*
X193817226Y-62876300D01*
X193819432Y-62881872D01*
X193847983Y-62921170D01*
X193851188Y-62926049D01*
X193875919Y-62967865D01*
X193875923Y-62967869D01*
X193890925Y-62982871D01*
X193903563Y-62997669D01*
X193916033Y-63014833D01*
X193916036Y-63014836D01*
X193916037Y-63014837D01*
X193953476Y-63045809D01*
X193957776Y-63049722D01*
X195091882Y-64183828D01*
X196159564Y-65251510D01*
X196169635Y-65264080D01*
X196169822Y-65263926D01*
X196174795Y-65269937D01*
X196174797Y-65269939D01*
X196174798Y-65269940D01*
X196183139Y-65277773D01*
X196226542Y-65318531D01*
X196227909Y-65319855D01*
X196248965Y-65340911D01*
X196248968Y-65340913D01*
X196254757Y-65345405D01*
X196259197Y-65349197D01*
X196288498Y-65376711D01*
X196294607Y-65382448D01*
X196294609Y-65382449D01*
X196313205Y-65392672D01*
X196329470Y-65403357D01*
X196346232Y-65416360D01*
X196346235Y-65416361D01*
X196346236Y-65416362D01*
X196390823Y-65435656D01*
X196396059Y-65438221D01*
X196438632Y-65461627D01*
X196454340Y-65465659D01*
X196459186Y-65466904D01*
X196477598Y-65473207D01*
X196497073Y-65481635D01*
X196545071Y-65489237D01*
X196550740Y-65490411D01*
X196597823Y-65502500D01*
X196619051Y-65502500D01*
X196638448Y-65504026D01*
X196659403Y-65507345D01*
X196659404Y-65507346D01*
X196659404Y-65507345D01*
X196659405Y-65507346D01*
X196707760Y-65502775D01*
X196713599Y-65502500D01*
X205232089Y-65502500D01*
X205299128Y-65522185D01*
X205304976Y-65526182D01*
X205396407Y-65592612D01*
X205559733Y-65665329D01*
X205734609Y-65702500D01*
X205734610Y-65702500D01*
X205913389Y-65702500D01*
X205913391Y-65702500D01*
X206088267Y-65665329D01*
X206251593Y-65592612D01*
X206396230Y-65487526D01*
X206401535Y-65481635D01*
X206439477Y-65439495D01*
X206515859Y-65354665D01*
X206605250Y-65199835D01*
X206660497Y-65029803D01*
X206679185Y-64852000D01*
X206673757Y-64800363D01*
X206686326Y-64731637D01*
X206734057Y-64680613D01*
X206771290Y-64666115D01*
X206850267Y-64649329D01*
X207013593Y-64576612D01*
X207158230Y-64471526D01*
X207174283Y-64453698D01*
X207184148Y-64442741D01*
X207277859Y-64338665D01*
X207367250Y-64183835D01*
X207422497Y-64013803D01*
X207423674Y-64010182D01*
X207463112Y-63952506D01*
X207527470Y-63925308D01*
X207541605Y-63924500D01*
X207691389Y-63924500D01*
X207691391Y-63924500D01*
X207866267Y-63887329D01*
X208029593Y-63814612D01*
X208174230Y-63709526D01*
X208179979Y-63703142D01*
X208200148Y-63680741D01*
X208293859Y-63576665D01*
X208383250Y-63421835D01*
X208438497Y-63251803D01*
X208457185Y-63074000D01*
X208438497Y-62896197D01*
X208399749Y-62776944D01*
X208383252Y-62726170D01*
X208383249Y-62726164D01*
X208367172Y-62698317D01*
X208293859Y-62571335D01*
X208233495Y-62504294D01*
X208174235Y-62438478D01*
X208174232Y-62438476D01*
X208174231Y-62438475D01*
X208174230Y-62438474D01*
X208029593Y-62333388D01*
X207866267Y-62260671D01*
X207866265Y-62260670D01*
X207738594Y-62233533D01*
X207691391Y-62223500D01*
X207512609Y-62223500D01*
X207481954Y-62230015D01*
X207337733Y-62260670D01*
X207337728Y-62260672D01*
X207174408Y-62333388D01*
X207174403Y-62333390D01*
X207082974Y-62399818D01*
X207017168Y-62423298D01*
X207010089Y-62423500D01*
X203350808Y-62423500D01*
X203283769Y-62403815D01*
X203263127Y-62387181D01*
X202700819Y-61824872D01*
X202667334Y-61763549D01*
X202664500Y-61737191D01*
X202664500Y-60568912D01*
X202684185Y-60501873D01*
X202717377Y-60467337D01*
X202769286Y-60430990D01*
X202820877Y-60394866D01*
X202975598Y-60240145D01*
X203101102Y-60060907D01*
X203171619Y-59909682D01*
X203217789Y-59857245D01*
X203284982Y-59838093D01*
X203351863Y-59858308D01*
X203396381Y-59909684D01*
X203466897Y-60060906D01*
X203491998Y-60096754D01*
X203592402Y-60240145D01*
X203747123Y-60394866D01*
X203926361Y-60520370D01*
X204124670Y-60612843D01*
X204336023Y-60669475D01*
X204518926Y-60685476D01*
X204553998Y-60688545D01*
X204554000Y-60688545D01*
X204554002Y-60688545D01*
X204582254Y-60686073D01*
X204771977Y-60669475D01*
X204983330Y-60612843D01*
X205181639Y-60520370D01*
X205360877Y-60394866D01*
X205515598Y-60240145D01*
X205641102Y-60060907D01*
X205733575Y-59862598D01*
X205790207Y-59651245D01*
X205809277Y-59433268D01*
X205790207Y-59215291D01*
X205753879Y-59079715D01*
X205733577Y-59003945D01*
X205733576Y-59003944D01*
X205733575Y-59003938D01*
X205641102Y-58805630D01*
X205641099Y-58805626D01*
X205641099Y-58805625D01*
X205515599Y-58626392D01*
X205443066Y-58553859D01*
X205360877Y-58471670D01*
X205181639Y-58346166D01*
X205030414Y-58275649D01*
X204977977Y-58229478D01*
X204958825Y-58162284D01*
X204979041Y-58095403D01*
X205030414Y-58050886D01*
X205181639Y-57980370D01*
X205360877Y-57854866D01*
X205515598Y-57700145D01*
X205641102Y-57520907D01*
X205733575Y-57322598D01*
X205790207Y-57111245D01*
X205809277Y-56893268D01*
X205790207Y-56675291D01*
X205733575Y-56463938D01*
X205641102Y-56265630D01*
X205641099Y-56265626D01*
X205641099Y-56265625D01*
X205515599Y-56086392D01*
X205453624Y-56024417D01*
X205360877Y-55931670D01*
X205181639Y-55806166D01*
X205181640Y-55806166D01*
X205181638Y-55806165D01*
X205056183Y-55747665D01*
X204983330Y-55713693D01*
X204983326Y-55713692D01*
X204983322Y-55713690D01*
X204771977Y-55657061D01*
X204554002Y-55637991D01*
X204553998Y-55637991D01*
X204408681Y-55650704D01*
X204336023Y-55657061D01*
X204336020Y-55657061D01*
X204124677Y-55713690D01*
X204124668Y-55713694D01*
X203926361Y-55806166D01*
X203926357Y-55806168D01*
X203747121Y-55931670D01*
X203592402Y-56086389D01*
X203466900Y-56265625D01*
X203466898Y-56265629D01*
X203396382Y-56416851D01*
X203350209Y-56469290D01*
X203283016Y-56488442D01*
X203216135Y-56468226D01*
X203171618Y-56416851D01*
X203136293Y-56341097D01*
X203101102Y-56265630D01*
X203101099Y-56265626D01*
X203101099Y-56265625D01*
X202975599Y-56086392D01*
X202913624Y-56024417D01*
X202820877Y-55931670D01*
X202641639Y-55806166D01*
X202641640Y-55806166D01*
X202641638Y-55806165D01*
X202516183Y-55747665D01*
X202443330Y-55713693D01*
X202443326Y-55713692D01*
X202443322Y-55713690D01*
X202231977Y-55657061D01*
X202014002Y-55637991D01*
X202013998Y-55637991D01*
X201868682Y-55650704D01*
X201796023Y-55657061D01*
X201796020Y-55657061D01*
X201584677Y-55713690D01*
X201584668Y-55713694D01*
X201386361Y-55806166D01*
X201386357Y-55806168D01*
X201207121Y-55931670D01*
X201052402Y-56086389D01*
X200926900Y-56265625D01*
X200926898Y-56265629D01*
X200856382Y-56416851D01*
X200810209Y-56469290D01*
X200743016Y-56488442D01*
X200676135Y-56468226D01*
X200631618Y-56416851D01*
X200596293Y-56341097D01*
X200561102Y-56265630D01*
X200561099Y-56265626D01*
X200561099Y-56265625D01*
X200435599Y-56086392D01*
X200373624Y-56024417D01*
X200280877Y-55931670D01*
X200101639Y-55806166D01*
X200101640Y-55806166D01*
X200101638Y-55806165D01*
X199976183Y-55747665D01*
X199903330Y-55713693D01*
X199903326Y-55713692D01*
X199903322Y-55713690D01*
X199691977Y-55657061D01*
X199474002Y-55637991D01*
X199473998Y-55637991D01*
X199328682Y-55650704D01*
X199256023Y-55657061D01*
X199256020Y-55657061D01*
X199044677Y-55713690D01*
X199044668Y-55713694D01*
X198846361Y-55806166D01*
X198846357Y-55806168D01*
X198667121Y-55931670D01*
X198512402Y-56086389D01*
X198386900Y-56265625D01*
X198386898Y-56265629D01*
X198316382Y-56416851D01*
X198270209Y-56469290D01*
X198203016Y-56488442D01*
X198136135Y-56468226D01*
X198091618Y-56416851D01*
X198056293Y-56341097D01*
X198021102Y-56265630D01*
X198021099Y-56265626D01*
X198021099Y-56265625D01*
X197895599Y-56086392D01*
X197833624Y-56024417D01*
X197740877Y-55931670D01*
X197561639Y-55806166D01*
X197561640Y-55806166D01*
X197561638Y-55806165D01*
X197436183Y-55747665D01*
X197363330Y-55713693D01*
X197363326Y-55713692D01*
X197363322Y-55713690D01*
X197151977Y-55657061D01*
X196934002Y-55637991D01*
X196933998Y-55637991D01*
X196788681Y-55650704D01*
X196716023Y-55657061D01*
X196716020Y-55657061D01*
X196504677Y-55713690D01*
X196504668Y-55713694D01*
X196306361Y-55806166D01*
X196306357Y-55806168D01*
X196127121Y-55931670D01*
X195972402Y-56086389D01*
X195846900Y-56265625D01*
X195846898Y-56265629D01*
X195776382Y-56416851D01*
X195730209Y-56469290D01*
X195663016Y-56488442D01*
X195596135Y-56468226D01*
X195551618Y-56416851D01*
X195516293Y-56341097D01*
X195481102Y-56265630D01*
X195481099Y-56265626D01*
X195481099Y-56265625D01*
X195355599Y-56086392D01*
X195293624Y-56024417D01*
X195200877Y-55931670D01*
X195021639Y-55806166D01*
X195021640Y-55806166D01*
X195021638Y-55806165D01*
X194896183Y-55747665D01*
X194823330Y-55713693D01*
X194823326Y-55713692D01*
X194823322Y-55713690D01*
X194611977Y-55657061D01*
X194394002Y-55637991D01*
X194393998Y-55637991D01*
X194176029Y-55657060D01*
X194176025Y-55657060D01*
X194176023Y-55657061D01*
X194176017Y-55657062D01*
X194176015Y-55657063D01*
X194167659Y-55659302D01*
X194097809Y-55657638D01*
X194047886Y-55627208D01*
X191996166Y-53575488D01*
X191986093Y-53562914D01*
X191985906Y-53563070D01*
X191980930Y-53557055D01*
X191948114Y-53526240D01*
X191929164Y-53508445D01*
X191927790Y-53507112D01*
X191906767Y-53486089D01*
X191900972Y-53481594D01*
X191896530Y-53477799D01*
X191861128Y-53444554D01*
X191861120Y-53444548D01*
X191842524Y-53434325D01*
X191826263Y-53423644D01*
X191809495Y-53410637D01*
X191785912Y-53400432D01*
X191764910Y-53391343D01*
X191759688Y-53388786D01*
X191717100Y-53365373D01*
X191717097Y-53365372D01*
X191696533Y-53360092D01*
X191678128Y-53353790D01*
X191658659Y-53345365D01*
X191658653Y-53345363D01*
X191610683Y-53337766D01*
X191604968Y-53336582D01*
X191588504Y-53332355D01*
X191557912Y-53324500D01*
X191557909Y-53324500D01*
X191536687Y-53324500D01*
X191517287Y-53322973D01*
X191496328Y-53319653D01*
X191496327Y-53319653D01*
X191472518Y-53321903D01*
X191447962Y-53324225D01*
X191442124Y-53324500D01*
X183142139Y-53324500D01*
X183126128Y-53322732D01*
X183126106Y-53322974D01*
X183118338Y-53322239D01*
X183047383Y-53324469D01*
X183045436Y-53324500D01*
X183015708Y-53324500D01*
X183015704Y-53324500D01*
X183015693Y-53324501D01*
X183008437Y-53325417D01*
X183002619Y-53325875D01*
X182954066Y-53327401D01*
X182939506Y-53331630D01*
X182933673Y-53333325D01*
X182914629Y-53337269D01*
X182893575Y-53339929D01*
X182893573Y-53339929D01*
X182848414Y-53357808D01*
X182842888Y-53359700D01*
X182796234Y-53373254D01*
X182777958Y-53384063D01*
X182760493Y-53392619D01*
X182740757Y-53400433D01*
X182701457Y-53428986D01*
X182696575Y-53432193D01*
X182654769Y-53456917D01*
X182639757Y-53471929D01*
X182624969Y-53484558D01*
X182607800Y-53497032D01*
X182607798Y-53497034D01*
X182576827Y-53534470D01*
X182572895Y-53538791D01*
X180158127Y-55953558D01*
X180096804Y-55987043D01*
X180027112Y-55982059D01*
X179982765Y-55953558D01*
X179960881Y-55931674D01*
X179960881Y-55931673D01*
X179960877Y-55931670D01*
X179781639Y-55806166D01*
X179781640Y-55806166D01*
X179781638Y-55806165D01*
X179656183Y-55747665D01*
X179583330Y-55713693D01*
X179583326Y-55713692D01*
X179583322Y-55713690D01*
X179371977Y-55657061D01*
X179154002Y-55637991D01*
X179153998Y-55637991D01*
X179008682Y-55650704D01*
X178936023Y-55657061D01*
X178936020Y-55657061D01*
X178724677Y-55713690D01*
X178724668Y-55713694D01*
X178526361Y-55806166D01*
X178526357Y-55806168D01*
X178347121Y-55931670D01*
X178192402Y-56086389D01*
X178066900Y-56265625D01*
X178066900Y-56265626D01*
X177996381Y-56416852D01*
X177950208Y-56469291D01*
X177883014Y-56488442D01*
X177816133Y-56468226D01*
X177771618Y-56416852D01*
X177701102Y-56265630D01*
X177701099Y-56265626D01*
X177701099Y-56265625D01*
X177575599Y-56086392D01*
X177513624Y-56024417D01*
X177420877Y-55931670D01*
X177241639Y-55806166D01*
X177241640Y-55806166D01*
X177241638Y-55806165D01*
X177116183Y-55747665D01*
X177043330Y-55713693D01*
X177043326Y-55713692D01*
X177043322Y-55713690D01*
X176831977Y-55657061D01*
X176614002Y-55637991D01*
X176613998Y-55637991D01*
X176468681Y-55650704D01*
X176396023Y-55657061D01*
X176396020Y-55657061D01*
X176184677Y-55713690D01*
X176184668Y-55713694D01*
X175986361Y-55806166D01*
X175986357Y-55806168D01*
X175807121Y-55931670D01*
X175652402Y-56086389D01*
X175526900Y-56265625D01*
X175526900Y-56265626D01*
X175456381Y-56416852D01*
X175410208Y-56469291D01*
X175343014Y-56488442D01*
X175276133Y-56468226D01*
X175231618Y-56416852D01*
X175161102Y-56265630D01*
X175161099Y-56265626D01*
X175161099Y-56265625D01*
X175035599Y-56086392D01*
X174973624Y-56024417D01*
X174880877Y-55931670D01*
X174701639Y-55806166D01*
X174701640Y-55806166D01*
X174701638Y-55806165D01*
X174576183Y-55747665D01*
X174503330Y-55713693D01*
X174503326Y-55713692D01*
X174503322Y-55713690D01*
X174291977Y-55657061D01*
X174074002Y-55637991D01*
X174073998Y-55637991D01*
X173928682Y-55650704D01*
X173856023Y-55657061D01*
X173856020Y-55657061D01*
X173644677Y-55713690D01*
X173644668Y-55713694D01*
X173446361Y-55806166D01*
X173446357Y-55806168D01*
X173267121Y-55931670D01*
X173112402Y-56086389D01*
X172986900Y-56265625D01*
X172986900Y-56265626D01*
X172916381Y-56416852D01*
X172870208Y-56469291D01*
X172803014Y-56488442D01*
X172736133Y-56468226D01*
X172691618Y-56416852D01*
X172621102Y-56265630D01*
X172621099Y-56265626D01*
X172621099Y-56265625D01*
X172495599Y-56086392D01*
X172433624Y-56024417D01*
X172340877Y-55931670D01*
X172161639Y-55806166D01*
X172161640Y-55806166D01*
X172161638Y-55806165D01*
X172036183Y-55747665D01*
X171963330Y-55713693D01*
X171963326Y-55713692D01*
X171963322Y-55713690D01*
X171751977Y-55657061D01*
X171534002Y-55637991D01*
X171533998Y-55637991D01*
X171388682Y-55650704D01*
X171316023Y-55657061D01*
X171316020Y-55657061D01*
X171104677Y-55713690D01*
X171104668Y-55713694D01*
X170906361Y-55806166D01*
X170906357Y-55806168D01*
X170727121Y-55931670D01*
X170572402Y-56086389D01*
X170446900Y-56265625D01*
X170446900Y-56265626D01*
X170376381Y-56416852D01*
X170330208Y-56469291D01*
X170263014Y-56488442D01*
X170196133Y-56468226D01*
X170151618Y-56416852D01*
X170081102Y-56265630D01*
X170081099Y-56265626D01*
X170081099Y-56265625D01*
X169955599Y-56086392D01*
X169893624Y-56024417D01*
X169800877Y-55931670D01*
X169621639Y-55806166D01*
X169621640Y-55806166D01*
X169621638Y-55806165D01*
X169496183Y-55747665D01*
X169423330Y-55713693D01*
X169423326Y-55713692D01*
X169423322Y-55713690D01*
X169211977Y-55657061D01*
X168994002Y-55637991D01*
X168993998Y-55637991D01*
X168848681Y-55650704D01*
X168776023Y-55657061D01*
X168776020Y-55657061D01*
X168564677Y-55713690D01*
X168564668Y-55713694D01*
X168366361Y-55806166D01*
X168366357Y-55806168D01*
X168187121Y-55931670D01*
X168032402Y-56086389D01*
X167906900Y-56265625D01*
X167906900Y-56265626D01*
X167836381Y-56416852D01*
X167790208Y-56469291D01*
X167723014Y-56488442D01*
X167656133Y-56468226D01*
X167611618Y-56416852D01*
X167541102Y-56265630D01*
X167541099Y-56265626D01*
X167541099Y-56265625D01*
X167415599Y-56086392D01*
X167353624Y-56024417D01*
X167260877Y-55931670D01*
X167081639Y-55806166D01*
X167081640Y-55806166D01*
X167081638Y-55806165D01*
X166956183Y-55747665D01*
X166883330Y-55713693D01*
X166883326Y-55713692D01*
X166883322Y-55713690D01*
X166671977Y-55657061D01*
X166454002Y-55637991D01*
X166453998Y-55637991D01*
X166308681Y-55650704D01*
X166236023Y-55657061D01*
X166236020Y-55657061D01*
X166024677Y-55713690D01*
X166024668Y-55713694D01*
X165826361Y-55806166D01*
X165826357Y-55806168D01*
X165647121Y-55931670D01*
X165492402Y-56086389D01*
X165366900Y-56265625D01*
X165366898Y-56265629D01*
X165296382Y-56416851D01*
X165250209Y-56469290D01*
X165183016Y-56488442D01*
X165116135Y-56468226D01*
X165071618Y-56416851D01*
X165036293Y-56341097D01*
X165001102Y-56265630D01*
X165001099Y-56265626D01*
X165001099Y-56265625D01*
X164875599Y-56086392D01*
X164813624Y-56024417D01*
X164720877Y-55931670D01*
X164541639Y-55806166D01*
X164541640Y-55806166D01*
X164541638Y-55806165D01*
X164416183Y-55747665D01*
X164343330Y-55713693D01*
X164343326Y-55713692D01*
X164343322Y-55713690D01*
X164131977Y-55657061D01*
X163914002Y-55637991D01*
X163913998Y-55637991D01*
X163768681Y-55650704D01*
X163696023Y-55657061D01*
X163696020Y-55657061D01*
X163484677Y-55713690D01*
X163484668Y-55713694D01*
X163286361Y-55806166D01*
X163286357Y-55806168D01*
X163107121Y-55931670D01*
X162952402Y-56086389D01*
X162826900Y-56265625D01*
X162826898Y-56265629D01*
X162756382Y-56416851D01*
X162710209Y-56469290D01*
X162643016Y-56488442D01*
X162576135Y-56468226D01*
X162531618Y-56416851D01*
X162496293Y-56341097D01*
X162461102Y-56265630D01*
X162461099Y-56265626D01*
X162461099Y-56265625D01*
X162335599Y-56086392D01*
X162273624Y-56024417D01*
X162180877Y-55931670D01*
X162001639Y-55806166D01*
X162001640Y-55806166D01*
X162001638Y-55806165D01*
X161876183Y-55747665D01*
X161803330Y-55713693D01*
X161803326Y-55713692D01*
X161803322Y-55713690D01*
X161591977Y-55657061D01*
X161374002Y-55637991D01*
X161373998Y-55637991D01*
X161228682Y-55650704D01*
X161156023Y-55657061D01*
X161156020Y-55657061D01*
X160944677Y-55713690D01*
X160944668Y-55713694D01*
X160746361Y-55806166D01*
X160746357Y-55806168D01*
X160567121Y-55931670D01*
X160412402Y-56086389D01*
X160286900Y-56265625D01*
X160286898Y-56265629D01*
X160216382Y-56416851D01*
X160170209Y-56469290D01*
X160103016Y-56488442D01*
X160036135Y-56468226D01*
X159991618Y-56416851D01*
X159956293Y-56341097D01*
X159921102Y-56265630D01*
X159921099Y-56265626D01*
X159921099Y-56265625D01*
X159795599Y-56086392D01*
X159733624Y-56024417D01*
X159640877Y-55931670D01*
X159461639Y-55806166D01*
X159461640Y-55806166D01*
X159461638Y-55806165D01*
X159336183Y-55747665D01*
X159263330Y-55713693D01*
X159263326Y-55713692D01*
X159263322Y-55713690D01*
X159051977Y-55657061D01*
X158834002Y-55637991D01*
X158833998Y-55637991D01*
X158688682Y-55650704D01*
X158616023Y-55657061D01*
X158616020Y-55657061D01*
X158404677Y-55713690D01*
X158404668Y-55713694D01*
X158206361Y-55806166D01*
X158206357Y-55806168D01*
X158027121Y-55931670D01*
X157872402Y-56086389D01*
X157746900Y-56265625D01*
X157746898Y-56265629D01*
X157654426Y-56463936D01*
X157654422Y-56463945D01*
X157597793Y-56675288D01*
X157597793Y-56675291D01*
X157578723Y-56893268D01*
X157597081Y-57103112D01*
X157597793Y-57111243D01*
X157597793Y-57111247D01*
X157654422Y-57322590D01*
X157654424Y-57322594D01*
X157654425Y-57322598D01*
X157676382Y-57369684D01*
X157746897Y-57520906D01*
X157746898Y-57520907D01*
X157872402Y-57700145D01*
X158027123Y-57854866D01*
X158206361Y-57980370D01*
X158222352Y-57987826D01*
X158274790Y-58033995D01*
X158293944Y-58101187D01*
X158273731Y-58168069D01*
X158220567Y-58213406D01*
X158199877Y-58220542D01*
X158155306Y-58231627D01*
X158155303Y-58231628D01*
X157984707Y-58316235D01*
X157984704Y-58316237D01*
X157836278Y-58435545D01*
X157836277Y-58435546D01*
X157716969Y-58583972D01*
X157716967Y-58583975D01*
X157632360Y-58754570D01*
X157586400Y-58939375D01*
X157583500Y-58982147D01*
X157583500Y-59884390D01*
X157583501Y-59884393D01*
X157586399Y-59927154D01*
X157586399Y-59927155D01*
X157632360Y-60111964D01*
X157716967Y-60282560D01*
X157716969Y-60282563D01*
X157836277Y-60430989D01*
X157836278Y-60430990D01*
X157984704Y-60550298D01*
X157984707Y-60550300D01*
X158155302Y-60634907D01*
X158155303Y-60634907D01*
X158155307Y-60634909D01*
X158340111Y-60680868D01*
X158382877Y-60683768D01*
X159285122Y-60683767D01*
X159327889Y-60680868D01*
X159512693Y-60634909D01*
X159683296Y-60550298D01*
X159831722Y-60430990D01*
X159951030Y-60282564D01*
X160035641Y-60111961D01*
X160046725Y-60067391D01*
X160082006Y-60007086D01*
X160144292Y-59975427D01*
X160213806Y-59982468D01*
X160268478Y-60025973D01*
X160279438Y-60044909D01*
X160286898Y-60060907D01*
X160412402Y-60240145D01*
X160567123Y-60394866D01*
X160746361Y-60520370D01*
X160944670Y-60612843D01*
X161156023Y-60669475D01*
X161338926Y-60685476D01*
X161373998Y-60688545D01*
X161374000Y-60688545D01*
X161374002Y-60688545D01*
X161402254Y-60686073D01*
X161591977Y-60669475D01*
X161803330Y-60612843D01*
X162001639Y-60520370D01*
X162180877Y-60394866D01*
X162335598Y-60240145D01*
X162461102Y-60060907D01*
X162531618Y-59909682D01*
X162577790Y-59857245D01*
X162644984Y-59838093D01*
X162711865Y-59858309D01*
X162756381Y-59909682D01*
X162826898Y-60060907D01*
X162952402Y-60240145D01*
X163107118Y-60394861D01*
X163107124Y-60394867D01*
X163210623Y-60467337D01*
X163254248Y-60521913D01*
X163263500Y-60568912D01*
X163263500Y-64768494D01*
X163261732Y-64784505D01*
X163261974Y-64784528D01*
X163261239Y-64792294D01*
X163263469Y-64863235D01*
X163263500Y-64865183D01*
X163263500Y-64894920D01*
X163263501Y-64894940D01*
X163264418Y-64902206D01*
X163264876Y-64908024D01*
X163266402Y-64956567D01*
X163266403Y-64956570D01*
X163272323Y-64976948D01*
X163276268Y-64995996D01*
X163278928Y-65017054D01*
X163278931Y-65017064D01*
X163296813Y-65062230D01*
X163298705Y-65067758D01*
X163312254Y-65114395D01*
X163312255Y-65114397D01*
X163323060Y-65132666D01*
X163331617Y-65150134D01*
X163337226Y-65164300D01*
X163339432Y-65169872D01*
X163367983Y-65209170D01*
X163371188Y-65214049D01*
X163395919Y-65255865D01*
X163395923Y-65255869D01*
X163410925Y-65270871D01*
X163423563Y-65285669D01*
X163436033Y-65302833D01*
X163436036Y-65302836D01*
X163436037Y-65302837D01*
X163473476Y-65333809D01*
X163477776Y-65337722D01*
X163859005Y-65718951D01*
X164221371Y-66081317D01*
X164254856Y-66142640D01*
X164257010Y-66156031D01*
X164263503Y-66217803D01*
X164263504Y-66217805D01*
X164263504Y-66217807D01*
X164318747Y-66387829D01*
X164318750Y-66387835D01*
X164408141Y-66542665D01*
X164444489Y-66583033D01*
X164527764Y-66675521D01*
X164527767Y-66675523D01*
X164527770Y-66675526D01*
X164672407Y-66780612D01*
X164835733Y-66853329D01*
X165010609Y-66890500D01*
X165010610Y-66890500D01*
X165189389Y-66890500D01*
X165189391Y-66890500D01*
X165364267Y-66853329D01*
X165527593Y-66780612D01*
X165672230Y-66675526D01*
X165791859Y-66542665D01*
X165881250Y-66387835D01*
X165936497Y-66217803D01*
X165955185Y-66040000D01*
X165936497Y-65862197D01*
X165899664Y-65748838D01*
X165881252Y-65692170D01*
X165881249Y-65692164D01*
X165865756Y-65665329D01*
X165791859Y-65537335D01*
X165730629Y-65469332D01*
X165672235Y-65404478D01*
X165672232Y-65404476D01*
X165672231Y-65404475D01*
X165672230Y-65404474D01*
X165527593Y-65299388D01*
X165364267Y-65226671D01*
X165364265Y-65226670D01*
X165227473Y-65197594D01*
X165199989Y-65191752D01*
X165138508Y-65158561D01*
X165138090Y-65158144D01*
X164600819Y-64620872D01*
X164567334Y-64559549D01*
X164564500Y-64533191D01*
X164564500Y-60568912D01*
X164584185Y-60501873D01*
X164617377Y-60467337D01*
X164669286Y-60430990D01*
X164720877Y-60394866D01*
X164875598Y-60240145D01*
X165001102Y-60060907D01*
X165071618Y-59909682D01*
X165117790Y-59857245D01*
X165184984Y-59838093D01*
X165251865Y-59858309D01*
X165296381Y-59909682D01*
X165366898Y-60060907D01*
X165492402Y-60240145D01*
X165647123Y-60394866D01*
X165826361Y-60520370D01*
X166024670Y-60612843D01*
X166236023Y-60669475D01*
X166418926Y-60685476D01*
X166453998Y-60688545D01*
X166454000Y-60688545D01*
X166454002Y-60688545D01*
X166482254Y-60686073D01*
X166671977Y-60669475D01*
X166883330Y-60612843D01*
X167081639Y-60520370D01*
X167260877Y-60394866D01*
X167415598Y-60240145D01*
X167541102Y-60060907D01*
X167611895Y-59909090D01*
X167658066Y-59856653D01*
X167725260Y-59837501D01*
X167792141Y-59857717D01*
X167836658Y-59909092D01*
X167907335Y-60060659D01*
X167950873Y-60122839D01*
X167950875Y-60122840D01*
X168510923Y-59562791D01*
X168534507Y-59643112D01*
X168612239Y-59764066D01*
X168720900Y-59858220D01*
X168851685Y-59917948D01*
X168861466Y-59919354D01*
X168304426Y-60476392D01*
X168366611Y-60519934D01*
X168366613Y-60519935D01*
X168564840Y-60612369D01*
X168564849Y-60612373D01*
X168776105Y-60668978D01*
X168776115Y-60668980D01*
X168993999Y-60688043D01*
X168994001Y-60688043D01*
X169211884Y-60668980D01*
X169211894Y-60668978D01*
X169423150Y-60612373D01*
X169423159Y-60612369D01*
X169621387Y-60519934D01*
X169683572Y-60476392D01*
X169126534Y-59919354D01*
X169136315Y-59917948D01*
X169267100Y-59858220D01*
X169375761Y-59764066D01*
X169453493Y-59643112D01*
X169477076Y-59562792D01*
X170037124Y-60122840D01*
X170080667Y-60060654D01*
X170080668Y-60060652D01*
X170151341Y-59909093D01*
X170197513Y-59856653D01*
X170264706Y-59837501D01*
X170331587Y-59857716D01*
X170376105Y-59909092D01*
X170446897Y-60060906D01*
X170471998Y-60096754D01*
X170572402Y-60240145D01*
X170727123Y-60394866D01*
X170906361Y-60520370D01*
X171104670Y-60612843D01*
X171316023Y-60669475D01*
X171498926Y-60685476D01*
X171533998Y-60688545D01*
X171534000Y-60688545D01*
X171534002Y-60688545D01*
X171562254Y-60686073D01*
X171751977Y-60669475D01*
X171963330Y-60612843D01*
X172161639Y-60520370D01*
X172340877Y-60394866D01*
X172495598Y-60240145D01*
X172621102Y-60060907D01*
X172691618Y-59909682D01*
X172737790Y-59857245D01*
X172804984Y-59838093D01*
X172871865Y-59858309D01*
X172916381Y-59909682D01*
X172986898Y-60060907D01*
X173112402Y-60240145D01*
X173267123Y-60394866D01*
X173446361Y-60520370D01*
X173644670Y-60612843D01*
X173856023Y-60669475D01*
X174038926Y-60685476D01*
X174073998Y-60688545D01*
X174074000Y-60688545D01*
X174074002Y-60688545D01*
X174102254Y-60686073D01*
X174291977Y-60669475D01*
X174503330Y-60612843D01*
X174701639Y-60520370D01*
X174880877Y-60394866D01*
X175035598Y-60240145D01*
X175161102Y-60060907D01*
X175231618Y-59909682D01*
X175277790Y-59857245D01*
X175344984Y-59838093D01*
X175411865Y-59858309D01*
X175456381Y-59909682D01*
X175526898Y-60060907D01*
X175652402Y-60240145D01*
X175807123Y-60394866D01*
X175986361Y-60520370D01*
X176184670Y-60612843D01*
X176396023Y-60669475D01*
X176578926Y-60685476D01*
X176613998Y-60688545D01*
X176614000Y-60688545D01*
X176614002Y-60688545D01*
X176642254Y-60686073D01*
X176831977Y-60669475D01*
X177043330Y-60612843D01*
X177227098Y-60527150D01*
X177296172Y-60516659D01*
X177359956Y-60545179D01*
X177398196Y-60603655D01*
X177403500Y-60639533D01*
X177403500Y-70735500D01*
X177383815Y-70802539D01*
X177331011Y-70848294D01*
X177279500Y-70859500D01*
X177265109Y-70859500D01*
X177234454Y-70866015D01*
X177090233Y-70896670D01*
X177090228Y-70896672D01*
X176926908Y-70969388D01*
X176926903Y-70969390D01*
X176831259Y-71038880D01*
X176772904Y-71059701D01*
X176773139Y-71061181D01*
X176765434Y-71062401D01*
X176765430Y-71062402D01*
X176765431Y-71062402D01*
X176745040Y-71068325D01*
X176725996Y-71072269D01*
X176704942Y-71074929D01*
X176704940Y-71074929D01*
X176659781Y-71092808D01*
X176654255Y-71094700D01*
X176607601Y-71108254D01*
X176589325Y-71119063D01*
X176571860Y-71127619D01*
X176552124Y-71135433D01*
X176512824Y-71163986D01*
X176507942Y-71167193D01*
X176466136Y-71191917D01*
X176451124Y-71206929D01*
X176436336Y-71219558D01*
X176419167Y-71232032D01*
X176419165Y-71232034D01*
X176388194Y-71269470D01*
X176384262Y-71273791D01*
X163621909Y-84036144D01*
X163560586Y-84069629D01*
X163560009Y-84069753D01*
X163395733Y-84104670D01*
X163395728Y-84104672D01*
X163232408Y-84177387D01*
X163087768Y-84282475D01*
X162968140Y-84415336D01*
X162878750Y-84570164D01*
X162878747Y-84570170D01*
X162823504Y-84740192D01*
X162823503Y-84740194D01*
X162804815Y-84917999D01*
X162823503Y-85095805D01*
X162823504Y-85095807D01*
X162831749Y-85121182D01*
X162833744Y-85191024D01*
X162797663Y-85250856D01*
X162734962Y-85281684D01*
X162713818Y-85283500D01*
X160388808Y-85283500D01*
X160321769Y-85263815D01*
X160301127Y-85247181D01*
X160254818Y-85200872D01*
X160221333Y-85139549D01*
X160218499Y-85113191D01*
X160218499Y-84983129D01*
X160218498Y-84983123D01*
X160212091Y-84923517D01*
X160193747Y-84874334D01*
X160188762Y-84804643D01*
X160193747Y-84787665D01*
X160211453Y-84740194D01*
X160212091Y-84738483D01*
X160218500Y-84678873D01*
X160218499Y-83883128D01*
X160212091Y-83823517D01*
X160212089Y-83823513D01*
X160211632Y-83819255D01*
X160211633Y-83792745D01*
X160215012Y-83761315D01*
X160218500Y-83728873D01*
X160218499Y-82933128D01*
X160212091Y-82873517D01*
X160185972Y-82803489D01*
X160161797Y-82738671D01*
X160161793Y-82738664D01*
X160075547Y-82623455D01*
X160075544Y-82623452D01*
X159960335Y-82537206D01*
X159960328Y-82537202D01*
X159825482Y-82486908D01*
X159825483Y-82486908D01*
X159765883Y-82480501D01*
X159765881Y-82480500D01*
X159765873Y-82480500D01*
X159765865Y-82480500D01*
X158791999Y-82480500D01*
X158724960Y-82460815D01*
X158679205Y-82408011D01*
X158667999Y-82356500D01*
X158668000Y-82169526D01*
X158668000Y-81981000D01*
X156042000Y-81981000D01*
X155974961Y-81961315D01*
X155929206Y-81908511D01*
X155918000Y-81857000D01*
X155918000Y-81833172D01*
X155917999Y-81833155D01*
X155911598Y-81773627D01*
X155911596Y-81773620D01*
X155861354Y-81638913D01*
X155861350Y-81638906D01*
X155775190Y-81523812D01*
X155775187Y-81523809D01*
X155660093Y-81437649D01*
X155660086Y-81437645D01*
X155525379Y-81387403D01*
X155525372Y-81387401D01*
X155465844Y-81381000D01*
X155068000Y-81381000D01*
X155068000Y-83381000D01*
X154568000Y-83381000D01*
X154568000Y-81381000D01*
X154170155Y-81381000D01*
X154110627Y-81387401D01*
X154110620Y-81387403D01*
X153975913Y-81437645D01*
X153975906Y-81437649D01*
X153860812Y-81523809D01*
X153860809Y-81523812D01*
X153774649Y-81638906D01*
X153774645Y-81638913D01*
X153724403Y-81773620D01*
X153724401Y-81773627D01*
X153718000Y-81833155D01*
X153718000Y-81857000D01*
X153698315Y-81924039D01*
X153645511Y-81969794D01*
X153594000Y-81981000D01*
X150618000Y-81981000D01*
X150618000Y-82731000D01*
X149518500Y-82731000D01*
X149518499Y-81833128D01*
X149512091Y-81773517D01*
X149501534Y-81745213D01*
X149461797Y-81638671D01*
X149461793Y-81638664D01*
X149375547Y-81523455D01*
X149375544Y-81523452D01*
X149260335Y-81437206D01*
X149260328Y-81437202D01*
X149125482Y-81386908D01*
X149125483Y-81386908D01*
X149065883Y-81380501D01*
X149065881Y-81380500D01*
X149065873Y-81380500D01*
X149065864Y-81380500D01*
X148170129Y-81380500D01*
X148170123Y-81380501D01*
X148110516Y-81386908D01*
X147975671Y-81437202D01*
X147975664Y-81437206D01*
X147860455Y-81523452D01*
X147860452Y-81523455D01*
X147774206Y-81638664D01*
X147774202Y-81638671D01*
X147723908Y-81773517D01*
X147717501Y-81833116D01*
X147717501Y-81833123D01*
X147717500Y-81833135D01*
X147717500Y-82928870D01*
X147717501Y-82928874D01*
X147719100Y-82943746D01*
X147706694Y-83012505D01*
X147659083Y-83063642D01*
X147595810Y-83081000D01*
X146489686Y-83081000D01*
X146422647Y-83061315D01*
X146376892Y-83008511D01*
X146366397Y-82943743D01*
X146367999Y-82928841D01*
X146368000Y-82928827D01*
X146368000Y-82631000D01*
X144718000Y-82631000D01*
X144718000Y-83381000D01*
X144218000Y-83381000D01*
X144218000Y-82631000D01*
X142568000Y-82631000D01*
X141562000Y-82631000D01*
X141562000Y-82131000D01*
X142568000Y-82131000D01*
X144218000Y-82131000D01*
X144218000Y-81381000D01*
X144718000Y-81381000D01*
X144718000Y-82131000D01*
X146368000Y-82131000D01*
X146368000Y-81833172D01*
X146367999Y-81833155D01*
X146361598Y-81773627D01*
X146361596Y-81773620D01*
X146311354Y-81638913D01*
X146311350Y-81638906D01*
X146225190Y-81523812D01*
X146225187Y-81523809D01*
X146110093Y-81437649D01*
X146110086Y-81437645D01*
X145975379Y-81387403D01*
X145975372Y-81387401D01*
X145915844Y-81381000D01*
X144718000Y-81381000D01*
X144218000Y-81381000D01*
X143020155Y-81381000D01*
X142960627Y-81387401D01*
X142960620Y-81387403D01*
X142825913Y-81437645D01*
X142825906Y-81437649D01*
X142710812Y-81523809D01*
X142710809Y-81523812D01*
X142624649Y-81638906D01*
X142624645Y-81638913D01*
X142574403Y-81773620D01*
X142574401Y-81773627D01*
X142568000Y-81833155D01*
X142568000Y-82131000D01*
X141562000Y-82131000D01*
X141562000Y-46434000D01*
X141581685Y-46366961D01*
X141634489Y-46321206D01*
X141686000Y-46310000D01*
X231353500Y-46310000D01*
X231420539Y-46329685D01*
G37*
%TD.AperFunction*%
%TD*%
M02*
