%TF.GenerationSoftware,KiCad,Pcbnew,7.0.5-7.0.5~ubuntu22.04.1*%
%TF.CreationDate,2023-06-12T13:20:56+02:00*%
%TF.ProjectId,OBC_L476RG,4f42435f-4c34-4373-9652-472e6b696361,rev?*%
%TF.SameCoordinates,Original*%
%TF.FileFunction,Soldermask,Bot*%
%TF.FilePolarity,Negative*%
%FSLAX46Y46*%
G04 Gerber Fmt 4.6, Leading zero omitted, Abs format (unit mm)*
G04 Created by KiCad (PCBNEW 7.0.5-7.0.5~ubuntu22.04.1) date 2023-06-12 13:20:56*
%MOMM*%
%LPD*%
G01*
G04 APERTURE LIST*
G04 Aperture macros list*
%AMRoundRect*
0 Rectangle with rounded corners*
0 $1 Rounding radius*
0 $2 $3 $4 $5 $6 $7 $8 $9 X,Y pos of 4 corners*
0 Add a 4 corners polygon primitive as box body*
4,1,4,$2,$3,$4,$5,$6,$7,$8,$9,$2,$3,0*
0 Add four circle primitives for the rounded corners*
1,1,$1+$1,$2,$3*
1,1,$1+$1,$4,$5*
1,1,$1+$1,$6,$7*
1,1,$1+$1,$8,$9*
0 Add four rect primitives between the rounded corners*
20,1,$1+$1,$2,$3,$4,$5,0*
20,1,$1+$1,$4,$5,$6,$7,0*
20,1,$1+$1,$6,$7,$8,$9,0*
20,1,$1+$1,$8,$9,$2,$3,0*%
G04 Aperture macros list end*
%ADD10R,1.650000X1.650000*%
%ADD11C,1.650000*%
%ADD12RoundRect,0.375000X-0.375000X-0.375000X0.375000X-0.375000X0.375000X0.375000X-0.375000X0.375000X0*%
%ADD13C,1.500000*%
G04 APERTURE END LIST*
D10*
%TO.C,J1*%
X217030718Y-64566651D03*
D11*
X219570718Y-64566651D03*
X217030718Y-67106651D03*
X219570718Y-67106651D03*
X217030718Y-69646651D03*
X219570718Y-69646651D03*
X217030718Y-72186651D03*
X219570718Y-72186651D03*
X217030718Y-74726651D03*
X219570718Y-74726651D03*
X217030718Y-77266651D03*
X219570718Y-77266651D03*
X217030718Y-79806651D03*
X219570718Y-79806651D03*
X217030718Y-82346651D03*
X219570718Y-82346651D03*
X217030718Y-84886651D03*
X219570718Y-84886651D03*
X217030718Y-87426651D03*
X219570718Y-87426651D03*
X217030718Y-89966651D03*
X219570718Y-89966651D03*
X217030718Y-92506651D03*
X219570718Y-92506651D03*
X217030718Y-95046651D03*
X219570718Y-95046651D03*
X217030718Y-97586651D03*
X219570718Y-97586651D03*
X217030718Y-100126651D03*
X219570718Y-100126651D03*
X217030718Y-102666651D03*
X219570718Y-102666651D03*
X217030718Y-105206651D03*
X219570718Y-105206651D03*
X217030718Y-107746651D03*
X219570718Y-107746651D03*
X217030718Y-110286651D03*
X219570718Y-110286651D03*
X217030718Y-112826651D03*
X219570718Y-112826651D03*
%TD*%
D12*
%TO.C,U1*%
X158834000Y-120393268D03*
D13*
X158834000Y-117853268D03*
X161374000Y-120393268D03*
X161374000Y-117853268D03*
X163914000Y-120393268D03*
X163914000Y-117853268D03*
X166454000Y-120393268D03*
X166454000Y-117853268D03*
X168994000Y-120393268D03*
X168994000Y-117853268D03*
X171534000Y-120393268D03*
X171534000Y-117853268D03*
X174074000Y-120393268D03*
X174074000Y-117853268D03*
X176614000Y-120393268D03*
X176614000Y-117853268D03*
X179154000Y-120393268D03*
X179154000Y-117853268D03*
X181694000Y-120393268D03*
X181694000Y-117853268D03*
X184234000Y-120393268D03*
X184234000Y-117853268D03*
X186774000Y-120393268D03*
X186774000Y-117853268D03*
X189314000Y-120393268D03*
X189314000Y-117853268D03*
X191854000Y-120393268D03*
X191854000Y-117853268D03*
X194394000Y-120393268D03*
X194394000Y-117853268D03*
X196934000Y-120393268D03*
X196934000Y-117853268D03*
X199474000Y-120393268D03*
X199474000Y-117853268D03*
X202014000Y-120393268D03*
X202014000Y-117853268D03*
X204554000Y-120393268D03*
X204554000Y-117853268D03*
D12*
X158834000Y-59433268D03*
D13*
X158834000Y-56893268D03*
X161374000Y-59433268D03*
X161374000Y-56893268D03*
X163914000Y-59433268D03*
X163914000Y-56893268D03*
X166454000Y-59433268D03*
X166454000Y-56893268D03*
X168994000Y-59433268D03*
X168994000Y-56893268D03*
X171534000Y-59433268D03*
X171534000Y-56893268D03*
X174074000Y-59433268D03*
X174074000Y-56893268D03*
X176614000Y-59433268D03*
X176614000Y-56893268D03*
X179154000Y-59433268D03*
X179154000Y-56893268D03*
X181694000Y-59433268D03*
X181694000Y-56893268D03*
X184234000Y-59433268D03*
X184234000Y-56893268D03*
X186774000Y-59433268D03*
X186774000Y-56893268D03*
X189314000Y-59433268D03*
X189314000Y-56893268D03*
X191854000Y-59433268D03*
X191854000Y-56893268D03*
X194394000Y-59433268D03*
X194394000Y-56893268D03*
X196934000Y-59433268D03*
X196934000Y-56893268D03*
X199474000Y-59433268D03*
X199474000Y-56893268D03*
X202014000Y-59433268D03*
X202014000Y-56893268D03*
X204554000Y-59433268D03*
X204554000Y-56893268D03*
%TD*%
M02*
