%TF.GenerationSoftware,KiCad,Pcbnew,8.0.2-1*%
%TF.CreationDate,2024-10-14T16:45:23+02:00*%
%TF.ProjectId,Com_Nucleo-L432kc,436f6d5f-4e75-4636-9c65-6f2d4c343332,rev?*%
%TF.SameCoordinates,Original*%
%TF.FileFunction,Legend,Top*%
%TF.FilePolarity,Positive*%
%FSLAX46Y46*%
G04 Gerber Fmt 4.6, Leading zero omitted, Abs format (unit mm)*
G04 Created by KiCad (PCBNEW 8.0.2-1) date 2024-10-14 16:45:23*
%MOMM*%
%LPD*%
G01*
G04 APERTURE LIST*
%ADD10C,0.150000*%
%ADD11C,0.366548*%
%ADD12C,0.250000*%
%ADD13C,0.200000*%
%ADD14C,0.254000*%
%ADD15C,0.100000*%
%ADD16C,0.120000*%
%ADD17C,0.000000*%
%TA.AperFunction,Profile*%
%ADD18C,0.100000*%
%TD*%
G04 APERTURE END LIST*
D10*
X127430000Y-111280000D02*
X127430000Y-111280000D01*
X128030000Y-111280000D02*
X128030000Y-111280000D01*
X128630000Y-111280000D02*
X128630000Y-111280000D01*
X129230000Y-111280000D02*
X129230000Y-111280000D01*
X129830000Y-111280000D02*
X129830000Y-111280000D01*
X130430000Y-111280000D02*
X130430000Y-111280000D01*
X131030000Y-111280000D02*
X131030000Y-111280000D01*
X131630000Y-111280000D02*
X131630000Y-111280000D01*
X132230000Y-111280000D02*
X132230000Y-111280000D01*
X132830000Y-111280000D02*
X132830000Y-111280000D01*
X133430000Y-111280000D02*
X133430000Y-111280000D01*
X133820000Y-111280000D02*
X133820000Y-111280000D01*
X133820000Y-111880000D02*
X133820000Y-111880000D01*
X133820000Y-112480000D02*
X133820000Y-112480000D01*
X133820000Y-113080000D02*
X133820000Y-113080000D01*
X133820000Y-113680000D02*
X133820000Y-113680000D01*
X133820000Y-114280000D02*
X133820000Y-114280000D01*
X133820000Y-114880000D02*
X133820000Y-114880000D01*
X133820000Y-115480000D02*
X133820000Y-115480000D01*
X133820000Y-116080000D02*
X133820000Y-116080000D01*
X133820000Y-116680000D02*
X133820000Y-116680000D01*
X133820000Y-117280000D02*
X133820000Y-117280000D01*
X133820000Y-117840000D02*
X133820000Y-117840000D01*
X133220000Y-117840000D02*
X133220000Y-117840000D01*
X132620000Y-117840000D02*
X132620000Y-117840000D01*
X132020000Y-117840000D02*
X132020000Y-117840000D01*
X131420000Y-117840000D02*
X131420000Y-117840000D01*
X130820000Y-117840000D02*
X130820000Y-117840000D01*
X130220000Y-117840000D02*
X130220000Y-117840000D01*
X129620000Y-117840000D02*
X129620000Y-117840000D01*
X129020000Y-117840000D02*
X129020000Y-117840000D01*
X128420000Y-117840000D02*
X128420000Y-117840000D01*
X127820000Y-117840000D02*
X127820000Y-117840000D01*
X127430000Y-117840000D02*
X127430000Y-117840000D01*
X127430000Y-117240000D02*
X127430000Y-117240000D01*
X127430000Y-116640000D02*
X127430000Y-116640000D01*
X127430000Y-116040000D02*
X127430000Y-116040000D01*
X127430000Y-115440000D02*
X127430000Y-115440000D01*
X127430000Y-114840000D02*
X127430000Y-114840000D01*
X127430000Y-114240000D02*
X127430000Y-114240000D01*
X127430000Y-113640000D02*
X127430000Y-113640000D01*
X127430000Y-113040000D02*
X127430000Y-113040000D01*
X127430000Y-112440000D02*
X127430000Y-112440000D01*
X127430000Y-111840000D02*
X127430000Y-111840000D01*
D11*
X132163274Y-116700000D02*
G75*
G02*
X131796726Y-116700000I-183274J0D01*
G01*
X131796726Y-116700000D02*
G75*
G02*
X132163274Y-116700000I183274J0D01*
G01*
D10*
X145240000Y-119810000D02*
X145859113Y-118737666D01*
X128180000Y-113500000D02*
X129530000Y-113500000D01*
X129530000Y-116070000D01*
X128180000Y-116070000D01*
X128180000Y-113500000D01*
D11*
X129053274Y-114160000D02*
G75*
G02*
X128686726Y-114160000I-183274J0D01*
G01*
X128686726Y-114160000D02*
G75*
G02*
X129053274Y-114160000I183274J0D01*
G01*
X129053274Y-116660000D02*
G75*
G02*
X128686726Y-116660000I-183274J0D01*
G01*
X128686726Y-116660000D02*
G75*
G02*
X129053274Y-116660000I183274J0D01*
G01*
X129063274Y-115450000D02*
G75*
G02*
X128696726Y-115450000I-183274J0D01*
G01*
X128696726Y-115450000D02*
G75*
G02*
X129063274Y-115450000I183274J0D01*
G01*
D10*
X145880000Y-118750000D02*
X148890000Y-118750000D01*
X131320000Y-114790000D02*
X132670000Y-114790000D01*
X132670000Y-117360000D01*
X131320000Y-117360000D01*
X131320000Y-114790000D01*
X148890000Y-118750000D02*
X149469677Y-119754029D01*
D11*
X132153274Y-115410000D02*
G75*
G02*
X131786726Y-115410000I-183274J0D01*
G01*
X131786726Y-115410000D02*
G75*
G02*
X132153274Y-115410000I183274J0D01*
G01*
X132163274Y-114200000D02*
G75*
G02*
X131796726Y-114200000I-183274J0D01*
G01*
X131796726Y-114200000D02*
G75*
G02*
X132163274Y-114200000I183274J0D01*
G01*
D10*
X69100000Y-100250000D02*
X125150000Y-100250000D01*
X125150000Y-130250000D01*
X69100000Y-130250000D01*
X69100000Y-100250000D01*
X89269160Y-115632200D02*
X89412017Y-115679819D01*
X89412017Y-115679819D02*
X89650112Y-115679819D01*
X89650112Y-115679819D02*
X89745350Y-115632200D01*
X89745350Y-115632200D02*
X89792969Y-115584580D01*
X89792969Y-115584580D02*
X89840588Y-115489342D01*
X89840588Y-115489342D02*
X89840588Y-115394104D01*
X89840588Y-115394104D02*
X89792969Y-115298866D01*
X89792969Y-115298866D02*
X89745350Y-115251247D01*
X89745350Y-115251247D02*
X89650112Y-115203628D01*
X89650112Y-115203628D02*
X89459636Y-115156009D01*
X89459636Y-115156009D02*
X89364398Y-115108390D01*
X89364398Y-115108390D02*
X89316779Y-115060771D01*
X89316779Y-115060771D02*
X89269160Y-114965533D01*
X89269160Y-114965533D02*
X89269160Y-114870295D01*
X89269160Y-114870295D02*
X89316779Y-114775057D01*
X89316779Y-114775057D02*
X89364398Y-114727438D01*
X89364398Y-114727438D02*
X89459636Y-114679819D01*
X89459636Y-114679819D02*
X89697731Y-114679819D01*
X89697731Y-114679819D02*
X89840588Y-114727438D01*
X90269160Y-115679819D02*
X90269160Y-114679819D01*
X90269160Y-114679819D02*
X90507255Y-114679819D01*
X90507255Y-114679819D02*
X90650112Y-114727438D01*
X90650112Y-114727438D02*
X90745350Y-114822676D01*
X90745350Y-114822676D02*
X90792969Y-114917914D01*
X90792969Y-114917914D02*
X90840588Y-115108390D01*
X90840588Y-115108390D02*
X90840588Y-115251247D01*
X90840588Y-115251247D02*
X90792969Y-115441723D01*
X90792969Y-115441723D02*
X90745350Y-115536961D01*
X90745350Y-115536961D02*
X90650112Y-115632200D01*
X90650112Y-115632200D02*
X90507255Y-115679819D01*
X90507255Y-115679819D02*
X90269160Y-115679819D01*
X91221541Y-115394104D02*
X91697731Y-115394104D01*
X91126303Y-115679819D02*
X91459636Y-114679819D01*
X91459636Y-114679819D02*
X91792969Y-115679819D01*
D12*
X106942238Y-127597619D02*
X105989857Y-128264286D01*
X106942238Y-128740476D02*
X104942238Y-128740476D01*
X104942238Y-128740476D02*
X104942238Y-127978571D01*
X104942238Y-127978571D02*
X105037476Y-127788095D01*
X105037476Y-127788095D02*
X105132714Y-127692857D01*
X105132714Y-127692857D02*
X105323190Y-127597619D01*
X105323190Y-127597619D02*
X105608904Y-127597619D01*
X105608904Y-127597619D02*
X105799380Y-127692857D01*
X105799380Y-127692857D02*
X105894619Y-127788095D01*
X105894619Y-127788095D02*
X105989857Y-127978571D01*
X105989857Y-127978571D02*
X105989857Y-128740476D01*
X106370809Y-126835714D02*
X106370809Y-125883333D01*
X106942238Y-127026190D02*
X104942238Y-126359524D01*
X104942238Y-126359524D02*
X106942238Y-125692857D01*
X106942238Y-125026190D02*
X104942238Y-125026190D01*
X106942238Y-123883333D02*
X105799380Y-124740476D01*
X104942238Y-123883333D02*
X106085095Y-125026190D01*
X104942238Y-122073809D02*
X104942238Y-123026190D01*
X104942238Y-123026190D02*
X105894619Y-123121428D01*
X105894619Y-123121428D02*
X105799380Y-123026190D01*
X105799380Y-123026190D02*
X105704142Y-122835714D01*
X105704142Y-122835714D02*
X105704142Y-122359523D01*
X105704142Y-122359523D02*
X105799380Y-122169047D01*
X105799380Y-122169047D02*
X105894619Y-122073809D01*
X105894619Y-122073809D02*
X106085095Y-121978571D01*
X106085095Y-121978571D02*
X106561285Y-121978571D01*
X106561285Y-121978571D02*
X106751761Y-122073809D01*
X106751761Y-122073809D02*
X106847000Y-122169047D01*
X106847000Y-122169047D02*
X106942238Y-122359523D01*
X106942238Y-122359523D02*
X106942238Y-122835714D01*
X106942238Y-122835714D02*
X106847000Y-123026190D01*
X106847000Y-123026190D02*
X106751761Y-123121428D01*
X106942238Y-120073809D02*
X106942238Y-121216666D01*
X106942238Y-120645238D02*
X104942238Y-120645238D01*
X104942238Y-120645238D02*
X105227952Y-120835714D01*
X105227952Y-120835714D02*
X105418428Y-121026190D01*
X105418428Y-121026190D02*
X105513666Y-121216666D01*
X105608904Y-118359523D02*
X106942238Y-118359523D01*
X104847000Y-118835714D02*
X106275571Y-119311904D01*
X106275571Y-119311904D02*
X106275571Y-118073809D01*
X104942238Y-116454761D02*
X104942238Y-116835714D01*
X104942238Y-116835714D02*
X105037476Y-117026190D01*
X105037476Y-117026190D02*
X105132714Y-117121428D01*
X105132714Y-117121428D02*
X105418428Y-117311904D01*
X105418428Y-117311904D02*
X105799380Y-117407142D01*
X105799380Y-117407142D02*
X106561285Y-117407142D01*
X106561285Y-117407142D02*
X106751761Y-117311904D01*
X106751761Y-117311904D02*
X106847000Y-117216666D01*
X106847000Y-117216666D02*
X106942238Y-117026190D01*
X106942238Y-117026190D02*
X106942238Y-116645237D01*
X106942238Y-116645237D02*
X106847000Y-116454761D01*
X106847000Y-116454761D02*
X106751761Y-116359523D01*
X106751761Y-116359523D02*
X106561285Y-116264285D01*
X106561285Y-116264285D02*
X106085095Y-116264285D01*
X106085095Y-116264285D02*
X105894619Y-116359523D01*
X105894619Y-116359523D02*
X105799380Y-116454761D01*
X105799380Y-116454761D02*
X105704142Y-116645237D01*
X105704142Y-116645237D02*
X105704142Y-117026190D01*
X105704142Y-117026190D02*
X105799380Y-117216666D01*
X105799380Y-117216666D02*
X105894619Y-117311904D01*
X105894619Y-117311904D02*
X106085095Y-117407142D01*
D10*
X96076779Y-86018866D02*
X96838684Y-86018866D01*
X96457731Y-86399819D02*
X96457731Y-85637914D01*
X97791064Y-85399819D02*
X97314874Y-85399819D01*
X97314874Y-85399819D02*
X97267255Y-85876009D01*
X97267255Y-85876009D02*
X97314874Y-85828390D01*
X97314874Y-85828390D02*
X97410112Y-85780771D01*
X97410112Y-85780771D02*
X97648207Y-85780771D01*
X97648207Y-85780771D02*
X97743445Y-85828390D01*
X97743445Y-85828390D02*
X97791064Y-85876009D01*
X97791064Y-85876009D02*
X97838683Y-85971247D01*
X97838683Y-85971247D02*
X97838683Y-86209342D01*
X97838683Y-86209342D02*
X97791064Y-86304580D01*
X97791064Y-86304580D02*
X97743445Y-86352200D01*
X97743445Y-86352200D02*
X97648207Y-86399819D01*
X97648207Y-86399819D02*
X97410112Y-86399819D01*
X97410112Y-86399819D02*
X97314874Y-86352200D01*
X97314874Y-86352200D02*
X97267255Y-86304580D01*
X98124398Y-85399819D02*
X98457731Y-86399819D01*
X98457731Y-86399819D02*
X98791064Y-85399819D01*
D12*
X114132238Y-85125714D02*
X112132238Y-85125714D01*
X112132238Y-85125714D02*
X114132238Y-83982857D01*
X114132238Y-83982857D02*
X112132238Y-83982857D01*
X112132238Y-83030476D02*
X113751285Y-83030476D01*
X113751285Y-83030476D02*
X113941761Y-82935238D01*
X113941761Y-82935238D02*
X114037000Y-82840000D01*
X114037000Y-82840000D02*
X114132238Y-82649524D01*
X114132238Y-82649524D02*
X114132238Y-82268571D01*
X114132238Y-82268571D02*
X114037000Y-82078095D01*
X114037000Y-82078095D02*
X113941761Y-81982857D01*
X113941761Y-81982857D02*
X113751285Y-81887619D01*
X113751285Y-81887619D02*
X112132238Y-81887619D01*
X113941761Y-79792381D02*
X114037000Y-79887619D01*
X114037000Y-79887619D02*
X114132238Y-80173333D01*
X114132238Y-80173333D02*
X114132238Y-80363809D01*
X114132238Y-80363809D02*
X114037000Y-80649524D01*
X114037000Y-80649524D02*
X113846523Y-80840000D01*
X113846523Y-80840000D02*
X113656047Y-80935238D01*
X113656047Y-80935238D02*
X113275095Y-81030476D01*
X113275095Y-81030476D02*
X112989380Y-81030476D01*
X112989380Y-81030476D02*
X112608428Y-80935238D01*
X112608428Y-80935238D02*
X112417952Y-80840000D01*
X112417952Y-80840000D02*
X112227476Y-80649524D01*
X112227476Y-80649524D02*
X112132238Y-80363809D01*
X112132238Y-80363809D02*
X112132238Y-80173333D01*
X112132238Y-80173333D02*
X112227476Y-79887619D01*
X112227476Y-79887619D02*
X112322714Y-79792381D01*
X114132238Y-77982857D02*
X114132238Y-78935238D01*
X114132238Y-78935238D02*
X112132238Y-78935238D01*
X113084619Y-77316190D02*
X113084619Y-76649523D01*
X114132238Y-76363809D02*
X114132238Y-77316190D01*
X114132238Y-77316190D02*
X112132238Y-77316190D01*
X112132238Y-77316190D02*
X112132238Y-76363809D01*
X112132238Y-75125714D02*
X112132238Y-74744761D01*
X112132238Y-74744761D02*
X112227476Y-74554285D01*
X112227476Y-74554285D02*
X112417952Y-74363809D01*
X112417952Y-74363809D02*
X112798904Y-74268571D01*
X112798904Y-74268571D02*
X113465571Y-74268571D01*
X113465571Y-74268571D02*
X113846523Y-74363809D01*
X113846523Y-74363809D02*
X114037000Y-74554285D01*
X114037000Y-74554285D02*
X114132238Y-74744761D01*
X114132238Y-74744761D02*
X114132238Y-75125714D01*
X114132238Y-75125714D02*
X114037000Y-75316190D01*
X114037000Y-75316190D02*
X113846523Y-75506666D01*
X113846523Y-75506666D02*
X113465571Y-75601904D01*
X113465571Y-75601904D02*
X112798904Y-75601904D01*
X112798904Y-75601904D02*
X112417952Y-75506666D01*
X112417952Y-75506666D02*
X112227476Y-75316190D01*
X112227476Y-75316190D02*
X112132238Y-75125714D01*
X113370333Y-73411428D02*
X113370333Y-71887619D01*
X114132238Y-69982857D02*
X114132238Y-70935238D01*
X114132238Y-70935238D02*
X112132238Y-70935238D01*
X112798904Y-68459047D02*
X114132238Y-68459047D01*
X112037000Y-68935238D02*
X113465571Y-69411428D01*
X113465571Y-69411428D02*
X113465571Y-68173333D01*
X112132238Y-67601904D02*
X112132238Y-66363809D01*
X112132238Y-66363809D02*
X112894142Y-67030476D01*
X112894142Y-67030476D02*
X112894142Y-66744761D01*
X112894142Y-66744761D02*
X112989380Y-66554285D01*
X112989380Y-66554285D02*
X113084619Y-66459047D01*
X113084619Y-66459047D02*
X113275095Y-66363809D01*
X113275095Y-66363809D02*
X113751285Y-66363809D01*
X113751285Y-66363809D02*
X113941761Y-66459047D01*
X113941761Y-66459047D02*
X114037000Y-66554285D01*
X114037000Y-66554285D02*
X114132238Y-66744761D01*
X114132238Y-66744761D02*
X114132238Y-67316190D01*
X114132238Y-67316190D02*
X114037000Y-67506666D01*
X114037000Y-67506666D02*
X113941761Y-67601904D01*
X112322714Y-65601904D02*
X112227476Y-65506666D01*
X112227476Y-65506666D02*
X112132238Y-65316190D01*
X112132238Y-65316190D02*
X112132238Y-64839999D01*
X112132238Y-64839999D02*
X112227476Y-64649523D01*
X112227476Y-64649523D02*
X112322714Y-64554285D01*
X112322714Y-64554285D02*
X112513190Y-64459047D01*
X112513190Y-64459047D02*
X112703666Y-64459047D01*
X112703666Y-64459047D02*
X112989380Y-64554285D01*
X112989380Y-64554285D02*
X114132238Y-65697142D01*
X114132238Y-65697142D02*
X114132238Y-64459047D01*
X114132238Y-63601904D02*
X112132238Y-63601904D01*
X114132238Y-62459047D02*
X112989380Y-63316190D01*
X112132238Y-62459047D02*
X113275095Y-63601904D01*
X113941761Y-60459047D02*
X114037000Y-60554285D01*
X114037000Y-60554285D02*
X114132238Y-60839999D01*
X114132238Y-60839999D02*
X114132238Y-61030475D01*
X114132238Y-61030475D02*
X114037000Y-61316190D01*
X114037000Y-61316190D02*
X113846523Y-61506666D01*
X113846523Y-61506666D02*
X113656047Y-61601904D01*
X113656047Y-61601904D02*
X113275095Y-61697142D01*
X113275095Y-61697142D02*
X112989380Y-61697142D01*
X112989380Y-61697142D02*
X112608428Y-61601904D01*
X112608428Y-61601904D02*
X112417952Y-61506666D01*
X112417952Y-61506666D02*
X112227476Y-61316190D01*
X112227476Y-61316190D02*
X112132238Y-61030475D01*
X112132238Y-61030475D02*
X112132238Y-60839999D01*
X112132238Y-60839999D02*
X112227476Y-60554285D01*
X112227476Y-60554285D02*
X112322714Y-60459047D01*
D10*
X89351541Y-116819819D02*
X89970588Y-116819819D01*
X89970588Y-116819819D02*
X89637255Y-117200771D01*
X89637255Y-117200771D02*
X89780112Y-117200771D01*
X89780112Y-117200771D02*
X89875350Y-117248390D01*
X89875350Y-117248390D02*
X89922969Y-117296009D01*
X89922969Y-117296009D02*
X89970588Y-117391247D01*
X89970588Y-117391247D02*
X89970588Y-117629342D01*
X89970588Y-117629342D02*
X89922969Y-117724580D01*
X89922969Y-117724580D02*
X89875350Y-117772200D01*
X89875350Y-117772200D02*
X89780112Y-117819819D01*
X89780112Y-117819819D02*
X89494398Y-117819819D01*
X89494398Y-117819819D02*
X89399160Y-117772200D01*
X89399160Y-117772200D02*
X89351541Y-117724580D01*
X90256303Y-116819819D02*
X90589636Y-117819819D01*
X90589636Y-117819819D02*
X90922969Y-116819819D01*
X91161065Y-116819819D02*
X91780112Y-116819819D01*
X91780112Y-116819819D02*
X91446779Y-117200771D01*
X91446779Y-117200771D02*
X91589636Y-117200771D01*
X91589636Y-117200771D02*
X91684874Y-117248390D01*
X91684874Y-117248390D02*
X91732493Y-117296009D01*
X91732493Y-117296009D02*
X91780112Y-117391247D01*
X91780112Y-117391247D02*
X91780112Y-117629342D01*
X91780112Y-117629342D02*
X91732493Y-117724580D01*
X91732493Y-117724580D02*
X91684874Y-117772200D01*
X91684874Y-117772200D02*
X91589636Y-117819819D01*
X91589636Y-117819819D02*
X91303922Y-117819819D01*
X91303922Y-117819819D02*
X91208684Y-117772200D01*
X91208684Y-117772200D02*
X91161065Y-117724580D01*
X101041541Y-116889819D02*
X101660588Y-116889819D01*
X101660588Y-116889819D02*
X101327255Y-117270771D01*
X101327255Y-117270771D02*
X101470112Y-117270771D01*
X101470112Y-117270771D02*
X101565350Y-117318390D01*
X101565350Y-117318390D02*
X101612969Y-117366009D01*
X101612969Y-117366009D02*
X101660588Y-117461247D01*
X101660588Y-117461247D02*
X101660588Y-117699342D01*
X101660588Y-117699342D02*
X101612969Y-117794580D01*
X101612969Y-117794580D02*
X101565350Y-117842200D01*
X101565350Y-117842200D02*
X101470112Y-117889819D01*
X101470112Y-117889819D02*
X101184398Y-117889819D01*
X101184398Y-117889819D02*
X101089160Y-117842200D01*
X101089160Y-117842200D02*
X101041541Y-117794580D01*
X101946303Y-116889819D02*
X102279636Y-117889819D01*
X102279636Y-117889819D02*
X102612969Y-116889819D01*
X102851065Y-116889819D02*
X103470112Y-116889819D01*
X103470112Y-116889819D02*
X103136779Y-117270771D01*
X103136779Y-117270771D02*
X103279636Y-117270771D01*
X103279636Y-117270771D02*
X103374874Y-117318390D01*
X103374874Y-117318390D02*
X103422493Y-117366009D01*
X103422493Y-117366009D02*
X103470112Y-117461247D01*
X103470112Y-117461247D02*
X103470112Y-117699342D01*
X103470112Y-117699342D02*
X103422493Y-117794580D01*
X103422493Y-117794580D02*
X103374874Y-117842200D01*
X103374874Y-117842200D02*
X103279636Y-117889819D01*
X103279636Y-117889819D02*
X102993922Y-117889819D01*
X102993922Y-117889819D02*
X102898684Y-117842200D01*
X102898684Y-117842200D02*
X102851065Y-117794580D01*
X66839160Y-71064104D02*
X67315350Y-71064104D01*
X66743922Y-71349819D02*
X67077255Y-70349819D01*
X67077255Y-70349819D02*
X67410588Y-71349819D01*
X67743922Y-71349819D02*
X67743922Y-70349819D01*
X67743922Y-70349819D02*
X68315350Y-71349819D01*
X68315350Y-71349819D02*
X68315350Y-70349819D01*
X89489160Y-113642200D02*
X89632017Y-113689819D01*
X89632017Y-113689819D02*
X89870112Y-113689819D01*
X89870112Y-113689819D02*
X89965350Y-113642200D01*
X89965350Y-113642200D02*
X90012969Y-113594580D01*
X90012969Y-113594580D02*
X90060588Y-113499342D01*
X90060588Y-113499342D02*
X90060588Y-113404104D01*
X90060588Y-113404104D02*
X90012969Y-113308866D01*
X90012969Y-113308866D02*
X89965350Y-113261247D01*
X89965350Y-113261247D02*
X89870112Y-113213628D01*
X89870112Y-113213628D02*
X89679636Y-113166009D01*
X89679636Y-113166009D02*
X89584398Y-113118390D01*
X89584398Y-113118390D02*
X89536779Y-113070771D01*
X89536779Y-113070771D02*
X89489160Y-112975533D01*
X89489160Y-112975533D02*
X89489160Y-112880295D01*
X89489160Y-112880295D02*
X89536779Y-112785057D01*
X89536779Y-112785057D02*
X89584398Y-112737438D01*
X89584398Y-112737438D02*
X89679636Y-112689819D01*
X89679636Y-112689819D02*
X89917731Y-112689819D01*
X89917731Y-112689819D02*
X90060588Y-112737438D01*
X91060588Y-113594580D02*
X91012969Y-113642200D01*
X91012969Y-113642200D02*
X90870112Y-113689819D01*
X90870112Y-113689819D02*
X90774874Y-113689819D01*
X90774874Y-113689819D02*
X90632017Y-113642200D01*
X90632017Y-113642200D02*
X90536779Y-113546961D01*
X90536779Y-113546961D02*
X90489160Y-113451723D01*
X90489160Y-113451723D02*
X90441541Y-113261247D01*
X90441541Y-113261247D02*
X90441541Y-113118390D01*
X90441541Y-113118390D02*
X90489160Y-112927914D01*
X90489160Y-112927914D02*
X90536779Y-112832676D01*
X90536779Y-112832676D02*
X90632017Y-112737438D01*
X90632017Y-112737438D02*
X90774874Y-112689819D01*
X90774874Y-112689819D02*
X90870112Y-112689819D01*
X90870112Y-112689819D02*
X91012969Y-112737438D01*
X91012969Y-112737438D02*
X91060588Y-112785057D01*
X91965350Y-113689819D02*
X91489160Y-113689819D01*
X91489160Y-113689819D02*
X91489160Y-112689819D01*
X134456340Y-65823809D02*
X134456340Y-66204761D01*
X134456340Y-66204761D02*
X134837292Y-66290476D01*
X134837292Y-66290476D02*
X134799197Y-66247618D01*
X134799197Y-66247618D02*
X134761102Y-66166666D01*
X134761102Y-66166666D02*
X134761102Y-65976190D01*
X134761102Y-65976190D02*
X134799197Y-65904761D01*
X134799197Y-65904761D02*
X134837292Y-65871428D01*
X134837292Y-65871428D02*
X134913483Y-65842856D01*
X134913483Y-65842856D02*
X135103959Y-65866666D01*
X135103959Y-65866666D02*
X135180149Y-65914285D01*
X135180149Y-65914285D02*
X135218245Y-65957142D01*
X135218245Y-65957142D02*
X135256340Y-66038095D01*
X135256340Y-66038095D02*
X135256340Y-66228571D01*
X135256340Y-66228571D02*
X135218245Y-66299999D01*
X135218245Y-66299999D02*
X135180149Y-66333333D01*
X134723006Y-65552380D02*
X135256340Y-65428571D01*
X135256340Y-65428571D02*
X134723006Y-65171428D01*
X136010961Y-67228572D02*
X136544295Y-67295238D01*
X136087152Y-67238095D02*
X136049057Y-67195238D01*
X136049057Y-67195238D02*
X136010961Y-67114286D01*
X136010961Y-67114286D02*
X136010961Y-67000000D01*
X136010961Y-67000000D02*
X136049057Y-66928572D01*
X136049057Y-66928572D02*
X136125247Y-66900000D01*
X136125247Y-66900000D02*
X136544295Y-66952381D01*
X136010961Y-66161904D02*
X136544295Y-66228571D01*
X136010961Y-66504762D02*
X136430009Y-66557143D01*
X136430009Y-66557143D02*
X136506200Y-66528571D01*
X136506200Y-66528571D02*
X136544295Y-66457143D01*
X136544295Y-66457143D02*
X136544295Y-66342857D01*
X136544295Y-66342857D02*
X136506200Y-66261904D01*
X136506200Y-66261904D02*
X136468104Y-66219047D01*
X136506200Y-65499999D02*
X136544295Y-65580952D01*
X136544295Y-65580952D02*
X136544295Y-65733333D01*
X136544295Y-65733333D02*
X136506200Y-65804761D01*
X136506200Y-65804761D02*
X136468104Y-65838094D01*
X136468104Y-65838094D02*
X136391914Y-65866666D01*
X136391914Y-65866666D02*
X136163342Y-65838094D01*
X136163342Y-65838094D02*
X136087152Y-65790475D01*
X136087152Y-65790475D02*
X136049057Y-65747618D01*
X136049057Y-65747618D02*
X136010961Y-65666666D01*
X136010961Y-65666666D02*
X136010961Y-65514285D01*
X136010961Y-65514285D02*
X136049057Y-65442856D01*
X136544295Y-65047619D02*
X136506200Y-65119047D01*
X136506200Y-65119047D02*
X136430009Y-65147619D01*
X136430009Y-65147619D02*
X135744295Y-65061904D01*
X136506200Y-64433332D02*
X136544295Y-64514285D01*
X136544295Y-64514285D02*
X136544295Y-64666666D01*
X136544295Y-64666666D02*
X136506200Y-64738094D01*
X136506200Y-64738094D02*
X136430009Y-64766666D01*
X136430009Y-64766666D02*
X136125247Y-64728571D01*
X136125247Y-64728571D02*
X136049057Y-64680951D01*
X136049057Y-64680951D02*
X136010961Y-64599999D01*
X136010961Y-64599999D02*
X136010961Y-64447618D01*
X136010961Y-64447618D02*
X136049057Y-64376190D01*
X136049057Y-64376190D02*
X136125247Y-64347618D01*
X136125247Y-64347618D02*
X136201438Y-64357142D01*
X136201438Y-64357142D02*
X136277628Y-64747618D01*
X136544295Y-63942857D02*
X136506200Y-64014285D01*
X136506200Y-64014285D02*
X136468104Y-64047618D01*
X136468104Y-64047618D02*
X136391914Y-64076190D01*
X136391914Y-64076190D02*
X136163342Y-64047618D01*
X136163342Y-64047618D02*
X136087152Y-63999999D01*
X136087152Y-63999999D02*
X136049057Y-63957142D01*
X136049057Y-63957142D02*
X136010961Y-63876190D01*
X136010961Y-63876190D02*
X136010961Y-63761904D01*
X136010961Y-63761904D02*
X136049057Y-63690476D01*
X136049057Y-63690476D02*
X136087152Y-63657142D01*
X136087152Y-63657142D02*
X136163342Y-63628571D01*
X136163342Y-63628571D02*
X136391914Y-63657142D01*
X136391914Y-63657142D02*
X136468104Y-63704761D01*
X136468104Y-63704761D02*
X136506200Y-63747618D01*
X136506200Y-63747618D02*
X136544295Y-63828571D01*
X136544295Y-63828571D02*
X136544295Y-63942857D01*
X65606779Y-81439819D02*
X65606779Y-80439819D01*
X65606779Y-80439819D02*
X65940112Y-81154104D01*
X65940112Y-81154104D02*
X66273445Y-80439819D01*
X66273445Y-80439819D02*
X66273445Y-81439819D01*
X66749636Y-81439819D02*
X66749636Y-80439819D01*
X67178207Y-81392200D02*
X67321064Y-81439819D01*
X67321064Y-81439819D02*
X67559159Y-81439819D01*
X67559159Y-81439819D02*
X67654397Y-81392200D01*
X67654397Y-81392200D02*
X67702016Y-81344580D01*
X67702016Y-81344580D02*
X67749635Y-81249342D01*
X67749635Y-81249342D02*
X67749635Y-81154104D01*
X67749635Y-81154104D02*
X67702016Y-81058866D01*
X67702016Y-81058866D02*
X67654397Y-81011247D01*
X67654397Y-81011247D02*
X67559159Y-80963628D01*
X67559159Y-80963628D02*
X67368683Y-80916009D01*
X67368683Y-80916009D02*
X67273445Y-80868390D01*
X67273445Y-80868390D02*
X67225826Y-80820771D01*
X67225826Y-80820771D02*
X67178207Y-80725533D01*
X67178207Y-80725533D02*
X67178207Y-80630295D01*
X67178207Y-80630295D02*
X67225826Y-80535057D01*
X67225826Y-80535057D02*
X67273445Y-80487438D01*
X67273445Y-80487438D02*
X67368683Y-80439819D01*
X67368683Y-80439819D02*
X67606778Y-80439819D01*
X67606778Y-80439819D02*
X67749635Y-80487438D01*
X68368683Y-80439819D02*
X68559159Y-80439819D01*
X68559159Y-80439819D02*
X68654397Y-80487438D01*
X68654397Y-80487438D02*
X68749635Y-80582676D01*
X68749635Y-80582676D02*
X68797254Y-80773152D01*
X68797254Y-80773152D02*
X68797254Y-81106485D01*
X68797254Y-81106485D02*
X68749635Y-81296961D01*
X68749635Y-81296961D02*
X68654397Y-81392200D01*
X68654397Y-81392200D02*
X68559159Y-81439819D01*
X68559159Y-81439819D02*
X68368683Y-81439819D01*
X68368683Y-81439819D02*
X68273445Y-81392200D01*
X68273445Y-81392200D02*
X68178207Y-81296961D01*
X68178207Y-81296961D02*
X68130588Y-81106485D01*
X68130588Y-81106485D02*
X68130588Y-80773152D01*
X68130588Y-80773152D02*
X68178207Y-80582676D01*
X68178207Y-80582676D02*
X68273445Y-80487438D01*
X68273445Y-80487438D02*
X68368683Y-80439819D01*
D13*
X138172292Y-119352742D02*
X138172292Y-118152742D01*
X138743721Y-119352742D02*
X138743721Y-118152742D01*
X138743721Y-118152742D02*
X139429435Y-119352742D01*
X139429435Y-119352742D02*
X139429435Y-118152742D01*
X139829435Y-118152742D02*
X140515150Y-118152742D01*
X140172292Y-119352742D02*
X140172292Y-118152742D01*
D10*
X147909819Y-57023220D02*
X146909819Y-57023220D01*
X146909819Y-57023220D02*
X147624104Y-56689887D01*
X147624104Y-56689887D02*
X146909819Y-56356554D01*
X146909819Y-56356554D02*
X147909819Y-56356554D01*
X147909819Y-55451792D02*
X147386009Y-55451792D01*
X147386009Y-55451792D02*
X147290771Y-55499411D01*
X147290771Y-55499411D02*
X147243152Y-55594649D01*
X147243152Y-55594649D02*
X147243152Y-55785125D01*
X147243152Y-55785125D02*
X147290771Y-55880363D01*
X147862200Y-55451792D02*
X147909819Y-55547030D01*
X147909819Y-55547030D02*
X147909819Y-55785125D01*
X147909819Y-55785125D02*
X147862200Y-55880363D01*
X147862200Y-55880363D02*
X147766961Y-55927982D01*
X147766961Y-55927982D02*
X147671723Y-55927982D01*
X147671723Y-55927982D02*
X147576485Y-55880363D01*
X147576485Y-55880363D02*
X147528866Y-55785125D01*
X147528866Y-55785125D02*
X147528866Y-55547030D01*
X147528866Y-55547030D02*
X147481247Y-55451792D01*
X147909819Y-54975601D02*
X147243152Y-54975601D01*
X146909819Y-54975601D02*
X146957438Y-55023220D01*
X146957438Y-55023220D02*
X147005057Y-54975601D01*
X147005057Y-54975601D02*
X146957438Y-54927982D01*
X146957438Y-54927982D02*
X146909819Y-54975601D01*
X146909819Y-54975601D02*
X147005057Y-54975601D01*
X147243152Y-54499411D02*
X147909819Y-54499411D01*
X147338390Y-54499411D02*
X147290771Y-54451792D01*
X147290771Y-54451792D02*
X147243152Y-54356554D01*
X147243152Y-54356554D02*
X147243152Y-54213697D01*
X147243152Y-54213697D02*
X147290771Y-54118459D01*
X147290771Y-54118459D02*
X147386009Y-54070840D01*
X147386009Y-54070840D02*
X147909819Y-54070840D01*
X147909819Y-52261316D02*
X147433628Y-52594649D01*
X147909819Y-52832744D02*
X146909819Y-52832744D01*
X146909819Y-52832744D02*
X146909819Y-52451792D01*
X146909819Y-52451792D02*
X146957438Y-52356554D01*
X146957438Y-52356554D02*
X147005057Y-52308935D01*
X147005057Y-52308935D02*
X147100295Y-52261316D01*
X147100295Y-52261316D02*
X147243152Y-52261316D01*
X147243152Y-52261316D02*
X147338390Y-52308935D01*
X147338390Y-52308935D02*
X147386009Y-52356554D01*
X147386009Y-52356554D02*
X147433628Y-52451792D01*
X147433628Y-52451792D02*
X147433628Y-52832744D01*
X147862200Y-51451792D02*
X147909819Y-51547030D01*
X147909819Y-51547030D02*
X147909819Y-51737506D01*
X147909819Y-51737506D02*
X147862200Y-51832744D01*
X147862200Y-51832744D02*
X147766961Y-51880363D01*
X147766961Y-51880363D02*
X147386009Y-51880363D01*
X147386009Y-51880363D02*
X147290771Y-51832744D01*
X147290771Y-51832744D02*
X147243152Y-51737506D01*
X147243152Y-51737506D02*
X147243152Y-51547030D01*
X147243152Y-51547030D02*
X147290771Y-51451792D01*
X147290771Y-51451792D02*
X147386009Y-51404173D01*
X147386009Y-51404173D02*
X147481247Y-51404173D01*
X147481247Y-51404173D02*
X147576485Y-51880363D01*
X147862200Y-51023220D02*
X147909819Y-50927982D01*
X147909819Y-50927982D02*
X147909819Y-50737506D01*
X147909819Y-50737506D02*
X147862200Y-50642268D01*
X147862200Y-50642268D02*
X147766961Y-50594649D01*
X147766961Y-50594649D02*
X147719342Y-50594649D01*
X147719342Y-50594649D02*
X147624104Y-50642268D01*
X147624104Y-50642268D02*
X147576485Y-50737506D01*
X147576485Y-50737506D02*
X147576485Y-50880363D01*
X147576485Y-50880363D02*
X147528866Y-50975601D01*
X147528866Y-50975601D02*
X147433628Y-51023220D01*
X147433628Y-51023220D02*
X147386009Y-51023220D01*
X147386009Y-51023220D02*
X147290771Y-50975601D01*
X147290771Y-50975601D02*
X147243152Y-50880363D01*
X147243152Y-50880363D02*
X147243152Y-50737506D01*
X147243152Y-50737506D02*
X147290771Y-50642268D01*
X147862200Y-49785125D02*
X147909819Y-49880363D01*
X147909819Y-49880363D02*
X147909819Y-50070839D01*
X147909819Y-50070839D02*
X147862200Y-50166077D01*
X147862200Y-50166077D02*
X147766961Y-50213696D01*
X147766961Y-50213696D02*
X147386009Y-50213696D01*
X147386009Y-50213696D02*
X147290771Y-50166077D01*
X147290771Y-50166077D02*
X147243152Y-50070839D01*
X147243152Y-50070839D02*
X147243152Y-49880363D01*
X147243152Y-49880363D02*
X147290771Y-49785125D01*
X147290771Y-49785125D02*
X147386009Y-49737506D01*
X147386009Y-49737506D02*
X147481247Y-49737506D01*
X147481247Y-49737506D02*
X147576485Y-50213696D01*
X147243152Y-49451791D02*
X147243152Y-49070839D01*
X146909819Y-49308934D02*
X147766961Y-49308934D01*
X147766961Y-49308934D02*
X147862200Y-49261315D01*
X147862200Y-49261315D02*
X147909819Y-49166077D01*
X147909819Y-49166077D02*
X147909819Y-49070839D01*
X101964285Y-96816340D02*
X102459523Y-96816340D01*
X102459523Y-96816340D02*
X102154762Y-97121102D01*
X102154762Y-97121102D02*
X102269047Y-97121102D01*
X102269047Y-97121102D02*
X102340476Y-97159197D01*
X102340476Y-97159197D02*
X102373809Y-97197292D01*
X102373809Y-97197292D02*
X102402381Y-97273483D01*
X102402381Y-97273483D02*
X102378571Y-97463959D01*
X102378571Y-97463959D02*
X102330952Y-97540149D01*
X102330952Y-97540149D02*
X102288095Y-97578245D01*
X102288095Y-97578245D02*
X102207142Y-97616340D01*
X102207142Y-97616340D02*
X101978571Y-97616340D01*
X101978571Y-97616340D02*
X101907142Y-97578245D01*
X101907142Y-97578245D02*
X101873809Y-97540149D01*
X102711905Y-97540149D02*
X102745238Y-97578245D01*
X102745238Y-97578245D02*
X102702381Y-97616340D01*
X102702381Y-97616340D02*
X102669047Y-97578245D01*
X102669047Y-97578245D02*
X102711905Y-97540149D01*
X102711905Y-97540149D02*
X102702381Y-97616340D01*
X103107142Y-96816340D02*
X103602380Y-96816340D01*
X103602380Y-96816340D02*
X103297619Y-97121102D01*
X103297619Y-97121102D02*
X103411904Y-97121102D01*
X103411904Y-97121102D02*
X103483333Y-97159197D01*
X103483333Y-97159197D02*
X103516666Y-97197292D01*
X103516666Y-97197292D02*
X103545238Y-97273483D01*
X103545238Y-97273483D02*
X103521428Y-97463959D01*
X103521428Y-97463959D02*
X103473809Y-97540149D01*
X103473809Y-97540149D02*
X103430952Y-97578245D01*
X103430952Y-97578245D02*
X103349999Y-97616340D01*
X103349999Y-97616340D02*
X103121428Y-97616340D01*
X103121428Y-97616340D02*
X103049999Y-97578245D01*
X103049999Y-97578245D02*
X103016666Y-97540149D01*
X103830952Y-96816340D02*
X103997619Y-97616340D01*
X103997619Y-97616340D02*
X104364285Y-96816340D01*
X101769047Y-98904295D02*
X101388095Y-98904295D01*
X101388095Y-98904295D02*
X101488095Y-98104295D01*
X102073809Y-98904295D02*
X102226190Y-98904295D01*
X102226190Y-98904295D02*
X102307142Y-98866200D01*
X102307142Y-98866200D02*
X102350000Y-98828104D01*
X102350000Y-98828104D02*
X102440476Y-98713819D01*
X102440476Y-98713819D02*
X102497619Y-98561438D01*
X102497619Y-98561438D02*
X102535714Y-98256676D01*
X102535714Y-98256676D02*
X102507142Y-98180485D01*
X102507142Y-98180485D02*
X102473809Y-98142390D01*
X102473809Y-98142390D02*
X102402380Y-98104295D01*
X102402380Y-98104295D02*
X102250000Y-98104295D01*
X102250000Y-98104295D02*
X102169047Y-98142390D01*
X102169047Y-98142390D02*
X102126190Y-98180485D01*
X102126190Y-98180485D02*
X102078571Y-98256676D01*
X102078571Y-98256676D02*
X102054761Y-98447152D01*
X102054761Y-98447152D02*
X102083333Y-98523342D01*
X102083333Y-98523342D02*
X102116666Y-98561438D01*
X102116666Y-98561438D02*
X102188095Y-98599533D01*
X102188095Y-98599533D02*
X102340476Y-98599533D01*
X102340476Y-98599533D02*
X102421428Y-98561438D01*
X102421428Y-98561438D02*
X102464285Y-98523342D01*
X102464285Y-98523342D02*
X102511904Y-98447152D01*
X103240476Y-98104295D02*
X103088095Y-98104295D01*
X103088095Y-98104295D02*
X103007143Y-98142390D01*
X103007143Y-98142390D02*
X102964285Y-98180485D01*
X102964285Y-98180485D02*
X102873809Y-98294771D01*
X102873809Y-98294771D02*
X102816666Y-98447152D01*
X102816666Y-98447152D02*
X102778571Y-98751914D01*
X102778571Y-98751914D02*
X102807143Y-98828104D01*
X102807143Y-98828104D02*
X102840476Y-98866200D01*
X102840476Y-98866200D02*
X102911905Y-98904295D01*
X102911905Y-98904295D02*
X103064285Y-98904295D01*
X103064285Y-98904295D02*
X103145238Y-98866200D01*
X103145238Y-98866200D02*
X103188095Y-98828104D01*
X103188095Y-98828104D02*
X103235714Y-98751914D01*
X103235714Y-98751914D02*
X103259524Y-98561438D01*
X103259524Y-98561438D02*
X103230952Y-98485247D01*
X103230952Y-98485247D02*
X103197619Y-98447152D01*
X103197619Y-98447152D02*
X103126190Y-98409057D01*
X103126190Y-98409057D02*
X102973809Y-98409057D01*
X102973809Y-98409057D02*
X102892857Y-98447152D01*
X102892857Y-98447152D02*
X102850000Y-98485247D01*
X102850000Y-98485247D02*
X102802381Y-98561438D01*
X103978571Y-98904295D02*
X103521429Y-98904295D01*
X103750000Y-98904295D02*
X103850000Y-98104295D01*
X103850000Y-98104295D02*
X103759524Y-98218580D01*
X103759524Y-98218580D02*
X103673810Y-98294771D01*
X103673810Y-98294771D02*
X103592857Y-98332866D01*
X104764286Y-98104295D02*
X104611905Y-98104295D01*
X104611905Y-98104295D02*
X104530953Y-98142390D01*
X104530953Y-98142390D02*
X104488095Y-98180485D01*
X104488095Y-98180485D02*
X104397619Y-98294771D01*
X104397619Y-98294771D02*
X104340476Y-98447152D01*
X104340476Y-98447152D02*
X104302381Y-98751914D01*
X104302381Y-98751914D02*
X104330953Y-98828104D01*
X104330953Y-98828104D02*
X104364286Y-98866200D01*
X104364286Y-98866200D02*
X104435715Y-98904295D01*
X104435715Y-98904295D02*
X104588095Y-98904295D01*
X104588095Y-98904295D02*
X104669048Y-98866200D01*
X104669048Y-98866200D02*
X104711905Y-98828104D01*
X104711905Y-98828104D02*
X104759524Y-98751914D01*
X104759524Y-98751914D02*
X104783334Y-98561438D01*
X104783334Y-98561438D02*
X104754762Y-98485247D01*
X104754762Y-98485247D02*
X104721429Y-98447152D01*
X104721429Y-98447152D02*
X104650000Y-98409057D01*
X104650000Y-98409057D02*
X104497619Y-98409057D01*
X104497619Y-98409057D02*
X104416667Y-98447152D01*
X104416667Y-98447152D02*
X104373810Y-98485247D01*
X104373810Y-98485247D02*
X104326191Y-98561438D01*
X67508207Y-76074580D02*
X67460588Y-76122200D01*
X67460588Y-76122200D02*
X67317731Y-76169819D01*
X67317731Y-76169819D02*
X67222493Y-76169819D01*
X67222493Y-76169819D02*
X67079636Y-76122200D01*
X67079636Y-76122200D02*
X66984398Y-76026961D01*
X66984398Y-76026961D02*
X66936779Y-75931723D01*
X66936779Y-75931723D02*
X66889160Y-75741247D01*
X66889160Y-75741247D02*
X66889160Y-75598390D01*
X66889160Y-75598390D02*
X66936779Y-75407914D01*
X66936779Y-75407914D02*
X66984398Y-75312676D01*
X66984398Y-75312676D02*
X67079636Y-75217438D01*
X67079636Y-75217438D02*
X67222493Y-75169819D01*
X67222493Y-75169819D02*
X67317731Y-75169819D01*
X67317731Y-75169819D02*
X67460588Y-75217438D01*
X67460588Y-75217438D02*
X67508207Y-75265057D01*
X67889160Y-76122200D02*
X68032017Y-76169819D01*
X68032017Y-76169819D02*
X68270112Y-76169819D01*
X68270112Y-76169819D02*
X68365350Y-76122200D01*
X68365350Y-76122200D02*
X68412969Y-76074580D01*
X68412969Y-76074580D02*
X68460588Y-75979342D01*
X68460588Y-75979342D02*
X68460588Y-75884104D01*
X68460588Y-75884104D02*
X68412969Y-75788866D01*
X68412969Y-75788866D02*
X68365350Y-75741247D01*
X68365350Y-75741247D02*
X68270112Y-75693628D01*
X68270112Y-75693628D02*
X68079636Y-75646009D01*
X68079636Y-75646009D02*
X67984398Y-75598390D01*
X67984398Y-75598390D02*
X67936779Y-75550771D01*
X67936779Y-75550771D02*
X67889160Y-75455533D01*
X67889160Y-75455533D02*
X67889160Y-75360295D01*
X67889160Y-75360295D02*
X67936779Y-75265057D01*
X67936779Y-75265057D02*
X67984398Y-75217438D01*
X67984398Y-75217438D02*
X68079636Y-75169819D01*
X68079636Y-75169819D02*
X68317731Y-75169819D01*
X68317731Y-75169819D02*
X68460588Y-75217438D01*
X95966779Y-71359819D02*
X95966779Y-70359819D01*
X95966779Y-70359819D02*
X96347731Y-70359819D01*
X96347731Y-70359819D02*
X96442969Y-70407438D01*
X96442969Y-70407438D02*
X96490588Y-70455057D01*
X96490588Y-70455057D02*
X96538207Y-70550295D01*
X96538207Y-70550295D02*
X96538207Y-70693152D01*
X96538207Y-70693152D02*
X96490588Y-70788390D01*
X96490588Y-70788390D02*
X96442969Y-70836009D01*
X96442969Y-70836009D02*
X96347731Y-70883628D01*
X96347731Y-70883628D02*
X95966779Y-70883628D01*
X96871541Y-70359819D02*
X97109636Y-71359819D01*
X97109636Y-71359819D02*
X97300112Y-70645533D01*
X97300112Y-70645533D02*
X97490588Y-71359819D01*
X97490588Y-71359819D02*
X97728684Y-70359819D01*
X98109636Y-71359819D02*
X98109636Y-70359819D01*
X98109636Y-70359819D02*
X98442969Y-71074104D01*
X98442969Y-71074104D02*
X98776302Y-70359819D01*
X98776302Y-70359819D02*
X98776302Y-71359819D01*
X96029160Y-83722200D02*
X96172017Y-83769819D01*
X96172017Y-83769819D02*
X96410112Y-83769819D01*
X96410112Y-83769819D02*
X96505350Y-83722200D01*
X96505350Y-83722200D02*
X96552969Y-83674580D01*
X96552969Y-83674580D02*
X96600588Y-83579342D01*
X96600588Y-83579342D02*
X96600588Y-83484104D01*
X96600588Y-83484104D02*
X96552969Y-83388866D01*
X96552969Y-83388866D02*
X96505350Y-83341247D01*
X96505350Y-83341247D02*
X96410112Y-83293628D01*
X96410112Y-83293628D02*
X96219636Y-83246009D01*
X96219636Y-83246009D02*
X96124398Y-83198390D01*
X96124398Y-83198390D02*
X96076779Y-83150771D01*
X96076779Y-83150771D02*
X96029160Y-83055533D01*
X96029160Y-83055533D02*
X96029160Y-82960295D01*
X96029160Y-82960295D02*
X96076779Y-82865057D01*
X96076779Y-82865057D02*
X96124398Y-82817438D01*
X96124398Y-82817438D02*
X96219636Y-82769819D01*
X96219636Y-82769819D02*
X96457731Y-82769819D01*
X96457731Y-82769819D02*
X96600588Y-82817438D01*
X97029160Y-83769819D02*
X97029160Y-82769819D01*
X97029160Y-82769819D02*
X97267255Y-82769819D01*
X97267255Y-82769819D02*
X97410112Y-82817438D01*
X97410112Y-82817438D02*
X97505350Y-82912676D01*
X97505350Y-82912676D02*
X97552969Y-83007914D01*
X97552969Y-83007914D02*
X97600588Y-83198390D01*
X97600588Y-83198390D02*
X97600588Y-83341247D01*
X97600588Y-83341247D02*
X97552969Y-83531723D01*
X97552969Y-83531723D02*
X97505350Y-83626961D01*
X97505350Y-83626961D02*
X97410112Y-83722200D01*
X97410112Y-83722200D02*
X97267255Y-83769819D01*
X97267255Y-83769819D02*
X97029160Y-83769819D01*
X97981541Y-83484104D02*
X98457731Y-83484104D01*
X97886303Y-83769819D02*
X98219636Y-82769819D01*
X98219636Y-82769819D02*
X98552969Y-83769819D01*
X96718207Y-76279819D02*
X96384874Y-75803628D01*
X96146779Y-76279819D02*
X96146779Y-75279819D01*
X96146779Y-75279819D02*
X96527731Y-75279819D01*
X96527731Y-75279819D02*
X96622969Y-75327438D01*
X96622969Y-75327438D02*
X96670588Y-75375057D01*
X96670588Y-75375057D02*
X96718207Y-75470295D01*
X96718207Y-75470295D02*
X96718207Y-75613152D01*
X96718207Y-75613152D02*
X96670588Y-75708390D01*
X96670588Y-75708390D02*
X96622969Y-75756009D01*
X96622969Y-75756009D02*
X96527731Y-75803628D01*
X96527731Y-75803628D02*
X96146779Y-75803628D01*
X97051541Y-75279819D02*
X97718207Y-76279819D01*
X97718207Y-75279819D02*
X97051541Y-76279819D01*
X101530588Y-118987438D02*
X101435350Y-118939819D01*
X101435350Y-118939819D02*
X101292493Y-118939819D01*
X101292493Y-118939819D02*
X101149636Y-118987438D01*
X101149636Y-118987438D02*
X101054398Y-119082676D01*
X101054398Y-119082676D02*
X101006779Y-119177914D01*
X101006779Y-119177914D02*
X100959160Y-119368390D01*
X100959160Y-119368390D02*
X100959160Y-119511247D01*
X100959160Y-119511247D02*
X101006779Y-119701723D01*
X101006779Y-119701723D02*
X101054398Y-119796961D01*
X101054398Y-119796961D02*
X101149636Y-119892200D01*
X101149636Y-119892200D02*
X101292493Y-119939819D01*
X101292493Y-119939819D02*
X101387731Y-119939819D01*
X101387731Y-119939819D02*
X101530588Y-119892200D01*
X101530588Y-119892200D02*
X101578207Y-119844580D01*
X101578207Y-119844580D02*
X101578207Y-119511247D01*
X101578207Y-119511247D02*
X101387731Y-119511247D01*
X102006779Y-119939819D02*
X102006779Y-118939819D01*
X102006779Y-118939819D02*
X102578207Y-119939819D01*
X102578207Y-119939819D02*
X102578207Y-118939819D01*
X103054398Y-119939819D02*
X103054398Y-118939819D01*
X103054398Y-118939819D02*
X103292493Y-118939819D01*
X103292493Y-118939819D02*
X103435350Y-118987438D01*
X103435350Y-118987438D02*
X103530588Y-119082676D01*
X103530588Y-119082676D02*
X103578207Y-119177914D01*
X103578207Y-119177914D02*
X103625826Y-119368390D01*
X103625826Y-119368390D02*
X103625826Y-119511247D01*
X103625826Y-119511247D02*
X103578207Y-119701723D01*
X103578207Y-119701723D02*
X103530588Y-119796961D01*
X103530588Y-119796961D02*
X103435350Y-119892200D01*
X103435350Y-119892200D02*
X103292493Y-119939819D01*
X103292493Y-119939819D02*
X103054398Y-119939819D01*
X90589160Y-59244104D02*
X91065350Y-59244104D01*
X90493922Y-59529819D02*
X90827255Y-58529819D01*
X90827255Y-58529819D02*
X91160588Y-59529819D01*
X91684398Y-58529819D02*
X91779636Y-58529819D01*
X91779636Y-58529819D02*
X91874874Y-58577438D01*
X91874874Y-58577438D02*
X91922493Y-58625057D01*
X91922493Y-58625057D02*
X91970112Y-58720295D01*
X91970112Y-58720295D02*
X92017731Y-58910771D01*
X92017731Y-58910771D02*
X92017731Y-59148866D01*
X92017731Y-59148866D02*
X91970112Y-59339342D01*
X91970112Y-59339342D02*
X91922493Y-59434580D01*
X91922493Y-59434580D02*
X91874874Y-59482200D01*
X91874874Y-59482200D02*
X91779636Y-59529819D01*
X91779636Y-59529819D02*
X91684398Y-59529819D01*
X91684398Y-59529819D02*
X91589160Y-59482200D01*
X91589160Y-59482200D02*
X91541541Y-59434580D01*
X91541541Y-59434580D02*
X91493922Y-59339342D01*
X91493922Y-59339342D02*
X91446303Y-59148866D01*
X91446303Y-59148866D02*
X91446303Y-58910771D01*
X91446303Y-58910771D02*
X91493922Y-58720295D01*
X91493922Y-58720295D02*
X91541541Y-58625057D01*
X91541541Y-58625057D02*
X91589160Y-58577438D01*
X91589160Y-58577438D02*
X91684398Y-58529819D01*
X96680588Y-88037438D02*
X96585350Y-87989819D01*
X96585350Y-87989819D02*
X96442493Y-87989819D01*
X96442493Y-87989819D02*
X96299636Y-88037438D01*
X96299636Y-88037438D02*
X96204398Y-88132676D01*
X96204398Y-88132676D02*
X96156779Y-88227914D01*
X96156779Y-88227914D02*
X96109160Y-88418390D01*
X96109160Y-88418390D02*
X96109160Y-88561247D01*
X96109160Y-88561247D02*
X96156779Y-88751723D01*
X96156779Y-88751723D02*
X96204398Y-88846961D01*
X96204398Y-88846961D02*
X96299636Y-88942200D01*
X96299636Y-88942200D02*
X96442493Y-88989819D01*
X96442493Y-88989819D02*
X96537731Y-88989819D01*
X96537731Y-88989819D02*
X96680588Y-88942200D01*
X96680588Y-88942200D02*
X96728207Y-88894580D01*
X96728207Y-88894580D02*
X96728207Y-88561247D01*
X96728207Y-88561247D02*
X96537731Y-88561247D01*
X97156779Y-88989819D02*
X97156779Y-87989819D01*
X97156779Y-87989819D02*
X97728207Y-88989819D01*
X97728207Y-88989819D02*
X97728207Y-87989819D01*
X98204398Y-88989819D02*
X98204398Y-87989819D01*
X98204398Y-87989819D02*
X98442493Y-87989819D01*
X98442493Y-87989819D02*
X98585350Y-88037438D01*
X98585350Y-88037438D02*
X98680588Y-88132676D01*
X98680588Y-88132676D02*
X98728207Y-88227914D01*
X98728207Y-88227914D02*
X98775826Y-88418390D01*
X98775826Y-88418390D02*
X98775826Y-88561247D01*
X98775826Y-88561247D02*
X98728207Y-88751723D01*
X98728207Y-88751723D02*
X98680588Y-88846961D01*
X98680588Y-88846961D02*
X98585350Y-88942200D01*
X98585350Y-88942200D02*
X98442493Y-88989819D01*
X98442493Y-88989819D02*
X98204398Y-88989819D01*
X66670588Y-88217438D02*
X66575350Y-88169819D01*
X66575350Y-88169819D02*
X66432493Y-88169819D01*
X66432493Y-88169819D02*
X66289636Y-88217438D01*
X66289636Y-88217438D02*
X66194398Y-88312676D01*
X66194398Y-88312676D02*
X66146779Y-88407914D01*
X66146779Y-88407914D02*
X66099160Y-88598390D01*
X66099160Y-88598390D02*
X66099160Y-88741247D01*
X66099160Y-88741247D02*
X66146779Y-88931723D01*
X66146779Y-88931723D02*
X66194398Y-89026961D01*
X66194398Y-89026961D02*
X66289636Y-89122200D01*
X66289636Y-89122200D02*
X66432493Y-89169819D01*
X66432493Y-89169819D02*
X66527731Y-89169819D01*
X66527731Y-89169819D02*
X66670588Y-89122200D01*
X66670588Y-89122200D02*
X66718207Y-89074580D01*
X66718207Y-89074580D02*
X66718207Y-88741247D01*
X66718207Y-88741247D02*
X66527731Y-88741247D01*
X67146779Y-89169819D02*
X67146779Y-88169819D01*
X67146779Y-88169819D02*
X67718207Y-89169819D01*
X67718207Y-89169819D02*
X67718207Y-88169819D01*
X68194398Y-89169819D02*
X68194398Y-88169819D01*
X68194398Y-88169819D02*
X68432493Y-88169819D01*
X68432493Y-88169819D02*
X68575350Y-88217438D01*
X68575350Y-88217438D02*
X68670588Y-88312676D01*
X68670588Y-88312676D02*
X68718207Y-88407914D01*
X68718207Y-88407914D02*
X68765826Y-88598390D01*
X68765826Y-88598390D02*
X68765826Y-88741247D01*
X68765826Y-88741247D02*
X68718207Y-88931723D01*
X68718207Y-88931723D02*
X68670588Y-89026961D01*
X68670588Y-89026961D02*
X68575350Y-89122200D01*
X68575350Y-89122200D02*
X68432493Y-89169819D01*
X68432493Y-89169819D02*
X68194398Y-89169819D01*
X85599160Y-59274104D02*
X86075350Y-59274104D01*
X85503922Y-59559819D02*
X85837255Y-58559819D01*
X85837255Y-58559819D02*
X86170588Y-59559819D01*
X87027731Y-59559819D02*
X86456303Y-59559819D01*
X86742017Y-59559819D02*
X86742017Y-58559819D01*
X86742017Y-58559819D02*
X86646779Y-58702676D01*
X86646779Y-58702676D02*
X86551541Y-58797914D01*
X86551541Y-58797914D02*
X86456303Y-58845533D01*
X80649160Y-59224104D02*
X81125350Y-59224104D01*
X80553922Y-59509819D02*
X80887255Y-58509819D01*
X80887255Y-58509819D02*
X81220588Y-59509819D01*
X81506303Y-58605057D02*
X81553922Y-58557438D01*
X81553922Y-58557438D02*
X81649160Y-58509819D01*
X81649160Y-58509819D02*
X81887255Y-58509819D01*
X81887255Y-58509819D02*
X81982493Y-58557438D01*
X81982493Y-58557438D02*
X82030112Y-58605057D01*
X82030112Y-58605057D02*
X82077731Y-58700295D01*
X82077731Y-58700295D02*
X82077731Y-58795533D01*
X82077731Y-58795533D02*
X82030112Y-58938390D01*
X82030112Y-58938390D02*
X81458684Y-59509819D01*
X81458684Y-59509819D02*
X82077731Y-59509819D01*
X78189160Y-115442200D02*
X78332017Y-115489819D01*
X78332017Y-115489819D02*
X78570112Y-115489819D01*
X78570112Y-115489819D02*
X78665350Y-115442200D01*
X78665350Y-115442200D02*
X78712969Y-115394580D01*
X78712969Y-115394580D02*
X78760588Y-115299342D01*
X78760588Y-115299342D02*
X78760588Y-115204104D01*
X78760588Y-115204104D02*
X78712969Y-115108866D01*
X78712969Y-115108866D02*
X78665350Y-115061247D01*
X78665350Y-115061247D02*
X78570112Y-115013628D01*
X78570112Y-115013628D02*
X78379636Y-114966009D01*
X78379636Y-114966009D02*
X78284398Y-114918390D01*
X78284398Y-114918390D02*
X78236779Y-114870771D01*
X78236779Y-114870771D02*
X78189160Y-114775533D01*
X78189160Y-114775533D02*
X78189160Y-114680295D01*
X78189160Y-114680295D02*
X78236779Y-114585057D01*
X78236779Y-114585057D02*
X78284398Y-114537438D01*
X78284398Y-114537438D02*
X78379636Y-114489819D01*
X78379636Y-114489819D02*
X78617731Y-114489819D01*
X78617731Y-114489819D02*
X78760588Y-114537438D01*
X79189160Y-115489819D02*
X79189160Y-114489819D01*
X79189160Y-114489819D02*
X79427255Y-114489819D01*
X79427255Y-114489819D02*
X79570112Y-114537438D01*
X79570112Y-114537438D02*
X79665350Y-114632676D01*
X79665350Y-114632676D02*
X79712969Y-114727914D01*
X79712969Y-114727914D02*
X79760588Y-114918390D01*
X79760588Y-114918390D02*
X79760588Y-115061247D01*
X79760588Y-115061247D02*
X79712969Y-115251723D01*
X79712969Y-115251723D02*
X79665350Y-115346961D01*
X79665350Y-115346961D02*
X79570112Y-115442200D01*
X79570112Y-115442200D02*
X79427255Y-115489819D01*
X79427255Y-115489819D02*
X79189160Y-115489819D01*
X80141541Y-115204104D02*
X80617731Y-115204104D01*
X80046303Y-115489819D02*
X80379636Y-114489819D01*
X80379636Y-114489819D02*
X80712969Y-115489819D01*
X78271541Y-116629819D02*
X78890588Y-116629819D01*
X78890588Y-116629819D02*
X78557255Y-117010771D01*
X78557255Y-117010771D02*
X78700112Y-117010771D01*
X78700112Y-117010771D02*
X78795350Y-117058390D01*
X78795350Y-117058390D02*
X78842969Y-117106009D01*
X78842969Y-117106009D02*
X78890588Y-117201247D01*
X78890588Y-117201247D02*
X78890588Y-117439342D01*
X78890588Y-117439342D02*
X78842969Y-117534580D01*
X78842969Y-117534580D02*
X78795350Y-117582200D01*
X78795350Y-117582200D02*
X78700112Y-117629819D01*
X78700112Y-117629819D02*
X78414398Y-117629819D01*
X78414398Y-117629819D02*
X78319160Y-117582200D01*
X78319160Y-117582200D02*
X78271541Y-117534580D01*
X79176303Y-116629819D02*
X79509636Y-117629819D01*
X79509636Y-117629819D02*
X79842969Y-116629819D01*
X80081065Y-116629819D02*
X80700112Y-116629819D01*
X80700112Y-116629819D02*
X80366779Y-117010771D01*
X80366779Y-117010771D02*
X80509636Y-117010771D01*
X80509636Y-117010771D02*
X80604874Y-117058390D01*
X80604874Y-117058390D02*
X80652493Y-117106009D01*
X80652493Y-117106009D02*
X80700112Y-117201247D01*
X80700112Y-117201247D02*
X80700112Y-117439342D01*
X80700112Y-117439342D02*
X80652493Y-117534580D01*
X80652493Y-117534580D02*
X80604874Y-117582200D01*
X80604874Y-117582200D02*
X80509636Y-117629819D01*
X80509636Y-117629819D02*
X80223922Y-117629819D01*
X80223922Y-117629819D02*
X80128684Y-117582200D01*
X80128684Y-117582200D02*
X80081065Y-117534580D01*
X133176340Y-90905714D02*
X133176340Y-90410476D01*
X133176340Y-90410476D02*
X133481102Y-90715238D01*
X133481102Y-90715238D02*
X133481102Y-90600952D01*
X133481102Y-90600952D02*
X133519197Y-90529523D01*
X133519197Y-90529523D02*
X133557292Y-90496190D01*
X133557292Y-90496190D02*
X133633483Y-90467618D01*
X133633483Y-90467618D02*
X133823959Y-90491428D01*
X133823959Y-90491428D02*
X133900149Y-90539047D01*
X133900149Y-90539047D02*
X133938245Y-90581904D01*
X133938245Y-90581904D02*
X133976340Y-90662857D01*
X133976340Y-90662857D02*
X133976340Y-90891428D01*
X133976340Y-90891428D02*
X133938245Y-90962857D01*
X133938245Y-90962857D02*
X133900149Y-90996190D01*
X133900149Y-90158094D02*
X133938245Y-90124761D01*
X133938245Y-90124761D02*
X133976340Y-90167618D01*
X133976340Y-90167618D02*
X133938245Y-90200952D01*
X133938245Y-90200952D02*
X133900149Y-90158094D01*
X133900149Y-90158094D02*
X133976340Y-90167618D01*
X133176340Y-89762857D02*
X133176340Y-89267619D01*
X133176340Y-89267619D02*
X133481102Y-89572381D01*
X133481102Y-89572381D02*
X133481102Y-89458095D01*
X133481102Y-89458095D02*
X133519197Y-89386666D01*
X133519197Y-89386666D02*
X133557292Y-89353333D01*
X133557292Y-89353333D02*
X133633483Y-89324761D01*
X133633483Y-89324761D02*
X133823959Y-89348571D01*
X133823959Y-89348571D02*
X133900149Y-89396190D01*
X133900149Y-89396190D02*
X133938245Y-89439047D01*
X133938245Y-89439047D02*
X133976340Y-89520000D01*
X133976340Y-89520000D02*
X133976340Y-89748571D01*
X133976340Y-89748571D02*
X133938245Y-89820000D01*
X133938245Y-89820000D02*
X133900149Y-89853333D01*
X133176340Y-89039047D02*
X133976340Y-88872380D01*
X133976340Y-88872380D02*
X133176340Y-88505714D01*
X134730961Y-91548572D02*
X135264295Y-91615238D01*
X134807152Y-91558095D02*
X134769057Y-91515238D01*
X134769057Y-91515238D02*
X134730961Y-91434286D01*
X134730961Y-91434286D02*
X134730961Y-91320000D01*
X134730961Y-91320000D02*
X134769057Y-91248572D01*
X134769057Y-91248572D02*
X134845247Y-91220000D01*
X134845247Y-91220000D02*
X135264295Y-91272381D01*
X134730961Y-90481904D02*
X135264295Y-90548571D01*
X134730961Y-90824762D02*
X135150009Y-90877143D01*
X135150009Y-90877143D02*
X135226200Y-90848571D01*
X135226200Y-90848571D02*
X135264295Y-90777143D01*
X135264295Y-90777143D02*
X135264295Y-90662857D01*
X135264295Y-90662857D02*
X135226200Y-90581904D01*
X135226200Y-90581904D02*
X135188104Y-90539047D01*
X135226200Y-89819999D02*
X135264295Y-89900952D01*
X135264295Y-89900952D02*
X135264295Y-90053333D01*
X135264295Y-90053333D02*
X135226200Y-90124761D01*
X135226200Y-90124761D02*
X135188104Y-90158094D01*
X135188104Y-90158094D02*
X135111914Y-90186666D01*
X135111914Y-90186666D02*
X134883342Y-90158094D01*
X134883342Y-90158094D02*
X134807152Y-90110475D01*
X134807152Y-90110475D02*
X134769057Y-90067618D01*
X134769057Y-90067618D02*
X134730961Y-89986666D01*
X134730961Y-89986666D02*
X134730961Y-89834285D01*
X134730961Y-89834285D02*
X134769057Y-89762856D01*
X135264295Y-89367619D02*
X135226200Y-89439047D01*
X135226200Y-89439047D02*
X135150009Y-89467619D01*
X135150009Y-89467619D02*
X134464295Y-89381904D01*
X135226200Y-88753332D02*
X135264295Y-88834285D01*
X135264295Y-88834285D02*
X135264295Y-88986666D01*
X135264295Y-88986666D02*
X135226200Y-89058094D01*
X135226200Y-89058094D02*
X135150009Y-89086666D01*
X135150009Y-89086666D02*
X134845247Y-89048571D01*
X134845247Y-89048571D02*
X134769057Y-89000951D01*
X134769057Y-89000951D02*
X134730961Y-88919999D01*
X134730961Y-88919999D02*
X134730961Y-88767618D01*
X134730961Y-88767618D02*
X134769057Y-88696190D01*
X134769057Y-88696190D02*
X134845247Y-88667618D01*
X134845247Y-88667618D02*
X134921438Y-88677142D01*
X134921438Y-88677142D02*
X134997628Y-89067618D01*
X135264295Y-88262857D02*
X135226200Y-88334285D01*
X135226200Y-88334285D02*
X135188104Y-88367618D01*
X135188104Y-88367618D02*
X135111914Y-88396190D01*
X135111914Y-88396190D02*
X134883342Y-88367618D01*
X134883342Y-88367618D02*
X134807152Y-88319999D01*
X134807152Y-88319999D02*
X134769057Y-88277142D01*
X134769057Y-88277142D02*
X134730961Y-88196190D01*
X134730961Y-88196190D02*
X134730961Y-88081904D01*
X134730961Y-88081904D02*
X134769057Y-88010476D01*
X134769057Y-88010476D02*
X134807152Y-87977142D01*
X134807152Y-87977142D02*
X134883342Y-87948571D01*
X134883342Y-87948571D02*
X135111914Y-87977142D01*
X135111914Y-87977142D02*
X135188104Y-88024761D01*
X135188104Y-88024761D02*
X135226200Y-88067618D01*
X135226200Y-88067618D02*
X135264295Y-88148571D01*
X135264295Y-88148571D02*
X135264295Y-88262857D01*
X100959160Y-115702200D02*
X101102017Y-115749819D01*
X101102017Y-115749819D02*
X101340112Y-115749819D01*
X101340112Y-115749819D02*
X101435350Y-115702200D01*
X101435350Y-115702200D02*
X101482969Y-115654580D01*
X101482969Y-115654580D02*
X101530588Y-115559342D01*
X101530588Y-115559342D02*
X101530588Y-115464104D01*
X101530588Y-115464104D02*
X101482969Y-115368866D01*
X101482969Y-115368866D02*
X101435350Y-115321247D01*
X101435350Y-115321247D02*
X101340112Y-115273628D01*
X101340112Y-115273628D02*
X101149636Y-115226009D01*
X101149636Y-115226009D02*
X101054398Y-115178390D01*
X101054398Y-115178390D02*
X101006779Y-115130771D01*
X101006779Y-115130771D02*
X100959160Y-115035533D01*
X100959160Y-115035533D02*
X100959160Y-114940295D01*
X100959160Y-114940295D02*
X101006779Y-114845057D01*
X101006779Y-114845057D02*
X101054398Y-114797438D01*
X101054398Y-114797438D02*
X101149636Y-114749819D01*
X101149636Y-114749819D02*
X101387731Y-114749819D01*
X101387731Y-114749819D02*
X101530588Y-114797438D01*
X101959160Y-115749819D02*
X101959160Y-114749819D01*
X101959160Y-114749819D02*
X102197255Y-114749819D01*
X102197255Y-114749819D02*
X102340112Y-114797438D01*
X102340112Y-114797438D02*
X102435350Y-114892676D01*
X102435350Y-114892676D02*
X102482969Y-114987914D01*
X102482969Y-114987914D02*
X102530588Y-115178390D01*
X102530588Y-115178390D02*
X102530588Y-115321247D01*
X102530588Y-115321247D02*
X102482969Y-115511723D01*
X102482969Y-115511723D02*
X102435350Y-115606961D01*
X102435350Y-115606961D02*
X102340112Y-115702200D01*
X102340112Y-115702200D02*
X102197255Y-115749819D01*
X102197255Y-115749819D02*
X101959160Y-115749819D01*
X102911541Y-115464104D02*
X103387731Y-115464104D01*
X102816303Y-115749819D02*
X103149636Y-114749819D01*
X103149636Y-114749819D02*
X103482969Y-115749819D01*
X67058207Y-73659819D02*
X66724874Y-73183628D01*
X66486779Y-73659819D02*
X66486779Y-72659819D01*
X66486779Y-72659819D02*
X66867731Y-72659819D01*
X66867731Y-72659819D02*
X66962969Y-72707438D01*
X66962969Y-72707438D02*
X67010588Y-72755057D01*
X67010588Y-72755057D02*
X67058207Y-72850295D01*
X67058207Y-72850295D02*
X67058207Y-72993152D01*
X67058207Y-72993152D02*
X67010588Y-73088390D01*
X67010588Y-73088390D02*
X66962969Y-73136009D01*
X66962969Y-73136009D02*
X66867731Y-73183628D01*
X66867731Y-73183628D02*
X66486779Y-73183628D01*
X67439160Y-73612200D02*
X67582017Y-73659819D01*
X67582017Y-73659819D02*
X67820112Y-73659819D01*
X67820112Y-73659819D02*
X67915350Y-73612200D01*
X67915350Y-73612200D02*
X67962969Y-73564580D01*
X67962969Y-73564580D02*
X68010588Y-73469342D01*
X68010588Y-73469342D02*
X68010588Y-73374104D01*
X68010588Y-73374104D02*
X67962969Y-73278866D01*
X67962969Y-73278866D02*
X67915350Y-73231247D01*
X67915350Y-73231247D02*
X67820112Y-73183628D01*
X67820112Y-73183628D02*
X67629636Y-73136009D01*
X67629636Y-73136009D02*
X67534398Y-73088390D01*
X67534398Y-73088390D02*
X67486779Y-73040771D01*
X67486779Y-73040771D02*
X67439160Y-72945533D01*
X67439160Y-72945533D02*
X67439160Y-72850295D01*
X67439160Y-72850295D02*
X67486779Y-72755057D01*
X67486779Y-72755057D02*
X67534398Y-72707438D01*
X67534398Y-72707438D02*
X67629636Y-72659819D01*
X67629636Y-72659819D02*
X67867731Y-72659819D01*
X67867731Y-72659819D02*
X68010588Y-72707438D01*
X68296303Y-72659819D02*
X68867731Y-72659819D01*
X68582017Y-73659819D02*
X68582017Y-72659819D01*
D13*
X131092292Y-119382742D02*
X131092292Y-118182742D01*
X131092292Y-118182742D02*
X131549435Y-118182742D01*
X131549435Y-118182742D02*
X131663720Y-118239885D01*
X131663720Y-118239885D02*
X131720863Y-118297028D01*
X131720863Y-118297028D02*
X131778006Y-118411314D01*
X131778006Y-118411314D02*
X131778006Y-118582742D01*
X131778006Y-118582742D02*
X131720863Y-118697028D01*
X131720863Y-118697028D02*
X131663720Y-118754171D01*
X131663720Y-118754171D02*
X131549435Y-118811314D01*
X131549435Y-118811314D02*
X131092292Y-118811314D01*
X132178006Y-118182742D02*
X132463720Y-119382742D01*
X132463720Y-119382742D02*
X132692292Y-118525600D01*
X132692292Y-118525600D02*
X132920863Y-119382742D01*
X132920863Y-119382742D02*
X133206578Y-118182742D01*
X133663721Y-119382742D02*
X133663721Y-118182742D01*
X133663721Y-118182742D02*
X134063721Y-119039885D01*
X134063721Y-119039885D02*
X134463721Y-118182742D01*
X134463721Y-118182742D02*
X134463721Y-119382742D01*
D10*
X128146779Y-112939819D02*
X128146779Y-111939819D01*
X128146779Y-111939819D02*
X128480112Y-112654104D01*
X128480112Y-112654104D02*
X128813445Y-111939819D01*
X128813445Y-111939819D02*
X128813445Y-112939819D01*
X129289636Y-112939819D02*
X129289636Y-111939819D01*
X129861064Y-112939819D02*
X129432493Y-112368390D01*
X129861064Y-111939819D02*
X129289636Y-112511247D01*
X78760588Y-118727438D02*
X78665350Y-118679819D01*
X78665350Y-118679819D02*
X78522493Y-118679819D01*
X78522493Y-118679819D02*
X78379636Y-118727438D01*
X78379636Y-118727438D02*
X78284398Y-118822676D01*
X78284398Y-118822676D02*
X78236779Y-118917914D01*
X78236779Y-118917914D02*
X78189160Y-119108390D01*
X78189160Y-119108390D02*
X78189160Y-119251247D01*
X78189160Y-119251247D02*
X78236779Y-119441723D01*
X78236779Y-119441723D02*
X78284398Y-119536961D01*
X78284398Y-119536961D02*
X78379636Y-119632200D01*
X78379636Y-119632200D02*
X78522493Y-119679819D01*
X78522493Y-119679819D02*
X78617731Y-119679819D01*
X78617731Y-119679819D02*
X78760588Y-119632200D01*
X78760588Y-119632200D02*
X78808207Y-119584580D01*
X78808207Y-119584580D02*
X78808207Y-119251247D01*
X78808207Y-119251247D02*
X78617731Y-119251247D01*
X79236779Y-119679819D02*
X79236779Y-118679819D01*
X79236779Y-118679819D02*
X79808207Y-119679819D01*
X79808207Y-119679819D02*
X79808207Y-118679819D01*
X80284398Y-119679819D02*
X80284398Y-118679819D01*
X80284398Y-118679819D02*
X80522493Y-118679819D01*
X80522493Y-118679819D02*
X80665350Y-118727438D01*
X80665350Y-118727438D02*
X80760588Y-118822676D01*
X80760588Y-118822676D02*
X80808207Y-118917914D01*
X80808207Y-118917914D02*
X80855826Y-119108390D01*
X80855826Y-119108390D02*
X80855826Y-119251247D01*
X80855826Y-119251247D02*
X80808207Y-119441723D01*
X80808207Y-119441723D02*
X80760588Y-119536961D01*
X80760588Y-119536961D02*
X80665350Y-119632200D01*
X80665350Y-119632200D02*
X80522493Y-119679819D01*
X80522493Y-119679819D02*
X80284398Y-119679819D01*
X96013922Y-77729819D02*
X96585350Y-77729819D01*
X96299636Y-78729819D02*
X96299636Y-77729819D01*
X96823446Y-77729819D02*
X97490112Y-78729819D01*
X97490112Y-77729819D02*
X96823446Y-78729819D01*
X66199160Y-78982200D02*
X66342017Y-79029819D01*
X66342017Y-79029819D02*
X66580112Y-79029819D01*
X66580112Y-79029819D02*
X66675350Y-78982200D01*
X66675350Y-78982200D02*
X66722969Y-78934580D01*
X66722969Y-78934580D02*
X66770588Y-78839342D01*
X66770588Y-78839342D02*
X66770588Y-78744104D01*
X66770588Y-78744104D02*
X66722969Y-78648866D01*
X66722969Y-78648866D02*
X66675350Y-78601247D01*
X66675350Y-78601247D02*
X66580112Y-78553628D01*
X66580112Y-78553628D02*
X66389636Y-78506009D01*
X66389636Y-78506009D02*
X66294398Y-78458390D01*
X66294398Y-78458390D02*
X66246779Y-78410771D01*
X66246779Y-78410771D02*
X66199160Y-78315533D01*
X66199160Y-78315533D02*
X66199160Y-78220295D01*
X66199160Y-78220295D02*
X66246779Y-78125057D01*
X66246779Y-78125057D02*
X66294398Y-78077438D01*
X66294398Y-78077438D02*
X66389636Y-78029819D01*
X66389636Y-78029819D02*
X66627731Y-78029819D01*
X66627731Y-78029819D02*
X66770588Y-78077438D01*
X67770588Y-78934580D02*
X67722969Y-78982200D01*
X67722969Y-78982200D02*
X67580112Y-79029819D01*
X67580112Y-79029819D02*
X67484874Y-79029819D01*
X67484874Y-79029819D02*
X67342017Y-78982200D01*
X67342017Y-78982200D02*
X67246779Y-78886961D01*
X67246779Y-78886961D02*
X67199160Y-78791723D01*
X67199160Y-78791723D02*
X67151541Y-78601247D01*
X67151541Y-78601247D02*
X67151541Y-78458390D01*
X67151541Y-78458390D02*
X67199160Y-78267914D01*
X67199160Y-78267914D02*
X67246779Y-78172676D01*
X67246779Y-78172676D02*
X67342017Y-78077438D01*
X67342017Y-78077438D02*
X67484874Y-78029819D01*
X67484874Y-78029819D02*
X67580112Y-78029819D01*
X67580112Y-78029819D02*
X67722969Y-78077438D01*
X67722969Y-78077438D02*
X67770588Y-78125057D01*
X68199160Y-79029819D02*
X68199160Y-78029819D01*
X68770588Y-79029819D02*
X68342017Y-78458390D01*
X68770588Y-78029819D02*
X68199160Y-78601247D01*
X95966779Y-73549819D02*
X95966779Y-72549819D01*
X96442969Y-73549819D02*
X96442969Y-72549819D01*
X96442969Y-72549819D02*
X97014397Y-73549819D01*
X97014397Y-73549819D02*
X97014397Y-72549819D01*
X97347731Y-72549819D02*
X97919159Y-72549819D01*
X97633445Y-73549819D02*
X97633445Y-72549819D01*
X103082857Y-93576340D02*
X102701905Y-93576340D01*
X102701905Y-93576340D02*
X102616191Y-93957292D01*
X102616191Y-93957292D02*
X102659048Y-93919197D01*
X102659048Y-93919197D02*
X102740000Y-93881102D01*
X102740000Y-93881102D02*
X102930476Y-93881102D01*
X102930476Y-93881102D02*
X103001905Y-93919197D01*
X103001905Y-93919197D02*
X103035238Y-93957292D01*
X103035238Y-93957292D02*
X103063810Y-94033483D01*
X103063810Y-94033483D02*
X103040000Y-94223959D01*
X103040000Y-94223959D02*
X102992381Y-94300149D01*
X102992381Y-94300149D02*
X102949524Y-94338245D01*
X102949524Y-94338245D02*
X102868571Y-94376340D01*
X102868571Y-94376340D02*
X102678095Y-94376340D01*
X102678095Y-94376340D02*
X102606667Y-94338245D01*
X102606667Y-94338245D02*
X102573333Y-94300149D01*
X103349524Y-93576340D02*
X103516191Y-94376340D01*
X103516191Y-94376340D02*
X103882857Y-93576340D01*
X101859047Y-95664295D02*
X101478095Y-95664295D01*
X101478095Y-95664295D02*
X101578095Y-94864295D01*
X102163809Y-95664295D02*
X102316190Y-95664295D01*
X102316190Y-95664295D02*
X102397142Y-95626200D01*
X102397142Y-95626200D02*
X102440000Y-95588104D01*
X102440000Y-95588104D02*
X102530476Y-95473819D01*
X102530476Y-95473819D02*
X102587619Y-95321438D01*
X102587619Y-95321438D02*
X102625714Y-95016676D01*
X102625714Y-95016676D02*
X102597142Y-94940485D01*
X102597142Y-94940485D02*
X102563809Y-94902390D01*
X102563809Y-94902390D02*
X102492380Y-94864295D01*
X102492380Y-94864295D02*
X102340000Y-94864295D01*
X102340000Y-94864295D02*
X102259047Y-94902390D01*
X102259047Y-94902390D02*
X102216190Y-94940485D01*
X102216190Y-94940485D02*
X102168571Y-95016676D01*
X102168571Y-95016676D02*
X102144761Y-95207152D01*
X102144761Y-95207152D02*
X102173333Y-95283342D01*
X102173333Y-95283342D02*
X102206666Y-95321438D01*
X102206666Y-95321438D02*
X102278095Y-95359533D01*
X102278095Y-95359533D02*
X102430476Y-95359533D01*
X102430476Y-95359533D02*
X102511428Y-95321438D01*
X102511428Y-95321438D02*
X102554285Y-95283342D01*
X102554285Y-95283342D02*
X102601904Y-95207152D01*
X103330476Y-94864295D02*
X103178095Y-94864295D01*
X103178095Y-94864295D02*
X103097143Y-94902390D01*
X103097143Y-94902390D02*
X103054285Y-94940485D01*
X103054285Y-94940485D02*
X102963809Y-95054771D01*
X102963809Y-95054771D02*
X102906666Y-95207152D01*
X102906666Y-95207152D02*
X102868571Y-95511914D01*
X102868571Y-95511914D02*
X102897143Y-95588104D01*
X102897143Y-95588104D02*
X102930476Y-95626200D01*
X102930476Y-95626200D02*
X103001905Y-95664295D01*
X103001905Y-95664295D02*
X103154285Y-95664295D01*
X103154285Y-95664295D02*
X103235238Y-95626200D01*
X103235238Y-95626200D02*
X103278095Y-95588104D01*
X103278095Y-95588104D02*
X103325714Y-95511914D01*
X103325714Y-95511914D02*
X103349524Y-95321438D01*
X103349524Y-95321438D02*
X103320952Y-95245247D01*
X103320952Y-95245247D02*
X103287619Y-95207152D01*
X103287619Y-95207152D02*
X103216190Y-95169057D01*
X103216190Y-95169057D02*
X103063809Y-95169057D01*
X103063809Y-95169057D02*
X102982857Y-95207152D01*
X102982857Y-95207152D02*
X102940000Y-95245247D01*
X102940000Y-95245247D02*
X102892381Y-95321438D01*
X104068571Y-95664295D02*
X103611429Y-95664295D01*
X103840000Y-95664295D02*
X103940000Y-94864295D01*
X103940000Y-94864295D02*
X103849524Y-94978580D01*
X103849524Y-94978580D02*
X103763810Y-95054771D01*
X103763810Y-95054771D02*
X103682857Y-95092866D01*
X104854286Y-94864295D02*
X104701905Y-94864295D01*
X104701905Y-94864295D02*
X104620953Y-94902390D01*
X104620953Y-94902390D02*
X104578095Y-94940485D01*
X104578095Y-94940485D02*
X104487619Y-95054771D01*
X104487619Y-95054771D02*
X104430476Y-95207152D01*
X104430476Y-95207152D02*
X104392381Y-95511914D01*
X104392381Y-95511914D02*
X104420953Y-95588104D01*
X104420953Y-95588104D02*
X104454286Y-95626200D01*
X104454286Y-95626200D02*
X104525715Y-95664295D01*
X104525715Y-95664295D02*
X104678095Y-95664295D01*
X104678095Y-95664295D02*
X104759048Y-95626200D01*
X104759048Y-95626200D02*
X104801905Y-95588104D01*
X104801905Y-95588104D02*
X104849524Y-95511914D01*
X104849524Y-95511914D02*
X104873334Y-95321438D01*
X104873334Y-95321438D02*
X104844762Y-95245247D01*
X104844762Y-95245247D02*
X104811429Y-95207152D01*
X104811429Y-95207152D02*
X104740000Y-95169057D01*
X104740000Y-95169057D02*
X104587619Y-95169057D01*
X104587619Y-95169057D02*
X104506667Y-95207152D01*
X104506667Y-95207152D02*
X104463810Y-95245247D01*
X104463810Y-95245247D02*
X104416191Y-95321438D01*
X65556779Y-83949819D02*
X65556779Y-82949819D01*
X65556779Y-82949819D02*
X65890112Y-83664104D01*
X65890112Y-83664104D02*
X66223445Y-82949819D01*
X66223445Y-82949819D02*
X66223445Y-83949819D01*
X66890112Y-82949819D02*
X67080588Y-82949819D01*
X67080588Y-82949819D02*
X67175826Y-82997438D01*
X67175826Y-82997438D02*
X67271064Y-83092676D01*
X67271064Y-83092676D02*
X67318683Y-83283152D01*
X67318683Y-83283152D02*
X67318683Y-83616485D01*
X67318683Y-83616485D02*
X67271064Y-83806961D01*
X67271064Y-83806961D02*
X67175826Y-83902200D01*
X67175826Y-83902200D02*
X67080588Y-83949819D01*
X67080588Y-83949819D02*
X66890112Y-83949819D01*
X66890112Y-83949819D02*
X66794874Y-83902200D01*
X66794874Y-83902200D02*
X66699636Y-83806961D01*
X66699636Y-83806961D02*
X66652017Y-83616485D01*
X66652017Y-83616485D02*
X66652017Y-83283152D01*
X66652017Y-83283152D02*
X66699636Y-83092676D01*
X66699636Y-83092676D02*
X66794874Y-82997438D01*
X66794874Y-82997438D02*
X66890112Y-82949819D01*
X67699636Y-83902200D02*
X67842493Y-83949819D01*
X67842493Y-83949819D02*
X68080588Y-83949819D01*
X68080588Y-83949819D02*
X68175826Y-83902200D01*
X68175826Y-83902200D02*
X68223445Y-83854580D01*
X68223445Y-83854580D02*
X68271064Y-83759342D01*
X68271064Y-83759342D02*
X68271064Y-83664104D01*
X68271064Y-83664104D02*
X68223445Y-83568866D01*
X68223445Y-83568866D02*
X68175826Y-83521247D01*
X68175826Y-83521247D02*
X68080588Y-83473628D01*
X68080588Y-83473628D02*
X67890112Y-83426009D01*
X67890112Y-83426009D02*
X67794874Y-83378390D01*
X67794874Y-83378390D02*
X67747255Y-83330771D01*
X67747255Y-83330771D02*
X67699636Y-83235533D01*
X67699636Y-83235533D02*
X67699636Y-83140295D01*
X67699636Y-83140295D02*
X67747255Y-83045057D01*
X67747255Y-83045057D02*
X67794874Y-82997438D01*
X67794874Y-82997438D02*
X67890112Y-82949819D01*
X67890112Y-82949819D02*
X68128207Y-82949819D01*
X68128207Y-82949819D02*
X68271064Y-82997438D01*
X68699636Y-83949819D02*
X68699636Y-82949819D01*
X101179160Y-113712200D02*
X101322017Y-113759819D01*
X101322017Y-113759819D02*
X101560112Y-113759819D01*
X101560112Y-113759819D02*
X101655350Y-113712200D01*
X101655350Y-113712200D02*
X101702969Y-113664580D01*
X101702969Y-113664580D02*
X101750588Y-113569342D01*
X101750588Y-113569342D02*
X101750588Y-113474104D01*
X101750588Y-113474104D02*
X101702969Y-113378866D01*
X101702969Y-113378866D02*
X101655350Y-113331247D01*
X101655350Y-113331247D02*
X101560112Y-113283628D01*
X101560112Y-113283628D02*
X101369636Y-113236009D01*
X101369636Y-113236009D02*
X101274398Y-113188390D01*
X101274398Y-113188390D02*
X101226779Y-113140771D01*
X101226779Y-113140771D02*
X101179160Y-113045533D01*
X101179160Y-113045533D02*
X101179160Y-112950295D01*
X101179160Y-112950295D02*
X101226779Y-112855057D01*
X101226779Y-112855057D02*
X101274398Y-112807438D01*
X101274398Y-112807438D02*
X101369636Y-112759819D01*
X101369636Y-112759819D02*
X101607731Y-112759819D01*
X101607731Y-112759819D02*
X101750588Y-112807438D01*
X102750588Y-113664580D02*
X102702969Y-113712200D01*
X102702969Y-113712200D02*
X102560112Y-113759819D01*
X102560112Y-113759819D02*
X102464874Y-113759819D01*
X102464874Y-113759819D02*
X102322017Y-113712200D01*
X102322017Y-113712200D02*
X102226779Y-113616961D01*
X102226779Y-113616961D02*
X102179160Y-113521723D01*
X102179160Y-113521723D02*
X102131541Y-113331247D01*
X102131541Y-113331247D02*
X102131541Y-113188390D01*
X102131541Y-113188390D02*
X102179160Y-112997914D01*
X102179160Y-112997914D02*
X102226779Y-112902676D01*
X102226779Y-112902676D02*
X102322017Y-112807438D01*
X102322017Y-112807438D02*
X102464874Y-112759819D01*
X102464874Y-112759819D02*
X102560112Y-112759819D01*
X102560112Y-112759819D02*
X102702969Y-112807438D01*
X102702969Y-112807438D02*
X102750588Y-112855057D01*
X103655350Y-113759819D02*
X103179160Y-113759819D01*
X103179160Y-113759819D02*
X103179160Y-112759819D01*
D13*
X145177292Y-117042742D02*
X145177292Y-118014171D01*
X145177292Y-118014171D02*
X145234435Y-118128457D01*
X145234435Y-118128457D02*
X145291578Y-118185600D01*
X145291578Y-118185600D02*
X145405863Y-118242742D01*
X145405863Y-118242742D02*
X145634435Y-118242742D01*
X145634435Y-118242742D02*
X145748720Y-118185600D01*
X145748720Y-118185600D02*
X145805863Y-118128457D01*
X145805863Y-118128457D02*
X145863006Y-118014171D01*
X145863006Y-118014171D02*
X145863006Y-117042742D01*
X146377292Y-117899885D02*
X146948721Y-117899885D01*
X146263006Y-118242742D02*
X146663006Y-117042742D01*
X146663006Y-117042742D02*
X147063006Y-118242742D01*
X148148720Y-118242742D02*
X147748720Y-117671314D01*
X147463006Y-118242742D02*
X147463006Y-117042742D01*
X147463006Y-117042742D02*
X147920149Y-117042742D01*
X147920149Y-117042742D02*
X148034434Y-117099885D01*
X148034434Y-117099885D02*
X148091577Y-117157028D01*
X148091577Y-117157028D02*
X148148720Y-117271314D01*
X148148720Y-117271314D02*
X148148720Y-117442742D01*
X148148720Y-117442742D02*
X148091577Y-117557028D01*
X148091577Y-117557028D02*
X148034434Y-117614171D01*
X148034434Y-117614171D02*
X147920149Y-117671314D01*
X147920149Y-117671314D02*
X147463006Y-117671314D01*
X148491577Y-117042742D02*
X149177292Y-117042742D01*
X148834434Y-118242742D02*
X148834434Y-117042742D01*
D10*
X89840588Y-118917438D02*
X89745350Y-118869819D01*
X89745350Y-118869819D02*
X89602493Y-118869819D01*
X89602493Y-118869819D02*
X89459636Y-118917438D01*
X89459636Y-118917438D02*
X89364398Y-119012676D01*
X89364398Y-119012676D02*
X89316779Y-119107914D01*
X89316779Y-119107914D02*
X89269160Y-119298390D01*
X89269160Y-119298390D02*
X89269160Y-119441247D01*
X89269160Y-119441247D02*
X89316779Y-119631723D01*
X89316779Y-119631723D02*
X89364398Y-119726961D01*
X89364398Y-119726961D02*
X89459636Y-119822200D01*
X89459636Y-119822200D02*
X89602493Y-119869819D01*
X89602493Y-119869819D02*
X89697731Y-119869819D01*
X89697731Y-119869819D02*
X89840588Y-119822200D01*
X89840588Y-119822200D02*
X89888207Y-119774580D01*
X89888207Y-119774580D02*
X89888207Y-119441247D01*
X89888207Y-119441247D02*
X89697731Y-119441247D01*
X90316779Y-119869819D02*
X90316779Y-118869819D01*
X90316779Y-118869819D02*
X90888207Y-119869819D01*
X90888207Y-119869819D02*
X90888207Y-118869819D01*
X91364398Y-119869819D02*
X91364398Y-118869819D01*
X91364398Y-118869819D02*
X91602493Y-118869819D01*
X91602493Y-118869819D02*
X91745350Y-118917438D01*
X91745350Y-118917438D02*
X91840588Y-119012676D01*
X91840588Y-119012676D02*
X91888207Y-119107914D01*
X91888207Y-119107914D02*
X91935826Y-119298390D01*
X91935826Y-119298390D02*
X91935826Y-119441247D01*
X91935826Y-119441247D02*
X91888207Y-119631723D01*
X91888207Y-119631723D02*
X91840588Y-119726961D01*
X91840588Y-119726961D02*
X91745350Y-119822200D01*
X91745350Y-119822200D02*
X91602493Y-119869819D01*
X91602493Y-119869819D02*
X91364398Y-119869819D01*
X130846779Y-112929819D02*
X130846779Y-111929819D01*
X130846779Y-111929819D02*
X131227731Y-111929819D01*
X131227731Y-111929819D02*
X131322969Y-111977438D01*
X131322969Y-111977438D02*
X131370588Y-112025057D01*
X131370588Y-112025057D02*
X131418207Y-112120295D01*
X131418207Y-112120295D02*
X131418207Y-112263152D01*
X131418207Y-112263152D02*
X131370588Y-112358390D01*
X131370588Y-112358390D02*
X131322969Y-112406009D01*
X131322969Y-112406009D02*
X131227731Y-112453628D01*
X131227731Y-112453628D02*
X130846779Y-112453628D01*
X132418207Y-112834580D02*
X132370588Y-112882200D01*
X132370588Y-112882200D02*
X132227731Y-112929819D01*
X132227731Y-112929819D02*
X132132493Y-112929819D01*
X132132493Y-112929819D02*
X131989636Y-112882200D01*
X131989636Y-112882200D02*
X131894398Y-112786961D01*
X131894398Y-112786961D02*
X131846779Y-112691723D01*
X131846779Y-112691723D02*
X131799160Y-112501247D01*
X131799160Y-112501247D02*
X131799160Y-112358390D01*
X131799160Y-112358390D02*
X131846779Y-112167914D01*
X131846779Y-112167914D02*
X131894398Y-112072676D01*
X131894398Y-112072676D02*
X131989636Y-111977438D01*
X131989636Y-111977438D02*
X132132493Y-111929819D01*
X132132493Y-111929819D02*
X132227731Y-111929819D01*
X132227731Y-111929819D02*
X132370588Y-111977438D01*
X132370588Y-111977438D02*
X132418207Y-112025057D01*
X132846779Y-112929819D02*
X132846779Y-111929819D01*
X96029160Y-81242200D02*
X96172017Y-81289819D01*
X96172017Y-81289819D02*
X96410112Y-81289819D01*
X96410112Y-81289819D02*
X96505350Y-81242200D01*
X96505350Y-81242200D02*
X96552969Y-81194580D01*
X96552969Y-81194580D02*
X96600588Y-81099342D01*
X96600588Y-81099342D02*
X96600588Y-81004104D01*
X96600588Y-81004104D02*
X96552969Y-80908866D01*
X96552969Y-80908866D02*
X96505350Y-80861247D01*
X96505350Y-80861247D02*
X96410112Y-80813628D01*
X96410112Y-80813628D02*
X96219636Y-80766009D01*
X96219636Y-80766009D02*
X96124398Y-80718390D01*
X96124398Y-80718390D02*
X96076779Y-80670771D01*
X96076779Y-80670771D02*
X96029160Y-80575533D01*
X96029160Y-80575533D02*
X96029160Y-80480295D01*
X96029160Y-80480295D02*
X96076779Y-80385057D01*
X96076779Y-80385057D02*
X96124398Y-80337438D01*
X96124398Y-80337438D02*
X96219636Y-80289819D01*
X96219636Y-80289819D02*
X96457731Y-80289819D01*
X96457731Y-80289819D02*
X96600588Y-80337438D01*
X97600588Y-81194580D02*
X97552969Y-81242200D01*
X97552969Y-81242200D02*
X97410112Y-81289819D01*
X97410112Y-81289819D02*
X97314874Y-81289819D01*
X97314874Y-81289819D02*
X97172017Y-81242200D01*
X97172017Y-81242200D02*
X97076779Y-81146961D01*
X97076779Y-81146961D02*
X97029160Y-81051723D01*
X97029160Y-81051723D02*
X96981541Y-80861247D01*
X96981541Y-80861247D02*
X96981541Y-80718390D01*
X96981541Y-80718390D02*
X97029160Y-80527914D01*
X97029160Y-80527914D02*
X97076779Y-80432676D01*
X97076779Y-80432676D02*
X97172017Y-80337438D01*
X97172017Y-80337438D02*
X97314874Y-80289819D01*
X97314874Y-80289819D02*
X97410112Y-80289819D01*
X97410112Y-80289819D02*
X97552969Y-80337438D01*
X97552969Y-80337438D02*
X97600588Y-80385057D01*
X98505350Y-81289819D02*
X98029160Y-81289819D01*
X98029160Y-81289819D02*
X98029160Y-80289819D01*
X133937142Y-55394636D02*
X133889523Y-55442256D01*
X133889523Y-55442256D02*
X133746666Y-55489875D01*
X133746666Y-55489875D02*
X133651428Y-55489875D01*
X133651428Y-55489875D02*
X133508571Y-55442256D01*
X133508571Y-55442256D02*
X133413333Y-55347017D01*
X133413333Y-55347017D02*
X133365714Y-55251779D01*
X133365714Y-55251779D02*
X133318095Y-55061303D01*
X133318095Y-55061303D02*
X133318095Y-54918446D01*
X133318095Y-54918446D02*
X133365714Y-54727970D01*
X133365714Y-54727970D02*
X133413333Y-54632732D01*
X133413333Y-54632732D02*
X133508571Y-54537494D01*
X133508571Y-54537494D02*
X133651428Y-54489875D01*
X133651428Y-54489875D02*
X133746666Y-54489875D01*
X133746666Y-54489875D02*
X133889523Y-54537494D01*
X133889523Y-54537494D02*
X133937142Y-54585113D01*
X134318095Y-55204160D02*
X134794285Y-55204160D01*
X134222857Y-55489875D02*
X134556190Y-54489875D01*
X134556190Y-54489875D02*
X134889523Y-55489875D01*
X135222857Y-55489875D02*
X135222857Y-54489875D01*
X135222857Y-54489875D02*
X135794285Y-55489875D01*
X135794285Y-55489875D02*
X135794285Y-54489875D01*
X130675238Y-57099819D02*
X130675238Y-56099819D01*
X131103809Y-57099819D02*
X131103809Y-56576009D01*
X131103809Y-56576009D02*
X131056190Y-56480771D01*
X131056190Y-56480771D02*
X130960952Y-56433152D01*
X130960952Y-56433152D02*
X130818095Y-56433152D01*
X130818095Y-56433152D02*
X130722857Y-56480771D01*
X130722857Y-56480771D02*
X130675238Y-56528390D01*
X131580000Y-57099819D02*
X131580000Y-56433152D01*
X131580000Y-56099819D02*
X131532381Y-56147438D01*
X131532381Y-56147438D02*
X131580000Y-56195057D01*
X131580000Y-56195057D02*
X131627619Y-56147438D01*
X131627619Y-56147438D02*
X131580000Y-56099819D01*
X131580000Y-56099819D02*
X131580000Y-56195057D01*
X132484761Y-56433152D02*
X132484761Y-57242676D01*
X132484761Y-57242676D02*
X132437142Y-57337914D01*
X132437142Y-57337914D02*
X132389523Y-57385533D01*
X132389523Y-57385533D02*
X132294285Y-57433152D01*
X132294285Y-57433152D02*
X132151428Y-57433152D01*
X132151428Y-57433152D02*
X132056190Y-57385533D01*
X132484761Y-57052200D02*
X132389523Y-57099819D01*
X132389523Y-57099819D02*
X132199047Y-57099819D01*
X132199047Y-57099819D02*
X132103809Y-57052200D01*
X132103809Y-57052200D02*
X132056190Y-57004580D01*
X132056190Y-57004580D02*
X132008571Y-56909342D01*
X132008571Y-56909342D02*
X132008571Y-56623628D01*
X132008571Y-56623628D02*
X132056190Y-56528390D01*
X132056190Y-56528390D02*
X132103809Y-56480771D01*
X132103809Y-56480771D02*
X132199047Y-56433152D01*
X132199047Y-56433152D02*
X132389523Y-56433152D01*
X132389523Y-56433152D02*
X132484761Y-56480771D01*
X132960952Y-57099819D02*
X132960952Y-56099819D01*
X133389523Y-57099819D02*
X133389523Y-56576009D01*
X133389523Y-56576009D02*
X133341904Y-56480771D01*
X133341904Y-56480771D02*
X133246666Y-56433152D01*
X133246666Y-56433152D02*
X133103809Y-56433152D01*
X133103809Y-56433152D02*
X133008571Y-56480771D01*
X133008571Y-56480771D02*
X132960952Y-56528390D01*
X134580000Y-57052200D02*
X134675238Y-57099819D01*
X134675238Y-57099819D02*
X134865714Y-57099819D01*
X134865714Y-57099819D02*
X134960952Y-57052200D01*
X134960952Y-57052200D02*
X135008571Y-56956961D01*
X135008571Y-56956961D02*
X135008571Y-56909342D01*
X135008571Y-56909342D02*
X134960952Y-56814104D01*
X134960952Y-56814104D02*
X134865714Y-56766485D01*
X134865714Y-56766485D02*
X134722857Y-56766485D01*
X134722857Y-56766485D02*
X134627619Y-56718866D01*
X134627619Y-56718866D02*
X134580000Y-56623628D01*
X134580000Y-56623628D02*
X134580000Y-56576009D01*
X134580000Y-56576009D02*
X134627619Y-56480771D01*
X134627619Y-56480771D02*
X134722857Y-56433152D01*
X134722857Y-56433152D02*
X134865714Y-56433152D01*
X134865714Y-56433152D02*
X134960952Y-56480771D01*
X135437143Y-56433152D02*
X135437143Y-57433152D01*
X135437143Y-56480771D02*
X135532381Y-56433152D01*
X135532381Y-56433152D02*
X135722857Y-56433152D01*
X135722857Y-56433152D02*
X135818095Y-56480771D01*
X135818095Y-56480771D02*
X135865714Y-56528390D01*
X135865714Y-56528390D02*
X135913333Y-56623628D01*
X135913333Y-56623628D02*
X135913333Y-56909342D01*
X135913333Y-56909342D02*
X135865714Y-57004580D01*
X135865714Y-57004580D02*
X135818095Y-57052200D01*
X135818095Y-57052200D02*
X135722857Y-57099819D01*
X135722857Y-57099819D02*
X135532381Y-57099819D01*
X135532381Y-57099819D02*
X135437143Y-57052200D01*
X136722857Y-57052200D02*
X136627619Y-57099819D01*
X136627619Y-57099819D02*
X136437143Y-57099819D01*
X136437143Y-57099819D02*
X136341905Y-57052200D01*
X136341905Y-57052200D02*
X136294286Y-56956961D01*
X136294286Y-56956961D02*
X136294286Y-56576009D01*
X136294286Y-56576009D02*
X136341905Y-56480771D01*
X136341905Y-56480771D02*
X136437143Y-56433152D01*
X136437143Y-56433152D02*
X136627619Y-56433152D01*
X136627619Y-56433152D02*
X136722857Y-56480771D01*
X136722857Y-56480771D02*
X136770476Y-56576009D01*
X136770476Y-56576009D02*
X136770476Y-56671247D01*
X136770476Y-56671247D02*
X136294286Y-56766485D01*
X137580000Y-57052200D02*
X137484762Y-57099819D01*
X137484762Y-57099819D02*
X137294286Y-57099819D01*
X137294286Y-57099819D02*
X137199048Y-57052200D01*
X137199048Y-57052200D02*
X137151429Y-56956961D01*
X137151429Y-56956961D02*
X137151429Y-56576009D01*
X137151429Y-56576009D02*
X137199048Y-56480771D01*
X137199048Y-56480771D02*
X137294286Y-56433152D01*
X137294286Y-56433152D02*
X137484762Y-56433152D01*
X137484762Y-56433152D02*
X137580000Y-56480771D01*
X137580000Y-56480771D02*
X137627619Y-56576009D01*
X137627619Y-56576009D02*
X137627619Y-56671247D01*
X137627619Y-56671247D02*
X137151429Y-56766485D01*
X138484762Y-57099819D02*
X138484762Y-56099819D01*
X138484762Y-57052200D02*
X138389524Y-57099819D01*
X138389524Y-57099819D02*
X138199048Y-57099819D01*
X138199048Y-57099819D02*
X138103810Y-57052200D01*
X138103810Y-57052200D02*
X138056191Y-57004580D01*
X138056191Y-57004580D02*
X138008572Y-56909342D01*
X138008572Y-56909342D02*
X138008572Y-56623628D01*
X138008572Y-56623628D02*
X138056191Y-56528390D01*
X138056191Y-56528390D02*
X138103810Y-56480771D01*
X138103810Y-56480771D02*
X138199048Y-56433152D01*
X138199048Y-56433152D02*
X138389524Y-56433152D01*
X138389524Y-56433152D02*
X138484762Y-56480771D01*
X78409160Y-113452200D02*
X78552017Y-113499819D01*
X78552017Y-113499819D02*
X78790112Y-113499819D01*
X78790112Y-113499819D02*
X78885350Y-113452200D01*
X78885350Y-113452200D02*
X78932969Y-113404580D01*
X78932969Y-113404580D02*
X78980588Y-113309342D01*
X78980588Y-113309342D02*
X78980588Y-113214104D01*
X78980588Y-113214104D02*
X78932969Y-113118866D01*
X78932969Y-113118866D02*
X78885350Y-113071247D01*
X78885350Y-113071247D02*
X78790112Y-113023628D01*
X78790112Y-113023628D02*
X78599636Y-112976009D01*
X78599636Y-112976009D02*
X78504398Y-112928390D01*
X78504398Y-112928390D02*
X78456779Y-112880771D01*
X78456779Y-112880771D02*
X78409160Y-112785533D01*
X78409160Y-112785533D02*
X78409160Y-112690295D01*
X78409160Y-112690295D02*
X78456779Y-112595057D01*
X78456779Y-112595057D02*
X78504398Y-112547438D01*
X78504398Y-112547438D02*
X78599636Y-112499819D01*
X78599636Y-112499819D02*
X78837731Y-112499819D01*
X78837731Y-112499819D02*
X78980588Y-112547438D01*
X79980588Y-113404580D02*
X79932969Y-113452200D01*
X79932969Y-113452200D02*
X79790112Y-113499819D01*
X79790112Y-113499819D02*
X79694874Y-113499819D01*
X79694874Y-113499819D02*
X79552017Y-113452200D01*
X79552017Y-113452200D02*
X79456779Y-113356961D01*
X79456779Y-113356961D02*
X79409160Y-113261723D01*
X79409160Y-113261723D02*
X79361541Y-113071247D01*
X79361541Y-113071247D02*
X79361541Y-112928390D01*
X79361541Y-112928390D02*
X79409160Y-112737914D01*
X79409160Y-112737914D02*
X79456779Y-112642676D01*
X79456779Y-112642676D02*
X79552017Y-112547438D01*
X79552017Y-112547438D02*
X79694874Y-112499819D01*
X79694874Y-112499819D02*
X79790112Y-112499819D01*
X79790112Y-112499819D02*
X79932969Y-112547438D01*
X79932969Y-112547438D02*
X79980588Y-112595057D01*
X80885350Y-113499819D02*
X80409160Y-113499819D01*
X80409160Y-113499819D02*
X80409160Y-112499819D01*
X64716779Y-86178866D02*
X65478684Y-86178866D01*
X65097731Y-86559819D02*
X65097731Y-85797914D01*
X65859636Y-85559819D02*
X66478683Y-85559819D01*
X66478683Y-85559819D02*
X66145350Y-85940771D01*
X66145350Y-85940771D02*
X66288207Y-85940771D01*
X66288207Y-85940771D02*
X66383445Y-85988390D01*
X66383445Y-85988390D02*
X66431064Y-86036009D01*
X66431064Y-86036009D02*
X66478683Y-86131247D01*
X66478683Y-86131247D02*
X66478683Y-86369342D01*
X66478683Y-86369342D02*
X66431064Y-86464580D01*
X66431064Y-86464580D02*
X66383445Y-86512200D01*
X66383445Y-86512200D02*
X66288207Y-86559819D01*
X66288207Y-86559819D02*
X66002493Y-86559819D01*
X66002493Y-86559819D02*
X65907255Y-86512200D01*
X65907255Y-86512200D02*
X65859636Y-86464580D01*
X66907255Y-86464580D02*
X66954874Y-86512200D01*
X66954874Y-86512200D02*
X66907255Y-86559819D01*
X66907255Y-86559819D02*
X66859636Y-86512200D01*
X66859636Y-86512200D02*
X66907255Y-86464580D01*
X66907255Y-86464580D02*
X66907255Y-86559819D01*
X67288207Y-85559819D02*
X67907254Y-85559819D01*
X67907254Y-85559819D02*
X67573921Y-85940771D01*
X67573921Y-85940771D02*
X67716778Y-85940771D01*
X67716778Y-85940771D02*
X67812016Y-85988390D01*
X67812016Y-85988390D02*
X67859635Y-86036009D01*
X67859635Y-86036009D02*
X67907254Y-86131247D01*
X67907254Y-86131247D02*
X67907254Y-86369342D01*
X67907254Y-86369342D02*
X67859635Y-86464580D01*
X67859635Y-86464580D02*
X67812016Y-86512200D01*
X67812016Y-86512200D02*
X67716778Y-86559819D01*
X67716778Y-86559819D02*
X67431064Y-86559819D01*
X67431064Y-86559819D02*
X67335826Y-86512200D01*
X67335826Y-86512200D02*
X67288207Y-86464580D01*
X68192969Y-85559819D02*
X68526302Y-86559819D01*
X68526302Y-86559819D02*
X68859635Y-85559819D01*
X115354819Y-130066189D02*
X114354819Y-130066189D01*
X115259580Y-129018571D02*
X115307200Y-129066190D01*
X115307200Y-129066190D02*
X115354819Y-129209047D01*
X115354819Y-129209047D02*
X115354819Y-129304285D01*
X115354819Y-129304285D02*
X115307200Y-129447142D01*
X115307200Y-129447142D02*
X115211961Y-129542380D01*
X115211961Y-129542380D02*
X115116723Y-129589999D01*
X115116723Y-129589999D02*
X114926247Y-129637618D01*
X114926247Y-129637618D02*
X114783390Y-129637618D01*
X114783390Y-129637618D02*
X114592914Y-129589999D01*
X114592914Y-129589999D02*
X114497676Y-129542380D01*
X114497676Y-129542380D02*
X114402438Y-129447142D01*
X114402438Y-129447142D02*
X114354819Y-129304285D01*
X114354819Y-129304285D02*
X114354819Y-129209047D01*
X114354819Y-129209047D02*
X114402438Y-129066190D01*
X114402438Y-129066190D02*
X114450057Y-129018571D01*
X115354819Y-128066190D02*
X115354819Y-128637618D01*
X115354819Y-128351904D02*
X114354819Y-128351904D01*
X114354819Y-128351904D02*
X114497676Y-128447142D01*
X114497676Y-128447142D02*
X114592914Y-128542380D01*
X114592914Y-128542380D02*
X114640533Y-128637618D01*
X136104819Y-60408333D02*
X136819104Y-60408333D01*
X136819104Y-60408333D02*
X136961961Y-60455952D01*
X136961961Y-60455952D02*
X137057200Y-60551190D01*
X137057200Y-60551190D02*
X137104819Y-60694047D01*
X137104819Y-60694047D02*
X137104819Y-60789285D01*
X137104819Y-59932142D02*
X136104819Y-59932142D01*
X136104819Y-59932142D02*
X136104819Y-59551190D01*
X136104819Y-59551190D02*
X136152438Y-59455952D01*
X136152438Y-59455952D02*
X136200057Y-59408333D01*
X136200057Y-59408333D02*
X136295295Y-59360714D01*
X136295295Y-59360714D02*
X136438152Y-59360714D01*
X136438152Y-59360714D02*
X136533390Y-59408333D01*
X136533390Y-59408333D02*
X136581009Y-59455952D01*
X136581009Y-59455952D02*
X136628628Y-59551190D01*
X136628628Y-59551190D02*
X136628628Y-59932142D01*
X136200057Y-58979761D02*
X136152438Y-58932142D01*
X136152438Y-58932142D02*
X136104819Y-58836904D01*
X136104819Y-58836904D02*
X136104819Y-58598809D01*
X136104819Y-58598809D02*
X136152438Y-58503571D01*
X136152438Y-58503571D02*
X136200057Y-58455952D01*
X136200057Y-58455952D02*
X136295295Y-58408333D01*
X136295295Y-58408333D02*
X136390533Y-58408333D01*
X136390533Y-58408333D02*
X136533390Y-58455952D01*
X136533390Y-58455952D02*
X137104819Y-59027380D01*
X137104819Y-59027380D02*
X137104819Y-58408333D01*
X113249580Y-96576666D02*
X113297200Y-96624285D01*
X113297200Y-96624285D02*
X113344819Y-96767142D01*
X113344819Y-96767142D02*
X113344819Y-96862380D01*
X113344819Y-96862380D02*
X113297200Y-97005237D01*
X113297200Y-97005237D02*
X113201961Y-97100475D01*
X113201961Y-97100475D02*
X113106723Y-97148094D01*
X113106723Y-97148094D02*
X112916247Y-97195713D01*
X112916247Y-97195713D02*
X112773390Y-97195713D01*
X112773390Y-97195713D02*
X112582914Y-97148094D01*
X112582914Y-97148094D02*
X112487676Y-97100475D01*
X112487676Y-97100475D02*
X112392438Y-97005237D01*
X112392438Y-97005237D02*
X112344819Y-96862380D01*
X112344819Y-96862380D02*
X112344819Y-96767142D01*
X112344819Y-96767142D02*
X112392438Y-96624285D01*
X112392438Y-96624285D02*
X112440057Y-96576666D01*
X112344819Y-96243332D02*
X112344819Y-95576666D01*
X112344819Y-95576666D02*
X113344819Y-96005237D01*
X95706666Y-108564819D02*
X95706666Y-109279104D01*
X95706666Y-109279104D02*
X95659047Y-109421961D01*
X95659047Y-109421961D02*
X95563809Y-109517200D01*
X95563809Y-109517200D02*
X95420952Y-109564819D01*
X95420952Y-109564819D02*
X95325714Y-109564819D01*
X96611428Y-108898152D02*
X96611428Y-109564819D01*
X96373333Y-108517200D02*
X96135238Y-109231485D01*
X96135238Y-109231485D02*
X96754285Y-109231485D01*
X109633333Y-105229580D02*
X109585714Y-105277200D01*
X109585714Y-105277200D02*
X109442857Y-105324819D01*
X109442857Y-105324819D02*
X109347619Y-105324819D01*
X109347619Y-105324819D02*
X109204762Y-105277200D01*
X109204762Y-105277200D02*
X109109524Y-105181961D01*
X109109524Y-105181961D02*
X109061905Y-105086723D01*
X109061905Y-105086723D02*
X109014286Y-104896247D01*
X109014286Y-104896247D02*
X109014286Y-104753390D01*
X109014286Y-104753390D02*
X109061905Y-104562914D01*
X109061905Y-104562914D02*
X109109524Y-104467676D01*
X109109524Y-104467676D02*
X109204762Y-104372438D01*
X109204762Y-104372438D02*
X109347619Y-104324819D01*
X109347619Y-104324819D02*
X109442857Y-104324819D01*
X109442857Y-104324819D02*
X109585714Y-104372438D01*
X109585714Y-104372438D02*
X109633333Y-104420057D01*
X110585714Y-105324819D02*
X110014286Y-105324819D01*
X110300000Y-105324819D02*
X110300000Y-104324819D01*
X110300000Y-104324819D02*
X110204762Y-104467676D01*
X110204762Y-104467676D02*
X110109524Y-104562914D01*
X110109524Y-104562914D02*
X110014286Y-104610533D01*
X132024819Y-87347619D02*
X131548628Y-87680952D01*
X132024819Y-87919047D02*
X131024819Y-87919047D01*
X131024819Y-87919047D02*
X131024819Y-87538095D01*
X131024819Y-87538095D02*
X131072438Y-87442857D01*
X131072438Y-87442857D02*
X131120057Y-87395238D01*
X131120057Y-87395238D02*
X131215295Y-87347619D01*
X131215295Y-87347619D02*
X131358152Y-87347619D01*
X131358152Y-87347619D02*
X131453390Y-87395238D01*
X131453390Y-87395238D02*
X131501009Y-87442857D01*
X131501009Y-87442857D02*
X131548628Y-87538095D01*
X131548628Y-87538095D02*
X131548628Y-87919047D01*
X131024819Y-86490476D02*
X131024819Y-86680952D01*
X131024819Y-86680952D02*
X131072438Y-86776190D01*
X131072438Y-86776190D02*
X131120057Y-86823809D01*
X131120057Y-86823809D02*
X131262914Y-86919047D01*
X131262914Y-86919047D02*
X131453390Y-86966666D01*
X131453390Y-86966666D02*
X131834342Y-86966666D01*
X131834342Y-86966666D02*
X131929580Y-86919047D01*
X131929580Y-86919047D02*
X131977200Y-86871428D01*
X131977200Y-86871428D02*
X132024819Y-86776190D01*
X132024819Y-86776190D02*
X132024819Y-86585714D01*
X132024819Y-86585714D02*
X131977200Y-86490476D01*
X131977200Y-86490476D02*
X131929580Y-86442857D01*
X131929580Y-86442857D02*
X131834342Y-86395238D01*
X131834342Y-86395238D02*
X131596247Y-86395238D01*
X131596247Y-86395238D02*
X131501009Y-86442857D01*
X131501009Y-86442857D02*
X131453390Y-86490476D01*
X131453390Y-86490476D02*
X131405771Y-86585714D01*
X131405771Y-86585714D02*
X131405771Y-86776190D01*
X131405771Y-86776190D02*
X131453390Y-86871428D01*
X131453390Y-86871428D02*
X131501009Y-86919047D01*
X131501009Y-86919047D02*
X131596247Y-86966666D01*
X131024819Y-85823809D02*
X131262914Y-85823809D01*
X131167676Y-86061904D02*
X131262914Y-85823809D01*
X131262914Y-85823809D02*
X131167676Y-85585714D01*
X131453390Y-85966666D02*
X131262914Y-85823809D01*
X131262914Y-85823809D02*
X131453390Y-85680952D01*
X90664819Y-66713809D02*
X90188628Y-67047142D01*
X90664819Y-67285237D02*
X89664819Y-67285237D01*
X89664819Y-67285237D02*
X89664819Y-66904285D01*
X89664819Y-66904285D02*
X89712438Y-66809047D01*
X89712438Y-66809047D02*
X89760057Y-66761428D01*
X89760057Y-66761428D02*
X89855295Y-66713809D01*
X89855295Y-66713809D02*
X89998152Y-66713809D01*
X89998152Y-66713809D02*
X90093390Y-66761428D01*
X90093390Y-66761428D02*
X90141009Y-66809047D01*
X90141009Y-66809047D02*
X90188628Y-66904285D01*
X90188628Y-66904285D02*
X90188628Y-67285237D01*
X90664819Y-65761428D02*
X90664819Y-66332856D01*
X90664819Y-66047142D02*
X89664819Y-66047142D01*
X89664819Y-66047142D02*
X89807676Y-66142380D01*
X89807676Y-66142380D02*
X89902914Y-66237618D01*
X89902914Y-66237618D02*
X89950533Y-66332856D01*
X89664819Y-65142380D02*
X89664819Y-65047142D01*
X89664819Y-65047142D02*
X89712438Y-64951904D01*
X89712438Y-64951904D02*
X89760057Y-64904285D01*
X89760057Y-64904285D02*
X89855295Y-64856666D01*
X89855295Y-64856666D02*
X90045771Y-64809047D01*
X90045771Y-64809047D02*
X90283866Y-64809047D01*
X90283866Y-64809047D02*
X90474342Y-64856666D01*
X90474342Y-64856666D02*
X90569580Y-64904285D01*
X90569580Y-64904285D02*
X90617200Y-64951904D01*
X90617200Y-64951904D02*
X90664819Y-65047142D01*
X90664819Y-65047142D02*
X90664819Y-65142380D01*
X90664819Y-65142380D02*
X90617200Y-65237618D01*
X90617200Y-65237618D02*
X90569580Y-65285237D01*
X90569580Y-65285237D02*
X90474342Y-65332856D01*
X90474342Y-65332856D02*
X90283866Y-65380475D01*
X90283866Y-65380475D02*
X90045771Y-65380475D01*
X90045771Y-65380475D02*
X89855295Y-65332856D01*
X89855295Y-65332856D02*
X89760057Y-65285237D01*
X89760057Y-65285237D02*
X89712438Y-65237618D01*
X89712438Y-65237618D02*
X89664819Y-65142380D01*
X89664819Y-64237618D02*
X89902914Y-64237618D01*
X89807676Y-64475713D02*
X89902914Y-64237618D01*
X89902914Y-64237618D02*
X89807676Y-63999523D01*
X90093390Y-64380475D02*
X89902914Y-64237618D01*
X89902914Y-64237618D02*
X90093390Y-64094761D01*
X87734819Y-66693809D02*
X87258628Y-67027142D01*
X87734819Y-67265237D02*
X86734819Y-67265237D01*
X86734819Y-67265237D02*
X86734819Y-66884285D01*
X86734819Y-66884285D02*
X86782438Y-66789047D01*
X86782438Y-66789047D02*
X86830057Y-66741428D01*
X86830057Y-66741428D02*
X86925295Y-66693809D01*
X86925295Y-66693809D02*
X87068152Y-66693809D01*
X87068152Y-66693809D02*
X87163390Y-66741428D01*
X87163390Y-66741428D02*
X87211009Y-66789047D01*
X87211009Y-66789047D02*
X87258628Y-66884285D01*
X87258628Y-66884285D02*
X87258628Y-67265237D01*
X87734819Y-65741428D02*
X87734819Y-66312856D01*
X87734819Y-66027142D02*
X86734819Y-66027142D01*
X86734819Y-66027142D02*
X86877676Y-66122380D01*
X86877676Y-66122380D02*
X86972914Y-66217618D01*
X86972914Y-66217618D02*
X87020533Y-66312856D01*
X86830057Y-65360475D02*
X86782438Y-65312856D01*
X86782438Y-65312856D02*
X86734819Y-65217618D01*
X86734819Y-65217618D02*
X86734819Y-64979523D01*
X86734819Y-64979523D02*
X86782438Y-64884285D01*
X86782438Y-64884285D02*
X86830057Y-64836666D01*
X86830057Y-64836666D02*
X86925295Y-64789047D01*
X86925295Y-64789047D02*
X87020533Y-64789047D01*
X87020533Y-64789047D02*
X87163390Y-64836666D01*
X87163390Y-64836666D02*
X87734819Y-65408094D01*
X87734819Y-65408094D02*
X87734819Y-64789047D01*
X86734819Y-64217618D02*
X86972914Y-64217618D01*
X86877676Y-64455713D02*
X86972914Y-64217618D01*
X86972914Y-64217618D02*
X86877676Y-63979523D01*
X87163390Y-64360475D02*
X86972914Y-64217618D01*
X86972914Y-64217618D02*
X87163390Y-64074761D01*
X127979915Y-52762767D02*
X127979915Y-53477052D01*
X127979915Y-53477052D02*
X127932296Y-53619909D01*
X127932296Y-53619909D02*
X127837058Y-53715148D01*
X127837058Y-53715148D02*
X127694201Y-53762767D01*
X127694201Y-53762767D02*
X127598963Y-53762767D01*
X128360868Y-52762767D02*
X129027534Y-52762767D01*
X129027534Y-52762767D02*
X128598963Y-53762767D01*
X96914819Y-52747619D02*
X96438628Y-53080952D01*
X96914819Y-53319047D02*
X95914819Y-53319047D01*
X95914819Y-53319047D02*
X95914819Y-52938095D01*
X95914819Y-52938095D02*
X95962438Y-52842857D01*
X95962438Y-52842857D02*
X96010057Y-52795238D01*
X96010057Y-52795238D02*
X96105295Y-52747619D01*
X96105295Y-52747619D02*
X96248152Y-52747619D01*
X96248152Y-52747619D02*
X96343390Y-52795238D01*
X96343390Y-52795238D02*
X96391009Y-52842857D01*
X96391009Y-52842857D02*
X96438628Y-52938095D01*
X96438628Y-52938095D02*
X96438628Y-53319047D01*
X96010057Y-52366666D02*
X95962438Y-52319047D01*
X95962438Y-52319047D02*
X95914819Y-52223809D01*
X95914819Y-52223809D02*
X95914819Y-51985714D01*
X95914819Y-51985714D02*
X95962438Y-51890476D01*
X95962438Y-51890476D02*
X96010057Y-51842857D01*
X96010057Y-51842857D02*
X96105295Y-51795238D01*
X96105295Y-51795238D02*
X96200533Y-51795238D01*
X96200533Y-51795238D02*
X96343390Y-51842857D01*
X96343390Y-51842857D02*
X96914819Y-52414285D01*
X96914819Y-52414285D02*
X96914819Y-51795238D01*
X95914819Y-51223809D02*
X96152914Y-51223809D01*
X96057676Y-51461904D02*
X96152914Y-51223809D01*
X96152914Y-51223809D02*
X96057676Y-50985714D01*
X96343390Y-51366666D02*
X96152914Y-51223809D01*
X96152914Y-51223809D02*
X96343390Y-51080952D01*
X103849914Y-52750819D02*
X103849914Y-53465104D01*
X103849914Y-53465104D02*
X103802295Y-53607961D01*
X103802295Y-53607961D02*
X103707057Y-53703200D01*
X103707057Y-53703200D02*
X103564200Y-53750819D01*
X103564200Y-53750819D02*
X103468962Y-53750819D01*
X104278486Y-52846057D02*
X104326105Y-52798438D01*
X104326105Y-52798438D02*
X104421343Y-52750819D01*
X104421343Y-52750819D02*
X104659438Y-52750819D01*
X104659438Y-52750819D02*
X104754676Y-52798438D01*
X104754676Y-52798438D02*
X104802295Y-52846057D01*
X104802295Y-52846057D02*
X104849914Y-52941295D01*
X104849914Y-52941295D02*
X104849914Y-53036533D01*
X104849914Y-53036533D02*
X104802295Y-53179390D01*
X104802295Y-53179390D02*
X104230867Y-53750819D01*
X104230867Y-53750819D02*
X104849914Y-53750819D01*
X115489580Y-96586666D02*
X115537200Y-96634285D01*
X115537200Y-96634285D02*
X115584819Y-96777142D01*
X115584819Y-96777142D02*
X115584819Y-96872380D01*
X115584819Y-96872380D02*
X115537200Y-97015237D01*
X115537200Y-97015237D02*
X115441961Y-97110475D01*
X115441961Y-97110475D02*
X115346723Y-97158094D01*
X115346723Y-97158094D02*
X115156247Y-97205713D01*
X115156247Y-97205713D02*
X115013390Y-97205713D01*
X115013390Y-97205713D02*
X114822914Y-97158094D01*
X114822914Y-97158094D02*
X114727676Y-97110475D01*
X114727676Y-97110475D02*
X114632438Y-97015237D01*
X114632438Y-97015237D02*
X114584819Y-96872380D01*
X114584819Y-96872380D02*
X114584819Y-96777142D01*
X114584819Y-96777142D02*
X114632438Y-96634285D01*
X114632438Y-96634285D02*
X114680057Y-96586666D01*
X115584819Y-96110475D02*
X115584819Y-95919999D01*
X115584819Y-95919999D02*
X115537200Y-95824761D01*
X115537200Y-95824761D02*
X115489580Y-95777142D01*
X115489580Y-95777142D02*
X115346723Y-95681904D01*
X115346723Y-95681904D02*
X115156247Y-95634285D01*
X115156247Y-95634285D02*
X114775295Y-95634285D01*
X114775295Y-95634285D02*
X114680057Y-95681904D01*
X114680057Y-95681904D02*
X114632438Y-95729523D01*
X114632438Y-95729523D02*
X114584819Y-95824761D01*
X114584819Y-95824761D02*
X114584819Y-96015237D01*
X114584819Y-96015237D02*
X114632438Y-96110475D01*
X114632438Y-96110475D02*
X114680057Y-96158094D01*
X114680057Y-96158094D02*
X114775295Y-96205713D01*
X114775295Y-96205713D02*
X115013390Y-96205713D01*
X115013390Y-96205713D02*
X115108628Y-96158094D01*
X115108628Y-96158094D02*
X115156247Y-96110475D01*
X115156247Y-96110475D02*
X115203866Y-96015237D01*
X115203866Y-96015237D02*
X115203866Y-95824761D01*
X115203866Y-95824761D02*
X115156247Y-95729523D01*
X115156247Y-95729523D02*
X115108628Y-95681904D01*
X115108628Y-95681904D02*
X115013390Y-95634285D01*
X138426666Y-128399819D02*
X138426666Y-129114104D01*
X138426666Y-129114104D02*
X138379047Y-129256961D01*
X138379047Y-129256961D02*
X138283809Y-129352200D01*
X138283809Y-129352200D02*
X138140952Y-129399819D01*
X138140952Y-129399819D02*
X138045714Y-129399819D01*
X138902857Y-129399819D02*
X138902857Y-128399819D01*
X138902857Y-128399819D02*
X139283809Y-128399819D01*
X139283809Y-128399819D02*
X139379047Y-128447438D01*
X139379047Y-128447438D02*
X139426666Y-128495057D01*
X139426666Y-128495057D02*
X139474285Y-128590295D01*
X139474285Y-128590295D02*
X139474285Y-128733152D01*
X139474285Y-128733152D02*
X139426666Y-128828390D01*
X139426666Y-128828390D02*
X139379047Y-128876009D01*
X139379047Y-128876009D02*
X139283809Y-128923628D01*
X139283809Y-128923628D02*
X138902857Y-128923628D01*
X140379047Y-128399819D02*
X139902857Y-128399819D01*
X139902857Y-128399819D02*
X139855238Y-128876009D01*
X139855238Y-128876009D02*
X139902857Y-128828390D01*
X139902857Y-128828390D02*
X139998095Y-128780771D01*
X139998095Y-128780771D02*
X140236190Y-128780771D01*
X140236190Y-128780771D02*
X140331428Y-128828390D01*
X140331428Y-128828390D02*
X140379047Y-128876009D01*
X140379047Y-128876009D02*
X140426666Y-128971247D01*
X140426666Y-128971247D02*
X140426666Y-129209342D01*
X140426666Y-129209342D02*
X140379047Y-129304580D01*
X140379047Y-129304580D02*
X140331428Y-129352200D01*
X140331428Y-129352200D02*
X140236190Y-129399819D01*
X140236190Y-129399819D02*
X139998095Y-129399819D01*
X139998095Y-129399819D02*
X139902857Y-129352200D01*
X139902857Y-129352200D02*
X139855238Y-129304580D01*
X80944819Y-66673809D02*
X80468628Y-67007142D01*
X80944819Y-67245237D02*
X79944819Y-67245237D01*
X79944819Y-67245237D02*
X79944819Y-66864285D01*
X79944819Y-66864285D02*
X79992438Y-66769047D01*
X79992438Y-66769047D02*
X80040057Y-66721428D01*
X80040057Y-66721428D02*
X80135295Y-66673809D01*
X80135295Y-66673809D02*
X80278152Y-66673809D01*
X80278152Y-66673809D02*
X80373390Y-66721428D01*
X80373390Y-66721428D02*
X80421009Y-66769047D01*
X80421009Y-66769047D02*
X80468628Y-66864285D01*
X80468628Y-66864285D02*
X80468628Y-67245237D01*
X80944819Y-65721428D02*
X80944819Y-66292856D01*
X80944819Y-66007142D02*
X79944819Y-66007142D01*
X79944819Y-66007142D02*
X80087676Y-66102380D01*
X80087676Y-66102380D02*
X80182914Y-66197618D01*
X80182914Y-66197618D02*
X80230533Y-66292856D01*
X79944819Y-64816666D02*
X79944819Y-65292856D01*
X79944819Y-65292856D02*
X80421009Y-65340475D01*
X80421009Y-65340475D02*
X80373390Y-65292856D01*
X80373390Y-65292856D02*
X80325771Y-65197618D01*
X80325771Y-65197618D02*
X80325771Y-64959523D01*
X80325771Y-64959523D02*
X80373390Y-64864285D01*
X80373390Y-64864285D02*
X80421009Y-64816666D01*
X80421009Y-64816666D02*
X80516247Y-64769047D01*
X80516247Y-64769047D02*
X80754342Y-64769047D01*
X80754342Y-64769047D02*
X80849580Y-64816666D01*
X80849580Y-64816666D02*
X80897200Y-64864285D01*
X80897200Y-64864285D02*
X80944819Y-64959523D01*
X80944819Y-64959523D02*
X80944819Y-65197618D01*
X80944819Y-65197618D02*
X80897200Y-65292856D01*
X80897200Y-65292856D02*
X80849580Y-65340475D01*
X79944819Y-64197618D02*
X80182914Y-64197618D01*
X80087676Y-64435713D02*
X80182914Y-64197618D01*
X80182914Y-64197618D02*
X80087676Y-63959523D01*
X80373390Y-64340475D02*
X80182914Y-64197618D01*
X80182914Y-64197618D02*
X80373390Y-64054761D01*
X131413333Y-110029580D02*
X131365714Y-110077200D01*
X131365714Y-110077200D02*
X131222857Y-110124819D01*
X131222857Y-110124819D02*
X131127619Y-110124819D01*
X131127619Y-110124819D02*
X130984762Y-110077200D01*
X130984762Y-110077200D02*
X130889524Y-109981961D01*
X130889524Y-109981961D02*
X130841905Y-109886723D01*
X130841905Y-109886723D02*
X130794286Y-109696247D01*
X130794286Y-109696247D02*
X130794286Y-109553390D01*
X130794286Y-109553390D02*
X130841905Y-109362914D01*
X130841905Y-109362914D02*
X130889524Y-109267676D01*
X130889524Y-109267676D02*
X130984762Y-109172438D01*
X130984762Y-109172438D02*
X131127619Y-109124819D01*
X131127619Y-109124819D02*
X131222857Y-109124819D01*
X131222857Y-109124819D02*
X131365714Y-109172438D01*
X131365714Y-109172438D02*
X131413333Y-109220057D01*
X132318095Y-109124819D02*
X131841905Y-109124819D01*
X131841905Y-109124819D02*
X131794286Y-109601009D01*
X131794286Y-109601009D02*
X131841905Y-109553390D01*
X131841905Y-109553390D02*
X131937143Y-109505771D01*
X131937143Y-109505771D02*
X132175238Y-109505771D01*
X132175238Y-109505771D02*
X132270476Y-109553390D01*
X132270476Y-109553390D02*
X132318095Y-109601009D01*
X132318095Y-109601009D02*
X132365714Y-109696247D01*
X132365714Y-109696247D02*
X132365714Y-109934342D01*
X132365714Y-109934342D02*
X132318095Y-110029580D01*
X132318095Y-110029580D02*
X132270476Y-110077200D01*
X132270476Y-110077200D02*
X132175238Y-110124819D01*
X132175238Y-110124819D02*
X131937143Y-110124819D01*
X131937143Y-110124819D02*
X131841905Y-110077200D01*
X131841905Y-110077200D02*
X131794286Y-110029580D01*
X92674819Y-66703809D02*
X92198628Y-67037142D01*
X92674819Y-67275237D02*
X91674819Y-67275237D01*
X91674819Y-67275237D02*
X91674819Y-66894285D01*
X91674819Y-66894285D02*
X91722438Y-66799047D01*
X91722438Y-66799047D02*
X91770057Y-66751428D01*
X91770057Y-66751428D02*
X91865295Y-66703809D01*
X91865295Y-66703809D02*
X92008152Y-66703809D01*
X92008152Y-66703809D02*
X92103390Y-66751428D01*
X92103390Y-66751428D02*
X92151009Y-66799047D01*
X92151009Y-66799047D02*
X92198628Y-66894285D01*
X92198628Y-66894285D02*
X92198628Y-67275237D01*
X92674819Y-65751428D02*
X92674819Y-66322856D01*
X92674819Y-66037142D02*
X91674819Y-66037142D01*
X91674819Y-66037142D02*
X91817676Y-66132380D01*
X91817676Y-66132380D02*
X91912914Y-66227618D01*
X91912914Y-66227618D02*
X91960533Y-66322856D01*
X92674819Y-64799047D02*
X92674819Y-65370475D01*
X92674819Y-65084761D02*
X91674819Y-65084761D01*
X91674819Y-65084761D02*
X91817676Y-65179999D01*
X91817676Y-65179999D02*
X91912914Y-65275237D01*
X91912914Y-65275237D02*
X91960533Y-65370475D01*
X91674819Y-64227618D02*
X91912914Y-64227618D01*
X91817676Y-64465713D02*
X91912914Y-64227618D01*
X91912914Y-64227618D02*
X91817676Y-63989523D01*
X92103390Y-64370475D02*
X91912914Y-64227618D01*
X91912914Y-64227618D02*
X92103390Y-64084761D01*
X131976666Y-128384819D02*
X131976666Y-129099104D01*
X131976666Y-129099104D02*
X131929047Y-129241961D01*
X131929047Y-129241961D02*
X131833809Y-129337200D01*
X131833809Y-129337200D02*
X131690952Y-129384819D01*
X131690952Y-129384819D02*
X131595714Y-129384819D01*
X132452857Y-129384819D02*
X132452857Y-128384819D01*
X132452857Y-128384819D02*
X132833809Y-128384819D01*
X132833809Y-128384819D02*
X132929047Y-128432438D01*
X132929047Y-128432438D02*
X132976666Y-128480057D01*
X132976666Y-128480057D02*
X133024285Y-128575295D01*
X133024285Y-128575295D02*
X133024285Y-128718152D01*
X133024285Y-128718152D02*
X132976666Y-128813390D01*
X132976666Y-128813390D02*
X132929047Y-128861009D01*
X132929047Y-128861009D02*
X132833809Y-128908628D01*
X132833809Y-128908628D02*
X132452857Y-128908628D01*
X133976666Y-129384819D02*
X133405238Y-129384819D01*
X133690952Y-129384819D02*
X133690952Y-128384819D01*
X133690952Y-128384819D02*
X133595714Y-128527676D01*
X133595714Y-128527676D02*
X133500476Y-128622914D01*
X133500476Y-128622914D02*
X133405238Y-128670533D01*
X72906666Y-108634819D02*
X72906666Y-109349104D01*
X72906666Y-109349104D02*
X72859047Y-109491961D01*
X72859047Y-109491961D02*
X72763809Y-109587200D01*
X72763809Y-109587200D02*
X72620952Y-109634819D01*
X72620952Y-109634819D02*
X72525714Y-109634819D01*
X73811428Y-108634819D02*
X73620952Y-108634819D01*
X73620952Y-108634819D02*
X73525714Y-108682438D01*
X73525714Y-108682438D02*
X73478095Y-108730057D01*
X73478095Y-108730057D02*
X73382857Y-108872914D01*
X73382857Y-108872914D02*
X73335238Y-109063390D01*
X73335238Y-109063390D02*
X73335238Y-109444342D01*
X73335238Y-109444342D02*
X73382857Y-109539580D01*
X73382857Y-109539580D02*
X73430476Y-109587200D01*
X73430476Y-109587200D02*
X73525714Y-109634819D01*
X73525714Y-109634819D02*
X73716190Y-109634819D01*
X73716190Y-109634819D02*
X73811428Y-109587200D01*
X73811428Y-109587200D02*
X73859047Y-109539580D01*
X73859047Y-109539580D02*
X73906666Y-109444342D01*
X73906666Y-109444342D02*
X73906666Y-109206247D01*
X73906666Y-109206247D02*
X73859047Y-109111009D01*
X73859047Y-109111009D02*
X73811428Y-109063390D01*
X73811428Y-109063390D02*
X73716190Y-109015771D01*
X73716190Y-109015771D02*
X73525714Y-109015771D01*
X73525714Y-109015771D02*
X73430476Y-109063390D01*
X73430476Y-109063390D02*
X73382857Y-109111009D01*
X73382857Y-109111009D02*
X73335238Y-109206247D01*
X112163333Y-116889580D02*
X112115714Y-116937200D01*
X112115714Y-116937200D02*
X111972857Y-116984819D01*
X111972857Y-116984819D02*
X111877619Y-116984819D01*
X111877619Y-116984819D02*
X111734762Y-116937200D01*
X111734762Y-116937200D02*
X111639524Y-116841961D01*
X111639524Y-116841961D02*
X111591905Y-116746723D01*
X111591905Y-116746723D02*
X111544286Y-116556247D01*
X111544286Y-116556247D02*
X111544286Y-116413390D01*
X111544286Y-116413390D02*
X111591905Y-116222914D01*
X111591905Y-116222914D02*
X111639524Y-116127676D01*
X111639524Y-116127676D02*
X111734762Y-116032438D01*
X111734762Y-116032438D02*
X111877619Y-115984819D01*
X111877619Y-115984819D02*
X111972857Y-115984819D01*
X111972857Y-115984819D02*
X112115714Y-116032438D01*
X112115714Y-116032438D02*
X112163333Y-116080057D01*
X113020476Y-115984819D02*
X112830000Y-115984819D01*
X112830000Y-115984819D02*
X112734762Y-116032438D01*
X112734762Y-116032438D02*
X112687143Y-116080057D01*
X112687143Y-116080057D02*
X112591905Y-116222914D01*
X112591905Y-116222914D02*
X112544286Y-116413390D01*
X112544286Y-116413390D02*
X112544286Y-116794342D01*
X112544286Y-116794342D02*
X112591905Y-116889580D01*
X112591905Y-116889580D02*
X112639524Y-116937200D01*
X112639524Y-116937200D02*
X112734762Y-116984819D01*
X112734762Y-116984819D02*
X112925238Y-116984819D01*
X112925238Y-116984819D02*
X113020476Y-116937200D01*
X113020476Y-116937200D02*
X113068095Y-116889580D01*
X113068095Y-116889580D02*
X113115714Y-116794342D01*
X113115714Y-116794342D02*
X113115714Y-116556247D01*
X113115714Y-116556247D02*
X113068095Y-116461009D01*
X113068095Y-116461009D02*
X113020476Y-116413390D01*
X113020476Y-116413390D02*
X112925238Y-116365771D01*
X112925238Y-116365771D02*
X112734762Y-116365771D01*
X112734762Y-116365771D02*
X112639524Y-116413390D01*
X112639524Y-116413390D02*
X112591905Y-116461009D01*
X112591905Y-116461009D02*
X112544286Y-116556247D01*
X115519533Y-85484580D02*
X115471914Y-85532200D01*
X115471914Y-85532200D02*
X115329057Y-85579819D01*
X115329057Y-85579819D02*
X115233819Y-85579819D01*
X115233819Y-85579819D02*
X115090962Y-85532200D01*
X115090962Y-85532200D02*
X114995724Y-85436961D01*
X114995724Y-85436961D02*
X114948105Y-85341723D01*
X114948105Y-85341723D02*
X114900486Y-85151247D01*
X114900486Y-85151247D02*
X114900486Y-85008390D01*
X114900486Y-85008390D02*
X114948105Y-84817914D01*
X114948105Y-84817914D02*
X114995724Y-84722676D01*
X114995724Y-84722676D02*
X115090962Y-84627438D01*
X115090962Y-84627438D02*
X115233819Y-84579819D01*
X115233819Y-84579819D02*
X115329057Y-84579819D01*
X115329057Y-84579819D02*
X115471914Y-84627438D01*
X115471914Y-84627438D02*
X115519533Y-84675057D01*
X116519533Y-85579819D02*
X116186200Y-85103628D01*
X115948105Y-85579819D02*
X115948105Y-84579819D01*
X115948105Y-84579819D02*
X116329057Y-84579819D01*
X116329057Y-84579819D02*
X116424295Y-84627438D01*
X116424295Y-84627438D02*
X116471914Y-84675057D01*
X116471914Y-84675057D02*
X116519533Y-84770295D01*
X116519533Y-84770295D02*
X116519533Y-84913152D01*
X116519533Y-84913152D02*
X116471914Y-85008390D01*
X116471914Y-85008390D02*
X116424295Y-85056009D01*
X116424295Y-85056009D02*
X116329057Y-85103628D01*
X116329057Y-85103628D02*
X115948105Y-85103628D01*
X117471914Y-85579819D02*
X116900486Y-85579819D01*
X117186200Y-85579819D02*
X117186200Y-84579819D01*
X117186200Y-84579819D02*
X117090962Y-84722676D01*
X117090962Y-84722676D02*
X116995724Y-84817914D01*
X116995724Y-84817914D02*
X116900486Y-84865533D01*
X111985833Y-128859580D02*
X111938214Y-128907200D01*
X111938214Y-128907200D02*
X111795357Y-128954819D01*
X111795357Y-128954819D02*
X111700119Y-128954819D01*
X111700119Y-128954819D02*
X111557262Y-128907200D01*
X111557262Y-128907200D02*
X111462024Y-128811961D01*
X111462024Y-128811961D02*
X111414405Y-128716723D01*
X111414405Y-128716723D02*
X111366786Y-128526247D01*
X111366786Y-128526247D02*
X111366786Y-128383390D01*
X111366786Y-128383390D02*
X111414405Y-128192914D01*
X111414405Y-128192914D02*
X111462024Y-128097676D01*
X111462024Y-128097676D02*
X111557262Y-128002438D01*
X111557262Y-128002438D02*
X111700119Y-127954819D01*
X111700119Y-127954819D02*
X111795357Y-127954819D01*
X111795357Y-127954819D02*
X111938214Y-128002438D01*
X111938214Y-128002438D02*
X111985833Y-128050057D01*
X112319167Y-127954819D02*
X112938214Y-127954819D01*
X112938214Y-127954819D02*
X112604881Y-128335771D01*
X112604881Y-128335771D02*
X112747738Y-128335771D01*
X112747738Y-128335771D02*
X112842976Y-128383390D01*
X112842976Y-128383390D02*
X112890595Y-128431009D01*
X112890595Y-128431009D02*
X112938214Y-128526247D01*
X112938214Y-128526247D02*
X112938214Y-128764342D01*
X112938214Y-128764342D02*
X112890595Y-128859580D01*
X112890595Y-128859580D02*
X112842976Y-128907200D01*
X112842976Y-128907200D02*
X112747738Y-128954819D01*
X112747738Y-128954819D02*
X112462024Y-128954819D01*
X112462024Y-128954819D02*
X112366786Y-128907200D01*
X112366786Y-128907200D02*
X112319167Y-128859580D01*
X131914819Y-66007619D02*
X131438628Y-66340952D01*
X131914819Y-66579047D02*
X130914819Y-66579047D01*
X130914819Y-66579047D02*
X130914819Y-66198095D01*
X130914819Y-66198095D02*
X130962438Y-66102857D01*
X130962438Y-66102857D02*
X131010057Y-66055238D01*
X131010057Y-66055238D02*
X131105295Y-66007619D01*
X131105295Y-66007619D02*
X131248152Y-66007619D01*
X131248152Y-66007619D02*
X131343390Y-66055238D01*
X131343390Y-66055238D02*
X131391009Y-66102857D01*
X131391009Y-66102857D02*
X131438628Y-66198095D01*
X131438628Y-66198095D02*
X131438628Y-66579047D01*
X130914819Y-65674285D02*
X130914819Y-65007619D01*
X130914819Y-65007619D02*
X131914819Y-65436190D01*
X130914819Y-64483809D02*
X131152914Y-64483809D01*
X131057676Y-64721904D02*
X131152914Y-64483809D01*
X131152914Y-64483809D02*
X131057676Y-64245714D01*
X131343390Y-64626666D02*
X131152914Y-64483809D01*
X131152914Y-64483809D02*
X131343390Y-64340952D01*
X76258095Y-53564819D02*
X76258095Y-54374342D01*
X76258095Y-54374342D02*
X76305714Y-54469580D01*
X76305714Y-54469580D02*
X76353333Y-54517200D01*
X76353333Y-54517200D02*
X76448571Y-54564819D01*
X76448571Y-54564819D02*
X76639047Y-54564819D01*
X76639047Y-54564819D02*
X76734285Y-54517200D01*
X76734285Y-54517200D02*
X76781904Y-54469580D01*
X76781904Y-54469580D02*
X76829523Y-54374342D01*
X76829523Y-54374342D02*
X76829523Y-53564819D01*
X77258095Y-53660057D02*
X77305714Y-53612438D01*
X77305714Y-53612438D02*
X77400952Y-53564819D01*
X77400952Y-53564819D02*
X77639047Y-53564819D01*
X77639047Y-53564819D02*
X77734285Y-53612438D01*
X77734285Y-53612438D02*
X77781904Y-53660057D01*
X77781904Y-53660057D02*
X77829523Y-53755295D01*
X77829523Y-53755295D02*
X77829523Y-53850533D01*
X77829523Y-53850533D02*
X77781904Y-53993390D01*
X77781904Y-53993390D02*
X77210476Y-54564819D01*
X77210476Y-54564819D02*
X77829523Y-54564819D01*
X85744819Y-66703809D02*
X85268628Y-67037142D01*
X85744819Y-67275237D02*
X84744819Y-67275237D01*
X84744819Y-67275237D02*
X84744819Y-66894285D01*
X84744819Y-66894285D02*
X84792438Y-66799047D01*
X84792438Y-66799047D02*
X84840057Y-66751428D01*
X84840057Y-66751428D02*
X84935295Y-66703809D01*
X84935295Y-66703809D02*
X85078152Y-66703809D01*
X85078152Y-66703809D02*
X85173390Y-66751428D01*
X85173390Y-66751428D02*
X85221009Y-66799047D01*
X85221009Y-66799047D02*
X85268628Y-66894285D01*
X85268628Y-66894285D02*
X85268628Y-67275237D01*
X85744819Y-65751428D02*
X85744819Y-66322856D01*
X85744819Y-66037142D02*
X84744819Y-66037142D01*
X84744819Y-66037142D02*
X84887676Y-66132380D01*
X84887676Y-66132380D02*
X84982914Y-66227618D01*
X84982914Y-66227618D02*
X85030533Y-66322856D01*
X84744819Y-65418094D02*
X84744819Y-64799047D01*
X84744819Y-64799047D02*
X85125771Y-65132380D01*
X85125771Y-65132380D02*
X85125771Y-64989523D01*
X85125771Y-64989523D02*
X85173390Y-64894285D01*
X85173390Y-64894285D02*
X85221009Y-64846666D01*
X85221009Y-64846666D02*
X85316247Y-64799047D01*
X85316247Y-64799047D02*
X85554342Y-64799047D01*
X85554342Y-64799047D02*
X85649580Y-64846666D01*
X85649580Y-64846666D02*
X85697200Y-64894285D01*
X85697200Y-64894285D02*
X85744819Y-64989523D01*
X85744819Y-64989523D02*
X85744819Y-65275237D01*
X85744819Y-65275237D02*
X85697200Y-65370475D01*
X85697200Y-65370475D02*
X85649580Y-65418094D01*
X84744819Y-64227618D02*
X84982914Y-64227618D01*
X84887676Y-64465713D02*
X84982914Y-64227618D01*
X84982914Y-64227618D02*
X84887676Y-63989523D01*
X85173390Y-64370475D02*
X84982914Y-64227618D01*
X84982914Y-64227618D02*
X85173390Y-64084761D01*
X131357142Y-107779580D02*
X131309523Y-107827200D01*
X131309523Y-107827200D02*
X131166666Y-107874819D01*
X131166666Y-107874819D02*
X131071428Y-107874819D01*
X131071428Y-107874819D02*
X130928571Y-107827200D01*
X130928571Y-107827200D02*
X130833333Y-107731961D01*
X130833333Y-107731961D02*
X130785714Y-107636723D01*
X130785714Y-107636723D02*
X130738095Y-107446247D01*
X130738095Y-107446247D02*
X130738095Y-107303390D01*
X130738095Y-107303390D02*
X130785714Y-107112914D01*
X130785714Y-107112914D02*
X130833333Y-107017676D01*
X130833333Y-107017676D02*
X130928571Y-106922438D01*
X130928571Y-106922438D02*
X131071428Y-106874819D01*
X131071428Y-106874819D02*
X131166666Y-106874819D01*
X131166666Y-106874819D02*
X131309523Y-106922438D01*
X131309523Y-106922438D02*
X131357142Y-106970057D01*
X132309523Y-107874819D02*
X131738095Y-107874819D01*
X132023809Y-107874819D02*
X132023809Y-106874819D01*
X132023809Y-106874819D02*
X131928571Y-107017676D01*
X131928571Y-107017676D02*
X131833333Y-107112914D01*
X131833333Y-107112914D02*
X131738095Y-107160533D01*
X132928571Y-106874819D02*
X133023809Y-106874819D01*
X133023809Y-106874819D02*
X133119047Y-106922438D01*
X133119047Y-106922438D02*
X133166666Y-106970057D01*
X133166666Y-106970057D02*
X133214285Y-107065295D01*
X133214285Y-107065295D02*
X133261904Y-107255771D01*
X133261904Y-107255771D02*
X133261904Y-107493866D01*
X133261904Y-107493866D02*
X133214285Y-107684342D01*
X133214285Y-107684342D02*
X133166666Y-107779580D01*
X133166666Y-107779580D02*
X133119047Y-107827200D01*
X133119047Y-107827200D02*
X133023809Y-107874819D01*
X133023809Y-107874819D02*
X132928571Y-107874819D01*
X132928571Y-107874819D02*
X132833333Y-107827200D01*
X132833333Y-107827200D02*
X132785714Y-107779580D01*
X132785714Y-107779580D02*
X132738095Y-107684342D01*
X132738095Y-107684342D02*
X132690476Y-107493866D01*
X132690476Y-107493866D02*
X132690476Y-107255771D01*
X132690476Y-107255771D02*
X132738095Y-107065295D01*
X132738095Y-107065295D02*
X132785714Y-106970057D01*
X132785714Y-106970057D02*
X132833333Y-106922438D01*
X132833333Y-106922438D02*
X132928571Y-106874819D01*
X114861343Y-52530819D02*
X114861343Y-53340342D01*
X114861343Y-53340342D02*
X114908962Y-53435580D01*
X114908962Y-53435580D02*
X114956581Y-53483200D01*
X114956581Y-53483200D02*
X115051819Y-53530819D01*
X115051819Y-53530819D02*
X115242295Y-53530819D01*
X115242295Y-53530819D02*
X115337533Y-53483200D01*
X115337533Y-53483200D02*
X115385152Y-53435580D01*
X115385152Y-53435580D02*
X115432771Y-53340342D01*
X115432771Y-53340342D02*
X115432771Y-52530819D01*
X115861343Y-53483200D02*
X116004200Y-53530819D01*
X116004200Y-53530819D02*
X116242295Y-53530819D01*
X116242295Y-53530819D02*
X116337533Y-53483200D01*
X116337533Y-53483200D02*
X116385152Y-53435580D01*
X116385152Y-53435580D02*
X116432771Y-53340342D01*
X116432771Y-53340342D02*
X116432771Y-53245104D01*
X116432771Y-53245104D02*
X116385152Y-53149866D01*
X116385152Y-53149866D02*
X116337533Y-53102247D01*
X116337533Y-53102247D02*
X116242295Y-53054628D01*
X116242295Y-53054628D02*
X116051819Y-53007009D01*
X116051819Y-53007009D02*
X115956581Y-52959390D01*
X115956581Y-52959390D02*
X115908962Y-52911771D01*
X115908962Y-52911771D02*
X115861343Y-52816533D01*
X115861343Y-52816533D02*
X115861343Y-52721295D01*
X115861343Y-52721295D02*
X115908962Y-52626057D01*
X115908962Y-52626057D02*
X115956581Y-52578438D01*
X115956581Y-52578438D02*
X116051819Y-52530819D01*
X116051819Y-52530819D02*
X116289914Y-52530819D01*
X116289914Y-52530819D02*
X116432771Y-52578438D01*
X117194676Y-53007009D02*
X117337533Y-53054628D01*
X117337533Y-53054628D02*
X117385152Y-53102247D01*
X117385152Y-53102247D02*
X117432771Y-53197485D01*
X117432771Y-53197485D02*
X117432771Y-53340342D01*
X117432771Y-53340342D02*
X117385152Y-53435580D01*
X117385152Y-53435580D02*
X117337533Y-53483200D01*
X117337533Y-53483200D02*
X117242295Y-53530819D01*
X117242295Y-53530819D02*
X116861343Y-53530819D01*
X116861343Y-53530819D02*
X116861343Y-52530819D01*
X116861343Y-52530819D02*
X117194676Y-52530819D01*
X117194676Y-52530819D02*
X117289914Y-52578438D01*
X117289914Y-52578438D02*
X117337533Y-52626057D01*
X117337533Y-52626057D02*
X117385152Y-52721295D01*
X117385152Y-52721295D02*
X117385152Y-52816533D01*
X117385152Y-52816533D02*
X117337533Y-52911771D01*
X117337533Y-52911771D02*
X117289914Y-52959390D01*
X117289914Y-52959390D02*
X117194676Y-53007009D01*
X117194676Y-53007009D02*
X116861343Y-53007009D01*
X83906666Y-108594819D02*
X83906666Y-109309104D01*
X83906666Y-109309104D02*
X83859047Y-109451961D01*
X83859047Y-109451961D02*
X83763809Y-109547200D01*
X83763809Y-109547200D02*
X83620952Y-109594819D01*
X83620952Y-109594819D02*
X83525714Y-109594819D01*
X84430476Y-109594819D02*
X84620952Y-109594819D01*
X84620952Y-109594819D02*
X84716190Y-109547200D01*
X84716190Y-109547200D02*
X84763809Y-109499580D01*
X84763809Y-109499580D02*
X84859047Y-109356723D01*
X84859047Y-109356723D02*
X84906666Y-109166247D01*
X84906666Y-109166247D02*
X84906666Y-108785295D01*
X84906666Y-108785295D02*
X84859047Y-108690057D01*
X84859047Y-108690057D02*
X84811428Y-108642438D01*
X84811428Y-108642438D02*
X84716190Y-108594819D01*
X84716190Y-108594819D02*
X84525714Y-108594819D01*
X84525714Y-108594819D02*
X84430476Y-108642438D01*
X84430476Y-108642438D02*
X84382857Y-108690057D01*
X84382857Y-108690057D02*
X84335238Y-108785295D01*
X84335238Y-108785295D02*
X84335238Y-109023390D01*
X84335238Y-109023390D02*
X84382857Y-109118628D01*
X84382857Y-109118628D02*
X84430476Y-109166247D01*
X84430476Y-109166247D02*
X84525714Y-109213866D01*
X84525714Y-109213866D02*
X84716190Y-109213866D01*
X84716190Y-109213866D02*
X84811428Y-109166247D01*
X84811428Y-109166247D02*
X84859047Y-109118628D01*
X84859047Y-109118628D02*
X84906666Y-109023390D01*
D14*
X93466667Y-93254318D02*
X93466667Y-94161461D01*
X93466667Y-94161461D02*
X93406190Y-94342889D01*
X93406190Y-94342889D02*
X93285238Y-94463842D01*
X93285238Y-94463842D02*
X93103809Y-94524318D01*
X93103809Y-94524318D02*
X92982857Y-94524318D01*
X94676190Y-93254318D02*
X94071428Y-93254318D01*
X94071428Y-93254318D02*
X94010952Y-93859080D01*
X94010952Y-93859080D02*
X94071428Y-93798603D01*
X94071428Y-93798603D02*
X94192381Y-93738127D01*
X94192381Y-93738127D02*
X94494762Y-93738127D01*
X94494762Y-93738127D02*
X94615714Y-93798603D01*
X94615714Y-93798603D02*
X94676190Y-93859080D01*
X94676190Y-93859080D02*
X94736667Y-93980032D01*
X94736667Y-93980032D02*
X94736667Y-94282413D01*
X94736667Y-94282413D02*
X94676190Y-94403365D01*
X94676190Y-94403365D02*
X94615714Y-94463842D01*
X94615714Y-94463842D02*
X94494762Y-94524318D01*
X94494762Y-94524318D02*
X94192381Y-94524318D01*
X94192381Y-94524318D02*
X94071428Y-94463842D01*
X94071428Y-94463842D02*
X94010952Y-94403365D01*
D10*
X106602380Y-96594819D02*
X106269047Y-96118628D01*
X106030952Y-96594819D02*
X106030952Y-95594819D01*
X106030952Y-95594819D02*
X106411904Y-95594819D01*
X106411904Y-95594819D02*
X106507142Y-95642438D01*
X106507142Y-95642438D02*
X106554761Y-95690057D01*
X106554761Y-95690057D02*
X106602380Y-95785295D01*
X106602380Y-95785295D02*
X106602380Y-95928152D01*
X106602380Y-95928152D02*
X106554761Y-96023390D01*
X106554761Y-96023390D02*
X106507142Y-96071009D01*
X106507142Y-96071009D02*
X106411904Y-96118628D01*
X106411904Y-96118628D02*
X106030952Y-96118628D01*
X107078571Y-96594819D02*
X107269047Y-96594819D01*
X107269047Y-96594819D02*
X107364285Y-96547200D01*
X107364285Y-96547200D02*
X107411904Y-96499580D01*
X107411904Y-96499580D02*
X107507142Y-96356723D01*
X107507142Y-96356723D02*
X107554761Y-96166247D01*
X107554761Y-96166247D02*
X107554761Y-95785295D01*
X107554761Y-95785295D02*
X107507142Y-95690057D01*
X107507142Y-95690057D02*
X107459523Y-95642438D01*
X107459523Y-95642438D02*
X107364285Y-95594819D01*
X107364285Y-95594819D02*
X107173809Y-95594819D01*
X107173809Y-95594819D02*
X107078571Y-95642438D01*
X107078571Y-95642438D02*
X107030952Y-95690057D01*
X107030952Y-95690057D02*
X106983333Y-95785295D01*
X106983333Y-95785295D02*
X106983333Y-96023390D01*
X106983333Y-96023390D02*
X107030952Y-96118628D01*
X107030952Y-96118628D02*
X107078571Y-96166247D01*
X107078571Y-96166247D02*
X107173809Y-96213866D01*
X107173809Y-96213866D02*
X107364285Y-96213866D01*
X107364285Y-96213866D02*
X107459523Y-96166247D01*
X107459523Y-96166247D02*
X107507142Y-96118628D01*
X107507142Y-96118628D02*
X107554761Y-96023390D01*
X108126190Y-95594819D02*
X108126190Y-95832914D01*
X107888095Y-95737676D02*
X108126190Y-95832914D01*
X108126190Y-95832914D02*
X108364285Y-95737676D01*
X107983333Y-96023390D02*
X108126190Y-95832914D01*
X108126190Y-95832914D02*
X108269047Y-96023390D01*
X76803333Y-87339580D02*
X76755714Y-87387200D01*
X76755714Y-87387200D02*
X76612857Y-87434819D01*
X76612857Y-87434819D02*
X76517619Y-87434819D01*
X76517619Y-87434819D02*
X76374762Y-87387200D01*
X76374762Y-87387200D02*
X76279524Y-87291961D01*
X76279524Y-87291961D02*
X76231905Y-87196723D01*
X76231905Y-87196723D02*
X76184286Y-87006247D01*
X76184286Y-87006247D02*
X76184286Y-86863390D01*
X76184286Y-86863390D02*
X76231905Y-86672914D01*
X76231905Y-86672914D02*
X76279524Y-86577676D01*
X76279524Y-86577676D02*
X76374762Y-86482438D01*
X76374762Y-86482438D02*
X76517619Y-86434819D01*
X76517619Y-86434819D02*
X76612857Y-86434819D01*
X76612857Y-86434819D02*
X76755714Y-86482438D01*
X76755714Y-86482438D02*
X76803333Y-86530057D01*
X77660476Y-86768152D02*
X77660476Y-87434819D01*
X77422381Y-86387200D02*
X77184286Y-87101485D01*
X77184286Y-87101485D02*
X77803333Y-87101485D01*
X138387200Y-51153332D02*
X138434819Y-51010475D01*
X138434819Y-51010475D02*
X138434819Y-50772380D01*
X138434819Y-50772380D02*
X138387200Y-50677142D01*
X138387200Y-50677142D02*
X138339580Y-50629523D01*
X138339580Y-50629523D02*
X138244342Y-50581904D01*
X138244342Y-50581904D02*
X138149104Y-50581904D01*
X138149104Y-50581904D02*
X138053866Y-50629523D01*
X138053866Y-50629523D02*
X138006247Y-50677142D01*
X138006247Y-50677142D02*
X137958628Y-50772380D01*
X137958628Y-50772380D02*
X137911009Y-50962856D01*
X137911009Y-50962856D02*
X137863390Y-51058094D01*
X137863390Y-51058094D02*
X137815771Y-51105713D01*
X137815771Y-51105713D02*
X137720533Y-51153332D01*
X137720533Y-51153332D02*
X137625295Y-51153332D01*
X137625295Y-51153332D02*
X137530057Y-51105713D01*
X137530057Y-51105713D02*
X137482438Y-51058094D01*
X137482438Y-51058094D02*
X137434819Y-50962856D01*
X137434819Y-50962856D02*
X137434819Y-50724761D01*
X137434819Y-50724761D02*
X137482438Y-50581904D01*
X137434819Y-50248570D02*
X138434819Y-50010475D01*
X138434819Y-50010475D02*
X137720533Y-49819999D01*
X137720533Y-49819999D02*
X138434819Y-49629523D01*
X138434819Y-49629523D02*
X137434819Y-49391428D01*
X138434819Y-48486666D02*
X138434819Y-49058094D01*
X138434819Y-48772380D02*
X137434819Y-48772380D01*
X137434819Y-48772380D02*
X137577676Y-48867618D01*
X137577676Y-48867618D02*
X137672914Y-48962856D01*
X137672914Y-48962856D02*
X137720533Y-49058094D01*
X82874819Y-66673809D02*
X82398628Y-67007142D01*
X82874819Y-67245237D02*
X81874819Y-67245237D01*
X81874819Y-67245237D02*
X81874819Y-66864285D01*
X81874819Y-66864285D02*
X81922438Y-66769047D01*
X81922438Y-66769047D02*
X81970057Y-66721428D01*
X81970057Y-66721428D02*
X82065295Y-66673809D01*
X82065295Y-66673809D02*
X82208152Y-66673809D01*
X82208152Y-66673809D02*
X82303390Y-66721428D01*
X82303390Y-66721428D02*
X82351009Y-66769047D01*
X82351009Y-66769047D02*
X82398628Y-66864285D01*
X82398628Y-66864285D02*
X82398628Y-67245237D01*
X82874819Y-65721428D02*
X82874819Y-66292856D01*
X82874819Y-66007142D02*
X81874819Y-66007142D01*
X81874819Y-66007142D02*
X82017676Y-66102380D01*
X82017676Y-66102380D02*
X82112914Y-66197618D01*
X82112914Y-66197618D02*
X82160533Y-66292856D01*
X82208152Y-64864285D02*
X82874819Y-64864285D01*
X81827200Y-65102380D02*
X82541485Y-65340475D01*
X82541485Y-65340475D02*
X82541485Y-64721428D01*
X81874819Y-64197618D02*
X82112914Y-64197618D01*
X82017676Y-64435713D02*
X82112914Y-64197618D01*
X82112914Y-64197618D02*
X82017676Y-63959523D01*
X82303390Y-64340475D02*
X82112914Y-64197618D01*
X82112914Y-64197618D02*
X82303390Y-64054761D01*
X144396666Y-128414819D02*
X144396666Y-129129104D01*
X144396666Y-129129104D02*
X144349047Y-129271961D01*
X144349047Y-129271961D02*
X144253809Y-129367200D01*
X144253809Y-129367200D02*
X144110952Y-129414819D01*
X144110952Y-129414819D02*
X144015714Y-129414819D01*
X144872857Y-129414819D02*
X144872857Y-128414819D01*
X144872857Y-128414819D02*
X145253809Y-128414819D01*
X145253809Y-128414819D02*
X145349047Y-128462438D01*
X145349047Y-128462438D02*
X145396666Y-128510057D01*
X145396666Y-128510057D02*
X145444285Y-128605295D01*
X145444285Y-128605295D02*
X145444285Y-128748152D01*
X145444285Y-128748152D02*
X145396666Y-128843390D01*
X145396666Y-128843390D02*
X145349047Y-128891009D01*
X145349047Y-128891009D02*
X145253809Y-128938628D01*
X145253809Y-128938628D02*
X144872857Y-128938628D01*
X146301428Y-128748152D02*
X146301428Y-129414819D01*
X146063333Y-128367200D02*
X145825238Y-129081485D01*
X145825238Y-129081485D02*
X146444285Y-129081485D01*
X100614819Y-52787619D02*
X100138628Y-53120952D01*
X100614819Y-53359047D02*
X99614819Y-53359047D01*
X99614819Y-53359047D02*
X99614819Y-52978095D01*
X99614819Y-52978095D02*
X99662438Y-52882857D01*
X99662438Y-52882857D02*
X99710057Y-52835238D01*
X99710057Y-52835238D02*
X99805295Y-52787619D01*
X99805295Y-52787619D02*
X99948152Y-52787619D01*
X99948152Y-52787619D02*
X100043390Y-52835238D01*
X100043390Y-52835238D02*
X100091009Y-52882857D01*
X100091009Y-52882857D02*
X100138628Y-52978095D01*
X100138628Y-52978095D02*
X100138628Y-53359047D01*
X99614819Y-52454285D02*
X99614819Y-51835238D01*
X99614819Y-51835238D02*
X99995771Y-52168571D01*
X99995771Y-52168571D02*
X99995771Y-52025714D01*
X99995771Y-52025714D02*
X100043390Y-51930476D01*
X100043390Y-51930476D02*
X100091009Y-51882857D01*
X100091009Y-51882857D02*
X100186247Y-51835238D01*
X100186247Y-51835238D02*
X100424342Y-51835238D01*
X100424342Y-51835238D02*
X100519580Y-51882857D01*
X100519580Y-51882857D02*
X100567200Y-51930476D01*
X100567200Y-51930476D02*
X100614819Y-52025714D01*
X100614819Y-52025714D02*
X100614819Y-52311428D01*
X100614819Y-52311428D02*
X100567200Y-52406666D01*
X100567200Y-52406666D02*
X100519580Y-52454285D01*
X99614819Y-51263809D02*
X99852914Y-51263809D01*
X99757676Y-51501904D02*
X99852914Y-51263809D01*
X99852914Y-51263809D02*
X99757676Y-51025714D01*
X100043390Y-51406666D02*
X99852914Y-51263809D01*
X99852914Y-51263809D02*
X100043390Y-51120952D01*
X76783333Y-84779580D02*
X76735714Y-84827200D01*
X76735714Y-84827200D02*
X76592857Y-84874819D01*
X76592857Y-84874819D02*
X76497619Y-84874819D01*
X76497619Y-84874819D02*
X76354762Y-84827200D01*
X76354762Y-84827200D02*
X76259524Y-84731961D01*
X76259524Y-84731961D02*
X76211905Y-84636723D01*
X76211905Y-84636723D02*
X76164286Y-84446247D01*
X76164286Y-84446247D02*
X76164286Y-84303390D01*
X76164286Y-84303390D02*
X76211905Y-84112914D01*
X76211905Y-84112914D02*
X76259524Y-84017676D01*
X76259524Y-84017676D02*
X76354762Y-83922438D01*
X76354762Y-83922438D02*
X76497619Y-83874819D01*
X76497619Y-83874819D02*
X76592857Y-83874819D01*
X76592857Y-83874819D02*
X76735714Y-83922438D01*
X76735714Y-83922438D02*
X76783333Y-83970057D01*
X77164286Y-83970057D02*
X77211905Y-83922438D01*
X77211905Y-83922438D02*
X77307143Y-83874819D01*
X77307143Y-83874819D02*
X77545238Y-83874819D01*
X77545238Y-83874819D02*
X77640476Y-83922438D01*
X77640476Y-83922438D02*
X77688095Y-83970057D01*
X77688095Y-83970057D02*
X77735714Y-84065295D01*
X77735714Y-84065295D02*
X77735714Y-84160533D01*
X77735714Y-84160533D02*
X77688095Y-84303390D01*
X77688095Y-84303390D02*
X77116667Y-84874819D01*
X77116667Y-84874819D02*
X77735714Y-84874819D01*
X106502380Y-99884819D02*
X106169047Y-99408628D01*
X105930952Y-99884819D02*
X105930952Y-98884819D01*
X105930952Y-98884819D02*
X106311904Y-98884819D01*
X106311904Y-98884819D02*
X106407142Y-98932438D01*
X106407142Y-98932438D02*
X106454761Y-98980057D01*
X106454761Y-98980057D02*
X106502380Y-99075295D01*
X106502380Y-99075295D02*
X106502380Y-99218152D01*
X106502380Y-99218152D02*
X106454761Y-99313390D01*
X106454761Y-99313390D02*
X106407142Y-99361009D01*
X106407142Y-99361009D02*
X106311904Y-99408628D01*
X106311904Y-99408628D02*
X105930952Y-99408628D01*
X107073809Y-99313390D02*
X106978571Y-99265771D01*
X106978571Y-99265771D02*
X106930952Y-99218152D01*
X106930952Y-99218152D02*
X106883333Y-99122914D01*
X106883333Y-99122914D02*
X106883333Y-99075295D01*
X106883333Y-99075295D02*
X106930952Y-98980057D01*
X106930952Y-98980057D02*
X106978571Y-98932438D01*
X106978571Y-98932438D02*
X107073809Y-98884819D01*
X107073809Y-98884819D02*
X107264285Y-98884819D01*
X107264285Y-98884819D02*
X107359523Y-98932438D01*
X107359523Y-98932438D02*
X107407142Y-98980057D01*
X107407142Y-98980057D02*
X107454761Y-99075295D01*
X107454761Y-99075295D02*
X107454761Y-99122914D01*
X107454761Y-99122914D02*
X107407142Y-99218152D01*
X107407142Y-99218152D02*
X107359523Y-99265771D01*
X107359523Y-99265771D02*
X107264285Y-99313390D01*
X107264285Y-99313390D02*
X107073809Y-99313390D01*
X107073809Y-99313390D02*
X106978571Y-99361009D01*
X106978571Y-99361009D02*
X106930952Y-99408628D01*
X106930952Y-99408628D02*
X106883333Y-99503866D01*
X106883333Y-99503866D02*
X106883333Y-99694342D01*
X106883333Y-99694342D02*
X106930952Y-99789580D01*
X106930952Y-99789580D02*
X106978571Y-99837200D01*
X106978571Y-99837200D02*
X107073809Y-99884819D01*
X107073809Y-99884819D02*
X107264285Y-99884819D01*
X107264285Y-99884819D02*
X107359523Y-99837200D01*
X107359523Y-99837200D02*
X107407142Y-99789580D01*
X107407142Y-99789580D02*
X107454761Y-99694342D01*
X107454761Y-99694342D02*
X107454761Y-99503866D01*
X107454761Y-99503866D02*
X107407142Y-99408628D01*
X107407142Y-99408628D02*
X107359523Y-99361009D01*
X107359523Y-99361009D02*
X107264285Y-99313390D01*
X108026190Y-98884819D02*
X108026190Y-99122914D01*
X107788095Y-99027676D02*
X108026190Y-99122914D01*
X108026190Y-99122914D02*
X108264285Y-99027676D01*
X107883333Y-99313390D02*
X108026190Y-99122914D01*
X108026190Y-99122914D02*
X108169047Y-99313390D01*
X138353333Y-63894819D02*
X138020000Y-63418628D01*
X137781905Y-63894819D02*
X137781905Y-62894819D01*
X137781905Y-62894819D02*
X138162857Y-62894819D01*
X138162857Y-62894819D02*
X138258095Y-62942438D01*
X138258095Y-62942438D02*
X138305714Y-62990057D01*
X138305714Y-62990057D02*
X138353333Y-63085295D01*
X138353333Y-63085295D02*
X138353333Y-63228152D01*
X138353333Y-63228152D02*
X138305714Y-63323390D01*
X138305714Y-63323390D02*
X138258095Y-63371009D01*
X138258095Y-63371009D02*
X138162857Y-63418628D01*
X138162857Y-63418628D02*
X137781905Y-63418628D01*
X139210476Y-63228152D02*
X139210476Y-63894819D01*
X138972381Y-62847200D02*
X138734286Y-63561485D01*
X138734286Y-63561485D02*
X139353333Y-63561485D01*
X109593333Y-102799580D02*
X109545714Y-102847200D01*
X109545714Y-102847200D02*
X109402857Y-102894819D01*
X109402857Y-102894819D02*
X109307619Y-102894819D01*
X109307619Y-102894819D02*
X109164762Y-102847200D01*
X109164762Y-102847200D02*
X109069524Y-102751961D01*
X109069524Y-102751961D02*
X109021905Y-102656723D01*
X109021905Y-102656723D02*
X108974286Y-102466247D01*
X108974286Y-102466247D02*
X108974286Y-102323390D01*
X108974286Y-102323390D02*
X109021905Y-102132914D01*
X109021905Y-102132914D02*
X109069524Y-102037676D01*
X109069524Y-102037676D02*
X109164762Y-101942438D01*
X109164762Y-101942438D02*
X109307619Y-101894819D01*
X109307619Y-101894819D02*
X109402857Y-101894819D01*
X109402857Y-101894819D02*
X109545714Y-101942438D01*
X109545714Y-101942438D02*
X109593333Y-101990057D01*
X110164762Y-102323390D02*
X110069524Y-102275771D01*
X110069524Y-102275771D02*
X110021905Y-102228152D01*
X110021905Y-102228152D02*
X109974286Y-102132914D01*
X109974286Y-102132914D02*
X109974286Y-102085295D01*
X109974286Y-102085295D02*
X110021905Y-101990057D01*
X110021905Y-101990057D02*
X110069524Y-101942438D01*
X110069524Y-101942438D02*
X110164762Y-101894819D01*
X110164762Y-101894819D02*
X110355238Y-101894819D01*
X110355238Y-101894819D02*
X110450476Y-101942438D01*
X110450476Y-101942438D02*
X110498095Y-101990057D01*
X110498095Y-101990057D02*
X110545714Y-102085295D01*
X110545714Y-102085295D02*
X110545714Y-102132914D01*
X110545714Y-102132914D02*
X110498095Y-102228152D01*
X110498095Y-102228152D02*
X110450476Y-102275771D01*
X110450476Y-102275771D02*
X110355238Y-102323390D01*
X110355238Y-102323390D02*
X110164762Y-102323390D01*
X110164762Y-102323390D02*
X110069524Y-102371009D01*
X110069524Y-102371009D02*
X110021905Y-102418628D01*
X110021905Y-102418628D02*
X109974286Y-102513866D01*
X109974286Y-102513866D02*
X109974286Y-102704342D01*
X109974286Y-102704342D02*
X110021905Y-102799580D01*
X110021905Y-102799580D02*
X110069524Y-102847200D01*
X110069524Y-102847200D02*
X110164762Y-102894819D01*
X110164762Y-102894819D02*
X110355238Y-102894819D01*
X110355238Y-102894819D02*
X110450476Y-102847200D01*
X110450476Y-102847200D02*
X110498095Y-102799580D01*
X110498095Y-102799580D02*
X110545714Y-102704342D01*
X110545714Y-102704342D02*
X110545714Y-102513866D01*
X110545714Y-102513866D02*
X110498095Y-102418628D01*
X110498095Y-102418628D02*
X110450476Y-102371009D01*
X110450476Y-102371009D02*
X110355238Y-102323390D01*
X148546666Y-128414819D02*
X148546666Y-129129104D01*
X148546666Y-129129104D02*
X148499047Y-129271961D01*
X148499047Y-129271961D02*
X148403809Y-129367200D01*
X148403809Y-129367200D02*
X148260952Y-129414819D01*
X148260952Y-129414819D02*
X148165714Y-129414819D01*
X149022857Y-129414819D02*
X149022857Y-128414819D01*
X149022857Y-128414819D02*
X149403809Y-128414819D01*
X149403809Y-128414819D02*
X149499047Y-128462438D01*
X149499047Y-128462438D02*
X149546666Y-128510057D01*
X149546666Y-128510057D02*
X149594285Y-128605295D01*
X149594285Y-128605295D02*
X149594285Y-128748152D01*
X149594285Y-128748152D02*
X149546666Y-128843390D01*
X149546666Y-128843390D02*
X149499047Y-128891009D01*
X149499047Y-128891009D02*
X149403809Y-128938628D01*
X149403809Y-128938628D02*
X149022857Y-128938628D01*
X149927619Y-128414819D02*
X150546666Y-128414819D01*
X150546666Y-128414819D02*
X150213333Y-128795771D01*
X150213333Y-128795771D02*
X150356190Y-128795771D01*
X150356190Y-128795771D02*
X150451428Y-128843390D01*
X150451428Y-128843390D02*
X150499047Y-128891009D01*
X150499047Y-128891009D02*
X150546666Y-128986247D01*
X150546666Y-128986247D02*
X150546666Y-129224342D01*
X150546666Y-129224342D02*
X150499047Y-129319580D01*
X150499047Y-129319580D02*
X150451428Y-129367200D01*
X150451428Y-129367200D02*
X150356190Y-129414819D01*
X150356190Y-129414819D02*
X150070476Y-129414819D01*
X150070476Y-129414819D02*
X149975238Y-129367200D01*
X149975238Y-129367200D02*
X149927619Y-129319580D01*
X141133333Y-61664819D02*
X140800000Y-61188628D01*
X140561905Y-61664819D02*
X140561905Y-60664819D01*
X140561905Y-60664819D02*
X140942857Y-60664819D01*
X140942857Y-60664819D02*
X141038095Y-60712438D01*
X141038095Y-60712438D02*
X141085714Y-60760057D01*
X141085714Y-60760057D02*
X141133333Y-60855295D01*
X141133333Y-60855295D02*
X141133333Y-60998152D01*
X141133333Y-60998152D02*
X141085714Y-61093390D01*
X141085714Y-61093390D02*
X141038095Y-61141009D01*
X141038095Y-61141009D02*
X140942857Y-61188628D01*
X140942857Y-61188628D02*
X140561905Y-61188628D01*
X142085714Y-61664819D02*
X141514286Y-61664819D01*
X141800000Y-61664819D02*
X141800000Y-60664819D01*
X141800000Y-60664819D02*
X141704762Y-60807676D01*
X141704762Y-60807676D02*
X141609524Y-60902914D01*
X141609524Y-60902914D02*
X141514286Y-60950533D01*
D15*
X131880137Y-96635984D02*
X132594422Y-96635984D01*
X132594422Y-96635984D02*
X132737279Y-96683603D01*
X132737279Y-96683603D02*
X132832518Y-96778841D01*
X132832518Y-96778841D02*
X132880137Y-96921698D01*
X132880137Y-96921698D02*
X132880137Y-97016936D01*
X132880137Y-95635984D02*
X132880137Y-96207412D01*
X132880137Y-95921698D02*
X131880137Y-95921698D01*
X131880137Y-95921698D02*
X132022994Y-96016936D01*
X132022994Y-96016936D02*
X132118232Y-96112174D01*
X132118232Y-96112174D02*
X132165851Y-96207412D01*
D16*
%TO.C,IC1*%
X115734748Y-100245000D02*
X115734748Y-103045000D01*
X115734748Y-117845000D02*
X115734748Y-120645000D01*
X115734748Y-127445000D02*
X115734748Y-130645000D01*
X115734748Y-130645000D02*
X122034748Y-130645000D01*
X122034748Y-100245000D02*
X115734748Y-100245000D01*
X125134748Y-103445000D02*
X125134748Y-102245000D01*
X125134748Y-121045000D02*
X125134748Y-118245000D01*
X125134748Y-128645000D02*
X125134748Y-127845000D01*
%TO.C,JP2*%
X133090000Y-60240000D02*
X133090000Y-57640000D01*
X135750000Y-57640000D02*
X133090000Y-57640000D01*
X135750000Y-60240000D02*
X133090000Y-60240000D01*
X135750000Y-60240000D02*
X135750000Y-57640000D01*
X135750000Y-61510000D02*
X135750000Y-62840000D01*
X135750000Y-62840000D02*
X134420000Y-62840000D01*
%TO.C,C7*%
X112055000Y-93218748D02*
X112055000Y-93741252D01*
X113525000Y-93218748D02*
X113525000Y-93741252D01*
%TO.C,J4*%
X94240000Y-110610000D02*
X94240000Y-113260000D01*
X94240000Y-110610000D02*
X100090000Y-110610000D01*
X94240000Y-113510000D02*
X94240000Y-114110000D01*
X94240000Y-114360000D02*
X94240000Y-117860000D01*
X94240000Y-118110000D02*
X94240000Y-118710000D01*
X94240000Y-119010000D02*
X94240000Y-121660000D01*
X94240000Y-121660000D02*
X100090000Y-121660000D01*
X97540000Y-110110000D02*
X100540000Y-110110000D01*
X100090000Y-110610000D02*
X100090000Y-121660000D01*
X100540000Y-110110000D02*
X100540000Y-113110000D01*
%TO.C,C1*%
X112945300Y-104138200D02*
X112422796Y-104138200D01*
X112945300Y-105608200D02*
X112422796Y-105608200D01*
%TO.C,R6\u002A*%
X130865000Y-90017064D02*
X130865000Y-89562936D01*
X132335000Y-90017064D02*
X132335000Y-89562936D01*
%TO.C,R10\u002A*%
X89475000Y-62077064D02*
X89475000Y-61622936D01*
X90945000Y-62077064D02*
X90945000Y-61622936D01*
%TO.C,R12\u002A*%
X86545000Y-62057064D02*
X86545000Y-61602936D01*
X88015000Y-62057064D02*
X88015000Y-61602936D01*
%TO.C,J7*%
X126983249Y-54307948D02*
X128313249Y-54307948D01*
X126983249Y-55637948D02*
X126983249Y-54307948D01*
X126983249Y-56907948D02*
X126983249Y-92527948D01*
X126983249Y-56907948D02*
X129643249Y-56907948D01*
X126983249Y-92527948D02*
X129643249Y-92527948D01*
X129643249Y-56907948D02*
X129643249Y-92527948D01*
%TO.C,R2\u002A*%
X94075000Y-51972936D02*
X94075000Y-52427064D01*
X95545000Y-51972936D02*
X95545000Y-52427064D01*
%TO.C,J2*%
X102853248Y-54296000D02*
X104183248Y-54296000D01*
X102853248Y-55626000D02*
X102853248Y-54296000D01*
X102853248Y-56896000D02*
X102853248Y-92516000D01*
X102853248Y-56896000D02*
X105513248Y-56896000D01*
X102853248Y-92516000D02*
X105513248Y-92516000D01*
X105513248Y-56896000D02*
X105513248Y-92516000D01*
%TO.C,C9*%
X114295000Y-93228748D02*
X114295000Y-93751252D01*
X115765000Y-93228748D02*
X115765000Y-93751252D01*
D17*
%TO.C,G\u002A\u002A\u002A*%
G36*
X107103930Y-100546571D02*
G01*
X107174640Y-100571878D01*
X107189110Y-100579333D01*
X107248612Y-100622766D01*
X107294836Y-100680782D01*
X107327763Y-100752985D01*
X107347374Y-100838980D01*
X107353652Y-100938371D01*
X107346576Y-101050763D01*
X107326129Y-101175759D01*
X107292292Y-101312965D01*
X107245046Y-101461985D01*
X107232332Y-101497750D01*
X107206984Y-101563991D01*
X107173570Y-101645398D01*
X107133216Y-101739367D01*
X107087049Y-101843293D01*
X107036193Y-101954573D01*
X107017135Y-101995545D01*
X107004849Y-102014717D01*
X106993385Y-102022156D01*
X106980544Y-102016874D01*
X106955032Y-102003431D01*
X106921197Y-101984178D01*
X106900445Y-101971863D01*
X106818399Y-101922470D01*
X106864023Y-101825204D01*
X106937618Y-101661852D01*
X107000666Y-101508289D01*
X107052859Y-101365499D01*
X107093890Y-101234467D01*
X107123451Y-101116176D01*
X107141234Y-101011610D01*
X107146930Y-100921753D01*
X107146926Y-100921051D01*
X107144197Y-100858914D01*
X107136147Y-100812685D01*
X107121540Y-100778683D01*
X107099135Y-100753228D01*
X107087491Y-100744464D01*
X107068207Y-100732758D01*
X107049222Y-100726080D01*
X107024662Y-100723477D01*
X106988656Y-100723997D01*
X106967491Y-100724977D01*
X106897506Y-100733516D01*
X106818450Y-100752706D01*
X106729644Y-100782882D01*
X106630407Y-100824381D01*
X106520059Y-100877536D01*
X106397921Y-100942684D01*
X106263313Y-101020159D01*
X106115554Y-101110297D01*
X105953966Y-101213434D01*
X105883757Y-101259424D01*
X105825129Y-101297864D01*
X105772155Y-101332164D01*
X105727058Y-101360921D01*
X105692063Y-101382730D01*
X105669393Y-101396185D01*
X105661304Y-101399956D01*
X105666950Y-101392200D01*
X105685411Y-101373299D01*
X105714455Y-101345293D01*
X105751854Y-101310221D01*
X105795375Y-101270120D01*
X105842788Y-101227030D01*
X105891862Y-101182989D01*
X105940367Y-101140035D01*
X105986073Y-101100208D01*
X106026747Y-101065545D01*
X106032491Y-101060738D01*
X106184168Y-100939063D01*
X106329036Y-100832754D01*
X106466174Y-100742445D01*
X106594663Y-100668769D01*
X106627257Y-100652056D01*
X106742504Y-100599570D01*
X106846745Y-100562914D01*
X106941031Y-100541953D01*
X107026410Y-100536550D01*
X107103930Y-100546571D01*
G37*
G36*
X104572475Y-101277413D02*
G01*
X104855773Y-101295840D01*
X105117491Y-101327627D01*
X105389385Y-101377129D01*
X105664386Y-101443906D01*
X105937973Y-101526733D01*
X106187491Y-101617217D01*
X106234285Y-101636523D01*
X106292669Y-101662028D01*
X106359361Y-101692163D01*
X106431078Y-101725364D01*
X106504540Y-101760063D01*
X106576464Y-101794694D01*
X106643569Y-101827690D01*
X106702573Y-101857485D01*
X106750195Y-101882513D01*
X106783153Y-101901205D01*
X106785700Y-101902782D01*
X106818910Y-101923586D01*
X106751703Y-102050851D01*
X106731012Y-102089629D01*
X106702259Y-102142930D01*
X106667069Y-102207771D01*
X106627068Y-102281171D01*
X106583880Y-102360146D01*
X106539130Y-102441716D01*
X106499762Y-102513248D01*
X106414882Y-102667508D01*
X106333622Y-102815730D01*
X106256472Y-102957000D01*
X106183922Y-103090398D01*
X106116462Y-103215008D01*
X106054582Y-103329914D01*
X105998772Y-103434198D01*
X105949521Y-103526943D01*
X105907321Y-103607233D01*
X105872660Y-103674149D01*
X105846028Y-103726775D01*
X105827917Y-103764195D01*
X105818814Y-103785490D01*
X105817789Y-103789702D01*
X105823869Y-103787814D01*
X105840683Y-103772045D01*
X105866653Y-103744279D01*
X105900199Y-103706404D01*
X105939744Y-103660303D01*
X105983709Y-103607863D01*
X106030515Y-103550970D01*
X106078585Y-103491508D01*
X106126339Y-103431364D01*
X106172199Y-103372423D01*
X106214587Y-103316571D01*
X106220559Y-103308561D01*
X106355391Y-103121730D01*
X106485843Y-102930105D01*
X106609817Y-102737077D01*
X106725213Y-102546038D01*
X106829929Y-102360379D01*
X106921867Y-102183490D01*
X106939194Y-102148105D01*
X106959858Y-102105495D01*
X106977202Y-102069869D01*
X106989456Y-102044849D01*
X106994853Y-102034059D01*
X106994906Y-102033967D01*
X107003940Y-102037230D01*
X107026549Y-102050439D01*
X107060106Y-102071805D01*
X107101983Y-102099544D01*
X107149556Y-102131868D01*
X107200196Y-102166990D01*
X107251278Y-102203125D01*
X107300174Y-102238486D01*
X107344259Y-102271285D01*
X107348100Y-102274202D01*
X107492816Y-102389547D01*
X107640092Y-102516722D01*
X107785209Y-102651283D01*
X107923451Y-102788788D01*
X108050098Y-102924797D01*
X108100766Y-102982824D01*
X108297071Y-103227674D01*
X108476823Y-103482907D01*
X108639616Y-103747660D01*
X108785044Y-104021068D01*
X108912700Y-104302269D01*
X109022179Y-104590401D01*
X109113074Y-104884599D01*
X109184979Y-105184000D01*
X109217115Y-105355483D01*
X109235363Y-105468886D01*
X109250019Y-105572737D01*
X109261515Y-105671951D01*
X109270284Y-105771441D01*
X109276758Y-105876122D01*
X109281368Y-105990906D01*
X109284549Y-106120708D01*
X109284576Y-106122169D01*
X109290227Y-106424788D01*
X108763684Y-106424788D01*
X108237141Y-106424788D01*
X108239816Y-106672386D01*
X108242491Y-106919983D01*
X108454991Y-106922683D01*
X108667491Y-106925383D01*
X108667491Y-107214523D01*
X108667491Y-107503662D01*
X108634991Y-107514153D01*
X108590777Y-107524684D01*
X108532344Y-107533241D01*
X108465417Y-107539351D01*
X108395721Y-107542544D01*
X108328981Y-107542347D01*
X108305756Y-107541295D01*
X108168934Y-107524648D01*
X108042107Y-107491895D01*
X107926167Y-107443631D01*
X107822008Y-107380452D01*
X107730526Y-107302952D01*
X107652613Y-107211728D01*
X107589164Y-107107375D01*
X107561015Y-107045242D01*
X107538706Y-106987405D01*
X107521844Y-106936095D01*
X107509700Y-106886817D01*
X107501547Y-106835079D01*
X107496657Y-106776385D01*
X107494303Y-106706244D01*
X107493750Y-106629869D01*
X107493997Y-106558204D01*
X107494937Y-106502686D01*
X107496873Y-106459456D01*
X107500109Y-106424657D01*
X107504946Y-106394432D01*
X107511688Y-106364921D01*
X107515722Y-106349759D01*
X107559397Y-106224355D01*
X107617620Y-106112471D01*
X107689974Y-106014356D01*
X107776042Y-105930256D01*
X107875407Y-105860420D01*
X107987651Y-105805096D01*
X108112358Y-105764530D01*
X108249110Y-105738971D01*
X108397490Y-105728666D01*
X108553634Y-105733595D01*
X108701827Y-105749928D01*
X108835596Y-105775276D01*
X108958726Y-105810379D01*
X108975447Y-105816156D01*
X109012929Y-105828977D01*
X109042371Y-105838266D01*
X109059410Y-105842683D01*
X109061886Y-105842703D01*
X109066441Y-105830317D01*
X109074660Y-105801889D01*
X109085754Y-105760631D01*
X109098934Y-105709755D01*
X109113412Y-105652474D01*
X109128399Y-105591998D01*
X109143108Y-105531540D01*
X109156748Y-105474313D01*
X109168532Y-105423527D01*
X109177671Y-105382396D01*
X109183377Y-105354130D01*
X109184861Y-105341943D01*
X109184839Y-105341876D01*
X109173055Y-105332467D01*
X109145806Y-105319471D01*
X109107004Y-105304253D01*
X109060561Y-105288176D01*
X109010391Y-105272605D01*
X108960405Y-105258905D01*
X108920051Y-105249555D01*
X108774048Y-105225132D01*
X108619404Y-105209619D01*
X108460970Y-105203017D01*
X108303599Y-105205327D01*
X108152143Y-105216550D01*
X108011452Y-105236689D01*
X107950274Y-105249269D01*
X107777959Y-105298028D01*
X107617464Y-105362641D01*
X107469076Y-105442955D01*
X107333079Y-105538818D01*
X107216541Y-105643224D01*
X107114886Y-105755916D01*
X107029723Y-105874263D01*
X106959821Y-106000690D01*
X106903950Y-106137625D01*
X106860880Y-106287495D01*
X106840646Y-106384773D01*
X106830731Y-106458370D01*
X106824518Y-106545830D01*
X106821960Y-106641430D01*
X106823009Y-106739452D01*
X106827618Y-106834175D01*
X106835738Y-106919880D01*
X106845619Y-106982636D01*
X106887331Y-107145552D01*
X106944860Y-107296862D01*
X107017892Y-107436105D01*
X107106113Y-107562815D01*
X107209208Y-107676530D01*
X107326862Y-107776787D01*
X107433065Y-107848078D01*
X107561466Y-107914519D01*
X107705337Y-107968986D01*
X107863961Y-108011259D01*
X108036622Y-108041118D01*
X108075907Y-108045941D01*
X108151921Y-108051998D01*
X108241634Y-108054829D01*
X108340939Y-108054656D01*
X108445730Y-108051701D01*
X108551897Y-108046188D01*
X108655334Y-108038337D01*
X108751934Y-108028374D01*
X108837587Y-108016518D01*
X108908188Y-108002994D01*
X108919701Y-108000220D01*
X108946911Y-107993383D01*
X108921574Y-108055762D01*
X108799688Y-108329551D01*
X108659275Y-108596833D01*
X108501058Y-108856541D01*
X108325757Y-109107604D01*
X108134094Y-109348954D01*
X107926789Y-109579522D01*
X107820759Y-109687215D01*
X107731615Y-109773935D01*
X107651208Y-109849357D01*
X107575168Y-109917300D01*
X107499129Y-109981581D01*
X107418725Y-110046020D01*
X107348855Y-110099847D01*
X107094917Y-110280402D01*
X106831294Y-110443927D01*
X106558928Y-110590125D01*
X106278764Y-110718700D01*
X105991745Y-110829355D01*
X105698815Y-110921793D01*
X105400917Y-110995719D01*
X105098994Y-111050835D01*
X104793992Y-111086844D01*
X104486852Y-111103451D01*
X104178519Y-111100358D01*
X104167491Y-111099879D01*
X103852452Y-111076001D01*
X103541947Y-111032754D01*
X103236524Y-110970316D01*
X102936735Y-110888864D01*
X102643130Y-110788576D01*
X102356260Y-110669629D01*
X102076676Y-110532200D01*
X101804927Y-110376468D01*
X101684641Y-110300003D01*
X101517461Y-110186167D01*
X101362790Y-110071613D01*
X101215502Y-109952157D01*
X101070468Y-109823613D01*
X100922562Y-109681798D01*
X100902120Y-109661433D01*
X100685094Y-109430611D01*
X100485016Y-109189382D01*
X100302050Y-108938000D01*
X100136357Y-108676716D01*
X99988102Y-108405784D01*
X99857446Y-108125456D01*
X99769683Y-107905371D01*
X99745728Y-107840832D01*
X99728273Y-107793175D01*
X99717043Y-107760458D01*
X99711764Y-107740740D01*
X99712159Y-107732077D01*
X99717955Y-107732527D01*
X99728877Y-107740149D01*
X99744648Y-107752999D01*
X99748563Y-107756190D01*
X99871291Y-107844345D01*
X100004270Y-107917662D01*
X100148549Y-107976524D01*
X100305180Y-108021314D01*
X100475214Y-108052415D01*
X100598152Y-108065868D01*
X100710939Y-108071194D01*
X100832456Y-108069830D01*
X100957675Y-108062271D01*
X101081567Y-108049012D01*
X101199105Y-108030549D01*
X101305260Y-108007377D01*
X101364689Y-107990373D01*
X101402884Y-107977602D01*
X101434631Y-107965996D01*
X101454287Y-107957644D01*
X101456628Y-107956325D01*
X101460605Y-107950751D01*
X101462192Y-107939099D01*
X101461087Y-107919133D01*
X101458013Y-107896261D01*
X101769558Y-107896261D01*
X101791024Y-107909850D01*
X101820321Y-107924749D01*
X101864584Y-107942724D01*
X101919310Y-107962270D01*
X101979996Y-107981882D01*
X102042140Y-108000053D01*
X102101239Y-108015279D01*
X102117491Y-108019001D01*
X102323386Y-108055470D01*
X102447491Y-108069274D01*
X102495324Y-108071359D01*
X102557520Y-108071011D01*
X102628628Y-108068531D01*
X102703198Y-108064221D01*
X102775779Y-108058382D01*
X102840922Y-108051315D01*
X102882491Y-108045241D01*
X103028506Y-108012379D01*
X103162194Y-107965971D01*
X103282745Y-107906555D01*
X103389350Y-107834668D01*
X103481201Y-107750847D01*
X103557489Y-107655630D01*
X103612367Y-107560235D01*
X103645450Y-107485362D01*
X103668305Y-107416942D01*
X103682460Y-107348065D01*
X103689442Y-107271822D01*
X103690890Y-107205096D01*
X103685016Y-107087927D01*
X103666390Y-106983894D01*
X103633801Y-106889790D01*
X103586034Y-106802407D01*
X103521878Y-106718539D01*
X103496247Y-106690393D01*
X103422946Y-106620273D01*
X103341209Y-106556727D01*
X103248324Y-106498091D01*
X103141583Y-106442700D01*
X103018276Y-106388889D01*
X102982491Y-106374688D01*
X102884950Y-106336274D01*
X102804027Y-106303380D01*
X102737463Y-106274909D01*
X102683003Y-106249762D01*
X102638388Y-106226842D01*
X102601361Y-106205050D01*
X102569667Y-106183289D01*
X102541046Y-106160461D01*
X102539646Y-106159264D01*
X102493605Y-106110010D01*
X102465880Y-106055588D01*
X102454868Y-105992621D01*
X102454536Y-105980015D01*
X102461900Y-105915712D01*
X102485922Y-105860191D01*
X102528080Y-105810304D01*
X102538852Y-105800697D01*
X102578299Y-105770999D01*
X102620019Y-105749038D01*
X102668028Y-105733657D01*
X102726346Y-105723696D01*
X102798989Y-105717997D01*
X102830080Y-105716745D01*
X102969808Y-105718055D01*
X103099358Y-105732273D01*
X103224619Y-105760388D01*
X103351481Y-105803391D01*
X103356172Y-105805236D01*
X103393038Y-105819228D01*
X103422193Y-105829197D01*
X103439205Y-105833676D01*
X103441690Y-105833540D01*
X103445656Y-105822789D01*
X103453869Y-105795879D01*
X103465457Y-105755996D01*
X103479545Y-105706324D01*
X103495261Y-105650044D01*
X103511731Y-105590343D01*
X103528082Y-105530402D01*
X103543441Y-105473407D01*
X103556934Y-105422539D01*
X103567689Y-105380984D01*
X103574832Y-105351925D01*
X103577489Y-105338546D01*
X103577491Y-105338447D01*
X103567622Y-105324518D01*
X103538090Y-105307621D01*
X103489001Y-105287804D01*
X103420462Y-105265113D01*
X103382499Y-105253742D01*
X103301711Y-105234320D01*
X104116620Y-105234320D01*
X104120327Y-106162185D01*
X104120965Y-106323367D01*
X104121561Y-106465942D01*
X104122190Y-106591312D01*
X104122927Y-106700877D01*
X104123846Y-106796040D01*
X104125023Y-106878199D01*
X104126530Y-106948758D01*
X104128443Y-107009117D01*
X104130837Y-107060676D01*
X104133786Y-107104838D01*
X104137364Y-107143002D01*
X104141646Y-107176571D01*
X104146707Y-107206944D01*
X104152620Y-107235524D01*
X104159462Y-107263712D01*
X104167306Y-107292907D01*
X104176226Y-107324512D01*
X104183530Y-107350153D01*
X104232185Y-107489349D01*
X104294991Y-107614609D01*
X104371603Y-107725607D01*
X104461677Y-107822019D01*
X104564867Y-107903519D01*
X104680830Y-107969783D01*
X104809220Y-108020486D01*
X104926891Y-108050908D01*
X105059504Y-108070732D01*
X105201569Y-108079249D01*
X105345964Y-108076355D01*
X105485569Y-108061946D01*
X105502491Y-108059303D01*
X105650699Y-108026475D01*
X105786060Y-107978318D01*
X105908469Y-107914926D01*
X106017826Y-107836389D01*
X106114026Y-107742798D01*
X106196967Y-107634245D01*
X106266548Y-107510822D01*
X106322664Y-107372619D01*
X106341439Y-107312800D01*
X106351254Y-107278635D01*
X106359930Y-107247071D01*
X106367544Y-107216692D01*
X106374170Y-107186083D01*
X106379884Y-107153831D01*
X106384763Y-107118520D01*
X106388881Y-107078734D01*
X106392315Y-107033060D01*
X106395141Y-106980082D01*
X106397433Y-106918386D01*
X106399269Y-106846556D01*
X106400722Y-106763178D01*
X106401871Y-106666837D01*
X106402789Y-106556117D01*
X106403553Y-106429605D01*
X106404238Y-106285885D01*
X106404906Y-106127171D01*
X106408572Y-105234320D01*
X106088427Y-105234320D01*
X105768282Y-105234320D01*
X105764820Y-106147179D01*
X105764200Y-106304428D01*
X105763585Y-106442973D01*
X105762949Y-106564117D01*
X105762263Y-106669165D01*
X105761500Y-106759421D01*
X105760631Y-106836188D01*
X105759629Y-106900770D01*
X105758464Y-106954471D01*
X105757110Y-106998594D01*
X105755539Y-107034445D01*
X105753722Y-107063325D01*
X105751631Y-107086540D01*
X105749238Y-107105393D01*
X105746516Y-107121187D01*
X105743611Y-107134494D01*
X105710437Y-107245383D01*
X105667664Y-107339093D01*
X105614831Y-107416243D01*
X105551479Y-107477451D01*
X105477148Y-107523335D01*
X105443431Y-107537846D01*
X105391516Y-107551938D01*
X105327360Y-107560734D01*
X105258091Y-107563935D01*
X105190834Y-107561242D01*
X105132717Y-107552353D01*
X105127737Y-107551126D01*
X105044659Y-107520623D01*
X104972189Y-107474302D01*
X104909928Y-107411699D01*
X104857477Y-107332350D01*
X104814439Y-107235791D01*
X104789631Y-107157464D01*
X104762981Y-107060038D01*
X104759795Y-106147179D01*
X104756608Y-105234320D01*
X104436614Y-105234320D01*
X104116620Y-105234320D01*
X103301711Y-105234320D01*
X103245116Y-105220714D01*
X103099150Y-105198436D01*
X102949559Y-105187099D01*
X102801300Y-105186894D01*
X102659328Y-105198014D01*
X102528602Y-105220649D01*
X102528198Y-105220742D01*
X102391664Y-105260789D01*
X102266928Y-105314736D01*
X102154969Y-105381732D01*
X102056768Y-105460929D01*
X101973305Y-105551477D01*
X101905562Y-105652528D01*
X101854518Y-105763232D01*
X101836077Y-105820116D01*
X101822607Y-105885485D01*
X101814728Y-105961914D01*
X101812521Y-106042600D01*
X101816068Y-106120738D01*
X101825451Y-106189525D01*
X101831347Y-106214706D01*
X101869988Y-106318377D01*
X101927385Y-106418094D01*
X102002448Y-106512373D01*
X102094086Y-106599731D01*
X102142491Y-106637916D01*
X102199470Y-106676016D01*
X102271453Y-106717472D01*
X102354201Y-106760170D01*
X102443480Y-106801998D01*
X102535053Y-106840843D01*
X102597491Y-106864849D01*
X102710402Y-106908977D01*
X102804625Y-106952036D01*
X102881369Y-106994977D01*
X102941843Y-107038755D01*
X102987257Y-107084323D01*
X103018820Y-107132634D01*
X103037742Y-107184641D01*
X103043328Y-107216251D01*
X103042354Y-107288879D01*
X103022899Y-107356500D01*
X102986338Y-107416507D01*
X102934046Y-107466294D01*
X102900116Y-107487813D01*
X102852743Y-107510316D01*
X102803053Y-107526506D01*
X102747216Y-107536982D01*
X102681403Y-107542338D01*
X102601784Y-107543172D01*
X102552491Y-107541979D01*
X102401011Y-107530524D01*
X102259558Y-107505714D01*
X102122121Y-107466149D01*
X101982692Y-107410434D01*
X101978455Y-107408516D01*
X101944110Y-107393307D01*
X101917785Y-107382379D01*
X101903859Y-107377523D01*
X101902743Y-107377532D01*
X101899929Y-107387529D01*
X101892850Y-107414366D01*
X101882166Y-107455494D01*
X101868537Y-107508363D01*
X101852623Y-107570421D01*
X101835313Y-107638213D01*
X101769558Y-107896261D01*
X101458013Y-107896261D01*
X101456986Y-107888620D01*
X101449588Y-107845324D01*
X101438590Y-107787011D01*
X101423691Y-107711447D01*
X101423141Y-107708692D01*
X101409738Y-107642134D01*
X101397446Y-107582166D01*
X101386852Y-107531556D01*
X101378540Y-107493074D01*
X101373095Y-107469490D01*
X101371292Y-107463309D01*
X101360408Y-107462627D01*
X101336440Y-107467850D01*
X101310729Y-107475808D01*
X101276773Y-107486003D01*
X101230216Y-107498003D01*
X101178137Y-107510051D01*
X101143441Y-107517323D01*
X101072196Y-107528404D01*
X100990031Y-107536068D01*
X100902156Y-107540262D01*
X100813782Y-107540932D01*
X100730119Y-107538025D01*
X100656377Y-107531488D01*
X100604491Y-107522838D01*
X100485072Y-107488774D01*
X100379235Y-107442168D01*
X100283718Y-107381262D01*
X100195256Y-107304299D01*
X100191217Y-107300257D01*
X100116921Y-107213002D01*
X100056821Y-107114643D01*
X100010413Y-107003985D01*
X99977195Y-106879832D01*
X99956967Y-106744075D01*
X99952240Y-106652106D01*
X99954809Y-106552972D01*
X99964118Y-106454907D01*
X99979613Y-106366145D01*
X99983525Y-106349759D01*
X100024936Y-106220997D01*
X100080679Y-106106130D01*
X100150578Y-106005334D01*
X100234461Y-105918786D01*
X100332152Y-105846661D01*
X100443477Y-105789137D01*
X100568262Y-105746389D01*
X100583721Y-105742365D01*
X100620346Y-105733862D01*
X100655299Y-105727758D01*
X100693094Y-105723672D01*
X100738242Y-105721226D01*
X100795256Y-105720040D01*
X100852491Y-105719742D01*
X100962023Y-105721981D01*
X101057529Y-105729567D01*
X101144467Y-105743342D01*
X101228299Y-105764152D01*
X101306621Y-105789962D01*
X101339226Y-105801404D01*
X101363300Y-105809100D01*
X101373869Y-105811467D01*
X101373956Y-105811414D01*
X101378013Y-105800299D01*
X101385827Y-105772936D01*
X101396604Y-105732557D01*
X101409547Y-105682397D01*
X101423862Y-105625688D01*
X101438751Y-105565665D01*
X101453420Y-105505561D01*
X101467073Y-105448609D01*
X101478913Y-105398043D01*
X101488146Y-105357097D01*
X101493974Y-105329004D01*
X101495618Y-105317060D01*
X101484181Y-105304529D01*
X101456110Y-105289474D01*
X101414445Y-105272974D01*
X101362224Y-105256108D01*
X101302486Y-105239953D01*
X101238272Y-105225590D01*
X101237225Y-105225380D01*
X101049947Y-105196508D01*
X100864556Y-105184608D01*
X100682623Y-105189388D01*
X100505715Y-105210557D01*
X100335403Y-105247822D01*
X100173256Y-105300891D01*
X100020842Y-105369473D01*
X99879732Y-105453275D01*
X99832491Y-105486751D01*
X99762184Y-105544473D01*
X99689637Y-105613824D01*
X99620456Y-105688894D01*
X99560245Y-105763766D01*
X99532890Y-105802862D01*
X99508591Y-105839329D01*
X99488564Y-105868308D01*
X99475129Y-105886508D01*
X99470647Y-105891068D01*
X99469774Y-105879563D01*
X99471150Y-105851349D01*
X99474455Y-105809557D01*
X99479371Y-105757321D01*
X99485576Y-105697771D01*
X99492751Y-105634041D01*
X99500575Y-105569263D01*
X99508731Y-105506569D01*
X99513197Y-105474414D01*
X99566682Y-105169716D01*
X99639394Y-104870161D01*
X99731105Y-104576261D01*
X99807961Y-104376097D01*
X104956941Y-104376097D01*
X105124716Y-104549304D01*
X105172204Y-104597746D01*
X105215726Y-104641036D01*
X105253182Y-104677175D01*
X105282474Y-104704164D01*
X105301502Y-104720005D01*
X105307491Y-104723387D01*
X105322345Y-104721009D01*
X105352205Y-104713884D01*
X105392935Y-104703070D01*
X105440400Y-104689626D01*
X105447491Y-104687552D01*
X105494804Y-104673363D01*
X105535075Y-104660729D01*
X105564449Y-104650902D01*
X105579073Y-104645130D01*
X105579794Y-104644661D01*
X105575050Y-104636213D01*
X105557860Y-104615720D01*
X105530050Y-104585153D01*
X105493445Y-104546482D01*
X105449871Y-104501680D01*
X105412615Y-104464141D01*
X105238133Y-104289804D01*
X105170312Y-104311244D01*
X105123569Y-104325825D01*
X105070400Y-104342122D01*
X105029716Y-104354391D01*
X104956941Y-104376097D01*
X99807961Y-104376097D01*
X99835951Y-104303200D01*
X104943267Y-104303200D01*
X104948747Y-104304953D01*
X104960029Y-104302299D01*
X104976251Y-104296911D01*
X104983498Y-104294504D01*
X105005231Y-104287646D01*
X105040516Y-104276750D01*
X105083754Y-104263539D01*
X105113682Y-104254463D01*
X105131977Y-104248932D01*
X105297733Y-104248932D01*
X105470005Y-104421500D01*
X105518023Y-104469338D01*
X105561434Y-104512084D01*
X105598235Y-104547808D01*
X105626422Y-104574576D01*
X105643993Y-104590458D01*
X105648954Y-104594068D01*
X105656584Y-104586392D01*
X105674311Y-104564876D01*
X105700363Y-104531783D01*
X105732972Y-104489379D01*
X105770366Y-104439929D01*
X105791554Y-104411593D01*
X105927476Y-104229118D01*
X105755064Y-104056426D01*
X105707052Y-104008706D01*
X105663627Y-103966246D01*
X105626787Y-103930945D01*
X105598533Y-103904701D01*
X105580864Y-103889413D01*
X105575796Y-103886262D01*
X105568054Y-103894650D01*
X105550139Y-103916760D01*
X105523850Y-103950285D01*
X105490987Y-103992920D01*
X105453348Y-104042360D01*
X105433338Y-104068861D01*
X105297733Y-104248932D01*
X105131977Y-104248932D01*
X105214874Y-104223870D01*
X105352188Y-104043164D01*
X105391342Y-103991248D01*
X105425802Y-103944814D01*
X105453912Y-103906152D01*
X105474019Y-103877552D01*
X105484470Y-103861303D01*
X105485526Y-103858480D01*
X105474678Y-103859070D01*
X105450063Y-103864440D01*
X105417020Y-103873424D01*
X105371900Y-103886637D01*
X105320157Y-103901766D01*
X105281167Y-103913149D01*
X105209844Y-103933954D01*
X105080633Y-104106449D01*
X105033151Y-104169775D01*
X104996656Y-104218657D01*
X104970285Y-104254767D01*
X104953172Y-104279780D01*
X104944454Y-104295366D01*
X104943267Y-104303200D01*
X99835951Y-104303200D01*
X99841584Y-104288529D01*
X99970603Y-104007477D01*
X100117932Y-103733618D01*
X100283342Y-103467463D01*
X100466603Y-103209526D01*
X100605947Y-103033453D01*
X100654320Y-102977350D01*
X100714709Y-102911148D01*
X100784057Y-102837900D01*
X100859306Y-102760658D01*
X100937401Y-102682475D01*
X101015283Y-102606404D01*
X101089897Y-102535498D01*
X101158187Y-102472809D01*
X101217094Y-102421390D01*
X101227491Y-102412718D01*
X101480125Y-102216406D01*
X101740429Y-102038561D01*
X102008556Y-101879113D01*
X102284657Y-101737990D01*
X102568886Y-101615118D01*
X102861395Y-101510425D01*
X103162337Y-101423840D01*
X103452491Y-101359004D01*
X103722803Y-101315456D01*
X104002139Y-101287294D01*
X104286646Y-101274588D01*
X104572475Y-101277413D01*
G37*
D16*
%TO.C,JP5*%
X137930000Y-125345000D02*
X137930000Y-120205000D01*
X140590000Y-120205000D02*
X137930000Y-120205000D01*
X140590000Y-125345000D02*
X137930000Y-125345000D01*
X140590000Y-125345000D02*
X140590000Y-120205000D01*
X140590000Y-126615000D02*
X140590000Y-127945000D01*
X140590000Y-127945000D02*
X139260000Y-127945000D01*
%TO.C,R15\u002A*%
X79665000Y-62037064D02*
X79665000Y-61582936D01*
X81135000Y-62037064D02*
X81135000Y-61582936D01*
%TO.C,C5*%
X128348748Y-108775000D02*
X128871252Y-108775000D01*
X128348748Y-110245000D02*
X128871252Y-110245000D01*
%TO.C,R11\u002A*%
X91485000Y-62067064D02*
X91485000Y-61612936D01*
X92955000Y-62067064D02*
X92955000Y-61612936D01*
%TO.C,JP1*%
X131480000Y-125330000D02*
X131480000Y-120190000D01*
X134140000Y-120190000D02*
X131480000Y-120190000D01*
X134140000Y-125330000D02*
X131480000Y-125330000D01*
X134140000Y-125330000D02*
X134140000Y-120190000D01*
X134140000Y-126600000D02*
X134140000Y-127930000D01*
X134140000Y-127930000D02*
X132810000Y-127930000D01*
%TO.C,J6*%
X71440000Y-110680000D02*
X71440000Y-113330000D01*
X71440000Y-110680000D02*
X77290000Y-110680000D01*
X71440000Y-113580000D02*
X71440000Y-114180000D01*
X71440000Y-114430000D02*
X71440000Y-117930000D01*
X71440000Y-118180000D02*
X71440000Y-118780000D01*
X71440000Y-119080000D02*
X71440000Y-121730000D01*
X71440000Y-121730000D02*
X77290000Y-121730000D01*
X74740000Y-110180000D02*
X77740000Y-110180000D01*
X77290000Y-110680000D02*
X77290000Y-121730000D01*
X77740000Y-110180000D02*
X77740000Y-113180000D01*
%TO.C,C6*%
X112591252Y-114115000D02*
X112068748Y-114115000D01*
X112591252Y-115585000D02*
X112068748Y-115585000D01*
%TO.C,CR1*%
X116186200Y-85965000D02*
X114236200Y-85965000D01*
X116186200Y-85965000D02*
X118136200Y-85965000D01*
X116186200Y-91085000D02*
X114236200Y-91085000D01*
X116186200Y-91085000D02*
X118136200Y-91085000D01*
X113486200Y-86060000D02*
X113246200Y-85730000D01*
X113726200Y-85730000D01*
X113486200Y-86060000D01*
G36*
X113486200Y-86060000D02*
G01*
X113246200Y-85730000D01*
X113726200Y-85730000D01*
X113486200Y-86060000D01*
G37*
%TO.C,C3*%
X112413752Y-126085000D02*
X111891248Y-126085000D01*
X112413752Y-127555000D02*
X111891248Y-127555000D01*
%TO.C,R7\u002A*%
X132375000Y-65687064D02*
X132375000Y-65232936D01*
X133845000Y-65687064D02*
X133845000Y-65232936D01*
%TO.C,U2*%
X77020000Y-54950000D02*
X75520000Y-54950000D01*
X77020000Y-54950000D02*
X78520000Y-54950000D01*
X77020000Y-58170000D02*
X75520000Y-58170000D01*
X77020000Y-58170000D02*
X78520000Y-58170000D01*
X74807500Y-55125000D02*
X74567500Y-54795000D01*
X75047500Y-54795000D01*
X74807500Y-55125000D01*
G36*
X74807500Y-55125000D02*
G01*
X74567500Y-54795000D01*
X75047500Y-54795000D01*
X74807500Y-55125000D01*
G37*
%TO.C,R13\u002A*%
X84555000Y-62067064D02*
X84555000Y-61612936D01*
X86025000Y-62067064D02*
X86025000Y-61612936D01*
%TO.C,C10*%
X128338748Y-106675000D02*
X128861252Y-106675000D01*
X128338748Y-108145000D02*
X128861252Y-108145000D01*
D17*
%TO.C,G\u002A\u002A\u002A*%
G36*
X84377944Y-79147518D02*
G01*
X84377944Y-79580319D01*
X84269743Y-79580319D01*
X84161543Y-79580319D01*
X84161543Y-79147518D01*
X84161543Y-78714717D01*
X84269743Y-78714717D01*
X84377944Y-78714717D01*
X84377944Y-79147518D01*
G37*
G36*
X84339020Y-78338882D02*
G01*
X84369807Y-78356579D01*
X84377702Y-78402755D01*
X84377944Y-78430691D01*
X84374668Y-78491308D01*
X84354443Y-78518247D01*
X84301671Y-78525155D01*
X84269743Y-78525366D01*
X84200467Y-78522500D01*
X84169680Y-78504803D01*
X84161785Y-78458628D01*
X84161543Y-78430691D01*
X84164819Y-78370074D01*
X84185044Y-78343135D01*
X84237816Y-78336228D01*
X84269743Y-78336016D01*
X84339020Y-78338882D01*
G37*
G36*
X85827330Y-78718868D02*
G01*
X85967992Y-78727350D01*
X86063240Y-78744714D01*
X86121679Y-78776877D01*
X86151915Y-78829754D01*
X86162552Y-78909263D01*
X86163247Y-78949812D01*
X86160944Y-79022530D01*
X86145887Y-79056193D01*
X86105859Y-79065844D01*
X86068572Y-79066368D01*
X86004215Y-79061001D01*
X85977942Y-79038105D01*
X85973897Y-79004152D01*
X85952311Y-78925640D01*
X85891665Y-78882982D01*
X85846762Y-78877017D01*
X85821404Y-78878675D01*
X85804085Y-78889424D01*
X85793273Y-78917927D01*
X85787435Y-78972844D01*
X85785038Y-79062839D01*
X85784550Y-79196573D01*
X85784546Y-79228668D01*
X85784546Y-79580319D01*
X85676346Y-79580319D01*
X85568146Y-79580319D01*
X85568146Y-79144907D01*
X85568146Y-78709495D01*
X85827330Y-78718868D01*
G37*
G36*
X84816784Y-78730787D02*
G01*
X84824269Y-79125557D01*
X85000095Y-78921893D01*
X85175920Y-78718229D01*
X85324018Y-78716473D01*
X85472117Y-78714717D01*
X85276681Y-78911466D01*
X85195093Y-78995657D01*
X85130211Y-79066520D01*
X85090158Y-79114946D01*
X85081245Y-79130583D01*
X85098223Y-79159116D01*
X85143891Y-79217664D01*
X85210348Y-79296394D01*
X85257070Y-79349406D01*
X85332120Y-79434919D01*
X85391202Y-79505395D01*
X85426453Y-79551277D01*
X85432896Y-79563089D01*
X85408592Y-79573035D01*
X85346618Y-79579259D01*
X85301284Y-79580319D01*
X85240481Y-79578981D01*
X85194766Y-79569892D01*
X85153045Y-79545435D01*
X85104228Y-79497992D01*
X85037223Y-79419947D01*
X84996971Y-79371349D01*
X84824269Y-79162380D01*
X84816369Y-79371349D01*
X84808469Y-79580319D01*
X84701406Y-79580319D01*
X84594344Y-79580319D01*
X84594344Y-78958167D01*
X84594344Y-78336016D01*
X84701821Y-78336016D01*
X84809298Y-78336016D01*
X84816784Y-78730787D01*
G37*
G36*
X83248604Y-78719238D02*
G01*
X83460308Y-78723758D01*
X83624079Y-78731810D01*
X83746068Y-78748145D01*
X83832429Y-78777512D01*
X83889314Y-78824662D01*
X83922876Y-78894344D01*
X83939268Y-78991310D01*
X83944642Y-79120308D01*
X83945143Y-79256991D01*
X83945143Y-79580319D01*
X83836943Y-79580319D01*
X83728742Y-79580319D01*
X83728742Y-79274653D01*
X83725591Y-79112549D01*
X83716215Y-79001447D01*
X83700735Y-78942587D01*
X83696282Y-78936527D01*
X83649345Y-78915161D01*
X83575609Y-78904381D01*
X83561032Y-78904067D01*
X83458242Y-78904067D01*
X83458242Y-79242193D01*
X83458242Y-79580319D01*
X83350042Y-79580319D01*
X83241841Y-79580319D01*
X83241841Y-79242193D01*
X83241841Y-78904067D01*
X83093066Y-78904067D01*
X82944291Y-78904067D01*
X82944291Y-79242193D01*
X82944291Y-79580319D01*
X82854124Y-79580319D01*
X82787286Y-79575370D01*
X82747145Y-79563350D01*
X82745924Y-79562285D01*
X82739702Y-79530311D01*
X82734408Y-79453998D01*
X82730448Y-79343106D01*
X82728226Y-79207392D01*
X82727890Y-79126995D01*
X82727890Y-78709738D01*
X83248604Y-78719238D01*
G37*
G36*
X86878390Y-78736532D02*
G01*
X87000959Y-78802111D01*
X87092140Y-78911649D01*
X87103236Y-78932088D01*
X87151742Y-79074574D01*
X87156370Y-79216286D01*
X87120047Y-79346448D01*
X87045698Y-79454286D01*
X86941850Y-79526538D01*
X86799613Y-79568784D01*
X86651085Y-79575326D01*
X86517207Y-79545755D01*
X86493750Y-79535332D01*
X86386826Y-79461326D01*
X86319729Y-79360688D01*
X86288446Y-79225964D01*
X86284972Y-79147518D01*
X86286606Y-79107389D01*
X86498292Y-79107389D01*
X86503600Y-79206529D01*
X86537216Y-79298716D01*
X86597984Y-79371483D01*
X86684746Y-79412361D01*
X86712354Y-79416304D01*
X86749315Y-79406111D01*
X86809269Y-79379075D01*
X86812753Y-79377286D01*
X86888440Y-79313902D01*
X86928261Y-79229350D01*
X86935707Y-79134985D01*
X86914271Y-79042160D01*
X86867445Y-78962230D01*
X86798721Y-78906549D01*
X86711591Y-78886471D01*
X86663787Y-78892931D01*
X86577228Y-78938122D01*
X86522449Y-79013764D01*
X86498292Y-79107389D01*
X86286606Y-79107389D01*
X86289459Y-79037334D01*
X86306311Y-78959828D01*
X86340619Y-78894069D01*
X86349856Y-78880719D01*
X86450070Y-78784222D01*
X86583984Y-78729220D01*
X86724089Y-78714717D01*
X86878390Y-78736532D01*
G37*
G36*
X84567294Y-80568514D02*
G01*
X84568687Y-80776412D01*
X84573897Y-80937181D01*
X84584465Y-81057748D01*
X84601936Y-81145036D01*
X84627852Y-81205969D01*
X84663757Y-81247474D01*
X84711195Y-81276473D01*
X84726580Y-81283223D01*
X84824561Y-81305835D01*
X84937784Y-81306079D01*
X85045527Y-81286265D01*
X85127063Y-81248706D01*
X85140702Y-81237037D01*
X85174659Y-81191687D01*
X85200532Y-81127713D01*
X85219271Y-81038283D01*
X85231828Y-80916563D01*
X85239154Y-80755718D01*
X85242201Y-80548916D01*
X85242367Y-80506783D01*
X85243545Y-80067219D01*
X85392321Y-80067219D01*
X85541096Y-80067219D01*
X85539707Y-80479733D01*
X85537153Y-80721854D01*
X85530205Y-80916497D01*
X85517230Y-81070210D01*
X85496590Y-81189545D01*
X85466651Y-81281053D01*
X85425777Y-81351283D01*
X85372334Y-81406786D01*
X85304685Y-81454114D01*
X85295019Y-81459857D01*
X85234426Y-81487420D01*
X85156562Y-81505631D01*
X85048252Y-81516750D01*
X84932671Y-81521999D01*
X84802705Y-81524613D01*
X84710405Y-81521220D01*
X84639460Y-81509470D01*
X84573559Y-81487012D01*
X84518991Y-81462374D01*
X84444369Y-81423236D01*
X84386332Y-81380766D01*
X84342808Y-81327908D01*
X84311728Y-81257604D01*
X84291020Y-81162797D01*
X84278613Y-81036431D01*
X84272437Y-80871446D01*
X84270421Y-80660788D01*
X84270337Y-80614983D01*
X84269743Y-80067219D01*
X84418519Y-80067219D01*
X84567294Y-80067219D01*
X84567294Y-80568514D01*
G37*
G36*
X87055899Y-80200362D02*
G01*
X87055899Y-80337720D01*
X86611536Y-80337720D01*
X86167174Y-80337720D01*
X86111110Y-80408993D01*
X86064800Y-80483779D01*
X86063788Y-80545043D01*
X86108909Y-80610084D01*
X86121442Y-80622975D01*
X86151423Y-80650252D01*
X86183954Y-80668816D01*
X86229491Y-80680337D01*
X86298491Y-80686489D01*
X86401409Y-80688943D01*
X86536718Y-80689371D01*
X86682948Y-80690152D01*
X86786367Y-80693551D01*
X86858256Y-80701150D01*
X86909895Y-80714532D01*
X86952564Y-80735281D01*
X86977511Y-80751222D01*
X87062269Y-80838399D01*
X87113019Y-80953819D01*
X87130447Y-81084213D01*
X87115241Y-81216315D01*
X87068088Y-81336857D01*
X86989675Y-81432573D01*
X86940478Y-81466159D01*
X86900488Y-81483380D01*
X86847247Y-81496493D01*
X86772640Y-81506257D01*
X86668551Y-81513434D01*
X86526865Y-81518785D01*
X86339467Y-81523072D01*
X86332310Y-81523206D01*
X85811596Y-81532901D01*
X85811596Y-81395161D01*
X85811596Y-81257422D01*
X86269515Y-81257422D01*
X86454167Y-81256389D01*
X86591630Y-81251937D01*
X86688798Y-81242034D01*
X86752563Y-81224647D01*
X86789820Y-81197745D01*
X86807461Y-81159295D01*
X86812381Y-81107265D01*
X86812448Y-81097382D01*
X86805982Y-81037859D01*
X86781644Y-80994669D01*
X86732026Y-80964912D01*
X86649721Y-80945686D01*
X86527322Y-80934089D01*
X86379648Y-80927862D01*
X86192131Y-80918170D01*
X86050456Y-80900088D01*
X85946661Y-80870904D01*
X85872788Y-80827908D01*
X85820874Y-80768389D01*
X85800162Y-80730530D01*
X85766076Y-80610069D01*
X85760629Y-80470600D01*
X85783541Y-80338393D01*
X85804876Y-80284540D01*
X85842425Y-80219838D01*
X85886445Y-80170213D01*
X85944404Y-80133530D01*
X86023767Y-80107655D01*
X86132002Y-80090452D01*
X86276575Y-80079788D01*
X86464952Y-80073528D01*
X86548710Y-80071874D01*
X87055899Y-80063004D01*
X87055899Y-80200362D01*
G37*
G36*
X83153929Y-80068398D02*
G01*
X83383163Y-80071586D01*
X83564798Y-80081038D01*
X83705166Y-80098700D01*
X83810594Y-80126518D01*
X83887413Y-80166440D01*
X83941952Y-80220411D01*
X83980541Y-80290378D01*
X83994114Y-80326779D01*
X84016636Y-80466655D01*
X83986470Y-80594318D01*
X83905090Y-80707783D01*
X83815204Y-80797669D01*
X83890126Y-80851018D01*
X83972785Y-80939858D01*
X84015744Y-81051415D01*
X84020390Y-81173207D01*
X83988108Y-81292754D01*
X83920284Y-81397576D01*
X83820985Y-81473822D01*
X83776043Y-81489625D01*
X83705703Y-81501821D01*
X83603096Y-81510989D01*
X83461355Y-81517709D01*
X83273611Y-81522560D01*
X83235079Y-81523267D01*
X82727890Y-81532138D01*
X82727890Y-81164480D01*
X83026323Y-81164480D01*
X83032691Y-81227803D01*
X83058707Y-81264407D01*
X83113309Y-81280845D01*
X83205433Y-81283668D01*
X83320339Y-81280240D01*
X83452075Y-81273716D01*
X83541449Y-81263572D01*
X83600177Y-81247611D01*
X83639978Y-81223637D01*
X83644817Y-81219417D01*
X83693813Y-81143770D01*
X83692500Y-81058604D01*
X83654355Y-80990727D01*
X83627103Y-80965084D01*
X83589486Y-80948225D01*
X83530183Y-80938072D01*
X83437876Y-80932548D01*
X83322992Y-80929907D01*
X83038966Y-80925375D01*
X83030667Y-81067887D01*
X83026323Y-81164480D01*
X82727890Y-81164480D01*
X82727890Y-80799679D01*
X82727890Y-80500020D01*
X83025441Y-80500020D01*
X83025441Y-80664093D01*
X83328776Y-80656444D01*
X83460532Y-80652660D01*
X83548829Y-80647540D01*
X83604292Y-80638557D01*
X83637550Y-80623184D01*
X83659229Y-80598892D01*
X83673664Y-80574408D01*
X83699952Y-80515521D01*
X83694638Y-80467576D01*
X83673664Y-80425633D01*
X83653739Y-80393338D01*
X83629901Y-80371785D01*
X83591524Y-80358446D01*
X83527979Y-80350794D01*
X83428641Y-80346301D01*
X83328776Y-80343597D01*
X83025441Y-80335948D01*
X83025441Y-80500020D01*
X82727890Y-80500020D01*
X82727890Y-80335948D01*
X82727890Y-80067219D01*
X83153929Y-80068398D01*
G37*
G36*
X79235632Y-78408944D02*
G01*
X79344233Y-78483141D01*
X79421505Y-78583625D01*
X79465633Y-78700797D01*
X79474805Y-78825055D01*
X79447208Y-78946798D01*
X79381028Y-79056426D01*
X79274452Y-79144337D01*
X79246458Y-79159294D01*
X79132758Y-79215143D01*
X79131496Y-79560031D01*
X79130233Y-79904919D01*
X79968785Y-79904919D01*
X80807337Y-79904919D01*
X80807337Y-79558474D01*
X80807337Y-79212029D01*
X80700507Y-79164896D01*
X80590969Y-79088654D01*
X80509643Y-78975384D01*
X80466205Y-78838882D01*
X80464847Y-78828919D01*
X80473737Y-78719353D01*
X80518460Y-78600716D01*
X80589373Y-78493250D01*
X80653782Y-78432275D01*
X80754614Y-78387727D01*
X80879231Y-78373381D01*
X81006815Y-78388825D01*
X81116548Y-78433642D01*
X81128585Y-78441724D01*
X81222932Y-78537926D01*
X81286489Y-78661414D01*
X81311233Y-78793597D01*
X81306925Y-78854927D01*
X81270638Y-78956487D01*
X81203787Y-79056209D01*
X81120177Y-79137923D01*
X81033611Y-79185458D01*
X81022233Y-79188423D01*
X80942587Y-79205916D01*
X80942587Y-79555418D01*
X80942587Y-79904919D01*
X81402438Y-79904919D01*
X81862289Y-79904919D01*
X81863269Y-80317432D01*
X81864249Y-80729946D01*
X81978193Y-80784046D01*
X82098895Y-80869674D01*
X82187657Y-80990456D01*
X82229777Y-81111460D01*
X82225656Y-81212975D01*
X82185787Y-81326441D01*
X82119240Y-81433506D01*
X82035083Y-81515816D01*
X82027351Y-81521121D01*
X81901788Y-81575897D01*
X81772771Y-81583985D01*
X81649014Y-81551408D01*
X81539235Y-81484190D01*
X81452147Y-81388357D01*
X81396466Y-81269933D01*
X81380906Y-81134942D01*
X81387633Y-81078904D01*
X81428339Y-80977052D01*
X81503504Y-80876473D01*
X81596695Y-80796794D01*
X81645764Y-80770572D01*
X81727038Y-80736907D01*
X81727038Y-80388538D01*
X81727038Y-80040169D01*
X80888487Y-80040169D01*
X80049935Y-80040169D01*
X80049935Y-80388538D01*
X80049935Y-80736907D01*
X80131210Y-80770572D01*
X80251502Y-80846326D01*
X80336907Y-80952674D01*
X80384430Y-81078159D01*
X80391074Y-81211325D01*
X80353844Y-81340716D01*
X80301397Y-81421342D01*
X80187924Y-81520071D01*
X80060274Y-81572608D01*
X79928283Y-81581079D01*
X79801789Y-81547612D01*
X79690628Y-81474334D01*
X79604638Y-81363370D01*
X79563990Y-81261907D01*
X79553598Y-81129462D01*
X79588286Y-80997870D01*
X79660690Y-80881274D01*
X79763449Y-80793816D01*
X79822114Y-80766077D01*
X79916216Y-80732049D01*
X79908688Y-80392872D01*
X79901160Y-80053694D01*
X79055846Y-80046547D01*
X78210531Y-80039399D01*
X78210531Y-80386229D01*
X78210531Y-80733059D01*
X78318741Y-80780801D01*
X78422474Y-80853251D01*
X78504528Y-80960946D01*
X78553468Y-81086012D01*
X78562182Y-81161440D01*
X78537926Y-81299971D01*
X78471622Y-81416889D01*
X78372966Y-81506371D01*
X78251653Y-81562597D01*
X78117378Y-81579746D01*
X77979838Y-81551997D01*
X77940570Y-81534643D01*
X77826042Y-81449029D01*
X77752943Y-81330293D01*
X77724006Y-81183120D01*
X77723631Y-81162747D01*
X77746159Y-81012508D01*
X77813705Y-80892259D01*
X77926209Y-80802096D01*
X77960318Y-80784746D01*
X78075281Y-80731346D01*
X78075281Y-80318133D01*
X78075281Y-79904919D01*
X78535132Y-79904919D01*
X78994983Y-79904919D01*
X78994983Y-79568820D01*
X78994983Y-79232721D01*
X78881067Y-79169832D01*
X78754027Y-79075108D01*
X78675474Y-78957080D01*
X78644152Y-78813715D01*
X78643433Y-78785104D01*
X78667222Y-78637672D01*
X78733310Y-78515752D01*
X78834125Y-78426253D01*
X78962097Y-78376087D01*
X79097514Y-78370636D01*
X79235632Y-78408944D01*
G37*
D16*
%TO.C,L432KC1*%
X107103248Y-51686000D02*
X107103248Y-54356000D01*
X107103248Y-56896000D02*
X107103248Y-95126000D01*
X107103248Y-95126000D02*
X125143248Y-95126000D01*
X109773248Y-54356000D02*
X107103248Y-54356000D01*
X109773248Y-56896000D02*
X107103248Y-56896000D01*
X109773248Y-56896000D02*
X109773248Y-54356000D01*
X109773248Y-56896000D02*
X109773248Y-92456000D01*
X109773248Y-92456000D02*
X107103248Y-92456000D01*
X112303248Y-49556000D02*
X120183248Y-49556000D01*
X112303248Y-59976000D02*
X112303248Y-49556000D01*
X120183248Y-49556000D02*
X120183248Y-59976000D01*
X120183248Y-59976000D02*
X112303248Y-59976000D01*
X122473248Y-54356000D02*
X122473248Y-92456000D01*
X122473248Y-54356000D02*
X125143248Y-54356000D01*
X122473248Y-92456000D02*
X125143248Y-92456000D01*
X125143248Y-51686000D02*
X107103248Y-51686000D01*
X125143248Y-95126000D02*
X125143248Y-51686000D01*
%TO.C,J9*%
X82440000Y-110640000D02*
X82440000Y-113290000D01*
X82440000Y-110640000D02*
X88290000Y-110640000D01*
X82440000Y-113540000D02*
X82440000Y-114140000D01*
X82440000Y-114390000D02*
X82440000Y-117890000D01*
X82440000Y-118140000D02*
X82440000Y-118740000D01*
X82440000Y-119040000D02*
X82440000Y-121690000D01*
X82440000Y-121690000D02*
X88290000Y-121690000D01*
X85740000Y-110140000D02*
X88740000Y-110140000D01*
X88290000Y-110640000D02*
X88290000Y-121690000D01*
X88740000Y-110140000D02*
X88740000Y-113140000D01*
D13*
%TO.C,J5*%
X69700000Y-69480000D02*
X95100000Y-69480000D01*
X69700000Y-92340000D02*
X69700000Y-69480000D01*
X92830000Y-92360000D02*
X69700000Y-92340000D01*
X92830000Y-92360000D02*
X95080000Y-90110000D01*
X95100000Y-69480000D02*
X95080000Y-90110000D01*
D15*
X95630000Y-88510000D02*
X95630000Y-88510000D01*
X95730000Y-88510000D02*
X95730000Y-88510000D01*
X95630000Y-88510000D02*
G75*
G02*
X95730000Y-88510000I50000J0D01*
G01*
X95730000Y-88510000D02*
G75*
G02*
X95630000Y-88510000I-50000J0D01*
G01*
D16*
%TO.C,R9\u002A*%
X106892936Y-93875000D02*
X107347064Y-93875000D01*
X106892936Y-95345000D02*
X107347064Y-95345000D01*
%TO.C,C4*%
X76708748Y-87925000D02*
X77231252Y-87925000D01*
X76708748Y-89395000D02*
X77231252Y-89395000D01*
%TO.C,SW1*%
X139310000Y-50950000D02*
X139310000Y-55450000D01*
X141810000Y-56700000D02*
X143310000Y-56700000D01*
X143310000Y-49700000D02*
X141810000Y-49700000D01*
X145810000Y-55450000D02*
X145810000Y-50950000D01*
%TO.C,R14\u002A*%
X81685000Y-62037064D02*
X81685000Y-61582936D01*
X83155000Y-62037064D02*
X83155000Y-61582936D01*
%TO.C,JP4*%
X143900000Y-125360000D02*
X143900000Y-120220000D01*
X146560000Y-120220000D02*
X143900000Y-120220000D01*
X146560000Y-125360000D02*
X143900000Y-125360000D01*
X146560000Y-125360000D02*
X146560000Y-120220000D01*
X146560000Y-126630000D02*
X146560000Y-127960000D01*
X146560000Y-127960000D02*
X145230000Y-127960000D01*
%TO.C,R3\u002A*%
X97775000Y-52012936D02*
X97775000Y-52467064D01*
X99245000Y-52012936D02*
X99245000Y-52467064D01*
%TO.C,C2*%
X76688748Y-85365000D02*
X77211252Y-85365000D01*
X76688748Y-86835000D02*
X77211252Y-86835000D01*
%TO.C,R8\u002A*%
X106872936Y-97065000D02*
X107327064Y-97065000D01*
X106872936Y-98535000D02*
X107327064Y-98535000D01*
%TO.C,R4*%
X138747064Y-61055000D02*
X138292936Y-61055000D01*
X138747064Y-62525000D02*
X138292936Y-62525000D01*
%TO.C,C8*%
X112940300Y-101703200D02*
X112417796Y-101703200D01*
X112940300Y-103173200D02*
X112417796Y-103173200D01*
%TO.C,JP3*%
X148050000Y-125360000D02*
X148050000Y-120220000D01*
X150710000Y-120220000D02*
X148050000Y-120220000D01*
X150710000Y-125360000D02*
X148050000Y-125360000D01*
X150710000Y-125360000D02*
X150710000Y-120220000D01*
X150710000Y-126630000D02*
X150710000Y-127960000D01*
X150710000Y-127960000D02*
X149380000Y-127960000D01*
%TO.C,R1*%
X141527064Y-58825000D02*
X141072936Y-58825000D01*
X141527064Y-60295000D02*
X141072936Y-60295000D01*
D13*
%TO.C,J1*%
X139747718Y-63302651D02*
X152317718Y-63302651D01*
X152317718Y-114612651D02*
X143807718Y-114612651D01*
X152317718Y-114612651D02*
X152317718Y-63302651D01*
%TD*%
D18*
X73750000Y-43050000D02*
X73750000Y-46550000D01*
X63750000Y-43050000D02*
X73750000Y-43050000D01*
X73750000Y-131550000D02*
X153750000Y-131550000D01*
X73750000Y-46550000D02*
X153750000Y-46550000D01*
X63750000Y-135050000D02*
X73750000Y-135050000D01*
X153750000Y-131550000D02*
X153750000Y-46550000D01*
X63750000Y-135050000D02*
X63750000Y-43050000D01*
X73750000Y-131550000D02*
X73750000Y-135050000D01*
M02*
