%TF.GenerationSoftware,KiCad,Pcbnew,7.0.5-7.0.5~ubuntu22.04.1*%
%TF.CreationDate,2023-07-21T12:32:22+02:00*%
%TF.ProjectId,Board_ESP_MikroBus_V1,426f6172-645f-4455-9350-5f4d696b726f,rev?*%
%TF.SameCoordinates,Original*%
%TF.FileFunction,Soldermask,Bot*%
%TF.FilePolarity,Negative*%
%FSLAX46Y46*%
G04 Gerber Fmt 4.6, Leading zero omitted, Abs format (unit mm)*
G04 Created by KiCad (PCBNEW 7.0.5-7.0.5~ubuntu22.04.1) date 2023-07-21 12:32:22*
%MOMM*%
%LPD*%
G01*
G04 APERTURE LIST*
%ADD10R,1.445000X1.445000*%
%ADD11C,1.445000*%
%ADD12R,1.700000X1.700000*%
%ADD13O,1.700000X1.700000*%
%ADD14C,1.560000*%
%ADD15R,1.524000X1.524000*%
%ADD16C,1.524000*%
%ADD17C,3.500000*%
%ADD18O,2.100000X1.600000*%
%ADD19R,1.560000X1.560000*%
G04 APERTURE END LIST*
D10*
%TO.C,MiKroBus_0*%
X55697200Y-32890000D03*
D11*
X55697200Y-35430000D03*
X55697200Y-37970000D03*
X55697200Y-40510000D03*
X55697200Y-43050000D03*
X55697200Y-45590000D03*
X55697200Y-48130000D03*
X55697200Y-50670000D03*
X78557200Y-32890000D03*
X78557200Y-35430000D03*
X78557200Y-37970000D03*
X78557200Y-40510000D03*
X78557200Y-43050000D03*
X78557200Y-45590000D03*
X78557200Y-48130000D03*
X78557200Y-50670000D03*
%TD*%
D12*
%TO.C,J1*%
X73404600Y-66217800D03*
D13*
X70864600Y-66217800D03*
X68324600Y-66217800D03*
X65784600Y-66217800D03*
X63244600Y-66217800D03*
X60704600Y-66217800D03*
X58164600Y-66217800D03*
X55624600Y-66217800D03*
X53084600Y-66217800D03*
X50544600Y-66217800D03*
X48004600Y-66217800D03*
X45464600Y-66217800D03*
D14*
X42924600Y-66217800D03*
X40384600Y-66217800D03*
X37844600Y-66217800D03*
D13*
X35304600Y-66217800D03*
X32764600Y-66217800D03*
X30224600Y-66217800D03*
X27684600Y-66217800D03*
%TD*%
D12*
%TO.C,5V2*%
X18876549Y-60149839D03*
D13*
X21416549Y-60149839D03*
%TD*%
D12*
%TO.C,5V3*%
X18876549Y-57000239D03*
D13*
X21416549Y-57000239D03*
%TD*%
D15*
%TO.C,I2C5*%
X38869200Y-47498000D03*
D16*
X36869200Y-47498000D03*
X34869200Y-47498000D03*
X32869200Y-47498000D03*
%TD*%
D17*
%TO.C,REF\u002A\u002A*%
X21458000Y-19685000D03*
%TD*%
D12*
%TO.C,3.4*%
X79739949Y-61475639D03*
D13*
X79739949Y-58935639D03*
%TD*%
D12*
%TO.C,Jmp_Tx1*%
X37409200Y-21618400D03*
D13*
X39949200Y-21618400D03*
X42489200Y-21618400D03*
%TD*%
D18*
%TO.C,J3*%
X95759922Y-85137405D03*
X93219922Y-85137405D03*
X95759922Y-82597405D03*
X93219922Y-82597405D03*
X95759922Y-80057405D03*
X93219922Y-80057405D03*
X95759922Y-77517405D03*
X93219922Y-77517405D03*
X95759922Y-74977405D03*
X93219922Y-74977405D03*
X95759922Y-72437405D03*
X93219922Y-72437405D03*
X95759922Y-69897405D03*
X93219922Y-69897405D03*
X95759922Y-67357405D03*
X93219922Y-67357405D03*
X95759922Y-64817405D03*
X93219922Y-64817405D03*
X95759922Y-62277405D03*
X93219922Y-62277405D03*
X95759922Y-59737405D03*
X93219922Y-59737405D03*
X95759922Y-57197405D03*
X93219922Y-57197405D03*
X95759922Y-54657405D03*
X93219922Y-54657405D03*
X95759922Y-52117405D03*
X93219922Y-52117405D03*
X95759922Y-49577405D03*
X93219922Y-49577405D03*
X95759922Y-47037405D03*
X93219922Y-47037405D03*
X95759922Y-44497405D03*
X93219922Y-44497405D03*
X95759922Y-41957405D03*
X93219922Y-41957405D03*
X95759922Y-39417405D03*
X93219922Y-39417405D03*
X95759922Y-36877405D03*
X93219922Y-36877405D03*
%TD*%
D15*
%TO.C,I2C2*%
X70079200Y-39624000D03*
D16*
X68079200Y-39624000D03*
X66079200Y-39624000D03*
X64079200Y-39624000D03*
%TD*%
D12*
%TO.C,3.6*%
X86039149Y-61475639D03*
D13*
X86039149Y-58935639D03*
%TD*%
D12*
%TO.C,3.1*%
X27210000Y-61475639D03*
D13*
X27210000Y-58935639D03*
%TD*%
D15*
%TO.C,I2C3*%
X70079200Y-32131000D03*
D16*
X68079200Y-32131000D03*
X66079200Y-32131000D03*
X64079200Y-32131000D03*
%TD*%
D10*
%TO.C,MiKroBus_1*%
X25217200Y-32890000D03*
D11*
X25217200Y-35430000D03*
X25217200Y-37970000D03*
X25217200Y-40510000D03*
X25217200Y-43050000D03*
X25217200Y-45590000D03*
X25217200Y-48130000D03*
X25217200Y-50670000D03*
X48077200Y-32890000D03*
X48077200Y-35430000D03*
X48077200Y-37970000D03*
X48077200Y-40510000D03*
X48077200Y-43050000D03*
X48077200Y-45590000D03*
X48077200Y-48130000D03*
X48077200Y-50670000D03*
%TD*%
D17*
%TO.C,REF\u002A\u002A*%
X21458000Y-102235000D03*
%TD*%
D15*
%TO.C,UART0*%
X38869200Y-32131000D03*
D16*
X36869200Y-32131000D03*
X34869200Y-32131000D03*
X32869200Y-32131000D03*
%TD*%
D12*
%TO.C,JP1*%
X33318400Y-80370600D03*
D13*
X33318400Y-77830600D03*
%TD*%
D12*
%TO.C,3.5*%
X82889549Y-61475639D03*
D13*
X82889549Y-58935639D03*
%TD*%
D15*
%TO.C,IO_32/33*%
X96244964Y-27902006D03*
D16*
X94244964Y-27902006D03*
X92244964Y-27902006D03*
X90244964Y-27902006D03*
%TD*%
D12*
%TO.C,Jmp_Rx1*%
X28265200Y-21618400D03*
D13*
X30805200Y-21618400D03*
X33345200Y-21618400D03*
%TD*%
D17*
%TO.C,REF\u002A\u002A*%
X102992000Y-31115000D03*
%TD*%
D19*
%TO.C,U1*%
X73352600Y-71297800D03*
D14*
X70812600Y-71297800D03*
X68272600Y-71297800D03*
X65732600Y-71297800D03*
X63192600Y-71297800D03*
X60652600Y-71297800D03*
X58112600Y-71297800D03*
X55572600Y-71297800D03*
X53032600Y-71297800D03*
X50492600Y-71297800D03*
X47952600Y-71297800D03*
X45412600Y-71297800D03*
X42872600Y-71297800D03*
X40332600Y-71297800D03*
X37792600Y-71297800D03*
X35252600Y-71297800D03*
X32712600Y-71297800D03*
X30172600Y-71297800D03*
X27632600Y-71297800D03*
X73352600Y-96697800D03*
X70812600Y-96697800D03*
X68272600Y-96697800D03*
X65732600Y-96697800D03*
X63192600Y-96697800D03*
X60652600Y-96697800D03*
X58112600Y-96697800D03*
X55572600Y-96697800D03*
X53032600Y-96697800D03*
X50492600Y-96697800D03*
X47952600Y-96697800D03*
X45412600Y-96697800D03*
X42872600Y-96697800D03*
X40332600Y-96697800D03*
X37792600Y-96697800D03*
X35252600Y-96697800D03*
X32712600Y-96697800D03*
X30172600Y-96697800D03*
X27632600Y-96697800D03*
%TD*%
D12*
%TO.C,J2*%
X73367936Y-101799375D03*
D13*
X70827936Y-101799375D03*
X68287936Y-101799375D03*
X65747936Y-101799375D03*
X63207936Y-101799375D03*
X60667936Y-101799375D03*
X58127936Y-101799375D03*
X55587936Y-101799375D03*
X53047936Y-101799375D03*
X50507936Y-101799375D03*
X47967936Y-101799375D03*
X45427936Y-101799375D03*
X42887936Y-101799375D03*
X40347936Y-101799375D03*
X37807936Y-101799375D03*
X35267936Y-101799375D03*
X32727936Y-101799375D03*
X30187936Y-101799375D03*
X27647936Y-101799375D03*
%TD*%
D12*
%TO.C,5V1*%
X18871549Y-63350239D03*
D13*
X21411549Y-63350239D03*
%TD*%
D12*
%TO.C,C1*%
X24133600Y-73583800D03*
D13*
X21593600Y-73583800D03*
%TD*%
D15*
%TO.C,I2C4*%
X38869200Y-39624000D03*
D16*
X36869200Y-39624000D03*
X34869200Y-39624000D03*
X32869200Y-39624000D03*
%TD*%
D12*
%TO.C,Jmp_Rx2*%
X66614200Y-21570400D03*
D13*
X69154200Y-21570400D03*
X71694200Y-21570400D03*
%TD*%
D12*
%TO.C,3.3*%
X33560000Y-61475639D03*
D13*
X33560000Y-58935639D03*
%TD*%
D15*
%TO.C,I2C1*%
X70079200Y-47498000D03*
D16*
X68079200Y-47498000D03*
X66079200Y-47498000D03*
X64079200Y-47498000D03*
%TD*%
D17*
%TO.C,REF\u002A\u002A*%
X102992000Y-90805000D03*
%TD*%
D12*
%TO.C,3.2*%
X30359600Y-61475639D03*
D13*
X30359600Y-58935639D03*
%TD*%
D12*
%TO.C,Jmp_Tx2*%
X62694200Y-21570400D03*
D13*
X60154200Y-21570400D03*
X57614200Y-21570400D03*
%TD*%
M02*
