M48
; DRILL file {KiCad 7.0.5-7.0.5~ubuntu22.04.1} date ven. 21 juil. 2023 12:32:59
; FORMAT={-:-/ absolute / metric / decimal}
; #@! TF.CreationDate,2023-07-21T12:32:59+02:00
; #@! TF.GenerationSoftware,Kicad,Pcbnew,7.0.5-7.0.5~ubuntu22.04.1
; #@! TF.FileFunction,MixedPlating,1,2
FMAT,2
METRIC
; #@! TA.AperFunction,Plated,PTH,ViaDrill
T1C0.400
; #@! TA.AperFunction,Plated,PTH,ViaDrill
T2C0.600
; #@! TA.AperFunction,Plated,PTH,ComponentDrill
T3C0.762
; #@! TA.AperFunction,Plated,PTH,ComponentDrill
T4C0.889
; #@! TA.AperFunction,Plated,PTH,ComponentDrill
T5C1.000
; #@! TA.AperFunction,Plated,PTH,ComponentDrill
T6C1.040
; #@! TA.AperFunction,NonPlated,NPTH,ComponentDrill
T7C3.500
%
G90
G05
T1
X27.56Y-51.755
X28.31Y-41.505
X28.31Y-44.005
X30.17Y-89.129
X31.059Y-37.922
X31.172Y-54.18
X32.06Y-45.255
X34.56Y-64.005
X36.56Y-72.505
X38.882Y-73.889
X39.06Y-56.54
X40.31Y-35.505
X41.676Y-73.914
X41.753Y-24.663
X43.988Y-84.557
X44.115Y-56.464
X44.115Y-63.551
X44.216Y-25.07
X44.75Y-87.325
X45.004Y-52.117
X45.31Y-57.755
X45.56Y-81.255
X45.56Y-84.505
X46.248Y-54.657
X46.731Y-83.033
X47.239Y-56.896
X47.671Y-87.478
X48.06Y-55.755
X50.56Y-26.505
X51.81Y-61.476
X53.31Y-64.35
X53.31Y-75.005
X55.81Y-53.505
X59.06Y-45.755
X59.06Y-59.258
X59.366Y-73.429
X61.56Y-33.005
X61.56Y-53.505
X62.06Y-54.657
X63.56Y-56.005
X66.086Y-61.476
X68.067Y-54.657
X70.048Y-52.117
X72.131Y-59.258
X76.31Y-53.505
X76.31Y-64.505
X77.948Y-72.06
X80.615Y-54.657
X82.113Y-52.117
X82.215Y-94.107
X83.56Y-53.505
X83.942Y-72.212
X85.06Y-56.005
T2
X51.81Y-48.005
T3
X32.869Y-32.131
X32.869Y-39.624
X32.869Y-47.498
X34.869Y-32.131
X34.869Y-39.624
X34.869Y-47.498
X36.869Y-32.131
X36.869Y-39.624
X36.869Y-47.498
X38.869Y-32.131
X38.869Y-39.624
X38.869Y-47.498
X64.079Y-32.131
X64.079Y-39.624
X64.079Y-47.498
X66.079Y-32.131
X66.079Y-39.624
X66.079Y-47.498
X68.079Y-32.131
X68.079Y-39.624
X68.079Y-47.498
X70.079Y-32.131
X70.079Y-39.624
X70.079Y-47.498
X90.245Y-27.902
X92.245Y-27.902
X94.245Y-27.902
X96.245Y-27.902
T4
X25.217Y-32.89
X25.217Y-35.43
X25.217Y-37.97
X25.217Y-40.51
X25.217Y-43.05
X25.217Y-45.59
X25.217Y-48.13
X25.217Y-50.67
X48.077Y-32.89
X48.077Y-35.43
X48.077Y-37.97
X48.077Y-40.51
X48.077Y-43.05
X48.077Y-45.59
X48.077Y-48.13
X48.077Y-50.67
X55.697Y-32.89
X55.697Y-35.43
X55.697Y-37.97
X55.697Y-40.51
X55.697Y-43.05
X55.697Y-45.59
X55.697Y-48.13
X55.697Y-50.67
X78.557Y-32.89
X78.557Y-35.43
X78.557Y-37.97
X78.557Y-40.51
X78.557Y-43.05
X78.557Y-45.59
X78.557Y-48.13
X78.557Y-50.67
T5
X18.872Y-63.35
X18.877Y-57.0
X18.877Y-60.15
X21.412Y-63.35
X21.417Y-57.0
X21.417Y-60.15
X21.594Y-73.584
X24.134Y-73.584
X27.21Y-58.936
X27.21Y-61.476
X27.648Y-101.799
X27.685Y-66.218
X28.265Y-21.618
X30.188Y-101.799
X30.225Y-66.218
X30.36Y-58.936
X30.36Y-61.476
X30.805Y-21.618
X32.728Y-101.799
X32.765Y-66.218
X33.318Y-77.831
X33.318Y-80.371
X33.345Y-21.618
X33.56Y-58.936
X33.56Y-61.476
X35.268Y-101.799
X35.305Y-66.218
X37.409Y-21.618
X37.808Y-101.799
X39.949Y-21.618
X40.348Y-101.799
X42.489Y-21.618
X42.888Y-101.799
X45.428Y-101.799
X45.465Y-66.218
X47.968Y-101.799
X48.005Y-66.218
X50.508Y-101.799
X50.545Y-66.218
X53.048Y-101.799
X53.085Y-66.218
X55.588Y-101.799
X55.625Y-66.218
X57.614Y-21.57
X58.128Y-101.799
X58.165Y-66.218
X60.154Y-21.57
X60.668Y-101.799
X60.705Y-66.218
X62.694Y-21.57
X63.208Y-101.799
X63.245Y-66.218
X65.748Y-101.799
X65.785Y-66.218
X66.614Y-21.57
X68.288Y-101.799
X68.325Y-66.218
X69.154Y-21.57
X70.828Y-101.799
X70.865Y-66.218
X71.694Y-21.57
X73.368Y-101.799
X73.405Y-66.218
X79.74Y-58.936
X79.74Y-61.476
X82.89Y-58.936
X82.89Y-61.476
X86.039Y-58.936
X86.039Y-61.476
X93.22Y-36.877
X93.22Y-39.417
X93.22Y-41.957
X93.22Y-44.497
X93.22Y-47.037
X93.22Y-49.577
X93.22Y-52.117
X93.22Y-54.657
X93.22Y-57.197
X93.22Y-59.737
X93.22Y-62.277
X93.22Y-64.817
X93.22Y-67.357
X93.22Y-69.897
X93.22Y-72.437
X93.22Y-74.977
X93.22Y-77.517
X93.22Y-80.057
X93.22Y-82.597
X93.22Y-85.137
X95.76Y-36.877
X95.76Y-39.417
X95.76Y-41.957
X95.76Y-44.497
X95.76Y-47.037
X95.76Y-49.577
X95.76Y-52.117
X95.76Y-54.657
X95.76Y-57.197
X95.76Y-59.737
X95.76Y-62.277
X95.76Y-64.817
X95.76Y-67.357
X95.76Y-69.897
X95.76Y-72.437
X95.76Y-74.977
X95.76Y-77.517
X95.76Y-80.057
X95.76Y-82.597
X95.76Y-85.137
T6
X27.633Y-71.298
X27.633Y-96.698
X30.173Y-71.298
X30.173Y-96.698
X32.713Y-71.298
X32.713Y-96.698
X35.253Y-71.298
X35.253Y-96.698
X37.793Y-71.298
X37.793Y-96.698
X37.845Y-66.218
X40.333Y-71.298
X40.333Y-96.698
X40.385Y-66.218
X42.873Y-71.298
X42.873Y-96.698
X42.925Y-66.218
X45.413Y-71.298
X45.413Y-96.698
X47.953Y-71.298
X47.953Y-96.698
X50.493Y-71.298
X50.493Y-96.698
X53.033Y-71.298
X53.033Y-96.698
X55.573Y-71.298
X55.573Y-96.698
X58.113Y-71.298
X58.113Y-96.698
X60.653Y-71.298
X60.653Y-96.698
X63.193Y-71.298
X63.193Y-96.698
X65.733Y-71.298
X65.733Y-96.698
X68.273Y-71.298
X68.273Y-96.698
X70.813Y-71.298
X70.813Y-96.698
X73.353Y-71.298
X73.353Y-96.698
T7
X21.458Y-19.685
X21.458Y-102.235
X102.992Y-31.115
X102.992Y-90.805
T0
M30
