%TF.GenerationSoftware,KiCad,Pcbnew,8.0.6*%
%TF.CreationDate,2025-02-06T11:10:52+01:00*%
%TF.ProjectId,Com_Nucleo-L432kc,436f6d5f-4e75-4636-9c65-6f2d4c343332,rev?*%
%TF.SameCoordinates,Original*%
%TF.FileFunction,Legend,Top*%
%TF.FilePolarity,Positive*%
%FSLAX46Y46*%
G04 Gerber Fmt 4.6, Leading zero omitted, Abs format (unit mm)*
G04 Created by KiCad (PCBNEW 8.0.6) date 2025-02-06 11:10:52*
%MOMM*%
%LPD*%
G01*
G04 APERTURE LIST*
%ADD10C,0.100000*%
%ADD11C,0.150000*%
%ADD12C,0.366548*%
%ADD13C,0.250000*%
%ADD14C,0.200000*%
%ADD15C,0.254000*%
%ADD16C,0.120000*%
%ADD17C,0.000000*%
%TA.AperFunction,Profile*%
%ADD18C,0.100000*%
%TD*%
G04 APERTURE END LIST*
D10*
X101200000Y-93270000D02*
X101220000Y-93270000D01*
X101620000Y-93270000D02*
X101640000Y-93270000D01*
X102040000Y-93270000D02*
X102060000Y-93270000D01*
X102460000Y-93270000D02*
X102480000Y-93270000D01*
X102880000Y-93270000D02*
X102900000Y-93270000D01*
X103300000Y-93270000D02*
X103320000Y-93270000D01*
X103720000Y-93270000D02*
X103740000Y-93270000D01*
X104140000Y-93270000D02*
X104160000Y-93270000D01*
X104560000Y-93270000D02*
X104580000Y-93270000D01*
X104980000Y-93270000D02*
X105000000Y-93270000D01*
X105400000Y-93270000D02*
X105420000Y-93270000D01*
X105820000Y-93270000D02*
X105840000Y-93270000D01*
X106240000Y-93270000D02*
X106260000Y-93270000D01*
X106660000Y-93270000D02*
X106680000Y-93270000D01*
X107080000Y-93270000D02*
X107100000Y-93270000D01*
X107500000Y-93270000D02*
X107520000Y-93270000D01*
X107920000Y-93270000D02*
X107940000Y-93270000D01*
X108340000Y-93270000D02*
X108360000Y-93270000D01*
X108760000Y-93270000D02*
X108780000Y-93270000D01*
X109180000Y-93270000D02*
X109200000Y-93270000D01*
X109220000Y-93270000D02*
X109220000Y-93290000D01*
X109220000Y-93690000D02*
X109220000Y-93710000D01*
X109220000Y-94110000D02*
X109220000Y-94130000D01*
X109220000Y-94530000D02*
X109220000Y-94550000D01*
X109220000Y-94950000D02*
X109220000Y-94970000D01*
X109220000Y-95370000D02*
X109220000Y-95390000D01*
X109220000Y-95790000D02*
X109220000Y-95810000D01*
X109220000Y-96210000D02*
X109220000Y-96230000D01*
X109220000Y-96630000D02*
X109220000Y-96650000D01*
X109220000Y-97050000D02*
X109220000Y-97070000D01*
X109220000Y-97470000D02*
X109220000Y-97490000D01*
X109220000Y-97890000D02*
X109220000Y-97910000D01*
X109220000Y-98310000D02*
X109220000Y-98330000D01*
X109220000Y-98730000D02*
X109220000Y-98750000D01*
X109220000Y-99150000D02*
X109220000Y-99170000D01*
X109220000Y-99570000D02*
X109220000Y-99590000D01*
X109220000Y-99990000D02*
X109220000Y-100010000D01*
X109220000Y-100010000D02*
X109200000Y-100010000D01*
X108800000Y-100010000D02*
X108780000Y-100010000D01*
X108380000Y-100010000D02*
X108360000Y-100010000D01*
X107960000Y-100010000D02*
X107940000Y-100010000D01*
X107540000Y-100010000D02*
X107520000Y-100010000D01*
X107120000Y-100010000D02*
X107100000Y-100010000D01*
X106700000Y-100010000D02*
X106680000Y-100010000D01*
X106280000Y-100010000D02*
X106260000Y-100010000D01*
X105860000Y-100010000D02*
X105840000Y-100010000D01*
X105440000Y-100010000D02*
X105420000Y-100010000D01*
X105020000Y-100010000D02*
X105000000Y-100010000D01*
X104600000Y-100010000D02*
X104580000Y-100010000D01*
X104180000Y-100010000D02*
X104160000Y-100010000D01*
X103760000Y-100010000D02*
X103740000Y-100010000D01*
X103340000Y-100010000D02*
X103320000Y-100010000D01*
X102920000Y-100010000D02*
X102900000Y-100010000D01*
X102500000Y-100010000D02*
X102480000Y-100010000D01*
X102080000Y-100010000D02*
X102060000Y-100010000D01*
X101660000Y-100010000D02*
X101640000Y-100010000D01*
X101240000Y-100010000D02*
X101220000Y-100010000D01*
X101200000Y-100010000D02*
X101200000Y-99990000D01*
X101200000Y-99590000D02*
X101200000Y-99570000D01*
X101200000Y-99170000D02*
X101200000Y-99150000D01*
X101200000Y-98750000D02*
X101200000Y-98730000D01*
X101200000Y-98330000D02*
X101200000Y-98310000D01*
X101200000Y-97910000D02*
X101200000Y-97890000D01*
X101200000Y-97490000D02*
X101200000Y-97470000D01*
X101200000Y-97070000D02*
X101200000Y-97050000D01*
X101200000Y-96650000D02*
X101200000Y-96630000D01*
X101200000Y-96230000D02*
X101200000Y-96210000D01*
X101200000Y-95810000D02*
X101200000Y-95790000D01*
X101200000Y-95390000D02*
X101200000Y-95370000D01*
X101200000Y-94970000D02*
X101200000Y-94950000D01*
X101200000Y-94550000D02*
X101200000Y-94530000D01*
X101200000Y-94130000D02*
X101200000Y-94110000D01*
X101200000Y-93710000D02*
X101200000Y-93690000D01*
X101200000Y-93290000D02*
X101200000Y-93270000D01*
X130530000Y-85650000D02*
X130550000Y-85650000D01*
X130950000Y-85650000D02*
X130970000Y-85650000D01*
X131370000Y-85650000D02*
X131390000Y-85650000D01*
X131790000Y-85650000D02*
X131810000Y-85650000D01*
X132210000Y-85650000D02*
X132230000Y-85650000D01*
X132630000Y-85650000D02*
X132650000Y-85650000D01*
X133050000Y-85650000D02*
X133070000Y-85650000D01*
X133470000Y-85650000D02*
X133490000Y-85650000D01*
X133890000Y-85650000D02*
X133910000Y-85650000D01*
X134310000Y-85650000D02*
X134330000Y-85650000D01*
X134730000Y-85650000D02*
X134750000Y-85650000D01*
X135150000Y-85650000D02*
X135170000Y-85650000D01*
X135570000Y-85650000D02*
X135590000Y-85650000D01*
X135610000Y-85650000D02*
X135610000Y-85670000D01*
X135610000Y-86070000D02*
X135610000Y-86090000D01*
X135610000Y-86490000D02*
X135610000Y-86510000D01*
X135610000Y-86910000D02*
X135610000Y-86930000D01*
X135610000Y-87330000D02*
X135610000Y-87350000D01*
X135610000Y-87750000D02*
X135610000Y-87770000D01*
X135610000Y-88170000D02*
X135610000Y-88190000D01*
X135610000Y-88590000D02*
X135610000Y-88610000D01*
X135610000Y-89010000D02*
X135610000Y-89030000D01*
X135610000Y-89430000D02*
X135610000Y-89450000D01*
X135610000Y-89850000D02*
X135610000Y-89870000D01*
X135610000Y-90270000D02*
X135610000Y-90290000D01*
X135610000Y-90690000D02*
X135610000Y-90710000D01*
X135610000Y-91110000D02*
X135610000Y-91130000D01*
X135610000Y-91530000D02*
X135610000Y-91550000D01*
X135610000Y-91910000D02*
X135590000Y-91910000D01*
X135190000Y-91910000D02*
X135170000Y-91910000D01*
X134770000Y-91910000D02*
X134750000Y-91910000D01*
X134350000Y-91910000D02*
X134330000Y-91910000D01*
X133930000Y-91910000D02*
X133910000Y-91910000D01*
X133510000Y-91910000D02*
X133490000Y-91910000D01*
X133090000Y-91910000D02*
X133070000Y-91910000D01*
X132670000Y-91910000D02*
X132650000Y-91910000D01*
X132250000Y-91910000D02*
X132230000Y-91910000D01*
X131830000Y-91910000D02*
X131810000Y-91910000D01*
X131410000Y-91910000D02*
X131390000Y-91910000D01*
X130990000Y-91910000D02*
X130970000Y-91910000D01*
X130570000Y-91910000D02*
X130550000Y-91910000D01*
X130530000Y-91910000D02*
X130530000Y-91890000D01*
X130530000Y-91490000D02*
X130530000Y-91470000D01*
X130530000Y-91070000D02*
X130530000Y-91050000D01*
X130530000Y-90650000D02*
X130530000Y-90630000D01*
X130530000Y-90230000D02*
X130530000Y-90210000D01*
X130530000Y-89810000D02*
X130530000Y-89790000D01*
X130530000Y-89390000D02*
X130530000Y-89370000D01*
X130530000Y-88970000D02*
X130530000Y-88950000D01*
X130530000Y-88550000D02*
X130530000Y-88530000D01*
X130530000Y-88130000D02*
X130530000Y-88110000D01*
X130530000Y-87710000D02*
X130530000Y-87690000D01*
X130530000Y-87290000D02*
X130530000Y-87270000D01*
X130530000Y-86870000D02*
X130530000Y-86850000D01*
X130530000Y-86450000D02*
X130530000Y-86430000D01*
X130530000Y-86030000D02*
X130530000Y-86010000D01*
X130660000Y-63210000D02*
X130680000Y-63210000D01*
X131080000Y-63210000D02*
X131100000Y-63210000D01*
X131500000Y-63210000D02*
X131520000Y-63210000D01*
X131920000Y-63210000D02*
X131940000Y-63210000D01*
X132340000Y-63210000D02*
X132360000Y-63210000D01*
X132760000Y-63210000D02*
X132780000Y-63210000D01*
X133180000Y-63210000D02*
X133200000Y-63210000D01*
X133600000Y-63210000D02*
X133620000Y-63210000D01*
X134020000Y-63210000D02*
X134040000Y-63210000D01*
X134440000Y-63210000D02*
X134460000Y-63210000D01*
X134860000Y-63210000D02*
X134880000Y-63210000D01*
X135280000Y-63210000D02*
X135300000Y-63210000D01*
X135700000Y-63210000D02*
X135720000Y-63210000D01*
X136120000Y-63210000D02*
X136140000Y-63210000D01*
X136540000Y-63210000D02*
X136560000Y-63210000D01*
X136960000Y-63210000D02*
X136980000Y-63210000D01*
X136980000Y-63210000D02*
X136980000Y-63230000D01*
X136980000Y-63630000D02*
X136980000Y-63650000D01*
X136980000Y-64050000D02*
X136980000Y-64070000D01*
X136980000Y-64470000D02*
X136980000Y-64490000D01*
X136980000Y-64890000D02*
X136980000Y-64910000D01*
X136980000Y-65310000D02*
X136980000Y-65330000D01*
X136980000Y-65730000D02*
X136980000Y-65750000D01*
X136980000Y-66150000D02*
X136980000Y-66170000D01*
X136980000Y-66570000D02*
X136980000Y-66590000D01*
X136980000Y-66990000D02*
X136980000Y-67010000D01*
X136980000Y-67410000D02*
X136980000Y-67430000D01*
X136980000Y-67640000D02*
X136960000Y-67640000D01*
X136560000Y-67640000D02*
X136540000Y-67640000D01*
X136140000Y-67640000D02*
X136120000Y-67640000D01*
X135720000Y-67640000D02*
X135700000Y-67640000D01*
X135300000Y-67640000D02*
X135280000Y-67640000D01*
X134880000Y-67640000D02*
X134860000Y-67640000D01*
X134460000Y-67640000D02*
X134440000Y-67640000D01*
X134040000Y-67640000D02*
X134020000Y-67640000D01*
X133620000Y-67640000D02*
X133600000Y-67640000D01*
X133200000Y-67640000D02*
X133180000Y-67640000D01*
X132780000Y-67640000D02*
X132760000Y-67640000D01*
X132360000Y-67640000D02*
X132340000Y-67640000D01*
X131940000Y-67640000D02*
X131920000Y-67640000D01*
X131520000Y-67640000D02*
X131500000Y-67640000D01*
X131100000Y-67640000D02*
X131080000Y-67640000D01*
X130680000Y-67640000D02*
X130660000Y-67640000D01*
X130660000Y-67640000D02*
X130660000Y-67620000D01*
X130660000Y-67220000D02*
X130660000Y-67200000D01*
X130660000Y-66800000D02*
X130660000Y-66780000D01*
X130660000Y-66380000D02*
X130660000Y-66360000D01*
X130660000Y-65960000D02*
X130660000Y-65940000D01*
X130660000Y-65540000D02*
X130660000Y-65520000D01*
X130660000Y-65120000D02*
X130660000Y-65100000D01*
X130660000Y-64700000D02*
X130660000Y-64680000D01*
X130660000Y-64280000D02*
X130660000Y-64260000D01*
X130660000Y-63860000D02*
X130660000Y-63840000D01*
X130660000Y-63440000D02*
X130660000Y-63420000D01*
X93550000Y-50080000D02*
X93570000Y-50080000D01*
X93970000Y-50080000D02*
X93990000Y-50080000D01*
X94390000Y-50080000D02*
X94410000Y-50080000D01*
X94810000Y-50080000D02*
X94830000Y-50080000D01*
X95230000Y-50080000D02*
X95250000Y-50080000D01*
X95650000Y-50080000D02*
X95670000Y-50080000D01*
X96070000Y-50080000D02*
X96090000Y-50080000D01*
X96490000Y-50080000D02*
X96510000Y-50080000D01*
X96910000Y-50080000D02*
X96930000Y-50080000D01*
X97330000Y-50080000D02*
X97350000Y-50080000D01*
X97750000Y-50080000D02*
X97770000Y-50080000D01*
X98170000Y-50080000D02*
X98190000Y-50080000D01*
X98590000Y-50080000D02*
X98610000Y-50080000D01*
X99010000Y-50080000D02*
X99030000Y-50080000D01*
X99430000Y-50080000D02*
X99450000Y-50080000D01*
X99850000Y-50080000D02*
X99870000Y-50080000D01*
X100270000Y-50080000D02*
X100290000Y-50080000D01*
X100690000Y-50080000D02*
X100710000Y-50080000D01*
X101030000Y-50080000D02*
X101030000Y-50100000D01*
X101030000Y-50500000D02*
X101030000Y-50520000D01*
X101030000Y-50920000D02*
X101030000Y-50940000D01*
X101030000Y-51340000D02*
X101030000Y-51360000D01*
X101030000Y-51760000D02*
X101030000Y-51780000D01*
X101030000Y-52180000D02*
X101030000Y-52200000D01*
X101030000Y-52600000D02*
X101030000Y-52620000D01*
X101030000Y-53020000D02*
X101030000Y-53040000D01*
X101030000Y-53440000D02*
X101030000Y-53460000D01*
X101030000Y-53860000D02*
X101030000Y-53880000D01*
X101030000Y-54280000D02*
X101030000Y-54300000D01*
X101030000Y-54400000D02*
X101010000Y-54400000D01*
X100610000Y-54400000D02*
X100590000Y-54400000D01*
X100190000Y-54400000D02*
X100170000Y-54400000D01*
X99770000Y-54400000D02*
X99750000Y-54400000D01*
X99350000Y-54400000D02*
X99330000Y-54400000D01*
X98930000Y-54400000D02*
X98910000Y-54400000D01*
X98510000Y-54400000D02*
X98490000Y-54400000D01*
X98090000Y-54400000D02*
X98070000Y-54400000D01*
X97670000Y-54400000D02*
X97650000Y-54400000D01*
X97250000Y-54400000D02*
X97230000Y-54400000D01*
X96830000Y-54400000D02*
X96810000Y-54400000D01*
X96410000Y-54400000D02*
X96390000Y-54400000D01*
X95990000Y-54400000D02*
X95970000Y-54400000D01*
X95570000Y-54400000D02*
X95550000Y-54400000D01*
X95150000Y-54400000D02*
X95130000Y-54400000D01*
X94730000Y-54400000D02*
X94710000Y-54400000D01*
X94310000Y-54400000D02*
X94290000Y-54400000D01*
X93890000Y-54400000D02*
X93870000Y-54400000D01*
X93550000Y-54400000D02*
X93550000Y-54380000D01*
X93550000Y-53980000D02*
X93550000Y-53960000D01*
X93550000Y-53560000D02*
X93550000Y-53540000D01*
X93550000Y-53140000D02*
X93550000Y-53120000D01*
X93550000Y-52720000D02*
X93550000Y-52700000D01*
X93550000Y-52300000D02*
X93550000Y-52280000D01*
X93550000Y-51880000D02*
X93550000Y-51860000D01*
X93550000Y-51460000D02*
X93550000Y-51440000D01*
X93550000Y-51040000D02*
X93550000Y-51020000D01*
X93550000Y-50620000D02*
X93550000Y-50600000D01*
X93550000Y-50200000D02*
X93550000Y-50180000D01*
X79380000Y-63860000D02*
X79400000Y-63860000D01*
X79800000Y-63860000D02*
X79820000Y-63860000D01*
X80220000Y-63860000D02*
X80240000Y-63860000D01*
X80640000Y-63860000D02*
X80660000Y-63860000D01*
X81060000Y-63860000D02*
X81080000Y-63860000D01*
X81480000Y-63860000D02*
X81500000Y-63860000D01*
X81900000Y-63860000D02*
X81920000Y-63860000D01*
X82320000Y-63860000D02*
X82340000Y-63860000D01*
X82740000Y-63860000D02*
X82760000Y-63860000D01*
X83160000Y-63860000D02*
X83180000Y-63860000D01*
X83580000Y-63860000D02*
X83600000Y-63860000D01*
X84000000Y-63860000D02*
X84020000Y-63860000D01*
X84420000Y-63860000D02*
X84440000Y-63860000D01*
X84840000Y-63860000D02*
X84860000Y-63860000D01*
X85260000Y-63860000D02*
X85280000Y-63860000D01*
X85680000Y-63860000D02*
X85700000Y-63860000D01*
X86100000Y-63860000D02*
X86120000Y-63860000D01*
X86520000Y-63860000D02*
X86540000Y-63860000D01*
X86940000Y-63860000D02*
X86960000Y-63860000D01*
X87360000Y-63860000D02*
X87380000Y-63860000D01*
X87780000Y-63860000D02*
X87800000Y-63860000D01*
X88200000Y-63860000D02*
X88220000Y-63860000D01*
X88620000Y-63860000D02*
X88640000Y-63860000D01*
X89040000Y-63860000D02*
X89060000Y-63860000D01*
X89460000Y-63860000D02*
X89480000Y-63860000D01*
X89880000Y-63860000D02*
X89900000Y-63860000D01*
X90300000Y-63860000D02*
X90320000Y-63860000D01*
X90720000Y-63860000D02*
X90740000Y-63860000D01*
X91140000Y-63860000D02*
X91160000Y-63860000D01*
X91560000Y-63860000D02*
X91580000Y-63860000D01*
X91980000Y-63860000D02*
X92000000Y-63860000D01*
X92400000Y-63860000D02*
X92420000Y-63860000D01*
X92820000Y-63860000D02*
X92840000Y-63860000D01*
X93170000Y-63860000D02*
X93170000Y-63880000D01*
X93170000Y-64280000D02*
X93170000Y-64300000D01*
X93170000Y-64700000D02*
X93170000Y-64720000D01*
X93170000Y-65120000D02*
X93170000Y-65140000D01*
X93170000Y-65540000D02*
X93170000Y-65560000D01*
X93170000Y-65960000D02*
X93170000Y-65980000D01*
X93170000Y-66380000D02*
X93170000Y-66400000D01*
X93170000Y-66800000D02*
X93170000Y-66820000D01*
X93170000Y-67220000D02*
X93170000Y-67240000D01*
X93170000Y-67520000D02*
X93150000Y-67520000D01*
X92750000Y-67520000D02*
X92730000Y-67520000D01*
X92330000Y-67520000D02*
X92310000Y-67520000D01*
X91910000Y-67520000D02*
X91890000Y-67520000D01*
X91490000Y-67520000D02*
X91470000Y-67520000D01*
X91070000Y-67520000D02*
X91050000Y-67520000D01*
X90650000Y-67520000D02*
X90630000Y-67520000D01*
X90230000Y-67520000D02*
X90210000Y-67520000D01*
X89810000Y-67520000D02*
X89790000Y-67520000D01*
X89390000Y-67520000D02*
X89370000Y-67520000D01*
X88970000Y-67520000D02*
X88950000Y-67520000D01*
X88550000Y-67520000D02*
X88530000Y-67520000D01*
X88130000Y-67520000D02*
X88110000Y-67520000D01*
X87710000Y-67520000D02*
X87690000Y-67520000D01*
X87290000Y-67520000D02*
X87270000Y-67520000D01*
X86870000Y-67520000D02*
X86850000Y-67520000D01*
X86450000Y-67520000D02*
X86430000Y-67520000D01*
X86030000Y-67520000D02*
X86010000Y-67520000D01*
X85610000Y-67520000D02*
X85590000Y-67520000D01*
X85190000Y-67520000D02*
X85170000Y-67520000D01*
X84770000Y-67520000D02*
X84750000Y-67520000D01*
X84350000Y-67520000D02*
X84330000Y-67520000D01*
X83930000Y-67520000D02*
X83910000Y-67520000D01*
X83510000Y-67520000D02*
X83490000Y-67520000D01*
X83090000Y-67520000D02*
X83070000Y-67520000D01*
X82670000Y-67520000D02*
X82650000Y-67520000D01*
X82250000Y-67520000D02*
X82230000Y-67520000D01*
X81830000Y-67520000D02*
X81810000Y-67520000D01*
X81410000Y-67520000D02*
X81390000Y-67520000D01*
X80990000Y-67520000D02*
X80970000Y-67520000D01*
X80570000Y-67520000D02*
X80550000Y-67520000D01*
X80150000Y-67520000D02*
X80130000Y-67520000D01*
X79730000Y-67520000D02*
X79710000Y-67520000D01*
X79380000Y-67520000D02*
X79380000Y-67500000D01*
X79380000Y-67100000D02*
X79380000Y-67080000D01*
X79380000Y-66680000D02*
X79380000Y-66660000D01*
X79380000Y-66260000D02*
X79380000Y-66240000D01*
X79380000Y-65840000D02*
X79380000Y-65820000D01*
X79380000Y-65420000D02*
X79380000Y-65400000D01*
X79380000Y-65000000D02*
X79380000Y-64980000D01*
X79380000Y-64580000D02*
X79380000Y-64560000D01*
X79380000Y-64160000D02*
X79380000Y-64140000D01*
D11*
X127430000Y-111280000D02*
X127460000Y-111280000D01*
X128060000Y-111280000D02*
X128090000Y-111280000D01*
X128690000Y-111280000D02*
X128720000Y-111280000D01*
X129320000Y-111280000D02*
X129350000Y-111280000D01*
X129950000Y-111280000D02*
X129980000Y-111280000D01*
X130580000Y-111280000D02*
X130610000Y-111280000D01*
X131210000Y-111280000D02*
X131240000Y-111280000D01*
X131840000Y-111280000D02*
X131870000Y-111280000D01*
X132470000Y-111280000D02*
X132500000Y-111280000D01*
X133100000Y-111280000D02*
X133130000Y-111280000D01*
X133730000Y-111280000D02*
X133760000Y-111280000D01*
X133820000Y-111280000D02*
X133820000Y-111310000D01*
X133820000Y-111910000D02*
X133820000Y-111940000D01*
X133820000Y-112540000D02*
X133820000Y-112570000D01*
X133820000Y-113170000D02*
X133820000Y-113200000D01*
X133820000Y-113800000D02*
X133820000Y-113830000D01*
X133820000Y-114430000D02*
X133820000Y-114460000D01*
X133820000Y-115060000D02*
X133820000Y-115090000D01*
X133820000Y-115690000D02*
X133820000Y-115720000D01*
X133820000Y-116320000D02*
X133820000Y-116350000D01*
X133820000Y-116950000D02*
X133820000Y-116980000D01*
X133820000Y-117580000D02*
X133820000Y-117610000D01*
X133820000Y-117840000D02*
X133790000Y-117840000D01*
X133190000Y-117840000D02*
X133160000Y-117840000D01*
X132560000Y-117840000D02*
X132530000Y-117840000D01*
X131930000Y-117840000D02*
X131900000Y-117840000D01*
X131300000Y-117840000D02*
X131270000Y-117840000D01*
X130670000Y-117840000D02*
X130640000Y-117840000D01*
X130040000Y-117840000D02*
X130010000Y-117840000D01*
X129410000Y-117840000D02*
X129380000Y-117840000D01*
X128780000Y-117840000D02*
X128750000Y-117840000D01*
X128150000Y-117840000D02*
X128120000Y-117840000D01*
X127520000Y-117840000D02*
X127490000Y-117840000D01*
X127430000Y-117840000D02*
X127430000Y-117810000D01*
X127430000Y-117210000D02*
X127430000Y-117180000D01*
X127430000Y-116580000D02*
X127430000Y-116550000D01*
X127430000Y-115950000D02*
X127430000Y-115920000D01*
X127430000Y-115320000D02*
X127430000Y-115290000D01*
X127430000Y-114690000D02*
X127430000Y-114660000D01*
X127430000Y-114060000D02*
X127430000Y-114030000D01*
X127430000Y-113430000D02*
X127430000Y-113400000D01*
X127430000Y-112800000D02*
X127430000Y-112770000D01*
X127430000Y-112170000D02*
X127430000Y-112140000D01*
X127430000Y-111540000D02*
X127430000Y-111510000D01*
D12*
X132163274Y-116700000D02*
G75*
G02*
X131796726Y-116700000I-183274J0D01*
G01*
X131796726Y-116700000D02*
G75*
G02*
X132163274Y-116700000I183274J0D01*
G01*
D11*
X145240000Y-119810000D02*
X145859113Y-118737666D01*
X128180000Y-113500000D02*
X129530000Y-113500000D01*
X129530000Y-116070000D01*
X128180000Y-116070000D01*
X128180000Y-113500000D01*
D12*
X129053274Y-114160000D02*
G75*
G02*
X128686726Y-114160000I-183274J0D01*
G01*
X128686726Y-114160000D02*
G75*
G02*
X129053274Y-114160000I183274J0D01*
G01*
X129053274Y-116660000D02*
G75*
G02*
X128686726Y-116660000I-183274J0D01*
G01*
X128686726Y-116660000D02*
G75*
G02*
X129053274Y-116660000I183274J0D01*
G01*
X129063274Y-115450000D02*
G75*
G02*
X128696726Y-115450000I-183274J0D01*
G01*
X128696726Y-115450000D02*
G75*
G02*
X129063274Y-115450000I183274J0D01*
G01*
D11*
X145880000Y-118750000D02*
X148890000Y-118750000D01*
X131320000Y-114790000D02*
X132670000Y-114790000D01*
X132670000Y-117360000D01*
X131320000Y-117360000D01*
X131320000Y-114790000D01*
X148890000Y-118750000D02*
X149469677Y-119754029D01*
D12*
X132153274Y-115410000D02*
G75*
G02*
X131786726Y-115410000I-183274J0D01*
G01*
X131786726Y-115410000D02*
G75*
G02*
X132153274Y-115410000I183274J0D01*
G01*
X132163274Y-114200000D02*
G75*
G02*
X131796726Y-114200000I-183274J0D01*
G01*
X131796726Y-114200000D02*
G75*
G02*
X132163274Y-114200000I183274J0D01*
G01*
D11*
X69100000Y-100250000D02*
X125150000Y-100250000D01*
X125150000Y-130250000D01*
X69100000Y-130250000D01*
X69100000Y-100250000D01*
X89269160Y-115632200D02*
X89412017Y-115679819D01*
X89412017Y-115679819D02*
X89650112Y-115679819D01*
X89650112Y-115679819D02*
X89745350Y-115632200D01*
X89745350Y-115632200D02*
X89792969Y-115584580D01*
X89792969Y-115584580D02*
X89840588Y-115489342D01*
X89840588Y-115489342D02*
X89840588Y-115394104D01*
X89840588Y-115394104D02*
X89792969Y-115298866D01*
X89792969Y-115298866D02*
X89745350Y-115251247D01*
X89745350Y-115251247D02*
X89650112Y-115203628D01*
X89650112Y-115203628D02*
X89459636Y-115156009D01*
X89459636Y-115156009D02*
X89364398Y-115108390D01*
X89364398Y-115108390D02*
X89316779Y-115060771D01*
X89316779Y-115060771D02*
X89269160Y-114965533D01*
X89269160Y-114965533D02*
X89269160Y-114870295D01*
X89269160Y-114870295D02*
X89316779Y-114775057D01*
X89316779Y-114775057D02*
X89364398Y-114727438D01*
X89364398Y-114727438D02*
X89459636Y-114679819D01*
X89459636Y-114679819D02*
X89697731Y-114679819D01*
X89697731Y-114679819D02*
X89840588Y-114727438D01*
X90269160Y-115679819D02*
X90269160Y-114679819D01*
X90269160Y-114679819D02*
X90507255Y-114679819D01*
X90507255Y-114679819D02*
X90650112Y-114727438D01*
X90650112Y-114727438D02*
X90745350Y-114822676D01*
X90745350Y-114822676D02*
X90792969Y-114917914D01*
X90792969Y-114917914D02*
X90840588Y-115108390D01*
X90840588Y-115108390D02*
X90840588Y-115251247D01*
X90840588Y-115251247D02*
X90792969Y-115441723D01*
X90792969Y-115441723D02*
X90745350Y-115536961D01*
X90745350Y-115536961D02*
X90650112Y-115632200D01*
X90650112Y-115632200D02*
X90507255Y-115679819D01*
X90507255Y-115679819D02*
X90269160Y-115679819D01*
X91221541Y-115394104D02*
X91697731Y-115394104D01*
X91126303Y-115679819D02*
X91459636Y-114679819D01*
X91459636Y-114679819D02*
X91792969Y-115679819D01*
D13*
X106942238Y-127597619D02*
X105989857Y-128264286D01*
X106942238Y-128740476D02*
X104942238Y-128740476D01*
X104942238Y-128740476D02*
X104942238Y-127978571D01*
X104942238Y-127978571D02*
X105037476Y-127788095D01*
X105037476Y-127788095D02*
X105132714Y-127692857D01*
X105132714Y-127692857D02*
X105323190Y-127597619D01*
X105323190Y-127597619D02*
X105608904Y-127597619D01*
X105608904Y-127597619D02*
X105799380Y-127692857D01*
X105799380Y-127692857D02*
X105894619Y-127788095D01*
X105894619Y-127788095D02*
X105989857Y-127978571D01*
X105989857Y-127978571D02*
X105989857Y-128740476D01*
X106370809Y-126835714D02*
X106370809Y-125883333D01*
X106942238Y-127026190D02*
X104942238Y-126359524D01*
X104942238Y-126359524D02*
X106942238Y-125692857D01*
X106942238Y-125026190D02*
X104942238Y-125026190D01*
X106942238Y-123883333D02*
X105799380Y-124740476D01*
X104942238Y-123883333D02*
X106085095Y-125026190D01*
X104942238Y-122073809D02*
X104942238Y-123026190D01*
X104942238Y-123026190D02*
X105894619Y-123121428D01*
X105894619Y-123121428D02*
X105799380Y-123026190D01*
X105799380Y-123026190D02*
X105704142Y-122835714D01*
X105704142Y-122835714D02*
X105704142Y-122359523D01*
X105704142Y-122359523D02*
X105799380Y-122169047D01*
X105799380Y-122169047D02*
X105894619Y-122073809D01*
X105894619Y-122073809D02*
X106085095Y-121978571D01*
X106085095Y-121978571D02*
X106561285Y-121978571D01*
X106561285Y-121978571D02*
X106751761Y-122073809D01*
X106751761Y-122073809D02*
X106847000Y-122169047D01*
X106847000Y-122169047D02*
X106942238Y-122359523D01*
X106942238Y-122359523D02*
X106942238Y-122835714D01*
X106942238Y-122835714D02*
X106847000Y-123026190D01*
X106847000Y-123026190D02*
X106751761Y-123121428D01*
X106942238Y-120073809D02*
X106942238Y-121216666D01*
X106942238Y-120645238D02*
X104942238Y-120645238D01*
X104942238Y-120645238D02*
X105227952Y-120835714D01*
X105227952Y-120835714D02*
X105418428Y-121026190D01*
X105418428Y-121026190D02*
X105513666Y-121216666D01*
X105608904Y-118359523D02*
X106942238Y-118359523D01*
X104847000Y-118835714D02*
X106275571Y-119311904D01*
X106275571Y-119311904D02*
X106275571Y-118073809D01*
X104942238Y-116454761D02*
X104942238Y-116835714D01*
X104942238Y-116835714D02*
X105037476Y-117026190D01*
X105037476Y-117026190D02*
X105132714Y-117121428D01*
X105132714Y-117121428D02*
X105418428Y-117311904D01*
X105418428Y-117311904D02*
X105799380Y-117407142D01*
X105799380Y-117407142D02*
X106561285Y-117407142D01*
X106561285Y-117407142D02*
X106751761Y-117311904D01*
X106751761Y-117311904D02*
X106847000Y-117216666D01*
X106847000Y-117216666D02*
X106942238Y-117026190D01*
X106942238Y-117026190D02*
X106942238Y-116645237D01*
X106942238Y-116645237D02*
X106847000Y-116454761D01*
X106847000Y-116454761D02*
X106751761Y-116359523D01*
X106751761Y-116359523D02*
X106561285Y-116264285D01*
X106561285Y-116264285D02*
X106085095Y-116264285D01*
X106085095Y-116264285D02*
X105894619Y-116359523D01*
X105894619Y-116359523D02*
X105799380Y-116454761D01*
X105799380Y-116454761D02*
X105704142Y-116645237D01*
X105704142Y-116645237D02*
X105704142Y-117026190D01*
X105704142Y-117026190D02*
X105799380Y-117216666D01*
X105799380Y-117216666D02*
X105894619Y-117311904D01*
X105894619Y-117311904D02*
X106085095Y-117407142D01*
D11*
X96076779Y-86018866D02*
X96838684Y-86018866D01*
X96457731Y-86399819D02*
X96457731Y-85637914D01*
X97791064Y-85399819D02*
X97314874Y-85399819D01*
X97314874Y-85399819D02*
X97267255Y-85876009D01*
X97267255Y-85876009D02*
X97314874Y-85828390D01*
X97314874Y-85828390D02*
X97410112Y-85780771D01*
X97410112Y-85780771D02*
X97648207Y-85780771D01*
X97648207Y-85780771D02*
X97743445Y-85828390D01*
X97743445Y-85828390D02*
X97791064Y-85876009D01*
X97791064Y-85876009D02*
X97838683Y-85971247D01*
X97838683Y-85971247D02*
X97838683Y-86209342D01*
X97838683Y-86209342D02*
X97791064Y-86304580D01*
X97791064Y-86304580D02*
X97743445Y-86352200D01*
X97743445Y-86352200D02*
X97648207Y-86399819D01*
X97648207Y-86399819D02*
X97410112Y-86399819D01*
X97410112Y-86399819D02*
X97314874Y-86352200D01*
X97314874Y-86352200D02*
X97267255Y-86304580D01*
X98124398Y-85399819D02*
X98457731Y-86399819D01*
X98457731Y-86399819D02*
X98791064Y-85399819D01*
D13*
X114132238Y-85125714D02*
X112132238Y-85125714D01*
X112132238Y-85125714D02*
X114132238Y-83982857D01*
X114132238Y-83982857D02*
X112132238Y-83982857D01*
X112132238Y-83030476D02*
X113751285Y-83030476D01*
X113751285Y-83030476D02*
X113941761Y-82935238D01*
X113941761Y-82935238D02*
X114037000Y-82840000D01*
X114037000Y-82840000D02*
X114132238Y-82649524D01*
X114132238Y-82649524D02*
X114132238Y-82268571D01*
X114132238Y-82268571D02*
X114037000Y-82078095D01*
X114037000Y-82078095D02*
X113941761Y-81982857D01*
X113941761Y-81982857D02*
X113751285Y-81887619D01*
X113751285Y-81887619D02*
X112132238Y-81887619D01*
X113941761Y-79792381D02*
X114037000Y-79887619D01*
X114037000Y-79887619D02*
X114132238Y-80173333D01*
X114132238Y-80173333D02*
X114132238Y-80363809D01*
X114132238Y-80363809D02*
X114037000Y-80649524D01*
X114037000Y-80649524D02*
X113846523Y-80840000D01*
X113846523Y-80840000D02*
X113656047Y-80935238D01*
X113656047Y-80935238D02*
X113275095Y-81030476D01*
X113275095Y-81030476D02*
X112989380Y-81030476D01*
X112989380Y-81030476D02*
X112608428Y-80935238D01*
X112608428Y-80935238D02*
X112417952Y-80840000D01*
X112417952Y-80840000D02*
X112227476Y-80649524D01*
X112227476Y-80649524D02*
X112132238Y-80363809D01*
X112132238Y-80363809D02*
X112132238Y-80173333D01*
X112132238Y-80173333D02*
X112227476Y-79887619D01*
X112227476Y-79887619D02*
X112322714Y-79792381D01*
X114132238Y-77982857D02*
X114132238Y-78935238D01*
X114132238Y-78935238D02*
X112132238Y-78935238D01*
X113084619Y-77316190D02*
X113084619Y-76649523D01*
X114132238Y-76363809D02*
X114132238Y-77316190D01*
X114132238Y-77316190D02*
X112132238Y-77316190D01*
X112132238Y-77316190D02*
X112132238Y-76363809D01*
X112132238Y-75125714D02*
X112132238Y-74744761D01*
X112132238Y-74744761D02*
X112227476Y-74554285D01*
X112227476Y-74554285D02*
X112417952Y-74363809D01*
X112417952Y-74363809D02*
X112798904Y-74268571D01*
X112798904Y-74268571D02*
X113465571Y-74268571D01*
X113465571Y-74268571D02*
X113846523Y-74363809D01*
X113846523Y-74363809D02*
X114037000Y-74554285D01*
X114037000Y-74554285D02*
X114132238Y-74744761D01*
X114132238Y-74744761D02*
X114132238Y-75125714D01*
X114132238Y-75125714D02*
X114037000Y-75316190D01*
X114037000Y-75316190D02*
X113846523Y-75506666D01*
X113846523Y-75506666D02*
X113465571Y-75601904D01*
X113465571Y-75601904D02*
X112798904Y-75601904D01*
X112798904Y-75601904D02*
X112417952Y-75506666D01*
X112417952Y-75506666D02*
X112227476Y-75316190D01*
X112227476Y-75316190D02*
X112132238Y-75125714D01*
X113370333Y-73411428D02*
X113370333Y-71887619D01*
X114132238Y-69982857D02*
X114132238Y-70935238D01*
X114132238Y-70935238D02*
X112132238Y-70935238D01*
X112798904Y-68459047D02*
X114132238Y-68459047D01*
X112037000Y-68935238D02*
X113465571Y-69411428D01*
X113465571Y-69411428D02*
X113465571Y-68173333D01*
X112132238Y-67601904D02*
X112132238Y-66363809D01*
X112132238Y-66363809D02*
X112894142Y-67030476D01*
X112894142Y-67030476D02*
X112894142Y-66744761D01*
X112894142Y-66744761D02*
X112989380Y-66554285D01*
X112989380Y-66554285D02*
X113084619Y-66459047D01*
X113084619Y-66459047D02*
X113275095Y-66363809D01*
X113275095Y-66363809D02*
X113751285Y-66363809D01*
X113751285Y-66363809D02*
X113941761Y-66459047D01*
X113941761Y-66459047D02*
X114037000Y-66554285D01*
X114037000Y-66554285D02*
X114132238Y-66744761D01*
X114132238Y-66744761D02*
X114132238Y-67316190D01*
X114132238Y-67316190D02*
X114037000Y-67506666D01*
X114037000Y-67506666D02*
X113941761Y-67601904D01*
X112322714Y-65601904D02*
X112227476Y-65506666D01*
X112227476Y-65506666D02*
X112132238Y-65316190D01*
X112132238Y-65316190D02*
X112132238Y-64839999D01*
X112132238Y-64839999D02*
X112227476Y-64649523D01*
X112227476Y-64649523D02*
X112322714Y-64554285D01*
X112322714Y-64554285D02*
X112513190Y-64459047D01*
X112513190Y-64459047D02*
X112703666Y-64459047D01*
X112703666Y-64459047D02*
X112989380Y-64554285D01*
X112989380Y-64554285D02*
X114132238Y-65697142D01*
X114132238Y-65697142D02*
X114132238Y-64459047D01*
X114132238Y-63601904D02*
X112132238Y-63601904D01*
X114132238Y-62459047D02*
X112989380Y-63316190D01*
X112132238Y-62459047D02*
X113275095Y-63601904D01*
X113941761Y-60459047D02*
X114037000Y-60554285D01*
X114037000Y-60554285D02*
X114132238Y-60839999D01*
X114132238Y-60839999D02*
X114132238Y-61030475D01*
X114132238Y-61030475D02*
X114037000Y-61316190D01*
X114037000Y-61316190D02*
X113846523Y-61506666D01*
X113846523Y-61506666D02*
X113656047Y-61601904D01*
X113656047Y-61601904D02*
X113275095Y-61697142D01*
X113275095Y-61697142D02*
X112989380Y-61697142D01*
X112989380Y-61697142D02*
X112608428Y-61601904D01*
X112608428Y-61601904D02*
X112417952Y-61506666D01*
X112417952Y-61506666D02*
X112227476Y-61316190D01*
X112227476Y-61316190D02*
X112132238Y-61030475D01*
X112132238Y-61030475D02*
X112132238Y-60839999D01*
X112132238Y-60839999D02*
X112227476Y-60554285D01*
X112227476Y-60554285D02*
X112322714Y-60459047D01*
D11*
X89351541Y-116819819D02*
X89970588Y-116819819D01*
X89970588Y-116819819D02*
X89637255Y-117200771D01*
X89637255Y-117200771D02*
X89780112Y-117200771D01*
X89780112Y-117200771D02*
X89875350Y-117248390D01*
X89875350Y-117248390D02*
X89922969Y-117296009D01*
X89922969Y-117296009D02*
X89970588Y-117391247D01*
X89970588Y-117391247D02*
X89970588Y-117629342D01*
X89970588Y-117629342D02*
X89922969Y-117724580D01*
X89922969Y-117724580D02*
X89875350Y-117772200D01*
X89875350Y-117772200D02*
X89780112Y-117819819D01*
X89780112Y-117819819D02*
X89494398Y-117819819D01*
X89494398Y-117819819D02*
X89399160Y-117772200D01*
X89399160Y-117772200D02*
X89351541Y-117724580D01*
X90256303Y-116819819D02*
X90589636Y-117819819D01*
X90589636Y-117819819D02*
X90922969Y-116819819D01*
X91161065Y-116819819D02*
X91780112Y-116819819D01*
X91780112Y-116819819D02*
X91446779Y-117200771D01*
X91446779Y-117200771D02*
X91589636Y-117200771D01*
X91589636Y-117200771D02*
X91684874Y-117248390D01*
X91684874Y-117248390D02*
X91732493Y-117296009D01*
X91732493Y-117296009D02*
X91780112Y-117391247D01*
X91780112Y-117391247D02*
X91780112Y-117629342D01*
X91780112Y-117629342D02*
X91732493Y-117724580D01*
X91732493Y-117724580D02*
X91684874Y-117772200D01*
X91684874Y-117772200D02*
X91589636Y-117819819D01*
X91589636Y-117819819D02*
X91303922Y-117819819D01*
X91303922Y-117819819D02*
X91208684Y-117772200D01*
X91208684Y-117772200D02*
X91161065Y-117724580D01*
X101041541Y-116889819D02*
X101660588Y-116889819D01*
X101660588Y-116889819D02*
X101327255Y-117270771D01*
X101327255Y-117270771D02*
X101470112Y-117270771D01*
X101470112Y-117270771D02*
X101565350Y-117318390D01*
X101565350Y-117318390D02*
X101612969Y-117366009D01*
X101612969Y-117366009D02*
X101660588Y-117461247D01*
X101660588Y-117461247D02*
X101660588Y-117699342D01*
X101660588Y-117699342D02*
X101612969Y-117794580D01*
X101612969Y-117794580D02*
X101565350Y-117842200D01*
X101565350Y-117842200D02*
X101470112Y-117889819D01*
X101470112Y-117889819D02*
X101184398Y-117889819D01*
X101184398Y-117889819D02*
X101089160Y-117842200D01*
X101089160Y-117842200D02*
X101041541Y-117794580D01*
X101946303Y-116889819D02*
X102279636Y-117889819D01*
X102279636Y-117889819D02*
X102612969Y-116889819D01*
X102851065Y-116889819D02*
X103470112Y-116889819D01*
X103470112Y-116889819D02*
X103136779Y-117270771D01*
X103136779Y-117270771D02*
X103279636Y-117270771D01*
X103279636Y-117270771D02*
X103374874Y-117318390D01*
X103374874Y-117318390D02*
X103422493Y-117366009D01*
X103422493Y-117366009D02*
X103470112Y-117461247D01*
X103470112Y-117461247D02*
X103470112Y-117699342D01*
X103470112Y-117699342D02*
X103422493Y-117794580D01*
X103422493Y-117794580D02*
X103374874Y-117842200D01*
X103374874Y-117842200D02*
X103279636Y-117889819D01*
X103279636Y-117889819D02*
X102993922Y-117889819D01*
X102993922Y-117889819D02*
X102898684Y-117842200D01*
X102898684Y-117842200D02*
X102851065Y-117794580D01*
X66839160Y-71064104D02*
X67315350Y-71064104D01*
X66743922Y-71349819D02*
X67077255Y-70349819D01*
X67077255Y-70349819D02*
X67410588Y-71349819D01*
X67743922Y-71349819D02*
X67743922Y-70349819D01*
X67743922Y-70349819D02*
X68315350Y-71349819D01*
X68315350Y-71349819D02*
X68315350Y-70349819D01*
X89489160Y-113642200D02*
X89632017Y-113689819D01*
X89632017Y-113689819D02*
X89870112Y-113689819D01*
X89870112Y-113689819D02*
X89965350Y-113642200D01*
X89965350Y-113642200D02*
X90012969Y-113594580D01*
X90012969Y-113594580D02*
X90060588Y-113499342D01*
X90060588Y-113499342D02*
X90060588Y-113404104D01*
X90060588Y-113404104D02*
X90012969Y-113308866D01*
X90012969Y-113308866D02*
X89965350Y-113261247D01*
X89965350Y-113261247D02*
X89870112Y-113213628D01*
X89870112Y-113213628D02*
X89679636Y-113166009D01*
X89679636Y-113166009D02*
X89584398Y-113118390D01*
X89584398Y-113118390D02*
X89536779Y-113070771D01*
X89536779Y-113070771D02*
X89489160Y-112975533D01*
X89489160Y-112975533D02*
X89489160Y-112880295D01*
X89489160Y-112880295D02*
X89536779Y-112785057D01*
X89536779Y-112785057D02*
X89584398Y-112737438D01*
X89584398Y-112737438D02*
X89679636Y-112689819D01*
X89679636Y-112689819D02*
X89917731Y-112689819D01*
X89917731Y-112689819D02*
X90060588Y-112737438D01*
X91060588Y-113594580D02*
X91012969Y-113642200D01*
X91012969Y-113642200D02*
X90870112Y-113689819D01*
X90870112Y-113689819D02*
X90774874Y-113689819D01*
X90774874Y-113689819D02*
X90632017Y-113642200D01*
X90632017Y-113642200D02*
X90536779Y-113546961D01*
X90536779Y-113546961D02*
X90489160Y-113451723D01*
X90489160Y-113451723D02*
X90441541Y-113261247D01*
X90441541Y-113261247D02*
X90441541Y-113118390D01*
X90441541Y-113118390D02*
X90489160Y-112927914D01*
X90489160Y-112927914D02*
X90536779Y-112832676D01*
X90536779Y-112832676D02*
X90632017Y-112737438D01*
X90632017Y-112737438D02*
X90774874Y-112689819D01*
X90774874Y-112689819D02*
X90870112Y-112689819D01*
X90870112Y-112689819D02*
X91012969Y-112737438D01*
X91012969Y-112737438D02*
X91060588Y-112785057D01*
X91965350Y-113689819D02*
X91489160Y-113689819D01*
X91489160Y-113689819D02*
X91489160Y-112689819D01*
X134456340Y-65823809D02*
X134456340Y-66204761D01*
X134456340Y-66204761D02*
X134837292Y-66290476D01*
X134837292Y-66290476D02*
X134799197Y-66247618D01*
X134799197Y-66247618D02*
X134761102Y-66166666D01*
X134761102Y-66166666D02*
X134761102Y-65976190D01*
X134761102Y-65976190D02*
X134799197Y-65904761D01*
X134799197Y-65904761D02*
X134837292Y-65871428D01*
X134837292Y-65871428D02*
X134913483Y-65842856D01*
X134913483Y-65842856D02*
X135103959Y-65866666D01*
X135103959Y-65866666D02*
X135180149Y-65914285D01*
X135180149Y-65914285D02*
X135218245Y-65957142D01*
X135218245Y-65957142D02*
X135256340Y-66038095D01*
X135256340Y-66038095D02*
X135256340Y-66228571D01*
X135256340Y-66228571D02*
X135218245Y-66299999D01*
X135218245Y-66299999D02*
X135180149Y-66333333D01*
X134723006Y-65552380D02*
X135256340Y-65428571D01*
X135256340Y-65428571D02*
X134723006Y-65171428D01*
X136010961Y-67228572D02*
X136544295Y-67295238D01*
X136087152Y-67238095D02*
X136049057Y-67195238D01*
X136049057Y-67195238D02*
X136010961Y-67114286D01*
X136010961Y-67114286D02*
X136010961Y-67000000D01*
X136010961Y-67000000D02*
X136049057Y-66928572D01*
X136049057Y-66928572D02*
X136125247Y-66900000D01*
X136125247Y-66900000D02*
X136544295Y-66952381D01*
X136010961Y-66161904D02*
X136544295Y-66228571D01*
X136010961Y-66504762D02*
X136430009Y-66557143D01*
X136430009Y-66557143D02*
X136506200Y-66528571D01*
X136506200Y-66528571D02*
X136544295Y-66457143D01*
X136544295Y-66457143D02*
X136544295Y-66342857D01*
X136544295Y-66342857D02*
X136506200Y-66261904D01*
X136506200Y-66261904D02*
X136468104Y-66219047D01*
X136506200Y-65499999D02*
X136544295Y-65580952D01*
X136544295Y-65580952D02*
X136544295Y-65733333D01*
X136544295Y-65733333D02*
X136506200Y-65804761D01*
X136506200Y-65804761D02*
X136468104Y-65838094D01*
X136468104Y-65838094D02*
X136391914Y-65866666D01*
X136391914Y-65866666D02*
X136163342Y-65838094D01*
X136163342Y-65838094D02*
X136087152Y-65790475D01*
X136087152Y-65790475D02*
X136049057Y-65747618D01*
X136049057Y-65747618D02*
X136010961Y-65666666D01*
X136010961Y-65666666D02*
X136010961Y-65514285D01*
X136010961Y-65514285D02*
X136049057Y-65442856D01*
X136544295Y-65047619D02*
X136506200Y-65119047D01*
X136506200Y-65119047D02*
X136430009Y-65147619D01*
X136430009Y-65147619D02*
X135744295Y-65061904D01*
X136506200Y-64433332D02*
X136544295Y-64514285D01*
X136544295Y-64514285D02*
X136544295Y-64666666D01*
X136544295Y-64666666D02*
X136506200Y-64738094D01*
X136506200Y-64738094D02*
X136430009Y-64766666D01*
X136430009Y-64766666D02*
X136125247Y-64728571D01*
X136125247Y-64728571D02*
X136049057Y-64680951D01*
X136049057Y-64680951D02*
X136010961Y-64599999D01*
X136010961Y-64599999D02*
X136010961Y-64447618D01*
X136010961Y-64447618D02*
X136049057Y-64376190D01*
X136049057Y-64376190D02*
X136125247Y-64347618D01*
X136125247Y-64347618D02*
X136201438Y-64357142D01*
X136201438Y-64357142D02*
X136277628Y-64747618D01*
X136544295Y-63942857D02*
X136506200Y-64014285D01*
X136506200Y-64014285D02*
X136468104Y-64047618D01*
X136468104Y-64047618D02*
X136391914Y-64076190D01*
X136391914Y-64076190D02*
X136163342Y-64047618D01*
X136163342Y-64047618D02*
X136087152Y-63999999D01*
X136087152Y-63999999D02*
X136049057Y-63957142D01*
X136049057Y-63957142D02*
X136010961Y-63876190D01*
X136010961Y-63876190D02*
X136010961Y-63761904D01*
X136010961Y-63761904D02*
X136049057Y-63690476D01*
X136049057Y-63690476D02*
X136087152Y-63657142D01*
X136087152Y-63657142D02*
X136163342Y-63628571D01*
X136163342Y-63628571D02*
X136391914Y-63657142D01*
X136391914Y-63657142D02*
X136468104Y-63704761D01*
X136468104Y-63704761D02*
X136506200Y-63747618D01*
X136506200Y-63747618D02*
X136544295Y-63828571D01*
X136544295Y-63828571D02*
X136544295Y-63942857D01*
X65606779Y-81439819D02*
X65606779Y-80439819D01*
X65606779Y-80439819D02*
X65940112Y-81154104D01*
X65940112Y-81154104D02*
X66273445Y-80439819D01*
X66273445Y-80439819D02*
X66273445Y-81439819D01*
X66749636Y-81439819D02*
X66749636Y-80439819D01*
X67178207Y-81392200D02*
X67321064Y-81439819D01*
X67321064Y-81439819D02*
X67559159Y-81439819D01*
X67559159Y-81439819D02*
X67654397Y-81392200D01*
X67654397Y-81392200D02*
X67702016Y-81344580D01*
X67702016Y-81344580D02*
X67749635Y-81249342D01*
X67749635Y-81249342D02*
X67749635Y-81154104D01*
X67749635Y-81154104D02*
X67702016Y-81058866D01*
X67702016Y-81058866D02*
X67654397Y-81011247D01*
X67654397Y-81011247D02*
X67559159Y-80963628D01*
X67559159Y-80963628D02*
X67368683Y-80916009D01*
X67368683Y-80916009D02*
X67273445Y-80868390D01*
X67273445Y-80868390D02*
X67225826Y-80820771D01*
X67225826Y-80820771D02*
X67178207Y-80725533D01*
X67178207Y-80725533D02*
X67178207Y-80630295D01*
X67178207Y-80630295D02*
X67225826Y-80535057D01*
X67225826Y-80535057D02*
X67273445Y-80487438D01*
X67273445Y-80487438D02*
X67368683Y-80439819D01*
X67368683Y-80439819D02*
X67606778Y-80439819D01*
X67606778Y-80439819D02*
X67749635Y-80487438D01*
X68368683Y-80439819D02*
X68559159Y-80439819D01*
X68559159Y-80439819D02*
X68654397Y-80487438D01*
X68654397Y-80487438D02*
X68749635Y-80582676D01*
X68749635Y-80582676D02*
X68797254Y-80773152D01*
X68797254Y-80773152D02*
X68797254Y-81106485D01*
X68797254Y-81106485D02*
X68749635Y-81296961D01*
X68749635Y-81296961D02*
X68654397Y-81392200D01*
X68654397Y-81392200D02*
X68559159Y-81439819D01*
X68559159Y-81439819D02*
X68368683Y-81439819D01*
X68368683Y-81439819D02*
X68273445Y-81392200D01*
X68273445Y-81392200D02*
X68178207Y-81296961D01*
X68178207Y-81296961D02*
X68130588Y-81106485D01*
X68130588Y-81106485D02*
X68130588Y-80773152D01*
X68130588Y-80773152D02*
X68178207Y-80582676D01*
X68178207Y-80582676D02*
X68273445Y-80487438D01*
X68273445Y-80487438D02*
X68368683Y-80439819D01*
D14*
X138172292Y-119352742D02*
X138172292Y-118152742D01*
X138743721Y-119352742D02*
X138743721Y-118152742D01*
X138743721Y-118152742D02*
X139429435Y-119352742D01*
X139429435Y-119352742D02*
X139429435Y-118152742D01*
X139829435Y-118152742D02*
X140515150Y-118152742D01*
X140172292Y-119352742D02*
X140172292Y-118152742D01*
D11*
X147909819Y-57023220D02*
X146909819Y-57023220D01*
X146909819Y-57023220D02*
X147624104Y-56689887D01*
X147624104Y-56689887D02*
X146909819Y-56356554D01*
X146909819Y-56356554D02*
X147909819Y-56356554D01*
X147909819Y-55451792D02*
X147386009Y-55451792D01*
X147386009Y-55451792D02*
X147290771Y-55499411D01*
X147290771Y-55499411D02*
X147243152Y-55594649D01*
X147243152Y-55594649D02*
X147243152Y-55785125D01*
X147243152Y-55785125D02*
X147290771Y-55880363D01*
X147862200Y-55451792D02*
X147909819Y-55547030D01*
X147909819Y-55547030D02*
X147909819Y-55785125D01*
X147909819Y-55785125D02*
X147862200Y-55880363D01*
X147862200Y-55880363D02*
X147766961Y-55927982D01*
X147766961Y-55927982D02*
X147671723Y-55927982D01*
X147671723Y-55927982D02*
X147576485Y-55880363D01*
X147576485Y-55880363D02*
X147528866Y-55785125D01*
X147528866Y-55785125D02*
X147528866Y-55547030D01*
X147528866Y-55547030D02*
X147481247Y-55451792D01*
X147909819Y-54975601D02*
X147243152Y-54975601D01*
X146909819Y-54975601D02*
X146957438Y-55023220D01*
X146957438Y-55023220D02*
X147005057Y-54975601D01*
X147005057Y-54975601D02*
X146957438Y-54927982D01*
X146957438Y-54927982D02*
X146909819Y-54975601D01*
X146909819Y-54975601D02*
X147005057Y-54975601D01*
X147243152Y-54499411D02*
X147909819Y-54499411D01*
X147338390Y-54499411D02*
X147290771Y-54451792D01*
X147290771Y-54451792D02*
X147243152Y-54356554D01*
X147243152Y-54356554D02*
X147243152Y-54213697D01*
X147243152Y-54213697D02*
X147290771Y-54118459D01*
X147290771Y-54118459D02*
X147386009Y-54070840D01*
X147386009Y-54070840D02*
X147909819Y-54070840D01*
X147909819Y-52261316D02*
X147433628Y-52594649D01*
X147909819Y-52832744D02*
X146909819Y-52832744D01*
X146909819Y-52832744D02*
X146909819Y-52451792D01*
X146909819Y-52451792D02*
X146957438Y-52356554D01*
X146957438Y-52356554D02*
X147005057Y-52308935D01*
X147005057Y-52308935D02*
X147100295Y-52261316D01*
X147100295Y-52261316D02*
X147243152Y-52261316D01*
X147243152Y-52261316D02*
X147338390Y-52308935D01*
X147338390Y-52308935D02*
X147386009Y-52356554D01*
X147386009Y-52356554D02*
X147433628Y-52451792D01*
X147433628Y-52451792D02*
X147433628Y-52832744D01*
X147862200Y-51451792D02*
X147909819Y-51547030D01*
X147909819Y-51547030D02*
X147909819Y-51737506D01*
X147909819Y-51737506D02*
X147862200Y-51832744D01*
X147862200Y-51832744D02*
X147766961Y-51880363D01*
X147766961Y-51880363D02*
X147386009Y-51880363D01*
X147386009Y-51880363D02*
X147290771Y-51832744D01*
X147290771Y-51832744D02*
X147243152Y-51737506D01*
X147243152Y-51737506D02*
X147243152Y-51547030D01*
X147243152Y-51547030D02*
X147290771Y-51451792D01*
X147290771Y-51451792D02*
X147386009Y-51404173D01*
X147386009Y-51404173D02*
X147481247Y-51404173D01*
X147481247Y-51404173D02*
X147576485Y-51880363D01*
X147862200Y-51023220D02*
X147909819Y-50927982D01*
X147909819Y-50927982D02*
X147909819Y-50737506D01*
X147909819Y-50737506D02*
X147862200Y-50642268D01*
X147862200Y-50642268D02*
X147766961Y-50594649D01*
X147766961Y-50594649D02*
X147719342Y-50594649D01*
X147719342Y-50594649D02*
X147624104Y-50642268D01*
X147624104Y-50642268D02*
X147576485Y-50737506D01*
X147576485Y-50737506D02*
X147576485Y-50880363D01*
X147576485Y-50880363D02*
X147528866Y-50975601D01*
X147528866Y-50975601D02*
X147433628Y-51023220D01*
X147433628Y-51023220D02*
X147386009Y-51023220D01*
X147386009Y-51023220D02*
X147290771Y-50975601D01*
X147290771Y-50975601D02*
X147243152Y-50880363D01*
X147243152Y-50880363D02*
X147243152Y-50737506D01*
X147243152Y-50737506D02*
X147290771Y-50642268D01*
X147862200Y-49785125D02*
X147909819Y-49880363D01*
X147909819Y-49880363D02*
X147909819Y-50070839D01*
X147909819Y-50070839D02*
X147862200Y-50166077D01*
X147862200Y-50166077D02*
X147766961Y-50213696D01*
X147766961Y-50213696D02*
X147386009Y-50213696D01*
X147386009Y-50213696D02*
X147290771Y-50166077D01*
X147290771Y-50166077D02*
X147243152Y-50070839D01*
X147243152Y-50070839D02*
X147243152Y-49880363D01*
X147243152Y-49880363D02*
X147290771Y-49785125D01*
X147290771Y-49785125D02*
X147386009Y-49737506D01*
X147386009Y-49737506D02*
X147481247Y-49737506D01*
X147481247Y-49737506D02*
X147576485Y-50213696D01*
X147243152Y-49451791D02*
X147243152Y-49070839D01*
X146909819Y-49308934D02*
X147766961Y-49308934D01*
X147766961Y-49308934D02*
X147862200Y-49261315D01*
X147862200Y-49261315D02*
X147909819Y-49166077D01*
X147909819Y-49166077D02*
X147909819Y-49070839D01*
X101964285Y-96816340D02*
X102459523Y-96816340D01*
X102459523Y-96816340D02*
X102154762Y-97121102D01*
X102154762Y-97121102D02*
X102269047Y-97121102D01*
X102269047Y-97121102D02*
X102340476Y-97159197D01*
X102340476Y-97159197D02*
X102373809Y-97197292D01*
X102373809Y-97197292D02*
X102402381Y-97273483D01*
X102402381Y-97273483D02*
X102378571Y-97463959D01*
X102378571Y-97463959D02*
X102330952Y-97540149D01*
X102330952Y-97540149D02*
X102288095Y-97578245D01*
X102288095Y-97578245D02*
X102207142Y-97616340D01*
X102207142Y-97616340D02*
X101978571Y-97616340D01*
X101978571Y-97616340D02*
X101907142Y-97578245D01*
X101907142Y-97578245D02*
X101873809Y-97540149D01*
X102711905Y-97540149D02*
X102745238Y-97578245D01*
X102745238Y-97578245D02*
X102702381Y-97616340D01*
X102702381Y-97616340D02*
X102669047Y-97578245D01*
X102669047Y-97578245D02*
X102711905Y-97540149D01*
X102711905Y-97540149D02*
X102702381Y-97616340D01*
X103107142Y-96816340D02*
X103602380Y-96816340D01*
X103602380Y-96816340D02*
X103297619Y-97121102D01*
X103297619Y-97121102D02*
X103411904Y-97121102D01*
X103411904Y-97121102D02*
X103483333Y-97159197D01*
X103483333Y-97159197D02*
X103516666Y-97197292D01*
X103516666Y-97197292D02*
X103545238Y-97273483D01*
X103545238Y-97273483D02*
X103521428Y-97463959D01*
X103521428Y-97463959D02*
X103473809Y-97540149D01*
X103473809Y-97540149D02*
X103430952Y-97578245D01*
X103430952Y-97578245D02*
X103349999Y-97616340D01*
X103349999Y-97616340D02*
X103121428Y-97616340D01*
X103121428Y-97616340D02*
X103049999Y-97578245D01*
X103049999Y-97578245D02*
X103016666Y-97540149D01*
X103830952Y-96816340D02*
X103997619Y-97616340D01*
X103997619Y-97616340D02*
X104364285Y-96816340D01*
X101769047Y-98904295D02*
X101388095Y-98904295D01*
X101388095Y-98904295D02*
X101488095Y-98104295D01*
X102073809Y-98904295D02*
X102226190Y-98904295D01*
X102226190Y-98904295D02*
X102307142Y-98866200D01*
X102307142Y-98866200D02*
X102350000Y-98828104D01*
X102350000Y-98828104D02*
X102440476Y-98713819D01*
X102440476Y-98713819D02*
X102497619Y-98561438D01*
X102497619Y-98561438D02*
X102535714Y-98256676D01*
X102535714Y-98256676D02*
X102507142Y-98180485D01*
X102507142Y-98180485D02*
X102473809Y-98142390D01*
X102473809Y-98142390D02*
X102402380Y-98104295D01*
X102402380Y-98104295D02*
X102250000Y-98104295D01*
X102250000Y-98104295D02*
X102169047Y-98142390D01*
X102169047Y-98142390D02*
X102126190Y-98180485D01*
X102126190Y-98180485D02*
X102078571Y-98256676D01*
X102078571Y-98256676D02*
X102054761Y-98447152D01*
X102054761Y-98447152D02*
X102083333Y-98523342D01*
X102083333Y-98523342D02*
X102116666Y-98561438D01*
X102116666Y-98561438D02*
X102188095Y-98599533D01*
X102188095Y-98599533D02*
X102340476Y-98599533D01*
X102340476Y-98599533D02*
X102421428Y-98561438D01*
X102421428Y-98561438D02*
X102464285Y-98523342D01*
X102464285Y-98523342D02*
X102511904Y-98447152D01*
X103240476Y-98104295D02*
X103088095Y-98104295D01*
X103088095Y-98104295D02*
X103007143Y-98142390D01*
X103007143Y-98142390D02*
X102964285Y-98180485D01*
X102964285Y-98180485D02*
X102873809Y-98294771D01*
X102873809Y-98294771D02*
X102816666Y-98447152D01*
X102816666Y-98447152D02*
X102778571Y-98751914D01*
X102778571Y-98751914D02*
X102807143Y-98828104D01*
X102807143Y-98828104D02*
X102840476Y-98866200D01*
X102840476Y-98866200D02*
X102911905Y-98904295D01*
X102911905Y-98904295D02*
X103064285Y-98904295D01*
X103064285Y-98904295D02*
X103145238Y-98866200D01*
X103145238Y-98866200D02*
X103188095Y-98828104D01*
X103188095Y-98828104D02*
X103235714Y-98751914D01*
X103235714Y-98751914D02*
X103259524Y-98561438D01*
X103259524Y-98561438D02*
X103230952Y-98485247D01*
X103230952Y-98485247D02*
X103197619Y-98447152D01*
X103197619Y-98447152D02*
X103126190Y-98409057D01*
X103126190Y-98409057D02*
X102973809Y-98409057D01*
X102973809Y-98409057D02*
X102892857Y-98447152D01*
X102892857Y-98447152D02*
X102850000Y-98485247D01*
X102850000Y-98485247D02*
X102802381Y-98561438D01*
X103978571Y-98904295D02*
X103521429Y-98904295D01*
X103750000Y-98904295D02*
X103850000Y-98104295D01*
X103850000Y-98104295D02*
X103759524Y-98218580D01*
X103759524Y-98218580D02*
X103673810Y-98294771D01*
X103673810Y-98294771D02*
X103592857Y-98332866D01*
X104764286Y-98104295D02*
X104611905Y-98104295D01*
X104611905Y-98104295D02*
X104530953Y-98142390D01*
X104530953Y-98142390D02*
X104488095Y-98180485D01*
X104488095Y-98180485D02*
X104397619Y-98294771D01*
X104397619Y-98294771D02*
X104340476Y-98447152D01*
X104340476Y-98447152D02*
X104302381Y-98751914D01*
X104302381Y-98751914D02*
X104330953Y-98828104D01*
X104330953Y-98828104D02*
X104364286Y-98866200D01*
X104364286Y-98866200D02*
X104435715Y-98904295D01*
X104435715Y-98904295D02*
X104588095Y-98904295D01*
X104588095Y-98904295D02*
X104669048Y-98866200D01*
X104669048Y-98866200D02*
X104711905Y-98828104D01*
X104711905Y-98828104D02*
X104759524Y-98751914D01*
X104759524Y-98751914D02*
X104783334Y-98561438D01*
X104783334Y-98561438D02*
X104754762Y-98485247D01*
X104754762Y-98485247D02*
X104721429Y-98447152D01*
X104721429Y-98447152D02*
X104650000Y-98409057D01*
X104650000Y-98409057D02*
X104497619Y-98409057D01*
X104497619Y-98409057D02*
X104416667Y-98447152D01*
X104416667Y-98447152D02*
X104373810Y-98485247D01*
X104373810Y-98485247D02*
X104326191Y-98561438D01*
X67508207Y-76074580D02*
X67460588Y-76122200D01*
X67460588Y-76122200D02*
X67317731Y-76169819D01*
X67317731Y-76169819D02*
X67222493Y-76169819D01*
X67222493Y-76169819D02*
X67079636Y-76122200D01*
X67079636Y-76122200D02*
X66984398Y-76026961D01*
X66984398Y-76026961D02*
X66936779Y-75931723D01*
X66936779Y-75931723D02*
X66889160Y-75741247D01*
X66889160Y-75741247D02*
X66889160Y-75598390D01*
X66889160Y-75598390D02*
X66936779Y-75407914D01*
X66936779Y-75407914D02*
X66984398Y-75312676D01*
X66984398Y-75312676D02*
X67079636Y-75217438D01*
X67079636Y-75217438D02*
X67222493Y-75169819D01*
X67222493Y-75169819D02*
X67317731Y-75169819D01*
X67317731Y-75169819D02*
X67460588Y-75217438D01*
X67460588Y-75217438D02*
X67508207Y-75265057D01*
X67889160Y-76122200D02*
X68032017Y-76169819D01*
X68032017Y-76169819D02*
X68270112Y-76169819D01*
X68270112Y-76169819D02*
X68365350Y-76122200D01*
X68365350Y-76122200D02*
X68412969Y-76074580D01*
X68412969Y-76074580D02*
X68460588Y-75979342D01*
X68460588Y-75979342D02*
X68460588Y-75884104D01*
X68460588Y-75884104D02*
X68412969Y-75788866D01*
X68412969Y-75788866D02*
X68365350Y-75741247D01*
X68365350Y-75741247D02*
X68270112Y-75693628D01*
X68270112Y-75693628D02*
X68079636Y-75646009D01*
X68079636Y-75646009D02*
X67984398Y-75598390D01*
X67984398Y-75598390D02*
X67936779Y-75550771D01*
X67936779Y-75550771D02*
X67889160Y-75455533D01*
X67889160Y-75455533D02*
X67889160Y-75360295D01*
X67889160Y-75360295D02*
X67936779Y-75265057D01*
X67936779Y-75265057D02*
X67984398Y-75217438D01*
X67984398Y-75217438D02*
X68079636Y-75169819D01*
X68079636Y-75169819D02*
X68317731Y-75169819D01*
X68317731Y-75169819D02*
X68460588Y-75217438D01*
X95966779Y-71359819D02*
X95966779Y-70359819D01*
X95966779Y-70359819D02*
X96347731Y-70359819D01*
X96347731Y-70359819D02*
X96442969Y-70407438D01*
X96442969Y-70407438D02*
X96490588Y-70455057D01*
X96490588Y-70455057D02*
X96538207Y-70550295D01*
X96538207Y-70550295D02*
X96538207Y-70693152D01*
X96538207Y-70693152D02*
X96490588Y-70788390D01*
X96490588Y-70788390D02*
X96442969Y-70836009D01*
X96442969Y-70836009D02*
X96347731Y-70883628D01*
X96347731Y-70883628D02*
X95966779Y-70883628D01*
X96871541Y-70359819D02*
X97109636Y-71359819D01*
X97109636Y-71359819D02*
X97300112Y-70645533D01*
X97300112Y-70645533D02*
X97490588Y-71359819D01*
X97490588Y-71359819D02*
X97728684Y-70359819D01*
X98109636Y-71359819D02*
X98109636Y-70359819D01*
X98109636Y-70359819D02*
X98442969Y-71074104D01*
X98442969Y-71074104D02*
X98776302Y-70359819D01*
X98776302Y-70359819D02*
X98776302Y-71359819D01*
X96029160Y-83722200D02*
X96172017Y-83769819D01*
X96172017Y-83769819D02*
X96410112Y-83769819D01*
X96410112Y-83769819D02*
X96505350Y-83722200D01*
X96505350Y-83722200D02*
X96552969Y-83674580D01*
X96552969Y-83674580D02*
X96600588Y-83579342D01*
X96600588Y-83579342D02*
X96600588Y-83484104D01*
X96600588Y-83484104D02*
X96552969Y-83388866D01*
X96552969Y-83388866D02*
X96505350Y-83341247D01*
X96505350Y-83341247D02*
X96410112Y-83293628D01*
X96410112Y-83293628D02*
X96219636Y-83246009D01*
X96219636Y-83246009D02*
X96124398Y-83198390D01*
X96124398Y-83198390D02*
X96076779Y-83150771D01*
X96076779Y-83150771D02*
X96029160Y-83055533D01*
X96029160Y-83055533D02*
X96029160Y-82960295D01*
X96029160Y-82960295D02*
X96076779Y-82865057D01*
X96076779Y-82865057D02*
X96124398Y-82817438D01*
X96124398Y-82817438D02*
X96219636Y-82769819D01*
X96219636Y-82769819D02*
X96457731Y-82769819D01*
X96457731Y-82769819D02*
X96600588Y-82817438D01*
X97029160Y-83769819D02*
X97029160Y-82769819D01*
X97029160Y-82769819D02*
X97267255Y-82769819D01*
X97267255Y-82769819D02*
X97410112Y-82817438D01*
X97410112Y-82817438D02*
X97505350Y-82912676D01*
X97505350Y-82912676D02*
X97552969Y-83007914D01*
X97552969Y-83007914D02*
X97600588Y-83198390D01*
X97600588Y-83198390D02*
X97600588Y-83341247D01*
X97600588Y-83341247D02*
X97552969Y-83531723D01*
X97552969Y-83531723D02*
X97505350Y-83626961D01*
X97505350Y-83626961D02*
X97410112Y-83722200D01*
X97410112Y-83722200D02*
X97267255Y-83769819D01*
X97267255Y-83769819D02*
X97029160Y-83769819D01*
X97981541Y-83484104D02*
X98457731Y-83484104D01*
X97886303Y-83769819D02*
X98219636Y-82769819D01*
X98219636Y-82769819D02*
X98552969Y-83769819D01*
X96718207Y-76279819D02*
X96384874Y-75803628D01*
X96146779Y-76279819D02*
X96146779Y-75279819D01*
X96146779Y-75279819D02*
X96527731Y-75279819D01*
X96527731Y-75279819D02*
X96622969Y-75327438D01*
X96622969Y-75327438D02*
X96670588Y-75375057D01*
X96670588Y-75375057D02*
X96718207Y-75470295D01*
X96718207Y-75470295D02*
X96718207Y-75613152D01*
X96718207Y-75613152D02*
X96670588Y-75708390D01*
X96670588Y-75708390D02*
X96622969Y-75756009D01*
X96622969Y-75756009D02*
X96527731Y-75803628D01*
X96527731Y-75803628D02*
X96146779Y-75803628D01*
X97051541Y-75279819D02*
X97718207Y-76279819D01*
X97718207Y-75279819D02*
X97051541Y-76279819D01*
X101530588Y-118987438D02*
X101435350Y-118939819D01*
X101435350Y-118939819D02*
X101292493Y-118939819D01*
X101292493Y-118939819D02*
X101149636Y-118987438D01*
X101149636Y-118987438D02*
X101054398Y-119082676D01*
X101054398Y-119082676D02*
X101006779Y-119177914D01*
X101006779Y-119177914D02*
X100959160Y-119368390D01*
X100959160Y-119368390D02*
X100959160Y-119511247D01*
X100959160Y-119511247D02*
X101006779Y-119701723D01*
X101006779Y-119701723D02*
X101054398Y-119796961D01*
X101054398Y-119796961D02*
X101149636Y-119892200D01*
X101149636Y-119892200D02*
X101292493Y-119939819D01*
X101292493Y-119939819D02*
X101387731Y-119939819D01*
X101387731Y-119939819D02*
X101530588Y-119892200D01*
X101530588Y-119892200D02*
X101578207Y-119844580D01*
X101578207Y-119844580D02*
X101578207Y-119511247D01*
X101578207Y-119511247D02*
X101387731Y-119511247D01*
X102006779Y-119939819D02*
X102006779Y-118939819D01*
X102006779Y-118939819D02*
X102578207Y-119939819D01*
X102578207Y-119939819D02*
X102578207Y-118939819D01*
X103054398Y-119939819D02*
X103054398Y-118939819D01*
X103054398Y-118939819D02*
X103292493Y-118939819D01*
X103292493Y-118939819D02*
X103435350Y-118987438D01*
X103435350Y-118987438D02*
X103530588Y-119082676D01*
X103530588Y-119082676D02*
X103578207Y-119177914D01*
X103578207Y-119177914D02*
X103625826Y-119368390D01*
X103625826Y-119368390D02*
X103625826Y-119511247D01*
X103625826Y-119511247D02*
X103578207Y-119701723D01*
X103578207Y-119701723D02*
X103530588Y-119796961D01*
X103530588Y-119796961D02*
X103435350Y-119892200D01*
X103435350Y-119892200D02*
X103292493Y-119939819D01*
X103292493Y-119939819D02*
X103054398Y-119939819D01*
X90589160Y-59244104D02*
X91065350Y-59244104D01*
X90493922Y-59529819D02*
X90827255Y-58529819D01*
X90827255Y-58529819D02*
X91160588Y-59529819D01*
X91684398Y-58529819D02*
X91779636Y-58529819D01*
X91779636Y-58529819D02*
X91874874Y-58577438D01*
X91874874Y-58577438D02*
X91922493Y-58625057D01*
X91922493Y-58625057D02*
X91970112Y-58720295D01*
X91970112Y-58720295D02*
X92017731Y-58910771D01*
X92017731Y-58910771D02*
X92017731Y-59148866D01*
X92017731Y-59148866D02*
X91970112Y-59339342D01*
X91970112Y-59339342D02*
X91922493Y-59434580D01*
X91922493Y-59434580D02*
X91874874Y-59482200D01*
X91874874Y-59482200D02*
X91779636Y-59529819D01*
X91779636Y-59529819D02*
X91684398Y-59529819D01*
X91684398Y-59529819D02*
X91589160Y-59482200D01*
X91589160Y-59482200D02*
X91541541Y-59434580D01*
X91541541Y-59434580D02*
X91493922Y-59339342D01*
X91493922Y-59339342D02*
X91446303Y-59148866D01*
X91446303Y-59148866D02*
X91446303Y-58910771D01*
X91446303Y-58910771D02*
X91493922Y-58720295D01*
X91493922Y-58720295D02*
X91541541Y-58625057D01*
X91541541Y-58625057D02*
X91589160Y-58577438D01*
X91589160Y-58577438D02*
X91684398Y-58529819D01*
X96680588Y-88037438D02*
X96585350Y-87989819D01*
X96585350Y-87989819D02*
X96442493Y-87989819D01*
X96442493Y-87989819D02*
X96299636Y-88037438D01*
X96299636Y-88037438D02*
X96204398Y-88132676D01*
X96204398Y-88132676D02*
X96156779Y-88227914D01*
X96156779Y-88227914D02*
X96109160Y-88418390D01*
X96109160Y-88418390D02*
X96109160Y-88561247D01*
X96109160Y-88561247D02*
X96156779Y-88751723D01*
X96156779Y-88751723D02*
X96204398Y-88846961D01*
X96204398Y-88846961D02*
X96299636Y-88942200D01*
X96299636Y-88942200D02*
X96442493Y-88989819D01*
X96442493Y-88989819D02*
X96537731Y-88989819D01*
X96537731Y-88989819D02*
X96680588Y-88942200D01*
X96680588Y-88942200D02*
X96728207Y-88894580D01*
X96728207Y-88894580D02*
X96728207Y-88561247D01*
X96728207Y-88561247D02*
X96537731Y-88561247D01*
X97156779Y-88989819D02*
X97156779Y-87989819D01*
X97156779Y-87989819D02*
X97728207Y-88989819D01*
X97728207Y-88989819D02*
X97728207Y-87989819D01*
X98204398Y-88989819D02*
X98204398Y-87989819D01*
X98204398Y-87989819D02*
X98442493Y-87989819D01*
X98442493Y-87989819D02*
X98585350Y-88037438D01*
X98585350Y-88037438D02*
X98680588Y-88132676D01*
X98680588Y-88132676D02*
X98728207Y-88227914D01*
X98728207Y-88227914D02*
X98775826Y-88418390D01*
X98775826Y-88418390D02*
X98775826Y-88561247D01*
X98775826Y-88561247D02*
X98728207Y-88751723D01*
X98728207Y-88751723D02*
X98680588Y-88846961D01*
X98680588Y-88846961D02*
X98585350Y-88942200D01*
X98585350Y-88942200D02*
X98442493Y-88989819D01*
X98442493Y-88989819D02*
X98204398Y-88989819D01*
X66670588Y-88217438D02*
X66575350Y-88169819D01*
X66575350Y-88169819D02*
X66432493Y-88169819D01*
X66432493Y-88169819D02*
X66289636Y-88217438D01*
X66289636Y-88217438D02*
X66194398Y-88312676D01*
X66194398Y-88312676D02*
X66146779Y-88407914D01*
X66146779Y-88407914D02*
X66099160Y-88598390D01*
X66099160Y-88598390D02*
X66099160Y-88741247D01*
X66099160Y-88741247D02*
X66146779Y-88931723D01*
X66146779Y-88931723D02*
X66194398Y-89026961D01*
X66194398Y-89026961D02*
X66289636Y-89122200D01*
X66289636Y-89122200D02*
X66432493Y-89169819D01*
X66432493Y-89169819D02*
X66527731Y-89169819D01*
X66527731Y-89169819D02*
X66670588Y-89122200D01*
X66670588Y-89122200D02*
X66718207Y-89074580D01*
X66718207Y-89074580D02*
X66718207Y-88741247D01*
X66718207Y-88741247D02*
X66527731Y-88741247D01*
X67146779Y-89169819D02*
X67146779Y-88169819D01*
X67146779Y-88169819D02*
X67718207Y-89169819D01*
X67718207Y-89169819D02*
X67718207Y-88169819D01*
X68194398Y-89169819D02*
X68194398Y-88169819D01*
X68194398Y-88169819D02*
X68432493Y-88169819D01*
X68432493Y-88169819D02*
X68575350Y-88217438D01*
X68575350Y-88217438D02*
X68670588Y-88312676D01*
X68670588Y-88312676D02*
X68718207Y-88407914D01*
X68718207Y-88407914D02*
X68765826Y-88598390D01*
X68765826Y-88598390D02*
X68765826Y-88741247D01*
X68765826Y-88741247D02*
X68718207Y-88931723D01*
X68718207Y-88931723D02*
X68670588Y-89026961D01*
X68670588Y-89026961D02*
X68575350Y-89122200D01*
X68575350Y-89122200D02*
X68432493Y-89169819D01*
X68432493Y-89169819D02*
X68194398Y-89169819D01*
X85599160Y-59274104D02*
X86075350Y-59274104D01*
X85503922Y-59559819D02*
X85837255Y-58559819D01*
X85837255Y-58559819D02*
X86170588Y-59559819D01*
X87027731Y-59559819D02*
X86456303Y-59559819D01*
X86742017Y-59559819D02*
X86742017Y-58559819D01*
X86742017Y-58559819D02*
X86646779Y-58702676D01*
X86646779Y-58702676D02*
X86551541Y-58797914D01*
X86551541Y-58797914D02*
X86456303Y-58845533D01*
X80649160Y-59224104D02*
X81125350Y-59224104D01*
X80553922Y-59509819D02*
X80887255Y-58509819D01*
X80887255Y-58509819D02*
X81220588Y-59509819D01*
X81506303Y-58605057D02*
X81553922Y-58557438D01*
X81553922Y-58557438D02*
X81649160Y-58509819D01*
X81649160Y-58509819D02*
X81887255Y-58509819D01*
X81887255Y-58509819D02*
X81982493Y-58557438D01*
X81982493Y-58557438D02*
X82030112Y-58605057D01*
X82030112Y-58605057D02*
X82077731Y-58700295D01*
X82077731Y-58700295D02*
X82077731Y-58795533D01*
X82077731Y-58795533D02*
X82030112Y-58938390D01*
X82030112Y-58938390D02*
X81458684Y-59509819D01*
X81458684Y-59509819D02*
X82077731Y-59509819D01*
X78189160Y-115442200D02*
X78332017Y-115489819D01*
X78332017Y-115489819D02*
X78570112Y-115489819D01*
X78570112Y-115489819D02*
X78665350Y-115442200D01*
X78665350Y-115442200D02*
X78712969Y-115394580D01*
X78712969Y-115394580D02*
X78760588Y-115299342D01*
X78760588Y-115299342D02*
X78760588Y-115204104D01*
X78760588Y-115204104D02*
X78712969Y-115108866D01*
X78712969Y-115108866D02*
X78665350Y-115061247D01*
X78665350Y-115061247D02*
X78570112Y-115013628D01*
X78570112Y-115013628D02*
X78379636Y-114966009D01*
X78379636Y-114966009D02*
X78284398Y-114918390D01*
X78284398Y-114918390D02*
X78236779Y-114870771D01*
X78236779Y-114870771D02*
X78189160Y-114775533D01*
X78189160Y-114775533D02*
X78189160Y-114680295D01*
X78189160Y-114680295D02*
X78236779Y-114585057D01*
X78236779Y-114585057D02*
X78284398Y-114537438D01*
X78284398Y-114537438D02*
X78379636Y-114489819D01*
X78379636Y-114489819D02*
X78617731Y-114489819D01*
X78617731Y-114489819D02*
X78760588Y-114537438D01*
X79189160Y-115489819D02*
X79189160Y-114489819D01*
X79189160Y-114489819D02*
X79427255Y-114489819D01*
X79427255Y-114489819D02*
X79570112Y-114537438D01*
X79570112Y-114537438D02*
X79665350Y-114632676D01*
X79665350Y-114632676D02*
X79712969Y-114727914D01*
X79712969Y-114727914D02*
X79760588Y-114918390D01*
X79760588Y-114918390D02*
X79760588Y-115061247D01*
X79760588Y-115061247D02*
X79712969Y-115251723D01*
X79712969Y-115251723D02*
X79665350Y-115346961D01*
X79665350Y-115346961D02*
X79570112Y-115442200D01*
X79570112Y-115442200D02*
X79427255Y-115489819D01*
X79427255Y-115489819D02*
X79189160Y-115489819D01*
X80141541Y-115204104D02*
X80617731Y-115204104D01*
X80046303Y-115489819D02*
X80379636Y-114489819D01*
X80379636Y-114489819D02*
X80712969Y-115489819D01*
X78271541Y-116629819D02*
X78890588Y-116629819D01*
X78890588Y-116629819D02*
X78557255Y-117010771D01*
X78557255Y-117010771D02*
X78700112Y-117010771D01*
X78700112Y-117010771D02*
X78795350Y-117058390D01*
X78795350Y-117058390D02*
X78842969Y-117106009D01*
X78842969Y-117106009D02*
X78890588Y-117201247D01*
X78890588Y-117201247D02*
X78890588Y-117439342D01*
X78890588Y-117439342D02*
X78842969Y-117534580D01*
X78842969Y-117534580D02*
X78795350Y-117582200D01*
X78795350Y-117582200D02*
X78700112Y-117629819D01*
X78700112Y-117629819D02*
X78414398Y-117629819D01*
X78414398Y-117629819D02*
X78319160Y-117582200D01*
X78319160Y-117582200D02*
X78271541Y-117534580D01*
X79176303Y-116629819D02*
X79509636Y-117629819D01*
X79509636Y-117629819D02*
X79842969Y-116629819D01*
X80081065Y-116629819D02*
X80700112Y-116629819D01*
X80700112Y-116629819D02*
X80366779Y-117010771D01*
X80366779Y-117010771D02*
X80509636Y-117010771D01*
X80509636Y-117010771D02*
X80604874Y-117058390D01*
X80604874Y-117058390D02*
X80652493Y-117106009D01*
X80652493Y-117106009D02*
X80700112Y-117201247D01*
X80700112Y-117201247D02*
X80700112Y-117439342D01*
X80700112Y-117439342D02*
X80652493Y-117534580D01*
X80652493Y-117534580D02*
X80604874Y-117582200D01*
X80604874Y-117582200D02*
X80509636Y-117629819D01*
X80509636Y-117629819D02*
X80223922Y-117629819D01*
X80223922Y-117629819D02*
X80128684Y-117582200D01*
X80128684Y-117582200D02*
X80081065Y-117534580D01*
X133176340Y-90905714D02*
X133176340Y-90410476D01*
X133176340Y-90410476D02*
X133481102Y-90715238D01*
X133481102Y-90715238D02*
X133481102Y-90600952D01*
X133481102Y-90600952D02*
X133519197Y-90529523D01*
X133519197Y-90529523D02*
X133557292Y-90496190D01*
X133557292Y-90496190D02*
X133633483Y-90467618D01*
X133633483Y-90467618D02*
X133823959Y-90491428D01*
X133823959Y-90491428D02*
X133900149Y-90539047D01*
X133900149Y-90539047D02*
X133938245Y-90581904D01*
X133938245Y-90581904D02*
X133976340Y-90662857D01*
X133976340Y-90662857D02*
X133976340Y-90891428D01*
X133976340Y-90891428D02*
X133938245Y-90962857D01*
X133938245Y-90962857D02*
X133900149Y-90996190D01*
X133900149Y-90158094D02*
X133938245Y-90124761D01*
X133938245Y-90124761D02*
X133976340Y-90167618D01*
X133976340Y-90167618D02*
X133938245Y-90200952D01*
X133938245Y-90200952D02*
X133900149Y-90158094D01*
X133900149Y-90158094D02*
X133976340Y-90167618D01*
X133176340Y-89762857D02*
X133176340Y-89267619D01*
X133176340Y-89267619D02*
X133481102Y-89572381D01*
X133481102Y-89572381D02*
X133481102Y-89458095D01*
X133481102Y-89458095D02*
X133519197Y-89386666D01*
X133519197Y-89386666D02*
X133557292Y-89353333D01*
X133557292Y-89353333D02*
X133633483Y-89324761D01*
X133633483Y-89324761D02*
X133823959Y-89348571D01*
X133823959Y-89348571D02*
X133900149Y-89396190D01*
X133900149Y-89396190D02*
X133938245Y-89439047D01*
X133938245Y-89439047D02*
X133976340Y-89520000D01*
X133976340Y-89520000D02*
X133976340Y-89748571D01*
X133976340Y-89748571D02*
X133938245Y-89820000D01*
X133938245Y-89820000D02*
X133900149Y-89853333D01*
X133176340Y-89039047D02*
X133976340Y-88872380D01*
X133976340Y-88872380D02*
X133176340Y-88505714D01*
X134730961Y-91548572D02*
X135264295Y-91615238D01*
X134807152Y-91558095D02*
X134769057Y-91515238D01*
X134769057Y-91515238D02*
X134730961Y-91434286D01*
X134730961Y-91434286D02*
X134730961Y-91320000D01*
X134730961Y-91320000D02*
X134769057Y-91248572D01*
X134769057Y-91248572D02*
X134845247Y-91220000D01*
X134845247Y-91220000D02*
X135264295Y-91272381D01*
X134730961Y-90481904D02*
X135264295Y-90548571D01*
X134730961Y-90824762D02*
X135150009Y-90877143D01*
X135150009Y-90877143D02*
X135226200Y-90848571D01*
X135226200Y-90848571D02*
X135264295Y-90777143D01*
X135264295Y-90777143D02*
X135264295Y-90662857D01*
X135264295Y-90662857D02*
X135226200Y-90581904D01*
X135226200Y-90581904D02*
X135188104Y-90539047D01*
X135226200Y-89819999D02*
X135264295Y-89900952D01*
X135264295Y-89900952D02*
X135264295Y-90053333D01*
X135264295Y-90053333D02*
X135226200Y-90124761D01*
X135226200Y-90124761D02*
X135188104Y-90158094D01*
X135188104Y-90158094D02*
X135111914Y-90186666D01*
X135111914Y-90186666D02*
X134883342Y-90158094D01*
X134883342Y-90158094D02*
X134807152Y-90110475D01*
X134807152Y-90110475D02*
X134769057Y-90067618D01*
X134769057Y-90067618D02*
X134730961Y-89986666D01*
X134730961Y-89986666D02*
X134730961Y-89834285D01*
X134730961Y-89834285D02*
X134769057Y-89762856D01*
X135264295Y-89367619D02*
X135226200Y-89439047D01*
X135226200Y-89439047D02*
X135150009Y-89467619D01*
X135150009Y-89467619D02*
X134464295Y-89381904D01*
X135226200Y-88753332D02*
X135264295Y-88834285D01*
X135264295Y-88834285D02*
X135264295Y-88986666D01*
X135264295Y-88986666D02*
X135226200Y-89058094D01*
X135226200Y-89058094D02*
X135150009Y-89086666D01*
X135150009Y-89086666D02*
X134845247Y-89048571D01*
X134845247Y-89048571D02*
X134769057Y-89000951D01*
X134769057Y-89000951D02*
X134730961Y-88919999D01*
X134730961Y-88919999D02*
X134730961Y-88767618D01*
X134730961Y-88767618D02*
X134769057Y-88696190D01*
X134769057Y-88696190D02*
X134845247Y-88667618D01*
X134845247Y-88667618D02*
X134921438Y-88677142D01*
X134921438Y-88677142D02*
X134997628Y-89067618D01*
X135264295Y-88262857D02*
X135226200Y-88334285D01*
X135226200Y-88334285D02*
X135188104Y-88367618D01*
X135188104Y-88367618D02*
X135111914Y-88396190D01*
X135111914Y-88396190D02*
X134883342Y-88367618D01*
X134883342Y-88367618D02*
X134807152Y-88319999D01*
X134807152Y-88319999D02*
X134769057Y-88277142D01*
X134769057Y-88277142D02*
X134730961Y-88196190D01*
X134730961Y-88196190D02*
X134730961Y-88081904D01*
X134730961Y-88081904D02*
X134769057Y-88010476D01*
X134769057Y-88010476D02*
X134807152Y-87977142D01*
X134807152Y-87977142D02*
X134883342Y-87948571D01*
X134883342Y-87948571D02*
X135111914Y-87977142D01*
X135111914Y-87977142D02*
X135188104Y-88024761D01*
X135188104Y-88024761D02*
X135226200Y-88067618D01*
X135226200Y-88067618D02*
X135264295Y-88148571D01*
X135264295Y-88148571D02*
X135264295Y-88262857D01*
X100959160Y-115702200D02*
X101102017Y-115749819D01*
X101102017Y-115749819D02*
X101340112Y-115749819D01*
X101340112Y-115749819D02*
X101435350Y-115702200D01*
X101435350Y-115702200D02*
X101482969Y-115654580D01*
X101482969Y-115654580D02*
X101530588Y-115559342D01*
X101530588Y-115559342D02*
X101530588Y-115464104D01*
X101530588Y-115464104D02*
X101482969Y-115368866D01*
X101482969Y-115368866D02*
X101435350Y-115321247D01*
X101435350Y-115321247D02*
X101340112Y-115273628D01*
X101340112Y-115273628D02*
X101149636Y-115226009D01*
X101149636Y-115226009D02*
X101054398Y-115178390D01*
X101054398Y-115178390D02*
X101006779Y-115130771D01*
X101006779Y-115130771D02*
X100959160Y-115035533D01*
X100959160Y-115035533D02*
X100959160Y-114940295D01*
X100959160Y-114940295D02*
X101006779Y-114845057D01*
X101006779Y-114845057D02*
X101054398Y-114797438D01*
X101054398Y-114797438D02*
X101149636Y-114749819D01*
X101149636Y-114749819D02*
X101387731Y-114749819D01*
X101387731Y-114749819D02*
X101530588Y-114797438D01*
X101959160Y-115749819D02*
X101959160Y-114749819D01*
X101959160Y-114749819D02*
X102197255Y-114749819D01*
X102197255Y-114749819D02*
X102340112Y-114797438D01*
X102340112Y-114797438D02*
X102435350Y-114892676D01*
X102435350Y-114892676D02*
X102482969Y-114987914D01*
X102482969Y-114987914D02*
X102530588Y-115178390D01*
X102530588Y-115178390D02*
X102530588Y-115321247D01*
X102530588Y-115321247D02*
X102482969Y-115511723D01*
X102482969Y-115511723D02*
X102435350Y-115606961D01*
X102435350Y-115606961D02*
X102340112Y-115702200D01*
X102340112Y-115702200D02*
X102197255Y-115749819D01*
X102197255Y-115749819D02*
X101959160Y-115749819D01*
X102911541Y-115464104D02*
X103387731Y-115464104D01*
X102816303Y-115749819D02*
X103149636Y-114749819D01*
X103149636Y-114749819D02*
X103482969Y-115749819D01*
X67058207Y-73659819D02*
X66724874Y-73183628D01*
X66486779Y-73659819D02*
X66486779Y-72659819D01*
X66486779Y-72659819D02*
X66867731Y-72659819D01*
X66867731Y-72659819D02*
X66962969Y-72707438D01*
X66962969Y-72707438D02*
X67010588Y-72755057D01*
X67010588Y-72755057D02*
X67058207Y-72850295D01*
X67058207Y-72850295D02*
X67058207Y-72993152D01*
X67058207Y-72993152D02*
X67010588Y-73088390D01*
X67010588Y-73088390D02*
X66962969Y-73136009D01*
X66962969Y-73136009D02*
X66867731Y-73183628D01*
X66867731Y-73183628D02*
X66486779Y-73183628D01*
X67439160Y-73612200D02*
X67582017Y-73659819D01*
X67582017Y-73659819D02*
X67820112Y-73659819D01*
X67820112Y-73659819D02*
X67915350Y-73612200D01*
X67915350Y-73612200D02*
X67962969Y-73564580D01*
X67962969Y-73564580D02*
X68010588Y-73469342D01*
X68010588Y-73469342D02*
X68010588Y-73374104D01*
X68010588Y-73374104D02*
X67962969Y-73278866D01*
X67962969Y-73278866D02*
X67915350Y-73231247D01*
X67915350Y-73231247D02*
X67820112Y-73183628D01*
X67820112Y-73183628D02*
X67629636Y-73136009D01*
X67629636Y-73136009D02*
X67534398Y-73088390D01*
X67534398Y-73088390D02*
X67486779Y-73040771D01*
X67486779Y-73040771D02*
X67439160Y-72945533D01*
X67439160Y-72945533D02*
X67439160Y-72850295D01*
X67439160Y-72850295D02*
X67486779Y-72755057D01*
X67486779Y-72755057D02*
X67534398Y-72707438D01*
X67534398Y-72707438D02*
X67629636Y-72659819D01*
X67629636Y-72659819D02*
X67867731Y-72659819D01*
X67867731Y-72659819D02*
X68010588Y-72707438D01*
X68296303Y-72659819D02*
X68867731Y-72659819D01*
X68582017Y-73659819D02*
X68582017Y-72659819D01*
D14*
X131092292Y-119382742D02*
X131092292Y-118182742D01*
X131092292Y-118182742D02*
X131549435Y-118182742D01*
X131549435Y-118182742D02*
X131663720Y-118239885D01*
X131663720Y-118239885D02*
X131720863Y-118297028D01*
X131720863Y-118297028D02*
X131778006Y-118411314D01*
X131778006Y-118411314D02*
X131778006Y-118582742D01*
X131778006Y-118582742D02*
X131720863Y-118697028D01*
X131720863Y-118697028D02*
X131663720Y-118754171D01*
X131663720Y-118754171D02*
X131549435Y-118811314D01*
X131549435Y-118811314D02*
X131092292Y-118811314D01*
X132178006Y-118182742D02*
X132463720Y-119382742D01*
X132463720Y-119382742D02*
X132692292Y-118525600D01*
X132692292Y-118525600D02*
X132920863Y-119382742D01*
X132920863Y-119382742D02*
X133206578Y-118182742D01*
X133663721Y-119382742D02*
X133663721Y-118182742D01*
X133663721Y-118182742D02*
X134063721Y-119039885D01*
X134063721Y-119039885D02*
X134463721Y-118182742D01*
X134463721Y-118182742D02*
X134463721Y-119382742D01*
D11*
X128146779Y-112939819D02*
X128146779Y-111939819D01*
X128146779Y-111939819D02*
X128480112Y-112654104D01*
X128480112Y-112654104D02*
X128813445Y-111939819D01*
X128813445Y-111939819D02*
X128813445Y-112939819D01*
X129289636Y-112939819D02*
X129289636Y-111939819D01*
X129861064Y-112939819D02*
X129432493Y-112368390D01*
X129861064Y-111939819D02*
X129289636Y-112511247D01*
X78760588Y-118727438D02*
X78665350Y-118679819D01*
X78665350Y-118679819D02*
X78522493Y-118679819D01*
X78522493Y-118679819D02*
X78379636Y-118727438D01*
X78379636Y-118727438D02*
X78284398Y-118822676D01*
X78284398Y-118822676D02*
X78236779Y-118917914D01*
X78236779Y-118917914D02*
X78189160Y-119108390D01*
X78189160Y-119108390D02*
X78189160Y-119251247D01*
X78189160Y-119251247D02*
X78236779Y-119441723D01*
X78236779Y-119441723D02*
X78284398Y-119536961D01*
X78284398Y-119536961D02*
X78379636Y-119632200D01*
X78379636Y-119632200D02*
X78522493Y-119679819D01*
X78522493Y-119679819D02*
X78617731Y-119679819D01*
X78617731Y-119679819D02*
X78760588Y-119632200D01*
X78760588Y-119632200D02*
X78808207Y-119584580D01*
X78808207Y-119584580D02*
X78808207Y-119251247D01*
X78808207Y-119251247D02*
X78617731Y-119251247D01*
X79236779Y-119679819D02*
X79236779Y-118679819D01*
X79236779Y-118679819D02*
X79808207Y-119679819D01*
X79808207Y-119679819D02*
X79808207Y-118679819D01*
X80284398Y-119679819D02*
X80284398Y-118679819D01*
X80284398Y-118679819D02*
X80522493Y-118679819D01*
X80522493Y-118679819D02*
X80665350Y-118727438D01*
X80665350Y-118727438D02*
X80760588Y-118822676D01*
X80760588Y-118822676D02*
X80808207Y-118917914D01*
X80808207Y-118917914D02*
X80855826Y-119108390D01*
X80855826Y-119108390D02*
X80855826Y-119251247D01*
X80855826Y-119251247D02*
X80808207Y-119441723D01*
X80808207Y-119441723D02*
X80760588Y-119536961D01*
X80760588Y-119536961D02*
X80665350Y-119632200D01*
X80665350Y-119632200D02*
X80522493Y-119679819D01*
X80522493Y-119679819D02*
X80284398Y-119679819D01*
X96013922Y-77729819D02*
X96585350Y-77729819D01*
X96299636Y-78729819D02*
X96299636Y-77729819D01*
X96823446Y-77729819D02*
X97490112Y-78729819D01*
X97490112Y-77729819D02*
X96823446Y-78729819D01*
X66199160Y-78982200D02*
X66342017Y-79029819D01*
X66342017Y-79029819D02*
X66580112Y-79029819D01*
X66580112Y-79029819D02*
X66675350Y-78982200D01*
X66675350Y-78982200D02*
X66722969Y-78934580D01*
X66722969Y-78934580D02*
X66770588Y-78839342D01*
X66770588Y-78839342D02*
X66770588Y-78744104D01*
X66770588Y-78744104D02*
X66722969Y-78648866D01*
X66722969Y-78648866D02*
X66675350Y-78601247D01*
X66675350Y-78601247D02*
X66580112Y-78553628D01*
X66580112Y-78553628D02*
X66389636Y-78506009D01*
X66389636Y-78506009D02*
X66294398Y-78458390D01*
X66294398Y-78458390D02*
X66246779Y-78410771D01*
X66246779Y-78410771D02*
X66199160Y-78315533D01*
X66199160Y-78315533D02*
X66199160Y-78220295D01*
X66199160Y-78220295D02*
X66246779Y-78125057D01*
X66246779Y-78125057D02*
X66294398Y-78077438D01*
X66294398Y-78077438D02*
X66389636Y-78029819D01*
X66389636Y-78029819D02*
X66627731Y-78029819D01*
X66627731Y-78029819D02*
X66770588Y-78077438D01*
X67770588Y-78934580D02*
X67722969Y-78982200D01*
X67722969Y-78982200D02*
X67580112Y-79029819D01*
X67580112Y-79029819D02*
X67484874Y-79029819D01*
X67484874Y-79029819D02*
X67342017Y-78982200D01*
X67342017Y-78982200D02*
X67246779Y-78886961D01*
X67246779Y-78886961D02*
X67199160Y-78791723D01*
X67199160Y-78791723D02*
X67151541Y-78601247D01*
X67151541Y-78601247D02*
X67151541Y-78458390D01*
X67151541Y-78458390D02*
X67199160Y-78267914D01*
X67199160Y-78267914D02*
X67246779Y-78172676D01*
X67246779Y-78172676D02*
X67342017Y-78077438D01*
X67342017Y-78077438D02*
X67484874Y-78029819D01*
X67484874Y-78029819D02*
X67580112Y-78029819D01*
X67580112Y-78029819D02*
X67722969Y-78077438D01*
X67722969Y-78077438D02*
X67770588Y-78125057D01*
X68199160Y-79029819D02*
X68199160Y-78029819D01*
X68770588Y-79029819D02*
X68342017Y-78458390D01*
X68770588Y-78029819D02*
X68199160Y-78601247D01*
X95966779Y-73549819D02*
X95966779Y-72549819D01*
X96442969Y-73549819D02*
X96442969Y-72549819D01*
X96442969Y-72549819D02*
X97014397Y-73549819D01*
X97014397Y-73549819D02*
X97014397Y-72549819D01*
X97347731Y-72549819D02*
X97919159Y-72549819D01*
X97633445Y-73549819D02*
X97633445Y-72549819D01*
X103082857Y-93576340D02*
X102701905Y-93576340D01*
X102701905Y-93576340D02*
X102616191Y-93957292D01*
X102616191Y-93957292D02*
X102659048Y-93919197D01*
X102659048Y-93919197D02*
X102740000Y-93881102D01*
X102740000Y-93881102D02*
X102930476Y-93881102D01*
X102930476Y-93881102D02*
X103001905Y-93919197D01*
X103001905Y-93919197D02*
X103035238Y-93957292D01*
X103035238Y-93957292D02*
X103063810Y-94033483D01*
X103063810Y-94033483D02*
X103040000Y-94223959D01*
X103040000Y-94223959D02*
X102992381Y-94300149D01*
X102992381Y-94300149D02*
X102949524Y-94338245D01*
X102949524Y-94338245D02*
X102868571Y-94376340D01*
X102868571Y-94376340D02*
X102678095Y-94376340D01*
X102678095Y-94376340D02*
X102606667Y-94338245D01*
X102606667Y-94338245D02*
X102573333Y-94300149D01*
X103349524Y-93576340D02*
X103516191Y-94376340D01*
X103516191Y-94376340D02*
X103882857Y-93576340D01*
X101859047Y-95664295D02*
X101478095Y-95664295D01*
X101478095Y-95664295D02*
X101578095Y-94864295D01*
X102163809Y-95664295D02*
X102316190Y-95664295D01*
X102316190Y-95664295D02*
X102397142Y-95626200D01*
X102397142Y-95626200D02*
X102440000Y-95588104D01*
X102440000Y-95588104D02*
X102530476Y-95473819D01*
X102530476Y-95473819D02*
X102587619Y-95321438D01*
X102587619Y-95321438D02*
X102625714Y-95016676D01*
X102625714Y-95016676D02*
X102597142Y-94940485D01*
X102597142Y-94940485D02*
X102563809Y-94902390D01*
X102563809Y-94902390D02*
X102492380Y-94864295D01*
X102492380Y-94864295D02*
X102340000Y-94864295D01*
X102340000Y-94864295D02*
X102259047Y-94902390D01*
X102259047Y-94902390D02*
X102216190Y-94940485D01*
X102216190Y-94940485D02*
X102168571Y-95016676D01*
X102168571Y-95016676D02*
X102144761Y-95207152D01*
X102144761Y-95207152D02*
X102173333Y-95283342D01*
X102173333Y-95283342D02*
X102206666Y-95321438D01*
X102206666Y-95321438D02*
X102278095Y-95359533D01*
X102278095Y-95359533D02*
X102430476Y-95359533D01*
X102430476Y-95359533D02*
X102511428Y-95321438D01*
X102511428Y-95321438D02*
X102554285Y-95283342D01*
X102554285Y-95283342D02*
X102601904Y-95207152D01*
X103330476Y-94864295D02*
X103178095Y-94864295D01*
X103178095Y-94864295D02*
X103097143Y-94902390D01*
X103097143Y-94902390D02*
X103054285Y-94940485D01*
X103054285Y-94940485D02*
X102963809Y-95054771D01*
X102963809Y-95054771D02*
X102906666Y-95207152D01*
X102906666Y-95207152D02*
X102868571Y-95511914D01*
X102868571Y-95511914D02*
X102897143Y-95588104D01*
X102897143Y-95588104D02*
X102930476Y-95626200D01*
X102930476Y-95626200D02*
X103001905Y-95664295D01*
X103001905Y-95664295D02*
X103154285Y-95664295D01*
X103154285Y-95664295D02*
X103235238Y-95626200D01*
X103235238Y-95626200D02*
X103278095Y-95588104D01*
X103278095Y-95588104D02*
X103325714Y-95511914D01*
X103325714Y-95511914D02*
X103349524Y-95321438D01*
X103349524Y-95321438D02*
X103320952Y-95245247D01*
X103320952Y-95245247D02*
X103287619Y-95207152D01*
X103287619Y-95207152D02*
X103216190Y-95169057D01*
X103216190Y-95169057D02*
X103063809Y-95169057D01*
X103063809Y-95169057D02*
X102982857Y-95207152D01*
X102982857Y-95207152D02*
X102940000Y-95245247D01*
X102940000Y-95245247D02*
X102892381Y-95321438D01*
X104068571Y-95664295D02*
X103611429Y-95664295D01*
X103840000Y-95664295D02*
X103940000Y-94864295D01*
X103940000Y-94864295D02*
X103849524Y-94978580D01*
X103849524Y-94978580D02*
X103763810Y-95054771D01*
X103763810Y-95054771D02*
X103682857Y-95092866D01*
X104854286Y-94864295D02*
X104701905Y-94864295D01*
X104701905Y-94864295D02*
X104620953Y-94902390D01*
X104620953Y-94902390D02*
X104578095Y-94940485D01*
X104578095Y-94940485D02*
X104487619Y-95054771D01*
X104487619Y-95054771D02*
X104430476Y-95207152D01*
X104430476Y-95207152D02*
X104392381Y-95511914D01*
X104392381Y-95511914D02*
X104420953Y-95588104D01*
X104420953Y-95588104D02*
X104454286Y-95626200D01*
X104454286Y-95626200D02*
X104525715Y-95664295D01*
X104525715Y-95664295D02*
X104678095Y-95664295D01*
X104678095Y-95664295D02*
X104759048Y-95626200D01*
X104759048Y-95626200D02*
X104801905Y-95588104D01*
X104801905Y-95588104D02*
X104849524Y-95511914D01*
X104849524Y-95511914D02*
X104873334Y-95321438D01*
X104873334Y-95321438D02*
X104844762Y-95245247D01*
X104844762Y-95245247D02*
X104811429Y-95207152D01*
X104811429Y-95207152D02*
X104740000Y-95169057D01*
X104740000Y-95169057D02*
X104587619Y-95169057D01*
X104587619Y-95169057D02*
X104506667Y-95207152D01*
X104506667Y-95207152D02*
X104463810Y-95245247D01*
X104463810Y-95245247D02*
X104416191Y-95321438D01*
X65556779Y-83949819D02*
X65556779Y-82949819D01*
X65556779Y-82949819D02*
X65890112Y-83664104D01*
X65890112Y-83664104D02*
X66223445Y-82949819D01*
X66223445Y-82949819D02*
X66223445Y-83949819D01*
X66890112Y-82949819D02*
X67080588Y-82949819D01*
X67080588Y-82949819D02*
X67175826Y-82997438D01*
X67175826Y-82997438D02*
X67271064Y-83092676D01*
X67271064Y-83092676D02*
X67318683Y-83283152D01*
X67318683Y-83283152D02*
X67318683Y-83616485D01*
X67318683Y-83616485D02*
X67271064Y-83806961D01*
X67271064Y-83806961D02*
X67175826Y-83902200D01*
X67175826Y-83902200D02*
X67080588Y-83949819D01*
X67080588Y-83949819D02*
X66890112Y-83949819D01*
X66890112Y-83949819D02*
X66794874Y-83902200D01*
X66794874Y-83902200D02*
X66699636Y-83806961D01*
X66699636Y-83806961D02*
X66652017Y-83616485D01*
X66652017Y-83616485D02*
X66652017Y-83283152D01*
X66652017Y-83283152D02*
X66699636Y-83092676D01*
X66699636Y-83092676D02*
X66794874Y-82997438D01*
X66794874Y-82997438D02*
X66890112Y-82949819D01*
X67699636Y-83902200D02*
X67842493Y-83949819D01*
X67842493Y-83949819D02*
X68080588Y-83949819D01*
X68080588Y-83949819D02*
X68175826Y-83902200D01*
X68175826Y-83902200D02*
X68223445Y-83854580D01*
X68223445Y-83854580D02*
X68271064Y-83759342D01*
X68271064Y-83759342D02*
X68271064Y-83664104D01*
X68271064Y-83664104D02*
X68223445Y-83568866D01*
X68223445Y-83568866D02*
X68175826Y-83521247D01*
X68175826Y-83521247D02*
X68080588Y-83473628D01*
X68080588Y-83473628D02*
X67890112Y-83426009D01*
X67890112Y-83426009D02*
X67794874Y-83378390D01*
X67794874Y-83378390D02*
X67747255Y-83330771D01*
X67747255Y-83330771D02*
X67699636Y-83235533D01*
X67699636Y-83235533D02*
X67699636Y-83140295D01*
X67699636Y-83140295D02*
X67747255Y-83045057D01*
X67747255Y-83045057D02*
X67794874Y-82997438D01*
X67794874Y-82997438D02*
X67890112Y-82949819D01*
X67890112Y-82949819D02*
X68128207Y-82949819D01*
X68128207Y-82949819D02*
X68271064Y-82997438D01*
X68699636Y-83949819D02*
X68699636Y-82949819D01*
X101179160Y-113712200D02*
X101322017Y-113759819D01*
X101322017Y-113759819D02*
X101560112Y-113759819D01*
X101560112Y-113759819D02*
X101655350Y-113712200D01*
X101655350Y-113712200D02*
X101702969Y-113664580D01*
X101702969Y-113664580D02*
X101750588Y-113569342D01*
X101750588Y-113569342D02*
X101750588Y-113474104D01*
X101750588Y-113474104D02*
X101702969Y-113378866D01*
X101702969Y-113378866D02*
X101655350Y-113331247D01*
X101655350Y-113331247D02*
X101560112Y-113283628D01*
X101560112Y-113283628D02*
X101369636Y-113236009D01*
X101369636Y-113236009D02*
X101274398Y-113188390D01*
X101274398Y-113188390D02*
X101226779Y-113140771D01*
X101226779Y-113140771D02*
X101179160Y-113045533D01*
X101179160Y-113045533D02*
X101179160Y-112950295D01*
X101179160Y-112950295D02*
X101226779Y-112855057D01*
X101226779Y-112855057D02*
X101274398Y-112807438D01*
X101274398Y-112807438D02*
X101369636Y-112759819D01*
X101369636Y-112759819D02*
X101607731Y-112759819D01*
X101607731Y-112759819D02*
X101750588Y-112807438D01*
X102750588Y-113664580D02*
X102702969Y-113712200D01*
X102702969Y-113712200D02*
X102560112Y-113759819D01*
X102560112Y-113759819D02*
X102464874Y-113759819D01*
X102464874Y-113759819D02*
X102322017Y-113712200D01*
X102322017Y-113712200D02*
X102226779Y-113616961D01*
X102226779Y-113616961D02*
X102179160Y-113521723D01*
X102179160Y-113521723D02*
X102131541Y-113331247D01*
X102131541Y-113331247D02*
X102131541Y-113188390D01*
X102131541Y-113188390D02*
X102179160Y-112997914D01*
X102179160Y-112997914D02*
X102226779Y-112902676D01*
X102226779Y-112902676D02*
X102322017Y-112807438D01*
X102322017Y-112807438D02*
X102464874Y-112759819D01*
X102464874Y-112759819D02*
X102560112Y-112759819D01*
X102560112Y-112759819D02*
X102702969Y-112807438D01*
X102702969Y-112807438D02*
X102750588Y-112855057D01*
X103655350Y-113759819D02*
X103179160Y-113759819D01*
X103179160Y-113759819D02*
X103179160Y-112759819D01*
D14*
X145177292Y-117042742D02*
X145177292Y-118014171D01*
X145177292Y-118014171D02*
X145234435Y-118128457D01*
X145234435Y-118128457D02*
X145291578Y-118185600D01*
X145291578Y-118185600D02*
X145405863Y-118242742D01*
X145405863Y-118242742D02*
X145634435Y-118242742D01*
X145634435Y-118242742D02*
X145748720Y-118185600D01*
X145748720Y-118185600D02*
X145805863Y-118128457D01*
X145805863Y-118128457D02*
X145863006Y-118014171D01*
X145863006Y-118014171D02*
X145863006Y-117042742D01*
X146377292Y-117899885D02*
X146948721Y-117899885D01*
X146263006Y-118242742D02*
X146663006Y-117042742D01*
X146663006Y-117042742D02*
X147063006Y-118242742D01*
X148148720Y-118242742D02*
X147748720Y-117671314D01*
X147463006Y-118242742D02*
X147463006Y-117042742D01*
X147463006Y-117042742D02*
X147920149Y-117042742D01*
X147920149Y-117042742D02*
X148034434Y-117099885D01*
X148034434Y-117099885D02*
X148091577Y-117157028D01*
X148091577Y-117157028D02*
X148148720Y-117271314D01*
X148148720Y-117271314D02*
X148148720Y-117442742D01*
X148148720Y-117442742D02*
X148091577Y-117557028D01*
X148091577Y-117557028D02*
X148034434Y-117614171D01*
X148034434Y-117614171D02*
X147920149Y-117671314D01*
X147920149Y-117671314D02*
X147463006Y-117671314D01*
X148491577Y-117042742D02*
X149177292Y-117042742D01*
X148834434Y-118242742D02*
X148834434Y-117042742D01*
D11*
X89840588Y-118917438D02*
X89745350Y-118869819D01*
X89745350Y-118869819D02*
X89602493Y-118869819D01*
X89602493Y-118869819D02*
X89459636Y-118917438D01*
X89459636Y-118917438D02*
X89364398Y-119012676D01*
X89364398Y-119012676D02*
X89316779Y-119107914D01*
X89316779Y-119107914D02*
X89269160Y-119298390D01*
X89269160Y-119298390D02*
X89269160Y-119441247D01*
X89269160Y-119441247D02*
X89316779Y-119631723D01*
X89316779Y-119631723D02*
X89364398Y-119726961D01*
X89364398Y-119726961D02*
X89459636Y-119822200D01*
X89459636Y-119822200D02*
X89602493Y-119869819D01*
X89602493Y-119869819D02*
X89697731Y-119869819D01*
X89697731Y-119869819D02*
X89840588Y-119822200D01*
X89840588Y-119822200D02*
X89888207Y-119774580D01*
X89888207Y-119774580D02*
X89888207Y-119441247D01*
X89888207Y-119441247D02*
X89697731Y-119441247D01*
X90316779Y-119869819D02*
X90316779Y-118869819D01*
X90316779Y-118869819D02*
X90888207Y-119869819D01*
X90888207Y-119869819D02*
X90888207Y-118869819D01*
X91364398Y-119869819D02*
X91364398Y-118869819D01*
X91364398Y-118869819D02*
X91602493Y-118869819D01*
X91602493Y-118869819D02*
X91745350Y-118917438D01*
X91745350Y-118917438D02*
X91840588Y-119012676D01*
X91840588Y-119012676D02*
X91888207Y-119107914D01*
X91888207Y-119107914D02*
X91935826Y-119298390D01*
X91935826Y-119298390D02*
X91935826Y-119441247D01*
X91935826Y-119441247D02*
X91888207Y-119631723D01*
X91888207Y-119631723D02*
X91840588Y-119726961D01*
X91840588Y-119726961D02*
X91745350Y-119822200D01*
X91745350Y-119822200D02*
X91602493Y-119869819D01*
X91602493Y-119869819D02*
X91364398Y-119869819D01*
X130846779Y-112929819D02*
X130846779Y-111929819D01*
X130846779Y-111929819D02*
X131227731Y-111929819D01*
X131227731Y-111929819D02*
X131322969Y-111977438D01*
X131322969Y-111977438D02*
X131370588Y-112025057D01*
X131370588Y-112025057D02*
X131418207Y-112120295D01*
X131418207Y-112120295D02*
X131418207Y-112263152D01*
X131418207Y-112263152D02*
X131370588Y-112358390D01*
X131370588Y-112358390D02*
X131322969Y-112406009D01*
X131322969Y-112406009D02*
X131227731Y-112453628D01*
X131227731Y-112453628D02*
X130846779Y-112453628D01*
X132418207Y-112834580D02*
X132370588Y-112882200D01*
X132370588Y-112882200D02*
X132227731Y-112929819D01*
X132227731Y-112929819D02*
X132132493Y-112929819D01*
X132132493Y-112929819D02*
X131989636Y-112882200D01*
X131989636Y-112882200D02*
X131894398Y-112786961D01*
X131894398Y-112786961D02*
X131846779Y-112691723D01*
X131846779Y-112691723D02*
X131799160Y-112501247D01*
X131799160Y-112501247D02*
X131799160Y-112358390D01*
X131799160Y-112358390D02*
X131846779Y-112167914D01*
X131846779Y-112167914D02*
X131894398Y-112072676D01*
X131894398Y-112072676D02*
X131989636Y-111977438D01*
X131989636Y-111977438D02*
X132132493Y-111929819D01*
X132132493Y-111929819D02*
X132227731Y-111929819D01*
X132227731Y-111929819D02*
X132370588Y-111977438D01*
X132370588Y-111977438D02*
X132418207Y-112025057D01*
X132846779Y-112929819D02*
X132846779Y-111929819D01*
X96029160Y-81242200D02*
X96172017Y-81289819D01*
X96172017Y-81289819D02*
X96410112Y-81289819D01*
X96410112Y-81289819D02*
X96505350Y-81242200D01*
X96505350Y-81242200D02*
X96552969Y-81194580D01*
X96552969Y-81194580D02*
X96600588Y-81099342D01*
X96600588Y-81099342D02*
X96600588Y-81004104D01*
X96600588Y-81004104D02*
X96552969Y-80908866D01*
X96552969Y-80908866D02*
X96505350Y-80861247D01*
X96505350Y-80861247D02*
X96410112Y-80813628D01*
X96410112Y-80813628D02*
X96219636Y-80766009D01*
X96219636Y-80766009D02*
X96124398Y-80718390D01*
X96124398Y-80718390D02*
X96076779Y-80670771D01*
X96076779Y-80670771D02*
X96029160Y-80575533D01*
X96029160Y-80575533D02*
X96029160Y-80480295D01*
X96029160Y-80480295D02*
X96076779Y-80385057D01*
X96076779Y-80385057D02*
X96124398Y-80337438D01*
X96124398Y-80337438D02*
X96219636Y-80289819D01*
X96219636Y-80289819D02*
X96457731Y-80289819D01*
X96457731Y-80289819D02*
X96600588Y-80337438D01*
X97600588Y-81194580D02*
X97552969Y-81242200D01*
X97552969Y-81242200D02*
X97410112Y-81289819D01*
X97410112Y-81289819D02*
X97314874Y-81289819D01*
X97314874Y-81289819D02*
X97172017Y-81242200D01*
X97172017Y-81242200D02*
X97076779Y-81146961D01*
X97076779Y-81146961D02*
X97029160Y-81051723D01*
X97029160Y-81051723D02*
X96981541Y-80861247D01*
X96981541Y-80861247D02*
X96981541Y-80718390D01*
X96981541Y-80718390D02*
X97029160Y-80527914D01*
X97029160Y-80527914D02*
X97076779Y-80432676D01*
X97076779Y-80432676D02*
X97172017Y-80337438D01*
X97172017Y-80337438D02*
X97314874Y-80289819D01*
X97314874Y-80289819D02*
X97410112Y-80289819D01*
X97410112Y-80289819D02*
X97552969Y-80337438D01*
X97552969Y-80337438D02*
X97600588Y-80385057D01*
X98505350Y-81289819D02*
X98029160Y-81289819D01*
X98029160Y-81289819D02*
X98029160Y-80289819D01*
X133937142Y-55394636D02*
X133889523Y-55442256D01*
X133889523Y-55442256D02*
X133746666Y-55489875D01*
X133746666Y-55489875D02*
X133651428Y-55489875D01*
X133651428Y-55489875D02*
X133508571Y-55442256D01*
X133508571Y-55442256D02*
X133413333Y-55347017D01*
X133413333Y-55347017D02*
X133365714Y-55251779D01*
X133365714Y-55251779D02*
X133318095Y-55061303D01*
X133318095Y-55061303D02*
X133318095Y-54918446D01*
X133318095Y-54918446D02*
X133365714Y-54727970D01*
X133365714Y-54727970D02*
X133413333Y-54632732D01*
X133413333Y-54632732D02*
X133508571Y-54537494D01*
X133508571Y-54537494D02*
X133651428Y-54489875D01*
X133651428Y-54489875D02*
X133746666Y-54489875D01*
X133746666Y-54489875D02*
X133889523Y-54537494D01*
X133889523Y-54537494D02*
X133937142Y-54585113D01*
X134318095Y-55204160D02*
X134794285Y-55204160D01*
X134222857Y-55489875D02*
X134556190Y-54489875D01*
X134556190Y-54489875D02*
X134889523Y-55489875D01*
X135222857Y-55489875D02*
X135222857Y-54489875D01*
X135222857Y-54489875D02*
X135794285Y-55489875D01*
X135794285Y-55489875D02*
X135794285Y-54489875D01*
X130675238Y-57099819D02*
X130675238Y-56099819D01*
X131103809Y-57099819D02*
X131103809Y-56576009D01*
X131103809Y-56576009D02*
X131056190Y-56480771D01*
X131056190Y-56480771D02*
X130960952Y-56433152D01*
X130960952Y-56433152D02*
X130818095Y-56433152D01*
X130818095Y-56433152D02*
X130722857Y-56480771D01*
X130722857Y-56480771D02*
X130675238Y-56528390D01*
X131580000Y-57099819D02*
X131580000Y-56433152D01*
X131580000Y-56099819D02*
X131532381Y-56147438D01*
X131532381Y-56147438D02*
X131580000Y-56195057D01*
X131580000Y-56195057D02*
X131627619Y-56147438D01*
X131627619Y-56147438D02*
X131580000Y-56099819D01*
X131580000Y-56099819D02*
X131580000Y-56195057D01*
X132484761Y-56433152D02*
X132484761Y-57242676D01*
X132484761Y-57242676D02*
X132437142Y-57337914D01*
X132437142Y-57337914D02*
X132389523Y-57385533D01*
X132389523Y-57385533D02*
X132294285Y-57433152D01*
X132294285Y-57433152D02*
X132151428Y-57433152D01*
X132151428Y-57433152D02*
X132056190Y-57385533D01*
X132484761Y-57052200D02*
X132389523Y-57099819D01*
X132389523Y-57099819D02*
X132199047Y-57099819D01*
X132199047Y-57099819D02*
X132103809Y-57052200D01*
X132103809Y-57052200D02*
X132056190Y-57004580D01*
X132056190Y-57004580D02*
X132008571Y-56909342D01*
X132008571Y-56909342D02*
X132008571Y-56623628D01*
X132008571Y-56623628D02*
X132056190Y-56528390D01*
X132056190Y-56528390D02*
X132103809Y-56480771D01*
X132103809Y-56480771D02*
X132199047Y-56433152D01*
X132199047Y-56433152D02*
X132389523Y-56433152D01*
X132389523Y-56433152D02*
X132484761Y-56480771D01*
X132960952Y-57099819D02*
X132960952Y-56099819D01*
X133389523Y-57099819D02*
X133389523Y-56576009D01*
X133389523Y-56576009D02*
X133341904Y-56480771D01*
X133341904Y-56480771D02*
X133246666Y-56433152D01*
X133246666Y-56433152D02*
X133103809Y-56433152D01*
X133103809Y-56433152D02*
X133008571Y-56480771D01*
X133008571Y-56480771D02*
X132960952Y-56528390D01*
X134580000Y-57052200D02*
X134675238Y-57099819D01*
X134675238Y-57099819D02*
X134865714Y-57099819D01*
X134865714Y-57099819D02*
X134960952Y-57052200D01*
X134960952Y-57052200D02*
X135008571Y-56956961D01*
X135008571Y-56956961D02*
X135008571Y-56909342D01*
X135008571Y-56909342D02*
X134960952Y-56814104D01*
X134960952Y-56814104D02*
X134865714Y-56766485D01*
X134865714Y-56766485D02*
X134722857Y-56766485D01*
X134722857Y-56766485D02*
X134627619Y-56718866D01*
X134627619Y-56718866D02*
X134580000Y-56623628D01*
X134580000Y-56623628D02*
X134580000Y-56576009D01*
X134580000Y-56576009D02*
X134627619Y-56480771D01*
X134627619Y-56480771D02*
X134722857Y-56433152D01*
X134722857Y-56433152D02*
X134865714Y-56433152D01*
X134865714Y-56433152D02*
X134960952Y-56480771D01*
X135437143Y-56433152D02*
X135437143Y-57433152D01*
X135437143Y-56480771D02*
X135532381Y-56433152D01*
X135532381Y-56433152D02*
X135722857Y-56433152D01*
X135722857Y-56433152D02*
X135818095Y-56480771D01*
X135818095Y-56480771D02*
X135865714Y-56528390D01*
X135865714Y-56528390D02*
X135913333Y-56623628D01*
X135913333Y-56623628D02*
X135913333Y-56909342D01*
X135913333Y-56909342D02*
X135865714Y-57004580D01*
X135865714Y-57004580D02*
X135818095Y-57052200D01*
X135818095Y-57052200D02*
X135722857Y-57099819D01*
X135722857Y-57099819D02*
X135532381Y-57099819D01*
X135532381Y-57099819D02*
X135437143Y-57052200D01*
X136722857Y-57052200D02*
X136627619Y-57099819D01*
X136627619Y-57099819D02*
X136437143Y-57099819D01*
X136437143Y-57099819D02*
X136341905Y-57052200D01*
X136341905Y-57052200D02*
X136294286Y-56956961D01*
X136294286Y-56956961D02*
X136294286Y-56576009D01*
X136294286Y-56576009D02*
X136341905Y-56480771D01*
X136341905Y-56480771D02*
X136437143Y-56433152D01*
X136437143Y-56433152D02*
X136627619Y-56433152D01*
X136627619Y-56433152D02*
X136722857Y-56480771D01*
X136722857Y-56480771D02*
X136770476Y-56576009D01*
X136770476Y-56576009D02*
X136770476Y-56671247D01*
X136770476Y-56671247D02*
X136294286Y-56766485D01*
X137580000Y-57052200D02*
X137484762Y-57099819D01*
X137484762Y-57099819D02*
X137294286Y-57099819D01*
X137294286Y-57099819D02*
X137199048Y-57052200D01*
X137199048Y-57052200D02*
X137151429Y-56956961D01*
X137151429Y-56956961D02*
X137151429Y-56576009D01*
X137151429Y-56576009D02*
X137199048Y-56480771D01*
X137199048Y-56480771D02*
X137294286Y-56433152D01*
X137294286Y-56433152D02*
X137484762Y-56433152D01*
X137484762Y-56433152D02*
X137580000Y-56480771D01*
X137580000Y-56480771D02*
X137627619Y-56576009D01*
X137627619Y-56576009D02*
X137627619Y-56671247D01*
X137627619Y-56671247D02*
X137151429Y-56766485D01*
X138484762Y-57099819D02*
X138484762Y-56099819D01*
X138484762Y-57052200D02*
X138389524Y-57099819D01*
X138389524Y-57099819D02*
X138199048Y-57099819D01*
X138199048Y-57099819D02*
X138103810Y-57052200D01*
X138103810Y-57052200D02*
X138056191Y-57004580D01*
X138056191Y-57004580D02*
X138008572Y-56909342D01*
X138008572Y-56909342D02*
X138008572Y-56623628D01*
X138008572Y-56623628D02*
X138056191Y-56528390D01*
X138056191Y-56528390D02*
X138103810Y-56480771D01*
X138103810Y-56480771D02*
X138199048Y-56433152D01*
X138199048Y-56433152D02*
X138389524Y-56433152D01*
X138389524Y-56433152D02*
X138484762Y-56480771D01*
X78409160Y-113452200D02*
X78552017Y-113499819D01*
X78552017Y-113499819D02*
X78790112Y-113499819D01*
X78790112Y-113499819D02*
X78885350Y-113452200D01*
X78885350Y-113452200D02*
X78932969Y-113404580D01*
X78932969Y-113404580D02*
X78980588Y-113309342D01*
X78980588Y-113309342D02*
X78980588Y-113214104D01*
X78980588Y-113214104D02*
X78932969Y-113118866D01*
X78932969Y-113118866D02*
X78885350Y-113071247D01*
X78885350Y-113071247D02*
X78790112Y-113023628D01*
X78790112Y-113023628D02*
X78599636Y-112976009D01*
X78599636Y-112976009D02*
X78504398Y-112928390D01*
X78504398Y-112928390D02*
X78456779Y-112880771D01*
X78456779Y-112880771D02*
X78409160Y-112785533D01*
X78409160Y-112785533D02*
X78409160Y-112690295D01*
X78409160Y-112690295D02*
X78456779Y-112595057D01*
X78456779Y-112595057D02*
X78504398Y-112547438D01*
X78504398Y-112547438D02*
X78599636Y-112499819D01*
X78599636Y-112499819D02*
X78837731Y-112499819D01*
X78837731Y-112499819D02*
X78980588Y-112547438D01*
X79980588Y-113404580D02*
X79932969Y-113452200D01*
X79932969Y-113452200D02*
X79790112Y-113499819D01*
X79790112Y-113499819D02*
X79694874Y-113499819D01*
X79694874Y-113499819D02*
X79552017Y-113452200D01*
X79552017Y-113452200D02*
X79456779Y-113356961D01*
X79456779Y-113356961D02*
X79409160Y-113261723D01*
X79409160Y-113261723D02*
X79361541Y-113071247D01*
X79361541Y-113071247D02*
X79361541Y-112928390D01*
X79361541Y-112928390D02*
X79409160Y-112737914D01*
X79409160Y-112737914D02*
X79456779Y-112642676D01*
X79456779Y-112642676D02*
X79552017Y-112547438D01*
X79552017Y-112547438D02*
X79694874Y-112499819D01*
X79694874Y-112499819D02*
X79790112Y-112499819D01*
X79790112Y-112499819D02*
X79932969Y-112547438D01*
X79932969Y-112547438D02*
X79980588Y-112595057D01*
X80885350Y-113499819D02*
X80409160Y-113499819D01*
X80409160Y-113499819D02*
X80409160Y-112499819D01*
X64716779Y-86178866D02*
X65478684Y-86178866D01*
X65097731Y-86559819D02*
X65097731Y-85797914D01*
X65859636Y-85559819D02*
X66478683Y-85559819D01*
X66478683Y-85559819D02*
X66145350Y-85940771D01*
X66145350Y-85940771D02*
X66288207Y-85940771D01*
X66288207Y-85940771D02*
X66383445Y-85988390D01*
X66383445Y-85988390D02*
X66431064Y-86036009D01*
X66431064Y-86036009D02*
X66478683Y-86131247D01*
X66478683Y-86131247D02*
X66478683Y-86369342D01*
X66478683Y-86369342D02*
X66431064Y-86464580D01*
X66431064Y-86464580D02*
X66383445Y-86512200D01*
X66383445Y-86512200D02*
X66288207Y-86559819D01*
X66288207Y-86559819D02*
X66002493Y-86559819D01*
X66002493Y-86559819D02*
X65907255Y-86512200D01*
X65907255Y-86512200D02*
X65859636Y-86464580D01*
X66907255Y-86464580D02*
X66954874Y-86512200D01*
X66954874Y-86512200D02*
X66907255Y-86559819D01*
X66907255Y-86559819D02*
X66859636Y-86512200D01*
X66859636Y-86512200D02*
X66907255Y-86464580D01*
X66907255Y-86464580D02*
X66907255Y-86559819D01*
X67288207Y-85559819D02*
X67907254Y-85559819D01*
X67907254Y-85559819D02*
X67573921Y-85940771D01*
X67573921Y-85940771D02*
X67716778Y-85940771D01*
X67716778Y-85940771D02*
X67812016Y-85988390D01*
X67812016Y-85988390D02*
X67859635Y-86036009D01*
X67859635Y-86036009D02*
X67907254Y-86131247D01*
X67907254Y-86131247D02*
X67907254Y-86369342D01*
X67907254Y-86369342D02*
X67859635Y-86464580D01*
X67859635Y-86464580D02*
X67812016Y-86512200D01*
X67812016Y-86512200D02*
X67716778Y-86559819D01*
X67716778Y-86559819D02*
X67431064Y-86559819D01*
X67431064Y-86559819D02*
X67335826Y-86512200D01*
X67335826Y-86512200D02*
X67288207Y-86464580D01*
X68192969Y-85559819D02*
X68526302Y-86559819D01*
X68526302Y-86559819D02*
X68859635Y-85559819D01*
X115354819Y-130066189D02*
X114354819Y-130066189D01*
X115259580Y-129018571D02*
X115307200Y-129066190D01*
X115307200Y-129066190D02*
X115354819Y-129209047D01*
X115354819Y-129209047D02*
X115354819Y-129304285D01*
X115354819Y-129304285D02*
X115307200Y-129447142D01*
X115307200Y-129447142D02*
X115211961Y-129542380D01*
X115211961Y-129542380D02*
X115116723Y-129589999D01*
X115116723Y-129589999D02*
X114926247Y-129637618D01*
X114926247Y-129637618D02*
X114783390Y-129637618D01*
X114783390Y-129637618D02*
X114592914Y-129589999D01*
X114592914Y-129589999D02*
X114497676Y-129542380D01*
X114497676Y-129542380D02*
X114402438Y-129447142D01*
X114402438Y-129447142D02*
X114354819Y-129304285D01*
X114354819Y-129304285D02*
X114354819Y-129209047D01*
X114354819Y-129209047D02*
X114402438Y-129066190D01*
X114402438Y-129066190D02*
X114450057Y-129018571D01*
X115354819Y-128066190D02*
X115354819Y-128637618D01*
X115354819Y-128351904D02*
X114354819Y-128351904D01*
X114354819Y-128351904D02*
X114497676Y-128447142D01*
X114497676Y-128447142D02*
X114592914Y-128542380D01*
X114592914Y-128542380D02*
X114640533Y-128637618D01*
X136104819Y-60408333D02*
X136819104Y-60408333D01*
X136819104Y-60408333D02*
X136961961Y-60455952D01*
X136961961Y-60455952D02*
X137057200Y-60551190D01*
X137057200Y-60551190D02*
X137104819Y-60694047D01*
X137104819Y-60694047D02*
X137104819Y-60789285D01*
X137104819Y-59932142D02*
X136104819Y-59932142D01*
X136104819Y-59932142D02*
X136104819Y-59551190D01*
X136104819Y-59551190D02*
X136152438Y-59455952D01*
X136152438Y-59455952D02*
X136200057Y-59408333D01*
X136200057Y-59408333D02*
X136295295Y-59360714D01*
X136295295Y-59360714D02*
X136438152Y-59360714D01*
X136438152Y-59360714D02*
X136533390Y-59408333D01*
X136533390Y-59408333D02*
X136581009Y-59455952D01*
X136581009Y-59455952D02*
X136628628Y-59551190D01*
X136628628Y-59551190D02*
X136628628Y-59932142D01*
X136200057Y-58979761D02*
X136152438Y-58932142D01*
X136152438Y-58932142D02*
X136104819Y-58836904D01*
X136104819Y-58836904D02*
X136104819Y-58598809D01*
X136104819Y-58598809D02*
X136152438Y-58503571D01*
X136152438Y-58503571D02*
X136200057Y-58455952D01*
X136200057Y-58455952D02*
X136295295Y-58408333D01*
X136295295Y-58408333D02*
X136390533Y-58408333D01*
X136390533Y-58408333D02*
X136533390Y-58455952D01*
X136533390Y-58455952D02*
X137104819Y-59027380D01*
X137104819Y-59027380D02*
X137104819Y-58408333D01*
X113249580Y-96576666D02*
X113297200Y-96624285D01*
X113297200Y-96624285D02*
X113344819Y-96767142D01*
X113344819Y-96767142D02*
X113344819Y-96862380D01*
X113344819Y-96862380D02*
X113297200Y-97005237D01*
X113297200Y-97005237D02*
X113201961Y-97100475D01*
X113201961Y-97100475D02*
X113106723Y-97148094D01*
X113106723Y-97148094D02*
X112916247Y-97195713D01*
X112916247Y-97195713D02*
X112773390Y-97195713D01*
X112773390Y-97195713D02*
X112582914Y-97148094D01*
X112582914Y-97148094D02*
X112487676Y-97100475D01*
X112487676Y-97100475D02*
X112392438Y-97005237D01*
X112392438Y-97005237D02*
X112344819Y-96862380D01*
X112344819Y-96862380D02*
X112344819Y-96767142D01*
X112344819Y-96767142D02*
X112392438Y-96624285D01*
X112392438Y-96624285D02*
X112440057Y-96576666D01*
X112344819Y-96243332D02*
X112344819Y-95576666D01*
X112344819Y-95576666D02*
X113344819Y-96005237D01*
X95706666Y-108564819D02*
X95706666Y-109279104D01*
X95706666Y-109279104D02*
X95659047Y-109421961D01*
X95659047Y-109421961D02*
X95563809Y-109517200D01*
X95563809Y-109517200D02*
X95420952Y-109564819D01*
X95420952Y-109564819D02*
X95325714Y-109564819D01*
X96611428Y-108898152D02*
X96611428Y-109564819D01*
X96373333Y-108517200D02*
X96135238Y-109231485D01*
X96135238Y-109231485D02*
X96754285Y-109231485D01*
X109633333Y-105229580D02*
X109585714Y-105277200D01*
X109585714Y-105277200D02*
X109442857Y-105324819D01*
X109442857Y-105324819D02*
X109347619Y-105324819D01*
X109347619Y-105324819D02*
X109204762Y-105277200D01*
X109204762Y-105277200D02*
X109109524Y-105181961D01*
X109109524Y-105181961D02*
X109061905Y-105086723D01*
X109061905Y-105086723D02*
X109014286Y-104896247D01*
X109014286Y-104896247D02*
X109014286Y-104753390D01*
X109014286Y-104753390D02*
X109061905Y-104562914D01*
X109061905Y-104562914D02*
X109109524Y-104467676D01*
X109109524Y-104467676D02*
X109204762Y-104372438D01*
X109204762Y-104372438D02*
X109347619Y-104324819D01*
X109347619Y-104324819D02*
X109442857Y-104324819D01*
X109442857Y-104324819D02*
X109585714Y-104372438D01*
X109585714Y-104372438D02*
X109633333Y-104420057D01*
X110585714Y-105324819D02*
X110014286Y-105324819D01*
X110300000Y-105324819D02*
X110300000Y-104324819D01*
X110300000Y-104324819D02*
X110204762Y-104467676D01*
X110204762Y-104467676D02*
X110109524Y-104562914D01*
X110109524Y-104562914D02*
X110014286Y-104610533D01*
X132024819Y-86966666D02*
X131548628Y-87299999D01*
X132024819Y-87538094D02*
X131024819Y-87538094D01*
X131024819Y-87538094D02*
X131024819Y-87157142D01*
X131024819Y-87157142D02*
X131072438Y-87061904D01*
X131072438Y-87061904D02*
X131120057Y-87014285D01*
X131120057Y-87014285D02*
X131215295Y-86966666D01*
X131215295Y-86966666D02*
X131358152Y-86966666D01*
X131358152Y-86966666D02*
X131453390Y-87014285D01*
X131453390Y-87014285D02*
X131501009Y-87061904D01*
X131501009Y-87061904D02*
X131548628Y-87157142D01*
X131548628Y-87157142D02*
X131548628Y-87538094D01*
X131024819Y-86109523D02*
X131024819Y-86299999D01*
X131024819Y-86299999D02*
X131072438Y-86395237D01*
X131072438Y-86395237D02*
X131120057Y-86442856D01*
X131120057Y-86442856D02*
X131262914Y-86538094D01*
X131262914Y-86538094D02*
X131453390Y-86585713D01*
X131453390Y-86585713D02*
X131834342Y-86585713D01*
X131834342Y-86585713D02*
X131929580Y-86538094D01*
X131929580Y-86538094D02*
X131977200Y-86490475D01*
X131977200Y-86490475D02*
X132024819Y-86395237D01*
X132024819Y-86395237D02*
X132024819Y-86204761D01*
X132024819Y-86204761D02*
X131977200Y-86109523D01*
X131977200Y-86109523D02*
X131929580Y-86061904D01*
X131929580Y-86061904D02*
X131834342Y-86014285D01*
X131834342Y-86014285D02*
X131596247Y-86014285D01*
X131596247Y-86014285D02*
X131501009Y-86061904D01*
X131501009Y-86061904D02*
X131453390Y-86109523D01*
X131453390Y-86109523D02*
X131405771Y-86204761D01*
X131405771Y-86204761D02*
X131405771Y-86395237D01*
X131405771Y-86395237D02*
X131453390Y-86490475D01*
X131453390Y-86490475D02*
X131501009Y-86538094D01*
X131501009Y-86538094D02*
X131596247Y-86585713D01*
X90664819Y-66332857D02*
X90188628Y-66666190D01*
X90664819Y-66904285D02*
X89664819Y-66904285D01*
X89664819Y-66904285D02*
X89664819Y-66523333D01*
X89664819Y-66523333D02*
X89712438Y-66428095D01*
X89712438Y-66428095D02*
X89760057Y-66380476D01*
X89760057Y-66380476D02*
X89855295Y-66332857D01*
X89855295Y-66332857D02*
X89998152Y-66332857D01*
X89998152Y-66332857D02*
X90093390Y-66380476D01*
X90093390Y-66380476D02*
X90141009Y-66428095D01*
X90141009Y-66428095D02*
X90188628Y-66523333D01*
X90188628Y-66523333D02*
X90188628Y-66904285D01*
X90664819Y-65380476D02*
X90664819Y-65951904D01*
X90664819Y-65666190D02*
X89664819Y-65666190D01*
X89664819Y-65666190D02*
X89807676Y-65761428D01*
X89807676Y-65761428D02*
X89902914Y-65856666D01*
X89902914Y-65856666D02*
X89950533Y-65951904D01*
X89664819Y-64761428D02*
X89664819Y-64666190D01*
X89664819Y-64666190D02*
X89712438Y-64570952D01*
X89712438Y-64570952D02*
X89760057Y-64523333D01*
X89760057Y-64523333D02*
X89855295Y-64475714D01*
X89855295Y-64475714D02*
X90045771Y-64428095D01*
X90045771Y-64428095D02*
X90283866Y-64428095D01*
X90283866Y-64428095D02*
X90474342Y-64475714D01*
X90474342Y-64475714D02*
X90569580Y-64523333D01*
X90569580Y-64523333D02*
X90617200Y-64570952D01*
X90617200Y-64570952D02*
X90664819Y-64666190D01*
X90664819Y-64666190D02*
X90664819Y-64761428D01*
X90664819Y-64761428D02*
X90617200Y-64856666D01*
X90617200Y-64856666D02*
X90569580Y-64904285D01*
X90569580Y-64904285D02*
X90474342Y-64951904D01*
X90474342Y-64951904D02*
X90283866Y-64999523D01*
X90283866Y-64999523D02*
X90045771Y-64999523D01*
X90045771Y-64999523D02*
X89855295Y-64951904D01*
X89855295Y-64951904D02*
X89760057Y-64904285D01*
X89760057Y-64904285D02*
X89712438Y-64856666D01*
X89712438Y-64856666D02*
X89664819Y-64761428D01*
X87734819Y-66312857D02*
X87258628Y-66646190D01*
X87734819Y-66884285D02*
X86734819Y-66884285D01*
X86734819Y-66884285D02*
X86734819Y-66503333D01*
X86734819Y-66503333D02*
X86782438Y-66408095D01*
X86782438Y-66408095D02*
X86830057Y-66360476D01*
X86830057Y-66360476D02*
X86925295Y-66312857D01*
X86925295Y-66312857D02*
X87068152Y-66312857D01*
X87068152Y-66312857D02*
X87163390Y-66360476D01*
X87163390Y-66360476D02*
X87211009Y-66408095D01*
X87211009Y-66408095D02*
X87258628Y-66503333D01*
X87258628Y-66503333D02*
X87258628Y-66884285D01*
X87734819Y-65360476D02*
X87734819Y-65931904D01*
X87734819Y-65646190D02*
X86734819Y-65646190D01*
X86734819Y-65646190D02*
X86877676Y-65741428D01*
X86877676Y-65741428D02*
X86972914Y-65836666D01*
X86972914Y-65836666D02*
X87020533Y-65931904D01*
X86830057Y-64979523D02*
X86782438Y-64931904D01*
X86782438Y-64931904D02*
X86734819Y-64836666D01*
X86734819Y-64836666D02*
X86734819Y-64598571D01*
X86734819Y-64598571D02*
X86782438Y-64503333D01*
X86782438Y-64503333D02*
X86830057Y-64455714D01*
X86830057Y-64455714D02*
X86925295Y-64408095D01*
X86925295Y-64408095D02*
X87020533Y-64408095D01*
X87020533Y-64408095D02*
X87163390Y-64455714D01*
X87163390Y-64455714D02*
X87734819Y-65027142D01*
X87734819Y-65027142D02*
X87734819Y-64408095D01*
X127979915Y-52762767D02*
X127979915Y-53477052D01*
X127979915Y-53477052D02*
X127932296Y-53619909D01*
X127932296Y-53619909D02*
X127837058Y-53715148D01*
X127837058Y-53715148D02*
X127694201Y-53762767D01*
X127694201Y-53762767D02*
X127598963Y-53762767D01*
X128360868Y-52762767D02*
X129027534Y-52762767D01*
X129027534Y-52762767D02*
X128598963Y-53762767D01*
X96914819Y-52366666D02*
X96438628Y-52699999D01*
X96914819Y-52938094D02*
X95914819Y-52938094D01*
X95914819Y-52938094D02*
X95914819Y-52557142D01*
X95914819Y-52557142D02*
X95962438Y-52461904D01*
X95962438Y-52461904D02*
X96010057Y-52414285D01*
X96010057Y-52414285D02*
X96105295Y-52366666D01*
X96105295Y-52366666D02*
X96248152Y-52366666D01*
X96248152Y-52366666D02*
X96343390Y-52414285D01*
X96343390Y-52414285D02*
X96391009Y-52461904D01*
X96391009Y-52461904D02*
X96438628Y-52557142D01*
X96438628Y-52557142D02*
X96438628Y-52938094D01*
X96010057Y-51985713D02*
X95962438Y-51938094D01*
X95962438Y-51938094D02*
X95914819Y-51842856D01*
X95914819Y-51842856D02*
X95914819Y-51604761D01*
X95914819Y-51604761D02*
X95962438Y-51509523D01*
X95962438Y-51509523D02*
X96010057Y-51461904D01*
X96010057Y-51461904D02*
X96105295Y-51414285D01*
X96105295Y-51414285D02*
X96200533Y-51414285D01*
X96200533Y-51414285D02*
X96343390Y-51461904D01*
X96343390Y-51461904D02*
X96914819Y-52033332D01*
X96914819Y-52033332D02*
X96914819Y-51414285D01*
X103849914Y-52750819D02*
X103849914Y-53465104D01*
X103849914Y-53465104D02*
X103802295Y-53607961D01*
X103802295Y-53607961D02*
X103707057Y-53703200D01*
X103707057Y-53703200D02*
X103564200Y-53750819D01*
X103564200Y-53750819D02*
X103468962Y-53750819D01*
X104278486Y-52846057D02*
X104326105Y-52798438D01*
X104326105Y-52798438D02*
X104421343Y-52750819D01*
X104421343Y-52750819D02*
X104659438Y-52750819D01*
X104659438Y-52750819D02*
X104754676Y-52798438D01*
X104754676Y-52798438D02*
X104802295Y-52846057D01*
X104802295Y-52846057D02*
X104849914Y-52941295D01*
X104849914Y-52941295D02*
X104849914Y-53036533D01*
X104849914Y-53036533D02*
X104802295Y-53179390D01*
X104802295Y-53179390D02*
X104230867Y-53750819D01*
X104230867Y-53750819D02*
X104849914Y-53750819D01*
X115489580Y-96586666D02*
X115537200Y-96634285D01*
X115537200Y-96634285D02*
X115584819Y-96777142D01*
X115584819Y-96777142D02*
X115584819Y-96872380D01*
X115584819Y-96872380D02*
X115537200Y-97015237D01*
X115537200Y-97015237D02*
X115441961Y-97110475D01*
X115441961Y-97110475D02*
X115346723Y-97158094D01*
X115346723Y-97158094D02*
X115156247Y-97205713D01*
X115156247Y-97205713D02*
X115013390Y-97205713D01*
X115013390Y-97205713D02*
X114822914Y-97158094D01*
X114822914Y-97158094D02*
X114727676Y-97110475D01*
X114727676Y-97110475D02*
X114632438Y-97015237D01*
X114632438Y-97015237D02*
X114584819Y-96872380D01*
X114584819Y-96872380D02*
X114584819Y-96777142D01*
X114584819Y-96777142D02*
X114632438Y-96634285D01*
X114632438Y-96634285D02*
X114680057Y-96586666D01*
X115584819Y-96110475D02*
X115584819Y-95919999D01*
X115584819Y-95919999D02*
X115537200Y-95824761D01*
X115537200Y-95824761D02*
X115489580Y-95777142D01*
X115489580Y-95777142D02*
X115346723Y-95681904D01*
X115346723Y-95681904D02*
X115156247Y-95634285D01*
X115156247Y-95634285D02*
X114775295Y-95634285D01*
X114775295Y-95634285D02*
X114680057Y-95681904D01*
X114680057Y-95681904D02*
X114632438Y-95729523D01*
X114632438Y-95729523D02*
X114584819Y-95824761D01*
X114584819Y-95824761D02*
X114584819Y-96015237D01*
X114584819Y-96015237D02*
X114632438Y-96110475D01*
X114632438Y-96110475D02*
X114680057Y-96158094D01*
X114680057Y-96158094D02*
X114775295Y-96205713D01*
X114775295Y-96205713D02*
X115013390Y-96205713D01*
X115013390Y-96205713D02*
X115108628Y-96158094D01*
X115108628Y-96158094D02*
X115156247Y-96110475D01*
X115156247Y-96110475D02*
X115203866Y-96015237D01*
X115203866Y-96015237D02*
X115203866Y-95824761D01*
X115203866Y-95824761D02*
X115156247Y-95729523D01*
X115156247Y-95729523D02*
X115108628Y-95681904D01*
X115108628Y-95681904D02*
X115013390Y-95634285D01*
X138426666Y-128399819D02*
X138426666Y-129114104D01*
X138426666Y-129114104D02*
X138379047Y-129256961D01*
X138379047Y-129256961D02*
X138283809Y-129352200D01*
X138283809Y-129352200D02*
X138140952Y-129399819D01*
X138140952Y-129399819D02*
X138045714Y-129399819D01*
X138902857Y-129399819D02*
X138902857Y-128399819D01*
X138902857Y-128399819D02*
X139283809Y-128399819D01*
X139283809Y-128399819D02*
X139379047Y-128447438D01*
X139379047Y-128447438D02*
X139426666Y-128495057D01*
X139426666Y-128495057D02*
X139474285Y-128590295D01*
X139474285Y-128590295D02*
X139474285Y-128733152D01*
X139474285Y-128733152D02*
X139426666Y-128828390D01*
X139426666Y-128828390D02*
X139379047Y-128876009D01*
X139379047Y-128876009D02*
X139283809Y-128923628D01*
X139283809Y-128923628D02*
X138902857Y-128923628D01*
X140379047Y-128399819D02*
X139902857Y-128399819D01*
X139902857Y-128399819D02*
X139855238Y-128876009D01*
X139855238Y-128876009D02*
X139902857Y-128828390D01*
X139902857Y-128828390D02*
X139998095Y-128780771D01*
X139998095Y-128780771D02*
X140236190Y-128780771D01*
X140236190Y-128780771D02*
X140331428Y-128828390D01*
X140331428Y-128828390D02*
X140379047Y-128876009D01*
X140379047Y-128876009D02*
X140426666Y-128971247D01*
X140426666Y-128971247D02*
X140426666Y-129209342D01*
X140426666Y-129209342D02*
X140379047Y-129304580D01*
X140379047Y-129304580D02*
X140331428Y-129352200D01*
X140331428Y-129352200D02*
X140236190Y-129399819D01*
X140236190Y-129399819D02*
X139998095Y-129399819D01*
X139998095Y-129399819D02*
X139902857Y-129352200D01*
X139902857Y-129352200D02*
X139855238Y-129304580D01*
X80944819Y-66292857D02*
X80468628Y-66626190D01*
X80944819Y-66864285D02*
X79944819Y-66864285D01*
X79944819Y-66864285D02*
X79944819Y-66483333D01*
X79944819Y-66483333D02*
X79992438Y-66388095D01*
X79992438Y-66388095D02*
X80040057Y-66340476D01*
X80040057Y-66340476D02*
X80135295Y-66292857D01*
X80135295Y-66292857D02*
X80278152Y-66292857D01*
X80278152Y-66292857D02*
X80373390Y-66340476D01*
X80373390Y-66340476D02*
X80421009Y-66388095D01*
X80421009Y-66388095D02*
X80468628Y-66483333D01*
X80468628Y-66483333D02*
X80468628Y-66864285D01*
X80944819Y-65340476D02*
X80944819Y-65911904D01*
X80944819Y-65626190D02*
X79944819Y-65626190D01*
X79944819Y-65626190D02*
X80087676Y-65721428D01*
X80087676Y-65721428D02*
X80182914Y-65816666D01*
X80182914Y-65816666D02*
X80230533Y-65911904D01*
X79944819Y-64435714D02*
X79944819Y-64911904D01*
X79944819Y-64911904D02*
X80421009Y-64959523D01*
X80421009Y-64959523D02*
X80373390Y-64911904D01*
X80373390Y-64911904D02*
X80325771Y-64816666D01*
X80325771Y-64816666D02*
X80325771Y-64578571D01*
X80325771Y-64578571D02*
X80373390Y-64483333D01*
X80373390Y-64483333D02*
X80421009Y-64435714D01*
X80421009Y-64435714D02*
X80516247Y-64388095D01*
X80516247Y-64388095D02*
X80754342Y-64388095D01*
X80754342Y-64388095D02*
X80849580Y-64435714D01*
X80849580Y-64435714D02*
X80897200Y-64483333D01*
X80897200Y-64483333D02*
X80944819Y-64578571D01*
X80944819Y-64578571D02*
X80944819Y-64816666D01*
X80944819Y-64816666D02*
X80897200Y-64911904D01*
X80897200Y-64911904D02*
X80849580Y-64959523D01*
X131413333Y-110029580D02*
X131365714Y-110077200D01*
X131365714Y-110077200D02*
X131222857Y-110124819D01*
X131222857Y-110124819D02*
X131127619Y-110124819D01*
X131127619Y-110124819D02*
X130984762Y-110077200D01*
X130984762Y-110077200D02*
X130889524Y-109981961D01*
X130889524Y-109981961D02*
X130841905Y-109886723D01*
X130841905Y-109886723D02*
X130794286Y-109696247D01*
X130794286Y-109696247D02*
X130794286Y-109553390D01*
X130794286Y-109553390D02*
X130841905Y-109362914D01*
X130841905Y-109362914D02*
X130889524Y-109267676D01*
X130889524Y-109267676D02*
X130984762Y-109172438D01*
X130984762Y-109172438D02*
X131127619Y-109124819D01*
X131127619Y-109124819D02*
X131222857Y-109124819D01*
X131222857Y-109124819D02*
X131365714Y-109172438D01*
X131365714Y-109172438D02*
X131413333Y-109220057D01*
X132318095Y-109124819D02*
X131841905Y-109124819D01*
X131841905Y-109124819D02*
X131794286Y-109601009D01*
X131794286Y-109601009D02*
X131841905Y-109553390D01*
X131841905Y-109553390D02*
X131937143Y-109505771D01*
X131937143Y-109505771D02*
X132175238Y-109505771D01*
X132175238Y-109505771D02*
X132270476Y-109553390D01*
X132270476Y-109553390D02*
X132318095Y-109601009D01*
X132318095Y-109601009D02*
X132365714Y-109696247D01*
X132365714Y-109696247D02*
X132365714Y-109934342D01*
X132365714Y-109934342D02*
X132318095Y-110029580D01*
X132318095Y-110029580D02*
X132270476Y-110077200D01*
X132270476Y-110077200D02*
X132175238Y-110124819D01*
X132175238Y-110124819D02*
X131937143Y-110124819D01*
X131937143Y-110124819D02*
X131841905Y-110077200D01*
X131841905Y-110077200D02*
X131794286Y-110029580D01*
X92674819Y-66322857D02*
X92198628Y-66656190D01*
X92674819Y-66894285D02*
X91674819Y-66894285D01*
X91674819Y-66894285D02*
X91674819Y-66513333D01*
X91674819Y-66513333D02*
X91722438Y-66418095D01*
X91722438Y-66418095D02*
X91770057Y-66370476D01*
X91770057Y-66370476D02*
X91865295Y-66322857D01*
X91865295Y-66322857D02*
X92008152Y-66322857D01*
X92008152Y-66322857D02*
X92103390Y-66370476D01*
X92103390Y-66370476D02*
X92151009Y-66418095D01*
X92151009Y-66418095D02*
X92198628Y-66513333D01*
X92198628Y-66513333D02*
X92198628Y-66894285D01*
X92674819Y-65370476D02*
X92674819Y-65941904D01*
X92674819Y-65656190D02*
X91674819Y-65656190D01*
X91674819Y-65656190D02*
X91817676Y-65751428D01*
X91817676Y-65751428D02*
X91912914Y-65846666D01*
X91912914Y-65846666D02*
X91960533Y-65941904D01*
X92674819Y-64418095D02*
X92674819Y-64989523D01*
X92674819Y-64703809D02*
X91674819Y-64703809D01*
X91674819Y-64703809D02*
X91817676Y-64799047D01*
X91817676Y-64799047D02*
X91912914Y-64894285D01*
X91912914Y-64894285D02*
X91960533Y-64989523D01*
X131976666Y-128384819D02*
X131976666Y-129099104D01*
X131976666Y-129099104D02*
X131929047Y-129241961D01*
X131929047Y-129241961D02*
X131833809Y-129337200D01*
X131833809Y-129337200D02*
X131690952Y-129384819D01*
X131690952Y-129384819D02*
X131595714Y-129384819D01*
X132452857Y-129384819D02*
X132452857Y-128384819D01*
X132452857Y-128384819D02*
X132833809Y-128384819D01*
X132833809Y-128384819D02*
X132929047Y-128432438D01*
X132929047Y-128432438D02*
X132976666Y-128480057D01*
X132976666Y-128480057D02*
X133024285Y-128575295D01*
X133024285Y-128575295D02*
X133024285Y-128718152D01*
X133024285Y-128718152D02*
X132976666Y-128813390D01*
X132976666Y-128813390D02*
X132929047Y-128861009D01*
X132929047Y-128861009D02*
X132833809Y-128908628D01*
X132833809Y-128908628D02*
X132452857Y-128908628D01*
X133976666Y-129384819D02*
X133405238Y-129384819D01*
X133690952Y-129384819D02*
X133690952Y-128384819D01*
X133690952Y-128384819D02*
X133595714Y-128527676D01*
X133595714Y-128527676D02*
X133500476Y-128622914D01*
X133500476Y-128622914D02*
X133405238Y-128670533D01*
X72906666Y-108634819D02*
X72906666Y-109349104D01*
X72906666Y-109349104D02*
X72859047Y-109491961D01*
X72859047Y-109491961D02*
X72763809Y-109587200D01*
X72763809Y-109587200D02*
X72620952Y-109634819D01*
X72620952Y-109634819D02*
X72525714Y-109634819D01*
X73811428Y-108634819D02*
X73620952Y-108634819D01*
X73620952Y-108634819D02*
X73525714Y-108682438D01*
X73525714Y-108682438D02*
X73478095Y-108730057D01*
X73478095Y-108730057D02*
X73382857Y-108872914D01*
X73382857Y-108872914D02*
X73335238Y-109063390D01*
X73335238Y-109063390D02*
X73335238Y-109444342D01*
X73335238Y-109444342D02*
X73382857Y-109539580D01*
X73382857Y-109539580D02*
X73430476Y-109587200D01*
X73430476Y-109587200D02*
X73525714Y-109634819D01*
X73525714Y-109634819D02*
X73716190Y-109634819D01*
X73716190Y-109634819D02*
X73811428Y-109587200D01*
X73811428Y-109587200D02*
X73859047Y-109539580D01*
X73859047Y-109539580D02*
X73906666Y-109444342D01*
X73906666Y-109444342D02*
X73906666Y-109206247D01*
X73906666Y-109206247D02*
X73859047Y-109111009D01*
X73859047Y-109111009D02*
X73811428Y-109063390D01*
X73811428Y-109063390D02*
X73716190Y-109015771D01*
X73716190Y-109015771D02*
X73525714Y-109015771D01*
X73525714Y-109015771D02*
X73430476Y-109063390D01*
X73430476Y-109063390D02*
X73382857Y-109111009D01*
X73382857Y-109111009D02*
X73335238Y-109206247D01*
X112163333Y-116889580D02*
X112115714Y-116937200D01*
X112115714Y-116937200D02*
X111972857Y-116984819D01*
X111972857Y-116984819D02*
X111877619Y-116984819D01*
X111877619Y-116984819D02*
X111734762Y-116937200D01*
X111734762Y-116937200D02*
X111639524Y-116841961D01*
X111639524Y-116841961D02*
X111591905Y-116746723D01*
X111591905Y-116746723D02*
X111544286Y-116556247D01*
X111544286Y-116556247D02*
X111544286Y-116413390D01*
X111544286Y-116413390D02*
X111591905Y-116222914D01*
X111591905Y-116222914D02*
X111639524Y-116127676D01*
X111639524Y-116127676D02*
X111734762Y-116032438D01*
X111734762Y-116032438D02*
X111877619Y-115984819D01*
X111877619Y-115984819D02*
X111972857Y-115984819D01*
X111972857Y-115984819D02*
X112115714Y-116032438D01*
X112115714Y-116032438D02*
X112163333Y-116080057D01*
X113020476Y-115984819D02*
X112830000Y-115984819D01*
X112830000Y-115984819D02*
X112734762Y-116032438D01*
X112734762Y-116032438D02*
X112687143Y-116080057D01*
X112687143Y-116080057D02*
X112591905Y-116222914D01*
X112591905Y-116222914D02*
X112544286Y-116413390D01*
X112544286Y-116413390D02*
X112544286Y-116794342D01*
X112544286Y-116794342D02*
X112591905Y-116889580D01*
X112591905Y-116889580D02*
X112639524Y-116937200D01*
X112639524Y-116937200D02*
X112734762Y-116984819D01*
X112734762Y-116984819D02*
X112925238Y-116984819D01*
X112925238Y-116984819D02*
X113020476Y-116937200D01*
X113020476Y-116937200D02*
X113068095Y-116889580D01*
X113068095Y-116889580D02*
X113115714Y-116794342D01*
X113115714Y-116794342D02*
X113115714Y-116556247D01*
X113115714Y-116556247D02*
X113068095Y-116461009D01*
X113068095Y-116461009D02*
X113020476Y-116413390D01*
X113020476Y-116413390D02*
X112925238Y-116365771D01*
X112925238Y-116365771D02*
X112734762Y-116365771D01*
X112734762Y-116365771D02*
X112639524Y-116413390D01*
X112639524Y-116413390D02*
X112591905Y-116461009D01*
X112591905Y-116461009D02*
X112544286Y-116556247D01*
X115519533Y-85484580D02*
X115471914Y-85532200D01*
X115471914Y-85532200D02*
X115329057Y-85579819D01*
X115329057Y-85579819D02*
X115233819Y-85579819D01*
X115233819Y-85579819D02*
X115090962Y-85532200D01*
X115090962Y-85532200D02*
X114995724Y-85436961D01*
X114995724Y-85436961D02*
X114948105Y-85341723D01*
X114948105Y-85341723D02*
X114900486Y-85151247D01*
X114900486Y-85151247D02*
X114900486Y-85008390D01*
X114900486Y-85008390D02*
X114948105Y-84817914D01*
X114948105Y-84817914D02*
X114995724Y-84722676D01*
X114995724Y-84722676D02*
X115090962Y-84627438D01*
X115090962Y-84627438D02*
X115233819Y-84579819D01*
X115233819Y-84579819D02*
X115329057Y-84579819D01*
X115329057Y-84579819D02*
X115471914Y-84627438D01*
X115471914Y-84627438D02*
X115519533Y-84675057D01*
X116519533Y-85579819D02*
X116186200Y-85103628D01*
X115948105Y-85579819D02*
X115948105Y-84579819D01*
X115948105Y-84579819D02*
X116329057Y-84579819D01*
X116329057Y-84579819D02*
X116424295Y-84627438D01*
X116424295Y-84627438D02*
X116471914Y-84675057D01*
X116471914Y-84675057D02*
X116519533Y-84770295D01*
X116519533Y-84770295D02*
X116519533Y-84913152D01*
X116519533Y-84913152D02*
X116471914Y-85008390D01*
X116471914Y-85008390D02*
X116424295Y-85056009D01*
X116424295Y-85056009D02*
X116329057Y-85103628D01*
X116329057Y-85103628D02*
X115948105Y-85103628D01*
X117471914Y-85579819D02*
X116900486Y-85579819D01*
X117186200Y-85579819D02*
X117186200Y-84579819D01*
X117186200Y-84579819D02*
X117090962Y-84722676D01*
X117090962Y-84722676D02*
X116995724Y-84817914D01*
X116995724Y-84817914D02*
X116900486Y-84865533D01*
X111985833Y-128859580D02*
X111938214Y-128907200D01*
X111938214Y-128907200D02*
X111795357Y-128954819D01*
X111795357Y-128954819D02*
X111700119Y-128954819D01*
X111700119Y-128954819D02*
X111557262Y-128907200D01*
X111557262Y-128907200D02*
X111462024Y-128811961D01*
X111462024Y-128811961D02*
X111414405Y-128716723D01*
X111414405Y-128716723D02*
X111366786Y-128526247D01*
X111366786Y-128526247D02*
X111366786Y-128383390D01*
X111366786Y-128383390D02*
X111414405Y-128192914D01*
X111414405Y-128192914D02*
X111462024Y-128097676D01*
X111462024Y-128097676D02*
X111557262Y-128002438D01*
X111557262Y-128002438D02*
X111700119Y-127954819D01*
X111700119Y-127954819D02*
X111795357Y-127954819D01*
X111795357Y-127954819D02*
X111938214Y-128002438D01*
X111938214Y-128002438D02*
X111985833Y-128050057D01*
X112319167Y-127954819D02*
X112938214Y-127954819D01*
X112938214Y-127954819D02*
X112604881Y-128335771D01*
X112604881Y-128335771D02*
X112747738Y-128335771D01*
X112747738Y-128335771D02*
X112842976Y-128383390D01*
X112842976Y-128383390D02*
X112890595Y-128431009D01*
X112890595Y-128431009D02*
X112938214Y-128526247D01*
X112938214Y-128526247D02*
X112938214Y-128764342D01*
X112938214Y-128764342D02*
X112890595Y-128859580D01*
X112890595Y-128859580D02*
X112842976Y-128907200D01*
X112842976Y-128907200D02*
X112747738Y-128954819D01*
X112747738Y-128954819D02*
X112462024Y-128954819D01*
X112462024Y-128954819D02*
X112366786Y-128907200D01*
X112366786Y-128907200D02*
X112319167Y-128859580D01*
X131914819Y-65626666D02*
X131438628Y-65959999D01*
X131914819Y-66198094D02*
X130914819Y-66198094D01*
X130914819Y-66198094D02*
X130914819Y-65817142D01*
X130914819Y-65817142D02*
X130962438Y-65721904D01*
X130962438Y-65721904D02*
X131010057Y-65674285D01*
X131010057Y-65674285D02*
X131105295Y-65626666D01*
X131105295Y-65626666D02*
X131248152Y-65626666D01*
X131248152Y-65626666D02*
X131343390Y-65674285D01*
X131343390Y-65674285D02*
X131391009Y-65721904D01*
X131391009Y-65721904D02*
X131438628Y-65817142D01*
X131438628Y-65817142D02*
X131438628Y-66198094D01*
X130914819Y-65293332D02*
X130914819Y-64626666D01*
X130914819Y-64626666D02*
X131914819Y-65055237D01*
X76258095Y-53564819D02*
X76258095Y-54374342D01*
X76258095Y-54374342D02*
X76305714Y-54469580D01*
X76305714Y-54469580D02*
X76353333Y-54517200D01*
X76353333Y-54517200D02*
X76448571Y-54564819D01*
X76448571Y-54564819D02*
X76639047Y-54564819D01*
X76639047Y-54564819D02*
X76734285Y-54517200D01*
X76734285Y-54517200D02*
X76781904Y-54469580D01*
X76781904Y-54469580D02*
X76829523Y-54374342D01*
X76829523Y-54374342D02*
X76829523Y-53564819D01*
X77258095Y-53660057D02*
X77305714Y-53612438D01*
X77305714Y-53612438D02*
X77400952Y-53564819D01*
X77400952Y-53564819D02*
X77639047Y-53564819D01*
X77639047Y-53564819D02*
X77734285Y-53612438D01*
X77734285Y-53612438D02*
X77781904Y-53660057D01*
X77781904Y-53660057D02*
X77829523Y-53755295D01*
X77829523Y-53755295D02*
X77829523Y-53850533D01*
X77829523Y-53850533D02*
X77781904Y-53993390D01*
X77781904Y-53993390D02*
X77210476Y-54564819D01*
X77210476Y-54564819D02*
X77829523Y-54564819D01*
X85744819Y-66322857D02*
X85268628Y-66656190D01*
X85744819Y-66894285D02*
X84744819Y-66894285D01*
X84744819Y-66894285D02*
X84744819Y-66513333D01*
X84744819Y-66513333D02*
X84792438Y-66418095D01*
X84792438Y-66418095D02*
X84840057Y-66370476D01*
X84840057Y-66370476D02*
X84935295Y-66322857D01*
X84935295Y-66322857D02*
X85078152Y-66322857D01*
X85078152Y-66322857D02*
X85173390Y-66370476D01*
X85173390Y-66370476D02*
X85221009Y-66418095D01*
X85221009Y-66418095D02*
X85268628Y-66513333D01*
X85268628Y-66513333D02*
X85268628Y-66894285D01*
X85744819Y-65370476D02*
X85744819Y-65941904D01*
X85744819Y-65656190D02*
X84744819Y-65656190D01*
X84744819Y-65656190D02*
X84887676Y-65751428D01*
X84887676Y-65751428D02*
X84982914Y-65846666D01*
X84982914Y-65846666D02*
X85030533Y-65941904D01*
X84744819Y-65037142D02*
X84744819Y-64418095D01*
X84744819Y-64418095D02*
X85125771Y-64751428D01*
X85125771Y-64751428D02*
X85125771Y-64608571D01*
X85125771Y-64608571D02*
X85173390Y-64513333D01*
X85173390Y-64513333D02*
X85221009Y-64465714D01*
X85221009Y-64465714D02*
X85316247Y-64418095D01*
X85316247Y-64418095D02*
X85554342Y-64418095D01*
X85554342Y-64418095D02*
X85649580Y-64465714D01*
X85649580Y-64465714D02*
X85697200Y-64513333D01*
X85697200Y-64513333D02*
X85744819Y-64608571D01*
X85744819Y-64608571D02*
X85744819Y-64894285D01*
X85744819Y-64894285D02*
X85697200Y-64989523D01*
X85697200Y-64989523D02*
X85649580Y-65037142D01*
X131357142Y-107779580D02*
X131309523Y-107827200D01*
X131309523Y-107827200D02*
X131166666Y-107874819D01*
X131166666Y-107874819D02*
X131071428Y-107874819D01*
X131071428Y-107874819D02*
X130928571Y-107827200D01*
X130928571Y-107827200D02*
X130833333Y-107731961D01*
X130833333Y-107731961D02*
X130785714Y-107636723D01*
X130785714Y-107636723D02*
X130738095Y-107446247D01*
X130738095Y-107446247D02*
X130738095Y-107303390D01*
X130738095Y-107303390D02*
X130785714Y-107112914D01*
X130785714Y-107112914D02*
X130833333Y-107017676D01*
X130833333Y-107017676D02*
X130928571Y-106922438D01*
X130928571Y-106922438D02*
X131071428Y-106874819D01*
X131071428Y-106874819D02*
X131166666Y-106874819D01*
X131166666Y-106874819D02*
X131309523Y-106922438D01*
X131309523Y-106922438D02*
X131357142Y-106970057D01*
X132309523Y-107874819D02*
X131738095Y-107874819D01*
X132023809Y-107874819D02*
X132023809Y-106874819D01*
X132023809Y-106874819D02*
X131928571Y-107017676D01*
X131928571Y-107017676D02*
X131833333Y-107112914D01*
X131833333Y-107112914D02*
X131738095Y-107160533D01*
X132928571Y-106874819D02*
X133023809Y-106874819D01*
X133023809Y-106874819D02*
X133119047Y-106922438D01*
X133119047Y-106922438D02*
X133166666Y-106970057D01*
X133166666Y-106970057D02*
X133214285Y-107065295D01*
X133214285Y-107065295D02*
X133261904Y-107255771D01*
X133261904Y-107255771D02*
X133261904Y-107493866D01*
X133261904Y-107493866D02*
X133214285Y-107684342D01*
X133214285Y-107684342D02*
X133166666Y-107779580D01*
X133166666Y-107779580D02*
X133119047Y-107827200D01*
X133119047Y-107827200D02*
X133023809Y-107874819D01*
X133023809Y-107874819D02*
X132928571Y-107874819D01*
X132928571Y-107874819D02*
X132833333Y-107827200D01*
X132833333Y-107827200D02*
X132785714Y-107779580D01*
X132785714Y-107779580D02*
X132738095Y-107684342D01*
X132738095Y-107684342D02*
X132690476Y-107493866D01*
X132690476Y-107493866D02*
X132690476Y-107255771D01*
X132690476Y-107255771D02*
X132738095Y-107065295D01*
X132738095Y-107065295D02*
X132785714Y-106970057D01*
X132785714Y-106970057D02*
X132833333Y-106922438D01*
X132833333Y-106922438D02*
X132928571Y-106874819D01*
X114861343Y-52530819D02*
X114861343Y-53340342D01*
X114861343Y-53340342D02*
X114908962Y-53435580D01*
X114908962Y-53435580D02*
X114956581Y-53483200D01*
X114956581Y-53483200D02*
X115051819Y-53530819D01*
X115051819Y-53530819D02*
X115242295Y-53530819D01*
X115242295Y-53530819D02*
X115337533Y-53483200D01*
X115337533Y-53483200D02*
X115385152Y-53435580D01*
X115385152Y-53435580D02*
X115432771Y-53340342D01*
X115432771Y-53340342D02*
X115432771Y-52530819D01*
X115861343Y-53483200D02*
X116004200Y-53530819D01*
X116004200Y-53530819D02*
X116242295Y-53530819D01*
X116242295Y-53530819D02*
X116337533Y-53483200D01*
X116337533Y-53483200D02*
X116385152Y-53435580D01*
X116385152Y-53435580D02*
X116432771Y-53340342D01*
X116432771Y-53340342D02*
X116432771Y-53245104D01*
X116432771Y-53245104D02*
X116385152Y-53149866D01*
X116385152Y-53149866D02*
X116337533Y-53102247D01*
X116337533Y-53102247D02*
X116242295Y-53054628D01*
X116242295Y-53054628D02*
X116051819Y-53007009D01*
X116051819Y-53007009D02*
X115956581Y-52959390D01*
X115956581Y-52959390D02*
X115908962Y-52911771D01*
X115908962Y-52911771D02*
X115861343Y-52816533D01*
X115861343Y-52816533D02*
X115861343Y-52721295D01*
X115861343Y-52721295D02*
X115908962Y-52626057D01*
X115908962Y-52626057D02*
X115956581Y-52578438D01*
X115956581Y-52578438D02*
X116051819Y-52530819D01*
X116051819Y-52530819D02*
X116289914Y-52530819D01*
X116289914Y-52530819D02*
X116432771Y-52578438D01*
X117194676Y-53007009D02*
X117337533Y-53054628D01*
X117337533Y-53054628D02*
X117385152Y-53102247D01*
X117385152Y-53102247D02*
X117432771Y-53197485D01*
X117432771Y-53197485D02*
X117432771Y-53340342D01*
X117432771Y-53340342D02*
X117385152Y-53435580D01*
X117385152Y-53435580D02*
X117337533Y-53483200D01*
X117337533Y-53483200D02*
X117242295Y-53530819D01*
X117242295Y-53530819D02*
X116861343Y-53530819D01*
X116861343Y-53530819D02*
X116861343Y-52530819D01*
X116861343Y-52530819D02*
X117194676Y-52530819D01*
X117194676Y-52530819D02*
X117289914Y-52578438D01*
X117289914Y-52578438D02*
X117337533Y-52626057D01*
X117337533Y-52626057D02*
X117385152Y-52721295D01*
X117385152Y-52721295D02*
X117385152Y-52816533D01*
X117385152Y-52816533D02*
X117337533Y-52911771D01*
X117337533Y-52911771D02*
X117289914Y-52959390D01*
X117289914Y-52959390D02*
X117194676Y-53007009D01*
X117194676Y-53007009D02*
X116861343Y-53007009D01*
X83906666Y-108594819D02*
X83906666Y-109309104D01*
X83906666Y-109309104D02*
X83859047Y-109451961D01*
X83859047Y-109451961D02*
X83763809Y-109547200D01*
X83763809Y-109547200D02*
X83620952Y-109594819D01*
X83620952Y-109594819D02*
X83525714Y-109594819D01*
X84430476Y-109594819D02*
X84620952Y-109594819D01*
X84620952Y-109594819D02*
X84716190Y-109547200D01*
X84716190Y-109547200D02*
X84763809Y-109499580D01*
X84763809Y-109499580D02*
X84859047Y-109356723D01*
X84859047Y-109356723D02*
X84906666Y-109166247D01*
X84906666Y-109166247D02*
X84906666Y-108785295D01*
X84906666Y-108785295D02*
X84859047Y-108690057D01*
X84859047Y-108690057D02*
X84811428Y-108642438D01*
X84811428Y-108642438D02*
X84716190Y-108594819D01*
X84716190Y-108594819D02*
X84525714Y-108594819D01*
X84525714Y-108594819D02*
X84430476Y-108642438D01*
X84430476Y-108642438D02*
X84382857Y-108690057D01*
X84382857Y-108690057D02*
X84335238Y-108785295D01*
X84335238Y-108785295D02*
X84335238Y-109023390D01*
X84335238Y-109023390D02*
X84382857Y-109118628D01*
X84382857Y-109118628D02*
X84430476Y-109166247D01*
X84430476Y-109166247D02*
X84525714Y-109213866D01*
X84525714Y-109213866D02*
X84716190Y-109213866D01*
X84716190Y-109213866D02*
X84811428Y-109166247D01*
X84811428Y-109166247D02*
X84859047Y-109118628D01*
X84859047Y-109118628D02*
X84906666Y-109023390D01*
D15*
X93466667Y-93254318D02*
X93466667Y-94161461D01*
X93466667Y-94161461D02*
X93406190Y-94342889D01*
X93406190Y-94342889D02*
X93285238Y-94463842D01*
X93285238Y-94463842D02*
X93103809Y-94524318D01*
X93103809Y-94524318D02*
X92982857Y-94524318D01*
X94676190Y-93254318D02*
X94071428Y-93254318D01*
X94071428Y-93254318D02*
X94010952Y-93859080D01*
X94010952Y-93859080D02*
X94071428Y-93798603D01*
X94071428Y-93798603D02*
X94192381Y-93738127D01*
X94192381Y-93738127D02*
X94494762Y-93738127D01*
X94494762Y-93738127D02*
X94615714Y-93798603D01*
X94615714Y-93798603D02*
X94676190Y-93859080D01*
X94676190Y-93859080D02*
X94736667Y-93980032D01*
X94736667Y-93980032D02*
X94736667Y-94282413D01*
X94736667Y-94282413D02*
X94676190Y-94403365D01*
X94676190Y-94403365D02*
X94615714Y-94463842D01*
X94615714Y-94463842D02*
X94494762Y-94524318D01*
X94494762Y-94524318D02*
X94192381Y-94524318D01*
X94192381Y-94524318D02*
X94071428Y-94463842D01*
X94071428Y-94463842D02*
X94010952Y-94403365D01*
D11*
X106983333Y-96594819D02*
X106650000Y-96118628D01*
X106411905Y-96594819D02*
X106411905Y-95594819D01*
X106411905Y-95594819D02*
X106792857Y-95594819D01*
X106792857Y-95594819D02*
X106888095Y-95642438D01*
X106888095Y-95642438D02*
X106935714Y-95690057D01*
X106935714Y-95690057D02*
X106983333Y-95785295D01*
X106983333Y-95785295D02*
X106983333Y-95928152D01*
X106983333Y-95928152D02*
X106935714Y-96023390D01*
X106935714Y-96023390D02*
X106888095Y-96071009D01*
X106888095Y-96071009D02*
X106792857Y-96118628D01*
X106792857Y-96118628D02*
X106411905Y-96118628D01*
X107459524Y-96594819D02*
X107650000Y-96594819D01*
X107650000Y-96594819D02*
X107745238Y-96547200D01*
X107745238Y-96547200D02*
X107792857Y-96499580D01*
X107792857Y-96499580D02*
X107888095Y-96356723D01*
X107888095Y-96356723D02*
X107935714Y-96166247D01*
X107935714Y-96166247D02*
X107935714Y-95785295D01*
X107935714Y-95785295D02*
X107888095Y-95690057D01*
X107888095Y-95690057D02*
X107840476Y-95642438D01*
X107840476Y-95642438D02*
X107745238Y-95594819D01*
X107745238Y-95594819D02*
X107554762Y-95594819D01*
X107554762Y-95594819D02*
X107459524Y-95642438D01*
X107459524Y-95642438D02*
X107411905Y-95690057D01*
X107411905Y-95690057D02*
X107364286Y-95785295D01*
X107364286Y-95785295D02*
X107364286Y-96023390D01*
X107364286Y-96023390D02*
X107411905Y-96118628D01*
X107411905Y-96118628D02*
X107459524Y-96166247D01*
X107459524Y-96166247D02*
X107554762Y-96213866D01*
X107554762Y-96213866D02*
X107745238Y-96213866D01*
X107745238Y-96213866D02*
X107840476Y-96166247D01*
X107840476Y-96166247D02*
X107888095Y-96118628D01*
X107888095Y-96118628D02*
X107935714Y-96023390D01*
X76803333Y-87339580D02*
X76755714Y-87387200D01*
X76755714Y-87387200D02*
X76612857Y-87434819D01*
X76612857Y-87434819D02*
X76517619Y-87434819D01*
X76517619Y-87434819D02*
X76374762Y-87387200D01*
X76374762Y-87387200D02*
X76279524Y-87291961D01*
X76279524Y-87291961D02*
X76231905Y-87196723D01*
X76231905Y-87196723D02*
X76184286Y-87006247D01*
X76184286Y-87006247D02*
X76184286Y-86863390D01*
X76184286Y-86863390D02*
X76231905Y-86672914D01*
X76231905Y-86672914D02*
X76279524Y-86577676D01*
X76279524Y-86577676D02*
X76374762Y-86482438D01*
X76374762Y-86482438D02*
X76517619Y-86434819D01*
X76517619Y-86434819D02*
X76612857Y-86434819D01*
X76612857Y-86434819D02*
X76755714Y-86482438D01*
X76755714Y-86482438D02*
X76803333Y-86530057D01*
X77660476Y-86768152D02*
X77660476Y-87434819D01*
X77422381Y-86387200D02*
X77184286Y-87101485D01*
X77184286Y-87101485D02*
X77803333Y-87101485D01*
X138387200Y-51153332D02*
X138434819Y-51010475D01*
X138434819Y-51010475D02*
X138434819Y-50772380D01*
X138434819Y-50772380D02*
X138387200Y-50677142D01*
X138387200Y-50677142D02*
X138339580Y-50629523D01*
X138339580Y-50629523D02*
X138244342Y-50581904D01*
X138244342Y-50581904D02*
X138149104Y-50581904D01*
X138149104Y-50581904D02*
X138053866Y-50629523D01*
X138053866Y-50629523D02*
X138006247Y-50677142D01*
X138006247Y-50677142D02*
X137958628Y-50772380D01*
X137958628Y-50772380D02*
X137911009Y-50962856D01*
X137911009Y-50962856D02*
X137863390Y-51058094D01*
X137863390Y-51058094D02*
X137815771Y-51105713D01*
X137815771Y-51105713D02*
X137720533Y-51153332D01*
X137720533Y-51153332D02*
X137625295Y-51153332D01*
X137625295Y-51153332D02*
X137530057Y-51105713D01*
X137530057Y-51105713D02*
X137482438Y-51058094D01*
X137482438Y-51058094D02*
X137434819Y-50962856D01*
X137434819Y-50962856D02*
X137434819Y-50724761D01*
X137434819Y-50724761D02*
X137482438Y-50581904D01*
X137434819Y-50248570D02*
X138434819Y-50010475D01*
X138434819Y-50010475D02*
X137720533Y-49819999D01*
X137720533Y-49819999D02*
X138434819Y-49629523D01*
X138434819Y-49629523D02*
X137434819Y-49391428D01*
X138434819Y-48486666D02*
X138434819Y-49058094D01*
X138434819Y-48772380D02*
X137434819Y-48772380D01*
X137434819Y-48772380D02*
X137577676Y-48867618D01*
X137577676Y-48867618D02*
X137672914Y-48962856D01*
X137672914Y-48962856D02*
X137720533Y-49058094D01*
X82874819Y-66292857D02*
X82398628Y-66626190D01*
X82874819Y-66864285D02*
X81874819Y-66864285D01*
X81874819Y-66864285D02*
X81874819Y-66483333D01*
X81874819Y-66483333D02*
X81922438Y-66388095D01*
X81922438Y-66388095D02*
X81970057Y-66340476D01*
X81970057Y-66340476D02*
X82065295Y-66292857D01*
X82065295Y-66292857D02*
X82208152Y-66292857D01*
X82208152Y-66292857D02*
X82303390Y-66340476D01*
X82303390Y-66340476D02*
X82351009Y-66388095D01*
X82351009Y-66388095D02*
X82398628Y-66483333D01*
X82398628Y-66483333D02*
X82398628Y-66864285D01*
X82874819Y-65340476D02*
X82874819Y-65911904D01*
X82874819Y-65626190D02*
X81874819Y-65626190D01*
X81874819Y-65626190D02*
X82017676Y-65721428D01*
X82017676Y-65721428D02*
X82112914Y-65816666D01*
X82112914Y-65816666D02*
X82160533Y-65911904D01*
X82208152Y-64483333D02*
X82874819Y-64483333D01*
X81827200Y-64721428D02*
X82541485Y-64959523D01*
X82541485Y-64959523D02*
X82541485Y-64340476D01*
X144396666Y-128414819D02*
X144396666Y-129129104D01*
X144396666Y-129129104D02*
X144349047Y-129271961D01*
X144349047Y-129271961D02*
X144253809Y-129367200D01*
X144253809Y-129367200D02*
X144110952Y-129414819D01*
X144110952Y-129414819D02*
X144015714Y-129414819D01*
X144872857Y-129414819D02*
X144872857Y-128414819D01*
X144872857Y-128414819D02*
X145253809Y-128414819D01*
X145253809Y-128414819D02*
X145349047Y-128462438D01*
X145349047Y-128462438D02*
X145396666Y-128510057D01*
X145396666Y-128510057D02*
X145444285Y-128605295D01*
X145444285Y-128605295D02*
X145444285Y-128748152D01*
X145444285Y-128748152D02*
X145396666Y-128843390D01*
X145396666Y-128843390D02*
X145349047Y-128891009D01*
X145349047Y-128891009D02*
X145253809Y-128938628D01*
X145253809Y-128938628D02*
X144872857Y-128938628D01*
X146301428Y-128748152D02*
X146301428Y-129414819D01*
X146063333Y-128367200D02*
X145825238Y-129081485D01*
X145825238Y-129081485D02*
X146444285Y-129081485D01*
X100614819Y-52406666D02*
X100138628Y-52739999D01*
X100614819Y-52978094D02*
X99614819Y-52978094D01*
X99614819Y-52978094D02*
X99614819Y-52597142D01*
X99614819Y-52597142D02*
X99662438Y-52501904D01*
X99662438Y-52501904D02*
X99710057Y-52454285D01*
X99710057Y-52454285D02*
X99805295Y-52406666D01*
X99805295Y-52406666D02*
X99948152Y-52406666D01*
X99948152Y-52406666D02*
X100043390Y-52454285D01*
X100043390Y-52454285D02*
X100091009Y-52501904D01*
X100091009Y-52501904D02*
X100138628Y-52597142D01*
X100138628Y-52597142D02*
X100138628Y-52978094D01*
X99614819Y-52073332D02*
X99614819Y-51454285D01*
X99614819Y-51454285D02*
X99995771Y-51787618D01*
X99995771Y-51787618D02*
X99995771Y-51644761D01*
X99995771Y-51644761D02*
X100043390Y-51549523D01*
X100043390Y-51549523D02*
X100091009Y-51501904D01*
X100091009Y-51501904D02*
X100186247Y-51454285D01*
X100186247Y-51454285D02*
X100424342Y-51454285D01*
X100424342Y-51454285D02*
X100519580Y-51501904D01*
X100519580Y-51501904D02*
X100567200Y-51549523D01*
X100567200Y-51549523D02*
X100614819Y-51644761D01*
X100614819Y-51644761D02*
X100614819Y-51930475D01*
X100614819Y-51930475D02*
X100567200Y-52025713D01*
X100567200Y-52025713D02*
X100519580Y-52073332D01*
X76783333Y-84779580D02*
X76735714Y-84827200D01*
X76735714Y-84827200D02*
X76592857Y-84874819D01*
X76592857Y-84874819D02*
X76497619Y-84874819D01*
X76497619Y-84874819D02*
X76354762Y-84827200D01*
X76354762Y-84827200D02*
X76259524Y-84731961D01*
X76259524Y-84731961D02*
X76211905Y-84636723D01*
X76211905Y-84636723D02*
X76164286Y-84446247D01*
X76164286Y-84446247D02*
X76164286Y-84303390D01*
X76164286Y-84303390D02*
X76211905Y-84112914D01*
X76211905Y-84112914D02*
X76259524Y-84017676D01*
X76259524Y-84017676D02*
X76354762Y-83922438D01*
X76354762Y-83922438D02*
X76497619Y-83874819D01*
X76497619Y-83874819D02*
X76592857Y-83874819D01*
X76592857Y-83874819D02*
X76735714Y-83922438D01*
X76735714Y-83922438D02*
X76783333Y-83970057D01*
X77164286Y-83970057D02*
X77211905Y-83922438D01*
X77211905Y-83922438D02*
X77307143Y-83874819D01*
X77307143Y-83874819D02*
X77545238Y-83874819D01*
X77545238Y-83874819D02*
X77640476Y-83922438D01*
X77640476Y-83922438D02*
X77688095Y-83970057D01*
X77688095Y-83970057D02*
X77735714Y-84065295D01*
X77735714Y-84065295D02*
X77735714Y-84160533D01*
X77735714Y-84160533D02*
X77688095Y-84303390D01*
X77688095Y-84303390D02*
X77116667Y-84874819D01*
X77116667Y-84874819D02*
X77735714Y-84874819D01*
X106883333Y-99884819D02*
X106550000Y-99408628D01*
X106311905Y-99884819D02*
X106311905Y-98884819D01*
X106311905Y-98884819D02*
X106692857Y-98884819D01*
X106692857Y-98884819D02*
X106788095Y-98932438D01*
X106788095Y-98932438D02*
X106835714Y-98980057D01*
X106835714Y-98980057D02*
X106883333Y-99075295D01*
X106883333Y-99075295D02*
X106883333Y-99218152D01*
X106883333Y-99218152D02*
X106835714Y-99313390D01*
X106835714Y-99313390D02*
X106788095Y-99361009D01*
X106788095Y-99361009D02*
X106692857Y-99408628D01*
X106692857Y-99408628D02*
X106311905Y-99408628D01*
X107454762Y-99313390D02*
X107359524Y-99265771D01*
X107359524Y-99265771D02*
X107311905Y-99218152D01*
X107311905Y-99218152D02*
X107264286Y-99122914D01*
X107264286Y-99122914D02*
X107264286Y-99075295D01*
X107264286Y-99075295D02*
X107311905Y-98980057D01*
X107311905Y-98980057D02*
X107359524Y-98932438D01*
X107359524Y-98932438D02*
X107454762Y-98884819D01*
X107454762Y-98884819D02*
X107645238Y-98884819D01*
X107645238Y-98884819D02*
X107740476Y-98932438D01*
X107740476Y-98932438D02*
X107788095Y-98980057D01*
X107788095Y-98980057D02*
X107835714Y-99075295D01*
X107835714Y-99075295D02*
X107835714Y-99122914D01*
X107835714Y-99122914D02*
X107788095Y-99218152D01*
X107788095Y-99218152D02*
X107740476Y-99265771D01*
X107740476Y-99265771D02*
X107645238Y-99313390D01*
X107645238Y-99313390D02*
X107454762Y-99313390D01*
X107454762Y-99313390D02*
X107359524Y-99361009D01*
X107359524Y-99361009D02*
X107311905Y-99408628D01*
X107311905Y-99408628D02*
X107264286Y-99503866D01*
X107264286Y-99503866D02*
X107264286Y-99694342D01*
X107264286Y-99694342D02*
X107311905Y-99789580D01*
X107311905Y-99789580D02*
X107359524Y-99837200D01*
X107359524Y-99837200D02*
X107454762Y-99884819D01*
X107454762Y-99884819D02*
X107645238Y-99884819D01*
X107645238Y-99884819D02*
X107740476Y-99837200D01*
X107740476Y-99837200D02*
X107788095Y-99789580D01*
X107788095Y-99789580D02*
X107835714Y-99694342D01*
X107835714Y-99694342D02*
X107835714Y-99503866D01*
X107835714Y-99503866D02*
X107788095Y-99408628D01*
X107788095Y-99408628D02*
X107740476Y-99361009D01*
X107740476Y-99361009D02*
X107645238Y-99313390D01*
X138353333Y-63894819D02*
X138020000Y-63418628D01*
X137781905Y-63894819D02*
X137781905Y-62894819D01*
X137781905Y-62894819D02*
X138162857Y-62894819D01*
X138162857Y-62894819D02*
X138258095Y-62942438D01*
X138258095Y-62942438D02*
X138305714Y-62990057D01*
X138305714Y-62990057D02*
X138353333Y-63085295D01*
X138353333Y-63085295D02*
X138353333Y-63228152D01*
X138353333Y-63228152D02*
X138305714Y-63323390D01*
X138305714Y-63323390D02*
X138258095Y-63371009D01*
X138258095Y-63371009D02*
X138162857Y-63418628D01*
X138162857Y-63418628D02*
X137781905Y-63418628D01*
X139210476Y-63228152D02*
X139210476Y-63894819D01*
X138972381Y-62847200D02*
X138734286Y-63561485D01*
X138734286Y-63561485D02*
X139353333Y-63561485D01*
X109593333Y-102799580D02*
X109545714Y-102847200D01*
X109545714Y-102847200D02*
X109402857Y-102894819D01*
X109402857Y-102894819D02*
X109307619Y-102894819D01*
X109307619Y-102894819D02*
X109164762Y-102847200D01*
X109164762Y-102847200D02*
X109069524Y-102751961D01*
X109069524Y-102751961D02*
X109021905Y-102656723D01*
X109021905Y-102656723D02*
X108974286Y-102466247D01*
X108974286Y-102466247D02*
X108974286Y-102323390D01*
X108974286Y-102323390D02*
X109021905Y-102132914D01*
X109021905Y-102132914D02*
X109069524Y-102037676D01*
X109069524Y-102037676D02*
X109164762Y-101942438D01*
X109164762Y-101942438D02*
X109307619Y-101894819D01*
X109307619Y-101894819D02*
X109402857Y-101894819D01*
X109402857Y-101894819D02*
X109545714Y-101942438D01*
X109545714Y-101942438D02*
X109593333Y-101990057D01*
X110164762Y-102323390D02*
X110069524Y-102275771D01*
X110069524Y-102275771D02*
X110021905Y-102228152D01*
X110021905Y-102228152D02*
X109974286Y-102132914D01*
X109974286Y-102132914D02*
X109974286Y-102085295D01*
X109974286Y-102085295D02*
X110021905Y-101990057D01*
X110021905Y-101990057D02*
X110069524Y-101942438D01*
X110069524Y-101942438D02*
X110164762Y-101894819D01*
X110164762Y-101894819D02*
X110355238Y-101894819D01*
X110355238Y-101894819D02*
X110450476Y-101942438D01*
X110450476Y-101942438D02*
X110498095Y-101990057D01*
X110498095Y-101990057D02*
X110545714Y-102085295D01*
X110545714Y-102085295D02*
X110545714Y-102132914D01*
X110545714Y-102132914D02*
X110498095Y-102228152D01*
X110498095Y-102228152D02*
X110450476Y-102275771D01*
X110450476Y-102275771D02*
X110355238Y-102323390D01*
X110355238Y-102323390D02*
X110164762Y-102323390D01*
X110164762Y-102323390D02*
X110069524Y-102371009D01*
X110069524Y-102371009D02*
X110021905Y-102418628D01*
X110021905Y-102418628D02*
X109974286Y-102513866D01*
X109974286Y-102513866D02*
X109974286Y-102704342D01*
X109974286Y-102704342D02*
X110021905Y-102799580D01*
X110021905Y-102799580D02*
X110069524Y-102847200D01*
X110069524Y-102847200D02*
X110164762Y-102894819D01*
X110164762Y-102894819D02*
X110355238Y-102894819D01*
X110355238Y-102894819D02*
X110450476Y-102847200D01*
X110450476Y-102847200D02*
X110498095Y-102799580D01*
X110498095Y-102799580D02*
X110545714Y-102704342D01*
X110545714Y-102704342D02*
X110545714Y-102513866D01*
X110545714Y-102513866D02*
X110498095Y-102418628D01*
X110498095Y-102418628D02*
X110450476Y-102371009D01*
X110450476Y-102371009D02*
X110355238Y-102323390D01*
X148546666Y-128414819D02*
X148546666Y-129129104D01*
X148546666Y-129129104D02*
X148499047Y-129271961D01*
X148499047Y-129271961D02*
X148403809Y-129367200D01*
X148403809Y-129367200D02*
X148260952Y-129414819D01*
X148260952Y-129414819D02*
X148165714Y-129414819D01*
X149022857Y-129414819D02*
X149022857Y-128414819D01*
X149022857Y-128414819D02*
X149403809Y-128414819D01*
X149403809Y-128414819D02*
X149499047Y-128462438D01*
X149499047Y-128462438D02*
X149546666Y-128510057D01*
X149546666Y-128510057D02*
X149594285Y-128605295D01*
X149594285Y-128605295D02*
X149594285Y-128748152D01*
X149594285Y-128748152D02*
X149546666Y-128843390D01*
X149546666Y-128843390D02*
X149499047Y-128891009D01*
X149499047Y-128891009D02*
X149403809Y-128938628D01*
X149403809Y-128938628D02*
X149022857Y-128938628D01*
X149927619Y-128414819D02*
X150546666Y-128414819D01*
X150546666Y-128414819D02*
X150213333Y-128795771D01*
X150213333Y-128795771D02*
X150356190Y-128795771D01*
X150356190Y-128795771D02*
X150451428Y-128843390D01*
X150451428Y-128843390D02*
X150499047Y-128891009D01*
X150499047Y-128891009D02*
X150546666Y-128986247D01*
X150546666Y-128986247D02*
X150546666Y-129224342D01*
X150546666Y-129224342D02*
X150499047Y-129319580D01*
X150499047Y-129319580D02*
X150451428Y-129367200D01*
X150451428Y-129367200D02*
X150356190Y-129414819D01*
X150356190Y-129414819D02*
X150070476Y-129414819D01*
X150070476Y-129414819D02*
X149975238Y-129367200D01*
X149975238Y-129367200D02*
X149927619Y-129319580D01*
X141133333Y-61664819D02*
X140800000Y-61188628D01*
X140561905Y-61664819D02*
X140561905Y-60664819D01*
X140561905Y-60664819D02*
X140942857Y-60664819D01*
X140942857Y-60664819D02*
X141038095Y-60712438D01*
X141038095Y-60712438D02*
X141085714Y-60760057D01*
X141085714Y-60760057D02*
X141133333Y-60855295D01*
X141133333Y-60855295D02*
X141133333Y-60998152D01*
X141133333Y-60998152D02*
X141085714Y-61093390D01*
X141085714Y-61093390D02*
X141038095Y-61141009D01*
X141038095Y-61141009D02*
X140942857Y-61188628D01*
X140942857Y-61188628D02*
X140561905Y-61188628D01*
X142085714Y-61664819D02*
X141514286Y-61664819D01*
X141800000Y-61664819D02*
X141800000Y-60664819D01*
X141800000Y-60664819D02*
X141704762Y-60807676D01*
X141704762Y-60807676D02*
X141609524Y-60902914D01*
X141609524Y-60902914D02*
X141514286Y-60950533D01*
D10*
X131880137Y-96635984D02*
X132594422Y-96635984D01*
X132594422Y-96635984D02*
X132737279Y-96683603D01*
X132737279Y-96683603D02*
X132832518Y-96778841D01*
X132832518Y-96778841D02*
X132880137Y-96921698D01*
X132880137Y-96921698D02*
X132880137Y-97016936D01*
X132880137Y-95635984D02*
X132880137Y-96207412D01*
X132880137Y-95921698D02*
X131880137Y-95921698D01*
X131880137Y-95921698D02*
X132022994Y-96016936D01*
X132022994Y-96016936D02*
X132118232Y-96112174D01*
X132118232Y-96112174D02*
X132165851Y-96207412D01*
D16*
%TO.C,IC1*%
X115734748Y-100245000D02*
X115734748Y-103045000D01*
X115734748Y-117845000D02*
X115734748Y-120645000D01*
X115734748Y-127445000D02*
X115734748Y-130645000D01*
X115734748Y-130645000D02*
X122034748Y-130645000D01*
X122034748Y-100245000D02*
X115734748Y-100245000D01*
X125134748Y-103445000D02*
X125134748Y-102245000D01*
X125134748Y-121045000D02*
X125134748Y-118245000D01*
X125134748Y-128645000D02*
X125134748Y-127845000D01*
%TO.C,JP2*%
X133090000Y-60240000D02*
X133090000Y-57640000D01*
X135750000Y-57640000D02*
X133090000Y-57640000D01*
X135750000Y-60240000D02*
X133090000Y-60240000D01*
X135750000Y-60240000D02*
X135750000Y-57640000D01*
X135750000Y-61510000D02*
X135750000Y-62840000D01*
X135750000Y-62840000D02*
X134420000Y-62840000D01*
%TO.C,C7*%
X112055000Y-93218748D02*
X112055000Y-93741252D01*
X113525000Y-93218748D02*
X113525000Y-93741252D01*
%TO.C,J4*%
X94240000Y-110610000D02*
X94240000Y-113260000D01*
X94240000Y-110610000D02*
X100090000Y-110610000D01*
X94240000Y-113510000D02*
X94240000Y-114110000D01*
X94240000Y-114360000D02*
X94240000Y-117860000D01*
X94240000Y-118110000D02*
X94240000Y-118710000D01*
X94240000Y-119010000D02*
X94240000Y-121660000D01*
X94240000Y-121660000D02*
X100090000Y-121660000D01*
X97540000Y-110110000D02*
X100540000Y-110110000D01*
X100090000Y-110610000D02*
X100090000Y-121660000D01*
X100540000Y-110110000D02*
X100540000Y-113110000D01*
%TO.C,C1*%
X112945300Y-104138200D02*
X112422796Y-104138200D01*
X112945300Y-105608200D02*
X112422796Y-105608200D01*
%TO.C,R6*%
X130865000Y-90017064D02*
X130865000Y-89562936D01*
X132335000Y-90017064D02*
X132335000Y-89562936D01*
%TO.C,R10*%
X89475000Y-62077064D02*
X89475000Y-61622936D01*
X90945000Y-62077064D02*
X90945000Y-61622936D01*
%TO.C,R12*%
X86545000Y-62057064D02*
X86545000Y-61602936D01*
X88015000Y-62057064D02*
X88015000Y-61602936D01*
%TO.C,J7*%
X126983249Y-54307948D02*
X128313249Y-54307948D01*
X126983249Y-55637948D02*
X126983249Y-54307948D01*
X126983249Y-56907948D02*
X126983249Y-92527948D01*
X126983249Y-56907948D02*
X129643249Y-56907948D01*
X126983249Y-92527948D02*
X129643249Y-92527948D01*
X129643249Y-56907948D02*
X129643249Y-92527948D01*
%TO.C,R2*%
X94075000Y-51972936D02*
X94075000Y-52427064D01*
X95545000Y-51972936D02*
X95545000Y-52427064D01*
%TO.C,J2*%
X102853248Y-54296000D02*
X104183248Y-54296000D01*
X102853248Y-55626000D02*
X102853248Y-54296000D01*
X102853248Y-56896000D02*
X102853248Y-92516000D01*
X102853248Y-56896000D02*
X105513248Y-56896000D01*
X102853248Y-92516000D02*
X105513248Y-92516000D01*
X105513248Y-56896000D02*
X105513248Y-92516000D01*
%TO.C,C9*%
X114295000Y-93228748D02*
X114295000Y-93751252D01*
X115765000Y-93228748D02*
X115765000Y-93751252D01*
D17*
%TO.C,G\u002A\u002A\u002A*%
G36*
X73236439Y-57072023D02*
G01*
X73307149Y-57097330D01*
X73321619Y-57104785D01*
X73381121Y-57148218D01*
X73427345Y-57206234D01*
X73460272Y-57278437D01*
X73479883Y-57364432D01*
X73486161Y-57463823D01*
X73479085Y-57576215D01*
X73458638Y-57701211D01*
X73424801Y-57838417D01*
X73377555Y-57987437D01*
X73364841Y-58023202D01*
X73339493Y-58089443D01*
X73306079Y-58170850D01*
X73265725Y-58264819D01*
X73219558Y-58368745D01*
X73168702Y-58480025D01*
X73149644Y-58520997D01*
X73137358Y-58540169D01*
X73125894Y-58547608D01*
X73113053Y-58542326D01*
X73087541Y-58528883D01*
X73053706Y-58509630D01*
X73032954Y-58497315D01*
X72950908Y-58447922D01*
X72996532Y-58350656D01*
X73070127Y-58187304D01*
X73133175Y-58033741D01*
X73185368Y-57890951D01*
X73226399Y-57759919D01*
X73255960Y-57641628D01*
X73273743Y-57537062D01*
X73279439Y-57447205D01*
X73279435Y-57446503D01*
X73276706Y-57384366D01*
X73268656Y-57338137D01*
X73254049Y-57304135D01*
X73231644Y-57278680D01*
X73220000Y-57269916D01*
X73200716Y-57258210D01*
X73181731Y-57251532D01*
X73157171Y-57248929D01*
X73121165Y-57249449D01*
X73100000Y-57250429D01*
X73030015Y-57258968D01*
X72950959Y-57278158D01*
X72862153Y-57308334D01*
X72762916Y-57349833D01*
X72652568Y-57402988D01*
X72530430Y-57468136D01*
X72395822Y-57545611D01*
X72248063Y-57635749D01*
X72086475Y-57738886D01*
X72016266Y-57784876D01*
X71957638Y-57823316D01*
X71904664Y-57857616D01*
X71859567Y-57886373D01*
X71824572Y-57908182D01*
X71801902Y-57921637D01*
X71793813Y-57925408D01*
X71799459Y-57917652D01*
X71817920Y-57898751D01*
X71846964Y-57870745D01*
X71884363Y-57835673D01*
X71927884Y-57795572D01*
X71975297Y-57752482D01*
X72024371Y-57708441D01*
X72072876Y-57665487D01*
X72118582Y-57625660D01*
X72159256Y-57590997D01*
X72165000Y-57586190D01*
X72316677Y-57464515D01*
X72461545Y-57358206D01*
X72598683Y-57267897D01*
X72727172Y-57194221D01*
X72759766Y-57177508D01*
X72875013Y-57125022D01*
X72979254Y-57088366D01*
X73073540Y-57067405D01*
X73158919Y-57062002D01*
X73236439Y-57072023D01*
G37*
G36*
X70704984Y-57802865D02*
G01*
X70988282Y-57821292D01*
X71250000Y-57853079D01*
X71521894Y-57902581D01*
X71796895Y-57969358D01*
X72070482Y-58052185D01*
X72320000Y-58142669D01*
X72366794Y-58161975D01*
X72425178Y-58187480D01*
X72491870Y-58217615D01*
X72563587Y-58250816D01*
X72637049Y-58285515D01*
X72708973Y-58320146D01*
X72776078Y-58353142D01*
X72835082Y-58382937D01*
X72882704Y-58407965D01*
X72915662Y-58426657D01*
X72918209Y-58428234D01*
X72951419Y-58449038D01*
X72884212Y-58576303D01*
X72863521Y-58615081D01*
X72834768Y-58668382D01*
X72799578Y-58733223D01*
X72759577Y-58806623D01*
X72716389Y-58885598D01*
X72671639Y-58967168D01*
X72632271Y-59038700D01*
X72547391Y-59192960D01*
X72466131Y-59341182D01*
X72388981Y-59482452D01*
X72316431Y-59615850D01*
X72248971Y-59740460D01*
X72187091Y-59855366D01*
X72131281Y-59959650D01*
X72082030Y-60052395D01*
X72039830Y-60132685D01*
X72005169Y-60199601D01*
X71978537Y-60252227D01*
X71960426Y-60289647D01*
X71951323Y-60310942D01*
X71950298Y-60315154D01*
X71956378Y-60313266D01*
X71973192Y-60297497D01*
X71999162Y-60269731D01*
X72032708Y-60231856D01*
X72072253Y-60185755D01*
X72116218Y-60133315D01*
X72163024Y-60076422D01*
X72211094Y-60016960D01*
X72258848Y-59956816D01*
X72304708Y-59897875D01*
X72347096Y-59842023D01*
X72353068Y-59834013D01*
X72487900Y-59647182D01*
X72618352Y-59455557D01*
X72742326Y-59262529D01*
X72857722Y-59071490D01*
X72962438Y-58885831D01*
X73054376Y-58708942D01*
X73071703Y-58673557D01*
X73092367Y-58630947D01*
X73109711Y-58595321D01*
X73121965Y-58570301D01*
X73127362Y-58559511D01*
X73127415Y-58559419D01*
X73136449Y-58562682D01*
X73159058Y-58575891D01*
X73192615Y-58597257D01*
X73234492Y-58624996D01*
X73282065Y-58657320D01*
X73332705Y-58692442D01*
X73383787Y-58728577D01*
X73432683Y-58763938D01*
X73476768Y-58796737D01*
X73480609Y-58799654D01*
X73625325Y-58914999D01*
X73772601Y-59042174D01*
X73917718Y-59176735D01*
X74055960Y-59314240D01*
X74182607Y-59450249D01*
X74233275Y-59508276D01*
X74429580Y-59753126D01*
X74609332Y-60008359D01*
X74772125Y-60273112D01*
X74917553Y-60546520D01*
X75045209Y-60827721D01*
X75154688Y-61115853D01*
X75245583Y-61410051D01*
X75317488Y-61709452D01*
X75349624Y-61880935D01*
X75367872Y-61994338D01*
X75382528Y-62098189D01*
X75394024Y-62197403D01*
X75402793Y-62296893D01*
X75409267Y-62401574D01*
X75413877Y-62516358D01*
X75417058Y-62646160D01*
X75417085Y-62647621D01*
X75422736Y-62950240D01*
X74896193Y-62950240D01*
X74369650Y-62950240D01*
X74372325Y-63197838D01*
X74375000Y-63445435D01*
X74587500Y-63448135D01*
X74800000Y-63450835D01*
X74800000Y-63739975D01*
X74800000Y-64029114D01*
X74767500Y-64039605D01*
X74723286Y-64050136D01*
X74664853Y-64058693D01*
X74597926Y-64064803D01*
X74528230Y-64067996D01*
X74461490Y-64067799D01*
X74438265Y-64066747D01*
X74301443Y-64050100D01*
X74174616Y-64017347D01*
X74058676Y-63969083D01*
X73954517Y-63905904D01*
X73863035Y-63828404D01*
X73785122Y-63737180D01*
X73721673Y-63632827D01*
X73693524Y-63570694D01*
X73671215Y-63512857D01*
X73654353Y-63461547D01*
X73642209Y-63412269D01*
X73634056Y-63360531D01*
X73629166Y-63301837D01*
X73626812Y-63231696D01*
X73626259Y-63155321D01*
X73626506Y-63083656D01*
X73627446Y-63028138D01*
X73629382Y-62984908D01*
X73632618Y-62950109D01*
X73637455Y-62919884D01*
X73644197Y-62890373D01*
X73648231Y-62875211D01*
X73691906Y-62749807D01*
X73750129Y-62637923D01*
X73822483Y-62539808D01*
X73908551Y-62455708D01*
X74007916Y-62385872D01*
X74120160Y-62330548D01*
X74244867Y-62289982D01*
X74381619Y-62264423D01*
X74529999Y-62254118D01*
X74686143Y-62259047D01*
X74834336Y-62275380D01*
X74968105Y-62300728D01*
X75091235Y-62335831D01*
X75107956Y-62341608D01*
X75145438Y-62354429D01*
X75174880Y-62363718D01*
X75191919Y-62368135D01*
X75194395Y-62368155D01*
X75198950Y-62355769D01*
X75207169Y-62327341D01*
X75218263Y-62286083D01*
X75231443Y-62235207D01*
X75245921Y-62177926D01*
X75260908Y-62117450D01*
X75275617Y-62056992D01*
X75289257Y-61999765D01*
X75301041Y-61948979D01*
X75310180Y-61907848D01*
X75315886Y-61879582D01*
X75317370Y-61867395D01*
X75317348Y-61867328D01*
X75305564Y-61857919D01*
X75278315Y-61844923D01*
X75239513Y-61829705D01*
X75193070Y-61813628D01*
X75142900Y-61798057D01*
X75092914Y-61784357D01*
X75052560Y-61775007D01*
X74906557Y-61750584D01*
X74751913Y-61735071D01*
X74593479Y-61728469D01*
X74436108Y-61730779D01*
X74284652Y-61742002D01*
X74143961Y-61762141D01*
X74082783Y-61774721D01*
X73910468Y-61823480D01*
X73749973Y-61888093D01*
X73601585Y-61968407D01*
X73465588Y-62064270D01*
X73349050Y-62168676D01*
X73247395Y-62281368D01*
X73162232Y-62399715D01*
X73092330Y-62526142D01*
X73036459Y-62663077D01*
X72993389Y-62812947D01*
X72973155Y-62910225D01*
X72963240Y-62983822D01*
X72957027Y-63071282D01*
X72954469Y-63166882D01*
X72955518Y-63264904D01*
X72960127Y-63359627D01*
X72968247Y-63445332D01*
X72978128Y-63508088D01*
X73019840Y-63671004D01*
X73077369Y-63822314D01*
X73150401Y-63961557D01*
X73238622Y-64088267D01*
X73341717Y-64201982D01*
X73459371Y-64302239D01*
X73565574Y-64373530D01*
X73693975Y-64439971D01*
X73837846Y-64494438D01*
X73996470Y-64536711D01*
X74169131Y-64566570D01*
X74208416Y-64571393D01*
X74284430Y-64577450D01*
X74374143Y-64580281D01*
X74473448Y-64580108D01*
X74578239Y-64577153D01*
X74684406Y-64571640D01*
X74787843Y-64563789D01*
X74884443Y-64553826D01*
X74970096Y-64541970D01*
X75040697Y-64528446D01*
X75052210Y-64525672D01*
X75079420Y-64518835D01*
X75054083Y-64581214D01*
X74932197Y-64855003D01*
X74791784Y-65122285D01*
X74633567Y-65381993D01*
X74458266Y-65633056D01*
X74266603Y-65874406D01*
X74059298Y-66104974D01*
X73953268Y-66212667D01*
X73864124Y-66299387D01*
X73783717Y-66374809D01*
X73707677Y-66442752D01*
X73631638Y-66507033D01*
X73551234Y-66571472D01*
X73481364Y-66625299D01*
X73227426Y-66805854D01*
X72963803Y-66969379D01*
X72691437Y-67115577D01*
X72411273Y-67244152D01*
X72124254Y-67354807D01*
X71831324Y-67447245D01*
X71533426Y-67521171D01*
X71231503Y-67576287D01*
X70926501Y-67612296D01*
X70619361Y-67628903D01*
X70311028Y-67625810D01*
X70300000Y-67625331D01*
X69984961Y-67601453D01*
X69674456Y-67558206D01*
X69369033Y-67495768D01*
X69069244Y-67414316D01*
X68775639Y-67314028D01*
X68488769Y-67195081D01*
X68209185Y-67057652D01*
X67937436Y-66901920D01*
X67817150Y-66825455D01*
X67649970Y-66711619D01*
X67495299Y-66597065D01*
X67348011Y-66477609D01*
X67202977Y-66349065D01*
X67055071Y-66207250D01*
X67034629Y-66186885D01*
X66817603Y-65956063D01*
X66617525Y-65714834D01*
X66434559Y-65463452D01*
X66268866Y-65202168D01*
X66120611Y-64931236D01*
X65989955Y-64650908D01*
X65902192Y-64430823D01*
X65878237Y-64366284D01*
X65860782Y-64318627D01*
X65849552Y-64285910D01*
X65844273Y-64266192D01*
X65844668Y-64257529D01*
X65850464Y-64257979D01*
X65861386Y-64265601D01*
X65877157Y-64278451D01*
X65881072Y-64281642D01*
X66003800Y-64369797D01*
X66136779Y-64443114D01*
X66281058Y-64501976D01*
X66437689Y-64546766D01*
X66607723Y-64577867D01*
X66730661Y-64591320D01*
X66843448Y-64596646D01*
X66964965Y-64595282D01*
X67090184Y-64587723D01*
X67214076Y-64574464D01*
X67331614Y-64556001D01*
X67437769Y-64532829D01*
X67497198Y-64515825D01*
X67535393Y-64503054D01*
X67567140Y-64491448D01*
X67586796Y-64483096D01*
X67589137Y-64481777D01*
X67593114Y-64476203D01*
X67594701Y-64464551D01*
X67593596Y-64444585D01*
X67590522Y-64421713D01*
X67902067Y-64421713D01*
X67923533Y-64435302D01*
X67952830Y-64450201D01*
X67997093Y-64468176D01*
X68051819Y-64487722D01*
X68112505Y-64507334D01*
X68174649Y-64525505D01*
X68233748Y-64540731D01*
X68250000Y-64544453D01*
X68455895Y-64580922D01*
X68580000Y-64594726D01*
X68627833Y-64596811D01*
X68690029Y-64596463D01*
X68761137Y-64593983D01*
X68835707Y-64589673D01*
X68908288Y-64583834D01*
X68973431Y-64576767D01*
X69015000Y-64570693D01*
X69161015Y-64537831D01*
X69294703Y-64491423D01*
X69415254Y-64432007D01*
X69521859Y-64360120D01*
X69613710Y-64276299D01*
X69689998Y-64181082D01*
X69744876Y-64085687D01*
X69777959Y-64010814D01*
X69800814Y-63942394D01*
X69814969Y-63873517D01*
X69821951Y-63797274D01*
X69823399Y-63730548D01*
X69817525Y-63613379D01*
X69798899Y-63509346D01*
X69766310Y-63415242D01*
X69718543Y-63327859D01*
X69654387Y-63243991D01*
X69628756Y-63215845D01*
X69555455Y-63145725D01*
X69473718Y-63082179D01*
X69380833Y-63023543D01*
X69274092Y-62968152D01*
X69150785Y-62914341D01*
X69115000Y-62900140D01*
X69017459Y-62861726D01*
X68936536Y-62828832D01*
X68869972Y-62800361D01*
X68815512Y-62775214D01*
X68770897Y-62752294D01*
X68733870Y-62730502D01*
X68702176Y-62708741D01*
X68673555Y-62685913D01*
X68672155Y-62684716D01*
X68626114Y-62635462D01*
X68598389Y-62581040D01*
X68587377Y-62518073D01*
X68587045Y-62505467D01*
X68594409Y-62441164D01*
X68618431Y-62385643D01*
X68660589Y-62335756D01*
X68671361Y-62326149D01*
X68710808Y-62296451D01*
X68752528Y-62274490D01*
X68800537Y-62259109D01*
X68858855Y-62249148D01*
X68931498Y-62243449D01*
X68962589Y-62242197D01*
X69102317Y-62243507D01*
X69231867Y-62257725D01*
X69357128Y-62285840D01*
X69483990Y-62328843D01*
X69488681Y-62330688D01*
X69525547Y-62344680D01*
X69554702Y-62354649D01*
X69571714Y-62359128D01*
X69574199Y-62358992D01*
X69578165Y-62348241D01*
X69586378Y-62321331D01*
X69597966Y-62281448D01*
X69612054Y-62231776D01*
X69627770Y-62175496D01*
X69644240Y-62115795D01*
X69660591Y-62055854D01*
X69675950Y-61998859D01*
X69689443Y-61947991D01*
X69700198Y-61906436D01*
X69707341Y-61877377D01*
X69709998Y-61863998D01*
X69710000Y-61863899D01*
X69700131Y-61849970D01*
X69670599Y-61833073D01*
X69621510Y-61813256D01*
X69552971Y-61790565D01*
X69515008Y-61779194D01*
X69434220Y-61759772D01*
X70249129Y-61759772D01*
X70252836Y-62687637D01*
X70253474Y-62848819D01*
X70254070Y-62991394D01*
X70254699Y-63116764D01*
X70255436Y-63226329D01*
X70256355Y-63321492D01*
X70257532Y-63403651D01*
X70259039Y-63474210D01*
X70260952Y-63534569D01*
X70263346Y-63586128D01*
X70266295Y-63630290D01*
X70269873Y-63668454D01*
X70274155Y-63702023D01*
X70279216Y-63732396D01*
X70285129Y-63760976D01*
X70291971Y-63789164D01*
X70299815Y-63818359D01*
X70308735Y-63849964D01*
X70316039Y-63875605D01*
X70364694Y-64014801D01*
X70427500Y-64140061D01*
X70504112Y-64251059D01*
X70594186Y-64347471D01*
X70697376Y-64428971D01*
X70813339Y-64495235D01*
X70941729Y-64545938D01*
X71059400Y-64576360D01*
X71192013Y-64596184D01*
X71334078Y-64604701D01*
X71478473Y-64601807D01*
X71618078Y-64587398D01*
X71635000Y-64584755D01*
X71783208Y-64551927D01*
X71918569Y-64503770D01*
X72040978Y-64440378D01*
X72150335Y-64361841D01*
X72246535Y-64268250D01*
X72329476Y-64159697D01*
X72399057Y-64036274D01*
X72455173Y-63898071D01*
X72473948Y-63838252D01*
X72483763Y-63804087D01*
X72492439Y-63772523D01*
X72500053Y-63742144D01*
X72506679Y-63711535D01*
X72512393Y-63679283D01*
X72517272Y-63643972D01*
X72521390Y-63604186D01*
X72524824Y-63558512D01*
X72527650Y-63505534D01*
X72529942Y-63443838D01*
X72531778Y-63372008D01*
X72533231Y-63288630D01*
X72534380Y-63192289D01*
X72535298Y-63081569D01*
X72536062Y-62955057D01*
X72536747Y-62811337D01*
X72537415Y-62652623D01*
X72541081Y-61759772D01*
X72220936Y-61759772D01*
X71900791Y-61759772D01*
X71897329Y-62672631D01*
X71896709Y-62829880D01*
X71896094Y-62968425D01*
X71895458Y-63089569D01*
X71894772Y-63194617D01*
X71894009Y-63284873D01*
X71893140Y-63361640D01*
X71892138Y-63426222D01*
X71890973Y-63479923D01*
X71889619Y-63524046D01*
X71888048Y-63559897D01*
X71886231Y-63588777D01*
X71884140Y-63611992D01*
X71881747Y-63630845D01*
X71879025Y-63646639D01*
X71876120Y-63659946D01*
X71842946Y-63770835D01*
X71800173Y-63864545D01*
X71747340Y-63941695D01*
X71683988Y-64002903D01*
X71609657Y-64048787D01*
X71575940Y-64063298D01*
X71524025Y-64077390D01*
X71459869Y-64086186D01*
X71390600Y-64089387D01*
X71323343Y-64086694D01*
X71265226Y-64077805D01*
X71260246Y-64076578D01*
X71177168Y-64046075D01*
X71104698Y-63999754D01*
X71042437Y-63937151D01*
X70989986Y-63857802D01*
X70946948Y-63761243D01*
X70922140Y-63682916D01*
X70895490Y-63585490D01*
X70892304Y-62672631D01*
X70889117Y-61759772D01*
X70569123Y-61759772D01*
X70249129Y-61759772D01*
X69434220Y-61759772D01*
X69377625Y-61746166D01*
X69231659Y-61723888D01*
X69082068Y-61712551D01*
X68933809Y-61712346D01*
X68791837Y-61723466D01*
X68661111Y-61746101D01*
X68660707Y-61746194D01*
X68524173Y-61786241D01*
X68399437Y-61840188D01*
X68287478Y-61907184D01*
X68189277Y-61986381D01*
X68105814Y-62076929D01*
X68038071Y-62177980D01*
X67987027Y-62288684D01*
X67968586Y-62345568D01*
X67955116Y-62410937D01*
X67947237Y-62487366D01*
X67945030Y-62568052D01*
X67948577Y-62646190D01*
X67957960Y-62714977D01*
X67963856Y-62740158D01*
X68002497Y-62843829D01*
X68059894Y-62943546D01*
X68134957Y-63037825D01*
X68226595Y-63125183D01*
X68275000Y-63163368D01*
X68331979Y-63201468D01*
X68403962Y-63242924D01*
X68486710Y-63285622D01*
X68575989Y-63327450D01*
X68667562Y-63366295D01*
X68730000Y-63390301D01*
X68842911Y-63434429D01*
X68937134Y-63477488D01*
X69013878Y-63520429D01*
X69074352Y-63564207D01*
X69119766Y-63609775D01*
X69151329Y-63658086D01*
X69170251Y-63710093D01*
X69175837Y-63741703D01*
X69174863Y-63814331D01*
X69155408Y-63881952D01*
X69118847Y-63941959D01*
X69066555Y-63991746D01*
X69032625Y-64013265D01*
X68985252Y-64035768D01*
X68935562Y-64051958D01*
X68879725Y-64062434D01*
X68813912Y-64067790D01*
X68734293Y-64068624D01*
X68685000Y-64067431D01*
X68533520Y-64055976D01*
X68392067Y-64031166D01*
X68254630Y-63991601D01*
X68115201Y-63935886D01*
X68110964Y-63933968D01*
X68076619Y-63918759D01*
X68050294Y-63907831D01*
X68036368Y-63902975D01*
X68035252Y-63902984D01*
X68032438Y-63912981D01*
X68025359Y-63939818D01*
X68014675Y-63980946D01*
X68001046Y-64033815D01*
X67985132Y-64095873D01*
X67967822Y-64163665D01*
X67902067Y-64421713D01*
X67590522Y-64421713D01*
X67589495Y-64414072D01*
X67582097Y-64370776D01*
X67571099Y-64312463D01*
X67556200Y-64236899D01*
X67555650Y-64234144D01*
X67542247Y-64167586D01*
X67529955Y-64107618D01*
X67519361Y-64057008D01*
X67511049Y-64018526D01*
X67505604Y-63994942D01*
X67503801Y-63988761D01*
X67492917Y-63988079D01*
X67468949Y-63993302D01*
X67443238Y-64001260D01*
X67409282Y-64011455D01*
X67362725Y-64023455D01*
X67310646Y-64035503D01*
X67275950Y-64042775D01*
X67204705Y-64053856D01*
X67122540Y-64061520D01*
X67034665Y-64065714D01*
X66946291Y-64066384D01*
X66862628Y-64063477D01*
X66788886Y-64056940D01*
X66737000Y-64048290D01*
X66617581Y-64014226D01*
X66511744Y-63967620D01*
X66416227Y-63906714D01*
X66327765Y-63829751D01*
X66323726Y-63825709D01*
X66249430Y-63738454D01*
X66189330Y-63640095D01*
X66142922Y-63529437D01*
X66109704Y-63405284D01*
X66089476Y-63269527D01*
X66084749Y-63177558D01*
X66087318Y-63078424D01*
X66096627Y-62980359D01*
X66112122Y-62891597D01*
X66116034Y-62875211D01*
X66157445Y-62746449D01*
X66213188Y-62631582D01*
X66283087Y-62530786D01*
X66366970Y-62444238D01*
X66464661Y-62372113D01*
X66575986Y-62314589D01*
X66700771Y-62271841D01*
X66716230Y-62267817D01*
X66752855Y-62259314D01*
X66787808Y-62253210D01*
X66825603Y-62249124D01*
X66870751Y-62246678D01*
X66927765Y-62245492D01*
X66985000Y-62245194D01*
X67094532Y-62247433D01*
X67190038Y-62255019D01*
X67276976Y-62268794D01*
X67360808Y-62289604D01*
X67439130Y-62315414D01*
X67471735Y-62326856D01*
X67495809Y-62334552D01*
X67506378Y-62336919D01*
X67506465Y-62336866D01*
X67510522Y-62325751D01*
X67518336Y-62298388D01*
X67529113Y-62258009D01*
X67542056Y-62207849D01*
X67556371Y-62151140D01*
X67571260Y-62091117D01*
X67585929Y-62031013D01*
X67599582Y-61974061D01*
X67611422Y-61923495D01*
X67620655Y-61882549D01*
X67626483Y-61854456D01*
X67628127Y-61842512D01*
X67616690Y-61829981D01*
X67588619Y-61814926D01*
X67546954Y-61798426D01*
X67494733Y-61781560D01*
X67434995Y-61765405D01*
X67370781Y-61751042D01*
X67369734Y-61750832D01*
X67182456Y-61721960D01*
X66997065Y-61710060D01*
X66815132Y-61714840D01*
X66638224Y-61736009D01*
X66467912Y-61773274D01*
X66305765Y-61826343D01*
X66153351Y-61894925D01*
X66012241Y-61978727D01*
X65965000Y-62012203D01*
X65894693Y-62069925D01*
X65822146Y-62139276D01*
X65752965Y-62214346D01*
X65692754Y-62289218D01*
X65665399Y-62328314D01*
X65641100Y-62364781D01*
X65621073Y-62393760D01*
X65607638Y-62411960D01*
X65603156Y-62416520D01*
X65602283Y-62405015D01*
X65603659Y-62376801D01*
X65606964Y-62335009D01*
X65611880Y-62282773D01*
X65618085Y-62223223D01*
X65625260Y-62159493D01*
X65633084Y-62094715D01*
X65641240Y-62032021D01*
X65645706Y-61999866D01*
X65699191Y-61695168D01*
X65771903Y-61395613D01*
X65863614Y-61101713D01*
X65940470Y-60901549D01*
X71089450Y-60901549D01*
X71257225Y-61074756D01*
X71304713Y-61123198D01*
X71348235Y-61166488D01*
X71385691Y-61202627D01*
X71414983Y-61229616D01*
X71434011Y-61245457D01*
X71440000Y-61248839D01*
X71454854Y-61246461D01*
X71484714Y-61239336D01*
X71525444Y-61228522D01*
X71572909Y-61215078D01*
X71580000Y-61213004D01*
X71627313Y-61198815D01*
X71667584Y-61186181D01*
X71696958Y-61176354D01*
X71711582Y-61170582D01*
X71712303Y-61170113D01*
X71707559Y-61161665D01*
X71690369Y-61141172D01*
X71662559Y-61110605D01*
X71625954Y-61071934D01*
X71582380Y-61027132D01*
X71545124Y-60989593D01*
X71370642Y-60815256D01*
X71302821Y-60836696D01*
X71256078Y-60851277D01*
X71202909Y-60867574D01*
X71162225Y-60879843D01*
X71089450Y-60901549D01*
X65940470Y-60901549D01*
X65968460Y-60828652D01*
X71075776Y-60828652D01*
X71081256Y-60830405D01*
X71092538Y-60827751D01*
X71108760Y-60822363D01*
X71116007Y-60819956D01*
X71137740Y-60813098D01*
X71173025Y-60802202D01*
X71216263Y-60788991D01*
X71246191Y-60779915D01*
X71264486Y-60774384D01*
X71430242Y-60774384D01*
X71602514Y-60946952D01*
X71650532Y-60994790D01*
X71693943Y-61037536D01*
X71730744Y-61073260D01*
X71758931Y-61100028D01*
X71776502Y-61115910D01*
X71781463Y-61119520D01*
X71789093Y-61111844D01*
X71806820Y-61090328D01*
X71832872Y-61057235D01*
X71865481Y-61014831D01*
X71902875Y-60965381D01*
X71924063Y-60937045D01*
X72059985Y-60754570D01*
X71887573Y-60581878D01*
X71839561Y-60534158D01*
X71796136Y-60491698D01*
X71759296Y-60456397D01*
X71731042Y-60430153D01*
X71713373Y-60414865D01*
X71708305Y-60411714D01*
X71700563Y-60420102D01*
X71682648Y-60442212D01*
X71656359Y-60475737D01*
X71623496Y-60518372D01*
X71585857Y-60567812D01*
X71565847Y-60594313D01*
X71430242Y-60774384D01*
X71264486Y-60774384D01*
X71347383Y-60749322D01*
X71484697Y-60568616D01*
X71523851Y-60516700D01*
X71558311Y-60470266D01*
X71586421Y-60431604D01*
X71606528Y-60403004D01*
X71616979Y-60386755D01*
X71618035Y-60383932D01*
X71607187Y-60384522D01*
X71582572Y-60389892D01*
X71549529Y-60398876D01*
X71504409Y-60412089D01*
X71452666Y-60427218D01*
X71413676Y-60438601D01*
X71342353Y-60459406D01*
X71213142Y-60631901D01*
X71165660Y-60695227D01*
X71129165Y-60744109D01*
X71102794Y-60780219D01*
X71085681Y-60805232D01*
X71076963Y-60820818D01*
X71075776Y-60828652D01*
X65968460Y-60828652D01*
X65974093Y-60813981D01*
X66103112Y-60532929D01*
X66250441Y-60259070D01*
X66415851Y-59992915D01*
X66599112Y-59734978D01*
X66738456Y-59558905D01*
X66786829Y-59502802D01*
X66847218Y-59436600D01*
X66916566Y-59363352D01*
X66991815Y-59286110D01*
X67069910Y-59207927D01*
X67147792Y-59131856D01*
X67222406Y-59060950D01*
X67290696Y-58998261D01*
X67349603Y-58946842D01*
X67360000Y-58938170D01*
X67612634Y-58741858D01*
X67872938Y-58564013D01*
X68141065Y-58404565D01*
X68417166Y-58263442D01*
X68701395Y-58140570D01*
X68993904Y-58035877D01*
X69294846Y-57949292D01*
X69585000Y-57884456D01*
X69855312Y-57840908D01*
X70134648Y-57812746D01*
X70419155Y-57800040D01*
X70704984Y-57802865D01*
G37*
D16*
%TO.C,JP5*%
X137930000Y-125345000D02*
X137930000Y-120205000D01*
X140590000Y-120205000D02*
X137930000Y-120205000D01*
X140590000Y-125345000D02*
X137930000Y-125345000D01*
X140590000Y-125345000D02*
X140590000Y-120205000D01*
X140590000Y-126615000D02*
X140590000Y-127945000D01*
X140590000Y-127945000D02*
X139260000Y-127945000D01*
%TO.C,R15*%
X79665000Y-62037064D02*
X79665000Y-61582936D01*
X81135000Y-62037064D02*
X81135000Y-61582936D01*
%TO.C,C5*%
X128348748Y-108775000D02*
X128871252Y-108775000D01*
X128348748Y-110245000D02*
X128871252Y-110245000D01*
%TO.C,R11*%
X91485000Y-62067064D02*
X91485000Y-61612936D01*
X92955000Y-62067064D02*
X92955000Y-61612936D01*
%TO.C,JP1*%
X131480000Y-125330000D02*
X131480000Y-120190000D01*
X134140000Y-120190000D02*
X131480000Y-120190000D01*
X134140000Y-125330000D02*
X131480000Y-125330000D01*
X134140000Y-125330000D02*
X134140000Y-120190000D01*
X134140000Y-126600000D02*
X134140000Y-127930000D01*
X134140000Y-127930000D02*
X132810000Y-127930000D01*
%TO.C,J6*%
X71440000Y-110680000D02*
X71440000Y-113330000D01*
X71440000Y-110680000D02*
X77290000Y-110680000D01*
X71440000Y-113580000D02*
X71440000Y-114180000D01*
X71440000Y-114430000D02*
X71440000Y-117930000D01*
X71440000Y-118180000D02*
X71440000Y-118780000D01*
X71440000Y-119080000D02*
X71440000Y-121730000D01*
X71440000Y-121730000D02*
X77290000Y-121730000D01*
X74740000Y-110180000D02*
X77740000Y-110180000D01*
X77290000Y-110680000D02*
X77290000Y-121730000D01*
X77740000Y-110180000D02*
X77740000Y-113180000D01*
%TO.C,C6*%
X112591252Y-114115000D02*
X112068748Y-114115000D01*
X112591252Y-115585000D02*
X112068748Y-115585000D01*
%TO.C,CR1*%
X116186200Y-85965000D02*
X114236200Y-85965000D01*
X116186200Y-85965000D02*
X118136200Y-85965000D01*
X116186200Y-91085000D02*
X114236200Y-91085000D01*
X116186200Y-91085000D02*
X118136200Y-91085000D01*
X113486200Y-86060000D02*
X113246200Y-85730000D01*
X113726200Y-85730000D01*
X113486200Y-86060000D01*
G36*
X113486200Y-86060000D02*
G01*
X113246200Y-85730000D01*
X113726200Y-85730000D01*
X113486200Y-86060000D01*
G37*
%TO.C,C3*%
X112413752Y-126085000D02*
X111891248Y-126085000D01*
X112413752Y-127555000D02*
X111891248Y-127555000D01*
%TO.C,R7*%
X132375000Y-65687064D02*
X132375000Y-65232936D01*
X133845000Y-65687064D02*
X133845000Y-65232936D01*
%TO.C,U2*%
X77020000Y-54950000D02*
X75520000Y-54950000D01*
X77020000Y-54950000D02*
X78520000Y-54950000D01*
X77020000Y-58170000D02*
X75520000Y-58170000D01*
X77020000Y-58170000D02*
X78520000Y-58170000D01*
X74807500Y-55125000D02*
X74567500Y-54795000D01*
X75047500Y-54795000D01*
X74807500Y-55125000D01*
G36*
X74807500Y-55125000D02*
G01*
X74567500Y-54795000D01*
X75047500Y-54795000D01*
X74807500Y-55125000D01*
G37*
%TO.C,R13*%
X84555000Y-62067064D02*
X84555000Y-61612936D01*
X86025000Y-62067064D02*
X86025000Y-61612936D01*
%TO.C,C10*%
X128338748Y-106675000D02*
X128861252Y-106675000D01*
X128338748Y-108145000D02*
X128861252Y-108145000D01*
D17*
%TO.C,G\u002A\u002A\u002A*%
G36*
X84377944Y-79147518D02*
G01*
X84377944Y-79580319D01*
X84269743Y-79580319D01*
X84161543Y-79580319D01*
X84161543Y-79147518D01*
X84161543Y-78714717D01*
X84269743Y-78714717D01*
X84377944Y-78714717D01*
X84377944Y-79147518D01*
G37*
G36*
X84339020Y-78338882D02*
G01*
X84369807Y-78356579D01*
X84377702Y-78402755D01*
X84377944Y-78430691D01*
X84374668Y-78491308D01*
X84354443Y-78518247D01*
X84301671Y-78525155D01*
X84269743Y-78525366D01*
X84200467Y-78522500D01*
X84169680Y-78504803D01*
X84161785Y-78458628D01*
X84161543Y-78430691D01*
X84164819Y-78370074D01*
X84185044Y-78343135D01*
X84237816Y-78336228D01*
X84269743Y-78336016D01*
X84339020Y-78338882D01*
G37*
G36*
X85827330Y-78718868D02*
G01*
X85967992Y-78727350D01*
X86063240Y-78744714D01*
X86121679Y-78776877D01*
X86151915Y-78829754D01*
X86162552Y-78909263D01*
X86163247Y-78949812D01*
X86160944Y-79022530D01*
X86145887Y-79056193D01*
X86105859Y-79065844D01*
X86068572Y-79066368D01*
X86004215Y-79061001D01*
X85977942Y-79038105D01*
X85973897Y-79004152D01*
X85952311Y-78925640D01*
X85891665Y-78882982D01*
X85846762Y-78877017D01*
X85821404Y-78878675D01*
X85804085Y-78889424D01*
X85793273Y-78917927D01*
X85787435Y-78972844D01*
X85785038Y-79062839D01*
X85784550Y-79196573D01*
X85784546Y-79228668D01*
X85784546Y-79580319D01*
X85676346Y-79580319D01*
X85568146Y-79580319D01*
X85568146Y-79144907D01*
X85568146Y-78709495D01*
X85827330Y-78718868D01*
G37*
G36*
X84816784Y-78730787D02*
G01*
X84824269Y-79125557D01*
X85000095Y-78921893D01*
X85175920Y-78718229D01*
X85324018Y-78716473D01*
X85472117Y-78714717D01*
X85276681Y-78911466D01*
X85195093Y-78995657D01*
X85130211Y-79066520D01*
X85090158Y-79114946D01*
X85081245Y-79130583D01*
X85098223Y-79159116D01*
X85143891Y-79217664D01*
X85210348Y-79296394D01*
X85257070Y-79349406D01*
X85332120Y-79434919D01*
X85391202Y-79505395D01*
X85426453Y-79551277D01*
X85432896Y-79563089D01*
X85408592Y-79573035D01*
X85346618Y-79579259D01*
X85301284Y-79580319D01*
X85240481Y-79578981D01*
X85194766Y-79569892D01*
X85153045Y-79545435D01*
X85104228Y-79497992D01*
X85037223Y-79419947D01*
X84996971Y-79371349D01*
X84824269Y-79162380D01*
X84816369Y-79371349D01*
X84808469Y-79580319D01*
X84701406Y-79580319D01*
X84594344Y-79580319D01*
X84594344Y-78958167D01*
X84594344Y-78336016D01*
X84701821Y-78336016D01*
X84809298Y-78336016D01*
X84816784Y-78730787D01*
G37*
G36*
X83248604Y-78719238D02*
G01*
X83460308Y-78723758D01*
X83624079Y-78731810D01*
X83746068Y-78748145D01*
X83832429Y-78777512D01*
X83889314Y-78824662D01*
X83922876Y-78894344D01*
X83939268Y-78991310D01*
X83944642Y-79120308D01*
X83945143Y-79256991D01*
X83945143Y-79580319D01*
X83836943Y-79580319D01*
X83728742Y-79580319D01*
X83728742Y-79274653D01*
X83725591Y-79112549D01*
X83716215Y-79001447D01*
X83700735Y-78942587D01*
X83696282Y-78936527D01*
X83649345Y-78915161D01*
X83575609Y-78904381D01*
X83561032Y-78904067D01*
X83458242Y-78904067D01*
X83458242Y-79242193D01*
X83458242Y-79580319D01*
X83350042Y-79580319D01*
X83241841Y-79580319D01*
X83241841Y-79242193D01*
X83241841Y-78904067D01*
X83093066Y-78904067D01*
X82944291Y-78904067D01*
X82944291Y-79242193D01*
X82944291Y-79580319D01*
X82854124Y-79580319D01*
X82787286Y-79575370D01*
X82747145Y-79563350D01*
X82745924Y-79562285D01*
X82739702Y-79530311D01*
X82734408Y-79453998D01*
X82730448Y-79343106D01*
X82728226Y-79207392D01*
X82727890Y-79126995D01*
X82727890Y-78709738D01*
X83248604Y-78719238D01*
G37*
G36*
X86878390Y-78736532D02*
G01*
X87000959Y-78802111D01*
X87092140Y-78911649D01*
X87103236Y-78932088D01*
X87151742Y-79074574D01*
X87156370Y-79216286D01*
X87120047Y-79346448D01*
X87045698Y-79454286D01*
X86941850Y-79526538D01*
X86799613Y-79568784D01*
X86651085Y-79575326D01*
X86517207Y-79545755D01*
X86493750Y-79535332D01*
X86386826Y-79461326D01*
X86319729Y-79360688D01*
X86288446Y-79225964D01*
X86284972Y-79147518D01*
X86286606Y-79107389D01*
X86498292Y-79107389D01*
X86503600Y-79206529D01*
X86537216Y-79298716D01*
X86597984Y-79371483D01*
X86684746Y-79412361D01*
X86712354Y-79416304D01*
X86749315Y-79406111D01*
X86809269Y-79379075D01*
X86812753Y-79377286D01*
X86888440Y-79313902D01*
X86928261Y-79229350D01*
X86935707Y-79134985D01*
X86914271Y-79042160D01*
X86867445Y-78962230D01*
X86798721Y-78906549D01*
X86711591Y-78886471D01*
X86663787Y-78892931D01*
X86577228Y-78938122D01*
X86522449Y-79013764D01*
X86498292Y-79107389D01*
X86286606Y-79107389D01*
X86289459Y-79037334D01*
X86306311Y-78959828D01*
X86340619Y-78894069D01*
X86349856Y-78880719D01*
X86450070Y-78784222D01*
X86583984Y-78729220D01*
X86724089Y-78714717D01*
X86878390Y-78736532D01*
G37*
G36*
X84567294Y-80568514D02*
G01*
X84568687Y-80776412D01*
X84573897Y-80937181D01*
X84584465Y-81057748D01*
X84601936Y-81145036D01*
X84627852Y-81205969D01*
X84663757Y-81247474D01*
X84711195Y-81276473D01*
X84726580Y-81283223D01*
X84824561Y-81305835D01*
X84937784Y-81306079D01*
X85045527Y-81286265D01*
X85127063Y-81248706D01*
X85140702Y-81237037D01*
X85174659Y-81191687D01*
X85200532Y-81127713D01*
X85219271Y-81038283D01*
X85231828Y-80916563D01*
X85239154Y-80755718D01*
X85242201Y-80548916D01*
X85242367Y-80506783D01*
X85243545Y-80067219D01*
X85392321Y-80067219D01*
X85541096Y-80067219D01*
X85539707Y-80479733D01*
X85537153Y-80721854D01*
X85530205Y-80916497D01*
X85517230Y-81070210D01*
X85496590Y-81189545D01*
X85466651Y-81281053D01*
X85425777Y-81351283D01*
X85372334Y-81406786D01*
X85304685Y-81454114D01*
X85295019Y-81459857D01*
X85234426Y-81487420D01*
X85156562Y-81505631D01*
X85048252Y-81516750D01*
X84932671Y-81521999D01*
X84802705Y-81524613D01*
X84710405Y-81521220D01*
X84639460Y-81509470D01*
X84573559Y-81487012D01*
X84518991Y-81462374D01*
X84444369Y-81423236D01*
X84386332Y-81380766D01*
X84342808Y-81327908D01*
X84311728Y-81257604D01*
X84291020Y-81162797D01*
X84278613Y-81036431D01*
X84272437Y-80871446D01*
X84270421Y-80660788D01*
X84270337Y-80614983D01*
X84269743Y-80067219D01*
X84418519Y-80067219D01*
X84567294Y-80067219D01*
X84567294Y-80568514D01*
G37*
G36*
X87055899Y-80200362D02*
G01*
X87055899Y-80337720D01*
X86611536Y-80337720D01*
X86167174Y-80337720D01*
X86111110Y-80408993D01*
X86064800Y-80483779D01*
X86063788Y-80545043D01*
X86108909Y-80610084D01*
X86121442Y-80622975D01*
X86151423Y-80650252D01*
X86183954Y-80668816D01*
X86229491Y-80680337D01*
X86298491Y-80686489D01*
X86401409Y-80688943D01*
X86536718Y-80689371D01*
X86682948Y-80690152D01*
X86786367Y-80693551D01*
X86858256Y-80701150D01*
X86909895Y-80714532D01*
X86952564Y-80735281D01*
X86977511Y-80751222D01*
X87062269Y-80838399D01*
X87113019Y-80953819D01*
X87130447Y-81084213D01*
X87115241Y-81216315D01*
X87068088Y-81336857D01*
X86989675Y-81432573D01*
X86940478Y-81466159D01*
X86900488Y-81483380D01*
X86847247Y-81496493D01*
X86772640Y-81506257D01*
X86668551Y-81513434D01*
X86526865Y-81518785D01*
X86339467Y-81523072D01*
X86332310Y-81523206D01*
X85811596Y-81532901D01*
X85811596Y-81395161D01*
X85811596Y-81257422D01*
X86269515Y-81257422D01*
X86454167Y-81256389D01*
X86591630Y-81251937D01*
X86688798Y-81242034D01*
X86752563Y-81224647D01*
X86789820Y-81197745D01*
X86807461Y-81159295D01*
X86812381Y-81107265D01*
X86812448Y-81097382D01*
X86805982Y-81037859D01*
X86781644Y-80994669D01*
X86732026Y-80964912D01*
X86649721Y-80945686D01*
X86527322Y-80934089D01*
X86379648Y-80927862D01*
X86192131Y-80918170D01*
X86050456Y-80900088D01*
X85946661Y-80870904D01*
X85872788Y-80827908D01*
X85820874Y-80768389D01*
X85800162Y-80730530D01*
X85766076Y-80610069D01*
X85760629Y-80470600D01*
X85783541Y-80338393D01*
X85804876Y-80284540D01*
X85842425Y-80219838D01*
X85886445Y-80170213D01*
X85944404Y-80133530D01*
X86023767Y-80107655D01*
X86132002Y-80090452D01*
X86276575Y-80079788D01*
X86464952Y-80073528D01*
X86548710Y-80071874D01*
X87055899Y-80063004D01*
X87055899Y-80200362D01*
G37*
G36*
X83153929Y-80068398D02*
G01*
X83383163Y-80071586D01*
X83564798Y-80081038D01*
X83705166Y-80098700D01*
X83810594Y-80126518D01*
X83887413Y-80166440D01*
X83941952Y-80220411D01*
X83980541Y-80290378D01*
X83994114Y-80326779D01*
X84016636Y-80466655D01*
X83986470Y-80594318D01*
X83905090Y-80707783D01*
X83815204Y-80797669D01*
X83890126Y-80851018D01*
X83972785Y-80939858D01*
X84015744Y-81051415D01*
X84020390Y-81173207D01*
X83988108Y-81292754D01*
X83920284Y-81397576D01*
X83820985Y-81473822D01*
X83776043Y-81489625D01*
X83705703Y-81501821D01*
X83603096Y-81510989D01*
X83461355Y-81517709D01*
X83273611Y-81522560D01*
X83235079Y-81523267D01*
X82727890Y-81532138D01*
X82727890Y-81164480D01*
X83026323Y-81164480D01*
X83032691Y-81227803D01*
X83058707Y-81264407D01*
X83113309Y-81280845D01*
X83205433Y-81283668D01*
X83320339Y-81280240D01*
X83452075Y-81273716D01*
X83541449Y-81263572D01*
X83600177Y-81247611D01*
X83639978Y-81223637D01*
X83644817Y-81219417D01*
X83693813Y-81143770D01*
X83692500Y-81058604D01*
X83654355Y-80990727D01*
X83627103Y-80965084D01*
X83589486Y-80948225D01*
X83530183Y-80938072D01*
X83437876Y-80932548D01*
X83322992Y-80929907D01*
X83038966Y-80925375D01*
X83030667Y-81067887D01*
X83026323Y-81164480D01*
X82727890Y-81164480D01*
X82727890Y-80799679D01*
X82727890Y-80500020D01*
X83025441Y-80500020D01*
X83025441Y-80664093D01*
X83328776Y-80656444D01*
X83460532Y-80652660D01*
X83548829Y-80647540D01*
X83604292Y-80638557D01*
X83637550Y-80623184D01*
X83659229Y-80598892D01*
X83673664Y-80574408D01*
X83699952Y-80515521D01*
X83694638Y-80467576D01*
X83673664Y-80425633D01*
X83653739Y-80393338D01*
X83629901Y-80371785D01*
X83591524Y-80358446D01*
X83527979Y-80350794D01*
X83428641Y-80346301D01*
X83328776Y-80343597D01*
X83025441Y-80335948D01*
X83025441Y-80500020D01*
X82727890Y-80500020D01*
X82727890Y-80335948D01*
X82727890Y-80067219D01*
X83153929Y-80068398D01*
G37*
G36*
X79235632Y-78408944D02*
G01*
X79344233Y-78483141D01*
X79421505Y-78583625D01*
X79465633Y-78700797D01*
X79474805Y-78825055D01*
X79447208Y-78946798D01*
X79381028Y-79056426D01*
X79274452Y-79144337D01*
X79246458Y-79159294D01*
X79132758Y-79215143D01*
X79131496Y-79560031D01*
X79130233Y-79904919D01*
X79968785Y-79904919D01*
X80807337Y-79904919D01*
X80807337Y-79558474D01*
X80807337Y-79212029D01*
X80700507Y-79164896D01*
X80590969Y-79088654D01*
X80509643Y-78975384D01*
X80466205Y-78838882D01*
X80464847Y-78828919D01*
X80473737Y-78719353D01*
X80518460Y-78600716D01*
X80589373Y-78493250D01*
X80653782Y-78432275D01*
X80754614Y-78387727D01*
X80879231Y-78373381D01*
X81006815Y-78388825D01*
X81116548Y-78433642D01*
X81128585Y-78441724D01*
X81222932Y-78537926D01*
X81286489Y-78661414D01*
X81311233Y-78793597D01*
X81306925Y-78854927D01*
X81270638Y-78956487D01*
X81203787Y-79056209D01*
X81120177Y-79137923D01*
X81033611Y-79185458D01*
X81022233Y-79188423D01*
X80942587Y-79205916D01*
X80942587Y-79555418D01*
X80942587Y-79904919D01*
X81402438Y-79904919D01*
X81862289Y-79904919D01*
X81863269Y-80317432D01*
X81864249Y-80729946D01*
X81978193Y-80784046D01*
X82098895Y-80869674D01*
X82187657Y-80990456D01*
X82229777Y-81111460D01*
X82225656Y-81212975D01*
X82185787Y-81326441D01*
X82119240Y-81433506D01*
X82035083Y-81515816D01*
X82027351Y-81521121D01*
X81901788Y-81575897D01*
X81772771Y-81583985D01*
X81649014Y-81551408D01*
X81539235Y-81484190D01*
X81452147Y-81388357D01*
X81396466Y-81269933D01*
X81380906Y-81134942D01*
X81387633Y-81078904D01*
X81428339Y-80977052D01*
X81503504Y-80876473D01*
X81596695Y-80796794D01*
X81645764Y-80770572D01*
X81727038Y-80736907D01*
X81727038Y-80388538D01*
X81727038Y-80040169D01*
X80888487Y-80040169D01*
X80049935Y-80040169D01*
X80049935Y-80388538D01*
X80049935Y-80736907D01*
X80131210Y-80770572D01*
X80251502Y-80846326D01*
X80336907Y-80952674D01*
X80384430Y-81078159D01*
X80391074Y-81211325D01*
X80353844Y-81340716D01*
X80301397Y-81421342D01*
X80187924Y-81520071D01*
X80060274Y-81572608D01*
X79928283Y-81581079D01*
X79801789Y-81547612D01*
X79690628Y-81474334D01*
X79604638Y-81363370D01*
X79563990Y-81261907D01*
X79553598Y-81129462D01*
X79588286Y-80997870D01*
X79660690Y-80881274D01*
X79763449Y-80793816D01*
X79822114Y-80766077D01*
X79916216Y-80732049D01*
X79908688Y-80392872D01*
X79901160Y-80053694D01*
X79055846Y-80046547D01*
X78210531Y-80039399D01*
X78210531Y-80386229D01*
X78210531Y-80733059D01*
X78318741Y-80780801D01*
X78422474Y-80853251D01*
X78504528Y-80960946D01*
X78553468Y-81086012D01*
X78562182Y-81161440D01*
X78537926Y-81299971D01*
X78471622Y-81416889D01*
X78372966Y-81506371D01*
X78251653Y-81562597D01*
X78117378Y-81579746D01*
X77979838Y-81551997D01*
X77940570Y-81534643D01*
X77826042Y-81449029D01*
X77752943Y-81330293D01*
X77724006Y-81183120D01*
X77723631Y-81162747D01*
X77746159Y-81012508D01*
X77813705Y-80892259D01*
X77926209Y-80802096D01*
X77960318Y-80784746D01*
X78075281Y-80731346D01*
X78075281Y-80318133D01*
X78075281Y-79904919D01*
X78535132Y-79904919D01*
X78994983Y-79904919D01*
X78994983Y-79568820D01*
X78994983Y-79232721D01*
X78881067Y-79169832D01*
X78754027Y-79075108D01*
X78675474Y-78957080D01*
X78644152Y-78813715D01*
X78643433Y-78785104D01*
X78667222Y-78637672D01*
X78733310Y-78515752D01*
X78834125Y-78426253D01*
X78962097Y-78376087D01*
X79097514Y-78370636D01*
X79235632Y-78408944D01*
G37*
D16*
%TO.C,L432KC1*%
X107103248Y-51686000D02*
X107103248Y-54356000D01*
X107103248Y-56896000D02*
X107103248Y-95126000D01*
X107103248Y-95126000D02*
X125143248Y-95126000D01*
X109773248Y-54356000D02*
X107103248Y-54356000D01*
X109773248Y-56896000D02*
X107103248Y-56896000D01*
X109773248Y-56896000D02*
X109773248Y-54356000D01*
X109773248Y-56896000D02*
X109773248Y-92456000D01*
X109773248Y-92456000D02*
X107103248Y-92456000D01*
X112303248Y-49556000D02*
X120183248Y-49556000D01*
X112303248Y-59976000D02*
X112303248Y-49556000D01*
X120183248Y-49556000D02*
X120183248Y-59976000D01*
X120183248Y-59976000D02*
X112303248Y-59976000D01*
X122473248Y-54356000D02*
X122473248Y-92456000D01*
X122473248Y-54356000D02*
X125143248Y-54356000D01*
X122473248Y-92456000D02*
X125143248Y-92456000D01*
X125143248Y-51686000D02*
X107103248Y-51686000D01*
X125143248Y-95126000D02*
X125143248Y-51686000D01*
%TO.C,J9*%
X82440000Y-110640000D02*
X82440000Y-113290000D01*
X82440000Y-110640000D02*
X88290000Y-110640000D01*
X82440000Y-113540000D02*
X82440000Y-114140000D01*
X82440000Y-114390000D02*
X82440000Y-117890000D01*
X82440000Y-118140000D02*
X82440000Y-118740000D01*
X82440000Y-119040000D02*
X82440000Y-121690000D01*
X82440000Y-121690000D02*
X88290000Y-121690000D01*
X85740000Y-110140000D02*
X88740000Y-110140000D01*
X88290000Y-110640000D02*
X88290000Y-121690000D01*
X88740000Y-110140000D02*
X88740000Y-113140000D01*
D14*
%TO.C,J5*%
X69700000Y-69480000D02*
X95100000Y-69480000D01*
X69700000Y-92340000D02*
X69700000Y-69480000D01*
X92830000Y-92360000D02*
X69700000Y-92340000D01*
X92830000Y-92360000D02*
X95080000Y-90110000D01*
X95100000Y-69480000D02*
X95080000Y-90110000D01*
D10*
X95630000Y-88510000D02*
X95630000Y-88510000D01*
X95730000Y-88510000D02*
X95730000Y-88510000D01*
X95630000Y-88510000D02*
G75*
G02*
X95730000Y-88510000I50000J0D01*
G01*
X95730000Y-88510000D02*
G75*
G02*
X95630000Y-88510000I-50000J0D01*
G01*
D16*
%TO.C,R9*%
X106892936Y-93875000D02*
X107347064Y-93875000D01*
X106892936Y-95345000D02*
X107347064Y-95345000D01*
%TO.C,C4*%
X76708748Y-87925000D02*
X77231252Y-87925000D01*
X76708748Y-89395000D02*
X77231252Y-89395000D01*
%TO.C,SW1*%
X139310000Y-50950000D02*
X139310000Y-55450000D01*
X141810000Y-56700000D02*
X143310000Y-56700000D01*
X143310000Y-49700000D02*
X141810000Y-49700000D01*
X145810000Y-55450000D02*
X145810000Y-50950000D01*
%TO.C,R14*%
X81685000Y-62037064D02*
X81685000Y-61582936D01*
X83155000Y-62037064D02*
X83155000Y-61582936D01*
%TO.C,JP4*%
X143900000Y-125360000D02*
X143900000Y-120220000D01*
X146560000Y-120220000D02*
X143900000Y-120220000D01*
X146560000Y-125360000D02*
X143900000Y-125360000D01*
X146560000Y-125360000D02*
X146560000Y-120220000D01*
X146560000Y-126630000D02*
X146560000Y-127960000D01*
X146560000Y-127960000D02*
X145230000Y-127960000D01*
%TO.C,R3*%
X97775000Y-52012936D02*
X97775000Y-52467064D01*
X99245000Y-52012936D02*
X99245000Y-52467064D01*
%TO.C,C2*%
X76688748Y-85365000D02*
X77211252Y-85365000D01*
X76688748Y-86835000D02*
X77211252Y-86835000D01*
%TO.C,R8*%
X106872936Y-97065000D02*
X107327064Y-97065000D01*
X106872936Y-98535000D02*
X107327064Y-98535000D01*
%TO.C,R4*%
X138747064Y-61055000D02*
X138292936Y-61055000D01*
X138747064Y-62525000D02*
X138292936Y-62525000D01*
%TO.C,C8*%
X112940300Y-101703200D02*
X112417796Y-101703200D01*
X112940300Y-103173200D02*
X112417796Y-103173200D01*
%TO.C,JP3*%
X148050000Y-125360000D02*
X148050000Y-120220000D01*
X150710000Y-120220000D02*
X148050000Y-120220000D01*
X150710000Y-125360000D02*
X148050000Y-125360000D01*
X150710000Y-125360000D02*
X150710000Y-120220000D01*
X150710000Y-126630000D02*
X150710000Y-127960000D01*
X150710000Y-127960000D02*
X149380000Y-127960000D01*
%TO.C,R1*%
X141527064Y-58825000D02*
X141072936Y-58825000D01*
X141527064Y-60295000D02*
X141072936Y-60295000D01*
D14*
%TO.C,J1*%
X139747718Y-63302651D02*
X152317718Y-63302651D01*
X152317718Y-114612651D02*
X143807718Y-114612651D01*
X152317718Y-114612651D02*
X152317718Y-63302651D01*
%TD*%
D18*
X73750000Y-43050000D02*
X73750000Y-46550000D01*
X63750000Y-43050000D02*
X73750000Y-43050000D01*
X73750000Y-131550000D02*
X153750000Y-131550000D01*
X73750000Y-46550000D02*
X153750000Y-46550000D01*
X63750000Y-135050000D02*
X73750000Y-135050000D01*
X153750000Y-131550000D02*
X153750000Y-46550000D01*
X63750000Y-135050000D02*
X63750000Y-43050000D01*
X73750000Y-131550000D02*
X73750000Y-135050000D01*
M02*
