%TF.GenerationSoftware,KiCad,Pcbnew,8.0.6*%
%TF.CreationDate,2025-02-06T11:10:53+01:00*%
%TF.ProjectId,Com_Nucleo-L432kc,436f6d5f-4e75-4636-9c65-6f2d4c343332,rev?*%
%TF.SameCoordinates,Original*%
%TF.FileFunction,Soldermask,Bot*%
%TF.FilePolarity,Negative*%
%FSLAX46Y46*%
G04 Gerber Fmt 4.6, Leading zero omitted, Abs format (unit mm)*
G04 Created by KiCad (PCBNEW 8.0.6) date 2025-02-06 11:10:53*
%MOMM*%
%LPD*%
G01*
G04 APERTURE LIST*
%ADD10C,1.600000*%
%ADD11C,1.100000*%
%ADD12R,1.700000X1.700000*%
%ADD13O,1.700000X1.700000*%
%ADD14R,1.524000X1.524000*%
%ADD15C,1.524000*%
%ADD16R,1.600000X1.600000*%
%ADD17O,1.600000X1.600000*%
%ADD18R,1.400000X1.400000*%
%ADD19C,1.400000*%
%ADD20C,2.000000*%
%ADD21R,1.650000X1.650000*%
%ADD22C,1.650000*%
%ADD23C,5.000000*%
%TA.AperFunction,Profile*%
%ADD24C,0.100000*%
%TD*%
G04 APERTURE END LIST*
D10*
%TO.C,IC1*%
X120434748Y-127945000D03*
D11*
X120434748Y-102945000D03*
%TD*%
D12*
%TO.C,JP2*%
X134420000Y-61510000D03*
D13*
X134420000Y-58970000D03*
%TD*%
D14*
%TO.C,J4*%
X97540000Y-113110000D03*
D15*
X97540000Y-115110000D03*
X97540000Y-117110000D03*
X97540000Y-119110000D03*
%TD*%
D12*
%TO.C,J7*%
X128313249Y-55637948D03*
D13*
X128313249Y-58177948D03*
X128313249Y-60717948D03*
X128313249Y-63257948D03*
X128313249Y-65797948D03*
X128313249Y-68337948D03*
X128313249Y-70877948D03*
X128313249Y-73417948D03*
X128313249Y-75957948D03*
X128313249Y-78497948D03*
X128313249Y-81037948D03*
X128313249Y-83577948D03*
X128313249Y-86117948D03*
X128313249Y-88657948D03*
X128313249Y-91197948D03*
%TD*%
D12*
%TO.C,J2*%
X104183248Y-55626000D03*
D13*
X104183248Y-58166000D03*
X104183248Y-60706000D03*
X104183248Y-63246000D03*
X104183248Y-65786000D03*
X104183248Y-68326000D03*
X104183248Y-70866000D03*
X104183248Y-73406000D03*
X104183248Y-75946000D03*
X104183248Y-78486000D03*
X104183248Y-81026000D03*
X104183248Y-83566000D03*
X104183248Y-86106000D03*
X104183248Y-88646000D03*
X104183248Y-91186000D03*
%TD*%
D12*
%TO.C,JP5*%
X139260000Y-126615000D03*
D13*
X139260000Y-124075000D03*
X139260000Y-121535000D03*
%TD*%
D12*
%TO.C,JP1*%
X132810000Y-126600000D03*
D13*
X132810000Y-124060000D03*
X132810000Y-121520000D03*
%TD*%
D14*
%TO.C,J6*%
X74740000Y-113180000D03*
D15*
X74740000Y-115180000D03*
X74740000Y-117180000D03*
X74740000Y-119180000D03*
%TD*%
D16*
%TO.C,L432KC1*%
X108503248Y-55626000D03*
D17*
X108503248Y-58166000D03*
X108503248Y-60706000D03*
X108503248Y-63246000D03*
X108503248Y-65786000D03*
X108503248Y-68326000D03*
X108503248Y-70866000D03*
X108503248Y-73406000D03*
X108503248Y-75946000D03*
X108503248Y-78486000D03*
X108503248Y-81026000D03*
X108503248Y-83566000D03*
X108503248Y-86106000D03*
X108503248Y-88646000D03*
X108503248Y-91186000D03*
X123743248Y-91186000D03*
X123743248Y-88646000D03*
X123743248Y-86106000D03*
X123743248Y-83566000D03*
X123743248Y-81026000D03*
X123743248Y-78486000D03*
X123743248Y-75946000D03*
X123743248Y-73406000D03*
X123743248Y-70866000D03*
X123743248Y-68326000D03*
X123743248Y-65786000D03*
X123743248Y-63246000D03*
X123743248Y-60706000D03*
X123743248Y-58166000D03*
X123743248Y-55626000D03*
%TD*%
D14*
%TO.C,J9*%
X85740000Y-113140000D03*
D15*
X85740000Y-115140000D03*
X85740000Y-117140000D03*
X85740000Y-119140000D03*
%TD*%
D18*
%TO.C,J5*%
X93830000Y-88510000D03*
D19*
X93830000Y-85970000D03*
X93830000Y-83430000D03*
X93830000Y-80890000D03*
X93830000Y-78350000D03*
X93830000Y-75810000D03*
X93830000Y-73270000D03*
X93830000Y-70730000D03*
X70970000Y-70730000D03*
X70970000Y-73270000D03*
X70970000Y-75810000D03*
X70970000Y-78350000D03*
X70970000Y-80890000D03*
X70970000Y-83430000D03*
X70970000Y-85970000D03*
X70970000Y-88510000D03*
%TD*%
D20*
%TO.C,SW1*%
X140310000Y-56450000D03*
X140310000Y-49950000D03*
X144810000Y-56450000D03*
X144810000Y-49950000D03*
%TD*%
D12*
%TO.C,JP4*%
X145230000Y-126630000D03*
D13*
X145230000Y-124090000D03*
X145230000Y-121550000D03*
%TD*%
D12*
%TO.C,JP3*%
X149380000Y-126630000D03*
D13*
X149380000Y-124090000D03*
X149380000Y-121550000D03*
%TD*%
D21*
%TO.C,J1*%
X142240000Y-113090000D03*
D22*
X139700000Y-113090000D03*
X142240000Y-110550000D03*
X139700000Y-110550000D03*
X142240000Y-108010000D03*
X139700000Y-108010000D03*
X142240000Y-105470000D03*
X139700000Y-105470000D03*
X142240000Y-102930000D03*
X139700000Y-102930000D03*
X142240000Y-100390000D03*
X139700000Y-100390000D03*
X142240000Y-97850000D03*
X139700000Y-97850000D03*
X142240000Y-95310000D03*
X139700000Y-95310000D03*
X142240000Y-92770000D03*
X139700000Y-92770000D03*
X142240000Y-90230000D03*
X139700000Y-90230000D03*
X142240000Y-87690000D03*
X139700000Y-87690000D03*
X142240000Y-85150000D03*
X139700000Y-85150000D03*
X142240000Y-82610000D03*
X139700000Y-82610000D03*
X142240000Y-80070000D03*
X139700000Y-80070000D03*
X142240000Y-77530000D03*
X139700000Y-77530000D03*
X142240000Y-74990000D03*
X139700000Y-74990000D03*
X142240000Y-72450000D03*
X139700000Y-72450000D03*
X142240000Y-69910000D03*
X139700000Y-69910000D03*
X142240000Y-67370000D03*
X139700000Y-67370000D03*
X142240000Y-64830000D03*
X139700000Y-64830000D03*
%TD*%
D23*
%TO.C,REF\u002A\u002A*%
X72384748Y-127545000D03*
%TD*%
%TO.C,*%
X72384748Y-103345000D03*
%TD*%
D24*
X73750000Y-43050000D02*
X73750000Y-46550000D01*
X63750000Y-43050000D02*
X73750000Y-43050000D01*
X73750000Y-131550000D02*
X153750000Y-131550000D01*
X73750000Y-46550000D02*
X153750000Y-46550000D01*
X63750000Y-135050000D02*
X73750000Y-135050000D01*
X153750000Y-131550000D02*
X153750000Y-46550000D01*
X63750000Y-135050000D02*
X63750000Y-43050000D01*
X73750000Y-131550000D02*
X73750000Y-135050000D01*
M02*
